
<svg xmlns="http://www.w3.org/2000/svg" id="ID_svg" viewBox="0 0 1017.92 448" viewport-fill="none" viewport-fill-opacity="1" xmlns:exsl4D="http://www.4D.com" xmlns:gFunc="http://gFunc" xmlns:math="http://exslt.org/math" xmlns:xlink="http://www.w3.org/1999/xlink">

  <!--gradient styles-->

  <defs>
    <filter id="soft_blur">
      <feGaussianBlur in="SourceGraphic" result="BlurAlpha" stdDeviation="1"/>
    </filter>
    <filter id="pastel">
      <feGaussianBlur in="SourceAlpha" result="blur" stdDeviation="2"/>
      <feOffset dx="6" dy="6" in="blur" result="offsetBlur"/>
      <feComposite in="SourceGraphic" in2="offsetBlur" operator="in" result="specOut"/>
    </filter>
    <filter id="blur_shadow">
      <feGaussianBlur in="SourceAlpha" result="blur" stdDeviation="3"/>
      <feOffset dx="4" dy="2" in="blur" result="offsetBlur"/>
      <feBlend in="SourceGraphic" in2="offsetBlur" mode="normal"/>
    </filter>
    <filter filterUnits="objectBoundingBox" id="Shadow">
      <feGaussianBlur in="SourceAlpha" result="flou" stdDeviation="0"/>
      <feColorMatrix in="SourceAlpha" result="flouBlue" type="matrix" values=" 0 0 0 0 0                      0 0 0 0 0                     0 0 0 0 0                      0 0 0 0.3 0"/>
      <feOffset dx="4" dy="4" in="flouBlue" result="flouDecalage"/>
      <feBlend in="SourceGraphic" in2="flouDecalage" mode="normal"/>
    </filter>
    <filter filterUnits="objectBoundingBox" height="100%" id="SaturateMinus" width="100%" x="0%" y="0%">
      <feColorMatrix in="SourceGraphic" type="saturate" values="0.5"/>
    </filter>
    <filter filterUnits="objectBoundingBox" height="100%" id="SaturatePlus" width="100%" x="0%" y="0%">
      <feColorMatrix in="SourceGraphic" type="saturate" values="1.4"/>
    </filter>
    <linearGradient id="BlackGradient">
      <stop offset="0%" style="stop-color:rgb(0,0,0); stop-opacity:0"/>
      <stop offset="100%" style="stop-color:rgb(0,0,0); stop-opacity:0.1"/>
    </linearGradient>
    <linearGradient id="WhiteGradient" x1="0%" x2="100%" y1="0%" y2="0%">
      <stop offset="0%" style="stop-color:rgb(255,255,255); stop-opacity:0.3"/>
      <stop offset="100%" style="stop-color:rgb(255,255,255);stop-opacity:0"/>
    </linearGradient>
    <linearGradient id="WhiteBlackGradient" x1="0%" x2="100%" y1="0%" y2="0%">
      <stop offset="0%" style="stop-color:rgb(255,255,255); stop-opacity:0.15"/>
      <stop offset="100%" style="stop-color:rgb(0,0,0);stop-opacity:0.15"/>
    </linearGradient>
    <linearGradient id="Black0Black1Gradient" x1="0%" x2="0%" y1="0%" y2="100%">
      <stop offset="0%" style="stop-color:rgb(0,0,0); stop-opacity:0"/>
      <stop offset="100%" style="stop-color:rgb(0,0,0);stop-opacity:0.05"/>
    </linearGradient>
  </defs>

  <!--global stroke and font styles-->

  <g id="ID_globals" style="fill:black;stroke:none;font-family:Arial;font-size:12px;font-weight:normal;font-style:normal;text-decoration:none;shape-rendering:crispEdges">
    <!--draw title-->
    <!--********************************draw graph background********************************-->
    <rect fill="rgb(168,168,168)" height="400" id="ID_background_shadow" opacity="1" rx="10" ry="10" stroke="none" transform="translate(1,1)" visibility="visible" width="799.92" x="42" y="12"/>
    <g fill="rgb(229,229,229)" id="ID_background" opacity="1" stroke="none" visibility="visible">
      <rect height="400" rx="10" ry="10" stroke="none" width="799.92" x="42" y="12"/>
      <rect fill="url(#Black0Black1Gradient)" height="400" rx="10" ry="10" stroke="none" width="799.92" x="42" y="12"/>
    </g>
    <clipPath id="ID_backgroundClipPath">
      <rect height="401" rx="10" ry="10" width="800.92" x="41" y="11"/>
    </clipPath>
    <!--********************************draw Y Labels********************************-->
    <g id="ID_y$value" style="fill:black;stroke:none;font-family:Arial;font-size:12px;font-weight:normal;font-style:normal;text-decoration:none;filter:none" visibility="visible">
      <text text-anchor="end" x="30" y="18">14</text>
      <text text-anchor="end" x="30" y="51.33">12</text>
      <text text-anchor="end" x="30" y="84.66">10</text>
      <text text-anchor="end" x="30" y="117.99">8</text>
      <text text-anchor="end" x="30" y="151.32">6</text>
      <text text-anchor="end" x="30" y="184.65">4</text>
      <text text-anchor="end" x="30" y="217.98">2</text>
      <text text-anchor="end" x="30" y="251.31">0</text>
      <text text-anchor="end" x="30" y="284.64">-2</text>
      <text text-anchor="end" x="30" y="317.97">-4</text>
      <text text-anchor="end" x="30" y="351.3">-6</text>
      <text text-anchor="end" x="30" y="384.63">-8</text>
      <text text-anchor="end" x="30" y="417.96">-10</text>
    </g>
    <!--********************************draw X Labels********************************-->
    <!--draw axis x labels-->
    <g id="ID_x$value" style="fill:black;stroke:none;font-family:Arial;font-size:12px;font-weight:normal;font-style:normal;text-decoration:none;filter:none" visibility="visible">
      <text text-anchor="middle" x="91.995" y="436">08:00:00</text>
      <text text-anchor="middle" x="191.985" y="436">09:00:00</text>
      <text text-anchor="middle" x="291.975" y="436">10:00:00</text>
      <text text-anchor="middle" x="391.965" y="436">11:00:00</text>
      <text text-anchor="middle" x="491.955" y="436">11:15:00</text>
      <text text-anchor="middle" x="591.945" y="436">14:45:00</text>
      <text text-anchor="middle" x="691.935" y="436">15:00:00</text>
      <text text-anchor="middle" x="791.925" y="436">16:00:00</text>
    </g>
    <g style="clip-path: url(#ID_backgroundClipPath)">
      <!--******************************** draw Y grid lines******************************** (Horizontal lines)-->
      <g id="ID_y_grid" stroke="#a8a8a8" stroke-width="1">
        <line x1="42" x2="841.92" y1="45.33" y2="45.33"/>
        <line x1="42" x2="841.92" y1="78.66" y2="78.66"/>
        <line x1="42" x2="841.92" y1="111.99" y2="111.99"/>
        <line x1="42" x2="841.92" y1="145.32" y2="145.32"/>
        <line x1="42" x2="841.92" y1="178.65" y2="178.65"/>
        <line x1="42" x2="841.92" y1="211.98" y2="211.98"/>
        <line x1="42" x2="841.92" y1="245.31" y2="245.31"/>
        <line x1="42" x2="841.92" y1="278.64" y2="278.64"/>
        <line x1="42" x2="841.92" y1="311.97" y2="311.97"/>
        <line x1="42" x2="841.92" y1="345.3" y2="345.3"/>
        <line x1="42" x2="841.92" y1="378.63" y2="378.63"/>
      </g>
      <!--draw Y grid lines SHADOWS-->
      <g id="ID_y_grid_shadow" stroke="#ffffff" stroke-width="1">
        <line transform="translate(0,1)" x1="42" x2="841.92" y1="45.33" y2="45.33"/>
        <line transform="translate(0,1)" x1="42" x2="841.92" y1="78.66" y2="78.66"/>
        <line transform="translate(0,1)" x1="42" x2="841.92" y1="111.99" y2="111.99"/>
        <line transform="translate(0,1)" x1="42" x2="841.92" y1="145.32" y2="145.32"/>
        <line transform="translate(0,1)" x1="42" x2="841.92" y1="178.65" y2="178.65"/>
        <line transform="translate(0,1)" x1="42" x2="841.92" y1="211.98" y2="211.98"/>
        <line transform="translate(0,1)" x1="42" x2="841.92" y1="245.31" y2="245.31"/>
        <line transform="translate(0,1)" x1="42" x2="841.92" y1="278.64" y2="278.64"/>
        <line transform="translate(0,1)" x1="42" x2="841.92" y1="311.97" y2="311.97"/>
        <line transform="translate(0,1)" x1="42" x2="841.92" y1="345.3" y2="345.3"/>
        <line transform="translate(0,1)" x1="42" x2="841.92" y1="378.63" y2="378.63"/>
      </g>
      <g id="ID_y0_axis" stroke="rgb(100,100,100)" stroke-width="1" visibility="visible">
        <line x1="42" x2="841.92" y1="245.33" y2="245.33"/>
      </g>
      <!--********************************draw X grid lines******************************** (Vertical lines)-->
      <g id="ID_x_grid" stroke="#a8a8a8" stroke-width="1">
        <line x1="141.99" x2="141.99" y1="12" y2="412"/>
        <line x1="241.98" x2="241.98" y1="12" y2="412"/>
        <line x1="341.97" x2="341.97" y1="12" y2="412"/>
        <line x1="441.96" x2="441.96" y1="12" y2="412"/>
        <line x1="541.95" x2="541.95" y1="12" y2="412"/>
        <line x1="641.94" x2="641.94" y1="12" y2="412"/>
        <line x1="741.93" x2="741.93" y1="12" y2="412"/>
        <line x1="841.92" x2="841.92" y1="12" y2="412"/>
      </g>
      <!--draw X grid lines SHADOWS -->
      <g id="ID_x_grid_shadow" stroke="#ffffff" stroke-width="1">
        <line transform="translate(1,0)" x1="141.99" x2="141.99" y1="12" y2="412"/>
        <line transform="translate(1,0)" x1="241.98" x2="241.98" y1="12" y2="412"/>
        <line transform="translate(1,0)" x1="341.97" x2="341.97" y1="12" y2="412"/>
        <line transform="translate(1,0)" x1="441.96" x2="441.96" y1="12" y2="412"/>
        <line transform="translate(1,0)" x1="541.95" x2="541.95" y1="12" y2="412"/>
        <line transform="translate(1,0)" x1="641.94" x2="641.94" y1="12" y2="412"/>
        <line transform="translate(1,0)" x1="741.93" x2="741.93" y1="12" y2="412"/>
        <line transform="translate(1,0)" x1="841.92" x2="841.92" y1="12" y2="412"/>
      </g>
    </g>
    <!--******************************** draw legend ***********************************-->
    <g filter="none" id="ID_legend" transform="translate(853.92,12)" visibility="visible">
      <!--draw legend border-->
      <rect fill="rgb(168,168,168)" fill-opacity="1" height="100" id="ID_legend_border_shadow" rx="10" ry="10" stroke="none" transform="translate(1,1)" width="152" x="0" y="0"/>
      <rect fill="rgb(229,229,229)" fill-opacity="1" height="100" id="ID_legend_border" rx="10" ry="10" stroke="none" stroke-width="0" width="152" x="0" y="0"/>
      <!--draw legend bullets-->
      <g id="ID_legend_bullets" stroke="none">
        <g fill="rgb(0,178,195)" id="ID_legend_1">
          <rect height="20" rx="3" ry="3" width="20" x="10" y="10"/>
          <rect fill="url(#WhiteBlackGradient)" height="20" rx="3" ry="3" width="20" x="10" y="10"/>
          <rect fill-opacity="0.3" filter="url(#SaturateMinus)" height="20" rx="3" ry="3" width="20" x="10" y="10"/>
        </g>
        <g fill="rgb(255,195,56)" id="ID_legend_2">
          <rect height="20" rx="3" ry="3" width="20" x="10" y="40"/>
          <rect fill="url(#WhiteBlackGradient)" height="20" rx="3" ry="3" width="20" x="10" y="40"/>
          <rect fill-opacity="0.3" filter="url(#SaturateMinus)" height="20" rx="3" ry="3" width="20" x="10" y="40"/>
        </g>
        <g fill="rgb(87,62,130)" id="ID_legend_3">
          <rect height="20" rx="3" ry="3" width="20" x="10" y="70"/>
          <rect fill="url(#WhiteBlackGradient)" height="20" rx="3" ry="3" width="20" x="10" y="70"/>
          <rect fill-opacity="0.3" filter="url(#SaturateMinus)" height="20" rx="3" ry="3" width="20" x="10" y="70"/>
        </g>
      </g>
      <!--draw legend labels-->
      <g id="ID_legend_labels" style="fill:black;stroke:none;font-family:Arial;;font-weight:normal;font-style:normal;text-decoration:none;filter:none;text-anchor:start">
        <text x="40" y="27">Sharp</text>
        <text x="40" y="57">Infinity</text>
        <text x="40" y="87">Audio Référence</text>
      </g>
    </g>
    <!-- exemple de path "M 0 0 l 0 -198 s 0,-6,6,-6 l 12 0 s 6,0,6,6 l 0 198 z" -->
    <g style="clip-path: url(#ID_backgroundClipPath)">
      <g fill="black" fill-opacity="0.2" id="ID_graph_shadow_1">
        <path d="M 0 0 l 0 10.67 s 0 6 6 6 l 5.33 0 s 6 0 6 -6 l 0 -10.67 z" transform="translate(57,245.33)"/>
        <path d="M 0 0 l 0 -27.33 s 0 -6 6 -6 l 5.33 0 s 6 0 6 6 l 0 27.33 z" transform="translate(156.99,245.33)"/>
        <path d="M 0 0 l 0 44 s 0 6 6 6 l 5.33 0 s 6 0 6 -6 l 0 -44 z" transform="translate(256.98,245.33)"/>
        <path d="M 0 0 l 0 -60.67 s 0 -6 6 -6 l 5.33 0 s 6 0 6 6 l 0 60.67 z" transform="translate(356.97,245.33)"/>
        <path d="M 0 0 l 0 77.33 s 0 6 6 6 l 5.33 0 s 6 0 6 -6 l 0 -77.33 z" transform="translate(456.96,245.33)"/>
        <path d="M 0 0 l 0 -94 s 0 -6 6 -6 l 5.33 0 s 6 0 6 6 l 0 94 z" transform="translate(556.95,245.33)"/>
        <path d="M 0 0 l 0 110.67 s 0 6 6 6 l 5.33 0 s 6 0 6 -6 l 0 -110.67 z" transform="translate(656.94,245.33)"/>
        <path d="M 0 0 l 0 -127.33 s 0 -6 6 -6 l 5.33 0 s 6 0 6 6 l 0 127.33 z" transform="translate(756.93,245.33)"/>
      </g>
      <g fill="black" fill-opacity="0.2" id="ID_graph_shadow_2">
        <path d="M 0 0 l 0 12.33 s 0 6 6 6 l 5.33 0 s 6 0 6 -6 l 0 -12.33 z" transform="translate(86.33,245.33)"/>
        <path d="M 0 0 l 0 -30.67 s 0 -6 6 -6 l 5.33 0 s 6 0 6 6 l 0 30.67 z" transform="translate(186.32,245.33)"/>
        <path d="M 0 0 l 0 49 s 0 6 6 6 l 5.33 0 s 6 0 6 -6 l 0 -49 z" transform="translate(286.31,245.33)"/>
        <path d="M 0 0 l 0 -67.33 s 0 -6 6 -6 l 5.33 0 s 6 0 6 6 l 0 67.33 z" transform="translate(386.3,245.33)"/>
        <path d="M 0 0 l 0 85.67 s 0 6 6 6 l 5.33 0 s 6 0 6 -6 l 0 -85.67 z" transform="translate(486.29,245.33)"/>
        <path d="M 0 0 l 0 -104 s 0 -6 6 -6 l 5.33 0 s 6 0 6 6 l 0 104 z" transform="translate(586.28,245.33)"/>
        <path d="M 0 0 l 0 122.33 s 0 6 6 6 l 5.33 0 s 6 0 6 -6 l 0 -122.33 z" transform="translate(686.27,245.33)"/>
        <path d="M 0 0 l 0 -140.67 s 0 -6 6 -6 l 5.33 0 s 6 0 6 6 l 0 140.67 z" transform="translate(786.26,245.33)"/>
      </g>
      <g fill="black" fill-opacity="0.2" id="ID_graph_shadow_3">
        <path d="M 0 0 l 0 14.17 s 0 6 6 6 l 5.33 0 s 6 0 6 -6 l 0 -14.17 z" transform="translate(115.66,245.33)"/>
        <path d="M 0 0 l 0 -34.33 s 0 -6 6 -6 l 5.33 0 s 6 0 6 6 l 0 34.33 z" transform="translate(215.65,245.33)"/>
        <path d="M 0 0 l 0 54.5 s 0 6 6 6 l 5.33 0 s 6 0 6 -6 l 0 -54.5 z" transform="translate(315.64,245.33)"/>
        <path d="M 0 0 l 0 -74.67 s 0 -6 6 -6 l 5.33 0 s 6 0 6 6 l 0 74.67 z" transform="translate(415.63,245.33)"/>
        <path d="M 0 0 l 0 94.83 s 0 6 6 6 l 5.33 0 s 6 0 6 -6 l 0 -94.83 z" transform="translate(515.62,245.33)"/>
        <path d="M 0 0 l 0 -115 s 0 -6 6 -6 l 5.33 0 s 6 0 6 6 l 0 115 z" transform="translate(615.61,245.33)"/>
        <path d="M 0 0 l 0 135.17 s 0 6 6 6 l 5.33 0 s 6 0 6 -6 l 0 -135.17 z" transform="translate(715.6,245.33)"/>
        <path d="M 0 0 l 0 -155.33 s 0 -6 6 -6 l 5.33 0 s 6 0 6 6 l 0 155.33 z" transform="translate(815.59,245.33)"/>
      </g>
      <g fill="rgb(0,178,195)" filter="none" id="ID_graph_1" opacity="1" stroke="none" stroke-opacity="1" stroke-width="0">
        <path d="M 0 0 l 0 10.67 s 0 6 6 6 l 5.33 0 s 6 0 6 -6 l 0 -10.67 z" transform="translate(54,245.33)"/>
        <path d="M 0 0 l 0 10.67 s 0 6 6 6 l 5.33 0 s 6 0 6 -6 l 0 -10.67 z" fill="url(#WhiteBlackGradient)" transform="translate(54,245.33)"/>
        <path d="M 0 0 l 0 10.67 s 0 6 6 6 l 5.33 0 s 6 0 6 -6 l 0 -10.67 z" fill-opacity="0.3" filter="url(#SaturateMinus)" transform="translate(54,245.33)"/>
        <path d="M 0 0 l 0 -27.33 s 0 -6 6 -6 l 5.33 0 s 6 0 6 6 l 0 27.33 z" transform="translate(153.99,245.33)"/>
        <path d="M 0 0 l 0 -27.33 s 0 -6 6 -6 l 5.33 0 s 6 0 6 6 l 0 27.33 z" fill="url(#WhiteBlackGradient)" transform="translate(153.99,245.33)"/>
        <path d="M 0 0 l 0 -27.33 s 0 -6 6 -6 l 5.33 0 s 6 0 6 6 l 0 27.33 z" fill-opacity="0.3" filter="url(#SaturateMinus)" transform="translate(153.99,245.33)"/>
        <path d="M 0 0 l 0 44 s 0 6 6 6 l 5.33 0 s 6 0 6 -6 l 0 -44 z" transform="translate(253.98,245.33)"/>
        <path d="M 0 0 l 0 44 s 0 6 6 6 l 5.33 0 s 6 0 6 -6 l 0 -44 z" fill="url(#WhiteBlackGradient)" transform="translate(253.98,245.33)"/>
        <path d="M 0 0 l 0 44 s 0 6 6 6 l 5.33 0 s 6 0 6 -6 l 0 -44 z" fill-opacity="0.3" filter="url(#SaturateMinus)" transform="translate(253.98,245.33)"/>
        <path d="M 0 0 l 0 -60.67 s 0 -6 6 -6 l 5.33 0 s 6 0 6 6 l 0 60.67 z" transform="translate(353.97,245.33)"/>
        <path d="M 0 0 l 0 -60.67 s 0 -6 6 -6 l 5.33 0 s 6 0 6 6 l 0 60.67 z" fill="url(#WhiteBlackGradient)" transform="translate(353.97,245.33)"/>
        <path d="M 0 0 l 0 -60.67 s 0 -6 6 -6 l 5.33 0 s 6 0 6 6 l 0 60.67 z" fill-opacity="0.3" filter="url(#SaturateMinus)" transform="translate(353.97,245.33)"/>
        <path d="M 0 0 l 0 77.33 s 0 6 6 6 l 5.33 0 s 6 0 6 -6 l 0 -77.33 z" transform="translate(453.96,245.33)"/>
        <path d="M 0 0 l 0 77.33 s 0 6 6 6 l 5.33 0 s 6 0 6 -6 l 0 -77.33 z" fill="url(#WhiteBlackGradient)" transform="translate(453.96,245.33)"/>
        <path d="M 0 0 l 0 77.33 s 0 6 6 6 l 5.33 0 s 6 0 6 -6 l 0 -77.33 z" fill-opacity="0.3" filter="url(#SaturateMinus)" transform="translate(453.96,245.33)"/>
        <path d="M 0 0 l 0 -94 s 0 -6 6 -6 l 5.33 0 s 6 0 6 6 l 0 94 z" transform="translate(553.95,245.33)"/>
        <path d="M 0 0 l 0 -94 s 0 -6 6 -6 l 5.33 0 s 6 0 6 6 l 0 94 z" fill="url(#WhiteBlackGradient)" transform="translate(553.95,245.33)"/>
        <path d="M 0 0 l 0 -94 s 0 -6 6 -6 l 5.33 0 s 6 0 6 6 l 0 94 z" fill-opacity="0.3" filter="url(#SaturateMinus)" transform="translate(553.95,245.33)"/>
        <path d="M 0 0 l 0 110.67 s 0 6 6 6 l 5.33 0 s 6 0 6 -6 l 0 -110.67 z" transform="translate(653.94,245.33)"/>
        <path d="M 0 0 l 0 110.67 s 0 6 6 6 l 5.33 0 s 6 0 6 -6 l 0 -110.67 z" fill="url(#WhiteBlackGradient)" transform="translate(653.94,245.33)"/>
        <path d="M 0 0 l 0 110.67 s 0 6 6 6 l 5.33 0 s 6 0 6 -6 l 0 -110.67 z" fill-opacity="0.3" filter="url(#SaturateMinus)" transform="translate(653.94,245.33)"/>
        <path d="M 0 0 l 0 -127.33 s 0 -6 6 -6 l 5.33 0 s 6 0 6 6 l 0 127.33 z" transform="translate(753.93,245.33)"/>
        <path d="M 0 0 l 0 -127.33 s 0 -6 6 -6 l 5.33 0 s 6 0 6 6 l 0 127.33 z" fill="url(#WhiteBlackGradient)" transform="translate(753.93,245.33)"/>
        <path d="M 0 0 l 0 -127.33 s 0 -6 6 -6 l 5.33 0 s 6 0 6 6 l 0 127.33 z" fill-opacity="0.3" filter="url(#SaturateMinus)" transform="translate(753.93,245.33)"/>
      </g>
      <g fill="rgb(255,195,56)" filter="none" id="ID_graph_2" opacity="1" stroke="none" stroke-opacity="1" stroke-width="0">
        <path d="M 0 0 l 0 12.33 s 0 6 6 6 l 5.33 0 s 6 0 6 -6 l 0 -12.33 z" transform="translate(83.33,245.33)"/>
        <path d="M 0 0 l 0 12.33 s 0 6 6 6 l 5.33 0 s 6 0 6 -6 l 0 -12.33 z" fill="url(#WhiteBlackGradient)" transform="translate(83.33,245.33)"/>
        <path d="M 0 0 l 0 12.33 s 0 6 6 6 l 5.33 0 s 6 0 6 -6 l 0 -12.33 z" fill-opacity="0.3" filter="url(#SaturateMinus)" transform="translate(83.33,245.33)"/>
        <path d="M 0 0 l 0 -30.67 s 0 -6 6 -6 l 5.33 0 s 6 0 6 6 l 0 30.67 z" transform="translate(183.32,245.33)"/>
        <path d="M 0 0 l 0 -30.67 s 0 -6 6 -6 l 5.33 0 s 6 0 6 6 l 0 30.67 z" fill="url(#WhiteBlackGradient)" transform="translate(183.32,245.33)"/>
        <path d="M 0 0 l 0 -30.67 s 0 -6 6 -6 l 5.33 0 s 6 0 6 6 l 0 30.67 z" fill-opacity="0.3" filter="url(#SaturateMinus)" transform="translate(183.32,245.33)"/>
        <path d="M 0 0 l 0 49 s 0 6 6 6 l 5.33 0 s 6 0 6 -6 l 0 -49 z" transform="translate(283.31,245.33)"/>
        <path d="M 0 0 l 0 49 s 0 6 6 6 l 5.33 0 s 6 0 6 -6 l 0 -49 z" fill="url(#WhiteBlackGradient)" transform="translate(283.31,245.33)"/>
        <path d="M 0 0 l 0 49 s 0 6 6 6 l 5.33 0 s 6 0 6 -6 l 0 -49 z" fill-opacity="0.3" filter="url(#SaturateMinus)" transform="translate(283.31,245.33)"/>
        <path d="M 0 0 l 0 -67.33 s 0 -6 6 -6 l 5.33 0 s 6 0 6 6 l 0 67.33 z" transform="translate(383.3,245.33)"/>
        <path d="M 0 0 l 0 -67.33 s 0 -6 6 -6 l 5.33 0 s 6 0 6 6 l 0 67.33 z" fill="url(#WhiteBlackGradient)" transform="translate(383.3,245.33)"/>
        <path d="M 0 0 l 0 -67.33 s 0 -6 6 -6 l 5.33 0 s 6 0 6 6 l 0 67.33 z" fill-opacity="0.3" filter="url(#SaturateMinus)" transform="translate(383.3,245.33)"/>
        <path d="M 0 0 l 0 85.67 s 0 6 6 6 l 5.33 0 s 6 0 6 -6 l 0 -85.67 z" transform="translate(483.29,245.33)"/>
        <path d="M 0 0 l 0 85.67 s 0 6 6 6 l 5.33 0 s 6 0 6 -6 l 0 -85.67 z" fill="url(#WhiteBlackGradient)" transform="translate(483.29,245.33)"/>
        <path d="M 0 0 l 0 85.67 s 0 6 6 6 l 5.33 0 s 6 0 6 -6 l 0 -85.67 z" fill-opacity="0.3" filter="url(#SaturateMinus)" transform="translate(483.29,245.33)"/>
        <path d="M 0 0 l 0 -104 s 0 -6 6 -6 l 5.33 0 s 6 0 6 6 l 0 104 z" transform="translate(583.28,245.33)"/>
        <path d="M 0 0 l 0 -104 s 0 -6 6 -6 l 5.33 0 s 6 0 6 6 l 0 104 z" fill="url(#WhiteBlackGradient)" transform="translate(583.28,245.33)"/>
        <path d="M 0 0 l 0 -104 s 0 -6 6 -6 l 5.33 0 s 6 0 6 6 l 0 104 z" fill-opacity="0.3" filter="url(#SaturateMinus)" transform="translate(583.28,245.33)"/>
        <path d="M 0 0 l 0 122.33 s 0 6 6 6 l 5.33 0 s 6 0 6 -6 l 0 -122.33 z" transform="translate(683.27,245.33)"/>
        <path d="M 0 0 l 0 122.33 s 0 6 6 6 l 5.33 0 s 6 0 6 -6 l 0 -122.33 z" fill="url(#WhiteBlackGradient)" transform="translate(683.27,245.33)"/>
        <path d="M 0 0 l 0 122.33 s 0 6 6 6 l 5.33 0 s 6 0 6 -6 l 0 -122.33 z" fill-opacity="0.3" filter="url(#SaturateMinus)" transform="translate(683.27,245.33)"/>
        <path d="M 0 0 l 0 -140.67 s 0 -6 6 -6 l 5.33 0 s 6 0 6 6 l 0 140.67 z" transform="translate(783.26,245.33)"/>
        <path d="M 0 0 l 0 -140.67 s 0 -6 6 -6 l 5.33 0 s 6 0 6 6 l 0 140.67 z" fill="url(#WhiteBlackGradient)" transform="translate(783.26,245.33)"/>
        <path d="M 0 0 l 0 -140.67 s 0 -6 6 -6 l 5.33 0 s 6 0 6 6 l 0 140.67 z" fill-opacity="0.3" filter="url(#SaturateMinus)" transform="translate(783.26,245.33)"/>
      </g>
      <g fill="rgb(87,62,130)" filter="none" id="ID_graph_3" opacity="1" stroke="none" stroke-opacity="1" stroke-width="0">
        <path d="M 0 0 l 0 14.17 s 0 6 6 6 l 5.33 0 s 6 0 6 -6 l 0 -14.17 z" transform="translate(112.66,245.33)"/>
        <path d="M 0 0 l 0 14.17 s 0 6 6 6 l 5.33 0 s 6 0 6 -6 l 0 -14.17 z" fill="url(#WhiteBlackGradient)" transform="translate(112.66,245.33)"/>
        <path d="M 0 0 l 0 14.17 s 0 6 6 6 l 5.33 0 s 6 0 6 -6 l 0 -14.17 z" fill-opacity="0.3" filter="url(#SaturateMinus)" transform="translate(112.66,245.33)"/>
        <path d="M 0 0 l 0 -34.33 s 0 -6 6 -6 l 5.33 0 s 6 0 6 6 l 0 34.33 z" transform="translate(212.65,245.33)"/>
        <path d="M 0 0 l 0 -34.33 s 0 -6 6 -6 l 5.33 0 s 6 0 6 6 l 0 34.33 z" fill="url(#WhiteBlackGradient)" transform="translate(212.65,245.33)"/>
        <path d="M 0 0 l 0 -34.33 s 0 -6 6 -6 l 5.33 0 s 6 0 6 6 l 0 34.33 z" fill-opacity="0.3" filter="url(#SaturateMinus)" transform="translate(212.65,245.33)"/>
        <path d="M 0 0 l 0 54.5 s 0 6 6 6 l 5.33 0 s 6 0 6 -6 l 0 -54.5 z" transform="translate(312.64,245.33)"/>
        <path d="M 0 0 l 0 54.5 s 0 6 6 6 l 5.33 0 s 6 0 6 -6 l 0 -54.5 z" fill="url(#WhiteBlackGradient)" transform="translate(312.64,245.33)"/>
        <path d="M 0 0 l 0 54.5 s 0 6 6 6 l 5.33 0 s 6 0 6 -6 l 0 -54.5 z" fill-opacity="0.3" filter="url(#SaturateMinus)" transform="translate(312.64,245.33)"/>
        <path d="M 0 0 l 0 -74.67 s 0 -6 6 -6 l 5.33 0 s 6 0 6 6 l 0 74.67 z" transform="translate(412.63,245.33)"/>
        <path d="M 0 0 l 0 -74.67 s 0 -6 6 -6 l 5.33 0 s 6 0 6 6 l 0 74.67 z" fill="url(#WhiteBlackGradient)" transform="translate(412.63,245.33)"/>
        <path d="M 0 0 l 0 -74.67 s 0 -6 6 -6 l 5.33 0 s 6 0 6 6 l 0 74.67 z" fill-opacity="0.3" filter="url(#SaturateMinus)" transform="translate(412.63,245.33)"/>
        <path d="M 0 0 l 0 94.83 s 0 6 6 6 l 5.33 0 s 6 0 6 -6 l 0 -94.83 z" transform="translate(512.62,245.33)"/>
        <path d="M 0 0 l 0 94.83 s 0 6 6 6 l 5.33 0 s 6 0 6 -6 l 0 -94.83 z" fill="url(#WhiteBlackGradient)" transform="translate(512.62,245.33)"/>
        <path d="M 0 0 l 0 94.83 s 0 6 6 6 l 5.33 0 s 6 0 6 -6 l 0 -94.83 z" fill-opacity="0.3" filter="url(#SaturateMinus)" transform="translate(512.62,245.33)"/>
        <path d="M 0 0 l 0 -115 s 0 -6 6 -6 l 5.33 0 s 6 0 6 6 l 0 115 z" transform="translate(612.61,245.33)"/>
        <path d="M 0 0 l 0 -115 s 0 -6 6 -6 l 5.33 0 s 6 0 6 6 l 0 115 z" fill="url(#WhiteBlackGradient)" transform="translate(612.61,245.33)"/>
        <path d="M 0 0 l 0 -115 s 0 -6 6 -6 l 5.33 0 s 6 0 6 6 l 0 115 z" fill-opacity="0.3" filter="url(#SaturateMinus)" transform="translate(612.61,245.33)"/>
        <path d="M 0 0 l 0 135.17 s 0 6 6 6 l 5.33 0 s 6 0 6 -6 l 0 -135.17 z" transform="translate(712.6,245.33)"/>
        <path d="M 0 0 l 0 135.17 s 0 6 6 6 l 5.33 0 s 6 0 6 -6 l 0 -135.17 z" fill="url(#WhiteBlackGradient)" transform="translate(712.6,245.33)"/>
        <path d="M 0 0 l 0 135.17 s 0 6 6 6 l 5.33 0 s 6 0 6 -6 l 0 -135.17 z" fill-opacity="0.3" filter="url(#SaturateMinus)" transform="translate(712.6,245.33)"/>
        <path d="M 0 0 l 0 -155.33 s 0 -6 6 -6 l 5.33 0 s 6 0 6 6 l 0 155.33 z" transform="translate(812.59,245.33)"/>
        <path d="M 0 0 l 0 -155.33 s 0 -6 6 -6 l 5.33 0 s 6 0 6 6 l 0 155.33 z" fill="url(#WhiteBlackGradient)" transform="translate(812.59,245.33)"/>
        <path d="M 0 0 l 0 -155.33 s 0 -6 6 -6 l 5.33 0 s 6 0 6 6 l 0 155.33 z" fill-opacity="0.3" filter="url(#SaturateMinus)" transform="translate(812.59,245.33)"/>
      </g>
    </g>
  </g>

</svg>