<?xml version="1.0" encoding="UTF-8" standalone="no" ?><svg xmlns="http://www.w3.org/2000/svg" id="ID_svg" viewBox="0 0 1990 500" viewport-fill="white" viewport-fill-opacity="0" xmlns:exsl4D="http://www.4D.com" xmlns:gFunc="http://gFunc" xmlns:math="http://exslt.org/math" xmlns:xlink="http://www.w3.org/1999/xlink"><!--gradient styles--><defs><filter id="soft_blur"><feGaussianBlur in="SourceGraphic" result="BlurAlpha" stdDeviation="1"/></filter><filter id="pastel"><feGaussianBlur in="SourceAlpha" result="blur" stdDeviation="2"/><feOffset dx="6" dy="6" in="blur" result="offsetBlur"/><feComposite in="SourceGraphic" in2="offsetBlur" operator="in" result="specOut"/></filter><filter id="blur_shadow"><feGaussianBlur in="SourceAlpha" result="blur" stdDeviation="3"/><feOffset dx="4" dy="2" in="blur" result="offsetBlur"/><feBlend in="SourceGraphic" in2="offsetBlur" mode="normal"/></filter><filter filterUnits="objectBoundingBox" id="Shadow"><feGaussianBlur in="SourceAlpha" result="flou" stdDeviation="0"/><feColorMatrix in="SourceAlpha" result="flouBlue" type="matrix" values=" 0 0 0 0 0                      0 0 0 0 0                     0 0 0 0 0                      0 0 0 0.3 0"/><feOffset dx="4" dy="4" in="flouBlue" result="flouDecalage"/><feBlend in="SourceGraphic" in2="flouDecalage" mode="normal"/></filter><filter filterUnits="objectBoundingBox" height="100%" id="SaturateMinus" width="100%" x="0%" y="0%"><feColorMatrix in="SourceGraphic" type="saturate" values="0.5"/></filter><filter filterUnits="objectBoundingBox" height="100%" id="SaturatePlus" width="100%" x="0%" y="0%"><feColorMatrix in="SourceGraphic" type="saturate" values="1.4"/></filter><linearGradient id="BlackGradient"><stop offset="0%" style="stop-color:rgb(0,0,0); stop-opacity:0"/><stop offset="100%" style="stop-color:rgb(0,0,0); stop-opacity:0.1"/></linearGradient><linearGradient id="WhiteGradient" x1="0%" x2="100%" y1="0%" y2="0%"><stop offset="0%" style="stop-color:rgb(255,255,255); stop-opacity:0.3"/><stop offset="100%" style="stop-color:rgb(255,255,255);stop-opacity:0"/></linearGradient><linearGradient id="WhiteBlackGradient" x1="0%" x2="100%" y1="0%" y2="0%"><stop offset="0%" style="stop-color:rgb(255,255,255); stop-opacity:0.15"/><stop offset="100%" style="stop-color:rgb(0,0,0);stop-opacity:0.15"/></linearGradient><linearGradient id="Black0Black1Gradient" x1="0%" x2="0%" y1="0%" y2="100%"><stop offset="0%" style="stop-color:rgb(0,0,0); stop-opacity:0"/><stop offset="100%" style="stop-color:rgb(0,0,0);stop-opacity:0.05"/></linearGradient></defs><!--global stroke and font styles--><g id="ID_globals" style="fill:black;stroke:none;font-family:Arial;font-size:12px;font-weight:normal;font-style:normal;text-decoration:none;shape-rendering:crispEdges"><!--draw title--><!--draw legend--><!--draw graph background--><rect fill="rgb(168,168,168)" fill-opacity="1" height="440" id="ID_background_shadow" rx="10" ry="10" stroke="none" visibility="visible" width="1936" x="43" y="25"/><g fill="rgb(229,229,229)" id="ID_background" visibility="visible"><rect height="440" rx="10" ry="10" stroke="none" width="1936" x="42" y="24"/><rect fill="url(#Black0Black1Gradient)" height="440" rx="10" ry="10" stroke="none" width="1936" x="42" y="24"/></g><clipPath id="ID_backgroundClipPath"><rect height="441" rx="10" ry="10" width="1937" x="42" y="24"/></clipPath><!--draw Y grid lines--><!--draw Y grid lines SHADOWS--><!--draw X grid lines--><!--draw X grid lines SHADOWS --><!--draw y=0 axe--><g id="ID_y0_axis" stroke="rgb(100,100,100)" stroke-width="1" visibility="visible"><line x1="42" x2="1978" y1="264" y2="264"/></g><!--draw axis x labels--><g id="ID_x_values" style="fill:black;stroke:none;font-family:Arial;font-size:12px;font-weight:normal;font-style:normal;text-decoration:none;filter:none" visibility="visible"><text text-anchor="middle" x="166" y="484.8">PT8H0M0S</text><text text-anchor="middle" x="408" y="484.8">PT9H0M0S</text><text text-anchor="middle" x="650" y="484.8">PT10H0M0S</text><text text-anchor="middle" x="892" y="484.8">PT11H0M0S</text><text text-anchor="middle" x="1134" y="484.8">PT11H15M0S</text><text text-anchor="middle" x="1376" y="484.8">PT14H45M0S</text><text text-anchor="middle" x="1618" y="484.8">PT15H0M0S</text><text text-anchor="middle" x="1860" y="484.8">PT16H0M0S</text></g><!--draw axis y labels--><g id="ID_y_values" style="fill:black;stroke:none;font-family:Arial;font-size:12px;font-weight:normal;font-style:normal;text-decoration:none;filter:none" visibility="visible"><text text-anchor="end" x="30" y="468.8">-10</text><text text-anchor="end" x="30" y="428.8">-8</text><text text-anchor="end" x="30" y="388.8">-6</text><text text-anchor="end" x="30" y="348.8">-4</text><text text-anchor="end" x="30" y="308.8">-2</text><text text-anchor="end" x="30" y="268.8">0</text><text text-anchor="end" x="30" y="228.8">2</text><text text-anchor="end" x="30" y="188.8">4</text><text text-anchor="end" x="30" y="148.8">6</text><text text-anchor="end" x="30" y="108.8">8</text><text text-anchor="end" x="30" y="68.8">10</text><text text-anchor="end" x="30" y="28.8">12</text></g><!--draw bars SHADOWS--><g clip-path="url(#ID_BackgroundClipPath)"><!--              draw bars for data type 1--><g fill="black" fill-opacity="0.2" id="ID_graph_shadow_1"><path d="   M 57 264   l 45.5 0   l 0 14   s 0 6 -6 6    l -33.5 0   s -6 0 -6 -6   l 0 -14   z"/><path d="   M 299 230   s 0 -6 6 -6   l 33.5 0   s 6 0 6 6   l 0 34    l -45.5 0    l 0 -34   z"/><path d="   M 541 264   l 45.5 0   l 0 54   s 0 6 -6 6    l -33.5 0   s -6 0 -6 -6   l 0 -54   z"/><path d="   M 783 190   s 0 -6 6 -6   l 33.5 0   s 6 0 6 6   l 0 74    l -45.5 0    l 0 -74   z"/><path d="   M 1025 264   l 45.5 0   l 0 94   s 0 6 -6 6    l -33.5 0   s -6 0 -6 -6   l 0 -94   z"/><path d="   M 1267 150   s 0 -6 6 -6   l 33.5 0   s 6 0 6 6   l 0 114    l -45.5 0    l 0 -114   z"/><path d="   M 1509 264   l 45.5 0   l 0 134   s 0 6 -6 6    l -33.5 0   s -6 0 -6 -6   l 0 -134   z"/><path d="   M 1751 110   s 0 -6 6 -6   l 33.5 0   s 6 0 6 6   l 0 154    l -45.5 0    l 0 -154   z"/></g><!--              draw bars for data type 2--><g fill="black" fill-opacity="0.2" id="ID_graph_shadow_2"><path d="   M 114.5 264   l 45.5 0   l 0 16   s 0 6 -6 6    l -33.5 0   s -6 0 -6 -6   l 0 -16   z"/><path d="   M 356.5 226   s 0 -6 6 -6   l 33.5 0   s 6 0 6 6   l 0 38    l -45.5 0    l 0 -38   z"/><path d="   M 598.5 264   l 45.5 0   l 0 60   s 0 6 -6 6    l -33.5 0   s -6 0 -6 -6   l 0 -60   z"/><path d="   M 840.5 182   s 0 -6 6 -6   l 33.5 0   s 6 0 6 6   l 0 82    l -45.5 0    l 0 -82   z"/><path d="   M 1082.5 264   l 45.5 0   l 0 104   s 0 6 -6 6    l -33.5 0   s -6 0 -6 -6   l 0 -104   z"/><path d="   M 1324.5 138   s 0 -6 6 -6   l 33.5 0   s 6 0 6 6   l 0 126    l -45.5 0    l 0 -126   z"/><path d="   M 1566.5 264   l 45.5 0   l 0 148   s 0 6 -6 6    l -33.5 0   s -6 0 -6 -6   l 0 -148   z"/><path d="   M 1808.5 94   s 0 -6 6 -6   l 33.5 0   s 6 0 6 6   l 0 170    l -45.5 0    l 0 -170   z"/></g><!--              draw bars for data type 3--><g fill="black" fill-opacity="0.2" id="ID_graph_shadow_3"><path d="   M 172 264   l 45.5 0   l 0 18.2   s 0 6 -6 6    l -33.5 0   s -6 0 -6 -6   l 0 -18.2   z"/><path d="   M 414 221.6   s 0 -6 6 -6   l 33.5 0   s 6 0 6 6   l 0 42.4    l -45.5 0    l 0 -42.4   z"/><path d="   M 656 264   l 45.5 0   l 0 66.6   s 0 6 -6 6    l -33.5 0   s -6 0 -6 -6   l 0 -66.6   z"/><path d="   M 898 173.2   s 0 -6 6 -6   l 33.5 0   s 6 0 6 6   l 0 90.8    l -45.5 0    l 0 -90.8   z"/><path d="   M 1140 264   l 45.5 0   l 0 115   s 0 6 -6 6    l -33.5 0   s -6 0 -6 -6   l 0 -115   z"/><path d="   M 1382 124.80000000000001   s 0 -6 6 -6   l 33.5 0   s 6 0 6 6   l 0 139.2    l -45.5 0    l 0 -139.2   z"/><path d="   M 1624 264   l 45.5 0   l 0 163.4   s 0 6 -6 6    l -33.5 0   s -6 0 -6 -6   l 0 -163.4   z"/><path d="   M 1866 76.4   s 0 -6 6 -6   l 33.5 0   s 6 0 6 6   l 0 187.6    l -45.5 0    l 0 -187.6   z"/></g><!--              draw bars for data type 4--><g fill="black" fill-opacity="0.2" id="ID_graph_shadow_4"><path d="   M 229.5 264   l 45.5 0   l 0 20.619999999999997   s 0 6 -6 6    l -33.5 0   s -6 0 -6 -6   l 0 -20.619999999999997   z"/><path d="   M 471.5 216.76   s 0 -6 6 -6   l 33.5 0   s 6 0 6 6   l 0 47.239999999999995    l -45.5 0    l 0 -47.239999999999995   z"/><path d="   M 713.5 264   l 45.5 0   l 0 73.86   s 0 6 -6 6    l -33.5 0   s -6 0 -6 -6   l 0 -73.86   z"/><path d="   M 955.5 163.52   s 0 -6 6 -6   l 33.5 0   s 6 0 6 6   l 0 100.47999999999999    l -45.5 0    l 0 -100.47999999999999   z"/><path d="   M 1197.5 264   l 45.5 0   l 0 127.1   s 0 6 -6 6    l -33.5 0   s -6 0 -6 -6   l 0 -127.1   z"/><path d="   M 1439.5 110.28   s 0 -6 6 -6   l 33.5 0   s 6 0 6 6   l 0 153.72    l -45.5 0    l 0 -153.72   z"/><path d="   M 1681.5 264   l 45.5 0   l 0 180.34   s 0 6 -6 6    l -33.5 0   s -6 0 -6 -6   l 0 -180.34   z"/><path d="   M 1923.5 57.04000000000002   s 0 -6 6 -6   l 33.5 0   s 6 0 6 6   l 0 206.95999999999998    l -45.5 0    l 0 -206.95999999999998   z"/></g></g><!--draw BARS--><!--            draw bars for data type 1--><g fill="rgb(0,178,195)" filter="none" id="ID_graph_1" opacity="1" stroke="none" stroke-opacity="1" stroke-width="0"><path d="   M 54 264   l 45.5 0   l 0 14   s 0 6 -6 6    l -33.5 0   s -6 0 -6 -6   l 0 -14   z"/><path d="   M 54 264   l 45.5 0   l 0 14   s 0 6 -6 6    l -33.5 0   s -6 0 -6 -6   l 0 -14   z" fill="url(#WhiteBlackGradient)"/><path d="   M 54 264   l 45.5 0   l 0 14   s 0 6 -6 6    l -33.5 0   s -6 0 -6 -6   l 0 -14   z" fill-opacity="0.3" filter="url(#SaturateMinus)"/><path d="   M 296 230   s 0 -6 6 -6   l 33.5 0   s 6 0 6 6   l 0 34    l -45.5 0    l 0 -34   z"/><path d="   M 296 230   s 0 -6 6 -6   l 33.5 0   s 6 0 6 6   l 0 34    l -45.5 0    l 0 -34   z" fill="url(#WhiteBlackGradient)"/><path d="   M 296 230   s 0 -6 6 -6   l 33.5 0   s 6 0 6 6   l 0 34    l -45.5 0    l 0 -34   z" fill-opacity="0.3" filter="url(#SaturateMinus)"/><path d="   M 538 264   l 45.5 0   l 0 54   s 0 6 -6 6    l -33.5 0   s -6 0 -6 -6   l 0 -54   z"/><path d="   M 538 264   l 45.5 0   l 0 54   s 0 6 -6 6    l -33.5 0   s -6 0 -6 -6   l 0 -54   z" fill="url(#WhiteBlackGradient)"/><path d="   M 538 264   l 45.5 0   l 0 54   s 0 6 -6 6    l -33.5 0   s -6 0 -6 -6   l 0 -54   z" fill-opacity="0.3" filter="url(#SaturateMinus)"/><path d="   M 780 190   s 0 -6 6 -6   l 33.5 0   s 6 0 6 6   l 0 74    l -45.5 0    l 0 -74   z"/><path d="   M 780 190   s 0 -6 6 -6   l 33.5 0   s 6 0 6 6   l 0 74    l -45.5 0    l 0 -74   z" fill="url(#WhiteBlackGradient)"/><path d="   M 780 190   s 0 -6 6 -6   l 33.5 0   s 6 0 6 6   l 0 74    l -45.5 0    l 0 -74   z" fill-opacity="0.3" filter="url(#SaturateMinus)"/><path d="   M 1022 264   l 45.5 0   l 0 94   s 0 6 -6 6    l -33.5 0   s -6 0 -6 -6   l 0 -94   z"/><path d="   M 1022 264   l 45.5 0   l 0 94   s 0 6 -6 6    l -33.5 0   s -6 0 -6 -6   l 0 -94   z" fill="url(#WhiteBlackGradient)"/><path d="   M 1022 264   l 45.5 0   l 0 94   s 0 6 -6 6    l -33.5 0   s -6 0 -6 -6   l 0 -94   z" fill-opacity="0.3" filter="url(#SaturateMinus)"/><path d="   M 1264 150   s 0 -6 6 -6   l 33.5 0   s 6 0 6 6   l 0 114    l -45.5 0    l 0 -114   z"/><path d="   M 1264 150   s 0 -6 6 -6   l 33.5 0   s 6 0 6 6   l 0 114    l -45.5 0    l 0 -114   z" fill="url(#WhiteBlackGradient)"/><path d="   M 1264 150   s 0 -6 6 -6   l 33.5 0   s 6 0 6 6   l 0 114    l -45.5 0    l 0 -114   z" fill-opacity="0.3" filter="url(#SaturateMinus)"/><path d="   M 1506 264   l 45.5 0   l 0 134   s 0 6 -6 6    l -33.5 0   s -6 0 -6 -6   l 0 -134   z"/><path d="   M 1506 264   l 45.5 0   l 0 134   s 0 6 -6 6    l -33.5 0   s -6 0 -6 -6   l 0 -134   z" fill="url(#WhiteBlackGradient)"/><path d="   M 1506 264   l 45.5 0   l 0 134   s 0 6 -6 6    l -33.5 0   s -6 0 -6 -6   l 0 -134   z" fill-opacity="0.3" filter="url(#SaturateMinus)"/><path d="   M 1748 110   s 0 -6 6 -6   l 33.5 0   s 6 0 6 6   l 0 154    l -45.5 0    l 0 -154   z"/><path d="   M 1748 110   s 0 -6 6 -6   l 33.5 0   s 6 0 6 6   l 0 154    l -45.5 0    l 0 -154   z" fill="url(#WhiteBlackGradient)"/><path d="   M 1748 110   s 0 -6 6 -6   l 33.5 0   s 6 0 6 6   l 0 154    l -45.5 0    l 0 -154   z" fill-opacity="0.3" filter="url(#SaturateMinus)"/></g><!--            draw bars for data type 2--><g fill="rgb(255,195,56)" filter="none" id="ID_graph_2" opacity="1" stroke="none" stroke-opacity="1" stroke-width="0"><path d="   M 111.5 264   l 45.5 0   l 0 16   s 0 6 -6 6    l -33.5 0   s -6 0 -6 -6   l 0 -16   z"/><path d="   M 111.5 264   l 45.5 0   l 0 16   s 0 6 -6 6    l -33.5 0   s -6 0 -6 -6   l 0 -16   z" fill="url(#WhiteBlackGradient)"/><path d="   M 111.5 264   l 45.5 0   l 0 16   s 0 6 -6 6    l -33.5 0   s -6 0 -6 -6   l 0 -16   z" fill-opacity="0.3" filter="url(#SaturateMinus)"/><path d="   M 353.5 226   s 0 -6 6 -6   l 33.5 0   s 6 0 6 6   l 0 38    l -45.5 0    l 0 -38   z"/><path d="   M 353.5 226   s 0 -6 6 -6   l 33.5 0   s 6 0 6 6   l 0 38    l -45.5 0    l 0 -38   z" fill="url(#WhiteBlackGradient)"/><path d="   M 353.5 226   s 0 -6 6 -6   l 33.5 0   s 6 0 6 6   l 0 38    l -45.5 0    l 0 -38   z" fill-opacity="0.3" filter="url(#SaturateMinus)"/><path d="   M 595.5 264   l 45.5 0   l 0 60   s 0 6 -6 6    l -33.5 0   s -6 0 -6 -6   l 0 -60   z"/><path d="   M 595.5 264   l 45.5 0   l 0 60   s 0 6 -6 6    l -33.5 0   s -6 0 -6 -6   l 0 -60   z" fill="url(#WhiteBlackGradient)"/><path d="   M 595.5 264   l 45.5 0   l 0 60   s 0 6 -6 6    l -33.5 0   s -6 0 -6 -6   l 0 -60   z" fill-opacity="0.3" filter="url(#SaturateMinus)"/><path d="   M 837.5 182   s 0 -6 6 -6   l 33.5 0   s 6 0 6 6   l 0 82    l -45.5 0    l 0 -82   z"/><path d="   M 837.5 182   s 0 -6 6 -6   l 33.5 0   s 6 0 6 6   l 0 82    l -45.5 0    l 0 -82   z" fill="url(#WhiteBlackGradient)"/><path d="   M 837.5 182   s 0 -6 6 -6   l 33.5 0   s 6 0 6 6   l 0 82    l -45.5 0    l 0 -82   z" fill-opacity="0.3" filter="url(#SaturateMinus)"/><path d="   M 1079.5 264   l 45.5 0   l 0 104   s 0 6 -6 6    l -33.5 0   s -6 0 -6 -6   l 0 -104   z"/><path d="   M 1079.5 264   l 45.5 0   l 0 104   s 0 6 -6 6    l -33.5 0   s -6 0 -6 -6   l 0 -104   z" fill="url(#WhiteBlackGradient)"/><path d="   M 1079.5 264   l 45.5 0   l 0 104   s 0 6 -6 6    l -33.5 0   s -6 0 -6 -6   l 0 -104   z" fill-opacity="0.3" filter="url(#SaturateMinus)"/><path d="   M 1321.5 138   s 0 -6 6 -6   l 33.5 0   s 6 0 6 6   l 0 126    l -45.5 0    l 0 -126   z"/><path d="   M 1321.5 138   s 0 -6 6 -6   l 33.5 0   s 6 0 6 6   l 0 126    l -45.5 0    l 0 -126   z" fill="url(#WhiteBlackGradient)"/><path d="   M 1321.5 138   s 0 -6 6 -6   l 33.5 0   s 6 0 6 6   l 0 126    l -45.5 0    l 0 -126   z" fill-opacity="0.3" filter="url(#SaturateMinus)"/><path d="   M 1563.5 264   l 45.5 0   l 0 148   s 0 6 -6 6    l -33.5 0   s -6 0 -6 -6   l 0 -148   z"/><path d="   M 1563.5 264   l 45.5 0   l 0 148   s 0 6 -6 6    l -33.5 0   s -6 0 -6 -6   l 0 -148   z" fill="url(#WhiteBlackGradient)"/><path d="   M 1563.5 264   l 45.5 0   l 0 148   s 0 6 -6 6    l -33.5 0   s -6 0 -6 -6   l 0 -148   z" fill-opacity="0.3" filter="url(#SaturateMinus)"/><path d="   M 1805.5 94   s 0 -6 6 -6   l 33.5 0   s 6 0 6 6   l 0 170    l -45.5 0    l 0 -170   z"/><path d="   M 1805.5 94   s 0 -6 6 -6   l 33.5 0   s 6 0 6 6   l 0 170    l -45.5 0    l 0 -170   z" fill="url(#WhiteBlackGradient)"/><path d="   M 1805.5 94   s 0 -6 6 -6   l 33.5 0   s 6 0 6 6   l 0 170    l -45.5 0    l 0 -170   z" fill-opacity="0.3" filter="url(#SaturateMinus)"/></g><!--            draw bars for data type 3--><g fill="rgb(87,62,130)" filter="none" id="ID_graph_3" opacity="1" stroke="none" stroke-opacity="1" stroke-width="0"><path d="   M 169 264   l 45.5 0   l 0 18.2   s 0 6 -6 6    l -33.5 0   s -6 0 -6 -6   l 0 -18.2   z"/><path d="   M 169 264   l 45.5 0   l 0 18.2   s 0 6 -6 6    l -33.5 0   s -6 0 -6 -6   l 0 -18.2   z" fill="url(#WhiteBlackGradient)"/><path d="   M 169 264   l 45.5 0   l 0 18.2   s 0 6 -6 6    l -33.5 0   s -6 0 -6 -6   l 0 -18.2   z" fill-opacity="0.3" filter="url(#SaturateMinus)"/><path d="   M 411 221.6   s 0 -6 6 -6   l 33.5 0   s 6 0 6 6   l 0 42.4    l -45.5 0    l 0 -42.4   z"/><path d="   M 411 221.6   s 0 -6 6 -6   l 33.5 0   s 6 0 6 6   l 0 42.4    l -45.5 0    l 0 -42.4   z" fill="url(#WhiteBlackGradient)"/><path d="   M 411 221.6   s 0 -6 6 -6   l 33.5 0   s 6 0 6 6   l 0 42.4    l -45.5 0    l 0 -42.4   z" fill-opacity="0.3" filter="url(#SaturateMinus)"/><path d="   M 653 264   l 45.5 0   l 0 66.6   s 0 6 -6 6    l -33.5 0   s -6 0 -6 -6   l 0 -66.6   z"/><path d="   M 653 264   l 45.5 0   l 0 66.6   s 0 6 -6 6    l -33.5 0   s -6 0 -6 -6   l 0 -66.6   z" fill="url(#WhiteBlackGradient)"/><path d="   M 653 264   l 45.5 0   l 0 66.6   s 0 6 -6 6    l -33.5 0   s -6 0 -6 -6   l 0 -66.6   z" fill-opacity="0.3" filter="url(#SaturateMinus)"/><path d="   M 895 173.2   s 0 -6 6 -6   l 33.5 0   s 6 0 6 6   l 0 90.8    l -45.5 0    l 0 -90.8   z"/><path d="   M 895 173.2   s 0 -6 6 -6   l 33.5 0   s 6 0 6 6   l 0 90.8    l -45.5 0    l 0 -90.8   z" fill="url(#WhiteBlackGradient)"/><path d="   M 895 173.2   s 0 -6 6 -6   l 33.5 0   s 6 0 6 6   l 0 90.8    l -45.5 0    l 0 -90.8   z" fill-opacity="0.3" filter="url(#SaturateMinus)"/><path d="   M 1137 264   l 45.5 0   l 0 115   s 0 6 -6 6    l -33.5 0   s -6 0 -6 -6   l 0 -115   z"/><path d="   M 1137 264   l 45.5 0   l 0 115   s 0 6 -6 6    l -33.5 0   s -6 0 -6 -6   l 0 -115   z" fill="url(#WhiteBlackGradient)"/><path d="   M 1137 264   l 45.5 0   l 0 115   s 0 6 -6 6    l -33.5 0   s -6 0 -6 -6   l 0 -115   z" fill-opacity="0.3" filter="url(#SaturateMinus)"/><path d="   M 1379 124.80000000000001   s 0 -6 6 -6   l 33.5 0   s 6 0 6 6   l 0 139.2    l -45.5 0    l 0 -139.2   z"/><path d="   M 1379 124.80000000000001   s 0 -6 6 -6   l 33.5 0   s 6 0 6 6   l 0 139.2    l -45.5 0    l 0 -139.2   z" fill="url(#WhiteBlackGradient)"/><path d="   M 1379 124.80000000000001   s 0 -6 6 -6   l 33.5 0   s 6 0 6 6   l 0 139.2    l -45.5 0    l 0 -139.2   z" fill-opacity="0.3" filter="url(#SaturateMinus)"/><path d="   M 1621 264   l 45.5 0   l 0 163.4   s 0 6 -6 6    l -33.5 0   s -6 0 -6 -6   l 0 -163.4   z"/><path d="   M 1621 264   l 45.5 0   l 0 163.4   s 0 6 -6 6    l -33.5 0   s -6 0 -6 -6   l 0 -163.4   z" fill="url(#WhiteBlackGradient)"/><path d="   M 1621 264   l 45.5 0   l 0 163.4   s 0 6 -6 6    l -33.5 0   s -6 0 -6 -6   l 0 -163.4   z" fill-opacity="0.3" filter="url(#SaturateMinus)"/><path d="   M 1863 76.4   s 0 -6 6 -6   l 33.5 0   s 6 0 6 6   l 0 187.6    l -45.5 0    l 0 -187.6   z"/><path d="   M 1863 76.4   s 0 -6 6 -6   l 33.5 0   s 6 0 6 6   l 0 187.6    l -45.5 0    l 0 -187.6   z" fill="url(#WhiteBlackGradient)"/><path d="   M 1863 76.4   s 0 -6 6 -6   l 33.5 0   s 6 0 6 6   l 0 187.6    l -45.5 0    l 0 -187.6   z" fill-opacity="0.3" filter="url(#SaturateMinus)"/></g><!--            draw bars for data type 4--><g fill="rgb(79,168,57)" filter="none" id="ID_graph_4" opacity="1" stroke="none" stroke-opacity="1" stroke-width="0"><path d="   M 226.5 264   l 45.5 0   l 0 20.619999999999997   s 0 6 -6 6    l -33.5 0   s -6 0 -6 -6   l 0 -20.619999999999997   z"/><path d="   M 226.5 264   l 45.5 0   l 0 20.619999999999997   s 0 6 -6 6    l -33.5 0   s -6 0 -6 -6   l 0 -20.619999999999997   z" fill="url(#WhiteBlackGradient)"/><path d="   M 226.5 264   l 45.5 0   l 0 20.619999999999997   s 0 6 -6 6    l -33.5 0   s -6 0 -6 -6   l 0 -20.619999999999997   z" fill-opacity="0.3" filter="url(#SaturateMinus)"/><path d="   M 468.5 216.76   s 0 -6 6 -6   l 33.5 0   s 6 0 6 6   l 0 47.239999999999995    l -45.5 0    l 0 -47.239999999999995   z"/><path d="   M 468.5 216.76   s 0 -6 6 -6   l 33.5 0   s 6 0 6 6   l 0 47.239999999999995    l -45.5 0    l 0 -47.239999999999995   z" fill="url(#WhiteBlackGradient)"/><path d="   M 468.5 216.76   s 0 -6 6 -6   l 33.5 0   s 6 0 6 6   l 0 47.239999999999995    l -45.5 0    l 0 -47.239999999999995   z" fill-opacity="0.3" filter="url(#SaturateMinus)"/><path d="   M 710.5 264   l 45.5 0   l 0 73.86   s 0 6 -6 6    l -33.5 0   s -6 0 -6 -6   l 0 -73.86   z"/><path d="   M 710.5 264   l 45.5 0   l 0 73.86   s 0 6 -6 6    l -33.5 0   s -6 0 -6 -6   l 0 -73.86   z" fill="url(#WhiteBlackGradient)"/><path d="   M 710.5 264   l 45.5 0   l 0 73.86   s 0 6 -6 6    l -33.5 0   s -6 0 -6 -6   l 0 -73.86   z" fill-opacity="0.3" filter="url(#SaturateMinus)"/><path d="   M 952.5 163.52   s 0 -6 6 -6   l 33.5 0   s 6 0 6 6   l 0 100.47999999999999    l -45.5 0    l 0 -100.47999999999999   z"/><path d="   M 952.5 163.52   s 0 -6 6 -6   l 33.5 0   s 6 0 6 6   l 0 100.47999999999999    l -45.5 0    l 0 -100.47999999999999   z" fill="url(#WhiteBlackGradient)"/><path d="   M 952.5 163.52   s 0 -6 6 -6   l 33.5 0   s 6 0 6 6   l 0 100.47999999999999    l -45.5 0    l 0 -100.47999999999999   z" fill-opacity="0.3" filter="url(#SaturateMinus)"/><path d="   M 1194.5 264   l 45.5 0   l 0 127.1   s 0 6 -6 6    l -33.5 0   s -6 0 -6 -6   l 0 -127.1   z"/><path d="   M 1194.5 264   l 45.5 0   l 0 127.1   s 0 6 -6 6    l -33.5 0   s -6 0 -6 -6   l 0 -127.1   z" fill="url(#WhiteBlackGradient)"/><path d="   M 1194.5 264   l 45.5 0   l 0 127.1   s 0 6 -6 6    l -33.5 0   s -6 0 -6 -6   l 0 -127.1   z" fill-opacity="0.3" filter="url(#SaturateMinus)"/><path d="   M 1436.5 110.28   s 0 -6 6 -6   l 33.5 0   s 6 0 6 6   l 0 153.72    l -45.5 0    l 0 -153.72   z"/><path d="   M 1436.5 110.28   s 0 -6 6 -6   l 33.5 0   s 6 0 6 6   l 0 153.72    l -45.5 0    l 0 -153.72   z" fill="url(#WhiteBlackGradient)"/><path d="   M 1436.5 110.28   s 0 -6 6 -6   l 33.5 0   s 6 0 6 6   l 0 153.72    l -45.5 0    l 0 -153.72   z" fill-opacity="0.3" filter="url(#SaturateMinus)"/><path d="   M 1678.5 264   l 45.5 0   l 0 180.34   s 0 6 -6 6    l -33.5 0   s -6 0 -6 -6   l 0 -180.34   z"/><path d="   M 1678.5 264   l 45.5 0   l 0 180.34   s 0 6 -6 6    l -33.5 0   s -6 0 -6 -6   l 0 -180.34   z" fill="url(#WhiteBlackGradient)"/><path d="   M 1678.5 264   l 45.5 0   l 0 180.34   s 0 6 -6 6    l -33.5 0   s -6 0 -6 -6   l 0 -180.34   z" fill-opacity="0.3" filter="url(#SaturateMinus)"/><path d="   M 1920.5 57.04000000000002   s 0 -6 6 -6   l 33.5 0   s 6 0 6 6   l 0 206.95999999999998    l -45.5 0    l 0 -206.95999999999998   z"/><path d="   M 1920.5 57.04000000000002   s 0 -6 6 -6   l 33.5 0   s 6 0 6 6   l 0 206.95999999999998    l -45.5 0    l 0 -206.95999999999998   z" fill="url(#WhiteBlackGradient)"/><path d="   M 1920.5 57.04000000000002   s 0 -6 6 -6   l 33.5 0   s 6 0 6 6   l 0 206.95999999999998    l -45.5 0    l 0 -206.95999999999998   z" fill-opacity="0.3" filter="url(#SaturateMinus)"/></g></g></svg>