<?xml version="1.0" encoding="UTF-8" standalone="no" ?><svg xmlns="http://www.w3.org/2000/svg" id="ID_svg" viewBox="0 0 1984 500" viewport-fill="white" viewport-fill-opacity="0" xmlns:exsl4D="http://www.4D.com" xmlns:gFunc="http://gFunc" xmlns:math="http://exslt.org/math" xmlns:xlink="http://www.w3.org/1999/xlink"><!--gradient styles--><defs><filter id="soft_blur"><feGaussianBlur in="SourceGraphic" result="BlurAlpha" stdDeviation="1"/></filter><filter id="pastel"><feGaussianBlur in="SourceAlpha" result="blur" stdDeviation="2"/><feOffset dx="6" dy="6" in="blur" result="offsetBlur"/><feComposite in="SourceGraphic" in2="offsetBlur" operator="in" result="specOut"/></filter><filter id="blur_shadow"><feGaussianBlur in="SourceAlpha" result="blur" stdDeviation="3"/><feOffset dx="4" dy="2" in="blur" result="offsetBlur"/><feBlend in="SourceGraphic" in2="offsetBlur" mode="normal"/></filter><filter filterUnits="objectBoundingBox" id="Shadow"><feGaussianBlur in="SourceAlpha" result="flou" stdDeviation="0"/><feColorMatrix in="SourceAlpha" result="flouBlue" type="matrix" values=" 0 0 0 0 0                      0 0 0 0 0                     0 0 0 0 0                      0 0 0 0.3 0"/><feOffset dx="4" dy="4" in="flouBlue" result="flouDecalage"/><feBlend in="SourceGraphic" in2="flouDecalage" mode="normal"/></filter><filter filterUnits="objectBoundingBox" height="100%" id="SaturateMinus" width="100%" x="0%" y="0%"><feColorMatrix in="SourceGraphic" type="saturate" values="0.5"/></filter><filter filterUnits="objectBoundingBox" height="100%" id="SaturatePlus" width="100%" x="0%" y="0%"><feColorMatrix in="SourceGraphic" type="saturate" values="1.4"/></filter><linearGradient id="BlackGradient"><stop offset="0%" style="stop-color:rgb(0,0,0); stop-opacity:0"/><stop offset="100%" style="stop-color:rgb(0,0,0); stop-opacity:0.1"/></linearGradient><linearGradient id="WhiteGradient" x1="0%" x2="100%" y1="0%" y2="0%"><stop offset="0%" style="stop-color:rgb(255,255,255); stop-opacity:0.3"/><stop offset="100%" style="stop-color:rgb(255,255,255);stop-opacity:0"/></linearGradient><linearGradient id="WhiteBlackGradient" x1="0%" x2="100%" y1="0%" y2="0%"><stop offset="0%" style="stop-color:rgb(255,255,255); stop-opacity:0.15"/><stop offset="100%" style="stop-color:rgb(0,0,0);stop-opacity:0.15"/></linearGradient><linearGradient id="Black0Black1Gradient" x1="0%" x2="0%" y1="0%" y2="100%"><stop offset="0%" style="stop-color:rgb(0,0,0); stop-opacity:0"/><stop offset="100%" style="stop-color:rgb(0,0,0);stop-opacity:0.05"/></linearGradient></defs><!--global stroke and font styles--><g id="ID_globals" style="fill:black;stroke:none;font-family:Arial;font-size:12px;font-weight:normal;font-style:normal;text-decoration:none;shape-rendering:crispEdges"><!--draw title--><!--draw legend--><!--draw graph background--><rect fill="rgb(168,168,168)" fill-opacity="1" height="440" id="ID_background_shadow" rx="10" ry="10" stroke="none" visibility="visible" width="1936" x="37" y="25"/><g fill="rgb(229,229,229)" id="ID_background" visibility="visible"><rect height="440" rx="10" ry="10" stroke="none" width="1936" x="36" y="24"/><rect fill="url(#Black0Black1Gradient)" height="440" rx="10" ry="10" stroke="none" width="1936" x="36" y="24"/></g><clipPath id="ID_backgroundClipPath"><rect height="441" rx="10" ry="10" width="1937" x="36" y="24"/></clipPath><!--draw Y grid lines--><!--draw Y grid lines SHADOWS--><!--draw X grid lines--><!--draw X grid lines SHADOWS --><!--draw y=0 axe--><g id="ID_y0_axis" stroke="rgb(100,100,100)" stroke-width="1" visibility="visible"><line x1="36" x2="1972" y1="258.6666666666667" y2="258.6666666666667"/></g><!--draw axis x labels--><g id="ID_x_values" style="fill:black;stroke:none;font-family:Arial;font-size:12px;font-weight:normal;font-style:normal;text-decoration:none;filter:none" visibility="visible"><text text-anchor="middle" x="160" y="484.8">PT8H0M0S</text><text text-anchor="middle" x="402" y="484.8">PT9H0M0S</text><text text-anchor="middle" x="644" y="484.8">PT10H0M0S</text><text text-anchor="middle" x="886" y="484.8">PT11H0M0S</text><text text-anchor="middle" x="1128" y="484.8">PT11H15M0S</text><text text-anchor="middle" x="1370" y="484.8">PT14H45M0S</text><text text-anchor="middle" x="1612" y="484.8">PT15H0M0S</text><text text-anchor="middle" x="1854" y="484.8">PT16H0M0S</text></g><!--draw axis y labels--><g id="ID_y_values" style="fill:black;stroke:none;font-family:Arial;font-size:12px;font-weight:normal;font-style:normal;text-decoration:none;filter:none" visibility="visible"><text text-anchor="end" x="24" y="468.8">-7</text><text text-anchor="end" x="24" y="439.4666666666667">-6</text><text text-anchor="end" x="24" y="410.1333333333333">-5</text><text text-anchor="end" x="24" y="380.8">-4</text><text text-anchor="end" x="24" y="351.4666666666667">-3</text><text text-anchor="end" x="24" y="322.1333333333334">-2</text><text text-anchor="end" x="24" y="292.8">-1</text><text text-anchor="end" x="24" y="263.4666666666667">0</text><text text-anchor="end" x="24" y="234.13333333333335">1</text><text text-anchor="end" x="24" y="204.8">2</text><text text-anchor="end" x="24" y="175.4666666666667">3</text><text text-anchor="end" x="24" y="146.13333333333338">4</text><text text-anchor="end" x="24" y="116.8">5</text><text text-anchor="end" x="24" y="87.46666666666668">6</text><text text-anchor="end" x="24" y="58.13333333333337">7</text><text text-anchor="end" x="24" y="28.8">8</text></g><!--draw bars SHADOWS--><g clip-path="url(#ID_BackgroundClipPath)"><!--              draw bars for data type 1--><g fill="black" fill-opacity="0.2" id="ID_graph_shadow_1"><path d="   M 120 258.6666666666667   l 80 0   l 0 23.333333333333332   s 0 6 -6 6    l -68 0   s -6 0 -6 -6   l 0 -23.333333333333332   z"/><path d="   M 362 206.00000000000003   s 0 -6 6 -6   l 68 0   s 6 0 6 6   l 0 52.666666666666664    l -80 0    l 0 -52.666666666666664   z"/><path d="   M 604 258.6666666666667   l 80 0   l 0 82   s 0 6 -6 6    l -68 0   s -6 0 -6 -6   l 0 -82   z"/><path d="   M 846 147.33333333333337   s 0 -6 6 -6   l 68 0   s 6 0 6 6   l 0 111.33333333333333    l -80 0    l 0 -111.33333333333333   z"/><path d="   M 1088 258.6666666666667   l 80 0   l 0 140.66666666666666   s 0 6 -6 6    l -68 0   s -6 0 -6 -6   l 0 -140.66666666666666   z"/><path d="   M 1330 88.66666666666669   s 0 -6 6 -6   l 68 0   s 6 0 6 6   l 0 170    l -80 0    l 0 -170   z"/><path d="   M 1572 258.6666666666667   l 80 0   l 0 199.33333333333331   s 0 6 -6 6    l -68 0   s -6 0 -6 -6   l 0 -199.33333333333331   z"/><path d="   M 1814 30.00000000000003   s 0 -6 6 -6   l 68 0   s 6 0 6 6   l 0 228.66666666666666    l -80 0    l 0 -228.66666666666666   z"/></g></g><!--draw BARS--><!--            draw bars for data type 1--><g fill="rgb(0,178,195)" filter="none" id="ID_graph_1" opacity="1" stroke="none" stroke-opacity="1" stroke-width="0"><path d="   M 117 258.6666666666667   l 80 0   l 0 23.333333333333332   s 0 6 -6 6    l -68 0   s -6 0 -6 -6   l 0 -23.333333333333332   z"/><path d="   M 117 258.6666666666667   l 80 0   l 0 23.333333333333332   s 0 6 -6 6    l -68 0   s -6 0 -6 -6   l 0 -23.333333333333332   z" fill="url(#WhiteBlackGradient)"/><path d="   M 117 258.6666666666667   l 80 0   l 0 23.333333333333332   s 0 6 -6 6    l -68 0   s -6 0 -6 -6   l 0 -23.333333333333332   z" fill-opacity="0.3" filter="url(#SaturateMinus)"/><path d="   M 359 206.00000000000003   s 0 -6 6 -6   l 68 0   s 6 0 6 6   l 0 52.666666666666664    l -80 0    l 0 -52.666666666666664   z"/><path d="   M 359 206.00000000000003   s 0 -6 6 -6   l 68 0   s 6 0 6 6   l 0 52.666666666666664    l -80 0    l 0 -52.666666666666664   z" fill="url(#WhiteBlackGradient)"/><path d="   M 359 206.00000000000003   s 0 -6 6 -6   l 68 0   s 6 0 6 6   l 0 52.666666666666664    l -80 0    l 0 -52.666666666666664   z" fill-opacity="0.3" filter="url(#SaturateMinus)"/><path d="   M 601 258.6666666666667   l 80 0   l 0 82   s 0 6 -6 6    l -68 0   s -6 0 -6 -6   l 0 -82   z"/><path d="   M 601 258.6666666666667   l 80 0   l 0 82   s 0 6 -6 6    l -68 0   s -6 0 -6 -6   l 0 -82   z" fill="url(#WhiteBlackGradient)"/><path d="   M 601 258.6666666666667   l 80 0   l 0 82   s 0 6 -6 6    l -68 0   s -6 0 -6 -6   l 0 -82   z" fill-opacity="0.3" filter="url(#SaturateMinus)"/><path d="   M 843 147.33333333333337   s 0 -6 6 -6   l 68 0   s 6 0 6 6   l 0 111.33333333333333    l -80 0    l 0 -111.33333333333333   z"/><path d="   M 843 147.33333333333337   s 0 -6 6 -6   l 68 0   s 6 0 6 6   l 0 111.33333333333333    l -80 0    l 0 -111.33333333333333   z" fill="url(#WhiteBlackGradient)"/><path d="   M 843 147.33333333333337   s 0 -6 6 -6   l 68 0   s 6 0 6 6   l 0 111.33333333333333    l -80 0    l 0 -111.33333333333333   z" fill-opacity="0.3" filter="url(#SaturateMinus)"/><path d="   M 1085 258.6666666666667   l 80 0   l 0 140.66666666666666   s 0 6 -6 6    l -68 0   s -6 0 -6 -6   l 0 -140.66666666666666   z"/><path d="   M 1085 258.6666666666667   l 80 0   l 0 140.66666666666666   s 0 6 -6 6    l -68 0   s -6 0 -6 -6   l 0 -140.66666666666666   z" fill="url(#WhiteBlackGradient)"/><path d="   M 1085 258.6666666666667   l 80 0   l 0 140.66666666666666   s 0 6 -6 6    l -68 0   s -6 0 -6 -6   l 0 -140.66666666666666   z" fill-opacity="0.3" filter="url(#SaturateMinus)"/><path d="   M 1327 88.66666666666669   s 0 -6 6 -6   l 68 0   s 6 0 6 6   l 0 170    l -80 0    l 0 -170   z"/><path d="   M 1327 88.66666666666669   s 0 -6 6 -6   l 68 0   s 6 0 6 6   l 0 170    l -80 0    l 0 -170   z" fill="url(#WhiteBlackGradient)"/><path d="   M 1327 88.66666666666669   s 0 -6 6 -6   l 68 0   s 6 0 6 6   l 0 170    l -80 0    l 0 -170   z" fill-opacity="0.3" filter="url(#SaturateMinus)"/><path d="   M 1569 258.6666666666667   l 80 0   l 0 199.33333333333331   s 0 6 -6 6    l -68 0   s -6 0 -6 -6   l 0 -199.33333333333331   z"/><path d="   M 1569 258.6666666666667   l 80 0   l 0 199.33333333333331   s 0 6 -6 6    l -68 0   s -6 0 -6 -6   l 0 -199.33333333333331   z" fill="url(#WhiteBlackGradient)"/><path d="   M 1569 258.6666666666667   l 80 0   l 0 199.33333333333331   s 0 6 -6 6    l -68 0   s -6 0 -6 -6   l 0 -199.33333333333331   z" fill-opacity="0.3" filter="url(#SaturateMinus)"/><path d="   M 1811 30.00000000000003   s 0 -6 6 -6   l 68 0   s 6 0 6 6   l 0 228.66666666666666    l -80 0    l 0 -228.66666666666666   z"/><path d="   M 1811 30.00000000000003   s 0 -6 6 -6   l 68 0   s 6 0 6 6   l 0 228.66666666666666    l -80 0    l 0 -228.66666666666666   z" fill="url(#WhiteBlackGradient)"/><path d="   M 1811 30.00000000000003   s 0 -6 6 -6   l 68 0   s 6 0 6 6   l 0 228.66666666666666    l -80 0    l 0 -228.66666666666666   z" fill-opacity="0.3" filter="url(#SaturateMinus)"/></g></g></svg>