<?xml version="1.0" encoding="UTF-8" standalone="no" ?><svg xmlns="http://www.w3.org/2000/svg" id="ID_svg" viewBox="0 0 1174 500" viewport-fill="white" viewport-fill-opacity="0" xmlns:exsl4D="http://www.4D.com" xmlns:math="http://exslt.org/math" xmlns:xlink="http://www.w3.org/1999/xlink"><!--gradient styles--><defs><filter id="soft_blur"><feGaussianBlur in="SourceGraphic" result="BlurAlpha" stdDeviation="The variable 'filter_shadow_deviation' is not defined."/></filter><filter id="pastel"><feGaussianBlur in="SourceAlpha" result="blur" stdDeviation="2"/><feOffset dx="6" dy="6" in="blur" result="offsetBlur"/><feComposite in="SourceGraphic" in2="offsetBlur" operator="in" result="specOut"/></filter><filter id="blur_shadow"><feGaussianBlur in="SourceAlpha" result="blur" stdDeviation="3"/><feOffset dx="4" dy="2" in="blur" result="offsetBlur"/><feBlend in="SourceGraphic" in2="offsetBlur" mode="normal"/></filter><filter filterUnits="objectBoundingBox" id="Shadow"><feGaussianBlur in="SourceAlpha" result="flou" stdDeviation="0"/><feColorMatrix in="SourceAlpha" result="flouBlue" type="matrix" values=" 0 0 0 0 0                      0 0 0 0 0                     0 0 0 0 0                      0 0 0 0.3 0"/><feOffset dx="4" dy="4" in="flouBlue" result="flouDecalage"/><feBlend in="SourceGraphic" in2="flouDecalage" mode="normal"/></filter><filter filterUnits="objectBoundingBox" height="100%" id="SaturateMinus" width="100%" x="0%" y="0%"><feColorMatrix in="SourceGraphic" type="saturate" values="0.5"/></filter><filter filterUnits="objectBoundingBox" height="100%" id="SaturatePlus" width="100%" x="0%" y="0%"><feColorMatrix in="SourceGraphic" type="saturate" values="1.4"/></filter><linearGradient id="BlackGradient"><stop offset="0%" style="stop-color:rgb(0,0,0); stop-opacity:0"/><stop offset="100%" style="stop-color:rgb(0,0,0); stop-opacity:0.1"/></linearGradient><linearGradient id="WhiteGradient" x1="0%" x2="100%" y1="0%" y2="0%"><stop offset="0%" style="stop-color:rgb(255,255,255); stop-opacity:0.3"/><stop offset="100%" style="stop-color:rgb(255,255,255);stop-opacity:0"/></linearGradient><linearGradient id="WhiteBlackGradient" x1="0%" x2="100%" y1="0%" y2="0%"><stop offset="0%" style="stop-color:rgb(255,255,255); stop-opacity:0.15"/><stop offset="100%" style="stop-color:rgb(0,0,0);stop-opacity:0.15"/></linearGradient><linearGradient id="Black0Black1Gradient" x1="0%" x2="0%" y1="0%" y2="100%"><stop offset="0%" style="stop-color:rgb(0,0,0); stop-opacity:0"/><stop offset="100%" style="stop-color:rgb(0,0,0);stop-opacity:0.05"/></linearGradient></defs><!--global stroke and font styles--><g id="ID_globals" style="fill:black;stroke:none;font-family:Arial;font-size:12px;font-weight:normal;font-style:normal;text-decoration:none;shape-rendering:crispEdges"><!--draw title--><!--draw legend--><!--draw graph background--><rect fill="rgb(168,168,168)" fill-opacity="1" height="446" id="ID_background_shadow" rx="10" ry="10" stroke="none" visibility="visible" width="1120" x="45" y="23"/><g fill="rgb(229,229,229)" id="ID_background" visibility="visible"><rect height="446" rx="10" ry="10" stroke="none" width="1120" x="44" y="22"/><rect fill="url(#Black0Black1Gradient)" height="446" rx="10" ry="10" stroke="none" width="1120" x="44" y="22"/></g><clipPath id="ID_backgroundClipPath"><rect height="447" rx="10" ry="10" width="1121" x="44" y="22"/></clipPath><!--draw Y grid lines--><!--draw Y grid lines SHADOWS--><!--draw X grid lines--><!--draw X grid lines SHADOWS --><!--draw y=0 axe--><g id="ID_y0_axis" stroke="rgb(100,100,100)" stroke-width="1" visibility="visible"><line x1="44" x2="1164" y1="245" y2="245"/></g><!--draw axis x labels--><g id="ID_x_values" style="fill:black;stroke:none;font-family:Arial;font-size:12px;font-weight:normal;font-style:normal;text-decoration:none;filter:none" visibility="visible"><text text-anchor="middle" x="117" y="486.8">PT8H0M0S</text><text text-anchor="middle" x="257" y="486.8">PT9H0M0S</text><text text-anchor="middle" x="397" y="486.8">PT10H0M0S</text><text text-anchor="middle" x="537" y="486.8">PT11H0M0S</text><text text-anchor="middle" x="677" y="486.8">PT11H15M0S</text><text text-anchor="middle" x="817" y="486.8">PT14H45M0S</text><text text-anchor="middle" x="957" y="486.8">PT15H0M0S</text><text text-anchor="middle" x="1097" y="486.8">PT16H0M0S</text></g><!--draw axis y labels--><g id="ID_y_values" style="fill:black;stroke:none;font-family:Arial;font-size:12px;font-weight:normal;font-style:normal;text-decoration:none;filter:none" visibility="visible"><text text-anchor="end" x="34" y="472.8">-100</text><text text-anchor="end" x="34" y="450.5">-90</text><text text-anchor="end" x="34" y="428.2">-80</text><text text-anchor="end" x="34" y="405.90000000000003">-70</text><text text-anchor="end" x="34" y="383.6">-60</text><text text-anchor="end" x="34" y="361.3">-50</text><text text-anchor="end" x="34" y="339">-40</text><text text-anchor="end" x="34" y="316.7">-30</text><text text-anchor="end" x="34" y="294.40000000000003">-20</text><text text-anchor="end" x="34" y="272.1">-10</text><text text-anchor="end" x="34" y="249.8">0</text><text text-anchor="end" x="34" y="227.5">10</text><text text-anchor="end" x="34" y="205.2">20</text><text text-anchor="end" x="34" y="182.90000000000003">30</text><text text-anchor="end" x="34" y="160.60000000000002">40</text><text text-anchor="end" x="34" y="138.3">50</text><text text-anchor="end" x="34" y="115.99999999999999">60</text><text text-anchor="end" x="34" y="93.69999999999997">70</text><text text-anchor="end" x="34" y="71.40000000000002">80</text><text text-anchor="end" x="34" y="49.10000000000001">90</text><text text-anchor="end" x="34" y="26.8">100</text></g><!--draw bars SHADOWS--><g clip-path="url(#ID_BackgroundClipPath)" id="allGroups" shape-rendering="auto"><!--              draw bars shadows for data type 1--><g fill="black" fill-opacity="0.2" id="ID_graph_shadow_1"><rect height="28.902445820875414" rx="0" ry="0" width="100" x="67" y="245"/><rect height="28.902445820875414" rx="0" ry="0" width="100" x="207" y="216.0975541791246"/><rect height="28.902445820875414" rx="0" ry="0" width="100" x="347" y="245"/><rect height="28.902445820875414" rx="0" ry="0" width="100" x="487" y="216.0975541791246"/><rect height="28.902445820875414" rx="0" ry="0" width="100" x="627" y="245"/><rect height="28.902445820875414" rx="0" ry="0" width="100" x="767" y="216.0975541791246"/><rect height="28.902445820875414" rx="0" ry="0" width="100" x="907" y="245"/><rect height="28.902445820875414" rx="0" ry="0" width="100" x="1047" y="216.0975541791246"/></g><!--              draw bars shadows for data type 2--><g fill="black" fill-opacity="0.2" id="ID_graph_shadow_2"><rect height="31.792690402961398" rx="0" ry="0" width="100" x="67" y="273.9024458208754"/><rect height="31.792690402961398" rx="0" ry="0" width="100" x="207" y="184.3048637761632"/><rect height="31.792690402961398" rx="0" ry="0" width="100" x="347" y="273.9024458208754"/><rect height="31.792690402961398" rx="0" ry="0" width="100" x="487" y="184.3048637761632"/><rect height="31.792690402961398" rx="0" ry="0" width="100" x="627" y="273.9024458208754"/><rect height="31.792690402961398" rx="0" ry="0" width="100" x="767" y="184.3048637761632"/><rect height="31.792690402961398" rx="0" ry="0" width="100" x="907" y="273.9024458208754"/><rect height="31.792690402961398" rx="0" ry="0" width="100" x="1047" y="184.3048637761632"/></g><!--              draw bars shadows for data type 3--><g fill="black" fill-opacity="0.2" id="ID_graph_shadow_3"><rect height="34.971959443259095" rx="0" ry="0" width="100" x="67" y="305.69513622383676"/><rect height="34.971959443259095" rx="0" ry="0" width="100" x="207" y="149.33290433290412"/><rect height="34.971959443259095" rx="0" ry="0" width="100" x="347" y="305.69513622383676"/><rect height="34.971959443259095" rx="0" ry="0" width="100" x="487" y="149.33290433290412"/><rect height="34.971959443259095" rx="0" ry="0" width="100" x="627" y="305.69513622383676"/><rect height="34.971959443259095" rx="0" ry="0" width="100" x="767" y="149.33290433290412"/><rect height="34.971959443259095" rx="0" ry="0" width="100" x="907" y="305.69513622383676"/><rect height="34.971959443259095" rx="0" ry="0" width="100" x="1047" y="149.33290433290412"/></g><!--              draw bars shadows for data type 4--><g fill="black" fill-opacity="0.2" id="ID_graph_shadow_4"><rect height="38.46915538758435" rx="0" ry="0" width="100" x="67" y="340.66709566709585"/><rect height="38.46915538758432" rx="0" ry="0" width="100" x="207" y="110.86374894531977"/><rect height="38.46915538758435" rx="0" ry="0" width="100" x="347" y="340.66709566709585"/><rect height="38.46915538758432" rx="0" ry="0" width="100" x="487" y="110.86374894531977"/><rect height="38.46915538758435" rx="0" ry="0" width="100" x="627" y="340.66709566709585"/><rect height="38.46915538758432" rx="0" ry="0" width="100" x="767" y="110.86374894531977"/><rect height="38.46915538758435" rx="0" ry="0" width="100" x="907" y="340.66709566709585"/><rect height="38.46915538758432" rx="0" ry="0" width="100" x="1047" y="110.86374894531977"/></g><!--              draw bars shadows for data type 5--><g fill="black" fill-opacity="0.2" id="ID_graph_shadow_5"><rect height="42.31607092634255" rx="0" ry="0" width="100" x="67" y="379.13625105468026"/><rect height="42.31607092634255" rx="0" ry="0" width="100" x="207" y="68.54767801897722"/><rect height="42.31607092634255" rx="0" ry="0" width="100" x="347" y="379.13625105468026"/><rect height="42.31607092634255" rx="0" ry="0" width="100" x="487" y="68.54767801897722"/><rect height="42.31607092634255" rx="0" ry="0" width="100" x="627" y="379.13625105468026"/><rect height="42.31607092634255" rx="0" ry="0" width="100" x="767" y="68.54767801897722"/><rect height="42.31607092634255" rx="0" ry="0" width="100" x="907" y="379.13625105468026"/><rect height="42.31607092634255" rx="0" ry="0" width="100" x="1047" y="68.54767801897722"/></g><!--              draw bars shadows for data type 6--><g fill="black" fill-opacity="0.2" id="ID_graph_shadow_6"><path d="   M 67 421.45232198102275   l 100 0   l 0 36.54767801897725   s 0 10 -10 10    l -80 0   s -10 0 -10 -10   l 0 -36.54767801897725   z"/><path d="   M 207 32   s 0 -10 10 -10   l 80 0   s 10 0 10 10   l 0 36.54767801897725    l -100 0    l 0 -36.54767801897725   z"/><path d="   M 347 421.45232198102275   l 100 0   l 0 36.54767801897725   s 0 10 -10 10    l -80 0   s -10 0 -10 -10   l 0 -36.54767801897725   z"/><path d="   M 487 32   s 0 -10 10 -10   l 80 0   s 10 0 10 10   l 0 36.54767801897725    l -100 0    l 0 -36.54767801897725   z"/><path d="   M 627 421.45232198102275   l 100 0   l 0 36.54767801897725   s 0 10 -10 10    l -80 0   s -10 0 -10 -10   l 0 -36.54767801897725   z"/><path d="   M 767 32   s 0 -10 10 -10   l 80 0   s 10 0 10 10   l 0 36.54767801897725    l -100 0    l 0 -36.54767801897725   z"/><path d="   M 907 421.45232198102275   l 100 0   l 0 36.54767801897725   s 0 10 -10 10    l -80 0   s -10 0 -10 -10   l 0 -36.54767801897725   z"/><path d="   M 1047 32   s 0 -10 10 -10   l 80 0   s 10 0 10 10   l 0 36.54767801897725    l -100 0    l 0 -36.54767801897725   z"/></g></g><!--draw bars--><g filter="none" id="allGroups" shape-rendering="auto"><!--              draw bars for data type 1--><g fill="rgb(0,178,195)" fill-opacity="1" id="ID_graph_1" stroke="black" stroke-opacity="0" stroke-width="0"><rect height="28.902445820875414" rx="0" ry="0" width="100" x="64" y="245"/><rect fill="url(#WhiteBlackGradient)" height="28.902445820875414" rx="0" ry="0" width="100" x="64" y="245"/><rect fill-opacity="0.3" filter="url(#SaturateMinus)" height="28.902445820875414" rx="0" ry="0" width="100" x="64" y="245"/><rect height="28.902445820875414" rx="0" ry="0" width="100" x="204" y="216.0975541791246"/><rect fill="url(#WhiteBlackGradient)" height="28.902445820875414" rx="0" ry="0" width="100" x="204" y="216.0975541791246"/><rect fill-opacity="0.3" filter="url(#SaturateMinus)" height="28.902445820875414" rx="0" ry="0" width="100" x="204" y="216.0975541791246"/><rect height="28.902445820875414" rx="0" ry="0" width="100" x="344" y="245"/><rect fill="url(#WhiteBlackGradient)" height="28.902445820875414" rx="0" ry="0" width="100" x="344" y="245"/><rect fill-opacity="0.3" filter="url(#SaturateMinus)" height="28.902445820875414" rx="0" ry="0" width="100" x="344" y="245"/><rect height="28.902445820875414" rx="0" ry="0" width="100" x="484" y="216.0975541791246"/><rect fill="url(#WhiteBlackGradient)" height="28.902445820875414" rx="0" ry="0" width="100" x="484" y="216.0975541791246"/><rect fill-opacity="0.3" filter="url(#SaturateMinus)" height="28.902445820875414" rx="0" ry="0" width="100" x="484" y="216.0975541791246"/><rect height="28.902445820875414" rx="0" ry="0" width="100" x="624" y="245"/><rect fill="url(#WhiteBlackGradient)" height="28.902445820875414" rx="0" ry="0" width="100" x="624" y="245"/><rect fill-opacity="0.3" filter="url(#SaturateMinus)" height="28.902445820875414" rx="0" ry="0" width="100" x="624" y="245"/><rect height="28.902445820875414" rx="0" ry="0" width="100" x="764" y="216.0975541791246"/><rect fill="url(#WhiteBlackGradient)" height="28.902445820875414" rx="0" ry="0" width="100" x="764" y="216.0975541791246"/><rect fill-opacity="0.3" filter="url(#SaturateMinus)" height="28.902445820875414" rx="0" ry="0" width="100" x="764" y="216.0975541791246"/><rect height="28.902445820875414" rx="0" ry="0" width="100" x="904" y="245"/><rect fill="url(#WhiteBlackGradient)" height="28.902445820875414" rx="0" ry="0" width="100" x="904" y="245"/><rect fill-opacity="0.3" filter="url(#SaturateMinus)" height="28.902445820875414" rx="0" ry="0" width="100" x="904" y="245"/><rect height="28.902445820875414" rx="0" ry="0" width="100" x="1044" y="216.0975541791246"/><rect fill="url(#WhiteBlackGradient)" height="28.902445820875414" rx="0" ry="0" width="100" x="1044" y="216.0975541791246"/><rect fill-opacity="0.3" filter="url(#SaturateMinus)" height="28.902445820875414" rx="0" ry="0" width="100" x="1044" y="216.0975541791246"/></g><!--              draw bars for data type 2--><g fill="rgb(255,195,56)" fill-opacity="1" id="ID_graph_2" stroke="black" stroke-opacity="0" stroke-width="0"><rect height="31.792690402961398" rx="0" ry="0" width="100" x="64" y="273.9024458208754"/><rect fill="url(#WhiteBlackGradient)" height="31.792690402961398" rx="0" ry="0" width="100" x="64" y="273.9024458208754"/><rect fill-opacity="0.3" filter="url(#SaturateMinus)" height="31.792690402961398" rx="0" ry="0" width="100" x="64" y="273.9024458208754"/><rect height="31.792690402961398" rx="0" ry="0" width="100" x="204" y="184.3048637761632"/><rect fill="url(#WhiteBlackGradient)" height="31.792690402961398" rx="0" ry="0" width="100" x="204" y="184.3048637761632"/><rect fill-opacity="0.3" filter="url(#SaturateMinus)" height="31.792690402961398" rx="0" ry="0" width="100" x="204" y="184.3048637761632"/><rect height="31.792690402961398" rx="0" ry="0" width="100" x="344" y="273.9024458208754"/><rect fill="url(#WhiteBlackGradient)" height="31.792690402961398" rx="0" ry="0" width="100" x="344" y="273.9024458208754"/><rect fill-opacity="0.3" filter="url(#SaturateMinus)" height="31.792690402961398" rx="0" ry="0" width="100" x="344" y="273.9024458208754"/><rect height="31.792690402961398" rx="0" ry="0" width="100" x="484" y="184.3048637761632"/><rect fill="url(#WhiteBlackGradient)" height="31.792690402961398" rx="0" ry="0" width="100" x="484" y="184.3048637761632"/><rect fill-opacity="0.3" filter="url(#SaturateMinus)" height="31.792690402961398" rx="0" ry="0" width="100" x="484" y="184.3048637761632"/><rect height="31.792690402961398" rx="0" ry="0" width="100" x="624" y="273.9024458208754"/><rect fill="url(#WhiteBlackGradient)" height="31.792690402961398" rx="0" ry="0" width="100" x="624" y="273.9024458208754"/><rect fill-opacity="0.3" filter="url(#SaturateMinus)" height="31.792690402961398" rx="0" ry="0" width="100" x="624" y="273.9024458208754"/><rect height="31.792690402961398" rx="0" ry="0" width="100" x="764" y="184.3048637761632"/><rect fill="url(#WhiteBlackGradient)" height="31.792690402961398" rx="0" ry="0" width="100" x="764" y="184.3048637761632"/><rect fill-opacity="0.3" filter="url(#SaturateMinus)" height="31.792690402961398" rx="0" ry="0" width="100" x="764" y="184.3048637761632"/><rect height="31.792690402961398" rx="0" ry="0" width="100" x="904" y="273.9024458208754"/><rect fill="url(#WhiteBlackGradient)" height="31.792690402961398" rx="0" ry="0" width="100" x="904" y="273.9024458208754"/><rect fill-opacity="0.3" filter="url(#SaturateMinus)" height="31.792690402961398" rx="0" ry="0" width="100" x="904" y="273.9024458208754"/><rect height="31.792690402961398" rx="0" ry="0" width="100" x="1044" y="184.3048637761632"/><rect fill="url(#WhiteBlackGradient)" height="31.792690402961398" rx="0" ry="0" width="100" x="1044" y="184.3048637761632"/><rect fill-opacity="0.3" filter="url(#SaturateMinus)" height="31.792690402961398" rx="0" ry="0" width="100" x="1044" y="184.3048637761632"/></g><!--              draw bars for data type 3--><g fill="rgb(87,62,130)" fill-opacity="1" id="ID_graph_3" stroke="black" stroke-opacity="0" stroke-width="0"><rect height="34.971959443259095" rx="0" ry="0" width="100" x="64" y="305.69513622383676"/><rect fill="url(#WhiteBlackGradient)" height="34.971959443259095" rx="0" ry="0" width="100" x="64" y="305.69513622383676"/><rect fill-opacity="0.3" filter="url(#SaturateMinus)" height="34.971959443259095" rx="0" ry="0" width="100" x="64" y="305.69513622383676"/><rect height="34.971959443259095" rx="0" ry="0" width="100" x="204" y="149.33290433290412"/><rect fill="url(#WhiteBlackGradient)" height="34.971959443259095" rx="0" ry="0" width="100" x="204" y="149.33290433290412"/><rect fill-opacity="0.3" filter="url(#SaturateMinus)" height="34.971959443259095" rx="0" ry="0" width="100" x="204" y="149.33290433290412"/><rect height="34.971959443259095" rx="0" ry="0" width="100" x="344" y="305.69513622383676"/><rect fill="url(#WhiteBlackGradient)" height="34.971959443259095" rx="0" ry="0" width="100" x="344" y="305.69513622383676"/><rect fill-opacity="0.3" filter="url(#SaturateMinus)" height="34.971959443259095" rx="0" ry="0" width="100" x="344" y="305.69513622383676"/><rect height="34.971959443259095" rx="0" ry="0" width="100" x="484" y="149.33290433290412"/><rect fill="url(#WhiteBlackGradient)" height="34.971959443259095" rx="0" ry="0" width="100" x="484" y="149.33290433290412"/><rect fill-opacity="0.3" filter="url(#SaturateMinus)" height="34.971959443259095" rx="0" ry="0" width="100" x="484" y="149.33290433290412"/><rect height="34.971959443259095" rx="0" ry="0" width="100" x="624" y="305.69513622383676"/><rect fill="url(#WhiteBlackGradient)" height="34.971959443259095" rx="0" ry="0" width="100" x="624" y="305.69513622383676"/><rect fill-opacity="0.3" filter="url(#SaturateMinus)" height="34.971959443259095" rx="0" ry="0" width="100" x="624" y="305.69513622383676"/><rect height="34.971959443259095" rx="0" ry="0" width="100" x="764" y="149.33290433290412"/><rect fill="url(#WhiteBlackGradient)" height="34.971959443259095" rx="0" ry="0" width="100" x="764" y="149.33290433290412"/><rect fill-opacity="0.3" filter="url(#SaturateMinus)" height="34.971959443259095" rx="0" ry="0" width="100" x="764" y="149.33290433290412"/><rect height="34.971959443259095" rx="0" ry="0" width="100" x="904" y="305.69513622383676"/><rect fill="url(#WhiteBlackGradient)" height="34.971959443259095" rx="0" ry="0" width="100" x="904" y="305.69513622383676"/><rect fill-opacity="0.3" filter="url(#SaturateMinus)" height="34.971959443259095" rx="0" ry="0" width="100" x="904" y="305.69513622383676"/><rect height="34.971959443259095" rx="0" ry="0" width="100" x="1044" y="149.33290433290412"/><rect fill="url(#WhiteBlackGradient)" height="34.971959443259095" rx="0" ry="0" width="100" x="1044" y="149.33290433290412"/><rect fill-opacity="0.3" filter="url(#SaturateMinus)" height="34.971959443259095" rx="0" ry="0" width="100" x="1044" y="149.33290433290412"/></g><!--              draw bars for data type 4--><g fill="rgb(79,168,57)" fill-opacity="1" id="ID_graph_4" stroke="black" stroke-opacity="0" stroke-width="0"><rect height="38.46915538758435" rx="0" ry="0" width="100" x="64" y="340.66709566709585"/><rect fill="url(#WhiteBlackGradient)" height="38.46915538758435" rx="0" ry="0" width="100" x="64" y="340.66709566709585"/><rect fill-opacity="0.3" filter="url(#SaturateMinus)" height="38.46915538758435" rx="0" ry="0" width="100" x="64" y="340.66709566709585"/><rect height="38.46915538758432" rx="0" ry="0" width="100" x="204" y="110.86374894531977"/><rect fill="url(#WhiteBlackGradient)" height="38.46915538758432" rx="0" ry="0" width="100" x="204" y="110.86374894531977"/><rect fill-opacity="0.3" filter="url(#SaturateMinus)" height="38.46915538758432" rx="0" ry="0" width="100" x="204" y="110.86374894531977"/><rect height="38.46915538758435" rx="0" ry="0" width="100" x="344" y="340.66709566709585"/><rect fill="url(#WhiteBlackGradient)" height="38.46915538758435" rx="0" ry="0" width="100" x="344" y="340.66709566709585"/><rect fill-opacity="0.3" filter="url(#SaturateMinus)" height="38.46915538758435" rx="0" ry="0" width="100" x="344" y="340.66709566709585"/><rect height="38.46915538758432" rx="0" ry="0" width="100" x="484" y="110.86374894531977"/><rect fill="url(#WhiteBlackGradient)" height="38.46915538758432" rx="0" ry="0" width="100" x="484" y="110.86374894531977"/><rect fill-opacity="0.3" filter="url(#SaturateMinus)" height="38.46915538758432" rx="0" ry="0" width="100" x="484" y="110.86374894531977"/><rect height="38.46915538758435" rx="0" ry="0" width="100" x="624" y="340.66709566709585"/><rect fill="url(#WhiteBlackGradient)" height="38.46915538758435" rx="0" ry="0" width="100" x="624" y="340.66709566709585"/><rect fill-opacity="0.3" filter="url(#SaturateMinus)" height="38.46915538758435" rx="0" ry="0" width="100" x="624" y="340.66709566709585"/><rect height="38.46915538758432" rx="0" ry="0" width="100" x="764" y="110.86374894531977"/><rect fill="url(#WhiteBlackGradient)" height="38.46915538758432" rx="0" ry="0" width="100" x="764" y="110.86374894531977"/><rect fill-opacity="0.3" filter="url(#SaturateMinus)" height="38.46915538758432" rx="0" ry="0" width="100" x="764" y="110.86374894531977"/><rect height="38.46915538758435" rx="0" ry="0" width="100" x="904" y="340.66709566709585"/><rect fill="url(#WhiteBlackGradient)" height="38.46915538758435" rx="0" ry="0" width="100" x="904" y="340.66709566709585"/><rect fill-opacity="0.3" filter="url(#SaturateMinus)" height="38.46915538758435" rx="0" ry="0" width="100" x="904" y="340.66709566709585"/><rect height="38.46915538758432" rx="0" ry="0" width="100" x="1044" y="110.86374894531977"/><rect fill="url(#WhiteBlackGradient)" height="38.46915538758432" rx="0" ry="0" width="100" x="1044" y="110.86374894531977"/><rect fill-opacity="0.3" filter="url(#SaturateMinus)" height="38.46915538758432" rx="0" ry="0" width="100" x="1044" y="110.86374894531977"/></g><!--              draw bars for data type 5--><g fill="rgb(217,87,0)" fill-opacity="1" id="ID_graph_5" stroke="black" stroke-opacity="0" stroke-width="0"><rect height="42.31607092634255" rx="0" ry="0" width="100" x="64" y="379.13625105468026"/><rect fill="url(#WhiteBlackGradient)" height="42.31607092634255" rx="0" ry="0" width="100" x="64" y="379.13625105468026"/><rect fill-opacity="0.3" filter="url(#SaturateMinus)" height="42.31607092634255" rx="0" ry="0" width="100" x="64" y="379.13625105468026"/><rect height="42.31607092634255" rx="0" ry="0" width="100" x="204" y="68.54767801897722"/><rect fill="url(#WhiteBlackGradient)" height="42.31607092634255" rx="0" ry="0" width="100" x="204" y="68.54767801897722"/><rect fill-opacity="0.3" filter="url(#SaturateMinus)" height="42.31607092634255" rx="0" ry="0" width="100" x="204" y="68.54767801897722"/><rect height="42.31607092634255" rx="0" ry="0" width="100" x="344" y="379.13625105468026"/><rect fill="url(#WhiteBlackGradient)" height="42.31607092634255" rx="0" ry="0" width="100" x="344" y="379.13625105468026"/><rect fill-opacity="0.3" filter="url(#SaturateMinus)" height="42.31607092634255" rx="0" ry="0" width="100" x="344" y="379.13625105468026"/><rect height="42.31607092634255" rx="0" ry="0" width="100" x="484" y="68.54767801897722"/><rect fill="url(#WhiteBlackGradient)" height="42.31607092634255" rx="0" ry="0" width="100" x="484" y="68.54767801897722"/><rect fill-opacity="0.3" filter="url(#SaturateMinus)" height="42.31607092634255" rx="0" ry="0" width="100" x="484" y="68.54767801897722"/><rect height="42.31607092634255" rx="0" ry="0" width="100" x="624" y="379.13625105468026"/><rect fill="url(#WhiteBlackGradient)" height="42.31607092634255" rx="0" ry="0" width="100" x="624" y="379.13625105468026"/><rect fill-opacity="0.3" filter="url(#SaturateMinus)" height="42.31607092634255" rx="0" ry="0" width="100" x="624" y="379.13625105468026"/><rect height="42.31607092634255" rx="0" ry="0" width="100" x="764" y="68.54767801897722"/><rect fill="url(#WhiteBlackGradient)" height="42.31607092634255" rx="0" ry="0" width="100" x="764" y="68.54767801897722"/><rect fill-opacity="0.3" filter="url(#SaturateMinus)" height="42.31607092634255" rx="0" ry="0" width="100" x="764" y="68.54767801897722"/><rect height="42.31607092634255" rx="0" ry="0" width="100" x="904" y="379.13625105468026"/><rect fill="url(#WhiteBlackGradient)" height="42.31607092634255" rx="0" ry="0" width="100" x="904" y="379.13625105468026"/><rect fill-opacity="0.3" filter="url(#SaturateMinus)" height="42.31607092634255" rx="0" ry="0" width="100" x="904" y="379.13625105468026"/><rect height="42.31607092634255" rx="0" ry="0" width="100" x="1044" y="68.54767801897722"/><rect fill="url(#WhiteBlackGradient)" height="42.31607092634255" rx="0" ry="0" width="100" x="1044" y="68.54767801897722"/><rect fill-opacity="0.3" filter="url(#SaturateMinus)" height="42.31607092634255" rx="0" ry="0" width="100" x="1044" y="68.54767801897722"/></g><!--              draw bars for data type 6--><g fill="rgb(29,157,242)" fill-opacity="1" id="ID_graph_6" stroke="black" stroke-opacity="0" stroke-width="0"><path d="   M 64 421.45232198102275   l 100 0   l 0 36.54767801897725   s 0 10 -10 10    l -80 0   s -10 0 -10 -10   l 0 -36.54767801897725   z"/><path d="   M 64 421.45232198102275   l 100 0   l 0 36.54767801897725   s 0 10 -10 10    l -80 0   s -10 0 -10 -10   l 0 -36.54767801897725   z" fill="url(#WhiteBlackGradient)"/><path d="   M 64 421.45232198102275   l 100 0   l 0 36.54767801897725   s 0 10 -10 10    l -80 0   s -10 0 -10 -10   l 0 -36.54767801897725   z" fill-opacity="0.3" filter="url(#SaturateMinus)"/><path d="   M 204 32   s 0 -10 10 -10   l 80 0   s 10 0 10 10   l 0 36.54767801897725    l -100 0    l 0 -36.54767801897725   z"/><path d="   M 204 32   s 0 -10 10 -10   l 80 0   s 10 0 10 10   l 0 36.54767801897725    l -100 0    l 0 -36.54767801897725   z" fill="url(#WhiteBlackGradient)"/><path d="   M 204 32   s 0 -10 10 -10   l 80 0   s 10 0 10 10   l 0 36.54767801897725    l -100 0    l 0 -36.54767801897725   z" fill-opacity="0.3" filter="url(#SaturateMinus)"/><path d="   M 344 421.45232198102275   l 100 0   l 0 36.54767801897725   s 0 10 -10 10    l -80 0   s -10 0 -10 -10   l 0 -36.54767801897725   z"/><path d="   M 344 421.45232198102275   l 100 0   l 0 36.54767801897725   s 0 10 -10 10    l -80 0   s -10 0 -10 -10   l 0 -36.54767801897725   z" fill="url(#WhiteBlackGradient)"/><path d="   M 344 421.45232198102275   l 100 0   l 0 36.54767801897725   s 0 10 -10 10    l -80 0   s -10 0 -10 -10   l 0 -36.54767801897725   z" fill-opacity="0.3" filter="url(#SaturateMinus)"/><path d="   M 484 32   s 0 -10 10 -10   l 80 0   s 10 0 10 10   l 0 36.54767801897725    l -100 0    l 0 -36.54767801897725   z"/><path d="   M 484 32   s 0 -10 10 -10   l 80 0   s 10 0 10 10   l 0 36.54767801897725    l -100 0    l 0 -36.54767801897725   z" fill="url(#WhiteBlackGradient)"/><path d="   M 484 32   s 0 -10 10 -10   l 80 0   s 10 0 10 10   l 0 36.54767801897725    l -100 0    l 0 -36.54767801897725   z" fill-opacity="0.3" filter="url(#SaturateMinus)"/><path d="   M 624 421.45232198102275   l 100 0   l 0 36.54767801897725   s 0 10 -10 10    l -80 0   s -10 0 -10 -10   l 0 -36.54767801897725   z"/><path d="   M 624 421.45232198102275   l 100 0   l 0 36.54767801897725   s 0 10 -10 10    l -80 0   s -10 0 -10 -10   l 0 -36.54767801897725   z" fill="url(#WhiteBlackGradient)"/><path d="   M 624 421.45232198102275   l 100 0   l 0 36.54767801897725   s 0 10 -10 10    l -80 0   s -10 0 -10 -10   l 0 -36.54767801897725   z" fill-opacity="0.3" filter="url(#SaturateMinus)"/><path d="   M 764 32   s 0 -10 10 -10   l 80 0   s 10 0 10 10   l 0 36.54767801897725    l -100 0    l 0 -36.54767801897725   z"/><path d="   M 764 32   s 0 -10 10 -10   l 80 0   s 10 0 10 10   l 0 36.54767801897725    l -100 0    l 0 -36.54767801897725   z" fill="url(#WhiteBlackGradient)"/><path d="   M 764 32   s 0 -10 10 -10   l 80 0   s 10 0 10 10   l 0 36.54767801897725    l -100 0    l 0 -36.54767801897725   z" fill-opacity="0.3" filter="url(#SaturateMinus)"/><path d="   M 904 421.45232198102275   l 100 0   l 0 36.54767801897725   s 0 10 -10 10    l -80 0   s -10 0 -10 -10   l 0 -36.54767801897725   z"/><path d="   M 904 421.45232198102275   l 100 0   l 0 36.54767801897725   s 0 10 -10 10    l -80 0   s -10 0 -10 -10   l 0 -36.54767801897725   z" fill="url(#WhiteBlackGradient)"/><path d="   M 904 421.45232198102275   l 100 0   l 0 36.54767801897725   s 0 10 -10 10    l -80 0   s -10 0 -10 -10   l 0 -36.54767801897725   z" fill-opacity="0.3" filter="url(#SaturateMinus)"/><path d="   M 1044 32   s 0 -10 10 -10   l 80 0   s 10 0 10 10   l 0 36.54767801897725    l -100 0    l 0 -36.54767801897725   z"/><path d="   M 1044 32   s 0 -10 10 -10   l 80 0   s 10 0 10 10   l 0 36.54767801897725    l -100 0    l 0 -36.54767801897725   z" fill="url(#WhiteBlackGradient)"/><path d="   M 1044 32   s 0 -10 10 -10   l 80 0   s 10 0 10 10   l 0 36.54767801897725    l -100 0    l 0 -36.54767801897725   z" fill-opacity="0.3" filter="url(#SaturateMinus)"/></g></g></g></svg>