<?xml version="1.0" encoding="UTF-8" standalone="no" ?><svg xmlns="http://www.w3.org/2000/svg" id="ID_svg" viewBox="0 0 1168 500" viewport-fill="white" viewport-fill-opacity="0" xmlns:exsl4D="http://www.4D.com" xmlns:math="http://exslt.org/math" xmlns:xlink="http://www.w3.org/1999/xlink"><!--gradient styles--><defs><filter id="soft_blur"><feGaussianBlur in="SourceGraphic" result="BlurAlpha" stdDeviation="1"/></filter><filter id="pastel"><feGaussianBlur in="SourceAlpha" result="blur" stdDeviation="2"/><feOffset dx="6" dy="6" in="blur" result="offsetBlur"/><feComposite in="SourceGraphic" in2="offsetBlur" operator="in" result="specOut"/></filter><filter id="blur_shadow"><feGaussianBlur in="SourceAlpha" result="blur" stdDeviation="3"/><feOffset dx="4" dy="2" in="blur" result="offsetBlur"/><feBlend in="SourceGraphic" in2="offsetBlur" mode="normal"/></filter><filter filterUnits="objectBoundingBox" id="Shadow"><feGaussianBlur in="SourceAlpha" result="flou" stdDeviation="0"/><feColorMatrix in="SourceAlpha" result="flouBlue" type="matrix" values=" 0 0 0 0 0                      0 0 0 0 0                     0 0 0 0 0                      0 0 0 0.3 0"/><feOffset dx="4" dy="4" in="flouBlue" result="flouDecalage"/><feBlend in="SourceGraphic" in2="flouDecalage" mode="normal"/></filter><filter filterUnits="objectBoundingBox" height="100%" id="SaturateMinus" width="100%" x="0%" y="0%"><feColorMatrix in="SourceGraphic" type="saturate" values="0.5"/></filter><filter filterUnits="objectBoundingBox" height="100%" id="SaturatePlus" width="100%" x="0%" y="0%"><feColorMatrix in="SourceGraphic" type="saturate" values="1.4"/></filter><linearGradient id="BlackGradient"><stop offset="0%" style="stop-color:rgb(0,0,0); stop-opacity:0"/><stop offset="100%" style="stop-color:rgb(0,0,0); stop-opacity:0.1"/></linearGradient><linearGradient id="WhiteGradient" x1="0%" x2="100%" y1="0%" y2="0%"><stop offset="0%" style="stop-color:rgb(255,255,255); stop-opacity:0.3"/><stop offset="100%" style="stop-color:rgb(255,255,255);stop-opacity:0"/></linearGradient><linearGradient id="WhiteBlackGradient" x1="0%" x2="100%" y1="0%" y2="0%"><stop offset="0%" style="stop-color:rgb(255,255,255); stop-opacity:0.15"/><stop offset="100%" style="stop-color:rgb(0,0,0);stop-opacity:0.15"/></linearGradient><linearGradient id="Black0Black1Gradient" x1="0%" x2="0%" y1="0%" y2="100%"><stop offset="0%" style="stop-color:rgb(0,0,0); stop-opacity:0"/><stop offset="100%" style="stop-color:rgb(0,0,0);stop-opacity:0.05"/></linearGradient></defs><!--global stroke and font styles--><g id="ID_globals" style="fill:black;stroke:none;font-family:Arial;font-size:12px;font-weight:normal;font-style:normal;text-decoration:none;shape-rendering:crispEdges"><!--draw title--><!--draw legend--><!--draw graph background--><rect fill="rgb(168,168,168)" fill-opacity="1" height="446" id="ID_background_shadow" rx="10" ry="10" stroke="none" visibility="visible" width="1120" x="39" y="23"/><g fill="rgb(229,229,229)" id="ID_background" visibility="visible"><rect height="446" rx="10" ry="10" stroke="none" width="1120" x="38" y="22"/><rect fill="url(#Black0Black1Gradient)" height="446" rx="10" ry="10" stroke="none" width="1120" x="38" y="22"/></g><clipPath id="ID_backgroundClipPath"><rect height="447" rx="10" ry="10" width="1121" x="38" y="22"/></clipPath><!--draw Y grid lines--><!--draw Y grid lines SHADOWS--><!--draw X grid lines--><!--draw X grid lines SHADOWS --><!--draw y=0 axe--><g id="ID_y0_axis" stroke="rgb(100,100,100)" stroke-width="1" visibility="visible"><line x1="38" x2="1158" y1="259.8666666666667" y2="259.8666666666667"/></g><!--draw axis x labels--><g id="ID_x_values" style="fill:black;stroke:none;font-family:Arial;font-size:12px;font-weight:normal;font-style:normal;text-decoration:none;filter:none"><text text-anchor="middle" x="111" y="486.8">PT8H0M0S</text><text text-anchor="middle" x="251" y="486.8">PT9H0M0S</text><text text-anchor="middle" x="391" y="486.8">PT10H0M0S</text><text text-anchor="middle" x="531" y="486.8">PT11H0M0S</text><text text-anchor="middle" x="671" y="486.8">PT11H15M0S</text><text text-anchor="middle" x="811" y="486.8">PT14H45M0S</text><text text-anchor="middle" x="951" y="486.8">PT15H0M0S</text><text text-anchor="middle" x="1091" y="486.8">PT16H0M0S</text></g><!--draw axis y labels--><g id="ID_y_values" style="fill:black;stroke:none;font-family:Arial;font-size:12px;font-weight:normal;font-style:normal;text-decoration:none;filter:none"><text text-anchor="end" x="28" y="472.8">-70</text><text text-anchor="end" x="28" y="443.06666666666666">-60</text><text text-anchor="end" x="28" y="413.33333333333337">-50</text><text text-anchor="end" x="28" y="383.6">-40</text><text text-anchor="end" x="28" y="353.8666666666667">-30</text><text text-anchor="end" x="28" y="324.1333333333334">-20</text><text text-anchor="end" x="28" y="294.40000000000003">-10</text><text text-anchor="end" x="28" y="264.6666666666667">0</text><text text-anchor="end" x="28" y="234.93333333333337">10</text><text text-anchor="end" x="28" y="205.20000000000005">20</text><text text-anchor="end" x="28" y="175.4666666666667">30</text><text text-anchor="end" x="28" y="145.73333333333335">40</text><text text-anchor="end" x="28" y="116.00000000000004">50</text><text text-anchor="end" x="28" y="86.2666666666667">60</text><text text-anchor="end" x="28" y="56.533333333333346">70</text><text text-anchor="end" x="28" y="26.8">80</text></g><!--draw bars SHADOWS--><g clip-path="url(#ID_BackgroundClipPath)" filter="none" id="allGroups" shape-rendering="auto"><!--              draw bars shadows for data type 1--><g fill="black" fill-opacity="0.2" id="ID_graph_shadow_1"><rect height="2.9733333333333576" rx="0" ry="0" width="100" x="61" y="259.8666666666667"/><rect height="5.946666666666658" rx="0" ry="0" width="100" x="201" y="253.92000000000002"/><rect height="8.920000000000016" rx="0" ry="0" width="100" x="341" y="259.8666666666667"/><rect height="11.893333333333345" rx="0" ry="0" width="100" x="481" y="247.97333333333333"/><rect height="14.866666666666674" rx="0" ry="0" width="100" x="621" y="259.8666666666667"/><rect height="17.840000000000003" rx="0" ry="0" width="100" x="761" y="242.02666666666667"/><rect height="20.813333333333333" rx="0" ry="0" width="100" x="901" y="259.8666666666667"/><rect height="23.78666666666666" rx="0" ry="0" width="100" x="1041" y="236.08"/></g><!--              draw bars shadows for data type 2--><g fill="black" fill-opacity="0.2" id="ID_graph_shadow_2"><rect height="3.2706666666666706" rx="0" ry="0" width="100" x="61" y="262.84000000000003"/><rect height="6.541333333333341" rx="0" ry="0" width="100" x="201" y="247.37866666666667"/><rect height="9.812000000000012" rx="0" ry="0" width="100" x="341" y="268.78666666666663"/><rect height="13.082666666666654" rx="0" ry="0" width="100" x="481" y="234.89066666666668"/><rect height="16.353333333333353" rx="0" ry="0" width="100" x="621" y="274.73333333333335"/><rect height="19.623999999999995" rx="0" ry="0" width="100" x="761" y="222.40266666666668"/><rect height="22.894666666666694" rx="0" ry="0" width="100" x="901" y="280.67999999999995"/><rect height="26.165333333333336" rx="0" ry="0" width="100" x="1041" y="209.91466666666668"/></g><!--              draw bars shadows for data type 3--><g fill="black" fill-opacity="0.2" id="ID_graph_shadow_3"><rect height="3.5977333333333377" rx="0" ry="0" width="100" x="61" y="266.11066666666665"/><rect height="7.195466666666675" rx="0" ry="0" width="100" x="201" y="240.1832"/><rect height="10.793200000000013" rx="0" ry="0" width="100" x="341" y="278.59866666666665"/><rect height="14.390933333333322" rx="0" ry="0" width="100" x="481" y="220.49973333333335"/><rect height="17.98866666666669" rx="0" ry="0" width="100" x="621" y="291.08666666666664"/><rect height="21.586399999999998" rx="0" ry="0" width="100" x="761" y="200.81626666666668"/><rect height="25.184133333333364" rx="0" ry="0" width="100" x="901" y="303.57466666666664"/><rect height="28.781866666666673" rx="0" ry="0" width="100" x="1041" y="181.13280000000003"/></g><!--              draw bars shadows for data type 4--><g fill="black" fill-opacity="0.2" id="ID_graph_shadow_4"><rect height="3.9575066666666885" rx="0" ry="0" width="100" x="61" y="269.7084"/><rect height="7.91501333333332" rx="0" ry="0" width="100" x="201" y="232.26818666666668"/><rect height="11.872520000000009" rx="0" ry="0" width="100" x="341" y="289.39186666666666"/><rect height="15.830026666666669" rx="0" ry="0" width="100" x="481" y="204.66970666666668"/><rect height="19.78753333333333" rx="0" ry="0" width="100" x="621" y="309.07533333333333"/><rect height="23.74503999999999" rx="0" ry="0" width="100" x="761" y="177.0712266666667"/><rect height="27.70254666666665" rx="0" ry="0" width="100" x="901" y="328.7588"/><rect height="31.660053333333337" rx="0" ry="0" width="100" x="1041" y="149.4727466666667"/></g><!--              draw bars shadows for data type 5--><g fill="black" fill-opacity="0.2" id="ID_graph_shadow_5"><rect height="4.3532573333333175" rx="0" ry="0" width="100" x="61" y="273.6659066666667"/><rect height="8.706514666666664" rx="0" ry="0" width="100" x="201" y="223.56167200000002"/><rect height="13.05977200000001" rx="0" ry="0" width="100" x="341" y="301.26438666666667"/><rect height="17.413029333333327" rx="0" ry="0" width="100" x="481" y="187.25667733333336"/><rect height="21.766286666666645" rx="0" ry="0" width="100" x="621" y="328.86286666666666"/><rect height="26.11954399999999" rx="0" ry="0" width="100" x="761" y="150.95168266666667"/><rect height="30.472801333333337" rx="0" ry="0" width="100" x="901" y="356.46134666666666"/><rect height="34.826058666666654" rx="0" ry="0" width="100" x="1041" y="114.64668800000001"/></g><!--              draw bars shadows for data type 6--><g fill="black" fill-opacity="0.2" id="ID_graph_shadow_6"><rect height="4.788583066666661" rx="0" ry="0" width="100" x="61" y="278.019164"/><rect height="9.577166133333321" rx="0" ry="0" width="100" x="201" y="213.98450586666667"/><rect height="14.365749199999982" rx="0" ry="0" width="100" x="341" y="314.3241586666667"/><rect height="19.15433226666667" rx="0" ry="0" width="100" x="481" y="168.1023450666667"/><rect height="23.94291533333336" rx="0" ry="0" width="100" x="621" y="350.6291533333333"/><rect height="28.731498399999992" rx="0" ry="0" width="100" x="761" y="122.22018426666668"/><rect height="33.52008146666668" rx="0" ry="0" width="100" x="901" y="386.934148"/><rect height="38.30866453333334" rx="0" ry="0" width="100" x="1041" y="76.3380234666667"/></g><!--              draw bars shadows for data type 7--><g fill="black" fill-opacity="0.2" id="ID_graph_shadow_7"><path d="   M 61 282.8077470666667   l 100 0   l 0 0   s 0 5.267441373333327 -5.267441373333327 5.267441373333327    l -89.46511725333335 0   s -5.267441373333327 0 -5.267441373333327 -5.267441373333327   l 0 0   z"/><path d="   M 201 213.44962312   s 0 -10 10 -10   l 80 0   s 10 0 10 10   l 0 0.5348827466666535    l -100 0    l 0 -0.5348827466666535   z"/><path d="   M 341 328.68990786666666   l 100 0   l 0 5.80232411999998   s 0 10 -10 10    l -80 0   s -10 0 -10 -10   l 0 -5.80232411999998   z"/><path d="   M 481 157.03257957333335   s 0 -10 10 -10   l 80 0   s 10 0 10 10   l 0 11.069765493333335    l -100 0    l 0 -11.069765493333335   z"/><path d="   M 621 374.57206866666667   l 100 0   l 0 16.33720686666669   s 0 10 -10 10    l -80 0   s -10 0 -10 -10   l 0 -16.33720686666669   z"/><path d="   M 761 100.61553602666669   s 0 -10 10 -10   l 80 0   s 10 0 10 10   l 0 21.60464823999999    l -100 0    l 0 -21.60464823999999   z"/><path d="   M 901 420.4542294666666   l 100 0   l 0 26.872089613333344   s 0 10 -10 10    l -80 0   s -10 0 -10 -10   l 0 -26.872089613333344   z"/><path d="   M 1041 44.19849248000003   s 0 -10 10 -10   l 80 0   s 10 0 10 10   l 0 32.13953098666667    l -100 0    l 0 -32.13953098666667   z"/></g></g><!--draw bars--><g filter="none" id="allGroups" shape-rendering="auto"><!--              draw bars for data type 1--><g fill="rgb(0,178,195)" fill-opacity="1" id="ID_graph_1" stroke="black" stroke-opacity="0" stroke-width="0"><rect height="2.9733333333333576" rx="0" ry="0" width="100" x="58" y="259.8666666666667"/><rect fill="url(#WhiteBlackGradient)" height="2.9733333333333576" rx="0" ry="0" width="100" x="58" y="259.8666666666667"/><rect fill-opacity="0.3" filter="url(#SaturateMinus)" height="2.9733333333333576" rx="0" ry="0" width="100" x="58" y="259.8666666666667"/><rect height="5.946666666666658" rx="0" ry="0" width="100" x="198" y="253.92000000000002"/><rect fill="url(#WhiteBlackGradient)" height="5.946666666666658" rx="0" ry="0" width="100" x="198" y="253.92000000000002"/><rect fill-opacity="0.3" filter="url(#SaturateMinus)" height="5.946666666666658" rx="0" ry="0" width="100" x="198" y="253.92000000000002"/><rect height="8.920000000000016" rx="0" ry="0" width="100" x="338" y="259.8666666666667"/><rect fill="url(#WhiteBlackGradient)" height="8.920000000000016" rx="0" ry="0" width="100" x="338" y="259.8666666666667"/><rect fill-opacity="0.3" filter="url(#SaturateMinus)" height="8.920000000000016" rx="0" ry="0" width="100" x="338" y="259.8666666666667"/><rect height="11.893333333333345" rx="0" ry="0" width="100" x="478" y="247.97333333333333"/><rect fill="url(#WhiteBlackGradient)" height="11.893333333333345" rx="0" ry="0" width="100" x="478" y="247.97333333333333"/><rect fill-opacity="0.3" filter="url(#SaturateMinus)" height="11.893333333333345" rx="0" ry="0" width="100" x="478" y="247.97333333333333"/><rect height="14.866666666666674" rx="0" ry="0" width="100" x="618" y="259.8666666666667"/><rect fill="url(#WhiteBlackGradient)" height="14.866666666666674" rx="0" ry="0" width="100" x="618" y="259.8666666666667"/><rect fill-opacity="0.3" filter="url(#SaturateMinus)" height="14.866666666666674" rx="0" ry="0" width="100" x="618" y="259.8666666666667"/><rect height="17.840000000000003" rx="0" ry="0" width="100" x="758" y="242.02666666666667"/><rect fill="url(#WhiteBlackGradient)" height="17.840000000000003" rx="0" ry="0" width="100" x="758" y="242.02666666666667"/><rect fill-opacity="0.3" filter="url(#SaturateMinus)" height="17.840000000000003" rx="0" ry="0" width="100" x="758" y="242.02666666666667"/><rect height="20.813333333333333" rx="0" ry="0" width="100" x="898" y="259.8666666666667"/><rect fill="url(#WhiteBlackGradient)" height="20.813333333333333" rx="0" ry="0" width="100" x="898" y="259.8666666666667"/><rect fill-opacity="0.3" filter="url(#SaturateMinus)" height="20.813333333333333" rx="0" ry="0" width="100" x="898" y="259.8666666666667"/><rect height="23.78666666666666" rx="0" ry="0" width="100" x="1038" y="236.08"/><rect fill="url(#WhiteBlackGradient)" height="23.78666666666666" rx="0" ry="0" width="100" x="1038" y="236.08"/><rect fill-opacity="0.3" filter="url(#SaturateMinus)" height="23.78666666666666" rx="0" ry="0" width="100" x="1038" y="236.08"/></g><!--              draw bars for data type 2--><g fill="rgb(255,195,56)" fill-opacity="1" id="ID_graph_2" stroke="black" stroke-opacity="0" stroke-width="0"><rect height="3.2706666666666706" rx="0" ry="0" width="100" x="58" y="262.84000000000003"/><rect fill="url(#WhiteBlackGradient)" height="3.2706666666666706" rx="0" ry="0" width="100" x="58" y="262.84000000000003"/><rect fill-opacity="0.3" filter="url(#SaturateMinus)" height="3.2706666666666706" rx="0" ry="0" width="100" x="58" y="262.84000000000003"/><rect height="6.541333333333341" rx="0" ry="0" width="100" x="198" y="247.37866666666667"/><rect fill="url(#WhiteBlackGradient)" height="6.541333333333341" rx="0" ry="0" width="100" x="198" y="247.37866666666667"/><rect fill-opacity="0.3" filter="url(#SaturateMinus)" height="6.541333333333341" rx="0" ry="0" width="100" x="198" y="247.37866666666667"/><rect height="9.812000000000012" rx="0" ry="0" width="100" x="338" y="268.78666666666663"/><rect fill="url(#WhiteBlackGradient)" height="9.812000000000012" rx="0" ry="0" width="100" x="338" y="268.78666666666663"/><rect fill-opacity="0.3" filter="url(#SaturateMinus)" height="9.812000000000012" rx="0" ry="0" width="100" x="338" y="268.78666666666663"/><rect height="13.082666666666654" rx="0" ry="0" width="100" x="478" y="234.89066666666668"/><rect fill="url(#WhiteBlackGradient)" height="13.082666666666654" rx="0" ry="0" width="100" x="478" y="234.89066666666668"/><rect fill-opacity="0.3" filter="url(#SaturateMinus)" height="13.082666666666654" rx="0" ry="0" width="100" x="478" y="234.89066666666668"/><rect height="16.353333333333353" rx="0" ry="0" width="100" x="618" y="274.73333333333335"/><rect fill="url(#WhiteBlackGradient)" height="16.353333333333353" rx="0" ry="0" width="100" x="618" y="274.73333333333335"/><rect fill-opacity="0.3" filter="url(#SaturateMinus)" height="16.353333333333353" rx="0" ry="0" width="100" x="618" y="274.73333333333335"/><rect height="19.623999999999995" rx="0" ry="0" width="100" x="758" y="222.40266666666668"/><rect fill="url(#WhiteBlackGradient)" height="19.623999999999995" rx="0" ry="0" width="100" x="758" y="222.40266666666668"/><rect fill-opacity="0.3" filter="url(#SaturateMinus)" height="19.623999999999995" rx="0" ry="0" width="100" x="758" y="222.40266666666668"/><rect height="22.894666666666694" rx="0" ry="0" width="100" x="898" y="280.67999999999995"/><rect fill="url(#WhiteBlackGradient)" height="22.894666666666694" rx="0" ry="0" width="100" x="898" y="280.67999999999995"/><rect fill-opacity="0.3" filter="url(#SaturateMinus)" height="22.894666666666694" rx="0" ry="0" width="100" x="898" y="280.67999999999995"/><rect height="26.165333333333336" rx="0" ry="0" width="100" x="1038" y="209.91466666666668"/><rect fill="url(#WhiteBlackGradient)" height="26.165333333333336" rx="0" ry="0" width="100" x="1038" y="209.91466666666668"/><rect fill-opacity="0.3" filter="url(#SaturateMinus)" height="26.165333333333336" rx="0" ry="0" width="100" x="1038" y="209.91466666666668"/></g><!--              draw bars for data type 3--><g fill="rgb(87,62,130)" fill-opacity="1" id="ID_graph_3" stroke="black" stroke-opacity="0" stroke-width="0"><rect height="3.5977333333333377" rx="0" ry="0" width="100" x="58" y="266.11066666666665"/><rect fill="url(#WhiteBlackGradient)" height="3.5977333333333377" rx="0" ry="0" width="100" x="58" y="266.11066666666665"/><rect fill-opacity="0.3" filter="url(#SaturateMinus)" height="3.5977333333333377" rx="0" ry="0" width="100" x="58" y="266.11066666666665"/><rect height="7.195466666666675" rx="0" ry="0" width="100" x="198" y="240.1832"/><rect fill="url(#WhiteBlackGradient)" height="7.195466666666675" rx="0" ry="0" width="100" x="198" y="240.1832"/><rect fill-opacity="0.3" filter="url(#SaturateMinus)" height="7.195466666666675" rx="0" ry="0" width="100" x="198" y="240.1832"/><rect height="10.793200000000013" rx="0" ry="0" width="100" x="338" y="278.59866666666665"/><rect fill="url(#WhiteBlackGradient)" height="10.793200000000013" rx="0" ry="0" width="100" x="338" y="278.59866666666665"/><rect fill-opacity="0.3" filter="url(#SaturateMinus)" height="10.793200000000013" rx="0" ry="0" width="100" x="338" y="278.59866666666665"/><rect height="14.390933333333322" rx="0" ry="0" width="100" x="478" y="220.49973333333335"/><rect fill="url(#WhiteBlackGradient)" height="14.390933333333322" rx="0" ry="0" width="100" x="478" y="220.49973333333335"/><rect fill-opacity="0.3" filter="url(#SaturateMinus)" height="14.390933333333322" rx="0" ry="0" width="100" x="478" y="220.49973333333335"/><rect height="17.98866666666669" rx="0" ry="0" width="100" x="618" y="291.08666666666664"/><rect fill="url(#WhiteBlackGradient)" height="17.98866666666669" rx="0" ry="0" width="100" x="618" y="291.08666666666664"/><rect fill-opacity="0.3" filter="url(#SaturateMinus)" height="17.98866666666669" rx="0" ry="0" width="100" x="618" y="291.08666666666664"/><rect height="21.586399999999998" rx="0" ry="0" width="100" x="758" y="200.81626666666668"/><rect fill="url(#WhiteBlackGradient)" height="21.586399999999998" rx="0" ry="0" width="100" x="758" y="200.81626666666668"/><rect fill-opacity="0.3" filter="url(#SaturateMinus)" height="21.586399999999998" rx="0" ry="0" width="100" x="758" y="200.81626666666668"/><rect height="25.184133333333364" rx="0" ry="0" width="100" x="898" y="303.57466666666664"/><rect fill="url(#WhiteBlackGradient)" height="25.184133333333364" rx="0" ry="0" width="100" x="898" y="303.57466666666664"/><rect fill-opacity="0.3" filter="url(#SaturateMinus)" height="25.184133333333364" rx="0" ry="0" width="100" x="898" y="303.57466666666664"/><rect height="28.781866666666673" rx="0" ry="0" width="100" x="1038" y="181.13280000000003"/><rect fill="url(#WhiteBlackGradient)" height="28.781866666666673" rx="0" ry="0" width="100" x="1038" y="181.13280000000003"/><rect fill-opacity="0.3" filter="url(#SaturateMinus)" height="28.781866666666673" rx="0" ry="0" width="100" x="1038" y="181.13280000000003"/></g><!--              draw bars for data type 4--><g fill="rgb(79,168,57)" fill-opacity="1" id="ID_graph_4" stroke="black" stroke-opacity="0" stroke-width="0"><rect height="3.9575066666666885" rx="0" ry="0" width="100" x="58" y="269.7084"/><rect fill="url(#WhiteBlackGradient)" height="3.9575066666666885" rx="0" ry="0" width="100" x="58" y="269.7084"/><rect fill-opacity="0.3" filter="url(#SaturateMinus)" height="3.9575066666666885" rx="0" ry="0" width="100" x="58" y="269.7084"/><rect height="7.91501333333332" rx="0" ry="0" width="100" x="198" y="232.26818666666668"/><rect fill="url(#WhiteBlackGradient)" height="7.91501333333332" rx="0" ry="0" width="100" x="198" y="232.26818666666668"/><rect fill-opacity="0.3" filter="url(#SaturateMinus)" height="7.91501333333332" rx="0" ry="0" width="100" x="198" y="232.26818666666668"/><rect height="11.872520000000009" rx="0" ry="0" width="100" x="338" y="289.39186666666666"/><rect fill="url(#WhiteBlackGradient)" height="11.872520000000009" rx="0" ry="0" width="100" x="338" y="289.39186666666666"/><rect fill-opacity="0.3" filter="url(#SaturateMinus)" height="11.872520000000009" rx="0" ry="0" width="100" x="338" y="289.39186666666666"/><rect height="15.830026666666669" rx="0" ry="0" width="100" x="478" y="204.66970666666668"/><rect fill="url(#WhiteBlackGradient)" height="15.830026666666669" rx="0" ry="0" width="100" x="478" y="204.66970666666668"/><rect fill-opacity="0.3" filter="url(#SaturateMinus)" height="15.830026666666669" rx="0" ry="0" width="100" x="478" y="204.66970666666668"/><rect height="19.78753333333333" rx="0" ry="0" width="100" x="618" y="309.07533333333333"/><rect fill="url(#WhiteBlackGradient)" height="19.78753333333333" rx="0" ry="0" width="100" x="618" y="309.07533333333333"/><rect fill-opacity="0.3" filter="url(#SaturateMinus)" height="19.78753333333333" rx="0" ry="0" width="100" x="618" y="309.07533333333333"/><rect height="23.74503999999999" rx="0" ry="0" width="100" x="758" y="177.0712266666667"/><rect fill="url(#WhiteBlackGradient)" height="23.74503999999999" rx="0" ry="0" width="100" x="758" y="177.0712266666667"/><rect fill-opacity="0.3" filter="url(#SaturateMinus)" height="23.74503999999999" rx="0" ry="0" width="100" x="758" y="177.0712266666667"/><rect height="27.70254666666665" rx="0" ry="0" width="100" x="898" y="328.7588"/><rect fill="url(#WhiteBlackGradient)" height="27.70254666666665" rx="0" ry="0" width="100" x="898" y="328.7588"/><rect fill-opacity="0.3" filter="url(#SaturateMinus)" height="27.70254666666665" rx="0" ry="0" width="100" x="898" y="328.7588"/><rect height="31.660053333333337" rx="0" ry="0" width="100" x="1038" y="149.4727466666667"/><rect fill="url(#WhiteBlackGradient)" height="31.660053333333337" rx="0" ry="0" width="100" x="1038" y="149.4727466666667"/><rect fill-opacity="0.3" filter="url(#SaturateMinus)" height="31.660053333333337" rx="0" ry="0" width="100" x="1038" y="149.4727466666667"/></g><!--              draw bars for data type 5--><g fill="rgb(217,87,0)" fill-opacity="1" id="ID_graph_5" stroke="black" stroke-opacity="0" stroke-width="0"><rect height="4.3532573333333175" rx="0" ry="0" width="100" x="58" y="273.6659066666667"/><rect fill="url(#WhiteBlackGradient)" height="4.3532573333333175" rx="0" ry="0" width="100" x="58" y="273.6659066666667"/><rect fill-opacity="0.3" filter="url(#SaturateMinus)" height="4.3532573333333175" rx="0" ry="0" width="100" x="58" y="273.6659066666667"/><rect height="8.706514666666664" rx="0" ry="0" width="100" x="198" y="223.56167200000002"/><rect fill="url(#WhiteBlackGradient)" height="8.706514666666664" rx="0" ry="0" width="100" x="198" y="223.56167200000002"/><rect fill-opacity="0.3" filter="url(#SaturateMinus)" height="8.706514666666664" rx="0" ry="0" width="100" x="198" y="223.56167200000002"/><rect height="13.05977200000001" rx="0" ry="0" width="100" x="338" y="301.26438666666667"/><rect fill="url(#WhiteBlackGradient)" height="13.05977200000001" rx="0" ry="0" width="100" x="338" y="301.26438666666667"/><rect fill-opacity="0.3" filter="url(#SaturateMinus)" height="13.05977200000001" rx="0" ry="0" width="100" x="338" y="301.26438666666667"/><rect height="17.413029333333327" rx="0" ry="0" width="100" x="478" y="187.25667733333336"/><rect fill="url(#WhiteBlackGradient)" height="17.413029333333327" rx="0" ry="0" width="100" x="478" y="187.25667733333336"/><rect fill-opacity="0.3" filter="url(#SaturateMinus)" height="17.413029333333327" rx="0" ry="0" width="100" x="478" y="187.25667733333336"/><rect height="21.766286666666645" rx="0" ry="0" width="100" x="618" y="328.86286666666666"/><rect fill="url(#WhiteBlackGradient)" height="21.766286666666645" rx="0" ry="0" width="100" x="618" y="328.86286666666666"/><rect fill-opacity="0.3" filter="url(#SaturateMinus)" height="21.766286666666645" rx="0" ry="0" width="100" x="618" y="328.86286666666666"/><rect height="26.11954399999999" rx="0" ry="0" width="100" x="758" y="150.95168266666667"/><rect fill="url(#WhiteBlackGradient)" height="26.11954399999999" rx="0" ry="0" width="100" x="758" y="150.95168266666667"/><rect fill-opacity="0.3" filter="url(#SaturateMinus)" height="26.11954399999999" rx="0" ry="0" width="100" x="758" y="150.95168266666667"/><rect height="30.472801333333337" rx="0" ry="0" width="100" x="898" y="356.46134666666666"/><rect fill="url(#WhiteBlackGradient)" height="30.472801333333337" rx="0" ry="0" width="100" x="898" y="356.46134666666666"/><rect fill-opacity="0.3" filter="url(#SaturateMinus)" height="30.472801333333337" rx="0" ry="0" width="100" x="898" y="356.46134666666666"/><rect height="34.826058666666654" rx="0" ry="0" width="100" x="1038" y="114.64668800000001"/><rect fill="url(#WhiteBlackGradient)" height="34.826058666666654" rx="0" ry="0" width="100" x="1038" y="114.64668800000001"/><rect fill-opacity="0.3" filter="url(#SaturateMinus)" height="34.826058666666654" rx="0" ry="0" width="100" x="1038" y="114.64668800000001"/></g><!--              draw bars for data type 6--><g fill="rgb(29,157,242)" fill-opacity="1" id="ID_graph_6" stroke="black" stroke-opacity="0" stroke-width="0"><rect height="4.788583066666661" rx="0" ry="0" width="100" x="58" y="278.019164"/><rect fill="url(#WhiteBlackGradient)" height="4.788583066666661" rx="0" ry="0" width="100" x="58" y="278.019164"/><rect fill-opacity="0.3" filter="url(#SaturateMinus)" height="4.788583066666661" rx="0" ry="0" width="100" x="58" y="278.019164"/><rect height="9.577166133333321" rx="0" ry="0" width="100" x="198" y="213.98450586666667"/><rect fill="url(#WhiteBlackGradient)" height="9.577166133333321" rx="0" ry="0" width="100" x="198" y="213.98450586666667"/><rect fill-opacity="0.3" filter="url(#SaturateMinus)" height="9.577166133333321" rx="0" ry="0" width="100" x="198" y="213.98450586666667"/><rect height="14.365749199999982" rx="0" ry="0" width="100" x="338" y="314.3241586666667"/><rect fill="url(#WhiteBlackGradient)" height="14.365749199999982" rx="0" ry="0" width="100" x="338" y="314.3241586666667"/><rect fill-opacity="0.3" filter="url(#SaturateMinus)" height="14.365749199999982" rx="0" ry="0" width="100" x="338" y="314.3241586666667"/><rect height="19.15433226666667" rx="0" ry="0" width="100" x="478" y="168.1023450666667"/><rect fill="url(#WhiteBlackGradient)" height="19.15433226666667" rx="0" ry="0" width="100" x="478" y="168.1023450666667"/><rect fill-opacity="0.3" filter="url(#SaturateMinus)" height="19.15433226666667" rx="0" ry="0" width="100" x="478" y="168.1023450666667"/><rect height="23.94291533333336" rx="0" ry="0" width="100" x="618" y="350.6291533333333"/><rect fill="url(#WhiteBlackGradient)" height="23.94291533333336" rx="0" ry="0" width="100" x="618" y="350.6291533333333"/><rect fill-opacity="0.3" filter="url(#SaturateMinus)" height="23.94291533333336" rx="0" ry="0" width="100" x="618" y="350.6291533333333"/><rect height="28.731498399999992" rx="0" ry="0" width="100" x="758" y="122.22018426666668"/><rect fill="url(#WhiteBlackGradient)" height="28.731498399999992" rx="0" ry="0" width="100" x="758" y="122.22018426666668"/><rect fill-opacity="0.3" filter="url(#SaturateMinus)" height="28.731498399999992" rx="0" ry="0" width="100" x="758" y="122.22018426666668"/><rect height="33.52008146666668" rx="0" ry="0" width="100" x="898" y="386.934148"/><rect fill="url(#WhiteBlackGradient)" height="33.52008146666668" rx="0" ry="0" width="100" x="898" y="386.934148"/><rect fill-opacity="0.3" filter="url(#SaturateMinus)" height="33.52008146666668" rx="0" ry="0" width="100" x="898" y="386.934148"/><rect height="38.30866453333334" rx="0" ry="0" width="100" x="1038" y="76.3380234666667"/><rect fill="url(#WhiteBlackGradient)" height="38.30866453333334" rx="0" ry="0" width="100" x="1038" y="76.3380234666667"/><rect fill-opacity="0.3" filter="url(#SaturateMinus)" height="38.30866453333334" rx="0" ry="0" width="100" x="1038" y="76.3380234666667"/></g><!--              draw bars for data type 7--><g fill="rgb(181,207,50)" fill-opacity="1" id="ID_graph_7" stroke="black" stroke-opacity="0" stroke-width="0"><path d="   M 58 282.8077470666667   l 100 0   l 0 0   s 0 5.267441373333327 -5.267441373333327 5.267441373333327    l -89.46511725333335 0   s -5.267441373333327 0 -5.267441373333327 -5.267441373333327   l 0 0   z"/><path d="   M 58 282.8077470666667   l 100 0   l 0 0   s 0 5.267441373333327 -5.267441373333327 5.267441373333327    l -89.46511725333335 0   s -5.267441373333327 0 -5.267441373333327 -5.267441373333327   l 0 0   z" fill="url(#WhiteBlackGradient)"/><path d="   M 58 282.8077470666667   l 100 0   l 0 0   s 0 5.267441373333327 -5.267441373333327 5.267441373333327    l -89.46511725333335 0   s -5.267441373333327 0 -5.267441373333327 -5.267441373333327   l 0 0   z" fill-opacity="0.3" filter="url(#SaturateMinus)"/><path d="   M 198 213.44962312   s 0 -10 10 -10   l 80 0   s 10 0 10 10   l 0 0.5348827466666535    l -100 0    l 0 -0.5348827466666535   z"/><path d="   M 198 213.44962312   s 0 -10 10 -10   l 80 0   s 10 0 10 10   l 0 0.5348827466666535    l -100 0    l 0 -0.5348827466666535   z" fill="url(#WhiteBlackGradient)"/><path d="   M 198 213.44962312   s 0 -10 10 -10   l 80 0   s 10 0 10 10   l 0 0.5348827466666535    l -100 0    l 0 -0.5348827466666535   z" fill-opacity="0.3" filter="url(#SaturateMinus)"/><path d="   M 338 328.68990786666666   l 100 0   l 0 5.80232411999998   s 0 10 -10 10    l -80 0   s -10 0 -10 -10   l 0 -5.80232411999998   z"/><path d="   M 338 328.68990786666666   l 100 0   l 0 5.80232411999998   s 0 10 -10 10    l -80 0   s -10 0 -10 -10   l 0 -5.80232411999998   z" fill="url(#WhiteBlackGradient)"/><path d="   M 338 328.68990786666666   l 100 0   l 0 5.80232411999998   s 0 10 -10 10    l -80 0   s -10 0 -10 -10   l 0 -5.80232411999998   z" fill-opacity="0.3" filter="url(#SaturateMinus)"/><path d="   M 478 157.03257957333335   s 0 -10 10 -10   l 80 0   s 10 0 10 10   l 0 11.069765493333335    l -100 0    l 0 -11.069765493333335   z"/><path d="   M 478 157.03257957333335   s 0 -10 10 -10   l 80 0   s 10 0 10 10   l 0 11.069765493333335    l -100 0    l 0 -11.069765493333335   z" fill="url(#WhiteBlackGradient)"/><path d="   M 478 157.03257957333335   s 0 -10 10 -10   l 80 0   s 10 0 10 10   l 0 11.069765493333335    l -100 0    l 0 -11.069765493333335   z" fill-opacity="0.3" filter="url(#SaturateMinus)"/><path d="   M 618 374.57206866666667   l 100 0   l 0 16.33720686666669   s 0 10 -10 10    l -80 0   s -10 0 -10 -10   l 0 -16.33720686666669   z"/><path d="   M 618 374.57206866666667   l 100 0   l 0 16.33720686666669   s 0 10 -10 10    l -80 0   s -10 0 -10 -10   l 0 -16.33720686666669   z" fill="url(#WhiteBlackGradient)"/><path d="   M 618 374.57206866666667   l 100 0   l 0 16.33720686666669   s 0 10 -10 10    l -80 0   s -10 0 -10 -10   l 0 -16.33720686666669   z" fill-opacity="0.3" filter="url(#SaturateMinus)"/><path d="   M 758 100.61553602666669   s 0 -10 10 -10   l 80 0   s 10 0 10 10   l 0 21.60464823999999    l -100 0    l 0 -21.60464823999999   z"/><path d="   M 758 100.61553602666669   s 0 -10 10 -10   l 80 0   s 10 0 10 10   l 0 21.60464823999999    l -100 0    l 0 -21.60464823999999   z" fill="url(#WhiteBlackGradient)"/><path d="   M 758 100.61553602666669   s 0 -10 10 -10   l 80 0   s 10 0 10 10   l 0 21.60464823999999    l -100 0    l 0 -21.60464823999999   z" fill-opacity="0.3" filter="url(#SaturateMinus)"/><path d="   M 898 420.4542294666666   l 100 0   l 0 26.872089613333344   s 0 10 -10 10    l -80 0   s -10 0 -10 -10   l 0 -26.872089613333344   z"/><path d="   M 898 420.4542294666666   l 100 0   l 0 26.872089613333344   s 0 10 -10 10    l -80 0   s -10 0 -10 -10   l 0 -26.872089613333344   z" fill="url(#WhiteBlackGradient)"/><path d="   M 898 420.4542294666666   l 100 0   l 0 26.872089613333344   s 0 10 -10 10    l -80 0   s -10 0 -10 -10   l 0 -26.872089613333344   z" fill-opacity="0.3" filter="url(#SaturateMinus)"/><path d="   M 1038 44.19849248000003   s 0 -10 10 -10   l 80 0   s 10 0 10 10   l 0 32.13953098666667    l -100 0    l 0 -32.13953098666667   z"/><path d="   M 1038 44.19849248000003   s 0 -10 10 -10   l 80 0   s 10 0 10 10   l 0 32.13953098666667    l -100 0    l 0 -32.13953098666667   z" fill="url(#WhiteBlackGradient)"/><path d="   M 1038 44.19849248000003   s 0 -10 10 -10   l 80 0   s 10 0 10 10   l 0 32.13953098666667    l -100 0    l 0 -32.13953098666667   z" fill-opacity="0.3" filter="url(#SaturateMinus)"/></g></g></g></svg>