
<svg xmlns="http://www.w3.org/2000/svg" id="ID_svg" viewBox="0 0 1018.04 448" viewport-fill="none" viewport-fill-opacity="1" xmlns:exsl4D="http://www.4D.com" xmlns:gFunc="http://gFunc" xmlns:math="http://exslt.org/math" xmlns:xlink="http://www.w3.org/1999/xlink">

  <!--gradient styles-->

  <defs>
    <filter id="soft_blur">
      <feGaussianBlur in="SourceGraphic" result="BlurAlpha" stdDeviation="1"/>
    </filter>
    <filter id="pastel">
      <feGaussianBlur in="SourceAlpha" result="blur" stdDeviation="2"/>
      <feOffset dx="6" dy="6" in="blur" result="offsetBlur"/>
      <feComposite in="SourceGraphic" in2="offsetBlur" operator="in" result="specOut"/>
    </filter>
    <filter id="blur_shadow">
      <feGaussianBlur in="SourceAlpha" result="blur" stdDeviation="3"/>
      <feOffset dx="4" dy="2" in="blur" result="offsetBlur"/>
      <feBlend in="SourceGraphic" in2="offsetBlur" mode="normal"/>
    </filter>
    <filter filterUnits="objectBoundingBox" id="Shadow">
      <feGaussianBlur in="SourceAlpha" result="flou" stdDeviation="0"/>
      <feColorMatrix in="SourceAlpha" result="flouBlue" type="matrix" values=" 0 0 0 0 0                      0 0 0 0 0                     0 0 0 0 0                      0 0 0 0.3 0"/>
      <feOffset dx="4" dy="4" in="flouBlue" result="flouDecalage"/>
      <feBlend in="SourceGraphic" in2="flouDecalage" mode="normal"/>
    </filter>
    <filter filterUnits="objectBoundingBox" height="100%" id="SaturateMinus" width="100%" x="0%" y="0%">
      <feColorMatrix in="SourceGraphic" type="saturate" values="0.5"/>
    </filter>
    <filter filterUnits="objectBoundingBox" height="100%" id="SaturatePlus" width="100%" x="0%" y="0%">
      <feColorMatrix in="SourceGraphic" type="saturate" values="1.4"/>
    </filter>
    <linearGradient id="BlackGradient">
      <stop offset="0%" style="stop-color:rgb(0,0,0); stop-opacity:0"/>
      <stop offset="100%" style="stop-color:rgb(0,0,0); stop-opacity:0.1"/>
    </linearGradient>
    <linearGradient id="WhiteGradient" x1="0%" x2="100%" y1="0%" y2="0%">
      <stop offset="0%" style="stop-color:rgb(255,255,255); stop-opacity:0.3"/>
      <stop offset="100%" style="stop-color:rgb(255,255,255);stop-opacity:0"/>
    </linearGradient>
    <linearGradient id="WhiteBlackGradient" x1="0%" x2="100%" y1="0%" y2="0%">
      <stop offset="0%" style="stop-color:rgb(255,255,255); stop-opacity:0.15"/>
      <stop offset="100%" style="stop-color:rgb(0,0,0);stop-opacity:0.15"/>
    </linearGradient>
    <linearGradient id="Black0Black1Gradient" x1="0%" x2="0%" y1="0%" y2="100%">
      <stop offset="0%" style="stop-color:rgb(0,0,0); stop-opacity:0"/>
      <stop offset="100%" style="stop-color:rgb(0,0,0);stop-opacity:0.05"/>
    </linearGradient>
  </defs>

  <!--global stroke and font styles-->

  <g id="ID_globals" style="fill:black;stroke:none;font-family:Arial;font-size:12px;font-weight:normal;font-style:normal;text-decoration:none;shape-rendering:crispEdges">
    <!--draw title-->
    <!--********************************draw graph background********************************-->
    <rect fill="rgb(168,168,168)" height="400" id="ID_background_shadow" opacity="1" rx="10" ry="10" stroke="none" transform="translate(1,1)" visibility="visible" width="800.04" x="42" y="12"/>
    <g fill="rgb(229,229,229)" id="ID_background" opacity="1" stroke="none" visibility="visible">
      <rect height="400" rx="10" ry="10" stroke="none" width="800.04" x="42" y="12"/>
      <rect fill="url(#Black0Black1Gradient)" height="400" rx="10" ry="10" stroke="none" width="800.04" x="42" y="12"/>
    </g>
    <clipPath id="ID_backgroundClipPath">
      <rect height="401" rx="10" ry="10" width="801.04" x="41" y="11"/>
    </clipPath>
    <!--********************************draw Y Labels********************************-->
    <g id="ID_y$value" style="fill:black;stroke:none;font-family:Arial;font-size:12px;font-weight:normal;font-style:normal;text-decoration:none;filter:none" visibility="visible">
      <text text-anchor="end" x="30" y="18">14</text>
      <text text-anchor="end" x="30" y="48.77">12</text>
      <text text-anchor="end" x="30" y="79.54">10</text>
      <text text-anchor="end" x="30" y="110.31">8</text>
      <text text-anchor="end" x="30" y="141.08">6</text>
      <text text-anchor="end" x="30" y="171.85">4</text>
      <text text-anchor="end" x="30" y="202.62">2</text>
      <text text-anchor="end" x="30" y="233.39">0</text>
      <text text-anchor="end" x="30" y="264.16">-2</text>
      <text text-anchor="end" x="30" y="294.93">-4</text>
      <text text-anchor="end" x="30" y="325.7">-6</text>
      <text text-anchor="end" x="30" y="356.47">-8</text>
      <text text-anchor="end" x="30" y="387.24">-10</text>
      <text text-anchor="end" x="30" y="418.01">-12</text>
    </g>
    <!--********************************draw X Labels********************************-->
    <!--draw axis x labels-->
    <g id="ID_x$value" style="fill:black;stroke:none;font-family:Arial;font-size:12px;font-weight:normal;font-style:normal;text-decoration:none;filter:none" visibility="visible">
      <text text-anchor="middle" x="42" y="436">06:00:00</text>
      <text text-anchor="middle" x="108.67" y="436">07:00:00</text>
      <text text-anchor="middle" x="175.34" y="436">08:00:00</text>
      <text text-anchor="middle" x="242.01" y="436">09:00:00</text>
      <text text-anchor="middle" x="308.68" y="436">10:00:00</text>
      <text text-anchor="middle" x="375.35" y="436">11:00:00</text>
      <text text-anchor="middle" x="442.02" y="436">12:00:00</text>
      <text text-anchor="middle" x="508.69" y="436">13:00:00</text>
      <text text-anchor="middle" x="575.36" y="436">14:00:00</text>
      <text text-anchor="middle" x="642.03" y="436">15:00:00</text>
      <text text-anchor="middle" x="708.7" y="436">16:00:00</text>
      <text text-anchor="middle" x="775.37" y="436">17:00:00</text>
      <text text-anchor="middle" x="842.04" y="436">18:00:00</text>
    </g>
    <g style="clip-path: url(#ID_backgroundClipPath)">
      <!--******************************** draw Y grid lines******************************** (Horizontal lines)-->
      <g id="ID_y_grid" stroke="#a8a8a8" stroke-width="1">
        <line x1="42" x2="842.04" y1="42.77" y2="42.77"/>
        <line x1="42" x2="842.04" y1="73.54" y2="73.54"/>
        <line x1="42" x2="842.04" y1="104.31" y2="104.31"/>
        <line x1="42" x2="842.04" y1="135.08" y2="135.08"/>
        <line x1="42" x2="842.04" y1="165.85" y2="165.85"/>
        <line x1="42" x2="842.04" y1="196.62" y2="196.62"/>
        <line x1="42" x2="842.04" y1="227.39" y2="227.39"/>
        <line x1="42" x2="842.04" y1="258.16" y2="258.16"/>
        <line x1="42" x2="842.04" y1="288.93" y2="288.93"/>
        <line x1="42" x2="842.04" y1="319.7" y2="319.7"/>
        <line x1="42" x2="842.04" y1="350.47" y2="350.47"/>
        <line x1="42" x2="842.04" y1="381.24" y2="381.24"/>
      </g>
      <!--draw Y grid lines SHADOWS-->
      <g id="ID_y_grid_shadow" stroke="#ffffff" stroke-width="1">
        <line transform="translate(0,1)" x1="42" x2="842.04" y1="42.77" y2="42.77"/>
        <line transform="translate(0,1)" x1="42" x2="842.04" y1="73.54" y2="73.54"/>
        <line transform="translate(0,1)" x1="42" x2="842.04" y1="104.31" y2="104.31"/>
        <line transform="translate(0,1)" x1="42" x2="842.04" y1="135.08" y2="135.08"/>
        <line transform="translate(0,1)" x1="42" x2="842.04" y1="165.85" y2="165.85"/>
        <line transform="translate(0,1)" x1="42" x2="842.04" y1="196.62" y2="196.62"/>
        <line transform="translate(0,1)" x1="42" x2="842.04" y1="227.39" y2="227.39"/>
        <line transform="translate(0,1)" x1="42" x2="842.04" y1="258.16" y2="258.16"/>
        <line transform="translate(0,1)" x1="42" x2="842.04" y1="288.93" y2="288.93"/>
        <line transform="translate(0,1)" x1="42" x2="842.04" y1="319.7" y2="319.7"/>
        <line transform="translate(0,1)" x1="42" x2="842.04" y1="350.47" y2="350.47"/>
        <line transform="translate(0,1)" x1="42" x2="842.04" y1="381.24" y2="381.24"/>
      </g>
      <g id="ID_y0_axis" stroke="rgb(100,100,100)" stroke-width="1" visibility="visible">
        <line x1="42" x2="842.04" y1="227.38" y2="227.38"/>
      </g>
      <!--********************************draw X grid lines******************************** (Vertical lines)-->
      <g id="ID_x_grid" stroke="#a8a8a8" stroke-width="1">
        <line x1="108.67" x2="108.67" y1="12" y2="412"/>
        <line x1="175.34" x2="175.34" y1="12" y2="412"/>
        <line x1="242.01" x2="242.01" y1="12" y2="412"/>
        <line x1="308.68" x2="308.68" y1="12" y2="412"/>
        <line x1="375.35" x2="375.35" y1="12" y2="412"/>
        <line x1="442.02" x2="442.02" y1="12" y2="412"/>
        <line x1="508.69" x2="508.69" y1="12" y2="412"/>
        <line x1="575.36" x2="575.36" y1="12" y2="412"/>
        <line x1="642.03" x2="642.03" y1="12" y2="412"/>
        <line x1="708.7" x2="708.7" y1="12" y2="412"/>
        <line x1="775.37" x2="775.37" y1="12" y2="412"/>
      </g>
      <!--draw X grid lines SHADOWS -->
      <g id="ID_x_grid_shadow" stroke="#ffffff" stroke-width="1">
        <line transform="translate(1,0)" x1="108.67" x2="108.67" y1="12" y2="412"/>
        <line transform="translate(1,0)" x1="175.34" x2="175.34" y1="12" y2="412"/>
        <line transform="translate(1,0)" x1="242.01" x2="242.01" y1="12" y2="412"/>
        <line transform="translate(1,0)" x1="308.68" x2="308.68" y1="12" y2="412"/>
        <line transform="translate(1,0)" x1="375.35" x2="375.35" y1="12" y2="412"/>
        <line transform="translate(1,0)" x1="442.02" x2="442.02" y1="12" y2="412"/>
        <line transform="translate(1,0)" x1="508.69" x2="508.69" y1="12" y2="412"/>
        <line transform="translate(1,0)" x1="575.36" x2="575.36" y1="12" y2="412"/>
        <line transform="translate(1,0)" x1="642.03" x2="642.03" y1="12" y2="412"/>
        <line transform="translate(1,0)" x1="708.7" x2="708.7" y1="12" y2="412"/>
        <line transform="translate(1,0)" x1="775.37" x2="775.37" y1="12" y2="412"/>
      </g>
    </g>
    <!--******************************** draw legend ***********************************-->
    <g filter="none" id="ID_legend" transform="translate(854.04,12)" visibility="visible">
      <!--draw legend border-->
      <rect fill="rgb(168,168,168)" fill-opacity="1" height="160" id="ID_legend_border_shadow" rx="10" ry="10" stroke="none" transform="translate(1,1)" width="152" x="0" y="0"/>
      <rect fill="rgb(229,229,229)" fill-opacity="1" height="160" id="ID_legend_border" rx="10" ry="10" stroke="none" stroke-width="0" width="152" x="0" y="0"/>
      <!--draw legend bullets-->
      <g id="ID_legend_bullets" stroke="none">
        <g fill="rgb(0,178,195)" id="ID_legend_1">
          <rect height="20" rx="3" ry="3" width="20" x="10" y="10"/>
          <rect fill="url(#WhiteBlackGradient)" height="20" rx="3" ry="3" width="20" x="10" y="10"/>
          <rect fill-opacity="0.3" filter="url(#SaturateMinus)" height="20" rx="3" ry="3" width="20" x="10" y="10"/>
        </g>
        <g fill="rgb(255,195,56)" id="ID_legend_2">
          <rect height="20" rx="3" ry="3" width="20" x="10" y="40"/>
          <rect fill="url(#WhiteBlackGradient)" height="20" rx="3" ry="3" width="20" x="10" y="40"/>
          <rect fill-opacity="0.3" filter="url(#SaturateMinus)" height="20" rx="3" ry="3" width="20" x="10" y="40"/>
        </g>
        <g fill="rgb(87,62,130)" id="ID_legend_3">
          <rect height="20" rx="3" ry="3" width="20" x="10" y="70"/>
          <rect fill="url(#WhiteBlackGradient)" height="20" rx="3" ry="3" width="20" x="10" y="70"/>
          <rect fill-opacity="0.3" filter="url(#SaturateMinus)" height="20" rx="3" ry="3" width="20" x="10" y="70"/>
        </g>
        <g fill="rgb(79,168,57)" id="ID_legend_4">
          <rect height="20" rx="3" ry="3" width="20" x="10" y="100"/>
          <rect fill="url(#WhiteBlackGradient)" height="20" rx="3" ry="3" width="20" x="10" y="100"/>
          <rect fill-opacity="0.3" filter="url(#SaturateMinus)" height="20" rx="3" ry="3" width="20" x="10" y="100"/>
        </g>
        <g fill="rgb(217,87,0)" id="ID_legend_5">
          <rect height="20" rx="3" ry="3" width="20" x="10" y="130"/>
          <rect fill="url(#WhiteBlackGradient)" height="20" rx="3" ry="3" width="20" x="10" y="130"/>
          <rect fill-opacity="0.3" filter="url(#SaturateMinus)" height="20" rx="3" ry="3" width="20" x="10" y="130"/>
        </g>
      </g>
      <!--draw legend labels-->
      <g id="ID_legend_labels" style="fill:black;stroke:none;font-family:Arial;;font-weight:normal;font-style:normal;text-decoration:none;filter:none;text-anchor:start">
        <text x="40" y="27">Sharp</text>
        <text x="40" y="57">Infinity</text>
        <text x="40" y="87">Audio Référence</text>
        <text x="40" y="117">Triangle</text>
        <text x="40" y="147">Yamaha</text>
      </g>
    </g>
    <g style="clip-path: url(#ID_backgroundClipPath)">
      <g filter="none" stroke-opacity="1" stroke-width="2">
        <g id="ID_graph_1" stroke="rgb(0,178,195)">
          <line fill-opacity="1" x1="175.34" x2="242.01" y1="242.76" y2="196.61"/>
          <line fill-opacity="1" x1="242.01" x2="308.68" y1="196.61" y2="273.53"/>
          <line fill-opacity="1" x1="308.68" x2="375.35" y1="273.53" y2="165.84"/>
          <line fill-opacity="1" x1="375.35" x2="392.02" y1="165.84" y2="304.3"/>
          <line fill-opacity="1" x1="392.02" x2="625.36" y1="304.3" y2="135.07"/>
          <line fill-opacity="1" x1="625.36" x2="642.03" y1="135.07" y2="335.07"/>
          <line fill-opacity="1" x1="642.03" x2="708.7" y1="335.07" y2="104.3"/>
        </g>
        <g id="ID_graph_2" stroke="rgb(255,195,56)">
          <line fill-opacity="1" x1="175.34" x2="242.01" y1="244.3" y2="193.53"/>
          <line fill-opacity="1" x1="242.01" x2="308.68" y1="193.53" y2="278.15"/>
          <line fill-opacity="1" x1="308.68" x2="375.35" y1="278.15" y2="159.69"/>
          <line fill-opacity="1" x1="375.35" x2="392.02" y1="159.69" y2="312"/>
          <line fill-opacity="1" x1="392.02" x2="625.36" y1="312" y2="125.84"/>
          <line fill-opacity="1" x1="625.36" x2="642.03" y1="125.84" y2="345.84"/>
          <line fill-opacity="1" x1="642.03" x2="708.7" y1="345.84" y2="92"/>
        </g>
        <g id="ID_graph_3" stroke="rgb(87,62,130)">
          <line fill-opacity="1" x1="175.34" x2="242.01" y1="246" y2="190.15"/>
          <line fill-opacity="1" x1="242.01" x2="308.68" y1="190.15" y2="283.23"/>
          <line fill-opacity="1" x1="308.68" x2="375.35" y1="283.23" y2="152.92"/>
          <line fill-opacity="1" x1="375.35" x2="392.02" y1="152.92" y2="320.46"/>
          <line fill-opacity="1" x1="392.02" x2="625.36" y1="320.46" y2="115.69"/>
          <line fill-opacity="1" x1="625.36" x2="642.03" y1="115.69" y2="357.69"/>
          <line fill-opacity="1" x1="642.03" x2="708.7" y1="357.69" y2="78.46"/>
        </g>
        <g id="ID_graph_4" stroke="rgb(79,168,57)">
          <line fill-opacity="1" x1="175.34" x2="242.01" y1="247.86" y2="186.43"/>
          <line fill-opacity="1" x1="242.01" x2="308.68" y1="186.43" y2="288.81"/>
          <line fill-opacity="1" x1="308.68" x2="375.35" y1="288.81" y2="145.47"/>
          <line fill-opacity="1" x1="375.35" x2="392.02" y1="145.47" y2="329.76"/>
          <line fill-opacity="1" x1="392.02" x2="625.36" y1="329.76" y2="104.52"/>
          <line fill-opacity="1" x1="625.36" x2="642.03" y1="104.52" y2="370.72"/>
          <line fill-opacity="1" x1="642.03" x2="708.7" y1="370.72" y2="63.56"/>
        </g>
        <g id="ID_graph_5" stroke="rgb(217,87,0)">
          <line fill-opacity="1" x1="175.34" x2="242.01" y1="249.9" y2="182.33"/>
          <line fill-opacity="1" x1="242.01" x2="308.68" y1="182.33" y2="294.95"/>
          <line fill-opacity="1" x1="308.68" x2="375.35" y1="294.95" y2="137.28"/>
          <line fill-opacity="1" x1="375.35" x2="392.02" y1="137.28" y2="340"/>
          <line fill-opacity="1" x1="392.02" x2="625.36" y1="340" y2="92.23"/>
          <line fill-opacity="1" x1="625.36" x2="642.03" y1="92.23" y2="385.05"/>
          <line fill-opacity="1" x1="642.03" x2="708.7" y1="385.05" y2="47.18"/>
        </g>
      </g>
      <g filter="none" opacity="1" stroke="none" stroke-opacity="1" stroke-width="0">
        <g fill="rgb(0,178,195)" id="ID_graph_1">
          <g transform="translate(169.34,236.76)">
            <rect fill-opacity="1" height="12" rx="2" ry="2" width="12" x="0" y="0"/>
            <rect fill="url(#WhiteGradient)" height="12" rx="2" ry="2" width="12" x="0" y="0"/>
            <rect fill-opacity="0.4" filter="url(#SaturateMinus)" height="12" rx="2" ry="2" width="12" x="0" y="0"/>
            <rect fill="url(#BlackGradient)" height="12" rx="2" ry="2" width="12" x="0" y="0"/>
          </g>
          <g transform="translate(236.01,190.61)">
            <rect fill-opacity="1" height="12" rx="2" ry="2" width="12" x="0" y="0"/>
            <rect fill="url(#WhiteGradient)" height="12" rx="2" ry="2" width="12" x="0" y="0"/>
            <rect fill-opacity="0.4" filter="url(#SaturateMinus)" height="12" rx="2" ry="2" width="12" x="0" y="0"/>
            <rect fill="url(#BlackGradient)" height="12" rx="2" ry="2" width="12" x="0" y="0"/>
          </g>
          <g transform="translate(302.68,267.53)">
            <rect fill-opacity="1" height="12" rx="2" ry="2" width="12" x="0" y="0"/>
            <rect fill="url(#WhiteGradient)" height="12" rx="2" ry="2" width="12" x="0" y="0"/>
            <rect fill-opacity="0.4" filter="url(#SaturateMinus)" height="12" rx="2" ry="2" width="12" x="0" y="0"/>
            <rect fill="url(#BlackGradient)" height="12" rx="2" ry="2" width="12" x="0" y="0"/>
          </g>
          <g transform="translate(369.35,159.84)">
            <rect fill-opacity="1" height="12" rx="2" ry="2" width="12" x="0" y="0"/>
            <rect fill="url(#WhiteGradient)" height="12" rx="2" ry="2" width="12" x="0" y="0"/>
            <rect fill-opacity="0.4" filter="url(#SaturateMinus)" height="12" rx="2" ry="2" width="12" x="0" y="0"/>
            <rect fill="url(#BlackGradient)" height="12" rx="2" ry="2" width="12" x="0" y="0"/>
          </g>
          <g transform="translate(386.02,298.3)">
            <rect fill-opacity="1" height="12" rx="2" ry="2" width="12" x="0" y="0"/>
            <rect fill="url(#WhiteGradient)" height="12" rx="2" ry="2" width="12" x="0" y="0"/>
            <rect fill-opacity="0.4" filter="url(#SaturateMinus)" height="12" rx="2" ry="2" width="12" x="0" y="0"/>
            <rect fill="url(#BlackGradient)" height="12" rx="2" ry="2" width="12" x="0" y="0"/>
          </g>
          <g transform="translate(619.36,129.07)">
            <rect fill-opacity="1" height="12" rx="2" ry="2" width="12" x="0" y="0"/>
            <rect fill="url(#WhiteGradient)" height="12" rx="2" ry="2" width="12" x="0" y="0"/>
            <rect fill-opacity="0.4" filter="url(#SaturateMinus)" height="12" rx="2" ry="2" width="12" x="0" y="0"/>
            <rect fill="url(#BlackGradient)" height="12" rx="2" ry="2" width="12" x="0" y="0"/>
          </g>
          <g transform="translate(636.03,329.07)">
            <rect fill-opacity="1" height="12" rx="2" ry="2" width="12" x="0" y="0"/>
            <rect fill="url(#WhiteGradient)" height="12" rx="2" ry="2" width="12" x="0" y="0"/>
            <rect fill-opacity="0.4" filter="url(#SaturateMinus)" height="12" rx="2" ry="2" width="12" x="0" y="0"/>
            <rect fill="url(#BlackGradient)" height="12" rx="2" ry="2" width="12" x="0" y="0"/>
          </g>
          <g transform="translate(702.7,98.3)">
            <rect fill-opacity="1" height="12" rx="2" ry="2" width="12" x="0" y="0"/>
            <rect fill="url(#WhiteGradient)" height="12" rx="2" ry="2" width="12" x="0" y="0"/>
            <rect fill-opacity="0.4" filter="url(#SaturateMinus)" height="12" rx="2" ry="2" width="12" x="0" y="0"/>
            <rect fill="url(#BlackGradient)" height="12" rx="2" ry="2" width="12" x="0" y="0"/>
          </g>
        </g>
        <g fill="rgb(255,195,56)" id="ID_graph_2">
          <g transform="translate(169.34,238.3)">
            <rect fill-opacity="1" height="12" rx="2" ry="2" width="12" x="0" y="0"/>
            <rect fill="url(#WhiteGradient)" height="12" rx="2" ry="2" width="12" x="0" y="0"/>
            <rect fill-opacity="0.4" filter="url(#SaturateMinus)" height="12" rx="2" ry="2" width="12" x="0" y="0"/>
            <rect fill="url(#BlackGradient)" height="12" rx="2" ry="2" width="12" x="0" y="0"/>
          </g>
          <g transform="translate(236.01,187.53)">
            <rect fill-opacity="1" height="12" rx="2" ry="2" width="12" x="0" y="0"/>
            <rect fill="url(#WhiteGradient)" height="12" rx="2" ry="2" width="12" x="0" y="0"/>
            <rect fill-opacity="0.4" filter="url(#SaturateMinus)" height="12" rx="2" ry="2" width="12" x="0" y="0"/>
            <rect fill="url(#BlackGradient)" height="12" rx="2" ry="2" width="12" x="0" y="0"/>
          </g>
          <g transform="translate(302.68,272.15)">
            <rect fill-opacity="1" height="12" rx="2" ry="2" width="12" x="0" y="0"/>
            <rect fill="url(#WhiteGradient)" height="12" rx="2" ry="2" width="12" x="0" y="0"/>
            <rect fill-opacity="0.4" filter="url(#SaturateMinus)" height="12" rx="2" ry="2" width="12" x="0" y="0"/>
            <rect fill="url(#BlackGradient)" height="12" rx="2" ry="2" width="12" x="0" y="0"/>
          </g>
          <g transform="translate(369.35,153.69)">
            <rect fill-opacity="1" height="12" rx="2" ry="2" width="12" x="0" y="0"/>
            <rect fill="url(#WhiteGradient)" height="12" rx="2" ry="2" width="12" x="0" y="0"/>
            <rect fill-opacity="0.4" filter="url(#SaturateMinus)" height="12" rx="2" ry="2" width="12" x="0" y="0"/>
            <rect fill="url(#BlackGradient)" height="12" rx="2" ry="2" width="12" x="0" y="0"/>
          </g>
          <g transform="translate(386.02,306)">
            <rect fill-opacity="1" height="12" rx="2" ry="2" width="12" x="0" y="0"/>
            <rect fill="url(#WhiteGradient)" height="12" rx="2" ry="2" width="12" x="0" y="0"/>
            <rect fill-opacity="0.4" filter="url(#SaturateMinus)" height="12" rx="2" ry="2" width="12" x="0" y="0"/>
            <rect fill="url(#BlackGradient)" height="12" rx="2" ry="2" width="12" x="0" y="0"/>
          </g>
          <g transform="translate(619.36,119.84)">
            <rect fill-opacity="1" height="12" rx="2" ry="2" width="12" x="0" y="0"/>
            <rect fill="url(#WhiteGradient)" height="12" rx="2" ry="2" width="12" x="0" y="0"/>
            <rect fill-opacity="0.4" filter="url(#SaturateMinus)" height="12" rx="2" ry="2" width="12" x="0" y="0"/>
            <rect fill="url(#BlackGradient)" height="12" rx="2" ry="2" width="12" x="0" y="0"/>
          </g>
          <g transform="translate(636.03,339.84)">
            <rect fill-opacity="1" height="12" rx="2" ry="2" width="12" x="0" y="0"/>
            <rect fill="url(#WhiteGradient)" height="12" rx="2" ry="2" width="12" x="0" y="0"/>
            <rect fill-opacity="0.4" filter="url(#SaturateMinus)" height="12" rx="2" ry="2" width="12" x="0" y="0"/>
            <rect fill="url(#BlackGradient)" height="12" rx="2" ry="2" width="12" x="0" y="0"/>
          </g>
          <g transform="translate(702.7,86)">
            <rect fill-opacity="1" height="12" rx="2" ry="2" width="12" x="0" y="0"/>
            <rect fill="url(#WhiteGradient)" height="12" rx="2" ry="2" width="12" x="0" y="0"/>
            <rect fill-opacity="0.4" filter="url(#SaturateMinus)" height="12" rx="2" ry="2" width="12" x="0" y="0"/>
            <rect fill="url(#BlackGradient)" height="12" rx="2" ry="2" width="12" x="0" y="0"/>
          </g>
        </g>
        <g fill="rgb(87,62,130)" id="ID_graph_3">
          <g transform="translate(169.34,240)">
            <rect fill-opacity="1" height="12" rx="2" ry="2" width="12" x="0" y="0"/>
            <rect fill="url(#WhiteGradient)" height="12" rx="2" ry="2" width="12" x="0" y="0"/>
            <rect fill-opacity="0.4" filter="url(#SaturateMinus)" height="12" rx="2" ry="2" width="12" x="0" y="0"/>
            <rect fill="url(#BlackGradient)" height="12" rx="2" ry="2" width="12" x="0" y="0"/>
          </g>
          <g transform="translate(236.01,184.15)">
            <rect fill-opacity="1" height="12" rx="2" ry="2" width="12" x="0" y="0"/>
            <rect fill="url(#WhiteGradient)" height="12" rx="2" ry="2" width="12" x="0" y="0"/>
            <rect fill-opacity="0.4" filter="url(#SaturateMinus)" height="12" rx="2" ry="2" width="12" x="0" y="0"/>
            <rect fill="url(#BlackGradient)" height="12" rx="2" ry="2" width="12" x="0" y="0"/>
          </g>
          <g transform="translate(302.68,277.23)">
            <rect fill-opacity="1" height="12" rx="2" ry="2" width="12" x="0" y="0"/>
            <rect fill="url(#WhiteGradient)" height="12" rx="2" ry="2" width="12" x="0" y="0"/>
            <rect fill-opacity="0.4" filter="url(#SaturateMinus)" height="12" rx="2" ry="2" width="12" x="0" y="0"/>
            <rect fill="url(#BlackGradient)" height="12" rx="2" ry="2" width="12" x="0" y="0"/>
          </g>
          <g transform="translate(369.35,146.92)">
            <rect fill-opacity="1" height="12" rx="2" ry="2" width="12" x="0" y="0"/>
            <rect fill="url(#WhiteGradient)" height="12" rx="2" ry="2" width="12" x="0" y="0"/>
            <rect fill-opacity="0.4" filter="url(#SaturateMinus)" height="12" rx="2" ry="2" width="12" x="0" y="0"/>
            <rect fill="url(#BlackGradient)" height="12" rx="2" ry="2" width="12" x="0" y="0"/>
          </g>
          <g transform="translate(386.02,314.46)">
            <rect fill-opacity="1" height="12" rx="2" ry="2" width="12" x="0" y="0"/>
            <rect fill="url(#WhiteGradient)" height="12" rx="2" ry="2" width="12" x="0" y="0"/>
            <rect fill-opacity="0.4" filter="url(#SaturateMinus)" height="12" rx="2" ry="2" width="12" x="0" y="0"/>
            <rect fill="url(#BlackGradient)" height="12" rx="2" ry="2" width="12" x="0" y="0"/>
          </g>
          <g transform="translate(619.36,109.69)">
            <rect fill-opacity="1" height="12" rx="2" ry="2" width="12" x="0" y="0"/>
            <rect fill="url(#WhiteGradient)" height="12" rx="2" ry="2" width="12" x="0" y="0"/>
            <rect fill-opacity="0.4" filter="url(#SaturateMinus)" height="12" rx="2" ry="2" width="12" x="0" y="0"/>
            <rect fill="url(#BlackGradient)" height="12" rx="2" ry="2" width="12" x="0" y="0"/>
          </g>
          <g transform="translate(636.03,351.69)">
            <rect fill-opacity="1" height="12" rx="2" ry="2" width="12" x="0" y="0"/>
            <rect fill="url(#WhiteGradient)" height="12" rx="2" ry="2" width="12" x="0" y="0"/>
            <rect fill-opacity="0.4" filter="url(#SaturateMinus)" height="12" rx="2" ry="2" width="12" x="0" y="0"/>
            <rect fill="url(#BlackGradient)" height="12" rx="2" ry="2" width="12" x="0" y="0"/>
          </g>
          <g transform="translate(702.7,72.46)">
            <rect fill-opacity="1" height="12" rx="2" ry="2" width="12" x="0" y="0"/>
            <rect fill="url(#WhiteGradient)" height="12" rx="2" ry="2" width="12" x="0" y="0"/>
            <rect fill-opacity="0.4" filter="url(#SaturateMinus)" height="12" rx="2" ry="2" width="12" x="0" y="0"/>
            <rect fill="url(#BlackGradient)" height="12" rx="2" ry="2" width="12" x="0" y="0"/>
          </g>
        </g>
        <g fill="rgb(79,168,57)" id="ID_graph_4">
          <g transform="translate(169.34,241.86)">
            <rect fill-opacity="1" height="12" rx="2" ry="2" width="12" x="0" y="0"/>
            <rect fill="url(#WhiteGradient)" height="12" rx="2" ry="2" width="12" x="0" y="0"/>
            <rect fill-opacity="0.4" filter="url(#SaturateMinus)" height="12" rx="2" ry="2" width="12" x="0" y="0"/>
            <rect fill="url(#BlackGradient)" height="12" rx="2" ry="2" width="12" x="0" y="0"/>
          </g>
          <g transform="translate(236.01,180.43)">
            <rect fill-opacity="1" height="12" rx="2" ry="2" width="12" x="0" y="0"/>
            <rect fill="url(#WhiteGradient)" height="12" rx="2" ry="2" width="12" x="0" y="0"/>
            <rect fill-opacity="0.4" filter="url(#SaturateMinus)" height="12" rx="2" ry="2" width="12" x="0" y="0"/>
            <rect fill="url(#BlackGradient)" height="12" rx="2" ry="2" width="12" x="0" y="0"/>
          </g>
          <g transform="translate(302.68,282.81)">
            <rect fill-opacity="1" height="12" rx="2" ry="2" width="12" x="0" y="0"/>
            <rect fill="url(#WhiteGradient)" height="12" rx="2" ry="2" width="12" x="0" y="0"/>
            <rect fill-opacity="0.4" filter="url(#SaturateMinus)" height="12" rx="2" ry="2" width="12" x="0" y="0"/>
            <rect fill="url(#BlackGradient)" height="12" rx="2" ry="2" width="12" x="0" y="0"/>
          </g>
          <g transform="translate(369.35,139.47)">
            <rect fill-opacity="1" height="12" rx="2" ry="2" width="12" x="0" y="0"/>
            <rect fill="url(#WhiteGradient)" height="12" rx="2" ry="2" width="12" x="0" y="0"/>
            <rect fill-opacity="0.4" filter="url(#SaturateMinus)" height="12" rx="2" ry="2" width="12" x="0" y="0"/>
            <rect fill="url(#BlackGradient)" height="12" rx="2" ry="2" width="12" x="0" y="0"/>
          </g>
          <g transform="translate(386.02,323.76)">
            <rect fill-opacity="1" height="12" rx="2" ry="2" width="12" x="0" y="0"/>
            <rect fill="url(#WhiteGradient)" height="12" rx="2" ry="2" width="12" x="0" y="0"/>
            <rect fill-opacity="0.4" filter="url(#SaturateMinus)" height="12" rx="2" ry="2" width="12" x="0" y="0"/>
            <rect fill="url(#BlackGradient)" height="12" rx="2" ry="2" width="12" x="0" y="0"/>
          </g>
          <g transform="translate(619.36,98.52)">
            <rect fill-opacity="1" height="12" rx="2" ry="2" width="12" x="0" y="0"/>
            <rect fill="url(#WhiteGradient)" height="12" rx="2" ry="2" width="12" x="0" y="0"/>
            <rect fill-opacity="0.4" filter="url(#SaturateMinus)" height="12" rx="2" ry="2" width="12" x="0" y="0"/>
            <rect fill="url(#BlackGradient)" height="12" rx="2" ry="2" width="12" x="0" y="0"/>
          </g>
          <g transform="translate(636.03,364.72)">
            <rect fill-opacity="1" height="12" rx="2" ry="2" width="12" x="0" y="0"/>
            <rect fill="url(#WhiteGradient)" height="12" rx="2" ry="2" width="12" x="0" y="0"/>
            <rect fill-opacity="0.4" filter="url(#SaturateMinus)" height="12" rx="2" ry="2" width="12" x="0" y="0"/>
            <rect fill="url(#BlackGradient)" height="12" rx="2" ry="2" width="12" x="0" y="0"/>
          </g>
          <g transform="translate(702.7,57.56)">
            <rect fill-opacity="1" height="12" rx="2" ry="2" width="12" x="0" y="0"/>
            <rect fill="url(#WhiteGradient)" height="12" rx="2" ry="2" width="12" x="0" y="0"/>
            <rect fill-opacity="0.4" filter="url(#SaturateMinus)" height="12" rx="2" ry="2" width="12" x="0" y="0"/>
            <rect fill="url(#BlackGradient)" height="12" rx="2" ry="2" width="12" x="0" y="0"/>
          </g>
        </g>
        <g fill="rgb(217,87,0)" id="ID_graph_5">
          <g transform="translate(169.34,243.9)">
            <rect fill-opacity="1" height="12" rx="2" ry="2" width="12" x="0" y="0"/>
            <rect fill="url(#WhiteGradient)" height="12" rx="2" ry="2" width="12" x="0" y="0"/>
            <rect fill-opacity="0.4" filter="url(#SaturateMinus)" height="12" rx="2" ry="2" width="12" x="0" y="0"/>
            <rect fill="url(#BlackGradient)" height="12" rx="2" ry="2" width="12" x="0" y="0"/>
          </g>
          <g transform="translate(236.01,176.33)">
            <rect fill-opacity="1" height="12" rx="2" ry="2" width="12" x="0" y="0"/>
            <rect fill="url(#WhiteGradient)" height="12" rx="2" ry="2" width="12" x="0" y="0"/>
            <rect fill-opacity="0.4" filter="url(#SaturateMinus)" height="12" rx="2" ry="2" width="12" x="0" y="0"/>
            <rect fill="url(#BlackGradient)" height="12" rx="2" ry="2" width="12" x="0" y="0"/>
          </g>
          <g transform="translate(302.68,288.95)">
            <rect fill-opacity="1" height="12" rx="2" ry="2" width="12" x="0" y="0"/>
            <rect fill="url(#WhiteGradient)" height="12" rx="2" ry="2" width="12" x="0" y="0"/>
            <rect fill-opacity="0.4" filter="url(#SaturateMinus)" height="12" rx="2" ry="2" width="12" x="0" y="0"/>
            <rect fill="url(#BlackGradient)" height="12" rx="2" ry="2" width="12" x="0" y="0"/>
          </g>
          <g transform="translate(369.35,131.28)">
            <rect fill-opacity="1" height="12" rx="2" ry="2" width="12" x="0" y="0"/>
            <rect fill="url(#WhiteGradient)" height="12" rx="2" ry="2" width="12" x="0" y="0"/>
            <rect fill-opacity="0.4" filter="url(#SaturateMinus)" height="12" rx="2" ry="2" width="12" x="0" y="0"/>
            <rect fill="url(#BlackGradient)" height="12" rx="2" ry="2" width="12" x="0" y="0"/>
          </g>
          <g transform="translate(386.02,334)">
            <rect fill-opacity="1" height="12" rx="2" ry="2" width="12" x="0" y="0"/>
            <rect fill="url(#WhiteGradient)" height="12" rx="2" ry="2" width="12" x="0" y="0"/>
            <rect fill-opacity="0.4" filter="url(#SaturateMinus)" height="12" rx="2" ry="2" width="12" x="0" y="0"/>
            <rect fill="url(#BlackGradient)" height="12" rx="2" ry="2" width="12" x="0" y="0"/>
          </g>
          <g transform="translate(619.36,86.23)">
            <rect fill-opacity="1" height="12" rx="2" ry="2" width="12" x="0" y="0"/>
            <rect fill="url(#WhiteGradient)" height="12" rx="2" ry="2" width="12" x="0" y="0"/>
            <rect fill-opacity="0.4" filter="url(#SaturateMinus)" height="12" rx="2" ry="2" width="12" x="0" y="0"/>
            <rect fill="url(#BlackGradient)" height="12" rx="2" ry="2" width="12" x="0" y="0"/>
          </g>
          <g transform="translate(636.03,379.05)">
            <rect fill-opacity="1" height="12" rx="2" ry="2" width="12" x="0" y="0"/>
            <rect fill="url(#WhiteGradient)" height="12" rx="2" ry="2" width="12" x="0" y="0"/>
            <rect fill-opacity="0.4" filter="url(#SaturateMinus)" height="12" rx="2" ry="2" width="12" x="0" y="0"/>
            <rect fill="url(#BlackGradient)" height="12" rx="2" ry="2" width="12" x="0" y="0"/>
          </g>
          <g transform="translate(702.7,41.18)">
            <rect fill-opacity="1" height="12" rx="2" ry="2" width="12" x="0" y="0"/>
            <rect fill="url(#WhiteGradient)" height="12" rx="2" ry="2" width="12" x="0" y="0"/>
            <rect fill-opacity="0.4" filter="url(#SaturateMinus)" height="12" rx="2" ry="2" width="12" x="0" y="0"/>
            <rect fill="url(#BlackGradient)" height="12" rx="2" ry="2" width="12" x="0" y="0"/>
          </g>
        </g>
      </g>
    </g>
  </g>

</svg>