<?xml version="1.0" encoding="UTF-8" standalone="no" ?><svg xmlns="http://www.w3.org/2000/svg" id="ID_svg" viewBox="0 0 1168 500" viewport-fill="white" viewport-fill-opacity="0" xmlns:exsl4D="http://www.4D.com" xmlns:math="http://exslt.org/math" xmlns:xlink="http://www.w3.org/1999/xlink"><!--gradient styles--><defs><filter id="soft_blur"><feGaussianBlur in="SourceGraphic" result="BlurAlpha" stdDeviation="1"/></filter><filter id="pastel"><feGaussianBlur in="SourceAlpha" result="blur" stdDeviation="2"/><feOffset dx="6" dy="6" in="blur" result="offsetBlur"/><feComposite in="SourceGraphic" in2="offsetBlur" operator="in" result="specOut"/></filter><filter id="blur_shadow"><feGaussianBlur in="SourceAlpha" result="blur" stdDeviation="3"/><feOffset dx="4" dy="2" in="blur" result="offsetBlur"/><feBlend in="SourceGraphic" in2="offsetBlur" mode="normal"/></filter><filter filterUnits="objectBoundingBox" id="Shadow"><feGaussianBlur in="SourceAlpha" result="flou" stdDeviation="0"/><feColorMatrix in="SourceAlpha" result="flouBlue" type="matrix" values=" 0 0 0 0 0                      0 0 0 0 0                     0 0 0 0 0                      0 0 0 0.3 0"/><feOffset dx="4" dy="4" in="flouBlue" result="flouDecalage"/><feBlend in="SourceGraphic" in2="flouDecalage" mode="normal"/></filter><filter filterUnits="objectBoundingBox" height="100%" id="SaturateMinus" width="100%" x="0%" y="0%"><feColorMatrix in="SourceGraphic" type="saturate" values="0.5"/></filter><filter filterUnits="objectBoundingBox" height="100%" id="SaturatePlus" width="100%" x="0%" y="0%"><feColorMatrix in="SourceGraphic" type="saturate" values="1.4"/></filter><linearGradient id="BlackGradient"><stop offset="0%" style="stop-color:rgb(0,0,0); stop-opacity:0"/><stop offset="100%" style="stop-color:rgb(0,0,0); stop-opacity:0.1"/></linearGradient><linearGradient id="WhiteGradient" x1="0%" x2="100%" y1="0%" y2="0%"><stop offset="0%" style="stop-color:rgb(255,255,255); stop-opacity:0.3"/><stop offset="100%" style="stop-color:rgb(255,255,255);stop-opacity:0"/></linearGradient><linearGradient id="WhiteBlackGradient" x1="0%" x2="100%" y1="0%" y2="0%"><stop offset="0%" style="stop-color:rgb(255,255,255); stop-opacity:0.15"/><stop offset="100%" style="stop-color:rgb(0,0,0);stop-opacity:0.15"/></linearGradient><linearGradient id="Black0Black1Gradient" x1="0%" x2="0%" y1="0%" y2="100%"><stop offset="0%" style="stop-color:rgb(0,0,0); stop-opacity:0"/><stop offset="100%" style="stop-color:rgb(0,0,0);stop-opacity:0.05"/></linearGradient><clipPath id="ID_graph_clip"><rect height="446" width="1120" x="38" y="22"/></clipPath></defs><!--global stroke and font styles--><g id="ID_globals" style="fill:black;stroke:none;font-family:Arial;font-size:12px;font-weight:normal;font-style:normal;text-decoration:none;shape-rendering:crispEdges"><!--draw title--><!--draw legend--><!--draw graph background--><rect fill="rgb(168,168,168)" fill-opacity="1" height="446" id="ID_background_shadow" rx="10" ry="10" stroke="none" visibility="visible" width="1120" x="39" y="23"/><g fill="rgb(229,229,229)" id="ID_background" visibility="visible"><rect height="446" rx="10" ry="10" stroke="none" width="1120" x="38" y="22"/><rect fill="url(#Black0Black1Gradient)" height="446" rx="10" ry="10" stroke="none" width="1120" x="38" y="22"/></g><clipPath id="ID_backgroundClipPath"><rect height="447" rx="10" ry="10" width="1121" x="38" y="22"/></clipPath><!--draw Y grid lines--><!--draw Y grid lines SHADOWS--><!--draw X grid lines--><!--draw X grid lines SHADOWS --><!--draw y=0 axe--><g id="ID_y0_axis" stroke="rgb(100,100,100)" stroke-width="1" visibility="visible"><line x1="38" x2="1158" y1="245" y2="245"/></g><!--draw axis x labels--><g id="ID_x_values" style="fill:black;stroke:none;font-family:Arial;font-size:12px;font-weight:normal;font-style:normal;text-decoration:none;filter:none"><text text-anchor="middle" x="111" y="486.8">PT8H0M0S</text><text text-anchor="middle" x="251" y="486.8">PT9H0M0S</text><text text-anchor="middle" x="391" y="486.8">PT10H0M0S</text><text text-anchor="middle" x="531" y="486.8">PT11H0M0S</text><text text-anchor="middle" x="671" y="486.8">PT11H15M0S</text><text text-anchor="middle" x="811" y="486.8">PT14H45M0S</text><text text-anchor="middle" x="951" y="486.8">PT15H0M0S</text><text text-anchor="middle" x="1091" y="486.8">PT16H0M0S</text></g><!--draw axis y labels--><g id="ID_y_values" style="fill:black;stroke:none;font-family:Arial;font-size:12px;font-weight:normal;font-style:normal;text-decoration:none;filter:none"><text text-anchor="end" x="28" y="472.8">-10</text><text text-anchor="end" x="28" y="428.2">-8</text><text text-anchor="end" x="28" y="383.6">-6</text><text text-anchor="end" x="28" y="339">-4</text><text text-anchor="end" x="28" y="294.40000000000003">-2</text><text text-anchor="end" x="28" y="249.8">0</text><text text-anchor="end" x="28" y="205.2">2</text><text text-anchor="end" x="28" y="160.60000000000002">4</text><text text-anchor="end" x="28" y="115.99999999999999">6</text><text text-anchor="end" x="28" y="71.39999999999996">8</text><text text-anchor="end" x="28" y="26.8">10</text></g><!--draw lines and bullets--><g filter="none" id="allGroups"><!--draw bullet for data type 1--><g fill="rgb(0,178,195)" fill-opacity="1" id="ID_graph_1" stroke="black" stroke-opacity="0" stroke-width="0"><circle cx="108" cy="267.3" fill-opacity="1" r="8"/><circle cx="108" cy="267.3" fill="url(#WhiteGradient)" r="8"/><circle cx="108" cy="267.3" fill-opacity="0.4" filter="url(#SaturateMinus)" r="8"/><circle cx="108" cy="267.3" fill="url(#BlackGradient)" r="8"/><circle cx="248" cy="200.4" fill-opacity="1" r="8"/><circle cx="248" cy="200.4" fill="url(#WhiteGradient)" r="8"/><circle cx="248" cy="200.4" fill-opacity="0.4" filter="url(#SaturateMinus)" r="8"/><circle cx="248" cy="200.4" fill="url(#BlackGradient)" r="8"/><circle cx="388" cy="311.9" fill-opacity="1" r="8"/><circle cx="388" cy="311.9" fill="url(#WhiteGradient)" r="8"/><circle cx="388" cy="311.9" fill-opacity="0.4" filter="url(#SaturateMinus)" r="8"/><circle cx="388" cy="311.9" fill="url(#BlackGradient)" r="8"/><circle cx="528" cy="155.8" fill-opacity="1" r="8"/><circle cx="528" cy="155.8" fill="url(#WhiteGradient)" r="8"/><circle cx="528" cy="155.8" fill-opacity="0.4" filter="url(#SaturateMinus)" r="8"/><circle cx="528" cy="155.8" fill="url(#BlackGradient)" r="8"/><circle cx="668" cy="356.5" fill-opacity="1" r="8"/><circle cx="668" cy="356.5" fill="url(#WhiteGradient)" r="8"/><circle cx="668" cy="356.5" fill-opacity="0.4" filter="url(#SaturateMinus)" r="8"/><circle cx="668" cy="356.5" fill="url(#BlackGradient)" r="8"/><circle cx="808" cy="111.19999999999999" fill-opacity="1" r="8"/><circle cx="808" cy="111.19999999999999" fill="url(#WhiteGradient)" r="8"/><circle cx="808" cy="111.19999999999999" fill-opacity="0.4" filter="url(#SaturateMinus)" r="8"/><circle cx="808" cy="111.19999999999999" fill="url(#BlackGradient)" r="8"/><circle cx="948" cy="401.1" fill-opacity="1" r="8"/><circle cx="948" cy="401.1" fill="url(#WhiteGradient)" r="8"/><circle cx="948" cy="401.1" fill-opacity="0.4" filter="url(#SaturateMinus)" r="8"/><circle cx="948" cy="401.1" fill="url(#BlackGradient)" r="8"/><circle cx="1088" cy="66.6" fill-opacity="1" r="8"/><circle cx="1088" cy="66.6" fill="url(#WhiteGradient)" r="8"/><circle cx="1088" cy="66.6" fill-opacity="0.4" filter="url(#SaturateMinus)" r="8"/><circle cx="1088" cy="66.6" fill="url(#BlackGradient)" r="8"/></g><!--draw bullet for data type 2--><g fill="rgb(255,195,56)" fill-opacity="1" id="ID_graph_2" stroke="black" stroke-opacity="0" stroke-width="0"><circle cx="108" cy="269.53" fill-opacity="1" r="8"/><circle cx="108" cy="269.53" fill="url(#WhiteGradient)" r="8"/><circle cx="108" cy="269.53" fill-opacity="0.4" filter="url(#SaturateMinus)" r="8"/><circle cx="108" cy="269.53" fill="url(#BlackGradient)" r="8"/><circle cx="248" cy="195.94" fill-opacity="1" r="8"/><circle cx="248" cy="195.94" fill="url(#WhiteGradient)" r="8"/><circle cx="248" cy="195.94" fill-opacity="0.4" filter="url(#SaturateMinus)" r="8"/><circle cx="248" cy="195.94" fill="url(#BlackGradient)" r="8"/><circle cx="388" cy="318.59000000000003" fill-opacity="1" r="8"/><circle cx="388" cy="318.59000000000003" fill="url(#WhiteGradient)" r="8"/><circle cx="388" cy="318.59000000000003" fill-opacity="0.4" filter="url(#SaturateMinus)" r="8"/><circle cx="388" cy="318.59000000000003" fill="url(#BlackGradient)" r="8"/><circle cx="528" cy="146.88" fill-opacity="1" r="8"/><circle cx="528" cy="146.88" fill="url(#WhiteGradient)" r="8"/><circle cx="528" cy="146.88" fill-opacity="0.4" filter="url(#SaturateMinus)" r="8"/><circle cx="528" cy="146.88" fill="url(#BlackGradient)" r="8"/><circle cx="668" cy="367.65" fill-opacity="1" r="8"/><circle cx="668" cy="367.65" fill="url(#WhiteGradient)" r="8"/><circle cx="668" cy="367.65" fill-opacity="0.4" filter="url(#SaturateMinus)" r="8"/><circle cx="668" cy="367.65" fill="url(#BlackGradient)" r="8"/><circle cx="808" cy="97.82" fill-opacity="1" r="8"/><circle cx="808" cy="97.82" fill="url(#WhiteGradient)" r="8"/><circle cx="808" cy="97.82" fill-opacity="0.4" filter="url(#SaturateMinus)" r="8"/><circle cx="808" cy="97.82" fill="url(#BlackGradient)" r="8"/><circle cx="948" cy="416.71000000000004" fill-opacity="1" r="8"/><circle cx="948" cy="416.71000000000004" fill="url(#WhiteGradient)" r="8"/><circle cx="948" cy="416.71000000000004" fill-opacity="0.4" filter="url(#SaturateMinus)" r="8"/><circle cx="948" cy="416.71000000000004" fill="url(#BlackGradient)" r="8"/><circle cx="1088" cy="48.75999999999999" fill-opacity="1" r="8"/><circle cx="1088" cy="48.75999999999999" fill="url(#WhiteGradient)" r="8"/><circle cx="1088" cy="48.75999999999999" fill-opacity="0.4" filter="url(#SaturateMinus)" r="8"/><circle cx="1088" cy="48.75999999999999" fill="url(#BlackGradient)" r="8"/></g><!--draw bullet for data type 3--><g fill="rgb(87,62,130)" fill-opacity="1" id="ID_graph_3" stroke="black" stroke-opacity="0" stroke-width="0"><circle cx="108" cy="271.983" fill-opacity="1" r="8"/><circle cx="108" cy="271.983" fill="url(#WhiteGradient)" r="8"/><circle cx="108" cy="271.983" fill-opacity="0.4" filter="url(#SaturateMinus)" r="8"/><circle cx="108" cy="271.983" fill="url(#BlackGradient)" r="8"/><circle cx="248" cy="191.034" fill-opacity="1" r="8"/><circle cx="248" cy="191.034" fill="url(#WhiteGradient)" r="8"/><circle cx="248" cy="191.034" fill-opacity="0.4" filter="url(#SaturateMinus)" r="8"/><circle cx="248" cy="191.034" fill="url(#BlackGradient)" r="8"/><circle cx="388" cy="325.949" fill-opacity="1" r="8"/><circle cx="388" cy="325.949" fill="url(#WhiteGradient)" r="8"/><circle cx="388" cy="325.949" fill-opacity="0.4" filter="url(#SaturateMinus)" r="8"/><circle cx="388" cy="325.949" fill="url(#BlackGradient)" r="8"/><circle cx="528" cy="137.06799999999998" fill-opacity="1" r="8"/><circle cx="528" cy="137.06799999999998" fill="url(#WhiteGradient)" r="8"/><circle cx="528" cy="137.06799999999998" fill-opacity="0.4" filter="url(#SaturateMinus)" r="8"/><circle cx="528" cy="137.06799999999998" fill="url(#BlackGradient)" r="8"/><circle cx="668" cy="379.91499999999996" fill-opacity="1" r="8"/><circle cx="668" cy="379.91499999999996" fill="url(#WhiteGradient)" r="8"/><circle cx="668" cy="379.91499999999996" fill-opacity="0.4" filter="url(#SaturateMinus)" r="8"/><circle cx="668" cy="379.91499999999996" fill="url(#BlackGradient)" r="8"/><circle cx="808" cy="83.102" fill-opacity="1" r="8"/><circle cx="808" cy="83.102" fill="url(#WhiteGradient)" r="8"/><circle cx="808" cy="83.102" fill-opacity="0.4" filter="url(#SaturateMinus)" r="8"/><circle cx="808" cy="83.102" fill="url(#BlackGradient)" r="8"/><circle cx="948" cy="433.88100000000003" fill-opacity="1" r="8"/><circle cx="948" cy="433.88100000000003" fill="url(#WhiteGradient)" r="8"/><circle cx="948" cy="433.88100000000003" fill-opacity="0.4" filter="url(#SaturateMinus)" r="8"/><circle cx="948" cy="433.88100000000003" fill="url(#BlackGradient)" r="8"/><circle cx="1088" cy="29.135999999999996" fill-opacity="1" r="8"/><circle cx="1088" cy="29.135999999999996" fill="url(#WhiteGradient)" r="8"/><circle cx="1088" cy="29.135999999999996" fill-opacity="0.4" filter="url(#SaturateMinus)" r="8"/><circle cx="1088" cy="29.135999999999996" fill="url(#BlackGradient)" r="8"/></g></g></g></svg>