<?xml version="1.0" encoding="UTF-8" standalone="no" ?><svg xmlns="http://www.w3.org/2000/svg" id="ID_svg" viewBox="0 0 1984 500" viewport-fill="white" viewport-fill-opacity="0" xmlns:exsl4D="http://www.4D.com" xmlns:gFunc="http://gFunc" xmlns:math="http://exslt.org/math" xmlns:xlink="http://www.w3.org/1999/xlink"><!--gradient styles--><defs><filter id="soft_blur"><feGaussianBlur in="SourceGraphic" result="BlurAlpha" stdDeviation="1"/></filter><filter id="pastel"><feGaussianBlur in="SourceAlpha" result="blur" stdDeviation="2"/><feOffset dx="6" dy="6" in="blur" result="offsetBlur"/><feComposite in="SourceGraphic" in2="offsetBlur" operator="in" result="specOut"/></filter><filter id="blur_shadow"><feGaussianBlur in="SourceAlpha" result="blur" stdDeviation="3"/><feOffset dx="4" dy="2" in="blur" result="offsetBlur"/><feBlend in="SourceGraphic" in2="offsetBlur" mode="normal"/></filter><filter filterUnits="objectBoundingBox" id="Shadow"><feGaussianBlur in="SourceAlpha" result="flou" stdDeviation="0"/><feColorMatrix in="SourceAlpha" result="flouBlue" type="matrix" values=" 0 0 0 0 0                      0 0 0 0 0                     0 0 0 0 0                      0 0 0 0.3 0"/><feOffset dx="4" dy="4" in="flouBlue" result="flouDecalage"/><feBlend in="SourceGraphic" in2="flouDecalage" mode="normal"/></filter><filter filterUnits="objectBoundingBox" height="100%" id="SaturateMinus" width="100%" x="0%" y="0%"><feColorMatrix in="SourceGraphic" type="saturate" values="0.5"/></filter><filter filterUnits="objectBoundingBox" height="100%" id="SaturatePlus" width="100%" x="0%" y="0%"><feColorMatrix in="SourceGraphic" type="saturate" values="1.4"/></filter><linearGradient id="BlackGradient"><stop offset="0%" style="stop-color:rgb(0,0,0); stop-opacity:0"/><stop offset="100%" style="stop-color:rgb(0,0,0); stop-opacity:0.1"/></linearGradient><linearGradient id="WhiteGradient" x1="0%" x2="100%" y1="0%" y2="0%"><stop offset="0%" style="stop-color:rgb(255,255,255); stop-opacity:0.3"/><stop offset="100%" style="stop-color:rgb(255,255,255);stop-opacity:0"/></linearGradient><linearGradient id="WhiteBlackGradient" x1="0%" x2="100%" y1="0%" y2="0%"><stop offset="0%" style="stop-color:rgb(255,255,255); stop-opacity:0.15"/><stop offset="100%" style="stop-color:rgb(0,0,0);stop-opacity:0.15"/></linearGradient><linearGradient id="Black0Black1Gradient" x1="0%" x2="0%" y1="0%" y2="100%"><stop offset="0%" style="stop-color:rgb(0,0,0); stop-opacity:0"/><stop offset="100%" style="stop-color:rgb(0,0,0);stop-opacity:0.05"/></linearGradient></defs><!--global stroke and font styles--><g id="ID_globals" style="fill:black;stroke:none;font-family:Arial;font-size:12px;font-weight:normal;font-style:normal;text-decoration:none;shape-rendering:crispEdges"><!--draw title--><!--draw legend--><!--draw graph background--><rect fill="rgb(168,168,168)" fill-opacity="1" height="440" id="ID_background_shadow" rx="10" ry="10" stroke="none" visibility="visible" width="1936" x="37" y="25"/><g fill="rgb(229,229,229)" id="ID_background" visibility="visible"><rect height="440" rx="10" ry="10" stroke="none" width="1936" x="36" y="24"/><rect fill="url(#Black0Black1Gradient)" height="440" rx="10" ry="10" stroke="none" width="1936" x="36" y="24"/></g><clipPath id="ID_backgroundClipPath"><rect height="441" rx="10" ry="10" width="1937" x="36" y="24"/></clipPath><!--draw Y grid lines--><!--draw Y grid lines SHADOWS--><!--draw X grid lines--><!--draw X grid lines SHADOWS --><!--draw y=0 axe--><g id="ID_y0_axis" stroke="rgb(100,100,100)" stroke-width="1" visibility="visible"><line x1="36" x2="1972" y1="256.94117647058823" y2="256.94117647058823"/></g><!--draw axis x labels--><g id="ID_x_values" style="fill:black;stroke:none;font-family:Arial;font-size:12px;font-weight:normal;font-style:normal;text-decoration:none;filter:none" visibility="visible"><text text-anchor="middle" x="160" y="484.8">PT8H0M0S</text><text text-anchor="middle" x="402" y="484.8">PT9H0M0S</text><text text-anchor="middle" x="644" y="484.8">PT10H0M0S</text><text text-anchor="middle" x="886" y="484.8">PT11H0M0S</text><text text-anchor="middle" x="1128" y="484.8">PT11H15M0S</text><text text-anchor="middle" x="1370" y="484.8">PT14H45M0S</text><text text-anchor="middle" x="1612" y="484.8">PT15H0M0S</text><text text-anchor="middle" x="1854" y="484.8">PT16H0M0S</text></g><!--draw axis y labels--><g id="ID_y_values" style="fill:black;stroke:none;font-family:Arial;font-size:12px;font-weight:normal;font-style:normal;text-decoration:none;filter:none" visibility="visible"><text text-anchor="end" x="24" y="468.8">-8</text><text text-anchor="end" x="24" y="442.91764705882355">-7</text><text text-anchor="end" x="24" y="417.0352941176471">-6</text><text text-anchor="end" x="24" y="391.1529411764706">-5</text><text text-anchor="end" x="24" y="365.27058823529416">-4</text><text text-anchor="end" x="24" y="339.3882352941177">-3</text><text text-anchor="end" x="24" y="313.50588235294117">-2</text><text text-anchor="end" x="24" y="287.6235294117647">-1</text><text text-anchor="end" x="24" y="261.74117647058824">0</text><text text-anchor="end" x="24" y="235.85882352941178">1</text><text text-anchor="end" x="24" y="209.97647058823532">2</text><text text-anchor="end" x="24" y="184.09411764705885">3</text><text text-anchor="end" x="24" y="158.21176470588233">4</text><text text-anchor="end" x="24" y="132.32941176470587">5</text><text text-anchor="end" x="24" y="106.44705882352939">6</text><text text-anchor="end" x="24" y="80.56470588235292">7</text><text text-anchor="end" x="24" y="54.68235294117646">8</text><text text-anchor="end" x="24" y="28.8">9</text></g><!--draw bars SHADOWS--><g clip-path="url(#ID_BackgroundClipPath)"><!--              draw bars for data type 1--><g fill="black" fill-opacity="0.2" id="ID_graph_shadow_1"><path d="   M 62.5 256.94117647058823   l 80 0   l 0 19.88235294117647   s 0 6 -6 6    l -68 0   s -6 0 -6 -6   l 0 -19.88235294117647   z"/><path d="   M 304.5 211.1764705882353   s 0 -6 6 -6   l 68 0   s 6 0 6 6   l 0 45.76470588235294    l -80 0    l 0 -45.76470588235294   z"/><path d="   M 546.5 256.94117647058823   l 80 0   l 0 71.64705882352942   s 0 6 -6 6    l -68 0   s -6 0 -6 -6   l 0 -71.64705882352942   z"/><path d="   M 788.5 159.41176470588235   s 0 -6 6 -6   l 68 0   s 6 0 6 6   l 0 97.52941176470588    l -80 0    l 0 -97.52941176470588   z"/><path d="   M 1030.5 256.94117647058823   l 80 0   l 0 123.41176470588235   s 0 6 -6 6    l -68 0   s -6 0 -6 -6   l 0 -123.41176470588235   z"/><path d="   M 1272.5 107.64705882352939   s 0 -6 6 -6   l 68 0   s 6 0 6 6   l 0 149.29411764705884    l -80 0    l 0 -149.29411764705884   z"/><path d="   M 1514.5 256.94117647058823   l 80 0   l 0 175.1764705882353   s 0 6 -6 6    l -68 0   s -6 0 -6 -6   l 0 -175.1764705882353   z"/><path d="   M 1756.5 55.882352941176464   s 0 -6 6 -6   l 68 0   s 6 0 6 6   l 0 201.05882352941177    l -80 0    l 0 -201.05882352941177   z"/></g><!--              draw bars for data type 2--><g fill="black" fill-opacity="0.2" id="ID_graph_shadow_2"><path d="   M 177.5 256.94117647058823   l 80 0   l 0 22.47058823529412   s 0 6 -6 6    l -68 0   s -6 0 -6 -6   l 0 -22.47058823529412   z"/><path d="   M 419.5 206   s 0 -6 6 -6   l 68 0   s 6 0 6 6   l 0 50.94117647058824    l -80 0    l 0 -50.94117647058824   z"/><path d="   M 661.5 256.94117647058823   l 80 0   l 0 79.41176470588235   s 0 6 -6 6    l -68 0   s -6 0 -6 -6   l 0 -79.41176470588235   z"/><path d="   M 903.5 149.05882352941177   s 0 -6 6 -6   l 68 0   s 6 0 6 6   l 0 107.88235294117648    l -80 0    l 0 -107.88235294117648   z"/><path d="   M 1145.5 256.94117647058823   l 80 0   l 0 136.35294117647058   s 0 6 -6 6    l -68 0   s -6 0 -6 -6   l 0 -136.35294117647058   z"/><path d="   M 1387.5 92.11764705882354   s 0 -6 6 -6   l 68 0   s 6 0 6 6   l 0 164.8235294117647    l -80 0    l 0 -164.8235294117647   z"/><path d="   M 1629.5 256.94117647058823   l 80 0   l 0 193.29411764705884   s 0 6 -6 6    l -68 0   s -6 0 -6 -6   l 0 -193.29411764705884   z"/><path d="   M 1871.5 35.176470588235276   s 0 -6 6 -6   l 68 0   s 6 0 6 6   l 0 221.76470588235296    l -80 0    l 0 -221.76470588235296   z"/></g></g><!--draw BARS--><!--            draw bars for data type 1--><g fill="rgb(0,178,195)" filter="none" id="ID_graph_1" opacity="1" stroke="none" stroke-opacity="1" stroke-width="0"><path d="   M 59.5 256.94117647058823   l 80 0   l 0 19.88235294117647   s 0 6 -6 6    l -68 0   s -6 0 -6 -6   l 0 -19.88235294117647   z"/><path d="   M 59.5 256.94117647058823   l 80 0   l 0 19.88235294117647   s 0 6 -6 6    l -68 0   s -6 0 -6 -6   l 0 -19.88235294117647   z" fill="url(#WhiteBlackGradient)"/><path d="   M 59.5 256.94117647058823   l 80 0   l 0 19.88235294117647   s 0 6 -6 6    l -68 0   s -6 0 -6 -6   l 0 -19.88235294117647   z" fill-opacity="0.3" filter="url(#SaturateMinus)"/><path d="   M 301.5 211.1764705882353   s 0 -6 6 -6   l 68 0   s 6 0 6 6   l 0 45.76470588235294    l -80 0    l 0 -45.76470588235294   z"/><path d="   M 301.5 211.1764705882353   s 0 -6 6 -6   l 68 0   s 6 0 6 6   l 0 45.76470588235294    l -80 0    l 0 -45.76470588235294   z" fill="url(#WhiteBlackGradient)"/><path d="   M 301.5 211.1764705882353   s 0 -6 6 -6   l 68 0   s 6 0 6 6   l 0 45.76470588235294    l -80 0    l 0 -45.76470588235294   z" fill-opacity="0.3" filter="url(#SaturateMinus)"/><path d="   M 543.5 256.94117647058823   l 80 0   l 0 71.64705882352942   s 0 6 -6 6    l -68 0   s -6 0 -6 -6   l 0 -71.64705882352942   z"/><path d="   M 543.5 256.94117647058823   l 80 0   l 0 71.64705882352942   s 0 6 -6 6    l -68 0   s -6 0 -6 -6   l 0 -71.64705882352942   z" fill="url(#WhiteBlackGradient)"/><path d="   M 543.5 256.94117647058823   l 80 0   l 0 71.64705882352942   s 0 6 -6 6    l -68 0   s -6 0 -6 -6   l 0 -71.64705882352942   z" fill-opacity="0.3" filter="url(#SaturateMinus)"/><path d="   M 785.5 159.41176470588235   s 0 -6 6 -6   l 68 0   s 6 0 6 6   l 0 97.52941176470588    l -80 0    l 0 -97.52941176470588   z"/><path d="   M 785.5 159.41176470588235   s 0 -6 6 -6   l 68 0   s 6 0 6 6   l 0 97.52941176470588    l -80 0    l 0 -97.52941176470588   z" fill="url(#WhiteBlackGradient)"/><path d="   M 785.5 159.41176470588235   s 0 -6 6 -6   l 68 0   s 6 0 6 6   l 0 97.52941176470588    l -80 0    l 0 -97.52941176470588   z" fill-opacity="0.3" filter="url(#SaturateMinus)"/><path d="   M 1027.5 256.94117647058823   l 80 0   l 0 123.41176470588235   s 0 6 -6 6    l -68 0   s -6 0 -6 -6   l 0 -123.41176470588235   z"/><path d="   M 1027.5 256.94117647058823   l 80 0   l 0 123.41176470588235   s 0 6 -6 6    l -68 0   s -6 0 -6 -6   l 0 -123.41176470588235   z" fill="url(#WhiteBlackGradient)"/><path d="   M 1027.5 256.94117647058823   l 80 0   l 0 123.41176470588235   s 0 6 -6 6    l -68 0   s -6 0 -6 -6   l 0 -123.41176470588235   z" fill-opacity="0.3" filter="url(#SaturateMinus)"/><path d="   M 1269.5 107.64705882352939   s 0 -6 6 -6   l 68 0   s 6 0 6 6   l 0 149.29411764705884    l -80 0    l 0 -149.29411764705884   z"/><path d="   M 1269.5 107.64705882352939   s 0 -6 6 -6   l 68 0   s 6 0 6 6   l 0 149.29411764705884    l -80 0    l 0 -149.29411764705884   z" fill="url(#WhiteBlackGradient)"/><path d="   M 1269.5 107.64705882352939   s 0 -6 6 -6   l 68 0   s 6 0 6 6   l 0 149.29411764705884    l -80 0    l 0 -149.29411764705884   z" fill-opacity="0.3" filter="url(#SaturateMinus)"/><path d="   M 1511.5 256.94117647058823   l 80 0   l 0 175.1764705882353   s 0 6 -6 6    l -68 0   s -6 0 -6 -6   l 0 -175.1764705882353   z"/><path d="   M 1511.5 256.94117647058823   l 80 0   l 0 175.1764705882353   s 0 6 -6 6    l -68 0   s -6 0 -6 -6   l 0 -175.1764705882353   z" fill="url(#WhiteBlackGradient)"/><path d="   M 1511.5 256.94117647058823   l 80 0   l 0 175.1764705882353   s 0 6 -6 6    l -68 0   s -6 0 -6 -6   l 0 -175.1764705882353   z" fill-opacity="0.3" filter="url(#SaturateMinus)"/><path d="   M 1753.5 55.882352941176464   s 0 -6 6 -6   l 68 0   s 6 0 6 6   l 0 201.05882352941177    l -80 0    l 0 -201.05882352941177   z"/><path d="   M 1753.5 55.882352941176464   s 0 -6 6 -6   l 68 0   s 6 0 6 6   l 0 201.05882352941177    l -80 0    l 0 -201.05882352941177   z" fill="url(#WhiteBlackGradient)"/><path d="   M 1753.5 55.882352941176464   s 0 -6 6 -6   l 68 0   s 6 0 6 6   l 0 201.05882352941177    l -80 0    l 0 -201.05882352941177   z" fill-opacity="0.3" filter="url(#SaturateMinus)"/></g><!--            draw bars for data type 2--><g fill="rgb(255,195,56)" filter="none" id="ID_graph_2" opacity="1" stroke="none" stroke-opacity="1" stroke-width="0"><path d="   M 174.5 256.94117647058823   l 80 0   l 0 22.47058823529412   s 0 6 -6 6    l -68 0   s -6 0 -6 -6   l 0 -22.47058823529412   z"/><path d="   M 174.5 256.94117647058823   l 80 0   l 0 22.47058823529412   s 0 6 -6 6    l -68 0   s -6 0 -6 -6   l 0 -22.47058823529412   z" fill="url(#WhiteBlackGradient)"/><path d="   M 174.5 256.94117647058823   l 80 0   l 0 22.47058823529412   s 0 6 -6 6    l -68 0   s -6 0 -6 -6   l 0 -22.47058823529412   z" fill-opacity="0.3" filter="url(#SaturateMinus)"/><path d="   M 416.5 206   s 0 -6 6 -6   l 68 0   s 6 0 6 6   l 0 50.94117647058824    l -80 0    l 0 -50.94117647058824   z"/><path d="   M 416.5 206   s 0 -6 6 -6   l 68 0   s 6 0 6 6   l 0 50.94117647058824    l -80 0    l 0 -50.94117647058824   z" fill="url(#WhiteBlackGradient)"/><path d="   M 416.5 206   s 0 -6 6 -6   l 68 0   s 6 0 6 6   l 0 50.94117647058824    l -80 0    l 0 -50.94117647058824   z" fill-opacity="0.3" filter="url(#SaturateMinus)"/><path d="   M 658.5 256.94117647058823   l 80 0   l 0 79.41176470588235   s 0 6 -6 6    l -68 0   s -6 0 -6 -6   l 0 -79.41176470588235   z"/><path d="   M 658.5 256.94117647058823   l 80 0   l 0 79.41176470588235   s 0 6 -6 6    l -68 0   s -6 0 -6 -6   l 0 -79.41176470588235   z" fill="url(#WhiteBlackGradient)"/><path d="   M 658.5 256.94117647058823   l 80 0   l 0 79.41176470588235   s 0 6 -6 6    l -68 0   s -6 0 -6 -6   l 0 -79.41176470588235   z" fill-opacity="0.3" filter="url(#SaturateMinus)"/><path d="   M 900.5 149.05882352941177   s 0 -6 6 -6   l 68 0   s 6 0 6 6   l 0 107.88235294117648    l -80 0    l 0 -107.88235294117648   z"/><path d="   M 900.5 149.05882352941177   s 0 -6 6 -6   l 68 0   s 6 0 6 6   l 0 107.88235294117648    l -80 0    l 0 -107.88235294117648   z" fill="url(#WhiteBlackGradient)"/><path d="   M 900.5 149.05882352941177   s 0 -6 6 -6   l 68 0   s 6 0 6 6   l 0 107.88235294117648    l -80 0    l 0 -107.88235294117648   z" fill-opacity="0.3" filter="url(#SaturateMinus)"/><path d="   M 1142.5 256.94117647058823   l 80 0   l 0 136.35294117647058   s 0 6 -6 6    l -68 0   s -6 0 -6 -6   l 0 -136.35294117647058   z"/><path d="   M 1142.5 256.94117647058823   l 80 0   l 0 136.35294117647058   s 0 6 -6 6    l -68 0   s -6 0 -6 -6   l 0 -136.35294117647058   z" fill="url(#WhiteBlackGradient)"/><path d="   M 1142.5 256.94117647058823   l 80 0   l 0 136.35294117647058   s 0 6 -6 6    l -68 0   s -6 0 -6 -6   l 0 -136.35294117647058   z" fill-opacity="0.3" filter="url(#SaturateMinus)"/><path d="   M 1384.5 92.11764705882354   s 0 -6 6 -6   l 68 0   s 6 0 6 6   l 0 164.8235294117647    l -80 0    l 0 -164.8235294117647   z"/><path d="   M 1384.5 92.11764705882354   s 0 -6 6 -6   l 68 0   s 6 0 6 6   l 0 164.8235294117647    l -80 0    l 0 -164.8235294117647   z" fill="url(#WhiteBlackGradient)"/><path d="   M 1384.5 92.11764705882354   s 0 -6 6 -6   l 68 0   s 6 0 6 6   l 0 164.8235294117647    l -80 0    l 0 -164.8235294117647   z" fill-opacity="0.3" filter="url(#SaturateMinus)"/><path d="   M 1626.5 256.94117647058823   l 80 0   l 0 193.29411764705884   s 0 6 -6 6    l -68 0   s -6 0 -6 -6   l 0 -193.29411764705884   z"/><path d="   M 1626.5 256.94117647058823   l 80 0   l 0 193.29411764705884   s 0 6 -6 6    l -68 0   s -6 0 -6 -6   l 0 -193.29411764705884   z" fill="url(#WhiteBlackGradient)"/><path d="   M 1626.5 256.94117647058823   l 80 0   l 0 193.29411764705884   s 0 6 -6 6    l -68 0   s -6 0 -6 -6   l 0 -193.29411764705884   z" fill-opacity="0.3" filter="url(#SaturateMinus)"/><path d="   M 1868.5 35.176470588235276   s 0 -6 6 -6   l 68 0   s 6 0 6 6   l 0 221.76470588235296    l -80 0    l 0 -221.76470588235296   z"/><path d="   M 1868.5 35.176470588235276   s 0 -6 6 -6   l 68 0   s 6 0 6 6   l 0 221.76470588235296    l -80 0    l 0 -221.76470588235296   z" fill="url(#WhiteBlackGradient)"/><path d="   M 1868.5 35.176470588235276   s 0 -6 6 -6   l 68 0   s 6 0 6 6   l 0 221.76470588235296    l -80 0    l 0 -221.76470588235296   z" fill-opacity="0.3" filter="url(#SaturateMinus)"/></g></g></svg>