<?xml version="1.0" encoding="UTF-8" standalone="no" ?><svg xmlns="http://www.w3.org/2000/svg" id="ID_svg" viewBox="0 0 1168 500" viewport-fill="white" viewport-fill-opacity="0" xmlns:exsl4D="http://www.4D.com" xmlns:math="http://exslt.org/math" xmlns:xlink="http://www.w3.org/1999/xlink"><!--gradient styles--><defs><filter id="soft_blur"><feGaussianBlur in="SourceGraphic" result="BlurAlpha" stdDeviation="1"/></filter><filter id="pastel"><feGaussianBlur in="SourceAlpha" result="blur" stdDeviation="2"/><feOffset dx="6" dy="6" in="blur" result="offsetBlur"/><feComposite in="SourceGraphic" in2="offsetBlur" operator="in" result="specOut"/></filter><filter id="blur_shadow"><feGaussianBlur in="SourceAlpha" result="blur" stdDeviation="3"/><feOffset dx="4" dy="2" in="blur" result="offsetBlur"/><feBlend in="SourceGraphic" in2="offsetBlur" mode="normal"/></filter><filter filterUnits="objectBoundingBox" id="Shadow"><feGaussianBlur in="SourceAlpha" result="flou" stdDeviation="0"/><feColorMatrix in="SourceAlpha" result="flouBlue" type="matrix" values=" 0 0 0 0 0                      0 0 0 0 0                     0 0 0 0 0                      0 0 0 0.3 0"/><feOffset dx="4" dy="4" in="flouBlue" result="flouDecalage"/><feBlend in="SourceGraphic" in2="flouDecalage" mode="normal"/></filter><filter filterUnits="objectBoundingBox" height="100%" id="SaturateMinus" width="100%" x="0%" y="0%"><feColorMatrix in="SourceGraphic" type="saturate" values="0.5"/></filter><filter filterUnits="objectBoundingBox" height="100%" id="SaturatePlus" width="100%" x="0%" y="0%"><feColorMatrix in="SourceGraphic" type="saturate" values="1.4"/></filter><linearGradient id="BlackGradient"><stop offset="0%" style="stop-color:rgb(0,0,0); stop-opacity:0"/><stop offset="100%" style="stop-color:rgb(0,0,0); stop-opacity:0.1"/></linearGradient><linearGradient id="WhiteGradient" x1="0%" x2="100%" y1="0%" y2="0%"><stop offset="0%" style="stop-color:rgb(255,255,255); stop-opacity:0.3"/><stop offset="100%" style="stop-color:rgb(255,255,255);stop-opacity:0"/></linearGradient><linearGradient id="WhiteBlackGradient" x1="0%" x2="100%" y1="0%" y2="0%"><stop offset="0%" style="stop-color:rgb(255,255,255); stop-opacity:0.15"/><stop offset="100%" style="stop-color:rgb(0,0,0);stop-opacity:0.15"/></linearGradient><linearGradient id="Black0Black1Gradient" x1="0%" x2="0%" y1="0%" y2="100%"><stop offset="0%" style="stop-color:rgb(0,0,0); stop-opacity:0"/><stop offset="100%" style="stop-color:rgb(0,0,0);stop-opacity:0.05"/></linearGradient></defs><!--global stroke and font styles--><g id="ID_globals" style="fill:black;stroke:none;font-family:Arial;font-size:12px;font-weight:normal;font-style:normal;text-decoration:none;shape-rendering:crispEdges"><!--draw title--><!--draw legend--><!--draw graph background--><rect fill="rgb(168,168,168)" fill-opacity="1" height="446" id="ID_background_shadow" rx="10" ry="10" stroke="none" visibility="visible" width="1120" x="39" y="23"/><g fill="rgb(229,229,229)" id="ID_background" visibility="visible"><rect height="446" rx="10" ry="10" stroke="none" width="1120" x="38" y="22"/><rect fill="url(#Black0Black1Gradient)" height="446" rx="10" ry="10" stroke="none" width="1120" x="38" y="22"/></g><clipPath id="ID_backgroundClipPath"><rect height="447" rx="10" ry="10" width="1121" x="38" y="22"/></clipPath><!--draw Y grid lines--><!--draw Y grid lines SHADOWS--><!--draw X grid lines--><!--draw X grid lines SHADOWS --><!--draw y=0 axe--><g id="ID_y0_axis" stroke="rgb(100,100,100)" stroke-width="1" visibility="visible"><line x1="38" x2="1158" y1="256.7368421052631" y2="256.7368421052631"/></g><!--draw axis x labels--><g id="ID_x_values" style="fill:black;stroke:none;font-family:Arial;font-size:12px;font-weight:normal;font-style:normal;text-decoration:none;filter:none"><text text-anchor="middle" x="111" y="486.8">PT8H0M0S</text><text text-anchor="middle" x="251" y="486.8">PT9H0M0S</text><text text-anchor="middle" x="391" y="486.8">PT10H0M0S</text><text text-anchor="middle" x="531" y="486.8">PT11H0M0S</text><text text-anchor="middle" x="671" y="486.8">PT11H15M0S</text><text text-anchor="middle" x="811" y="486.8">PT14H45M0S</text><text text-anchor="middle" x="951" y="486.8">PT15H0M0S</text><text text-anchor="middle" x="1091" y="486.8">PT16H0M0S</text></g><!--draw axis y labels--><g id="ID_y_values" style="fill:black;stroke:none;font-family:Arial;font-size:12px;font-weight:normal;font-style:normal;text-decoration:none;filter:none"><text text-anchor="end" x="28" y="472.8">-90</text><text text-anchor="end" x="28" y="449.3263157894737">-80</text><text text-anchor="end" x="28" y="425.85263157894735">-70</text><text text-anchor="end" x="28" y="402.37894736842105">-60</text><text text-anchor="end" x="28" y="378.90526315789475">-50</text><text text-anchor="end" x="28" y="355.43157894736845">-40</text><text text-anchor="end" x="28" y="331.9578947368421">-30</text><text text-anchor="end" x="28" y="308.4842105263158">-20</text><text text-anchor="end" x="28" y="285.0105263157895">-10</text><text text-anchor="end" x="28" y="261.53684210526313">0</text><text text-anchor="end" x="28" y="238.06315789473683">10</text><text text-anchor="end" x="28" y="214.58947368421053">20</text><text text-anchor="end" x="28" y="191.11578947368417">30</text><text text-anchor="end" x="28" y="167.64210526315787">40</text><text text-anchor="end" x="28" y="144.16842105263157">50</text><text text-anchor="end" x="28" y="120.69473684210526">60</text><text text-anchor="end" x="28" y="97.2210526315789">70</text><text text-anchor="end" x="28" y="73.7473684210526">80</text><text text-anchor="end" x="28" y="50.2736842105263">90</text><text text-anchor="end" x="28" y="26.799999999999944">100</text></g><!--draw bars SHADOWS--><g clip-path="url(#ID_BackgroundClipPath)" filter="none" id="allGroups" shape-rendering="auto"><!--              draw bars shadows for data type 1--><g fill="black" fill-opacity="0.2" id="ID_graph_shadow_1"><rect height="2.3473684210526358" rx="0" ry="0" width="100" x="61" y="256.7368421052631"/><rect height="4.6947368421052715" rx="0" ry="0" width="100" x="201" y="252.04210526315785"/><rect height="7.042105263157907" rx="0" ry="0" width="100" x="341" y="256.7368421052631"/><rect height="9.389473684210515" rx="0" ry="0" width="100" x="481" y="247.3473684210526"/><rect height="11.736842105263179" rx="0" ry="0" width="100" x="621" y="256.7368421052631"/><rect height="14.084210526315786" rx="0" ry="0" width="100" x="761" y="242.65263157894734"/><rect height="16.431578947368394" rx="0" ry="0" width="100" x="901" y="256.7368421052631"/><rect height="18.778947368421058" rx="0" ry="0" width="100" x="1041" y="237.95789473684206"/></g><!--              draw bars shadows for data type 2--><g fill="black" fill-opacity="0.2" id="ID_graph_shadow_2"><rect height="2.582105263157871" rx="0" ry="0" width="100" x="61" y="259.08421052631576"/><rect height="5.164210526315799" rx="0" ry="0" width="100" x="201" y="246.87789473684208"/><rect height="7.74631578947367" rx="0" ry="0" width="100" x="341" y="263.77894736842103"/><rect height="10.328421052631569" rx="0" ry="0" width="100" x="481" y="237.018947368421"/><rect height="12.910526315789468" rx="0" ry="0" width="100" x="621" y="268.4736842105263"/><rect height="15.492631578947368" rx="0" ry="0" width="100" x="761" y="227.15999999999997"/><rect height="18.074736842105267" rx="0" ry="0" width="100" x="901" y="273.1684210526315"/><rect height="20.656842105263166" rx="0" ry="0" width="100" x="1041" y="217.3010526315789"/></g><!--              draw bars shadows for data type 3--><g fill="black" fill-opacity="0.2" id="ID_graph_shadow_3"><rect height="2.8403157894736637" rx="0" ry="0" width="100" x="61" y="261.6663157894737"/><rect height="5.680631578947356" rx="0" ry="0" width="100" x="201" y="241.1972631578947"/><rect height="8.520947368421048" rx="0" ry="0" width="100" x="341" y="271.5252631578947"/><rect height="11.36126315789474" rx="0" ry="0" width="100" x="481" y="225.65768421052627"/><rect height="14.201578947368432" rx="0" ry="0" width="100" x="621" y="281.38421052631577"/><rect height="17.041894736842096" rx="0" ry="0" width="100" x="761" y="210.11810526315787"/><rect height="19.882210526315816" rx="0" ry="0" width="100" x="901" y="291.2431578947368"/><rect height="22.72252631578948" rx="0" ry="0" width="100" x="1041" y="194.57852631578942"/></g><!--              draw bars shadows for data type 4--><g fill="black" fill-opacity="0.2" id="ID_graph_shadow_4"><rect height="3.12434736842107" rx="0" ry="0" width="100" x="61" y="264.5066315789473"/><rect height="6.248694736842111" rx="0" ry="0" width="100" x="201" y="234.94856842105258"/><rect height="9.373042105263153" rx="0" ry="0" width="100" x="341" y="280.04621052631575"/><rect height="12.497389473684223" rx="0" ry="0" width="100" x="481" y="213.16029473684208"/><rect height="15.621736842105292" rx="0" ry="0" width="100" x="621" y="295.58578947368414"/><rect height="18.746084210526305" rx="0" ry="0" width="100" x="761" y="191.37202105263154"/><rect height="21.870431578947375" rx="0" ry="0" width="100" x="901" y="311.1253684210526"/><rect height="24.994778947368417" rx="0" ry="0" width="100" x="1041" y="169.58374736842103"/></g><!--              draw bars shadows for data type 5--><g fill="black" fill-opacity="0.2" id="ID_graph_shadow_5"><rect height="3.4367821052631484" rx="0" ry="0" width="100" x="61" y="267.6309789473684"/><rect height="6.873564210526325" rx="0" ry="0" width="100" x="201" y="228.0750042105263"/><rect height="10.310346315789445" rx="0" ry="0" width="100" x="341" y="289.41925263157896"/><rect height="13.747128421052622" rx="0" ry="0" width="100" x="481" y="199.41316631578943"/><rect height="17.1839105263158" rx="0" ry="0" width="100" x="621" y="311.20752631578944"/><rect height="20.620692631578947" rx="0" ry="0" width="100" x="761" y="170.7513284210526"/><rect height="24.057474736842096" rx="0" ry="0" width="100" x="901" y="332.9958"/><rect height="27.494256842105273" rx="0" ry="0" width="100" x="1041" y="142.08949052631573"/></g><!--              draw bars shadows for data type 6--><g fill="black" fill-opacity="0.2" id="ID_graph_shadow_6"><rect height="3.780460315789469" rx="0" ry="0" width="100" x="61" y="271.06776105263157"/><rect height="7.560920631578938" rx="0" ry="0" width="100" x="201" y="220.51408357894732"/><rect height="11.341380947368407" rx="0" ry="0" width="100" x="341" y="299.7295989473684"/><rect height="15.121841263157904" rx="0" ry="0" width="100" x="481" y="184.29132505263152"/><rect height="18.902301578947345" rx="0" ry="0" width="100" x="621" y="328.39143684210524"/><rect height="22.682761894736842" rx="0" ry="0" width="100" x="761" y="148.06856652631575"/><rect height="26.46322221052634" rx="0" ry="0" width="100" x="901" y="357.05327473684207"/><rect height="30.24368252631578" rx="0" ry="0" width="100" x="1041" y="111.84580799999995"/></g><!--              draw bars shadows for data type 7--><g fill="black" fill-opacity="0.2" id="ID_graph_shadow_7"><rect height="4.158506347368416" rx="0" ry="0" width="100" x="61" y="274.84822136842104"/><rect height="8.317012694736832" rx="0" ry="0" width="100" x="201" y="212.1970708842105"/><rect height="12.475519042105248" rx="0" ry="0" width="100" x="341" y="311.0709798947368"/><rect height="16.634025389473692" rx="0" ry="0" width="100" x="481" y="167.65729966315786"/><rect height="20.792531736842136" rx="0" ry="0" width="100" x="621" y="347.2937384210526"/><rect height="24.951038084210523" rx="0" ry="0" width="100" x="761" y="123.11752844210523"/><rect height="29.109544431578968" rx="0" ry="0" width="100" x="901" y="383.51649694736835"/><rect height="33.26805077894737" rx="0" ry="0" width="100" x="1041" y="78.5777572210526"/></g><!--              draw bars shadows for data type 8--><g fill="black" fill-opacity="0.2" id="ID_graph_shadow_8"><path d="   M 61 279.00672771578945   l 100 0   l 0 0   s 0 4.574356982105257 -4.574356982105257 4.574356982105257    l -90.85128603578949 0   s -4.574356982105257 0 -4.574356982105257 -4.574356982105257   l 0 0   z"/><path d="   M 201 212.19707088421046   s 0 -9.148713964210515 9.148713964210515 -9.148713964210515   l 81.70257207157897 0   s 9.148713964210515 0 9.148713964210515 9.148713964210515   l 0 0    l -100 0    l 0 0   z"/><path d="   M 341 323.54649893684206   l 100 0   l 0 3.7230709463157723   s 0 10 -10 10    l -80 0   s -10 0 -10 -10   l 0 -3.7230709463157723   z"/><path d="   M 481 159.3598717347368   s 0 -10 10 -10   l 80 0   s 10 0 10 10   l 0 8.297427928421058    l -100 0    l 0 -8.297427928421058   z"/><path d="   M 621 368.08627015789466   l 100 0   l 0 12.871784910526344   s 0 10 -10 10    l -80 0   s -10 0 -10 -10   l 0 -12.871784910526344   z"/><path d="   M 761 105.67138654947365   s 0 -10 10 -10   l 80 0   s 10 0 10 10   l 0 17.446141892631573    l -100 0    l 0 -17.446141892631573   z"/><path d="   M 901 412.6260413789473   l 100 0   l 0 22.02049887473686   s 0 10 -10 10    l -80 0   s -10 0 -10 -10   l 0 -22.02049887473686   z"/><path d="   M 1041 51.98290136421048   s 0 -10 10 -10   l 80 0   s 10 0 10 10   l 0 26.594855856842116    l -100 0    l 0 -26.594855856842116   z"/></g></g><!--draw bars--><g filter="none" id="allGroups" shape-rendering="auto"><!--              draw bars for data type 1--><g fill="rgb(0,178,195)" fill-opacity="1" id="ID_graph_1" stroke="black" stroke-opacity="0" stroke-width="0"><rect height="2.3473684210526358" rx="0" ry="0" width="100" x="58" y="256.7368421052631"/><rect fill="url(#WhiteBlackGradient)" height="2.3473684210526358" rx="0" ry="0" width="100" x="58" y="256.7368421052631"/><rect fill-opacity="0.3" filter="url(#SaturateMinus)" height="2.3473684210526358" rx="0" ry="0" width="100" x="58" y="256.7368421052631"/><rect height="4.6947368421052715" rx="0" ry="0" width="100" x="198" y="252.04210526315785"/><rect fill="url(#WhiteBlackGradient)" height="4.6947368421052715" rx="0" ry="0" width="100" x="198" y="252.04210526315785"/><rect fill-opacity="0.3" filter="url(#SaturateMinus)" height="4.6947368421052715" rx="0" ry="0" width="100" x="198" y="252.04210526315785"/><rect height="7.042105263157907" rx="0" ry="0" width="100" x="338" y="256.7368421052631"/><rect fill="url(#WhiteBlackGradient)" height="7.042105263157907" rx="0" ry="0" width="100" x="338" y="256.7368421052631"/><rect fill-opacity="0.3" filter="url(#SaturateMinus)" height="7.042105263157907" rx="0" ry="0" width="100" x="338" y="256.7368421052631"/><rect height="9.389473684210515" rx="0" ry="0" width="100" x="478" y="247.3473684210526"/><rect fill="url(#WhiteBlackGradient)" height="9.389473684210515" rx="0" ry="0" width="100" x="478" y="247.3473684210526"/><rect fill-opacity="0.3" filter="url(#SaturateMinus)" height="9.389473684210515" rx="0" ry="0" width="100" x="478" y="247.3473684210526"/><rect height="11.736842105263179" rx="0" ry="0" width="100" x="618" y="256.7368421052631"/><rect fill="url(#WhiteBlackGradient)" height="11.736842105263179" rx="0" ry="0" width="100" x="618" y="256.7368421052631"/><rect fill-opacity="0.3" filter="url(#SaturateMinus)" height="11.736842105263179" rx="0" ry="0" width="100" x="618" y="256.7368421052631"/><rect height="14.084210526315786" rx="0" ry="0" width="100" x="758" y="242.65263157894734"/><rect fill="url(#WhiteBlackGradient)" height="14.084210526315786" rx="0" ry="0" width="100" x="758" y="242.65263157894734"/><rect fill-opacity="0.3" filter="url(#SaturateMinus)" height="14.084210526315786" rx="0" ry="0" width="100" x="758" y="242.65263157894734"/><rect height="16.431578947368394" rx="0" ry="0" width="100" x="898" y="256.7368421052631"/><rect fill="url(#WhiteBlackGradient)" height="16.431578947368394" rx="0" ry="0" width="100" x="898" y="256.7368421052631"/><rect fill-opacity="0.3" filter="url(#SaturateMinus)" height="16.431578947368394" rx="0" ry="0" width="100" x="898" y="256.7368421052631"/><rect height="18.778947368421058" rx="0" ry="0" width="100" x="1038" y="237.95789473684206"/><rect fill="url(#WhiteBlackGradient)" height="18.778947368421058" rx="0" ry="0" width="100" x="1038" y="237.95789473684206"/><rect fill-opacity="0.3" filter="url(#SaturateMinus)" height="18.778947368421058" rx="0" ry="0" width="100" x="1038" y="237.95789473684206"/></g><!--              draw bars for data type 2--><g fill="rgb(255,195,56)" fill-opacity="1" id="ID_graph_2" stroke="black" stroke-opacity="0" stroke-width="0"><rect height="2.582105263157871" rx="0" ry="0" width="100" x="58" y="259.08421052631576"/><rect fill="url(#WhiteBlackGradient)" height="2.582105263157871" rx="0" ry="0" width="100" x="58" y="259.08421052631576"/><rect fill-opacity="0.3" filter="url(#SaturateMinus)" height="2.582105263157871" rx="0" ry="0" width="100" x="58" y="259.08421052631576"/><rect height="5.164210526315799" rx="0" ry="0" width="100" x="198" y="246.87789473684208"/><rect fill="url(#WhiteBlackGradient)" height="5.164210526315799" rx="0" ry="0" width="100" x="198" y="246.87789473684208"/><rect fill-opacity="0.3" filter="url(#SaturateMinus)" height="5.164210526315799" rx="0" ry="0" width="100" x="198" y="246.87789473684208"/><rect height="7.74631578947367" rx="0" ry="0" width="100" x="338" y="263.77894736842103"/><rect fill="url(#WhiteBlackGradient)" height="7.74631578947367" rx="0" ry="0" width="100" x="338" y="263.77894736842103"/><rect fill-opacity="0.3" filter="url(#SaturateMinus)" height="7.74631578947367" rx="0" ry="0" width="100" x="338" y="263.77894736842103"/><rect height="10.328421052631569" rx="0" ry="0" width="100" x="478" y="237.018947368421"/><rect fill="url(#WhiteBlackGradient)" height="10.328421052631569" rx="0" ry="0" width="100" x="478" y="237.018947368421"/><rect fill-opacity="0.3" filter="url(#SaturateMinus)" height="10.328421052631569" rx="0" ry="0" width="100" x="478" y="237.018947368421"/><rect height="12.910526315789468" rx="0" ry="0" width="100" x="618" y="268.4736842105263"/><rect fill="url(#WhiteBlackGradient)" height="12.910526315789468" rx="0" ry="0" width="100" x="618" y="268.4736842105263"/><rect fill-opacity="0.3" filter="url(#SaturateMinus)" height="12.910526315789468" rx="0" ry="0" width="100" x="618" y="268.4736842105263"/><rect height="15.492631578947368" rx="0" ry="0" width="100" x="758" y="227.15999999999997"/><rect fill="url(#WhiteBlackGradient)" height="15.492631578947368" rx="0" ry="0" width="100" x="758" y="227.15999999999997"/><rect fill-opacity="0.3" filter="url(#SaturateMinus)" height="15.492631578947368" rx="0" ry="0" width="100" x="758" y="227.15999999999997"/><rect height="18.074736842105267" rx="0" ry="0" width="100" x="898" y="273.1684210526315"/><rect fill="url(#WhiteBlackGradient)" height="18.074736842105267" rx="0" ry="0" width="100" x="898" y="273.1684210526315"/><rect fill-opacity="0.3" filter="url(#SaturateMinus)" height="18.074736842105267" rx="0" ry="0" width="100" x="898" y="273.1684210526315"/><rect height="20.656842105263166" rx="0" ry="0" width="100" x="1038" y="217.3010526315789"/><rect fill="url(#WhiteBlackGradient)" height="20.656842105263166" rx="0" ry="0" width="100" x="1038" y="217.3010526315789"/><rect fill-opacity="0.3" filter="url(#SaturateMinus)" height="20.656842105263166" rx="0" ry="0" width="100" x="1038" y="217.3010526315789"/></g><!--              draw bars for data type 3--><g fill="rgb(87,62,130)" fill-opacity="1" id="ID_graph_3" stroke="black" stroke-opacity="0" stroke-width="0"><rect height="2.8403157894736637" rx="0" ry="0" width="100" x="58" y="261.6663157894737"/><rect fill="url(#WhiteBlackGradient)" height="2.8403157894736637" rx="0" ry="0" width="100" x="58" y="261.6663157894737"/><rect fill-opacity="0.3" filter="url(#SaturateMinus)" height="2.8403157894736637" rx="0" ry="0" width="100" x="58" y="261.6663157894737"/><rect height="5.680631578947356" rx="0" ry="0" width="100" x="198" y="241.1972631578947"/><rect fill="url(#WhiteBlackGradient)" height="5.680631578947356" rx="0" ry="0" width="100" x="198" y="241.1972631578947"/><rect fill-opacity="0.3" filter="url(#SaturateMinus)" height="5.680631578947356" rx="0" ry="0" width="100" x="198" y="241.1972631578947"/><rect height="8.520947368421048" rx="0" ry="0" width="100" x="338" y="271.5252631578947"/><rect fill="url(#WhiteBlackGradient)" height="8.520947368421048" rx="0" ry="0" width="100" x="338" y="271.5252631578947"/><rect fill-opacity="0.3" filter="url(#SaturateMinus)" height="8.520947368421048" rx="0" ry="0" width="100" x="338" y="271.5252631578947"/><rect height="11.36126315789474" rx="0" ry="0" width="100" x="478" y="225.65768421052627"/><rect fill="url(#WhiteBlackGradient)" height="11.36126315789474" rx="0" ry="0" width="100" x="478" y="225.65768421052627"/><rect fill-opacity="0.3" filter="url(#SaturateMinus)" height="11.36126315789474" rx="0" ry="0" width="100" x="478" y="225.65768421052627"/><rect height="14.201578947368432" rx="0" ry="0" width="100" x="618" y="281.38421052631577"/><rect fill="url(#WhiteBlackGradient)" height="14.201578947368432" rx="0" ry="0" width="100" x="618" y="281.38421052631577"/><rect fill-opacity="0.3" filter="url(#SaturateMinus)" height="14.201578947368432" rx="0" ry="0" width="100" x="618" y="281.38421052631577"/><rect height="17.041894736842096" rx="0" ry="0" width="100" x="758" y="210.11810526315787"/><rect fill="url(#WhiteBlackGradient)" height="17.041894736842096" rx="0" ry="0" width="100" x="758" y="210.11810526315787"/><rect fill-opacity="0.3" filter="url(#SaturateMinus)" height="17.041894736842096" rx="0" ry="0" width="100" x="758" y="210.11810526315787"/><rect height="19.882210526315816" rx="0" ry="0" width="100" x="898" y="291.2431578947368"/><rect fill="url(#WhiteBlackGradient)" height="19.882210526315816" rx="0" ry="0" width="100" x="898" y="291.2431578947368"/><rect fill-opacity="0.3" filter="url(#SaturateMinus)" height="19.882210526315816" rx="0" ry="0" width="100" x="898" y="291.2431578947368"/><rect height="22.72252631578948" rx="0" ry="0" width="100" x="1038" y="194.57852631578942"/><rect fill="url(#WhiteBlackGradient)" height="22.72252631578948" rx="0" ry="0" width="100" x="1038" y="194.57852631578942"/><rect fill-opacity="0.3" filter="url(#SaturateMinus)" height="22.72252631578948" rx="0" ry="0" width="100" x="1038" y="194.57852631578942"/></g><!--              draw bars for data type 4--><g fill="rgb(79,168,57)" fill-opacity="1" id="ID_graph_4" stroke="black" stroke-opacity="0" stroke-width="0"><rect height="3.12434736842107" rx="0" ry="0" width="100" x="58" y="264.5066315789473"/><rect fill="url(#WhiteBlackGradient)" height="3.12434736842107" rx="0" ry="0" width="100" x="58" y="264.5066315789473"/><rect fill-opacity="0.3" filter="url(#SaturateMinus)" height="3.12434736842107" rx="0" ry="0" width="100" x="58" y="264.5066315789473"/><rect height="6.248694736842111" rx="0" ry="0" width="100" x="198" y="234.94856842105258"/><rect fill="url(#WhiteBlackGradient)" height="6.248694736842111" rx="0" ry="0" width="100" x="198" y="234.94856842105258"/><rect fill-opacity="0.3" filter="url(#SaturateMinus)" height="6.248694736842111" rx="0" ry="0" width="100" x="198" y="234.94856842105258"/><rect height="9.373042105263153" rx="0" ry="0" width="100" x="338" y="280.04621052631575"/><rect fill="url(#WhiteBlackGradient)" height="9.373042105263153" rx="0" ry="0" width="100" x="338" y="280.04621052631575"/><rect fill-opacity="0.3" filter="url(#SaturateMinus)" height="9.373042105263153" rx="0" ry="0" width="100" x="338" y="280.04621052631575"/><rect height="12.497389473684223" rx="0" ry="0" width="100" x="478" y="213.16029473684208"/><rect fill="url(#WhiteBlackGradient)" height="12.497389473684223" rx="0" ry="0" width="100" x="478" y="213.16029473684208"/><rect fill-opacity="0.3" filter="url(#SaturateMinus)" height="12.497389473684223" rx="0" ry="0" width="100" x="478" y="213.16029473684208"/><rect height="15.621736842105292" rx="0" ry="0" width="100" x="618" y="295.58578947368414"/><rect fill="url(#WhiteBlackGradient)" height="15.621736842105292" rx="0" ry="0" width="100" x="618" y="295.58578947368414"/><rect fill-opacity="0.3" filter="url(#SaturateMinus)" height="15.621736842105292" rx="0" ry="0" width="100" x="618" y="295.58578947368414"/><rect height="18.746084210526305" rx="0" ry="0" width="100" x="758" y="191.37202105263154"/><rect fill="url(#WhiteBlackGradient)" height="18.746084210526305" rx="0" ry="0" width="100" x="758" y="191.37202105263154"/><rect fill-opacity="0.3" filter="url(#SaturateMinus)" height="18.746084210526305" rx="0" ry="0" width="100" x="758" y="191.37202105263154"/><rect height="21.870431578947375" rx="0" ry="0" width="100" x="898" y="311.1253684210526"/><rect fill="url(#WhiteBlackGradient)" height="21.870431578947375" rx="0" ry="0" width="100" x="898" y="311.1253684210526"/><rect fill-opacity="0.3" filter="url(#SaturateMinus)" height="21.870431578947375" rx="0" ry="0" width="100" x="898" y="311.1253684210526"/><rect height="24.994778947368417" rx="0" ry="0" width="100" x="1038" y="169.58374736842103"/><rect fill="url(#WhiteBlackGradient)" height="24.994778947368417" rx="0" ry="0" width="100" x="1038" y="169.58374736842103"/><rect fill-opacity="0.3" filter="url(#SaturateMinus)" height="24.994778947368417" rx="0" ry="0" width="100" x="1038" y="169.58374736842103"/></g><!--              draw bars for data type 5--><g fill="rgb(217,87,0)" fill-opacity="1" id="ID_graph_5" stroke="black" stroke-opacity="0" stroke-width="0"><rect height="3.4367821052631484" rx="0" ry="0" width="100" x="58" y="267.6309789473684"/><rect fill="url(#WhiteBlackGradient)" height="3.4367821052631484" rx="0" ry="0" width="100" x="58" y="267.6309789473684"/><rect fill-opacity="0.3" filter="url(#SaturateMinus)" height="3.4367821052631484" rx="0" ry="0" width="100" x="58" y="267.6309789473684"/><rect height="6.873564210526325" rx="0" ry="0" width="100" x="198" y="228.0750042105263"/><rect fill="url(#WhiteBlackGradient)" height="6.873564210526325" rx="0" ry="0" width="100" x="198" y="228.0750042105263"/><rect fill-opacity="0.3" filter="url(#SaturateMinus)" height="6.873564210526325" rx="0" ry="0" width="100" x="198" y="228.0750042105263"/><rect height="10.310346315789445" rx="0" ry="0" width="100" x="338" y="289.41925263157896"/><rect fill="url(#WhiteBlackGradient)" height="10.310346315789445" rx="0" ry="0" width="100" x="338" y="289.41925263157896"/><rect fill-opacity="0.3" filter="url(#SaturateMinus)" height="10.310346315789445" rx="0" ry="0" width="100" x="338" y="289.41925263157896"/><rect height="13.747128421052622" rx="0" ry="0" width="100" x="478" y="199.41316631578943"/><rect fill="url(#WhiteBlackGradient)" height="13.747128421052622" rx="0" ry="0" width="100" x="478" y="199.41316631578943"/><rect fill-opacity="0.3" filter="url(#SaturateMinus)" height="13.747128421052622" rx="0" ry="0" width="100" x="478" y="199.41316631578943"/><rect height="17.1839105263158" rx="0" ry="0" width="100" x="618" y="311.20752631578944"/><rect fill="url(#WhiteBlackGradient)" height="17.1839105263158" rx="0" ry="0" width="100" x="618" y="311.20752631578944"/><rect fill-opacity="0.3" filter="url(#SaturateMinus)" height="17.1839105263158" rx="0" ry="0" width="100" x="618" y="311.20752631578944"/><rect height="20.620692631578947" rx="0" ry="0" width="100" x="758" y="170.7513284210526"/><rect fill="url(#WhiteBlackGradient)" height="20.620692631578947" rx="0" ry="0" width="100" x="758" y="170.7513284210526"/><rect fill-opacity="0.3" filter="url(#SaturateMinus)" height="20.620692631578947" rx="0" ry="0" width="100" x="758" y="170.7513284210526"/><rect height="24.057474736842096" rx="0" ry="0" width="100" x="898" y="332.9958"/><rect fill="url(#WhiteBlackGradient)" height="24.057474736842096" rx="0" ry="0" width="100" x="898" y="332.9958"/><rect fill-opacity="0.3" filter="url(#SaturateMinus)" height="24.057474736842096" rx="0" ry="0" width="100" x="898" y="332.9958"/><rect height="27.494256842105273" rx="0" ry="0" width="100" x="1038" y="142.08949052631573"/><rect fill="url(#WhiteBlackGradient)" height="27.494256842105273" rx="0" ry="0" width="100" x="1038" y="142.08949052631573"/><rect fill-opacity="0.3" filter="url(#SaturateMinus)" height="27.494256842105273" rx="0" ry="0" width="100" x="1038" y="142.08949052631573"/></g><!--              draw bars for data type 6--><g fill="rgb(29,157,242)" fill-opacity="1" id="ID_graph_6" stroke="black" stroke-opacity="0" stroke-width="0"><rect height="3.780460315789469" rx="0" ry="0" width="100" x="58" y="271.06776105263157"/><rect fill="url(#WhiteBlackGradient)" height="3.780460315789469" rx="0" ry="0" width="100" x="58" y="271.06776105263157"/><rect fill-opacity="0.3" filter="url(#SaturateMinus)" height="3.780460315789469" rx="0" ry="0" width="100" x="58" y="271.06776105263157"/><rect height="7.560920631578938" rx="0" ry="0" width="100" x="198" y="220.51408357894732"/><rect fill="url(#WhiteBlackGradient)" height="7.560920631578938" rx="0" ry="0" width="100" x="198" y="220.51408357894732"/><rect fill-opacity="0.3" filter="url(#SaturateMinus)" height="7.560920631578938" rx="0" ry="0" width="100" x="198" y="220.51408357894732"/><rect height="11.341380947368407" rx="0" ry="0" width="100" x="338" y="299.7295989473684"/><rect fill="url(#WhiteBlackGradient)" height="11.341380947368407" rx="0" ry="0" width="100" x="338" y="299.7295989473684"/><rect fill-opacity="0.3" filter="url(#SaturateMinus)" height="11.341380947368407" rx="0" ry="0" width="100" x="338" y="299.7295989473684"/><rect height="15.121841263157904" rx="0" ry="0" width="100" x="478" y="184.29132505263152"/><rect fill="url(#WhiteBlackGradient)" height="15.121841263157904" rx="0" ry="0" width="100" x="478" y="184.29132505263152"/><rect fill-opacity="0.3" filter="url(#SaturateMinus)" height="15.121841263157904" rx="0" ry="0" width="100" x="478" y="184.29132505263152"/><rect height="18.902301578947345" rx="0" ry="0" width="100" x="618" y="328.39143684210524"/><rect fill="url(#WhiteBlackGradient)" height="18.902301578947345" rx="0" ry="0" width="100" x="618" y="328.39143684210524"/><rect fill-opacity="0.3" filter="url(#SaturateMinus)" height="18.902301578947345" rx="0" ry="0" width="100" x="618" y="328.39143684210524"/><rect height="22.682761894736842" rx="0" ry="0" width="100" x="758" y="148.06856652631575"/><rect fill="url(#WhiteBlackGradient)" height="22.682761894736842" rx="0" ry="0" width="100" x="758" y="148.06856652631575"/><rect fill-opacity="0.3" filter="url(#SaturateMinus)" height="22.682761894736842" rx="0" ry="0" width="100" x="758" y="148.06856652631575"/><rect height="26.46322221052634" rx="0" ry="0" width="100" x="898" y="357.05327473684207"/><rect fill="url(#WhiteBlackGradient)" height="26.46322221052634" rx="0" ry="0" width="100" x="898" y="357.05327473684207"/><rect fill-opacity="0.3" filter="url(#SaturateMinus)" height="26.46322221052634" rx="0" ry="0" width="100" x="898" y="357.05327473684207"/><rect height="30.24368252631578" rx="0" ry="0" width="100" x="1038" y="111.84580799999995"/><rect fill="url(#WhiteBlackGradient)" height="30.24368252631578" rx="0" ry="0" width="100" x="1038" y="111.84580799999995"/><rect fill-opacity="0.3" filter="url(#SaturateMinus)" height="30.24368252631578" rx="0" ry="0" width="100" x="1038" y="111.84580799999995"/></g><!--              draw bars for data type 7--><g fill="rgb(181,207,50)" fill-opacity="1" id="ID_graph_7" stroke="black" stroke-opacity="0" stroke-width="0"><rect height="4.158506347368416" rx="0" ry="0" width="100" x="58" y="274.84822136842104"/><rect fill="url(#WhiteBlackGradient)" height="4.158506347368416" rx="0" ry="0" width="100" x="58" y="274.84822136842104"/><rect fill-opacity="0.3" filter="url(#SaturateMinus)" height="4.158506347368416" rx="0" ry="0" width="100" x="58" y="274.84822136842104"/><rect height="8.317012694736832" rx="0" ry="0" width="100" x="198" y="212.1970708842105"/><rect fill="url(#WhiteBlackGradient)" height="8.317012694736832" rx="0" ry="0" width="100" x="198" y="212.1970708842105"/><rect fill-opacity="0.3" filter="url(#SaturateMinus)" height="8.317012694736832" rx="0" ry="0" width="100" x="198" y="212.1970708842105"/><rect height="12.475519042105248" rx="0" ry="0" width="100" x="338" y="311.0709798947368"/><rect fill="url(#WhiteBlackGradient)" height="12.475519042105248" rx="0" ry="0" width="100" x="338" y="311.0709798947368"/><rect fill-opacity="0.3" filter="url(#SaturateMinus)" height="12.475519042105248" rx="0" ry="0" width="100" x="338" y="311.0709798947368"/><rect height="16.634025389473692" rx="0" ry="0" width="100" x="478" y="167.65729966315786"/><rect fill="url(#WhiteBlackGradient)" height="16.634025389473692" rx="0" ry="0" width="100" x="478" y="167.65729966315786"/><rect fill-opacity="0.3" filter="url(#SaturateMinus)" height="16.634025389473692" rx="0" ry="0" width="100" x="478" y="167.65729966315786"/><rect height="20.792531736842136" rx="0" ry="0" width="100" x="618" y="347.2937384210526"/><rect fill="url(#WhiteBlackGradient)" height="20.792531736842136" rx="0" ry="0" width="100" x="618" y="347.2937384210526"/><rect fill-opacity="0.3" filter="url(#SaturateMinus)" height="20.792531736842136" rx="0" ry="0" width="100" x="618" y="347.2937384210526"/><rect height="24.951038084210523" rx="0" ry="0" width="100" x="758" y="123.11752844210523"/><rect fill="url(#WhiteBlackGradient)" height="24.951038084210523" rx="0" ry="0" width="100" x="758" y="123.11752844210523"/><rect fill-opacity="0.3" filter="url(#SaturateMinus)" height="24.951038084210523" rx="0" ry="0" width="100" x="758" y="123.11752844210523"/><rect height="29.109544431578968" rx="0" ry="0" width="100" x="898" y="383.51649694736835"/><rect fill="url(#WhiteBlackGradient)" height="29.109544431578968" rx="0" ry="0" width="100" x="898" y="383.51649694736835"/><rect fill-opacity="0.3" filter="url(#SaturateMinus)" height="29.109544431578968" rx="0" ry="0" width="100" x="898" y="383.51649694736835"/><rect height="33.26805077894737" rx="0" ry="0" width="100" x="1038" y="78.5777572210526"/><rect fill="url(#WhiteBlackGradient)" height="33.26805077894737" rx="0" ry="0" width="100" x="1038" y="78.5777572210526"/><rect fill-opacity="0.3" filter="url(#SaturateMinus)" height="33.26805077894737" rx="0" ry="0" width="100" x="1038" y="78.5777572210526"/></g><!--              draw bars for data type 8--><g fill="rgb(212,58,38)" fill-opacity="1" id="ID_graph_8" stroke="black" stroke-opacity="0" stroke-width="0"><path d="   M 58 279.00672771578945   l 100 0   l 0 0   s 0 4.574356982105257 -4.574356982105257 4.574356982105257    l -90.85128603578949 0   s -4.574356982105257 0 -4.574356982105257 -4.574356982105257   l 0 0   z"/><path d="   M 58 279.00672771578945   l 100 0   l 0 0   s 0 4.574356982105257 -4.574356982105257 4.574356982105257    l -90.85128603578949 0   s -4.574356982105257 0 -4.574356982105257 -4.574356982105257   l 0 0   z" fill="url(#WhiteBlackGradient)"/><path d="   M 58 279.00672771578945   l 100 0   l 0 0   s 0 4.574356982105257 -4.574356982105257 4.574356982105257    l -90.85128603578949 0   s -4.574356982105257 0 -4.574356982105257 -4.574356982105257   l 0 0   z" fill-opacity="0.3" filter="url(#SaturateMinus)"/><path d="   M 198 212.19707088421046   s 0 -9.148713964210515 9.148713964210515 -9.148713964210515   l 81.70257207157897 0   s 9.148713964210515 0 9.148713964210515 9.148713964210515   l 0 0    l -100 0    l 0 0   z"/><path d="   M 198 212.19707088421046   s 0 -9.148713964210515 9.148713964210515 -9.148713964210515   l 81.70257207157897 0   s 9.148713964210515 0 9.148713964210515 9.148713964210515   l 0 0    l -100 0    l 0 0   z" fill="url(#WhiteBlackGradient)"/><path d="   M 198 212.19707088421046   s 0 -9.148713964210515 9.148713964210515 -9.148713964210515   l 81.70257207157897 0   s 9.148713964210515 0 9.148713964210515 9.148713964210515   l 0 0    l -100 0    l 0 0   z" fill-opacity="0.3" filter="url(#SaturateMinus)"/><path d="   M 338 323.54649893684206   l 100 0   l 0 3.7230709463157723   s 0 10 -10 10    l -80 0   s -10 0 -10 -10   l 0 -3.7230709463157723   z"/><path d="   M 338 323.54649893684206   l 100 0   l 0 3.7230709463157723   s 0 10 -10 10    l -80 0   s -10 0 -10 -10   l 0 -3.7230709463157723   z" fill="url(#WhiteBlackGradient)"/><path d="   M 338 323.54649893684206   l 100 0   l 0 3.7230709463157723   s 0 10 -10 10    l -80 0   s -10 0 -10 -10   l 0 -3.7230709463157723   z" fill-opacity="0.3" filter="url(#SaturateMinus)"/><path d="   M 478 159.3598717347368   s 0 -10 10 -10   l 80 0   s 10 0 10 10   l 0 8.297427928421058    l -100 0    l 0 -8.297427928421058   z"/><path d="   M 478 159.3598717347368   s 0 -10 10 -10   l 80 0   s 10 0 10 10   l 0 8.297427928421058    l -100 0    l 0 -8.297427928421058   z" fill="url(#WhiteBlackGradient)"/><path d="   M 478 159.3598717347368   s 0 -10 10 -10   l 80 0   s 10 0 10 10   l 0 8.297427928421058    l -100 0    l 0 -8.297427928421058   z" fill-opacity="0.3" filter="url(#SaturateMinus)"/><path d="   M 618 368.08627015789466   l 100 0   l 0 12.871784910526344   s 0 10 -10 10    l -80 0   s -10 0 -10 -10   l 0 -12.871784910526344   z"/><path d="   M 618 368.08627015789466   l 100 0   l 0 12.871784910526344   s 0 10 -10 10    l -80 0   s -10 0 -10 -10   l 0 -12.871784910526344   z" fill="url(#WhiteBlackGradient)"/><path d="   M 618 368.08627015789466   l 100 0   l 0 12.871784910526344   s 0 10 -10 10    l -80 0   s -10 0 -10 -10   l 0 -12.871784910526344   z" fill-opacity="0.3" filter="url(#SaturateMinus)"/><path d="   M 758 105.67138654947365   s 0 -10 10 -10   l 80 0   s 10 0 10 10   l 0 17.446141892631573    l -100 0    l 0 -17.446141892631573   z"/><path d="   M 758 105.67138654947365   s 0 -10 10 -10   l 80 0   s 10 0 10 10   l 0 17.446141892631573    l -100 0    l 0 -17.446141892631573   z" fill="url(#WhiteBlackGradient)"/><path d="   M 758 105.67138654947365   s 0 -10 10 -10   l 80 0   s 10 0 10 10   l 0 17.446141892631573    l -100 0    l 0 -17.446141892631573   z" fill-opacity="0.3" filter="url(#SaturateMinus)"/><path d="   M 898 412.6260413789473   l 100 0   l 0 22.02049887473686   s 0 10 -10 10    l -80 0   s -10 0 -10 -10   l 0 -22.02049887473686   z"/><path d="   M 898 412.6260413789473   l 100 0   l 0 22.02049887473686   s 0 10 -10 10    l -80 0   s -10 0 -10 -10   l 0 -22.02049887473686   z" fill="url(#WhiteBlackGradient)"/><path d="   M 898 412.6260413789473   l 100 0   l 0 22.02049887473686   s 0 10 -10 10    l -80 0   s -10 0 -10 -10   l 0 -22.02049887473686   z" fill-opacity="0.3" filter="url(#SaturateMinus)"/><path d="   M 1038 51.98290136421048   s 0 -10 10 -10   l 80 0   s 10 0 10 10   l 0 26.594855856842116    l -100 0    l 0 -26.594855856842116   z"/><path d="   M 1038 51.98290136421048   s 0 -10 10 -10   l 80 0   s 10 0 10 10   l 0 26.594855856842116    l -100 0    l 0 -26.594855856842116   z" fill="url(#WhiteBlackGradient)"/><path d="   M 1038 51.98290136421048   s 0 -10 10 -10   l 80 0   s 10 0 10 10   l 0 26.594855856842116    l -100 0    l 0 -26.594855856842116   z" fill-opacity="0.3" filter="url(#SaturateMinus)"/></g></g></g></svg>