<?xml version="1.0" encoding="UTF-8" standalone="no" ?><svg xmlns="http://www.w3.org/2000/svg" id="ID_svg" viewBox="0 0 1168 500" viewport-fill="white" viewport-fill-opacity="0" xmlns:exsl4D="http://www.4D.com" xmlns:math="http://exslt.org/math" xmlns:xlink="http://www.w3.org/1999/xlink"><!--gradient styles--><defs><filter id="soft_blur"><feGaussianBlur in="SourceGraphic" result="BlurAlpha" stdDeviation="1"/></filter><filter id="pastel"><feGaussianBlur in="SourceAlpha" result="blur" stdDeviation="2"/><feOffset dx="6" dy="6" in="blur" result="offsetBlur"/><feComposite in="SourceGraphic" in2="offsetBlur" operator="in" result="specOut"/></filter><filter id="blur_shadow"><feGaussianBlur in="SourceAlpha" result="blur" stdDeviation="3"/><feOffset dx="4" dy="2" in="blur" result="offsetBlur"/><feBlend in="SourceGraphic" in2="offsetBlur" mode="normal"/></filter><filter filterUnits="objectBoundingBox" id="Shadow"><feGaussianBlur in="SourceAlpha" result="flou" stdDeviation="0"/><feColorMatrix in="SourceAlpha" result="flouBlue" type="matrix" values=" 0 0 0 0 0                      0 0 0 0 0                     0 0 0 0 0                      0 0 0 0.3 0"/><feOffset dx="4" dy="4" in="flouBlue" result="flouDecalage"/><feBlend in="SourceGraphic" in2="flouDecalage" mode="normal"/></filter><filter filterUnits="objectBoundingBox" height="100%" id="SaturateMinus" width="100%" x="0%" y="0%"><feColorMatrix in="SourceGraphic" type="saturate" values="0.5"/></filter><filter filterUnits="objectBoundingBox" height="100%" id="SaturatePlus" width="100%" x="0%" y="0%"><feColorMatrix in="SourceGraphic" type="saturate" values="1.4"/></filter><linearGradient id="BlackGradient"><stop offset="0%" style="stop-color:rgb(0,0,0); stop-opacity:0"/><stop offset="100%" style="stop-color:rgb(0,0,0); stop-opacity:0.1"/></linearGradient><linearGradient id="WhiteGradient" x1="0%" x2="100%" y1="0%" y2="0%"><stop offset="0%" style="stop-color:rgb(255,255,255); stop-opacity:0.3"/><stop offset="100%" style="stop-color:rgb(255,255,255);stop-opacity:0"/></linearGradient><linearGradient id="WhiteBlackGradient" x1="0%" x2="100%" y1="0%" y2="0%"><stop offset="0%" style="stop-color:rgb(255,255,255); stop-opacity:0.15"/><stop offset="100%" style="stop-color:rgb(0,0,0);stop-opacity:0.15"/></linearGradient><linearGradient id="Black0Black1Gradient" x1="0%" x2="0%" y1="0%" y2="100%"><stop offset="0%" style="stop-color:rgb(0,0,0); stop-opacity:0"/><stop offset="100%" style="stop-color:rgb(0,0,0);stop-opacity:0.05"/></linearGradient><clipPath id="ID_graph_clip"><rect height="446" width="1120" x="38" y="22"/></clipPath></defs><!--global stroke and font styles--><g id="ID_globals" style="fill:black;stroke:none;font-family:Arial;font-size:12px;font-weight:normal;font-style:normal;text-decoration:none;shape-rendering:crispEdges"><!--draw title--><!--draw legend--><!--draw graph background--><rect fill="rgb(168,168,168)" fill-opacity="1" height="446" id="ID_background_shadow" rx="10" ry="10" stroke="none" visibility="visible" width="1120" x="39" y="23"/><g fill="rgb(229,229,229)" id="ID_background" visibility="visible"><rect height="446" rx="10" ry="10" stroke="none" width="1120" x="38" y="22"/><rect fill="url(#Black0Black1Gradient)" height="446" rx="10" ry="10" stroke="none" width="1120" x="38" y="22"/></g><clipPath id="ID_backgroundClipPath"><rect height="447" rx="10" ry="10" width="1121" x="38" y="22"/></clipPath><!--draw Y grid lines--><!--draw Y grid lines SHADOWS--><!--draw X grid lines--><!--draw X grid lines SHADOWS --><!--draw y=0 axe--><g id="ID_y0_axis" stroke="rgb(100,100,100)" stroke-width="1" visibility="visible"><line x1="38" x2="1158" y1="276.8571428571429" y2="276.8571428571429"/></g><!--draw axis x labels--><g id="ID_x_values" style="fill:black;stroke:none;font-family:Arial;font-size:12px;font-weight:normal;font-style:normal;text-decoration:none;filter:none"><text text-anchor="middle" x="111" y="486.8">PT8H0M0S</text><text text-anchor="middle" x="251" y="486.8">PT9H0M0S</text><text text-anchor="middle" x="391" y="486.8">PT10H0M0S</text><text text-anchor="middle" x="531" y="486.8">PT11H0M0S</text><text text-anchor="middle" x="671" y="486.8">PT11H15M0S</text><text text-anchor="middle" x="811" y="486.8">PT14H45M0S</text><text text-anchor="middle" x="951" y="486.8">PT15H0M0S</text><text text-anchor="middle" x="1091" y="486.8">PT16H0M0S</text></g><!--draw axis y labels--><g id="ID_y_values" style="fill:black;stroke:none;font-family:Arial;font-size:12px;font-weight:normal;font-style:normal;text-decoration:none;filter:none"><text text-anchor="end" x="28" y="472.8">-15</text><text text-anchor="end" x="28" y="409.0857142857143">-10</text><text text-anchor="end" x="28" y="345.37142857142857">-5</text><text text-anchor="end" x="28" y="281.6571428571429">0</text><text text-anchor="end" x="28" y="217.94285714285718">5</text><text text-anchor="end" x="28" y="154.22857142857146">10</text><text text-anchor="end" x="28" y="90.51428571428572">15</text><text text-anchor="end" x="28" y="26.800000000000058">20</text></g><!--draw lines and bullets--><g filter="none" id="allGroups"><!--draw bullet for data type 1--><g fill="rgb(0,178,195)" fill-opacity="1" id="ID_graph_1" stroke="black" stroke-opacity="0" stroke-width="0"><circle cx="108" cy="289.6" fill-opacity="1" r="8"/><circle cx="108" cy="289.6" fill="url(#WhiteGradient)" r="8"/><circle cx="108" cy="289.6" fill-opacity="0.4" filter="url(#SaturateMinus)" r="8"/><circle cx="108" cy="289.6" fill="url(#BlackGradient)" r="8"/><circle cx="248" cy="251.3714285714286" fill-opacity="1" r="8"/><circle cx="248" cy="251.3714285714286" fill="url(#WhiteGradient)" r="8"/><circle cx="248" cy="251.3714285714286" fill-opacity="0.4" filter="url(#SaturateMinus)" r="8"/><circle cx="248" cy="251.3714285714286" fill="url(#BlackGradient)" r="8"/><circle cx="388" cy="315.0857142857143" fill-opacity="1" r="8"/><circle cx="388" cy="315.0857142857143" fill="url(#WhiteGradient)" r="8"/><circle cx="388" cy="315.0857142857143" fill-opacity="0.4" filter="url(#SaturateMinus)" r="8"/><circle cx="388" cy="315.0857142857143" fill="url(#BlackGradient)" r="8"/><circle cx="528" cy="225.88571428571433" fill-opacity="1" r="8"/><circle cx="528" cy="225.88571428571433" fill="url(#WhiteGradient)" r="8"/><circle cx="528" cy="225.88571428571433" fill-opacity="0.4" filter="url(#SaturateMinus)" r="8"/><circle cx="528" cy="225.88571428571433" fill="url(#BlackGradient)" r="8"/><circle cx="668" cy="340.5714285714286" fill-opacity="1" r="8"/><circle cx="668" cy="340.5714285714286" fill="url(#WhiteGradient)" r="8"/><circle cx="668" cy="340.5714285714286" fill-opacity="0.4" filter="url(#SaturateMinus)" r="8"/><circle cx="668" cy="340.5714285714286" fill="url(#BlackGradient)" r="8"/><circle cx="808" cy="200.40000000000003" fill-opacity="1" r="8"/><circle cx="808" cy="200.40000000000003" fill="url(#WhiteGradient)" r="8"/><circle cx="808" cy="200.40000000000003" fill-opacity="0.4" filter="url(#SaturateMinus)" r="8"/><circle cx="808" cy="200.40000000000003" fill="url(#BlackGradient)" r="8"/><circle cx="948" cy="366.0571428571429" fill-opacity="1" r="8"/><circle cx="948" cy="366.0571428571429" fill="url(#WhiteGradient)" r="8"/><circle cx="948" cy="366.0571428571429" fill-opacity="0.4" filter="url(#SaturateMinus)" r="8"/><circle cx="948" cy="366.0571428571429" fill="url(#BlackGradient)" r="8"/><circle cx="1088" cy="174.91428571428577" fill-opacity="1" r="8"/><circle cx="1088" cy="174.91428571428577" fill="url(#WhiteGradient)" r="8"/><circle cx="1088" cy="174.91428571428577" fill-opacity="0.4" filter="url(#SaturateMinus)" r="8"/><circle cx="1088" cy="174.91428571428577" fill="url(#BlackGradient)" r="8"/></g><!--draw bullet for data type 2--><g fill="rgb(255,195,56)" fill-opacity="1" id="ID_graph_2" stroke="black" stroke-opacity="0" stroke-width="0"><circle cx="108" cy="290.87428571428575" fill-opacity="1" r="8"/><circle cx="108" cy="290.87428571428575" fill="url(#WhiteGradient)" r="8"/><circle cx="108" cy="290.87428571428575" fill-opacity="0.4" filter="url(#SaturateMinus)" r="8"/><circle cx="108" cy="290.87428571428575" fill="url(#BlackGradient)" r="8"/><circle cx="248" cy="248.82285714285717" fill-opacity="1" r="8"/><circle cx="248" cy="248.82285714285717" fill="url(#WhiteGradient)" r="8"/><circle cx="248" cy="248.82285714285717" fill-opacity="0.4" filter="url(#SaturateMinus)" r="8"/><circle cx="248" cy="248.82285714285717" fill="url(#BlackGradient)" r="8"/><circle cx="388" cy="318.90857142857146" fill-opacity="1" r="8"/><circle cx="388" cy="318.90857142857146" fill="url(#WhiteGradient)" r="8"/><circle cx="388" cy="318.90857142857146" fill-opacity="0.4" filter="url(#SaturateMinus)" r="8"/><circle cx="388" cy="318.90857142857146" fill="url(#BlackGradient)" r="8"/><circle cx="528" cy="220.78857142857146" fill-opacity="1" r="8"/><circle cx="528" cy="220.78857142857146" fill="url(#WhiteGradient)" r="8"/><circle cx="528" cy="220.78857142857146" fill-opacity="0.4" filter="url(#SaturateMinus)" r="8"/><circle cx="528" cy="220.78857142857146" fill="url(#BlackGradient)" r="8"/><circle cx="668" cy="346.9428571428572" fill-opacity="1" r="8"/><circle cx="668" cy="346.9428571428572" fill="url(#WhiteGradient)" r="8"/><circle cx="668" cy="346.9428571428572" fill-opacity="0.4" filter="url(#SaturateMinus)" r="8"/><circle cx="668" cy="346.9428571428572" fill="url(#BlackGradient)" r="8"/><circle cx="808" cy="192.75428571428574" fill-opacity="1" r="8"/><circle cx="808" cy="192.75428571428574" fill="url(#WhiteGradient)" r="8"/><circle cx="808" cy="192.75428571428574" fill-opacity="0.4" filter="url(#SaturateMinus)" r="8"/><circle cx="808" cy="192.75428571428574" fill="url(#BlackGradient)" r="8"/><circle cx="948" cy="374.9771428571429" fill-opacity="1" r="8"/><circle cx="948" cy="374.9771428571429" fill="url(#WhiteGradient)" r="8"/><circle cx="948" cy="374.9771428571429" fill-opacity="0.4" filter="url(#SaturateMinus)" r="8"/><circle cx="948" cy="374.9771428571429" fill="url(#BlackGradient)" r="8"/><circle cx="1088" cy="164.72000000000003" fill-opacity="1" r="8"/><circle cx="1088" cy="164.72000000000003" fill="url(#WhiteGradient)" r="8"/><circle cx="1088" cy="164.72000000000003" fill-opacity="0.4" filter="url(#SaturateMinus)" r="8"/><circle cx="1088" cy="164.72000000000003" fill="url(#BlackGradient)" r="8"/></g><!--draw bullet for data type 3--><g fill="rgb(87,62,130)" fill-opacity="1" id="ID_graph_3" stroke="black" stroke-opacity="0" stroke-width="0"><circle cx="108" cy="292.276" fill-opacity="1" r="8"/><circle cx="108" cy="292.276" fill="url(#WhiteGradient)" r="8"/><circle cx="108" cy="292.276" fill-opacity="0.4" filter="url(#SaturateMinus)" r="8"/><circle cx="108" cy="292.276" fill="url(#BlackGradient)" r="8"/><circle cx="248" cy="246.0194285714286" fill-opacity="1" r="8"/><circle cx="248" cy="246.0194285714286" fill="url(#WhiteGradient)" r="8"/><circle cx="248" cy="246.0194285714286" fill-opacity="0.4" filter="url(#SaturateMinus)" r="8"/><circle cx="248" cy="246.0194285714286" fill="url(#BlackGradient)" r="8"/><circle cx="388" cy="323.1137142857143" fill-opacity="1" r="8"/><circle cx="388" cy="323.1137142857143" fill="url(#WhiteGradient)" r="8"/><circle cx="388" cy="323.1137142857143" fill-opacity="0.4" filter="url(#SaturateMinus)" r="8"/><circle cx="388" cy="323.1137142857143" fill="url(#BlackGradient)" r="8"/><circle cx="528" cy="215.18171428571432" fill-opacity="1" r="8"/><circle cx="528" cy="215.18171428571432" fill="url(#WhiteGradient)" r="8"/><circle cx="528" cy="215.18171428571432" fill-opacity="0.4" filter="url(#SaturateMinus)" r="8"/><circle cx="528" cy="215.18171428571432" fill="url(#BlackGradient)" r="8"/><circle cx="668" cy="353.9514285714286" fill-opacity="1" r="8"/><circle cx="668" cy="353.9514285714286" fill="url(#WhiteGradient)" r="8"/><circle cx="668" cy="353.9514285714286" fill-opacity="0.4" filter="url(#SaturateMinus)" r="8"/><circle cx="668" cy="353.9514285714286" fill="url(#BlackGradient)" r="8"/><circle cx="808" cy="184.34400000000005" fill-opacity="1" r="8"/><circle cx="808" cy="184.34400000000005" fill="url(#WhiteGradient)" r="8"/><circle cx="808" cy="184.34400000000005" fill-opacity="0.4" filter="url(#SaturateMinus)" r="8"/><circle cx="808" cy="184.34400000000005" fill="url(#BlackGradient)" r="8"/><circle cx="948" cy="384.7891428571429" fill-opacity="1" r="8"/><circle cx="948" cy="384.7891428571429" fill="url(#WhiteGradient)" r="8"/><circle cx="948" cy="384.7891428571429" fill-opacity="0.4" filter="url(#SaturateMinus)" r="8"/><circle cx="948" cy="384.7891428571429" fill="url(#BlackGradient)" r="8"/><circle cx="1088" cy="153.50628571428575" fill-opacity="1" r="8"/><circle cx="1088" cy="153.50628571428575" fill="url(#WhiteGradient)" r="8"/><circle cx="1088" cy="153.50628571428575" fill-opacity="0.4" filter="url(#SaturateMinus)" r="8"/><circle cx="1088" cy="153.50628571428575" fill="url(#BlackGradient)" r="8"/></g><!--draw bullet for data type 4--><g fill="rgb(79,168,57)" fill-opacity="1" id="ID_graph_4" stroke="black" stroke-opacity="0" stroke-width="0"><circle cx="108" cy="293.81788571428575" fill-opacity="1" r="8"/><circle cx="108" cy="293.81788571428575" fill="url(#WhiteGradient)" r="8"/><circle cx="108" cy="293.81788571428575" fill-opacity="0.4" filter="url(#SaturateMinus)" r="8"/><circle cx="108" cy="293.81788571428575" fill="url(#BlackGradient)" r="8"/><circle cx="248" cy="242.93565714285717" fill-opacity="1" r="8"/><circle cx="248" cy="242.93565714285717" fill="url(#WhiteGradient)" r="8"/><circle cx="248" cy="242.93565714285717" fill-opacity="0.4" filter="url(#SaturateMinus)" r="8"/><circle cx="248" cy="242.93565714285717" fill="url(#BlackGradient)" r="8"/><circle cx="388" cy="327.7393714285715" fill-opacity="1" r="8"/><circle cx="388" cy="327.7393714285715" fill="url(#WhiteGradient)" r="8"/><circle cx="388" cy="327.7393714285715" fill-opacity="0.4" filter="url(#SaturateMinus)" r="8"/><circle cx="388" cy="327.7393714285715" fill="url(#BlackGradient)" r="8"/><circle cx="528" cy="209.01417142857147" fill-opacity="1" r="8"/><circle cx="528" cy="209.01417142857147" fill="url(#WhiteGradient)" r="8"/><circle cx="528" cy="209.01417142857147" fill-opacity="0.4" filter="url(#SaturateMinus)" r="8"/><circle cx="528" cy="209.01417142857147" fill="url(#BlackGradient)" r="8"/><circle cx="668" cy="361.66085714285714" fill-opacity="1" r="8"/><circle cx="668" cy="361.66085714285714" fill="url(#WhiteGradient)" r="8"/><circle cx="668" cy="361.66085714285714" fill-opacity="0.4" filter="url(#SaturateMinus)" r="8"/><circle cx="668" cy="361.66085714285714" fill="url(#BlackGradient)" r="8"/><circle cx="808" cy="175.09268571428575" fill-opacity="1" r="8"/><circle cx="808" cy="175.09268571428575" fill="url(#WhiteGradient)" r="8"/><circle cx="808" cy="175.09268571428575" fill-opacity="0.4" filter="url(#SaturateMinus)" r="8"/><circle cx="808" cy="175.09268571428575" fill="url(#BlackGradient)" r="8"/><circle cx="948" cy="395.58234285714286" fill-opacity="1" r="8"/><circle cx="948" cy="395.58234285714286" fill="url(#WhiteGradient)" r="8"/><circle cx="948" cy="395.58234285714286" fill-opacity="0.4" filter="url(#SaturateMinus)" r="8"/><circle cx="948" cy="395.58234285714286" fill="url(#BlackGradient)" r="8"/><circle cx="1088" cy="141.17120000000006" fill-opacity="1" r="8"/><circle cx="1088" cy="141.17120000000006" fill="url(#WhiteGradient)" r="8"/><circle cx="1088" cy="141.17120000000006" fill-opacity="0.4" filter="url(#SaturateMinus)" r="8"/><circle cx="1088" cy="141.17120000000006" fill="url(#BlackGradient)" r="8"/></g><!--draw bullet for data type 5--><g fill="rgb(217,87,0)" fill-opacity="1" id="ID_graph_5" stroke="black" stroke-opacity="0" stroke-width="0"><circle cx="108" cy="295.51396000000005" fill-opacity="1" r="8"/><circle cx="108" cy="295.51396000000005" fill="url(#WhiteGradient)" r="8"/><circle cx="108" cy="295.51396000000005" fill-opacity="0.4" filter="url(#SaturateMinus)" r="8"/><circle cx="108" cy="295.51396000000005" fill="url(#BlackGradient)" r="8"/><circle cx="248" cy="239.54350857142862" fill-opacity="1" r="8"/><circle cx="248" cy="239.54350857142862" fill="url(#WhiteGradient)" r="8"/><circle cx="248" cy="239.54350857142862" fill-opacity="0.4" filter="url(#SaturateMinus)" r="8"/><circle cx="248" cy="239.54350857142862" fill="url(#BlackGradient)" r="8"/><circle cx="388" cy="332.8275942857143" fill-opacity="1" r="8"/><circle cx="388" cy="332.8275942857143" fill="url(#WhiteGradient)" r="8"/><circle cx="388" cy="332.8275942857143" fill-opacity="0.4" filter="url(#SaturateMinus)" r="8"/><circle cx="388" cy="332.8275942857143" fill="url(#BlackGradient)" r="8"/><circle cx="528" cy="202.22987428571435" fill-opacity="1" r="8"/><circle cx="528" cy="202.22987428571435" fill="url(#WhiteGradient)" r="8"/><circle cx="528" cy="202.22987428571435" fill-opacity="0.4" filter="url(#SaturateMinus)" r="8"/><circle cx="528" cy="202.22987428571435" fill="url(#BlackGradient)" r="8"/><circle cx="668" cy="370.1412285714286" fill-opacity="1" r="8"/><circle cx="668" cy="370.1412285714286" fill="url(#WhiteGradient)" r="8"/><circle cx="668" cy="370.1412285714286" fill-opacity="0.4" filter="url(#SaturateMinus)" r="8"/><circle cx="668" cy="370.1412285714286" fill="url(#BlackGradient)" r="8"/><circle cx="808" cy="164.91624000000004" fill-opacity="1" r="8"/><circle cx="808" cy="164.91624000000004" fill="url(#WhiteGradient)" r="8"/><circle cx="808" cy="164.91624000000004" fill-opacity="0.4" filter="url(#SaturateMinus)" r="8"/><circle cx="808" cy="164.91624000000004" fill="url(#BlackGradient)" r="8"/><circle cx="948" cy="407.45486285714287" fill-opacity="1" r="8"/><circle cx="948" cy="407.45486285714287" fill="url(#WhiteGradient)" r="8"/><circle cx="948" cy="407.45486285714287" fill-opacity="0.4" filter="url(#SaturateMinus)" r="8"/><circle cx="948" cy="407.45486285714287" fill="url(#BlackGradient)" r="8"/><circle cx="1088" cy="127.60260571428577" fill-opacity="1" r="8"/><circle cx="1088" cy="127.60260571428577" fill="url(#WhiteGradient)" r="8"/><circle cx="1088" cy="127.60260571428577" fill-opacity="0.4" filter="url(#SaturateMinus)" r="8"/><circle cx="1088" cy="127.60260571428577" fill="url(#BlackGradient)" r="8"/></g><!--draw bullet for data type 6--><g fill="rgb(29,157,242)" fill-opacity="1" id="ID_graph_6" stroke="black" stroke-opacity="0" stroke-width="0"><circle cx="108" cy="297.37964171428575" fill-opacity="1" r="8"/><circle cx="108" cy="297.37964171428575" fill="url(#WhiteGradient)" r="8"/><circle cx="108" cy="297.37964171428575" fill-opacity="0.4" filter="url(#SaturateMinus)" r="8"/><circle cx="108" cy="297.37964171428575" fill="url(#BlackGradient)" r="8"/><circle cx="248" cy="235.81214514285716" fill-opacity="1" r="8"/><circle cx="248" cy="235.81214514285716" fill="url(#WhiteGradient)" r="8"/><circle cx="248" cy="235.81214514285716" fill-opacity="0.4" filter="url(#SaturateMinus)" r="8"/><circle cx="248" cy="235.81214514285716" fill="url(#BlackGradient)" r="8"/><circle cx="388" cy="338.4246394285715" fill-opacity="1" r="8"/><circle cx="388" cy="338.4246394285715" fill="url(#WhiteGradient)" r="8"/><circle cx="388" cy="338.4246394285715" fill-opacity="0.4" filter="url(#SaturateMinus)" r="8"/><circle cx="388" cy="338.4246394285715" fill="url(#BlackGradient)" r="8"/><circle cx="528" cy="194.76714742857146" fill-opacity="1" r="8"/><circle cx="528" cy="194.76714742857146" fill="url(#WhiteGradient)" r="8"/><circle cx="528" cy="194.76714742857146" fill-opacity="0.4" filter="url(#SaturateMinus)" r="8"/><circle cx="528" cy="194.76714742857146" fill="url(#BlackGradient)" r="8"/><circle cx="668" cy="379.46963714285715" fill-opacity="1" r="8"/><circle cx="668" cy="379.46963714285715" fill="url(#WhiteGradient)" r="8"/><circle cx="668" cy="379.46963714285715" fill-opacity="0.4" filter="url(#SaturateMinus)" r="8"/><circle cx="668" cy="379.46963714285715" fill="url(#BlackGradient)" r="8"/><circle cx="808" cy="153.72214971428576" fill-opacity="1" r="8"/><circle cx="808" cy="153.72214971428576" fill="url(#WhiteGradient)" r="8"/><circle cx="808" cy="153.72214971428576" fill-opacity="0.4" filter="url(#SaturateMinus)" r="8"/><circle cx="808" cy="153.72214971428576" fill="url(#BlackGradient)" r="8"/><circle cx="948" cy="420.5146348571429" fill-opacity="1" r="8"/><circle cx="948" cy="420.5146348571429" fill="url(#WhiteGradient)" r="8"/><circle cx="948" cy="420.5146348571429" fill-opacity="0.4" filter="url(#SaturateMinus)" r="8"/><circle cx="948" cy="420.5146348571429" fill="url(#BlackGradient)" r="8"/><circle cx="1088" cy="112.67715200000004" fill-opacity="1" r="8"/><circle cx="1088" cy="112.67715200000004" fill="url(#WhiteGradient)" r="8"/><circle cx="1088" cy="112.67715200000004" fill-opacity="0.4" filter="url(#SaturateMinus)" r="8"/><circle cx="1088" cy="112.67715200000004" fill="url(#BlackGradient)" r="8"/></g><!--draw bullet for data type 7--><g fill="rgb(181,207,50)" fill-opacity="1" id="ID_graph_7" stroke="black" stroke-opacity="0" stroke-width="0"><circle cx="108" cy="299.43189160000003" fill-opacity="1" r="8"/><circle cx="108" cy="299.43189160000003" fill="url(#WhiteGradient)" r="8"/><circle cx="108" cy="299.43189160000003" fill-opacity="0.4" filter="url(#SaturateMinus)" r="8"/><circle cx="108" cy="299.43189160000003" fill="url(#BlackGradient)" r="8"/><circle cx="248" cy="231.7076453714286" fill-opacity="1" r="8"/><circle cx="248" cy="231.7076453714286" fill="url(#WhiteGradient)" r="8"/><circle cx="248" cy="231.7076453714286" fill-opacity="0.4" filter="url(#SaturateMinus)" r="8"/><circle cx="248" cy="231.7076453714286" fill="url(#BlackGradient)" r="8"/><circle cx="388" cy="344.5813890857143" fill-opacity="1" r="8"/><circle cx="388" cy="344.5813890857143" fill="url(#WhiteGradient)" r="8"/><circle cx="388" cy="344.5813890857143" fill-opacity="0.4" filter="url(#SaturateMinus)" r="8"/><circle cx="388" cy="344.5813890857143" fill="url(#BlackGradient)" r="8"/><circle cx="528" cy="186.55814788571433" fill-opacity="1" r="8"/><circle cx="528" cy="186.55814788571433" fill="url(#WhiteGradient)" r="8"/><circle cx="528" cy="186.55814788571433" fill-opacity="0.4" filter="url(#SaturateMinus)" r="8"/><circle cx="528" cy="186.55814788571433" fill="url(#BlackGradient)" r="8"/><circle cx="668" cy="389.73088657142864" fill-opacity="1" r="8"/><circle cx="668" cy="389.73088657142864" fill="url(#WhiteGradient)" r="8"/><circle cx="668" cy="389.73088657142864" fill-opacity="0.4" filter="url(#SaturateMinus)" r="8"/><circle cx="668" cy="389.73088657142864" fill="url(#BlackGradient)" r="8"/><circle cx="808" cy="141.40865040000006" fill-opacity="1" r="8"/><circle cx="808" cy="141.40865040000006" fill="url(#WhiteGradient)" r="8"/><circle cx="808" cy="141.40865040000006" fill-opacity="0.4" filter="url(#SaturateMinus)" r="8"/><circle cx="808" cy="141.40865040000006" fill="url(#BlackGradient)" r="8"/><circle cx="948" cy="434.88038405714286" fill-opacity="1" r="8"/><circle cx="948" cy="434.88038405714286" fill="url(#WhiteGradient)" r="8"/><circle cx="948" cy="434.88038405714286" fill-opacity="0.4" filter="url(#SaturateMinus)" r="8"/><circle cx="948" cy="434.88038405714286" fill="url(#BlackGradient)" r="8"/><circle cx="1088" cy="96.25915291428578" fill-opacity="1" r="8"/><circle cx="1088" cy="96.25915291428578" fill="url(#WhiteGradient)" r="8"/><circle cx="1088" cy="96.25915291428578" fill-opacity="0.4" filter="url(#SaturateMinus)" r="8"/><circle cx="1088" cy="96.25915291428578" fill="url(#BlackGradient)" r="8"/></g><!--draw bullet for data type 8--><g fill="rgb(212,58,38)" fill-opacity="1" id="ID_graph_8" stroke="black" stroke-opacity="0" stroke-width="0"><circle cx="108" cy="301.68936647428575" fill-opacity="1" r="8"/><circle cx="108" cy="301.68936647428575" fill="url(#WhiteGradient)" r="8"/><circle cx="108" cy="301.68936647428575" fill-opacity="0.4" filter="url(#SaturateMinus)" r="8"/><circle cx="108" cy="301.68936647428575" fill="url(#BlackGradient)" r="8"/><circle cx="248" cy="227.19269562285717" fill-opacity="1" r="8"/><circle cx="248" cy="227.19269562285717" fill="url(#WhiteGradient)" r="8"/><circle cx="248" cy="227.19269562285717" fill-opacity="0.4" filter="url(#SaturateMinus)" r="8"/><circle cx="248" cy="227.19269562285717" fill="url(#BlackGradient)" r="8"/><circle cx="388" cy="351.35381370857147" fill-opacity="1" r="8"/><circle cx="388" cy="351.35381370857147" fill="url(#WhiteGradient)" r="8"/><circle cx="388" cy="351.35381370857147" fill-opacity="0.4" filter="url(#SaturateMinus)" r="8"/><circle cx="388" cy="351.35381370857147" fill="url(#BlackGradient)" r="8"/><circle cx="528" cy="177.52824838857146" fill-opacity="1" r="8"/><circle cx="528" cy="177.52824838857146" fill="url(#WhiteGradient)" r="8"/><circle cx="528" cy="177.52824838857146" fill-opacity="0.4" filter="url(#SaturateMinus)" r="8"/><circle cx="528" cy="177.52824838857146" fill="url(#BlackGradient)" r="8"/><circle cx="668" cy="401.0182609428572" fill-opacity="1" r="8"/><circle cx="668" cy="401.0182609428572" fill="url(#WhiteGradient)" r="8"/><circle cx="668" cy="401.0182609428572" fill-opacity="0.4" filter="url(#SaturateMinus)" r="8"/><circle cx="668" cy="401.0182609428572" fill="url(#BlackGradient)" r="8"/><circle cx="808" cy="127.86380115428577" fill-opacity="1" r="8"/><circle cx="808" cy="127.86380115428577" fill="url(#WhiteGradient)" r="8"/><circle cx="808" cy="127.86380115428577" fill-opacity="0.4" filter="url(#SaturateMinus)" r="8"/><circle cx="808" cy="127.86380115428577" fill="url(#BlackGradient)" r="8"/><circle cx="948" cy="450.6827081771429" fill-opacity="1" r="8"/><circle cx="948" cy="450.6827081771429" fill="url(#WhiteGradient)" r="8"/><circle cx="948" cy="450.6827081771429" fill-opacity="0.4" filter="url(#SaturateMinus)" r="8"/><circle cx="948" cy="450.6827081771429" fill="url(#BlackGradient)" r="8"/><circle cx="1088" cy="78.19935392000005" fill-opacity="1" r="8"/><circle cx="1088" cy="78.19935392000005" fill="url(#WhiteGradient)" r="8"/><circle cx="1088" cy="78.19935392000005" fill-opacity="0.4" filter="url(#SaturateMinus)" r="8"/><circle cx="1088" cy="78.19935392000005" fill="url(#BlackGradient)" r="8"/></g></g></g></svg>