<?xml version="1.0" encoding="UTF-8" standalone="no" ?><svg xmlns="http://www.w3.org/2000/svg" id="ID_svg" viewBox="0 0 1168 500" viewport-fill="white" viewport-fill-opacity="0" xmlns:exsl4D="http://www.4D.com" xmlns:math="http://exslt.org/math" xmlns:xlink="http://www.w3.org/1999/xlink"><!--gradient styles--><defs><filter id="soft_blur"><feGaussianBlur in="SourceGraphic" result="BlurAlpha" stdDeviation="1"/></filter><filter id="pastel"><feGaussianBlur in="SourceAlpha" result="blur" stdDeviation="2"/><feOffset dx="6" dy="6" in="blur" result="offsetBlur"/><feComposite in="SourceGraphic" in2="offsetBlur" operator="in" result="specOut"/></filter><filter id="blur_shadow"><feGaussianBlur in="SourceAlpha" result="blur" stdDeviation="3"/><feOffset dx="4" dy="2" in="blur" result="offsetBlur"/><feBlend in="SourceGraphic" in2="offsetBlur" mode="normal"/></filter><filter filterUnits="objectBoundingBox" id="Shadow"><feGaussianBlur in="SourceAlpha" result="flou" stdDeviation="0"/><feColorMatrix in="SourceAlpha" result="flouBlue" type="matrix" values=" 0 0 0 0 0                      0 0 0 0 0                     0 0 0 0 0                      0 0 0 0.3 0"/><feOffset dx="4" dy="4" in="flouBlue" result="flouDecalage"/><feBlend in="SourceGraphic" in2="flouDecalage" mode="normal"/></filter><filter filterUnits="objectBoundingBox" height="100%" id="SaturateMinus" width="100%" x="0%" y="0%"><feColorMatrix in="SourceGraphic" type="saturate" values="0.5"/></filter><filter filterUnits="objectBoundingBox" height="100%" id="SaturatePlus" width="100%" x="0%" y="0%"><feColorMatrix in="SourceGraphic" type="saturate" values="1.4"/></filter><linearGradient id="BlackGradient"><stop offset="0%" style="stop-color:rgb(0,0,0); stop-opacity:0"/><stop offset="100%" style="stop-color:rgb(0,0,0); stop-opacity:0.1"/></linearGradient><linearGradient id="WhiteGradient" x1="0%" x2="100%" y1="0%" y2="0%"><stop offset="0%" style="stop-color:rgb(255,255,255); stop-opacity:0.3"/><stop offset="100%" style="stop-color:rgb(255,255,255);stop-opacity:0"/></linearGradient><linearGradient id="WhiteBlackGradient" x1="0%" x2="100%" y1="0%" y2="0%"><stop offset="0%" style="stop-color:rgb(255,255,255); stop-opacity:0.15"/><stop offset="100%" style="stop-color:rgb(0,0,0);stop-opacity:0.15"/></linearGradient><linearGradient id="Black0Black1Gradient" x1="0%" x2="0%" y1="0%" y2="100%"><stop offset="0%" style="stop-color:rgb(0,0,0); stop-opacity:0"/><stop offset="100%" style="stop-color:rgb(0,0,0);stop-opacity:0.05"/></linearGradient><clipPath id="ID_graph_clip"><rect height="446" width="1120" x="38" y="22"/></clipPath></defs><!--global stroke and font styles--><g id="ID_globals" style="fill:black;stroke:none;font-family:Arial;font-size:12px;font-weight:normal;font-style:normal;text-decoration:none;shape-rendering:crispEdges"><!--draw title--><!--draw legend--><!--draw graph background--><rect fill="rgb(168,168,168)" fill-opacity="1" height="446" id="ID_background_shadow" rx="10" ry="10" stroke="none" visibility="visible" width="1120" x="39" y="23"/><g fill="rgb(229,229,229)" id="ID_background" visibility="visible"><rect height="446" rx="10" ry="10" stroke="none" width="1120" x="38" y="22"/><rect fill="url(#Black0Black1Gradient)" height="446" rx="10" ry="10" stroke="none" width="1120" x="38" y="22"/></g><clipPath id="ID_backgroundClipPath"><rect height="447" rx="10" ry="10" width="1121" x="38" y="22"/></clipPath><!--draw Y grid lines--><!--draw Y grid lines SHADOWS--><!--draw X grid lines--><!--draw X grid lines SHADOWS --><!--draw y=0 axe--><g id="ID_y0_axis" stroke="rgb(100,100,100)" stroke-width="1" visibility="visible"><line x1="38" x2="1158" y1="245" y2="245"/></g><!--draw axis x labels--><g id="ID_x_values" style="fill:black;stroke:none;font-family:Arial;font-size:12px;font-weight:normal;font-style:normal;text-decoration:none;filter:none"><text text-anchor="middle" x="111" y="486.8">PT8H0M0S</text><text text-anchor="middle" x="251" y="486.8">PT9H0M0S</text><text text-anchor="middle" x="391" y="486.8">PT10H0M0S</text><text text-anchor="middle" x="531" y="486.8">PT11H0M0S</text><text text-anchor="middle" x="671" y="486.8">PT11H15M0S</text><text text-anchor="middle" x="811" y="486.8">PT14H45M0S</text><text text-anchor="middle" x="951" y="486.8">PT15H0M0S</text><text text-anchor="middle" x="1091" y="486.8">PT16H0M0S</text></g><!--draw axis y labels--><g id="ID_y_values" style="fill:black;stroke:none;font-family:Arial;font-size:12px;font-weight:normal;font-style:normal;text-decoration:none;filter:none"><text text-anchor="end" x="28" y="472.8">-15</text><text text-anchor="end" x="28" y="398.46666666666664">-10</text><text text-anchor="end" x="28" y="324.1333333333333">-5</text><text text-anchor="end" x="28" y="249.8">0</text><text text-anchor="end" x="28" y="175.46666666666664">5</text><text text-anchor="end" x="28" y="101.13333333333331">10</text><text text-anchor="end" x="28" y="26.8">15</text></g><!--draw lines and bullets--><g filter="none" stroke-width="2"><!--draw line for data type 1--><g filter="none" id="ID_graph_1" stroke="rgb(0,178,195)" stroke-opacity="1" stroke-width="2"><line fill-opacity="1" x1="108" x2="248" y1="259.8666666666667" y2="215.26666666666665"/><line fill-opacity="1" x1="248" x2="388" y1="215.26666666666665" y2="289.6"/><line fill-opacity="1" x1="388" x2="528" y1="289.6" y2="185.53333333333333"/><line fill-opacity="1" x1="528" x2="668" y1="185.53333333333333" y2="319.33333333333337"/><line fill-opacity="1" x1="668" x2="808" y1="319.33333333333337" y2="155.8"/><line fill-opacity="1" x1="808" x2="948" y1="155.8" y2="349.06666666666666"/><line fill-opacity="1" x1="948" x2="1088" y1="349.06666666666666" y2="126.06666666666666"/></g><!--draw line for data type 2--><g filter="none" id="ID_graph_2" stroke="rgb(255,195,56)" stroke-opacity="1" stroke-width="2"><line fill-opacity="1" x1="108" x2="248" y1="261.35333333333335" y2="212.29333333333332"/><line fill-opacity="1" x1="248" x2="388" y1="212.29333333333332" y2="294.06"/><line fill-opacity="1" x1="388" x2="528" y1="294.06" y2="179.58666666666664"/><line fill-opacity="1" x1="528" x2="668" y1="179.58666666666664" y2="326.76666666666665"/><line fill-opacity="1" x1="668" x2="808" y1="326.76666666666665" y2="146.88"/><line fill-opacity="1" x1="808" x2="948" y1="146.88" y2="359.47333333333336"/><line fill-opacity="1" x1="948" x2="1088" y1="359.47333333333336" y2="114.17333333333332"/></g><!--draw line for data type 3--><g filter="none" id="ID_graph_3" stroke="rgb(87,62,130)" stroke-opacity="1" stroke-width="2"><line fill-opacity="1" x1="108" x2="248" y1="262.9886666666667" y2="209.02266666666668"/><line fill-opacity="1" x1="248" x2="388" y1="209.02266666666668" y2="298.966"/><line fill-opacity="1" x1="388" x2="528" y1="298.966" y2="173.04533333333333"/><line fill-opacity="1" x1="528" x2="668" y1="173.04533333333333" y2="334.9433333333333"/><line fill-opacity="1" x1="668" x2="808" y1="334.9433333333333" y2="137.06799999999998"/><line fill-opacity="1" x1="808" x2="948" y1="137.06799999999998" y2="370.92066666666665"/><line fill-opacity="1" x1="948" x2="1088" y1="370.92066666666665" y2="101.09066666666666"/></g><!--draw line for data type 4--><g filter="none" id="ID_graph_4" stroke="rgb(79,168,57)" stroke-opacity="1" stroke-width="2"><line fill-opacity="1" x1="108" x2="248" y1="264.78753333333333" y2="205.42493333333334"/><line fill-opacity="1" x1="248" x2="388" y1="205.42493333333334" y2="304.3626"/><line fill-opacity="1" x1="388" x2="528" y1="304.3626" y2="165.84986666666668"/><line fill-opacity="1" x1="528" x2="668" y1="165.84986666666668" y2="343.9376666666667"/><line fill-opacity="1" x1="668" x2="808" y1="343.9376666666667" y2="126.2748"/><line fill-opacity="1" x1="808" x2="948" y1="126.2748" y2="383.51273333333336"/><line fill-opacity="1" x1="948" x2="1088" y1="383.51273333333336" y2="86.69973333333334"/></g><!--draw line for data type 5--><g filter="none" id="ID_graph_5" stroke="rgb(217,87,0)" stroke-opacity="1" stroke-width="2"><line fill-opacity="1" x1="108" x2="248" y1="266.76628666666664" y2="201.46742666666665"/><line fill-opacity="1" x1="248" x2="388" y1="201.46742666666665" y2="310.29886"/><line fill-opacity="1" x1="388" x2="528" y1="310.29886" y2="157.93485333333334"/><line fill-opacity="1" x1="528" x2="668" y1="157.93485333333334" y2="353.83143333333334"/><line fill-opacity="1" x1="668" x2="808" y1="353.83143333333334" y2="114.40228000000002"/><line fill-opacity="1" x1="808" x2="948" y1="114.40228000000002" y2="397.3640066666667"/><line fill-opacity="1" x1="948" x2="1088" y1="397.3640066666667" y2="70.86970666666667"/></g><!--draw line for data type 6--><g filter="none" id="ID_graph_6" stroke="rgb(29,157,242)" stroke-opacity="1" stroke-width="2"><line fill-opacity="1" x1="108" x2="248" y1="268.94291533333336" y2="197.11416933333334"/><line fill-opacity="1" x1="248" x2="388" y1="197.11416933333334" y2="316.828746"/><line fill-opacity="1" x1="388" x2="528" y1="316.828746" y2="149.22833866666667"/><line fill-opacity="1" x1="528" x2="668" y1="149.22833866666667" y2="364.7145766666667"/><line fill-opacity="1" x1="668" x2="808" y1="364.7145766666667" y2="101.34250800000001"/><line fill-opacity="1" x1="808" x2="948" y1="101.34250800000001" y2="412.60040733333335"/><line fill-opacity="1" x1="948" x2="1088" y1="412.60040733333335" y2="53.45667733333332"/></g><!--draw line for data type 7--><g filter="none" id="ID_graph_7" stroke="rgb(181,207,50)" stroke-opacity="1" stroke-width="2"><line fill-opacity="1" x1="108" x2="248" y1="271.3372068666667" y2="192.32558626666668"/><line fill-opacity="1" x1="248" x2="388" y1="192.32558626666668" y2="324.0116206"/><line fill-opacity="1" x1="388" x2="528" y1="324.0116206" y2="139.65117253333335"/><line fill-opacity="1" x1="528" x2="668" y1="139.65117253333335" y2="376.68603433333334"/><line fill-opacity="1" x1="668" x2="808" y1="376.68603433333334" y2="86.9767588"/><line fill-opacity="1" x1="808" x2="948" y1="86.9767588" y2="429.36044806666666"/><line fill-opacity="1" x1="948" x2="1088" y1="429.36044806666666" y2="34.302345066666675"/></g><g id="allBullets"><!--draw bullet for data type 1--><g fill="rgb(0,178,195)" fill-opacity="1" filter="none" id="ID_bullet_1" stroke="none" stroke-opacity="1" stroke-width="1"><rect height="12" rx="1.5" ry="1.5" width="12" x="102" y="253.86666666666667"/><rect fill="url(#WhiteBlackGradient)" height="12" rx="1.5" ry="1.5" width="12" x="102" y="253.86666666666667"/><rect fill-opacity="0.3" filter="url(#SaturateMinus)" height="12" rx="1.5" ry="1.5" width="12" x="102" y="253.86666666666667"/><rect height="12" rx="1.5" ry="1.5" width="12" x="242" y="209.26666666666665"/><rect fill="url(#WhiteBlackGradient)" height="12" rx="1.5" ry="1.5" width="12" x="242" y="209.26666666666665"/><rect fill-opacity="0.3" filter="url(#SaturateMinus)" height="12" rx="1.5" ry="1.5" width="12" x="242" y="209.26666666666665"/><rect height="12" rx="1.5" ry="1.5" width="12" x="382" y="283.6"/><rect fill="url(#WhiteBlackGradient)" height="12" rx="1.5" ry="1.5" width="12" x="382" y="283.6"/><rect fill-opacity="0.3" filter="url(#SaturateMinus)" height="12" rx="1.5" ry="1.5" width="12" x="382" y="283.6"/><rect height="12" rx="1.5" ry="1.5" width="12" x="522" y="179.53333333333333"/><rect fill="url(#WhiteBlackGradient)" height="12" rx="1.5" ry="1.5" width="12" x="522" y="179.53333333333333"/><rect fill-opacity="0.3" filter="url(#SaturateMinus)" height="12" rx="1.5" ry="1.5" width="12" x="522" y="179.53333333333333"/><rect height="12" rx="1.5" ry="1.5" width="12" x="662" y="313.33333333333337"/><rect fill="url(#WhiteBlackGradient)" height="12" rx="1.5" ry="1.5" width="12" x="662" y="313.33333333333337"/><rect fill-opacity="0.3" filter="url(#SaturateMinus)" height="12" rx="1.5" ry="1.5" width="12" x="662" y="313.33333333333337"/><rect height="12" rx="1.5" ry="1.5" width="12" x="802" y="149.8"/><rect fill="url(#WhiteBlackGradient)" height="12" rx="1.5" ry="1.5" width="12" x="802" y="149.8"/><rect fill-opacity="0.3" filter="url(#SaturateMinus)" height="12" rx="1.5" ry="1.5" width="12" x="802" y="149.8"/><rect height="12" rx="1.5" ry="1.5" width="12" x="942" y="343.06666666666666"/><rect fill="url(#WhiteBlackGradient)" height="12" rx="1.5" ry="1.5" width="12" x="942" y="343.06666666666666"/><rect fill-opacity="0.3" filter="url(#SaturateMinus)" height="12" rx="1.5" ry="1.5" width="12" x="942" y="343.06666666666666"/><rect height="12" rx="1.5" ry="1.5" width="12" x="1082" y="120.06666666666666"/><rect fill="url(#WhiteBlackGradient)" height="12" rx="1.5" ry="1.5" width="12" x="1082" y="120.06666666666666"/><rect fill-opacity="0.3" filter="url(#SaturateMinus)" height="12" rx="1.5" ry="1.5" width="12" x="1082" y="120.06666666666666"/></g><!--draw bullet for data type 2--><g fill="rgb(255,195,56)" fill-opacity="1" filter="none" id="ID_bullet_2" stroke="none" stroke-opacity="1" stroke-width="1"><rect height="12" rx="1.5" ry="1.5" width="12" x="102" y="255.35333333333335"/><rect fill="url(#WhiteBlackGradient)" height="12" rx="1.5" ry="1.5" width="12" x="102" y="255.35333333333335"/><rect fill-opacity="0.3" filter="url(#SaturateMinus)" height="12" rx="1.5" ry="1.5" width="12" x="102" y="255.35333333333335"/><rect height="12" rx="1.5" ry="1.5" width="12" x="242" y="206.29333333333332"/><rect fill="url(#WhiteBlackGradient)" height="12" rx="1.5" ry="1.5" width="12" x="242" y="206.29333333333332"/><rect fill-opacity="0.3" filter="url(#SaturateMinus)" height="12" rx="1.5" ry="1.5" width="12" x="242" y="206.29333333333332"/><rect height="12" rx="1.5" ry="1.5" width="12" x="382" y="288.06"/><rect fill="url(#WhiteBlackGradient)" height="12" rx="1.5" ry="1.5" width="12" x="382" y="288.06"/><rect fill-opacity="0.3" filter="url(#SaturateMinus)" height="12" rx="1.5" ry="1.5" width="12" x="382" y="288.06"/><rect height="12" rx="1.5" ry="1.5" width="12" x="522" y="173.58666666666664"/><rect fill="url(#WhiteBlackGradient)" height="12" rx="1.5" ry="1.5" width="12" x="522" y="173.58666666666664"/><rect fill-opacity="0.3" filter="url(#SaturateMinus)" height="12" rx="1.5" ry="1.5" width="12" x="522" y="173.58666666666664"/><rect height="12" rx="1.5" ry="1.5" width="12" x="662" y="320.76666666666665"/><rect fill="url(#WhiteBlackGradient)" height="12" rx="1.5" ry="1.5" width="12" x="662" y="320.76666666666665"/><rect fill-opacity="0.3" filter="url(#SaturateMinus)" height="12" rx="1.5" ry="1.5" width="12" x="662" y="320.76666666666665"/><rect height="12" rx="1.5" ry="1.5" width="12" x="802" y="140.88"/><rect fill="url(#WhiteBlackGradient)" height="12" rx="1.5" ry="1.5" width="12" x="802" y="140.88"/><rect fill-opacity="0.3" filter="url(#SaturateMinus)" height="12" rx="1.5" ry="1.5" width="12" x="802" y="140.88"/><rect height="12" rx="1.5" ry="1.5" width="12" x="942" y="353.47333333333336"/><rect fill="url(#WhiteBlackGradient)" height="12" rx="1.5" ry="1.5" width="12" x="942" y="353.47333333333336"/><rect fill-opacity="0.3" filter="url(#SaturateMinus)" height="12" rx="1.5" ry="1.5" width="12" x="942" y="353.47333333333336"/><rect height="12" rx="1.5" ry="1.5" width="12" x="1082" y="108.17333333333332"/><rect fill="url(#WhiteBlackGradient)" height="12" rx="1.5" ry="1.5" width="12" x="1082" y="108.17333333333332"/><rect fill-opacity="0.3" filter="url(#SaturateMinus)" height="12" rx="1.5" ry="1.5" width="12" x="1082" y="108.17333333333332"/></g><!--draw bullet for data type 3--><g fill="rgb(87,62,130)" fill-opacity="1" filter="none" id="ID_bullet_3" stroke="none" stroke-opacity="1" stroke-width="1"><rect height="12" rx="1.5" ry="1.5" width="12" x="102" y="256.9886666666667"/><rect fill="url(#WhiteBlackGradient)" height="12" rx="1.5" ry="1.5" width="12" x="102" y="256.9886666666667"/><rect fill-opacity="0.3" filter="url(#SaturateMinus)" height="12" rx="1.5" ry="1.5" width="12" x="102" y="256.9886666666667"/><rect height="12" rx="1.5" ry="1.5" width="12" x="242" y="203.02266666666668"/><rect fill="url(#WhiteBlackGradient)" height="12" rx="1.5" ry="1.5" width="12" x="242" y="203.02266666666668"/><rect fill-opacity="0.3" filter="url(#SaturateMinus)" height="12" rx="1.5" ry="1.5" width="12" x="242" y="203.02266666666668"/><rect height="12" rx="1.5" ry="1.5" width="12" x="382" y="292.966"/><rect fill="url(#WhiteBlackGradient)" height="12" rx="1.5" ry="1.5" width="12" x="382" y="292.966"/><rect fill-opacity="0.3" filter="url(#SaturateMinus)" height="12" rx="1.5" ry="1.5" width="12" x="382" y="292.966"/><rect height="12" rx="1.5" ry="1.5" width="12" x="522" y="167.04533333333333"/><rect fill="url(#WhiteBlackGradient)" height="12" rx="1.5" ry="1.5" width="12" x="522" y="167.04533333333333"/><rect fill-opacity="0.3" filter="url(#SaturateMinus)" height="12" rx="1.5" ry="1.5" width="12" x="522" y="167.04533333333333"/><rect height="12" rx="1.5" ry="1.5" width="12" x="662" y="328.9433333333333"/><rect fill="url(#WhiteBlackGradient)" height="12" rx="1.5" ry="1.5" width="12" x="662" y="328.9433333333333"/><rect fill-opacity="0.3" filter="url(#SaturateMinus)" height="12" rx="1.5" ry="1.5" width="12" x="662" y="328.9433333333333"/><rect height="12" rx="1.5" ry="1.5" width="12" x="802" y="131.06799999999998"/><rect fill="url(#WhiteBlackGradient)" height="12" rx="1.5" ry="1.5" width="12" x="802" y="131.06799999999998"/><rect fill-opacity="0.3" filter="url(#SaturateMinus)" height="12" rx="1.5" ry="1.5" width="12" x="802" y="131.06799999999998"/><rect height="12" rx="1.5" ry="1.5" width="12" x="942" y="364.92066666666665"/><rect fill="url(#WhiteBlackGradient)" height="12" rx="1.5" ry="1.5" width="12" x="942" y="364.92066666666665"/><rect fill-opacity="0.3" filter="url(#SaturateMinus)" height="12" rx="1.5" ry="1.5" width="12" x="942" y="364.92066666666665"/><rect height="12" rx="1.5" ry="1.5" width="12" x="1082" y="95.09066666666666"/><rect fill="url(#WhiteBlackGradient)" height="12" rx="1.5" ry="1.5" width="12" x="1082" y="95.09066666666666"/><rect fill-opacity="0.3" filter="url(#SaturateMinus)" height="12" rx="1.5" ry="1.5" width="12" x="1082" y="95.09066666666666"/></g><!--draw bullet for data type 4--><g fill="rgb(79,168,57)" fill-opacity="1" filter="none" id="ID_bullet_4" stroke="none" stroke-opacity="1" stroke-width="1"><rect height="12" rx="1.5" ry="1.5" width="12" x="102" y="258.78753333333333"/><rect fill="url(#WhiteBlackGradient)" height="12" rx="1.5" ry="1.5" width="12" x="102" y="258.78753333333333"/><rect fill-opacity="0.3" filter="url(#SaturateMinus)" height="12" rx="1.5" ry="1.5" width="12" x="102" y="258.78753333333333"/><rect height="12" rx="1.5" ry="1.5" width="12" x="242" y="199.42493333333334"/><rect fill="url(#WhiteBlackGradient)" height="12" rx="1.5" ry="1.5" width="12" x="242" y="199.42493333333334"/><rect fill-opacity="0.3" filter="url(#SaturateMinus)" height="12" rx="1.5" ry="1.5" width="12" x="242" y="199.42493333333334"/><rect height="12" rx="1.5" ry="1.5" width="12" x="382" y="298.3626"/><rect fill="url(#WhiteBlackGradient)" height="12" rx="1.5" ry="1.5" width="12" x="382" y="298.3626"/><rect fill-opacity="0.3" filter="url(#SaturateMinus)" height="12" rx="1.5" ry="1.5" width="12" x="382" y="298.3626"/><rect height="12" rx="1.5" ry="1.5" width="12" x="522" y="159.84986666666668"/><rect fill="url(#WhiteBlackGradient)" height="12" rx="1.5" ry="1.5" width="12" x="522" y="159.84986666666668"/><rect fill-opacity="0.3" filter="url(#SaturateMinus)" height="12" rx="1.5" ry="1.5" width="12" x="522" y="159.84986666666668"/><rect height="12" rx="1.5" ry="1.5" width="12" x="662" y="337.9376666666667"/><rect fill="url(#WhiteBlackGradient)" height="12" rx="1.5" ry="1.5" width="12" x="662" y="337.9376666666667"/><rect fill-opacity="0.3" filter="url(#SaturateMinus)" height="12" rx="1.5" ry="1.5" width="12" x="662" y="337.9376666666667"/><rect height="12" rx="1.5" ry="1.5" width="12" x="802" y="120.2748"/><rect fill="url(#WhiteBlackGradient)" height="12" rx="1.5" ry="1.5" width="12" x="802" y="120.2748"/><rect fill-opacity="0.3" filter="url(#SaturateMinus)" height="12" rx="1.5" ry="1.5" width="12" x="802" y="120.2748"/><rect height="12" rx="1.5" ry="1.5" width="12" x="942" y="377.51273333333336"/><rect fill="url(#WhiteBlackGradient)" height="12" rx="1.5" ry="1.5" width="12" x="942" y="377.51273333333336"/><rect fill-opacity="0.3" filter="url(#SaturateMinus)" height="12" rx="1.5" ry="1.5" width="12" x="942" y="377.51273333333336"/><rect height="12" rx="1.5" ry="1.5" width="12" x="1082" y="80.69973333333334"/><rect fill="url(#WhiteBlackGradient)" height="12" rx="1.5" ry="1.5" width="12" x="1082" y="80.69973333333334"/><rect fill-opacity="0.3" filter="url(#SaturateMinus)" height="12" rx="1.5" ry="1.5" width="12" x="1082" y="80.69973333333334"/></g><!--draw bullet for data type 5--><g fill="rgb(217,87,0)" fill-opacity="1" filter="none" id="ID_bullet_5" stroke="none" stroke-opacity="1" stroke-width="1"><rect height="12" rx="1.5" ry="1.5" width="12" x="102" y="260.76628666666664"/><rect fill="url(#WhiteBlackGradient)" height="12" rx="1.5" ry="1.5" width="12" x="102" y="260.76628666666664"/><rect fill-opacity="0.3" filter="url(#SaturateMinus)" height="12" rx="1.5" ry="1.5" width="12" x="102" y="260.76628666666664"/><rect height="12" rx="1.5" ry="1.5" width="12" x="242" y="195.46742666666665"/><rect fill="url(#WhiteBlackGradient)" height="12" rx="1.5" ry="1.5" width="12" x="242" y="195.46742666666665"/><rect fill-opacity="0.3" filter="url(#SaturateMinus)" height="12" rx="1.5" ry="1.5" width="12" x="242" y="195.46742666666665"/><rect height="12" rx="1.5" ry="1.5" width="12" x="382" y="304.29886"/><rect fill="url(#WhiteBlackGradient)" height="12" rx="1.5" ry="1.5" width="12" x="382" y="304.29886"/><rect fill-opacity="0.3" filter="url(#SaturateMinus)" height="12" rx="1.5" ry="1.5" width="12" x="382" y="304.29886"/><rect height="12" rx="1.5" ry="1.5" width="12" x="522" y="151.93485333333334"/><rect fill="url(#WhiteBlackGradient)" height="12" rx="1.5" ry="1.5" width="12" x="522" y="151.93485333333334"/><rect fill-opacity="0.3" filter="url(#SaturateMinus)" height="12" rx="1.5" ry="1.5" width="12" x="522" y="151.93485333333334"/><rect height="12" rx="1.5" ry="1.5" width="12" x="662" y="347.83143333333334"/><rect fill="url(#WhiteBlackGradient)" height="12" rx="1.5" ry="1.5" width="12" x="662" y="347.83143333333334"/><rect fill-opacity="0.3" filter="url(#SaturateMinus)" height="12" rx="1.5" ry="1.5" width="12" x="662" y="347.83143333333334"/><rect height="12" rx="1.5" ry="1.5" width="12" x="802" y="108.40228000000002"/><rect fill="url(#WhiteBlackGradient)" height="12" rx="1.5" ry="1.5" width="12" x="802" y="108.40228000000002"/><rect fill-opacity="0.3" filter="url(#SaturateMinus)" height="12" rx="1.5" ry="1.5" width="12" x="802" y="108.40228000000002"/><rect height="12" rx="1.5" ry="1.5" width="12" x="942" y="391.3640066666667"/><rect fill="url(#WhiteBlackGradient)" height="12" rx="1.5" ry="1.5" width="12" x="942" y="391.3640066666667"/><rect fill-opacity="0.3" filter="url(#SaturateMinus)" height="12" rx="1.5" ry="1.5" width="12" x="942" y="391.3640066666667"/><rect height="12" rx="1.5" ry="1.5" width="12" x="1082" y="64.86970666666667"/><rect fill="url(#WhiteBlackGradient)" height="12" rx="1.5" ry="1.5" width="12" x="1082" y="64.86970666666667"/><rect fill-opacity="0.3" filter="url(#SaturateMinus)" height="12" rx="1.5" ry="1.5" width="12" x="1082" y="64.86970666666667"/></g><!--draw bullet for data type 6--><g fill="rgb(29,157,242)" fill-opacity="1" filter="none" id="ID_bullet_6" stroke="none" stroke-opacity="1" stroke-width="1"><rect height="12" rx="1.5" ry="1.5" width="12" x="102" y="262.94291533333336"/><rect fill="url(#WhiteBlackGradient)" height="12" rx="1.5" ry="1.5" width="12" x="102" y="262.94291533333336"/><rect fill-opacity="0.3" filter="url(#SaturateMinus)" height="12" rx="1.5" ry="1.5" width="12" x="102" y="262.94291533333336"/><rect height="12" rx="1.5" ry="1.5" width="12" x="242" y="191.11416933333334"/><rect fill="url(#WhiteBlackGradient)" height="12" rx="1.5" ry="1.5" width="12" x="242" y="191.11416933333334"/><rect fill-opacity="0.3" filter="url(#SaturateMinus)" height="12" rx="1.5" ry="1.5" width="12" x="242" y="191.11416933333334"/><rect height="12" rx="1.5" ry="1.5" width="12" x="382" y="310.828746"/><rect fill="url(#WhiteBlackGradient)" height="12" rx="1.5" ry="1.5" width="12" x="382" y="310.828746"/><rect fill-opacity="0.3" filter="url(#SaturateMinus)" height="12" rx="1.5" ry="1.5" width="12" x="382" y="310.828746"/><rect height="12" rx="1.5" ry="1.5" width="12" x="522" y="143.22833866666667"/><rect fill="url(#WhiteBlackGradient)" height="12" rx="1.5" ry="1.5" width="12" x="522" y="143.22833866666667"/><rect fill-opacity="0.3" filter="url(#SaturateMinus)" height="12" rx="1.5" ry="1.5" width="12" x="522" y="143.22833866666667"/><rect height="12" rx="1.5" ry="1.5" width="12" x="662" y="358.7145766666667"/><rect fill="url(#WhiteBlackGradient)" height="12" rx="1.5" ry="1.5" width="12" x="662" y="358.7145766666667"/><rect fill-opacity="0.3" filter="url(#SaturateMinus)" height="12" rx="1.5" ry="1.5" width="12" x="662" y="358.7145766666667"/><rect height="12" rx="1.5" ry="1.5" width="12" x="802" y="95.34250800000001"/><rect fill="url(#WhiteBlackGradient)" height="12" rx="1.5" ry="1.5" width="12" x="802" y="95.34250800000001"/><rect fill-opacity="0.3" filter="url(#SaturateMinus)" height="12" rx="1.5" ry="1.5" width="12" x="802" y="95.34250800000001"/><rect height="12" rx="1.5" ry="1.5" width="12" x="942" y="406.60040733333335"/><rect fill="url(#WhiteBlackGradient)" height="12" rx="1.5" ry="1.5" width="12" x="942" y="406.60040733333335"/><rect fill-opacity="0.3" filter="url(#SaturateMinus)" height="12" rx="1.5" ry="1.5" width="12" x="942" y="406.60040733333335"/><rect height="12" rx="1.5" ry="1.5" width="12" x="1082" y="47.45667733333332"/><rect fill="url(#WhiteBlackGradient)" height="12" rx="1.5" ry="1.5" width="12" x="1082" y="47.45667733333332"/><rect fill-opacity="0.3" filter="url(#SaturateMinus)" height="12" rx="1.5" ry="1.5" width="12" x="1082" y="47.45667733333332"/></g><!--draw bullet for data type 7--><g fill="rgb(181,207,50)" fill-opacity="1" filter="none" id="ID_bullet_7" stroke="none" stroke-opacity="1" stroke-width="1"><rect height="12" rx="1.5" ry="1.5" width="12" x="102" y="265.3372068666667"/><rect fill="url(#WhiteBlackGradient)" height="12" rx="1.5" ry="1.5" width="12" x="102" y="265.3372068666667"/><rect fill-opacity="0.3" filter="url(#SaturateMinus)" height="12" rx="1.5" ry="1.5" width="12" x="102" y="265.3372068666667"/><rect height="12" rx="1.5" ry="1.5" width="12" x="242" y="186.32558626666668"/><rect fill="url(#WhiteBlackGradient)" height="12" rx="1.5" ry="1.5" width="12" x="242" y="186.32558626666668"/><rect fill-opacity="0.3" filter="url(#SaturateMinus)" height="12" rx="1.5" ry="1.5" width="12" x="242" y="186.32558626666668"/><rect height="12" rx="1.5" ry="1.5" width="12" x="382" y="318.0116206"/><rect fill="url(#WhiteBlackGradient)" height="12" rx="1.5" ry="1.5" width="12" x="382" y="318.0116206"/><rect fill-opacity="0.3" filter="url(#SaturateMinus)" height="12" rx="1.5" ry="1.5" width="12" x="382" y="318.0116206"/><rect height="12" rx="1.5" ry="1.5" width="12" x="522" y="133.65117253333335"/><rect fill="url(#WhiteBlackGradient)" height="12" rx="1.5" ry="1.5" width="12" x="522" y="133.65117253333335"/><rect fill-opacity="0.3" filter="url(#SaturateMinus)" height="12" rx="1.5" ry="1.5" width="12" x="522" y="133.65117253333335"/><rect height="12" rx="1.5" ry="1.5" width="12" x="662" y="370.68603433333334"/><rect fill="url(#WhiteBlackGradient)" height="12" rx="1.5" ry="1.5" width="12" x="662" y="370.68603433333334"/><rect fill-opacity="0.3" filter="url(#SaturateMinus)" height="12" rx="1.5" ry="1.5" width="12" x="662" y="370.68603433333334"/><rect height="12" rx="1.5" ry="1.5" width="12" x="802" y="80.9767588"/><rect fill="url(#WhiteBlackGradient)" height="12" rx="1.5" ry="1.5" width="12" x="802" y="80.9767588"/><rect fill-opacity="0.3" filter="url(#SaturateMinus)" height="12" rx="1.5" ry="1.5" width="12" x="802" y="80.9767588"/><rect height="12" rx="1.5" ry="1.5" width="12" x="942" y="423.36044806666666"/><rect fill="url(#WhiteBlackGradient)" height="12" rx="1.5" ry="1.5" width="12" x="942" y="423.36044806666666"/><rect fill-opacity="0.3" filter="url(#SaturateMinus)" height="12" rx="1.5" ry="1.5" width="12" x="942" y="423.36044806666666"/><rect height="12" rx="1.5" ry="1.5" width="12" x="1082" y="28.302345066666675"/><rect fill="url(#WhiteBlackGradient)" height="12" rx="1.5" ry="1.5" width="12" x="1082" y="28.302345066666675"/><rect fill-opacity="0.3" filter="url(#SaturateMinus)" height="12" rx="1.5" ry="1.5" width="12" x="1082" y="28.302345066666675"/></g></g></g></g></svg>