
<svg xmlns="http://www.w3.org/2000/svg" id="ID_svg" viewBox="0 0 1018.04 448" viewport-fill="none" viewport-fill-opacity="1" xmlns:exsl4D="http://www.4D.com" xmlns:gFunc="http://gFunc" xmlns:math="http://exslt.org/math" xmlns:xlink="http://www.w3.org/1999/xlink">

  <!--gradient styles-->

  <defs>
    <filter id="soft_blur">
      <feGaussianBlur in="SourceGraphic" result="BlurAlpha" stdDeviation="1"/>
    </filter>
    <filter id="pastel">
      <feGaussianBlur in="SourceAlpha" result="blur" stdDeviation="2"/>
      <feOffset dx="6" dy="6" in="blur" result="offsetBlur"/>
      <feComposite in="SourceGraphic" in2="offsetBlur" operator="in" result="specOut"/>
    </filter>
    <filter id="blur_shadow">
      <feGaussianBlur in="SourceAlpha" result="blur" stdDeviation="3"/>
      <feOffset dx="4" dy="2" in="blur" result="offsetBlur"/>
      <feBlend in="SourceGraphic" in2="offsetBlur" mode="normal"/>
    </filter>
    <filter filterUnits="objectBoundingBox" id="Shadow">
      <feGaussianBlur in="SourceAlpha" result="flou" stdDeviation="0"/>
      <feColorMatrix in="SourceAlpha" result="flouBlue" type="matrix" values=" 0 0 0 0 0                      0 0 0 0 0                     0 0 0 0 0                      0 0 0 0.3 0"/>
      <feOffset dx="4" dy="4" in="flouBlue" result="flouDecalage"/>
      <feBlend in="SourceGraphic" in2="flouDecalage" mode="normal"/>
    </filter>
    <filter filterUnits="objectBoundingBox" height="100%" id="SaturateMinus" width="100%" x="0%" y="0%">
      <feColorMatrix in="SourceGraphic" type="saturate" values="0.5"/>
    </filter>
    <filter filterUnits="objectBoundingBox" height="100%" id="SaturatePlus" width="100%" x="0%" y="0%">
      <feColorMatrix in="SourceGraphic" type="saturate" values="1.4"/>
    </filter>
    <linearGradient id="BlackGradient">
      <stop offset="0%" style="stop-color:rgb(0,0,0); stop-opacity:0"/>
      <stop offset="100%" style="stop-color:rgb(0,0,0); stop-opacity:0.1"/>
    </linearGradient>
    <linearGradient id="WhiteGradient" x1="0%" x2="100%" y1="0%" y2="0%">
      <stop offset="0%" style="stop-color:rgb(255,255,255); stop-opacity:0.3"/>
      <stop offset="100%" style="stop-color:rgb(255,255,255);stop-opacity:0"/>
    </linearGradient>
    <linearGradient id="WhiteBlackGradient" x1="0%" x2="100%" y1="0%" y2="0%">
      <stop offset="0%" style="stop-color:rgb(255,255,255); stop-opacity:0.15"/>
      <stop offset="100%" style="stop-color:rgb(0,0,0);stop-opacity:0.15"/>
    </linearGradient>
    <linearGradient id="Black0Black1Gradient" x1="0%" x2="0%" y1="0%" y2="100%">
      <stop offset="0%" style="stop-color:rgb(0,0,0); stop-opacity:0"/>
      <stop offset="100%" style="stop-color:rgb(0,0,0);stop-opacity:0.05"/>
    </linearGradient>
  </defs>

  <!--global stroke and font styles-->

  <g id="ID_globals" style="fill:black;stroke:none;font-family:Arial;font-size:12px;font-weight:normal;font-style:normal;text-decoration:none;shape-rendering:crispEdges">
    <!--draw title-->
    <!--********************************draw graph background********************************-->
    <rect fill="rgb(168,168,168)" height="400" id="ID_background_shadow" opacity="1" rx="10" ry="10" stroke="none" transform="translate(1,1)" visibility="visible" width="800.04" x="42" y="12"/>
    <g fill="rgb(229,229,229)" id="ID_background" opacity="1" stroke="none" visibility="visible">
      <rect height="400" rx="10" ry="10" stroke="none" width="800.04" x="42" y="12"/>
      <rect fill="url(#Black0Black1Gradient)" height="400" rx="10" ry="10" stroke="none" width="800.04" x="42" y="12"/>
    </g>
    <clipPath id="ID_backgroundClipPath">
      <rect height="401" rx="10" ry="10" width="801.04" x="41" y="11"/>
    </clipPath>
    <!--********************************draw Y Labels********************************-->
    <g id="ID_y$value" style="fill:black;stroke:none;font-family:Arial;font-size:12px;font-weight:normal;font-style:normal;text-decoration:none;filter:none" visibility="visible">
      <text text-anchor="end" x="30" y="18">15</text>
      <text text-anchor="end" x="30" y="62.44">12</text>
      <text text-anchor="end" x="30" y="106.88">9</text>
      <text text-anchor="end" x="30" y="151.32">6</text>
      <text text-anchor="end" x="30" y="195.76">3</text>
      <text text-anchor="end" x="30" y="240.2">0</text>
      <text text-anchor="end" x="30" y="284.64">-3</text>
      <text text-anchor="end" x="30" y="329.08">-6</text>
      <text text-anchor="end" x="30" y="373.52">-9</text>
      <text text-anchor="end" x="30" y="417.96">-12</text>
    </g>
    <!--********************************draw X Labels********************************-->
    <!--draw axis x labels-->
    <g id="ID_x$value" style="fill:black;stroke:none;font-family:Arial;font-size:12px;font-weight:normal;font-style:normal;text-decoration:none;filter:none" visibility="visible">
      <text text-anchor="middle" x="42" y="436">06:00:00</text>
      <text text-anchor="middle" x="108.67" y="436">07:00:00</text>
      <text text-anchor="middle" x="175.34" y="436">08:00:00</text>
      <text text-anchor="middle" x="242.01" y="436">09:00:00</text>
      <text text-anchor="middle" x="308.68" y="436">10:00:00</text>
      <text text-anchor="middle" x="375.35" y="436">11:00:00</text>
      <text text-anchor="middle" x="442.02" y="436">12:00:00</text>
      <text text-anchor="middle" x="508.69" y="436">13:00:00</text>
      <text text-anchor="middle" x="575.36" y="436">14:00:00</text>
      <text text-anchor="middle" x="642.03" y="436">15:00:00</text>
      <text text-anchor="middle" x="708.7" y="436">16:00:00</text>
      <text text-anchor="middle" x="775.37" y="436">17:00:00</text>
      <text text-anchor="middle" x="842.04" y="436">18:00:00</text>
    </g>
    <g style="clip-path: url(#ID_backgroundClipPath)">
      <!--******************************** draw Y grid lines******************************** (Horizontal lines)-->
      <g id="ID_y_grid" stroke="#a8a8a8" stroke-width="1">
        <line x1="42" x2="842.04" y1="56.44" y2="56.44"/>
        <line x1="42" x2="842.04" y1="100.88" y2="100.88"/>
        <line x1="42" x2="842.04" y1="145.32" y2="145.32"/>
        <line x1="42" x2="842.04" y1="189.76" y2="189.76"/>
        <line x1="42" x2="842.04" y1="234.2" y2="234.2"/>
        <line x1="42" x2="842.04" y1="278.64" y2="278.64"/>
        <line x1="42" x2="842.04" y1="323.08" y2="323.08"/>
        <line x1="42" x2="842.04" y1="367.52" y2="367.52"/>
      </g>
      <!--draw Y grid lines SHADOWS-->
      <g id="ID_y_grid_shadow" stroke="#ffffff" stroke-width="1">
        <line transform="translate(0,1)" x1="42" x2="842.04" y1="56.44" y2="56.44"/>
        <line transform="translate(0,1)" x1="42" x2="842.04" y1="100.88" y2="100.88"/>
        <line transform="translate(0,1)" x1="42" x2="842.04" y1="145.32" y2="145.32"/>
        <line transform="translate(0,1)" x1="42" x2="842.04" y1="189.76" y2="189.76"/>
        <line transform="translate(0,1)" x1="42" x2="842.04" y1="234.2" y2="234.2"/>
        <line transform="translate(0,1)" x1="42" x2="842.04" y1="278.64" y2="278.64"/>
        <line transform="translate(0,1)" x1="42" x2="842.04" y1="323.08" y2="323.08"/>
        <line transform="translate(0,1)" x1="42" x2="842.04" y1="367.52" y2="367.52"/>
      </g>
      <g id="ID_y0_axis" stroke="rgb(100,100,100)" stroke-width="1" visibility="visible">
        <line x1="42" x2="842.04" y1="234.22" y2="234.22"/>
      </g>
      <!--********************************draw X grid lines******************************** (Vertical lines)-->
      <g id="ID_x_grid" stroke="#a8a8a8" stroke-width="1">
        <line x1="108.67" x2="108.67" y1="12" y2="412"/>
        <line x1="175.34" x2="175.34" y1="12" y2="412"/>
        <line x1="242.01" x2="242.01" y1="12" y2="412"/>
        <line x1="308.68" x2="308.68" y1="12" y2="412"/>
        <line x1="375.35" x2="375.35" y1="12" y2="412"/>
        <line x1="442.02" x2="442.02" y1="12" y2="412"/>
        <line x1="508.69" x2="508.69" y1="12" y2="412"/>
        <line x1="575.36" x2="575.36" y1="12" y2="412"/>
        <line x1="642.03" x2="642.03" y1="12" y2="412"/>
        <line x1="708.7" x2="708.7" y1="12" y2="412"/>
        <line x1="775.37" x2="775.37" y1="12" y2="412"/>
      </g>
      <!--draw X grid lines SHADOWS -->
      <g id="ID_x_grid_shadow" stroke="#ffffff" stroke-width="1">
        <line transform="translate(1,0)" x1="108.67" x2="108.67" y1="12" y2="412"/>
        <line transform="translate(1,0)" x1="175.34" x2="175.34" y1="12" y2="412"/>
        <line transform="translate(1,0)" x1="242.01" x2="242.01" y1="12" y2="412"/>
        <line transform="translate(1,0)" x1="308.68" x2="308.68" y1="12" y2="412"/>
        <line transform="translate(1,0)" x1="375.35" x2="375.35" y1="12" y2="412"/>
        <line transform="translate(1,0)" x1="442.02" x2="442.02" y1="12" y2="412"/>
        <line transform="translate(1,0)" x1="508.69" x2="508.69" y1="12" y2="412"/>
        <line transform="translate(1,0)" x1="575.36" x2="575.36" y1="12" y2="412"/>
        <line transform="translate(1,0)" x1="642.03" x2="642.03" y1="12" y2="412"/>
        <line transform="translate(1,0)" x1="708.7" x2="708.7" y1="12" y2="412"/>
        <line transform="translate(1,0)" x1="775.37" x2="775.37" y1="12" y2="412"/>
      </g>
    </g>
    <!--******************************** draw legend ***********************************-->
    <g filter="none" id="ID_legend" transform="translate(854.04,12)" visibility="visible">
      <!--draw legend border-->
      <rect fill="rgb(168,168,168)" fill-opacity="1" height="190" id="ID_legend_border_shadow" rx="10" ry="10" stroke="none" transform="translate(1,1)" width="152" x="0" y="0"/>
      <rect fill="rgb(229,229,229)" fill-opacity="1" height="190" id="ID_legend_border" rx="10" ry="10" stroke="none" stroke-width="0" width="152" x="0" y="0"/>
      <!--draw legend bullets-->
      <g id="ID_legend_bullets" stroke="none">
        <g fill="rgb(0,178,195)" id="ID_legend_1">
          <rect height="20" rx="3" ry="3" width="20" x="10" y="10"/>
          <rect fill="url(#WhiteBlackGradient)" height="20" rx="3" ry="3" width="20" x="10" y="10"/>
          <rect fill-opacity="0.3" filter="url(#SaturateMinus)" height="20" rx="3" ry="3" width="20" x="10" y="10"/>
        </g>
        <g fill="rgb(255,195,56)" id="ID_legend_2">
          <rect height="20" rx="3" ry="3" width="20" x="10" y="40"/>
          <rect fill="url(#WhiteBlackGradient)" height="20" rx="3" ry="3" width="20" x="10" y="40"/>
          <rect fill-opacity="0.3" filter="url(#SaturateMinus)" height="20" rx="3" ry="3" width="20" x="10" y="40"/>
        </g>
        <g fill="rgb(87,62,130)" id="ID_legend_3">
          <rect height="20" rx="3" ry="3" width="20" x="10" y="70"/>
          <rect fill="url(#WhiteBlackGradient)" height="20" rx="3" ry="3" width="20" x="10" y="70"/>
          <rect fill-opacity="0.3" filter="url(#SaturateMinus)" height="20" rx="3" ry="3" width="20" x="10" y="70"/>
        </g>
        <g fill="rgb(79,168,57)" id="ID_legend_4">
          <rect height="20" rx="3" ry="3" width="20" x="10" y="100"/>
          <rect fill="url(#WhiteBlackGradient)" height="20" rx="3" ry="3" width="20" x="10" y="100"/>
          <rect fill-opacity="0.3" filter="url(#SaturateMinus)" height="20" rx="3" ry="3" width="20" x="10" y="100"/>
        </g>
        <g fill="rgb(217,87,0)" id="ID_legend_5">
          <rect height="20" rx="3" ry="3" width="20" x="10" y="130"/>
          <rect fill="url(#WhiteBlackGradient)" height="20" rx="3" ry="3" width="20" x="10" y="130"/>
          <rect fill-opacity="0.3" filter="url(#SaturateMinus)" height="20" rx="3" ry="3" width="20" x="10" y="130"/>
        </g>
        <g fill="rgb(29,157,242)" id="ID_legend_6">
          <rect height="20" rx="3" ry="3" width="20" x="10" y="160"/>
          <rect fill="url(#WhiteBlackGradient)" height="20" rx="3" ry="3" width="20" x="10" y="160"/>
          <rect fill-opacity="0.3" filter="url(#SaturateMinus)" height="20" rx="3" ry="3" width="20" x="10" y="160"/>
        </g>
      </g>
      <!--draw legend labels-->
      <g id="ID_legend_labels" style="fill:black;stroke:none;font-family:Arial;;font-weight:normal;font-style:normal;text-decoration:none;filter:none;text-anchor:start">
        <text x="40" y="27">Sharp</text>
        <text x="40" y="57">Infinity</text>
        <text x="40" y="87">Audio Référence</text>
        <text x="40" y="117">Triangle</text>
        <text x="40" y="147">Yamaha</text>
        <text x="40" y="177">Onkyo</text>
      </g>
    </g>
    <g style="clip-path: url(#ID_backgroundClipPath)">
      <g filter="none" stroke-opacity="1" stroke-width="2">
        <g id="ID_graph_1" stroke="rgb(0,178,195)">
          <line fill-opacity="1" x1="175.34" x2="242.01" y1="249.03" y2="204.59"/>
          <line fill-opacity="1" x1="242.01" x2="308.68" y1="204.59" y2="278.66"/>
          <line fill-opacity="1" x1="308.68" x2="375.35" y1="278.66" y2="174.96"/>
          <line fill-opacity="1" x1="375.35" x2="392.02" y1="174.96" y2="308.29"/>
          <line fill-opacity="1" x1="392.02" x2="625.36" y1="308.29" y2="145.33"/>
          <line fill-opacity="1" x1="625.36" x2="642.03" y1="145.33" y2="337.92"/>
          <line fill-opacity="1" x1="642.03" x2="708.7" y1="337.92" y2="115.7"/>
        </g>
        <g id="ID_graph_2" stroke="rgb(255,195,56)">
          <line fill-opacity="1" x1="175.34" x2="242.01" y1="250.52" y2="201.63"/>
          <line fill-opacity="1" x1="242.01" x2="308.68" y1="201.63" y2="283.11"/>
          <line fill-opacity="1" x1="308.68" x2="375.35" y1="283.11" y2="169.03"/>
          <line fill-opacity="1" x1="375.35" x2="392.02" y1="169.03" y2="315.7"/>
          <line fill-opacity="1" x1="392.02" x2="625.36" y1="315.7" y2="136.44"/>
          <line fill-opacity="1" x1="625.36" x2="642.03" y1="136.44" y2="348.29"/>
          <line fill-opacity="1" x1="642.03" x2="708.7" y1="348.29" y2="103.85"/>
        </g>
        <g id="ID_graph_3" stroke="rgb(87,62,130)">
          <line fill-opacity="1" x1="175.34" x2="242.01" y1="252.15" y2="198.37"/>
          <line fill-opacity="1" x1="242.01" x2="308.68" y1="198.37" y2="288"/>
          <line fill-opacity="1" x1="308.68" x2="375.35" y1="288" y2="162.52"/>
          <line fill-opacity="1" x1="375.35" x2="392.02" y1="162.52" y2="323.85"/>
          <line fill-opacity="1" x1="392.02" x2="625.36" y1="323.85" y2="126.66"/>
          <line fill-opacity="1" x1="625.36" x2="642.03" y1="126.66" y2="359.7"/>
          <line fill-opacity="1" x1="642.03" x2="708.7" y1="359.7" y2="90.81"/>
        </g>
        <g id="ID_graph_4" stroke="rgb(79,168,57)">
          <line fill-opacity="1" x1="175.34" x2="242.01" y1="253.94" y2="194.78"/>
          <line fill-opacity="1" x1="242.01" x2="308.68" y1="194.78" y2="293.38"/>
          <line fill-opacity="1" x1="308.68" x2="375.35" y1="293.38" y2="155.35"/>
          <line fill-opacity="1" x1="375.35" x2="392.02" y1="155.35" y2="332.81"/>
          <line fill-opacity="1" x1="392.02" x2="625.36" y1="332.81" y2="115.91"/>
          <line fill-opacity="1" x1="625.36" x2="642.03" y1="115.91" y2="372.25"/>
          <line fill-opacity="1" x1="642.03" x2="708.7" y1="372.25" y2="76.47"/>
        </g>
        <g id="ID_graph_5" stroke="rgb(217,87,0)">
          <line fill-opacity="1" x1="175.34" x2="242.01" y1="255.91" y2="190.84"/>
          <line fill-opacity="1" x1="242.01" x2="308.68" y1="190.84" y2="299.29"/>
          <line fill-opacity="1" x1="308.68" x2="375.35" y1="299.29" y2="147.46"/>
          <line fill-opacity="1" x1="375.35" x2="392.02" y1="147.46" y2="342.67"/>
          <line fill-opacity="1" x1="392.02" x2="625.36" y1="342.67" y2="104.08"/>
          <line fill-opacity="1" x1="625.36" x2="642.03" y1="104.08" y2="386.05"/>
          <line fill-opacity="1" x1="642.03" x2="708.7" y1="386.05" y2="60.7"/>
        </g>
        <g id="ID_graph_6" stroke="rgb(29,157,242)">
          <line fill-opacity="1" x1="175.34" x2="242.01" y1="258.08" y2="186.5"/>
          <line fill-opacity="1" x1="242.01" x2="308.68" y1="186.5" y2="305.8"/>
          <line fill-opacity="1" x1="308.68" x2="375.35" y1="305.8" y2="138.78"/>
          <line fill-opacity="1" x1="375.35" x2="392.02" y1="138.78" y2="353.52"/>
          <line fill-opacity="1" x1="392.02" x2="625.36" y1="353.52" y2="91.06"/>
          <line fill-opacity="1" x1="625.36" x2="642.03" y1="91.06" y2="401.24"/>
          <line fill-opacity="1" x1="642.03" x2="708.7" y1="401.24" y2="43.34"/>
        </g>
      </g>
      <g filter="none" opacity="1" stroke="none" stroke-opacity="1" stroke-width="0">
        <g fill="rgb(0,178,195)" id="ID_graph_1">
          <g transform="translate(169.34,243.03)">
            <rect fill-opacity="1" height="12" rx="2" ry="2" width="12" x="0" y="0"/>
            <rect fill="url(#WhiteGradient)" height="12" rx="2" ry="2" width="12" x="0" y="0"/>
            <rect fill-opacity="0.4" filter="url(#SaturateMinus)" height="12" rx="2" ry="2" width="12" x="0" y="0"/>
            <rect fill="url(#BlackGradient)" height="12" rx="2" ry="2" width="12" x="0" y="0"/>
          </g>
          <g transform="translate(236.01,198.59)">
            <rect fill-opacity="1" height="12" rx="2" ry="2" width="12" x="0" y="0"/>
            <rect fill="url(#WhiteGradient)" height="12" rx="2" ry="2" width="12" x="0" y="0"/>
            <rect fill-opacity="0.4" filter="url(#SaturateMinus)" height="12" rx="2" ry="2" width="12" x="0" y="0"/>
            <rect fill="url(#BlackGradient)" height="12" rx="2" ry="2" width="12" x="0" y="0"/>
          </g>
          <g transform="translate(302.68,272.66)">
            <rect fill-opacity="1" height="12" rx="2" ry="2" width="12" x="0" y="0"/>
            <rect fill="url(#WhiteGradient)" height="12" rx="2" ry="2" width="12" x="0" y="0"/>
            <rect fill-opacity="0.4" filter="url(#SaturateMinus)" height="12" rx="2" ry="2" width="12" x="0" y="0"/>
            <rect fill="url(#BlackGradient)" height="12" rx="2" ry="2" width="12" x="0" y="0"/>
          </g>
          <g transform="translate(369.35,168.96)">
            <rect fill-opacity="1" height="12" rx="2" ry="2" width="12" x="0" y="0"/>
            <rect fill="url(#WhiteGradient)" height="12" rx="2" ry="2" width="12" x="0" y="0"/>
            <rect fill-opacity="0.4" filter="url(#SaturateMinus)" height="12" rx="2" ry="2" width="12" x="0" y="0"/>
            <rect fill="url(#BlackGradient)" height="12" rx="2" ry="2" width="12" x="0" y="0"/>
          </g>
          <g transform="translate(386.02,302.29)">
            <rect fill-opacity="1" height="12" rx="2" ry="2" width="12" x="0" y="0"/>
            <rect fill="url(#WhiteGradient)" height="12" rx="2" ry="2" width="12" x="0" y="0"/>
            <rect fill-opacity="0.4" filter="url(#SaturateMinus)" height="12" rx="2" ry="2" width="12" x="0" y="0"/>
            <rect fill="url(#BlackGradient)" height="12" rx="2" ry="2" width="12" x="0" y="0"/>
          </g>
          <g transform="translate(619.36,139.33)">
            <rect fill-opacity="1" height="12" rx="2" ry="2" width="12" x="0" y="0"/>
            <rect fill="url(#WhiteGradient)" height="12" rx="2" ry="2" width="12" x="0" y="0"/>
            <rect fill-opacity="0.4" filter="url(#SaturateMinus)" height="12" rx="2" ry="2" width="12" x="0" y="0"/>
            <rect fill="url(#BlackGradient)" height="12" rx="2" ry="2" width="12" x="0" y="0"/>
          </g>
          <g transform="translate(636.03,331.92)">
            <rect fill-opacity="1" height="12" rx="2" ry="2" width="12" x="0" y="0"/>
            <rect fill="url(#WhiteGradient)" height="12" rx="2" ry="2" width="12" x="0" y="0"/>
            <rect fill-opacity="0.4" filter="url(#SaturateMinus)" height="12" rx="2" ry="2" width="12" x="0" y="0"/>
            <rect fill="url(#BlackGradient)" height="12" rx="2" ry="2" width="12" x="0" y="0"/>
          </g>
          <g transform="translate(702.7,109.7)">
            <rect fill-opacity="1" height="12" rx="2" ry="2" width="12" x="0" y="0"/>
            <rect fill="url(#WhiteGradient)" height="12" rx="2" ry="2" width="12" x="0" y="0"/>
            <rect fill-opacity="0.4" filter="url(#SaturateMinus)" height="12" rx="2" ry="2" width="12" x="0" y="0"/>
            <rect fill="url(#BlackGradient)" height="12" rx="2" ry="2" width="12" x="0" y="0"/>
          </g>
        </g>
        <g fill="rgb(255,195,56)" id="ID_graph_2">
          <g transform="translate(169.34,244.52)">
            <rect fill-opacity="1" height="12" rx="2" ry="2" width="12" x="0" y="0"/>
            <rect fill="url(#WhiteGradient)" height="12" rx="2" ry="2" width="12" x="0" y="0"/>
            <rect fill-opacity="0.4" filter="url(#SaturateMinus)" height="12" rx="2" ry="2" width="12" x="0" y="0"/>
            <rect fill="url(#BlackGradient)" height="12" rx="2" ry="2" width="12" x="0" y="0"/>
          </g>
          <g transform="translate(236.01,195.63)">
            <rect fill-opacity="1" height="12" rx="2" ry="2" width="12" x="0" y="0"/>
            <rect fill="url(#WhiteGradient)" height="12" rx="2" ry="2" width="12" x="0" y="0"/>
            <rect fill-opacity="0.4" filter="url(#SaturateMinus)" height="12" rx="2" ry="2" width="12" x="0" y="0"/>
            <rect fill="url(#BlackGradient)" height="12" rx="2" ry="2" width="12" x="0" y="0"/>
          </g>
          <g transform="translate(302.68,277.11)">
            <rect fill-opacity="1" height="12" rx="2" ry="2" width="12" x="0" y="0"/>
            <rect fill="url(#WhiteGradient)" height="12" rx="2" ry="2" width="12" x="0" y="0"/>
            <rect fill-opacity="0.4" filter="url(#SaturateMinus)" height="12" rx="2" ry="2" width="12" x="0" y="0"/>
            <rect fill="url(#BlackGradient)" height="12" rx="2" ry="2" width="12" x="0" y="0"/>
          </g>
          <g transform="translate(369.35,163.03)">
            <rect fill-opacity="1" height="12" rx="2" ry="2" width="12" x="0" y="0"/>
            <rect fill="url(#WhiteGradient)" height="12" rx="2" ry="2" width="12" x="0" y="0"/>
            <rect fill-opacity="0.4" filter="url(#SaturateMinus)" height="12" rx="2" ry="2" width="12" x="0" y="0"/>
            <rect fill="url(#BlackGradient)" height="12" rx="2" ry="2" width="12" x="0" y="0"/>
          </g>
          <g transform="translate(386.02,309.7)">
            <rect fill-opacity="1" height="12" rx="2" ry="2" width="12" x="0" y="0"/>
            <rect fill="url(#WhiteGradient)" height="12" rx="2" ry="2" width="12" x="0" y="0"/>
            <rect fill-opacity="0.4" filter="url(#SaturateMinus)" height="12" rx="2" ry="2" width="12" x="0" y="0"/>
            <rect fill="url(#BlackGradient)" height="12" rx="2" ry="2" width="12" x="0" y="0"/>
          </g>
          <g transform="translate(619.36,130.44)">
            <rect fill-opacity="1" height="12" rx="2" ry="2" width="12" x="0" y="0"/>
            <rect fill="url(#WhiteGradient)" height="12" rx="2" ry="2" width="12" x="0" y="0"/>
            <rect fill-opacity="0.4" filter="url(#SaturateMinus)" height="12" rx="2" ry="2" width="12" x="0" y="0"/>
            <rect fill="url(#BlackGradient)" height="12" rx="2" ry="2" width="12" x="0" y="0"/>
          </g>
          <g transform="translate(636.03,342.29)">
            <rect fill-opacity="1" height="12" rx="2" ry="2" width="12" x="0" y="0"/>
            <rect fill="url(#WhiteGradient)" height="12" rx="2" ry="2" width="12" x="0" y="0"/>
            <rect fill-opacity="0.4" filter="url(#SaturateMinus)" height="12" rx="2" ry="2" width="12" x="0" y="0"/>
            <rect fill="url(#BlackGradient)" height="12" rx="2" ry="2" width="12" x="0" y="0"/>
          </g>
          <g transform="translate(702.7,97.85)">
            <rect fill-opacity="1" height="12" rx="2" ry="2" width="12" x="0" y="0"/>
            <rect fill="url(#WhiteGradient)" height="12" rx="2" ry="2" width="12" x="0" y="0"/>
            <rect fill-opacity="0.4" filter="url(#SaturateMinus)" height="12" rx="2" ry="2" width="12" x="0" y="0"/>
            <rect fill="url(#BlackGradient)" height="12" rx="2" ry="2" width="12" x="0" y="0"/>
          </g>
        </g>
        <g fill="rgb(87,62,130)" id="ID_graph_3">
          <g transform="translate(169.34,246.15)">
            <rect fill-opacity="1" height="12" rx="2" ry="2" width="12" x="0" y="0"/>
            <rect fill="url(#WhiteGradient)" height="12" rx="2" ry="2" width="12" x="0" y="0"/>
            <rect fill-opacity="0.4" filter="url(#SaturateMinus)" height="12" rx="2" ry="2" width="12" x="0" y="0"/>
            <rect fill="url(#BlackGradient)" height="12" rx="2" ry="2" width="12" x="0" y="0"/>
          </g>
          <g transform="translate(236.01,192.37)">
            <rect fill-opacity="1" height="12" rx="2" ry="2" width="12" x="0" y="0"/>
            <rect fill="url(#WhiteGradient)" height="12" rx="2" ry="2" width="12" x="0" y="0"/>
            <rect fill-opacity="0.4" filter="url(#SaturateMinus)" height="12" rx="2" ry="2" width="12" x="0" y="0"/>
            <rect fill="url(#BlackGradient)" height="12" rx="2" ry="2" width="12" x="0" y="0"/>
          </g>
          <g transform="translate(302.68,282)">
            <rect fill-opacity="1" height="12" rx="2" ry="2" width="12" x="0" y="0"/>
            <rect fill="url(#WhiteGradient)" height="12" rx="2" ry="2" width="12" x="0" y="0"/>
            <rect fill-opacity="0.4" filter="url(#SaturateMinus)" height="12" rx="2" ry="2" width="12" x="0" y="0"/>
            <rect fill="url(#BlackGradient)" height="12" rx="2" ry="2" width="12" x="0" y="0"/>
          </g>
          <g transform="translate(369.35,156.52)">
            <rect fill-opacity="1" height="12" rx="2" ry="2" width="12" x="0" y="0"/>
            <rect fill="url(#WhiteGradient)" height="12" rx="2" ry="2" width="12" x="0" y="0"/>
            <rect fill-opacity="0.4" filter="url(#SaturateMinus)" height="12" rx="2" ry="2" width="12" x="0" y="0"/>
            <rect fill="url(#BlackGradient)" height="12" rx="2" ry="2" width="12" x="0" y="0"/>
          </g>
          <g transform="translate(386.02,317.85)">
            <rect fill-opacity="1" height="12" rx="2" ry="2" width="12" x="0" y="0"/>
            <rect fill="url(#WhiteGradient)" height="12" rx="2" ry="2" width="12" x="0" y="0"/>
            <rect fill-opacity="0.4" filter="url(#SaturateMinus)" height="12" rx="2" ry="2" width="12" x="0" y="0"/>
            <rect fill="url(#BlackGradient)" height="12" rx="2" ry="2" width="12" x="0" y="0"/>
          </g>
          <g transform="translate(619.36,120.66)">
            <rect fill-opacity="1" height="12" rx="2" ry="2" width="12" x="0" y="0"/>
            <rect fill="url(#WhiteGradient)" height="12" rx="2" ry="2" width="12" x="0" y="0"/>
            <rect fill-opacity="0.4" filter="url(#SaturateMinus)" height="12" rx="2" ry="2" width="12" x="0" y="0"/>
            <rect fill="url(#BlackGradient)" height="12" rx="2" ry="2" width="12" x="0" y="0"/>
          </g>
          <g transform="translate(636.03,353.7)">
            <rect fill-opacity="1" height="12" rx="2" ry="2" width="12" x="0" y="0"/>
            <rect fill="url(#WhiteGradient)" height="12" rx="2" ry="2" width="12" x="0" y="0"/>
            <rect fill-opacity="0.4" filter="url(#SaturateMinus)" height="12" rx="2" ry="2" width="12" x="0" y="0"/>
            <rect fill="url(#BlackGradient)" height="12" rx="2" ry="2" width="12" x="0" y="0"/>
          </g>
          <g transform="translate(702.7,84.81)">
            <rect fill-opacity="1" height="12" rx="2" ry="2" width="12" x="0" y="0"/>
            <rect fill="url(#WhiteGradient)" height="12" rx="2" ry="2" width="12" x="0" y="0"/>
            <rect fill-opacity="0.4" filter="url(#SaturateMinus)" height="12" rx="2" ry="2" width="12" x="0" y="0"/>
            <rect fill="url(#BlackGradient)" height="12" rx="2" ry="2" width="12" x="0" y="0"/>
          </g>
        </g>
        <g fill="rgb(79,168,57)" id="ID_graph_4">
          <g transform="translate(169.34,247.94)">
            <rect fill-opacity="1" height="12" rx="2" ry="2" width="12" x="0" y="0"/>
            <rect fill="url(#WhiteGradient)" height="12" rx="2" ry="2" width="12" x="0" y="0"/>
            <rect fill-opacity="0.4" filter="url(#SaturateMinus)" height="12" rx="2" ry="2" width="12" x="0" y="0"/>
            <rect fill="url(#BlackGradient)" height="12" rx="2" ry="2" width="12" x="0" y="0"/>
          </g>
          <g transform="translate(236.01,188.78)">
            <rect fill-opacity="1" height="12" rx="2" ry="2" width="12" x="0" y="0"/>
            <rect fill="url(#WhiteGradient)" height="12" rx="2" ry="2" width="12" x="0" y="0"/>
            <rect fill-opacity="0.4" filter="url(#SaturateMinus)" height="12" rx="2" ry="2" width="12" x="0" y="0"/>
            <rect fill="url(#BlackGradient)" height="12" rx="2" ry="2" width="12" x="0" y="0"/>
          </g>
          <g transform="translate(302.68,287.38)">
            <rect fill-opacity="1" height="12" rx="2" ry="2" width="12" x="0" y="0"/>
            <rect fill="url(#WhiteGradient)" height="12" rx="2" ry="2" width="12" x="0" y="0"/>
            <rect fill-opacity="0.4" filter="url(#SaturateMinus)" height="12" rx="2" ry="2" width="12" x="0" y="0"/>
            <rect fill="url(#BlackGradient)" height="12" rx="2" ry="2" width="12" x="0" y="0"/>
          </g>
          <g transform="translate(369.35,149.35)">
            <rect fill-opacity="1" height="12" rx="2" ry="2" width="12" x="0" y="0"/>
            <rect fill="url(#WhiteGradient)" height="12" rx="2" ry="2" width="12" x="0" y="0"/>
            <rect fill-opacity="0.4" filter="url(#SaturateMinus)" height="12" rx="2" ry="2" width="12" x="0" y="0"/>
            <rect fill="url(#BlackGradient)" height="12" rx="2" ry="2" width="12" x="0" y="0"/>
          </g>
          <g transform="translate(386.02,326.81)">
            <rect fill-opacity="1" height="12" rx="2" ry="2" width="12" x="0" y="0"/>
            <rect fill="url(#WhiteGradient)" height="12" rx="2" ry="2" width="12" x="0" y="0"/>
            <rect fill-opacity="0.4" filter="url(#SaturateMinus)" height="12" rx="2" ry="2" width="12" x="0" y="0"/>
            <rect fill="url(#BlackGradient)" height="12" rx="2" ry="2" width="12" x="0" y="0"/>
          </g>
          <g transform="translate(619.36,109.91)">
            <rect fill-opacity="1" height="12" rx="2" ry="2" width="12" x="0" y="0"/>
            <rect fill="url(#WhiteGradient)" height="12" rx="2" ry="2" width="12" x="0" y="0"/>
            <rect fill-opacity="0.4" filter="url(#SaturateMinus)" height="12" rx="2" ry="2" width="12" x="0" y="0"/>
            <rect fill="url(#BlackGradient)" height="12" rx="2" ry="2" width="12" x="0" y="0"/>
          </g>
          <g transform="translate(636.03,366.25)">
            <rect fill-opacity="1" height="12" rx="2" ry="2" width="12" x="0" y="0"/>
            <rect fill="url(#WhiteGradient)" height="12" rx="2" ry="2" width="12" x="0" y="0"/>
            <rect fill-opacity="0.4" filter="url(#SaturateMinus)" height="12" rx="2" ry="2" width="12" x="0" y="0"/>
            <rect fill="url(#BlackGradient)" height="12" rx="2" ry="2" width="12" x="0" y="0"/>
          </g>
          <g transform="translate(702.7,70.47)">
            <rect fill-opacity="1" height="12" rx="2" ry="2" width="12" x="0" y="0"/>
            <rect fill="url(#WhiteGradient)" height="12" rx="2" ry="2" width="12" x="0" y="0"/>
            <rect fill-opacity="0.4" filter="url(#SaturateMinus)" height="12" rx="2" ry="2" width="12" x="0" y="0"/>
            <rect fill="url(#BlackGradient)" height="12" rx="2" ry="2" width="12" x="0" y="0"/>
          </g>
        </g>
        <g fill="rgb(217,87,0)" id="ID_graph_5">
          <g transform="translate(169.34,249.91)">
            <rect fill-opacity="1" height="12" rx="2" ry="2" width="12" x="0" y="0"/>
            <rect fill="url(#WhiteGradient)" height="12" rx="2" ry="2" width="12" x="0" y="0"/>
            <rect fill-opacity="0.4" filter="url(#SaturateMinus)" height="12" rx="2" ry="2" width="12" x="0" y="0"/>
            <rect fill="url(#BlackGradient)" height="12" rx="2" ry="2" width="12" x="0" y="0"/>
          </g>
          <g transform="translate(236.01,184.84)">
            <rect fill-opacity="1" height="12" rx="2" ry="2" width="12" x="0" y="0"/>
            <rect fill="url(#WhiteGradient)" height="12" rx="2" ry="2" width="12" x="0" y="0"/>
            <rect fill-opacity="0.4" filter="url(#SaturateMinus)" height="12" rx="2" ry="2" width="12" x="0" y="0"/>
            <rect fill="url(#BlackGradient)" height="12" rx="2" ry="2" width="12" x="0" y="0"/>
          </g>
          <g transform="translate(302.68,293.29)">
            <rect fill-opacity="1" height="12" rx="2" ry="2" width="12" x="0" y="0"/>
            <rect fill="url(#WhiteGradient)" height="12" rx="2" ry="2" width="12" x="0" y="0"/>
            <rect fill-opacity="0.4" filter="url(#SaturateMinus)" height="12" rx="2" ry="2" width="12" x="0" y="0"/>
            <rect fill="url(#BlackGradient)" height="12" rx="2" ry="2" width="12" x="0" y="0"/>
          </g>
          <g transform="translate(369.35,141.46)">
            <rect fill-opacity="1" height="12" rx="2" ry="2" width="12" x="0" y="0"/>
            <rect fill="url(#WhiteGradient)" height="12" rx="2" ry="2" width="12" x="0" y="0"/>
            <rect fill-opacity="0.4" filter="url(#SaturateMinus)" height="12" rx="2" ry="2" width="12" x="0" y="0"/>
            <rect fill="url(#BlackGradient)" height="12" rx="2" ry="2" width="12" x="0" y="0"/>
          </g>
          <g transform="translate(386.02,336.67)">
            <rect fill-opacity="1" height="12" rx="2" ry="2" width="12" x="0" y="0"/>
            <rect fill="url(#WhiteGradient)" height="12" rx="2" ry="2" width="12" x="0" y="0"/>
            <rect fill-opacity="0.4" filter="url(#SaturateMinus)" height="12" rx="2" ry="2" width="12" x="0" y="0"/>
            <rect fill="url(#BlackGradient)" height="12" rx="2" ry="2" width="12" x="0" y="0"/>
          </g>
          <g transform="translate(619.36,98.08)">
            <rect fill-opacity="1" height="12" rx="2" ry="2" width="12" x="0" y="0"/>
            <rect fill="url(#WhiteGradient)" height="12" rx="2" ry="2" width="12" x="0" y="0"/>
            <rect fill-opacity="0.4" filter="url(#SaturateMinus)" height="12" rx="2" ry="2" width="12" x="0" y="0"/>
            <rect fill="url(#BlackGradient)" height="12" rx="2" ry="2" width="12" x="0" y="0"/>
          </g>
          <g transform="translate(636.03,380.05)">
            <rect fill-opacity="1" height="12" rx="2" ry="2" width="12" x="0" y="0"/>
            <rect fill="url(#WhiteGradient)" height="12" rx="2" ry="2" width="12" x="0" y="0"/>
            <rect fill-opacity="0.4" filter="url(#SaturateMinus)" height="12" rx="2" ry="2" width="12" x="0" y="0"/>
            <rect fill="url(#BlackGradient)" height="12" rx="2" ry="2" width="12" x="0" y="0"/>
          </g>
          <g transform="translate(702.7,54.7)">
            <rect fill-opacity="1" height="12" rx="2" ry="2" width="12" x="0" y="0"/>
            <rect fill="url(#WhiteGradient)" height="12" rx="2" ry="2" width="12" x="0" y="0"/>
            <rect fill-opacity="0.4" filter="url(#SaturateMinus)" height="12" rx="2" ry="2" width="12" x="0" y="0"/>
            <rect fill="url(#BlackGradient)" height="12" rx="2" ry="2" width="12" x="0" y="0"/>
          </g>
        </g>
        <g fill="rgb(29,157,242)" id="ID_graph_6">
          <g transform="translate(169.34,252.08)">
            <rect fill-opacity="1" height="12" rx="2" ry="2" width="12" x="0" y="0"/>
            <rect fill="url(#WhiteGradient)" height="12" rx="2" ry="2" width="12" x="0" y="0"/>
            <rect fill-opacity="0.4" filter="url(#SaturateMinus)" height="12" rx="2" ry="2" width="12" x="0" y="0"/>
            <rect fill="url(#BlackGradient)" height="12" rx="2" ry="2" width="12" x="0" y="0"/>
          </g>
          <g transform="translate(236.01,180.5)">
            <rect fill-opacity="1" height="12" rx="2" ry="2" width="12" x="0" y="0"/>
            <rect fill="url(#WhiteGradient)" height="12" rx="2" ry="2" width="12" x="0" y="0"/>
            <rect fill-opacity="0.4" filter="url(#SaturateMinus)" height="12" rx="2" ry="2" width="12" x="0" y="0"/>
            <rect fill="url(#BlackGradient)" height="12" rx="2" ry="2" width="12" x="0" y="0"/>
          </g>
          <g transform="translate(302.68,299.8)">
            <rect fill-opacity="1" height="12" rx="2" ry="2" width="12" x="0" y="0"/>
            <rect fill="url(#WhiteGradient)" height="12" rx="2" ry="2" width="12" x="0" y="0"/>
            <rect fill-opacity="0.4" filter="url(#SaturateMinus)" height="12" rx="2" ry="2" width="12" x="0" y="0"/>
            <rect fill="url(#BlackGradient)" height="12" rx="2" ry="2" width="12" x="0" y="0"/>
          </g>
          <g transform="translate(369.35,132.78)">
            <rect fill-opacity="1" height="12" rx="2" ry="2" width="12" x="0" y="0"/>
            <rect fill="url(#WhiteGradient)" height="12" rx="2" ry="2" width="12" x="0" y="0"/>
            <rect fill-opacity="0.4" filter="url(#SaturateMinus)" height="12" rx="2" ry="2" width="12" x="0" y="0"/>
            <rect fill="url(#BlackGradient)" height="12" rx="2" ry="2" width="12" x="0" y="0"/>
          </g>
          <g transform="translate(386.02,347.52)">
            <rect fill-opacity="1" height="12" rx="2" ry="2" width="12" x="0" y="0"/>
            <rect fill="url(#WhiteGradient)" height="12" rx="2" ry="2" width="12" x="0" y="0"/>
            <rect fill-opacity="0.4" filter="url(#SaturateMinus)" height="12" rx="2" ry="2" width="12" x="0" y="0"/>
            <rect fill="url(#BlackGradient)" height="12" rx="2" ry="2" width="12" x="0" y="0"/>
          </g>
          <g transform="translate(619.36,85.06)">
            <rect fill-opacity="1" height="12" rx="2" ry="2" width="12" x="0" y="0"/>
            <rect fill="url(#WhiteGradient)" height="12" rx="2" ry="2" width="12" x="0" y="0"/>
            <rect fill-opacity="0.4" filter="url(#SaturateMinus)" height="12" rx="2" ry="2" width="12" x="0" y="0"/>
            <rect fill="url(#BlackGradient)" height="12" rx="2" ry="2" width="12" x="0" y="0"/>
          </g>
          <g transform="translate(636.03,395.24)">
            <rect fill-opacity="1" height="12" rx="2" ry="2" width="12" x="0" y="0"/>
            <rect fill="url(#WhiteGradient)" height="12" rx="2" ry="2" width="12" x="0" y="0"/>
            <rect fill-opacity="0.4" filter="url(#SaturateMinus)" height="12" rx="2" ry="2" width="12" x="0" y="0"/>
            <rect fill="url(#BlackGradient)" height="12" rx="2" ry="2" width="12" x="0" y="0"/>
          </g>
          <g transform="translate(702.7,37.34)">
            <rect fill-opacity="1" height="12" rx="2" ry="2" width="12" x="0" y="0"/>
            <rect fill="url(#WhiteGradient)" height="12" rx="2" ry="2" width="12" x="0" y="0"/>
            <rect fill-opacity="0.4" filter="url(#SaturateMinus)" height="12" rx="2" ry="2" width="12" x="0" y="0"/>
            <rect fill="url(#BlackGradient)" height="12" rx="2" ry="2" width="12" x="0" y="0"/>
          </g>
        </g>
      </g>
    </g>
  </g>

</svg>