<?xml version="1.0" encoding="UTF-8" standalone="no" ?><svg xmlns="http://www.w3.org/2000/svg" id="ID_svg" viewBox="0 0 1990 500" viewport-fill="white" viewport-fill-opacity="0" xmlns:exsl4D="http://www.4D.com" xmlns:gFunc="http://gFunc" xmlns:math="http://exslt.org/math" xmlns:xlink="http://www.w3.org/1999/xlink"><!--gradient styles--><defs><filter id="soft_blur"><feGaussianBlur in="SourceGraphic" result="BlurAlpha" stdDeviation="1"/></filter><filter id="pastel"><feGaussianBlur in="SourceAlpha" result="blur" stdDeviation="2"/><feOffset dx="6" dy="6" in="blur" result="offsetBlur"/><feComposite in="SourceGraphic" in2="offsetBlur" operator="in" result="specOut"/></filter><filter id="blur_shadow"><feGaussianBlur in="SourceAlpha" result="blur" stdDeviation="3"/><feOffset dx="4" dy="2" in="blur" result="offsetBlur"/><feBlend in="SourceGraphic" in2="offsetBlur" mode="normal"/></filter><filter filterUnits="objectBoundingBox" id="Shadow"><feGaussianBlur in="SourceAlpha" result="flou" stdDeviation="0"/><feColorMatrix in="SourceAlpha" result="flouBlue" type="matrix" values=" 0 0 0 0 0                      0 0 0 0 0                     0 0 0 0 0                      0 0 0 0.3 0"/><feOffset dx="4" dy="4" in="flouBlue" result="flouDecalage"/><feBlend in="SourceGraphic" in2="flouDecalage" mode="normal"/></filter><filter filterUnits="objectBoundingBox" height="100%" id="SaturateMinus" width="100%" x="0%" y="0%"><feColorMatrix in="SourceGraphic" type="saturate" values="0.5"/></filter><filter filterUnits="objectBoundingBox" height="100%" id="SaturatePlus" width="100%" x="0%" y="0%"><feColorMatrix in="SourceGraphic" type="saturate" values="1.4"/></filter><linearGradient id="BlackGradient"><stop offset="0%" style="stop-color:rgb(0,0,0); stop-opacity:0"/><stop offset="100%" style="stop-color:rgb(0,0,0); stop-opacity:0.1"/></linearGradient><linearGradient id="WhiteGradient" x1="0%" x2="100%" y1="0%" y2="0%"><stop offset="0%" style="stop-color:rgb(255,255,255); stop-opacity:0.3"/><stop offset="100%" style="stop-color:rgb(255,255,255);stop-opacity:0"/></linearGradient><linearGradient id="WhiteBlackGradient" x1="0%" x2="100%" y1="0%" y2="0%"><stop offset="0%" style="stop-color:rgb(255,255,255); stop-opacity:0.15"/><stop offset="100%" style="stop-color:rgb(0,0,0);stop-opacity:0.15"/></linearGradient><linearGradient id="Black0Black1Gradient" x1="0%" x2="0%" y1="0%" y2="100%"><stop offset="0%" style="stop-color:rgb(0,0,0); stop-opacity:0"/><stop offset="100%" style="stop-color:rgb(0,0,0);stop-opacity:0.05"/></linearGradient></defs><!--global stroke and font styles--><g id="ID_globals" style="fill:black;stroke:none;font-family:Arial;font-size:12px;font-weight:normal;font-style:normal;text-decoration:none;shape-rendering:crispEdges"><!--draw title--><!--draw legend--><!--draw graph background--><rect fill="rgb(168,168,168)" fill-opacity="1" height="440" id="ID_background_shadow" rx="10" ry="10" stroke="none" visibility="visible" width="1936" x="43" y="25"/><g fill="rgb(229,229,229)" id="ID_background" visibility="visible"><rect height="440" rx="10" ry="10" stroke="none" width="1936" x="42" y="24"/><rect fill="url(#Black0Black1Gradient)" height="440" rx="10" ry="10" stroke="none" width="1936" x="42" y="24"/></g><clipPath id="ID_backgroundClipPath"><rect height="441" rx="10" ry="10" width="1937" x="42" y="24"/></clipPath><!--draw Y grid lines--><!--draw Y grid lines SHADOWS--><!--draw X grid lines--><!--draw X grid lines SHADOWS --><!--draw y=0 axe--><g id="ID_y0_axis" stroke="rgb(100,100,100)" stroke-width="1" visibility="visible"><line x1="42" x2="1978" y1="244" y2="244"/></g><!--draw axis x labels--><g id="ID_x_values" style="fill:black;stroke:none;font-family:Arial;font-size:12px;font-weight:normal;font-style:normal;text-decoration:none;filter:none" visibility="visible"><text text-anchor="middle" x="166" y="484.8">PT8H0M0S</text><text text-anchor="middle" x="408" y="484.8">PT9H0M0S</text><text text-anchor="middle" x="650" y="484.8">PT10H0M0S</text><text text-anchor="middle" x="892" y="484.8">PT11H0M0S</text><text text-anchor="middle" x="1134" y="484.8">PT11H15M0S</text><text text-anchor="middle" x="1376" y="484.8">PT14H45M0S</text><text text-anchor="middle" x="1618" y="484.8">PT15H0M0S</text><text text-anchor="middle" x="1860" y="484.8">PT16H0M0S</text></g><!--draw axis y labels--><g id="ID_y_values" style="fill:black;stroke:none;font-family:Arial;font-size:12px;font-weight:normal;font-style:normal;text-decoration:none;filter:none" visibility="visible"><text text-anchor="end" x="30" y="468.8">-10</text><text text-anchor="end" x="30" y="424.8">-8</text><text text-anchor="end" x="30" y="380.8">-6</text><text text-anchor="end" x="30" y="336.8">-4</text><text text-anchor="end" x="30" y="292.8">-2</text><text text-anchor="end" x="30" y="248.8">0</text><text text-anchor="end" x="30" y="204.8">2</text><text text-anchor="end" x="30" y="160.8">4</text><text text-anchor="end" x="30" y="116.8">6</text><text text-anchor="end" x="30" y="72.8">8</text><text text-anchor="end" x="30" y="28.8">10</text></g><!--draw bars SHADOWS--><g clip-path="url(#ID_BackgroundClipPath)"><!--              draw bars for data type 1--><g fill="black" fill-opacity="0.2" id="ID_graph_shadow_1"><path d="   M 57 244   l 64.66666666666667 0   l 0 16   s 0 6 -6 6    l -52.66666666666667 0   s -6 0 -6 -6   l 0 -16   z"/><path d="   M 299 206   s 0 -6 6 -6   l 52.66666666666667 0   s 6 0 6 6   l 0 38    l -64.66666666666667 0    l 0 -38   z"/><path d="   M 541 244   l 64.66666666666667 0   l 0 60   s 0 6 -6 6    l -52.66666666666667 0   s -6 0 -6 -6   l 0 -60   z"/><path d="   M 783 162   s 0 -6 6 -6   l 52.66666666666667 0   s 6 0 6 6   l 0 82    l -64.66666666666667 0    l 0 -82   z"/><path d="   M 1025 244   l 64.66666666666667 0   l 0 104   s 0 6 -6 6    l -52.66666666666667 0   s -6 0 -6 -6   l 0 -104   z"/><path d="   M 1267 118   s 0 -6 6 -6   l 52.66666666666667 0   s 6 0 6 6   l 0 126    l -64.66666666666667 0    l 0 -126   z"/><path d="   M 1509 244   l 64.66666666666667 0   l 0 148   s 0 6 -6 6    l -52.66666666666667 0   s -6 0 -6 -6   l 0 -148   z"/><path d="   M 1751 74   s 0 -6 6 -6   l 52.66666666666667 0   s 6 0 6 6   l 0 170    l -64.66666666666667 0    l 0 -170   z"/></g><!--              draw bars for data type 2--><g fill="black" fill-opacity="0.2" id="ID_graph_shadow_2"><path d="   M 133.66666666666669 244   l 64.66666666666667 0   l 0 18.200000000000003   s 0 6 -6 6    l -52.66666666666667 0   s -6 0 -6 -6   l 0 -18.200000000000003   z"/><path d="   M 375.6666666666667 201.6   s 0 -6 6 -6   l 52.66666666666667 0   s 6 0 6 6   l 0 42.400000000000006    l -64.66666666666667 0    l 0 -42.400000000000006   z"/><path d="   M 617.6666666666666 244   l 64.66666666666667 0   l 0 66.6   s 0 6 -6 6    l -52.66666666666667 0   s -6 0 -6 -6   l 0 -66.6   z"/><path d="   M 859.6666666666666 153.2   s 0 -6 6 -6   l 52.66666666666667 0   s 6 0 6 6   l 0 90.80000000000001    l -64.66666666666667 0    l 0 -90.80000000000001   z"/><path d="   M 1101.6666666666667 244   l 64.66666666666667 0   l 0 115   s 0 6 -6 6    l -52.66666666666667 0   s -6 0 -6 -6   l 0 -115   z"/><path d="   M 1343.6666666666667 104.80000000000001   s 0 -6 6 -6   l 52.66666666666667 0   s 6 0 6 6   l 0 139.2    l -64.66666666666667 0    l 0 -139.2   z"/><path d="   M 1585.6666666666667 244   l 64.66666666666667 0   l 0 163.4   s 0 6 -6 6    l -52.66666666666667 0   s -6 0 -6 -6   l 0 -163.4   z"/><path d="   M 1827.6666666666667 56.39999999999998   s 0 -6 6 -6   l 52.66666666666667 0   s 6 0 6 6   l 0 187.60000000000002    l -64.66666666666667 0    l 0 -187.60000000000002   z"/></g><!--              draw bars for data type 3--><g fill="black" fill-opacity="0.2" id="ID_graph_shadow_3"><path d="   M 210.33333333333334 244   l 64.66666666666667 0   l 0 20.619999999999997   s 0 6 -6 6    l -52.66666666666667 0   s -6 0 -6 -6   l 0 -20.619999999999997   z"/><path d="   M 452.33333333333337 196.76   s 0 -6 6 -6   l 52.66666666666667 0   s 6 0 6 6   l 0 47.239999999999995    l -64.66666666666667 0    l 0 -47.239999999999995   z"/><path d="   M 694.3333333333334 244   l 64.66666666666667 0   l 0 73.86   s 0 6 -6 6    l -52.66666666666667 0   s -6 0 -6 -6   l 0 -73.86   z"/><path d="   M 936.3333333333334 143.52   s 0 -6 6 -6   l 52.66666666666667 0   s 6 0 6 6   l 0 100.47999999999999    l -64.66666666666667 0    l 0 -100.47999999999999   z"/><path d="   M 1178.3333333333333 244   l 64.66666666666667 0   l 0 127.1   s 0 6 -6 6    l -52.66666666666667 0   s -6 0 -6 -6   l 0 -127.1   z"/><path d="   M 1420.3333333333333 90.28   s 0 -6 6 -6   l 52.66666666666667 0   s 6 0 6 6   l 0 153.72    l -64.66666666666667 0    l 0 -153.72   z"/><path d="   M 1662.3333333333333 244   l 64.66666666666667 0   l 0 180.34   s 0 6 -6 6    l -52.66666666666667 0   s -6 0 -6 -6   l 0 -180.34   z"/><path d="   M 1904.3333333333333 37.04000000000002   s 0 -6 6 -6   l 52.66666666666667 0   s 6 0 6 6   l 0 206.95999999999998    l -64.66666666666667 0    l 0 -206.95999999999998   z"/></g></g><!--draw BARS--><!--            draw bars for data type 1--><g fill="rgb(0,178,195)" filter="none" id="ID_graph_1" opacity="1" stroke="none" stroke-opacity="1" stroke-width="0"><path d="   M 54 244   l 64.66666666666667 0   l 0 16   s 0 6 -6 6    l -52.66666666666667 0   s -6 0 -6 -6   l 0 -16   z"/><path d="   M 54 244   l 64.66666666666667 0   l 0 16   s 0 6 -6 6    l -52.66666666666667 0   s -6 0 -6 -6   l 0 -16   z" fill="url(#WhiteBlackGradient)"/><path d="   M 54 244   l 64.66666666666667 0   l 0 16   s 0 6 -6 6    l -52.66666666666667 0   s -6 0 -6 -6   l 0 -16   z" fill-opacity="0.3" filter="url(#SaturateMinus)"/><path d="   M 296 206   s 0 -6 6 -6   l 52.66666666666667 0   s 6 0 6 6   l 0 38    l -64.66666666666667 0    l 0 -38   z"/><path d="   M 296 206   s 0 -6 6 -6   l 52.66666666666667 0   s 6 0 6 6   l 0 38    l -64.66666666666667 0    l 0 -38   z" fill="url(#WhiteBlackGradient)"/><path d="   M 296 206   s 0 -6 6 -6   l 52.66666666666667 0   s 6 0 6 6   l 0 38    l -64.66666666666667 0    l 0 -38   z" fill-opacity="0.3" filter="url(#SaturateMinus)"/><path d="   M 538 244   l 64.66666666666667 0   l 0 60   s 0 6 -6 6    l -52.66666666666667 0   s -6 0 -6 -6   l 0 -60   z"/><path d="   M 538 244   l 64.66666666666667 0   l 0 60   s 0 6 -6 6    l -52.66666666666667 0   s -6 0 -6 -6   l 0 -60   z" fill="url(#WhiteBlackGradient)"/><path d="   M 538 244   l 64.66666666666667 0   l 0 60   s 0 6 -6 6    l -52.66666666666667 0   s -6 0 -6 -6   l 0 -60   z" fill-opacity="0.3" filter="url(#SaturateMinus)"/><path d="   M 780 162   s 0 -6 6 -6   l 52.66666666666667 0   s 6 0 6 6   l 0 82    l -64.66666666666667 0    l 0 -82   z"/><path d="   M 780 162   s 0 -6 6 -6   l 52.66666666666667 0   s 6 0 6 6   l 0 82    l -64.66666666666667 0    l 0 -82   z" fill="url(#WhiteBlackGradient)"/><path d="   M 780 162   s 0 -6 6 -6   l 52.66666666666667 0   s 6 0 6 6   l 0 82    l -64.66666666666667 0    l 0 -82   z" fill-opacity="0.3" filter="url(#SaturateMinus)"/><path d="   M 1022 244   l 64.66666666666667 0   l 0 104   s 0 6 -6 6    l -52.66666666666667 0   s -6 0 -6 -6   l 0 -104   z"/><path d="   M 1022 244   l 64.66666666666667 0   l 0 104   s 0 6 -6 6    l -52.66666666666667 0   s -6 0 -6 -6   l 0 -104   z" fill="url(#WhiteBlackGradient)"/><path d="   M 1022 244   l 64.66666666666667 0   l 0 104   s 0 6 -6 6    l -52.66666666666667 0   s -6 0 -6 -6   l 0 -104   z" fill-opacity="0.3" filter="url(#SaturateMinus)"/><path d="   M 1264 118   s 0 -6 6 -6   l 52.66666666666667 0   s 6 0 6 6   l 0 126    l -64.66666666666667 0    l 0 -126   z"/><path d="   M 1264 118   s 0 -6 6 -6   l 52.66666666666667 0   s 6 0 6 6   l 0 126    l -64.66666666666667 0    l 0 -126   z" fill="url(#WhiteBlackGradient)"/><path d="   M 1264 118   s 0 -6 6 -6   l 52.66666666666667 0   s 6 0 6 6   l 0 126    l -64.66666666666667 0    l 0 -126   z" fill-opacity="0.3" filter="url(#SaturateMinus)"/><path d="   M 1506 244   l 64.66666666666667 0   l 0 148   s 0 6 -6 6    l -52.66666666666667 0   s -6 0 -6 -6   l 0 -148   z"/><path d="   M 1506 244   l 64.66666666666667 0   l 0 148   s 0 6 -6 6    l -52.66666666666667 0   s -6 0 -6 -6   l 0 -148   z" fill="url(#WhiteBlackGradient)"/><path d="   M 1506 244   l 64.66666666666667 0   l 0 148   s 0 6 -6 6    l -52.66666666666667 0   s -6 0 -6 -6   l 0 -148   z" fill-opacity="0.3" filter="url(#SaturateMinus)"/><path d="   M 1748 74   s 0 -6 6 -6   l 52.66666666666667 0   s 6 0 6 6   l 0 170    l -64.66666666666667 0    l 0 -170   z"/><path d="   M 1748 74   s 0 -6 6 -6   l 52.66666666666667 0   s 6 0 6 6   l 0 170    l -64.66666666666667 0    l 0 -170   z" fill="url(#WhiteBlackGradient)"/><path d="   M 1748 74   s 0 -6 6 -6   l 52.66666666666667 0   s 6 0 6 6   l 0 170    l -64.66666666666667 0    l 0 -170   z" fill-opacity="0.3" filter="url(#SaturateMinus)"/></g><!--            draw bars for data type 2--><g fill="rgb(255,195,56)" filter="none" id="ID_graph_2" opacity="1" stroke="none" stroke-opacity="1" stroke-width="0"><path d="   M 130.66666666666669 244   l 64.66666666666667 0   l 0 18.200000000000003   s 0 6 -6 6    l -52.66666666666667 0   s -6 0 -6 -6   l 0 -18.200000000000003   z"/><path d="   M 130.66666666666669 244   l 64.66666666666667 0   l 0 18.200000000000003   s 0 6 -6 6    l -52.66666666666667 0   s -6 0 -6 -6   l 0 -18.200000000000003   z" fill="url(#WhiteBlackGradient)"/><path d="   M 130.66666666666669 244   l 64.66666666666667 0   l 0 18.200000000000003   s 0 6 -6 6    l -52.66666666666667 0   s -6 0 -6 -6   l 0 -18.200000000000003   z" fill-opacity="0.3" filter="url(#SaturateMinus)"/><path d="   M 372.6666666666667 201.6   s 0 -6 6 -6   l 52.66666666666667 0   s 6 0 6 6   l 0 42.400000000000006    l -64.66666666666667 0    l 0 -42.400000000000006   z"/><path d="   M 372.6666666666667 201.6   s 0 -6 6 -6   l 52.66666666666667 0   s 6 0 6 6   l 0 42.400000000000006    l -64.66666666666667 0    l 0 -42.400000000000006   z" fill="url(#WhiteBlackGradient)"/><path d="   M 372.6666666666667 201.6   s 0 -6 6 -6   l 52.66666666666667 0   s 6 0 6 6   l 0 42.400000000000006    l -64.66666666666667 0    l 0 -42.400000000000006   z" fill-opacity="0.3" filter="url(#SaturateMinus)"/><path d="   M 614.6666666666666 244   l 64.66666666666667 0   l 0 66.6   s 0 6 -6 6    l -52.66666666666667 0   s -6 0 -6 -6   l 0 -66.6   z"/><path d="   M 614.6666666666666 244   l 64.66666666666667 0   l 0 66.6   s 0 6 -6 6    l -52.66666666666667 0   s -6 0 -6 -6   l 0 -66.6   z" fill="url(#WhiteBlackGradient)"/><path d="   M 614.6666666666666 244   l 64.66666666666667 0   l 0 66.6   s 0 6 -6 6    l -52.66666666666667 0   s -6 0 -6 -6   l 0 -66.6   z" fill-opacity="0.3" filter="url(#SaturateMinus)"/><path d="   M 856.6666666666666 153.2   s 0 -6 6 -6   l 52.66666666666667 0   s 6 0 6 6   l 0 90.80000000000001    l -64.66666666666667 0    l 0 -90.80000000000001   z"/><path d="   M 856.6666666666666 153.2   s 0 -6 6 -6   l 52.66666666666667 0   s 6 0 6 6   l 0 90.80000000000001    l -64.66666666666667 0    l 0 -90.80000000000001   z" fill="url(#WhiteBlackGradient)"/><path d="   M 856.6666666666666 153.2   s 0 -6 6 -6   l 52.66666666666667 0   s 6 0 6 6   l 0 90.80000000000001    l -64.66666666666667 0    l 0 -90.80000000000001   z" fill-opacity="0.3" filter="url(#SaturateMinus)"/><path d="   M 1098.6666666666667 244   l 64.66666666666667 0   l 0 115   s 0 6 -6 6    l -52.66666666666667 0   s -6 0 -6 -6   l 0 -115   z"/><path d="   M 1098.6666666666667 244   l 64.66666666666667 0   l 0 115   s 0 6 -6 6    l -52.66666666666667 0   s -6 0 -6 -6   l 0 -115   z" fill="url(#WhiteBlackGradient)"/><path d="   M 1098.6666666666667 244   l 64.66666666666667 0   l 0 115   s 0 6 -6 6    l -52.66666666666667 0   s -6 0 -6 -6   l 0 -115   z" fill-opacity="0.3" filter="url(#SaturateMinus)"/><path d="   M 1340.6666666666667 104.80000000000001   s 0 -6 6 -6   l 52.66666666666667 0   s 6 0 6 6   l 0 139.2    l -64.66666666666667 0    l 0 -139.2   z"/><path d="   M 1340.6666666666667 104.80000000000001   s 0 -6 6 -6   l 52.66666666666667 0   s 6 0 6 6   l 0 139.2    l -64.66666666666667 0    l 0 -139.2   z" fill="url(#WhiteBlackGradient)"/><path d="   M 1340.6666666666667 104.80000000000001   s 0 -6 6 -6   l 52.66666666666667 0   s 6 0 6 6   l 0 139.2    l -64.66666666666667 0    l 0 -139.2   z" fill-opacity="0.3" filter="url(#SaturateMinus)"/><path d="   M 1582.6666666666667 244   l 64.66666666666667 0   l 0 163.4   s 0 6 -6 6    l -52.66666666666667 0   s -6 0 -6 -6   l 0 -163.4   z"/><path d="   M 1582.6666666666667 244   l 64.66666666666667 0   l 0 163.4   s 0 6 -6 6    l -52.66666666666667 0   s -6 0 -6 -6   l 0 -163.4   z" fill="url(#WhiteBlackGradient)"/><path d="   M 1582.6666666666667 244   l 64.66666666666667 0   l 0 163.4   s 0 6 -6 6    l -52.66666666666667 0   s -6 0 -6 -6   l 0 -163.4   z" fill-opacity="0.3" filter="url(#SaturateMinus)"/><path d="   M 1824.6666666666667 56.39999999999998   s 0 -6 6 -6   l 52.66666666666667 0   s 6 0 6 6   l 0 187.60000000000002    l -64.66666666666667 0    l 0 -187.60000000000002   z"/><path d="   M 1824.6666666666667 56.39999999999998   s 0 -6 6 -6   l 52.66666666666667 0   s 6 0 6 6   l 0 187.60000000000002    l -64.66666666666667 0    l 0 -187.60000000000002   z" fill="url(#WhiteBlackGradient)"/><path d="   M 1824.6666666666667 56.39999999999998   s 0 -6 6 -6   l 52.66666666666667 0   s 6 0 6 6   l 0 187.60000000000002    l -64.66666666666667 0    l 0 -187.60000000000002   z" fill-opacity="0.3" filter="url(#SaturateMinus)"/></g><!--            draw bars for data type 3--><g fill="rgb(87,62,130)" filter="none" id="ID_graph_3" opacity="1" stroke="none" stroke-opacity="1" stroke-width="0"><path d="   M 207.33333333333334 244   l 64.66666666666667 0   l 0 20.619999999999997   s 0 6 -6 6    l -52.66666666666667 0   s -6 0 -6 -6   l 0 -20.619999999999997   z"/><path d="   M 207.33333333333334 244   l 64.66666666666667 0   l 0 20.619999999999997   s 0 6 -6 6    l -52.66666666666667 0   s -6 0 -6 -6   l 0 -20.619999999999997   z" fill="url(#WhiteBlackGradient)"/><path d="   M 207.33333333333334 244   l 64.66666666666667 0   l 0 20.619999999999997   s 0 6 -6 6    l -52.66666666666667 0   s -6 0 -6 -6   l 0 -20.619999999999997   z" fill-opacity="0.3" filter="url(#SaturateMinus)"/><path d="   M 449.33333333333337 196.76   s 0 -6 6 -6   l 52.66666666666667 0   s 6 0 6 6   l 0 47.239999999999995    l -64.66666666666667 0    l 0 -47.239999999999995   z"/><path d="   M 449.33333333333337 196.76   s 0 -6 6 -6   l 52.66666666666667 0   s 6 0 6 6   l 0 47.239999999999995    l -64.66666666666667 0    l 0 -47.239999999999995   z" fill="url(#WhiteBlackGradient)"/><path d="   M 449.33333333333337 196.76   s 0 -6 6 -6   l 52.66666666666667 0   s 6 0 6 6   l 0 47.239999999999995    l -64.66666666666667 0    l 0 -47.239999999999995   z" fill-opacity="0.3" filter="url(#SaturateMinus)"/><path d="   M 691.3333333333334 244   l 64.66666666666667 0   l 0 73.86   s 0 6 -6 6    l -52.66666666666667 0   s -6 0 -6 -6   l 0 -73.86   z"/><path d="   M 691.3333333333334 244   l 64.66666666666667 0   l 0 73.86   s 0 6 -6 6    l -52.66666666666667 0   s -6 0 -6 -6   l 0 -73.86   z" fill="url(#WhiteBlackGradient)"/><path d="   M 691.3333333333334 244   l 64.66666666666667 0   l 0 73.86   s 0 6 -6 6    l -52.66666666666667 0   s -6 0 -6 -6   l 0 -73.86   z" fill-opacity="0.3" filter="url(#SaturateMinus)"/><path d="   M 933.3333333333334 143.52   s 0 -6 6 -6   l 52.66666666666667 0   s 6 0 6 6   l 0 100.47999999999999    l -64.66666666666667 0    l 0 -100.47999999999999   z"/><path d="   M 933.3333333333334 143.52   s 0 -6 6 -6   l 52.66666666666667 0   s 6 0 6 6   l 0 100.47999999999999    l -64.66666666666667 0    l 0 -100.47999999999999   z" fill="url(#WhiteBlackGradient)"/><path d="   M 933.3333333333334 143.52   s 0 -6 6 -6   l 52.66666666666667 0   s 6 0 6 6   l 0 100.47999999999999    l -64.66666666666667 0    l 0 -100.47999999999999   z" fill-opacity="0.3" filter="url(#SaturateMinus)"/><path d="   M 1175.3333333333333 244   l 64.66666666666667 0   l 0 127.1   s 0 6 -6 6    l -52.66666666666667 0   s -6 0 -6 -6   l 0 -127.1   z"/><path d="   M 1175.3333333333333 244   l 64.66666666666667 0   l 0 127.1   s 0 6 -6 6    l -52.66666666666667 0   s -6 0 -6 -6   l 0 -127.1   z" fill="url(#WhiteBlackGradient)"/><path d="   M 1175.3333333333333 244   l 64.66666666666667 0   l 0 127.1   s 0 6 -6 6    l -52.66666666666667 0   s -6 0 -6 -6   l 0 -127.1   z" fill-opacity="0.3" filter="url(#SaturateMinus)"/><path d="   M 1417.3333333333333 90.28   s 0 -6 6 -6   l 52.66666666666667 0   s 6 0 6 6   l 0 153.72    l -64.66666666666667 0    l 0 -153.72   z"/><path d="   M 1417.3333333333333 90.28   s 0 -6 6 -6   l 52.66666666666667 0   s 6 0 6 6   l 0 153.72    l -64.66666666666667 0    l 0 -153.72   z" fill="url(#WhiteBlackGradient)"/><path d="   M 1417.3333333333333 90.28   s 0 -6 6 -6   l 52.66666666666667 0   s 6 0 6 6   l 0 153.72    l -64.66666666666667 0    l 0 -153.72   z" fill-opacity="0.3" filter="url(#SaturateMinus)"/><path d="   M 1659.3333333333333 244   l 64.66666666666667 0   l 0 180.34   s 0 6 -6 6    l -52.66666666666667 0   s -6 0 -6 -6   l 0 -180.34   z"/><path d="   M 1659.3333333333333 244   l 64.66666666666667 0   l 0 180.34   s 0 6 -6 6    l -52.66666666666667 0   s -6 0 -6 -6   l 0 -180.34   z" fill="url(#WhiteBlackGradient)"/><path d="   M 1659.3333333333333 244   l 64.66666666666667 0   l 0 180.34   s 0 6 -6 6    l -52.66666666666667 0   s -6 0 -6 -6   l 0 -180.34   z" fill-opacity="0.3" filter="url(#SaturateMinus)"/><path d="   M 1901.3333333333333 37.04000000000002   s 0 -6 6 -6   l 52.66666666666667 0   s 6 0 6 6   l 0 206.95999999999998    l -64.66666666666667 0    l 0 -206.95999999999998   z"/><path d="   M 1901.3333333333333 37.04000000000002   s 0 -6 6 -6   l 52.66666666666667 0   s 6 0 6 6   l 0 206.95999999999998    l -64.66666666666667 0    l 0 -206.95999999999998   z" fill="url(#WhiteBlackGradient)"/><path d="   M 1901.3333333333333 37.04000000000002   s 0 -6 6 -6   l 52.66666666666667 0   s 6 0 6 6   l 0 206.95999999999998    l -64.66666666666667 0    l 0 -206.95999999999998   z" fill-opacity="0.3" filter="url(#SaturateMinus)"/></g></g></svg>