<?xml version="1.0" encoding="UTF-8" standalone="no" ?><svg xmlns="http://www.w3.org/2000/svg" id="ID_svg" viewBox="0 0 1168 500" viewport-fill="white" viewport-fill-opacity="0" xmlns:exsl4D="http://www.4D.com" xmlns:math="http://exslt.org/math" xmlns:xlink="http://www.w3.org/1999/xlink"><!--gradient styles--><defs><filter id="soft_blur"><feGaussianBlur in="SourceGraphic" result="BlurAlpha" stdDeviation="1"/></filter><filter id="pastel"><feGaussianBlur in="SourceAlpha" result="blur" stdDeviation="2"/><feOffset dx="6" dy="6" in="blur" result="offsetBlur"/><feComposite in="SourceGraphic" in2="offsetBlur" operator="in" result="specOut"/></filter><filter id="blur_shadow"><feGaussianBlur in="SourceAlpha" result="blur" stdDeviation="3"/><feOffset dx="4" dy="2" in="blur" result="offsetBlur"/><feBlend in="SourceGraphic" in2="offsetBlur" mode="normal"/></filter><filter filterUnits="objectBoundingBox" id="Shadow"><feGaussianBlur in="SourceAlpha" result="flou" stdDeviation="0"/><feColorMatrix in="SourceAlpha" result="flouBlue" type="matrix" values=" 0 0 0 0 0                      0 0 0 0 0                     0 0 0 0 0                      0 0 0 0.3 0"/><feOffset dx="4" dy="4" in="flouBlue" result="flouDecalage"/><feBlend in="SourceGraphic" in2="flouDecalage" mode="normal"/></filter><filter filterUnits="objectBoundingBox" height="100%" id="SaturateMinus" width="100%" x="0%" y="0%"><feColorMatrix in="SourceGraphic" type="saturate" values="0.5"/></filter><filter filterUnits="objectBoundingBox" height="100%" id="SaturatePlus" width="100%" x="0%" y="0%"><feColorMatrix in="SourceGraphic" type="saturate" values="1.4"/></filter><linearGradient id="BlackGradient"><stop offset="0%" style="stop-color:rgb(0,0,0); stop-opacity:0"/><stop offset="100%" style="stop-color:rgb(0,0,0); stop-opacity:0.1"/></linearGradient><linearGradient id="WhiteGradient" x1="0%" x2="100%" y1="0%" y2="0%"><stop offset="0%" style="stop-color:rgb(255,255,255); stop-opacity:0.3"/><stop offset="100%" style="stop-color:rgb(255,255,255);stop-opacity:0"/></linearGradient><linearGradient id="WhiteBlackGradient" x1="0%" x2="100%" y1="0%" y2="0%"><stop offset="0%" style="stop-color:rgb(255,255,255); stop-opacity:0.15"/><stop offset="100%" style="stop-color:rgb(0,0,0);stop-opacity:0.15"/></linearGradient><linearGradient id="Black0Black1Gradient" x1="0%" x2="0%" y1="0%" y2="100%"><stop offset="0%" style="stop-color:rgb(0,0,0); stop-opacity:0"/><stop offset="100%" style="stop-color:rgb(0,0,0);stop-opacity:0.05"/></linearGradient></defs><!--global stroke and font styles--><g id="ID_globals" style="fill:black;stroke:none;font-family:Arial;font-size:12px;font-weight:normal;font-style:normal;text-decoration:none;shape-rendering:crispEdges"><!--draw title--><!--draw legend--><!--draw graph background--><rect fill="rgb(168,168,168)" fill-opacity="1" height="446" id="ID_background_shadow" rx="10" ry="10" stroke="none" visibility="visible" width="1120" x="39" y="23"/><g fill="rgb(229,229,229)" id="ID_background" visibility="visible"><rect height="446" rx="10" ry="10" stroke="none" width="1120" x="38" y="22"/><rect fill="url(#Black0Black1Gradient)" height="446" rx="10" ry="10" stroke="none" width="1120" x="38" y="22"/></g><clipPath id="ID_backgroundClipPath"><rect height="447" rx="10" ry="10" width="1121" x="38" y="22"/></clipPath><!--draw Y grid lines--><!--draw Y grid lines SHADOWS--><!--draw X grid lines--><!--draw X grid lines SHADOWS --><!--draw y=0 axe--><g id="ID_y0_axis" stroke="rgb(100,100,100)" stroke-width="1" visibility="visible"><line x1="38" x2="1158" y1="245" y2="245"/></g><!--draw axis x labels--><g id="ID_x_values" style="fill:black;stroke:none;font-family:Arial;font-size:12px;font-weight:normal;font-style:normal;text-decoration:none;filter:none"><text text-anchor="middle" x="111" y="486.8">PT8H0M0S</text><text text-anchor="middle" x="251" y="486.8">PT9H0M0S</text><text text-anchor="middle" x="391" y="486.8">PT10H0M0S</text><text text-anchor="middle" x="531" y="486.8">PT11H0M0S</text><text text-anchor="middle" x="671" y="486.8">PT11H15M0S</text><text text-anchor="middle" x="811" y="486.8">PT14H45M0S</text><text text-anchor="middle" x="951" y="486.8">PT15H0M0S</text><text text-anchor="middle" x="1091" y="486.8">PT16H0M0S</text></g><!--draw axis y labels--><g id="ID_y_values" style="fill:black;stroke:none;font-family:Arial;font-size:12px;font-weight:normal;font-style:normal;text-decoration:none;filter:none"><text text-anchor="end" x="28" y="472.8">-50</text><text text-anchor="end" x="28" y="428.2">-40</text><text text-anchor="end" x="28" y="383.6">-30</text><text text-anchor="end" x="28" y="339">-20</text><text text-anchor="end" x="28" y="294.40000000000003">-10</text><text text-anchor="end" x="28" y="249.8">0</text><text text-anchor="end" x="28" y="205.2">10</text><text text-anchor="end" x="28" y="160.60000000000002">20</text><text text-anchor="end" x="28" y="115.99999999999999">30</text><text text-anchor="end" x="28" y="71.40000000000002">40</text><text text-anchor="end" x="28" y="26.8">50</text></g><!--draw bars SHADOWS--><g clip-path="url(#ID_BackgroundClipPath)" filter="none" id="allGroups" shape-rendering="auto"><!--              draw bars shadows for data type 1--><g fill="black" fill-opacity="0.2" id="ID_graph_shadow_1"><rect height="4.460000000000008" rx="0" ry="0" width="100" x="61" y="245"/><rect height="8.919999999999987" rx="0" ry="0" width="100" x="201" y="236.08"/><rect height="13.379999999999995" rx="0" ry="0" width="100" x="341" y="245"/><rect height="17.840000000000003" rx="0" ry="0" width="100" x="481" y="227.16"/><rect height="22.30000000000001" rx="0" ry="0" width="100" x="621" y="245"/><rect height="26.75999999999999" rx="0" ry="0" width="100" x="761" y="218.24"/><rect height="31.22" rx="0" ry="0" width="100" x="901" y="245.00000000000003"/><rect height="35.68000000000001" rx="0" ry="0" width="100" x="1041" y="209.32"/></g><!--              draw bars shadows for data type 2--><g fill="black" fill-opacity="0.2" id="ID_graph_shadow_2"><rect height="4.906000000000006" rx="0" ry="0" width="100" x="61" y="249.45999999999998"/><rect height="9.812000000000012" rx="0" ry="0" width="100" x="201" y="226.268"/><rect height="14.718000000000018" rx="0" ry="0" width="100" x="341" y="258.38"/><rect height="19.623999999999995" rx="0" ry="0" width="100" x="481" y="207.536"/><rect height="24.53000000000003" rx="0" ry="0" width="100" x="621" y="267.29999999999995"/><rect height="29.436000000000007" rx="0" ry="0" width="100" x="761" y="188.804"/><rect height="34.341999999999985" rx="0" ry="0" width="100" x="901" y="276.22"/><rect height="39.24799999999999" rx="0" ry="0" width="100" x="1041" y="170.072"/></g><!--              draw bars shadows for data type 3--><g fill="black" fill-opacity="0.2" id="ID_graph_shadow_3"><rect height="5.3966000000000065" rx="0" ry="0" width="100" x="61" y="254.366"/><rect height="10.793199999999985" rx="0" ry="0" width="100" x="201" y="215.4748"/><rect height="16.18979999999999" rx="0" ry="0" width="100" x="341" y="273.098"/><rect height="21.586399999999998" rx="0" ry="0" width="100" x="481" y="185.9496"/><rect height="26.983000000000004" rx="0" ry="0" width="100" x="621" y="291.83"/><rect height="32.37959999999998" rx="0" ry="0" width="100" x="761" y="156.4244"/><rect height="37.77620000000002" rx="0" ry="0" width="100" x="901" y="310.562"/><rect height="43.17280000000001" rx="0" ry="0" width="100" x="1041" y="126.8992"/></g><!--              draw bars shadows for data type 4--><g fill="black" fill-opacity="0.2" id="ID_graph_shadow_4"><rect height="5.936260000000004" rx="0" ry="0" width="100" x="61" y="259.7626"/><rect height="11.872520000000009" rx="0" ry="0" width="100" x="201" y="203.60228"/><rect height="17.808780000000013" rx="0" ry="0" width="100" x="341" y="289.2878"/><rect height="23.74503999999999" rx="0" ry="0" width="100" x="481" y="162.20456000000001"/><rect height="29.68130000000002" rx="0" ry="0" width="100" x="621" y="318.813"/><rect height="35.61756" rx="0" ry="0" width="100" x="761" y="120.80684"/><rect height="41.55381999999997" rx="0" ry="0" width="100" x="901" y="348.33820000000003"/><rect height="47.490080000000006" rx="0" ry="0" width="100" x="1041" y="79.40912"/></g><!--              draw bars shadows for data type 5--><g fill="black" fill-opacity="0.2" id="ID_graph_shadow_5"><path d="   M 61 265.69886   l 100 0   l 0 0   s 0 6.529885999999976 -6.529885999999976 6.529885999999976    l -86.94022800000005 0   s -6.529885999999976 0 -6.529885999999976 -6.529885999999976   l 0 0   z"/><path d="   M 201 200.542508   s 0 -10 10 -10   l 80 0   s 10 0 10 10   l 0 3.0597720000000095    l -100 0    l 0 -3.0597720000000095   z"/><path d="   M 341 307.09658   l 100 0   l 0 9.589657999999986   s 0 10 -10 10    l -80 0   s -10 0 -10 -10   l 0 -9.589657999999986   z"/><path d="   M 481 146.085016   s 0 -10 10 -10   l 80 0   s 10 0 10 10   l 0 16.11954399999999    l -100 0    l 0 -16.11954399999999   z"/><path d="   M 621 348.4943   l 100 0   l 0 22.649429999999995   s 0 10 -10 10    l -80 0   s -10 0 -10 -10   l 0 -22.649429999999995   z"/><path d="   M 761 91.627524   s 0 -10 10 -10   l 80 0   s 10 0 10 10   l 0 29.179316    l -100 0    l 0 -29.179316   z"/><path d="   M 901 389.89202   l 100 0   l 0 35.709202000000005   s 0 10 -10 10    l -80 0   s -10 0 -10 -10   l 0 -35.709202000000005   z"/><path d="   M 1041 37.17003199999999   s 0 -10 10 -10   l 80 0   s 10 0 10 10   l 0 42.239087999999995    l -100 0    l 0 -42.239087999999995   z"/></g></g><!--draw bars--><g filter="none" id="allGroups" shape-rendering="auto"><!--              draw bars for data type 1--><g fill="rgb(0,178,195)" fill-opacity="1" id="ID_graph_1" stroke="black" stroke-opacity="0" stroke-width="0"><rect height="4.460000000000008" rx="0" ry="0" width="100" x="58" y="245"/><rect fill="url(#WhiteBlackGradient)" height="4.460000000000008" rx="0" ry="0" width="100" x="58" y="245"/><rect fill-opacity="0.3" filter="url(#SaturateMinus)" height="4.460000000000008" rx="0" ry="0" width="100" x="58" y="245"/><rect height="8.919999999999987" rx="0" ry="0" width="100" x="198" y="236.08"/><rect fill="url(#WhiteBlackGradient)" height="8.919999999999987" rx="0" ry="0" width="100" x="198" y="236.08"/><rect fill-opacity="0.3" filter="url(#SaturateMinus)" height="8.919999999999987" rx="0" ry="0" width="100" x="198" y="236.08"/><rect height="13.379999999999995" rx="0" ry="0" width="100" x="338" y="245"/><rect fill="url(#WhiteBlackGradient)" height="13.379999999999995" rx="0" ry="0" width="100" x="338" y="245"/><rect fill-opacity="0.3" filter="url(#SaturateMinus)" height="13.379999999999995" rx="0" ry="0" width="100" x="338" y="245"/><rect height="17.840000000000003" rx="0" ry="0" width="100" x="478" y="227.16"/><rect fill="url(#WhiteBlackGradient)" height="17.840000000000003" rx="0" ry="0" width="100" x="478" y="227.16"/><rect fill-opacity="0.3" filter="url(#SaturateMinus)" height="17.840000000000003" rx="0" ry="0" width="100" x="478" y="227.16"/><rect height="22.30000000000001" rx="0" ry="0" width="100" x="618" y="245"/><rect fill="url(#WhiteBlackGradient)" height="22.30000000000001" rx="0" ry="0" width="100" x="618" y="245"/><rect fill-opacity="0.3" filter="url(#SaturateMinus)" height="22.30000000000001" rx="0" ry="0" width="100" x="618" y="245"/><rect height="26.75999999999999" rx="0" ry="0" width="100" x="758" y="218.24"/><rect fill="url(#WhiteBlackGradient)" height="26.75999999999999" rx="0" ry="0" width="100" x="758" y="218.24"/><rect fill-opacity="0.3" filter="url(#SaturateMinus)" height="26.75999999999999" rx="0" ry="0" width="100" x="758" y="218.24"/><rect height="31.22" rx="0" ry="0" width="100" x="898" y="245.00000000000003"/><rect fill="url(#WhiteBlackGradient)" height="31.22" rx="0" ry="0" width="100" x="898" y="245.00000000000003"/><rect fill-opacity="0.3" filter="url(#SaturateMinus)" height="31.22" rx="0" ry="0" width="100" x="898" y="245.00000000000003"/><rect height="35.68000000000001" rx="0" ry="0" width="100" x="1038" y="209.32"/><rect fill="url(#WhiteBlackGradient)" height="35.68000000000001" rx="0" ry="0" width="100" x="1038" y="209.32"/><rect fill-opacity="0.3" filter="url(#SaturateMinus)" height="35.68000000000001" rx="0" ry="0" width="100" x="1038" y="209.32"/></g><!--              draw bars for data type 2--><g fill="rgb(255,195,56)" fill-opacity="1" id="ID_graph_2" stroke="black" stroke-opacity="0" stroke-width="0"><rect height="4.906000000000006" rx="0" ry="0" width="100" x="58" y="249.45999999999998"/><rect fill="url(#WhiteBlackGradient)" height="4.906000000000006" rx="0" ry="0" width="100" x="58" y="249.45999999999998"/><rect fill-opacity="0.3" filter="url(#SaturateMinus)" height="4.906000000000006" rx="0" ry="0" width="100" x="58" y="249.45999999999998"/><rect height="9.812000000000012" rx="0" ry="0" width="100" x="198" y="226.268"/><rect fill="url(#WhiteBlackGradient)" height="9.812000000000012" rx="0" ry="0" width="100" x="198" y="226.268"/><rect fill-opacity="0.3" filter="url(#SaturateMinus)" height="9.812000000000012" rx="0" ry="0" width="100" x="198" y="226.268"/><rect height="14.718000000000018" rx="0" ry="0" width="100" x="338" y="258.38"/><rect fill="url(#WhiteBlackGradient)" height="14.718000000000018" rx="0" ry="0" width="100" x="338" y="258.38"/><rect fill-opacity="0.3" filter="url(#SaturateMinus)" height="14.718000000000018" rx="0" ry="0" width="100" x="338" y="258.38"/><rect height="19.623999999999995" rx="0" ry="0" width="100" x="478" y="207.536"/><rect fill="url(#WhiteBlackGradient)" height="19.623999999999995" rx="0" ry="0" width="100" x="478" y="207.536"/><rect fill-opacity="0.3" filter="url(#SaturateMinus)" height="19.623999999999995" rx="0" ry="0" width="100" x="478" y="207.536"/><rect height="24.53000000000003" rx="0" ry="0" width="100" x="618" y="267.29999999999995"/><rect fill="url(#WhiteBlackGradient)" height="24.53000000000003" rx="0" ry="0" width="100" x="618" y="267.29999999999995"/><rect fill-opacity="0.3" filter="url(#SaturateMinus)" height="24.53000000000003" rx="0" ry="0" width="100" x="618" y="267.29999999999995"/><rect height="29.436000000000007" rx="0" ry="0" width="100" x="758" y="188.804"/><rect fill="url(#WhiteBlackGradient)" height="29.436000000000007" rx="0" ry="0" width="100" x="758" y="188.804"/><rect fill-opacity="0.3" filter="url(#SaturateMinus)" height="29.436000000000007" rx="0" ry="0" width="100" x="758" y="188.804"/><rect height="34.341999999999985" rx="0" ry="0" width="100" x="898" y="276.22"/><rect fill="url(#WhiteBlackGradient)" height="34.341999999999985" rx="0" ry="0" width="100" x="898" y="276.22"/><rect fill-opacity="0.3" filter="url(#SaturateMinus)" height="34.341999999999985" rx="0" ry="0" width="100" x="898" y="276.22"/><rect height="39.24799999999999" rx="0" ry="0" width="100" x="1038" y="170.072"/><rect fill="url(#WhiteBlackGradient)" height="39.24799999999999" rx="0" ry="0" width="100" x="1038" y="170.072"/><rect fill-opacity="0.3" filter="url(#SaturateMinus)" height="39.24799999999999" rx="0" ry="0" width="100" x="1038" y="170.072"/></g><!--              draw bars for data type 3--><g fill="rgb(87,62,130)" fill-opacity="1" id="ID_graph_3" stroke="black" stroke-opacity="0" stroke-width="0"><rect height="5.3966000000000065" rx="0" ry="0" width="100" x="58" y="254.366"/><rect fill="url(#WhiteBlackGradient)" height="5.3966000000000065" rx="0" ry="0" width="100" x="58" y="254.366"/><rect fill-opacity="0.3" filter="url(#SaturateMinus)" height="5.3966000000000065" rx="0" ry="0" width="100" x="58" y="254.366"/><rect height="10.793199999999985" rx="0" ry="0" width="100" x="198" y="215.4748"/><rect fill="url(#WhiteBlackGradient)" height="10.793199999999985" rx="0" ry="0" width="100" x="198" y="215.4748"/><rect fill-opacity="0.3" filter="url(#SaturateMinus)" height="10.793199999999985" rx="0" ry="0" width="100" x="198" y="215.4748"/><rect height="16.18979999999999" rx="0" ry="0" width="100" x="338" y="273.098"/><rect fill="url(#WhiteBlackGradient)" height="16.18979999999999" rx="0" ry="0" width="100" x="338" y="273.098"/><rect fill-opacity="0.3" filter="url(#SaturateMinus)" height="16.18979999999999" rx="0" ry="0" width="100" x="338" y="273.098"/><rect height="21.586399999999998" rx="0" ry="0" width="100" x="478" y="185.9496"/><rect fill="url(#WhiteBlackGradient)" height="21.586399999999998" rx="0" ry="0" width="100" x="478" y="185.9496"/><rect fill-opacity="0.3" filter="url(#SaturateMinus)" height="21.586399999999998" rx="0" ry="0" width="100" x="478" y="185.9496"/><rect height="26.983000000000004" rx="0" ry="0" width="100" x="618" y="291.83"/><rect fill="url(#WhiteBlackGradient)" height="26.983000000000004" rx="0" ry="0" width="100" x="618" y="291.83"/><rect fill-opacity="0.3" filter="url(#SaturateMinus)" height="26.983000000000004" rx="0" ry="0" width="100" x="618" y="291.83"/><rect height="32.37959999999998" rx="0" ry="0" width="100" x="758" y="156.4244"/><rect fill="url(#WhiteBlackGradient)" height="32.37959999999998" rx="0" ry="0" width="100" x="758" y="156.4244"/><rect fill-opacity="0.3" filter="url(#SaturateMinus)" height="32.37959999999998" rx="0" ry="0" width="100" x="758" y="156.4244"/><rect height="37.77620000000002" rx="0" ry="0" width="100" x="898" y="310.562"/><rect fill="url(#WhiteBlackGradient)" height="37.77620000000002" rx="0" ry="0" width="100" x="898" y="310.562"/><rect fill-opacity="0.3" filter="url(#SaturateMinus)" height="37.77620000000002" rx="0" ry="0" width="100" x="898" y="310.562"/><rect height="43.17280000000001" rx="0" ry="0" width="100" x="1038" y="126.8992"/><rect fill="url(#WhiteBlackGradient)" height="43.17280000000001" rx="0" ry="0" width="100" x="1038" y="126.8992"/><rect fill-opacity="0.3" filter="url(#SaturateMinus)" height="43.17280000000001" rx="0" ry="0" width="100" x="1038" y="126.8992"/></g><!--              draw bars for data type 4--><g fill="rgb(79,168,57)" fill-opacity="1" id="ID_graph_4" stroke="black" stroke-opacity="0" stroke-width="0"><rect height="5.936260000000004" rx="0" ry="0" width="100" x="58" y="259.7626"/><rect fill="url(#WhiteBlackGradient)" height="5.936260000000004" rx="0" ry="0" width="100" x="58" y="259.7626"/><rect fill-opacity="0.3" filter="url(#SaturateMinus)" height="5.936260000000004" rx="0" ry="0" width="100" x="58" y="259.7626"/><rect height="11.872520000000009" rx="0" ry="0" width="100" x="198" y="203.60228"/><rect fill="url(#WhiteBlackGradient)" height="11.872520000000009" rx="0" ry="0" width="100" x="198" y="203.60228"/><rect fill-opacity="0.3" filter="url(#SaturateMinus)" height="11.872520000000009" rx="0" ry="0" width="100" x="198" y="203.60228"/><rect height="17.808780000000013" rx="0" ry="0" width="100" x="338" y="289.2878"/><rect fill="url(#WhiteBlackGradient)" height="17.808780000000013" rx="0" ry="0" width="100" x="338" y="289.2878"/><rect fill-opacity="0.3" filter="url(#SaturateMinus)" height="17.808780000000013" rx="0" ry="0" width="100" x="338" y="289.2878"/><rect height="23.74503999999999" rx="0" ry="0" width="100" x="478" y="162.20456000000001"/><rect fill="url(#WhiteBlackGradient)" height="23.74503999999999" rx="0" ry="0" width="100" x="478" y="162.20456000000001"/><rect fill-opacity="0.3" filter="url(#SaturateMinus)" height="23.74503999999999" rx="0" ry="0" width="100" x="478" y="162.20456000000001"/><rect height="29.68130000000002" rx="0" ry="0" width="100" x="618" y="318.813"/><rect fill="url(#WhiteBlackGradient)" height="29.68130000000002" rx="0" ry="0" width="100" x="618" y="318.813"/><rect fill-opacity="0.3" filter="url(#SaturateMinus)" height="29.68130000000002" rx="0" ry="0" width="100" x="618" y="318.813"/><rect height="35.61756" rx="0" ry="0" width="100" x="758" y="120.80684"/><rect fill="url(#WhiteBlackGradient)" height="35.61756" rx="0" ry="0" width="100" x="758" y="120.80684"/><rect fill-opacity="0.3" filter="url(#SaturateMinus)" height="35.61756" rx="0" ry="0" width="100" x="758" y="120.80684"/><rect height="41.55381999999997" rx="0" ry="0" width="100" x="898" y="348.33820000000003"/><rect fill="url(#WhiteBlackGradient)" height="41.55381999999997" rx="0" ry="0" width="100" x="898" y="348.33820000000003"/><rect fill-opacity="0.3" filter="url(#SaturateMinus)" height="41.55381999999997" rx="0" ry="0" width="100" x="898" y="348.33820000000003"/><rect height="47.490080000000006" rx="0" ry="0" width="100" x="1038" y="79.40912"/><rect fill="url(#WhiteBlackGradient)" height="47.490080000000006" rx="0" ry="0" width="100" x="1038" y="79.40912"/><rect fill-opacity="0.3" filter="url(#SaturateMinus)" height="47.490080000000006" rx="0" ry="0" width="100" x="1038" y="79.40912"/></g><!--              draw bars for data type 5--><g fill="rgb(217,87,0)" fill-opacity="1" id="ID_graph_5" stroke="black" stroke-opacity="0" stroke-width="0"><path d="   M 58 265.69886   l 100 0   l 0 0   s 0 6.529885999999976 -6.529885999999976 6.529885999999976    l -86.94022800000005 0   s -6.529885999999976 0 -6.529885999999976 -6.529885999999976   l 0 0   z"/><path d="   M 58 265.69886   l 100 0   l 0 0   s 0 6.529885999999976 -6.529885999999976 6.529885999999976    l -86.94022800000005 0   s -6.529885999999976 0 -6.529885999999976 -6.529885999999976   l 0 0   z" fill="url(#WhiteBlackGradient)"/><path d="   M 58 265.69886   l 100 0   l 0 0   s 0 6.529885999999976 -6.529885999999976 6.529885999999976    l -86.94022800000005 0   s -6.529885999999976 0 -6.529885999999976 -6.529885999999976   l 0 0   z" fill-opacity="0.3" filter="url(#SaturateMinus)"/><path d="   M 198 200.542508   s 0 -10 10 -10   l 80 0   s 10 0 10 10   l 0 3.0597720000000095    l -100 0    l 0 -3.0597720000000095   z"/><path d="   M 198 200.542508   s 0 -10 10 -10   l 80 0   s 10 0 10 10   l 0 3.0597720000000095    l -100 0    l 0 -3.0597720000000095   z" fill="url(#WhiteBlackGradient)"/><path d="   M 198 200.542508   s 0 -10 10 -10   l 80 0   s 10 0 10 10   l 0 3.0597720000000095    l -100 0    l 0 -3.0597720000000095   z" fill-opacity="0.3" filter="url(#SaturateMinus)"/><path d="   M 338 307.09658   l 100 0   l 0 9.589657999999986   s 0 10 -10 10    l -80 0   s -10 0 -10 -10   l 0 -9.589657999999986   z"/><path d="   M 338 307.09658   l 100 0   l 0 9.589657999999986   s 0 10 -10 10    l -80 0   s -10 0 -10 -10   l 0 -9.589657999999986   z" fill="url(#WhiteBlackGradient)"/><path d="   M 338 307.09658   l 100 0   l 0 9.589657999999986   s 0 10 -10 10    l -80 0   s -10 0 -10 -10   l 0 -9.589657999999986   z" fill-opacity="0.3" filter="url(#SaturateMinus)"/><path d="   M 478 146.085016   s 0 -10 10 -10   l 80 0   s 10 0 10 10   l 0 16.11954399999999    l -100 0    l 0 -16.11954399999999   z"/><path d="   M 478 146.085016   s 0 -10 10 -10   l 80 0   s 10 0 10 10   l 0 16.11954399999999    l -100 0    l 0 -16.11954399999999   z" fill="url(#WhiteBlackGradient)"/><path d="   M 478 146.085016   s 0 -10 10 -10   l 80 0   s 10 0 10 10   l 0 16.11954399999999    l -100 0    l 0 -16.11954399999999   z" fill-opacity="0.3" filter="url(#SaturateMinus)"/><path d="   M 618 348.4943   l 100 0   l 0 22.649429999999995   s 0 10 -10 10    l -80 0   s -10 0 -10 -10   l 0 -22.649429999999995   z"/><path d="   M 618 348.4943   l 100 0   l 0 22.649429999999995   s 0 10 -10 10    l -80 0   s -10 0 -10 -10   l 0 -22.649429999999995   z" fill="url(#WhiteBlackGradient)"/><path d="   M 618 348.4943   l 100 0   l 0 22.649429999999995   s 0 10 -10 10    l -80 0   s -10 0 -10 -10   l 0 -22.649429999999995   z" fill-opacity="0.3" filter="url(#SaturateMinus)"/><path d="   M 758 91.627524   s 0 -10 10 -10   l 80 0   s 10 0 10 10   l 0 29.179316    l -100 0    l 0 -29.179316   z"/><path d="   M 758 91.627524   s 0 -10 10 -10   l 80 0   s 10 0 10 10   l 0 29.179316    l -100 0    l 0 -29.179316   z" fill="url(#WhiteBlackGradient)"/><path d="   M 758 91.627524   s 0 -10 10 -10   l 80 0   s 10 0 10 10   l 0 29.179316    l -100 0    l 0 -29.179316   z" fill-opacity="0.3" filter="url(#SaturateMinus)"/><path d="   M 898 389.89202   l 100 0   l 0 35.709202000000005   s 0 10 -10 10    l -80 0   s -10 0 -10 -10   l 0 -35.709202000000005   z"/><path d="   M 898 389.89202   l 100 0   l 0 35.709202000000005   s 0 10 -10 10    l -80 0   s -10 0 -10 -10   l 0 -35.709202000000005   z" fill="url(#WhiteBlackGradient)"/><path d="   M 898 389.89202   l 100 0   l 0 35.709202000000005   s 0 10 -10 10    l -80 0   s -10 0 -10 -10   l 0 -35.709202000000005   z" fill-opacity="0.3" filter="url(#SaturateMinus)"/><path d="   M 1038 37.17003199999999   s 0 -10 10 -10   l 80 0   s 10 0 10 10   l 0 42.239087999999995    l -100 0    l 0 -42.239087999999995   z"/><path d="   M 1038 37.17003199999999   s 0 -10 10 -10   l 80 0   s 10 0 10 10   l 0 42.239087999999995    l -100 0    l 0 -42.239087999999995   z" fill="url(#WhiteBlackGradient)"/><path d="   M 1038 37.17003199999999   s 0 -10 10 -10   l 80 0   s 10 0 10 10   l 0 42.239087999999995    l -100 0    l 0 -42.239087999999995   z" fill-opacity="0.3" filter="url(#SaturateMinus)"/></g></g></g></svg>