<?xml version="1.0" encoding="UTF-8" standalone="no" ?><svg xmlns="http://www.w3.org/2000/svg" id="ID_svg" viewBox="0 0 1168 500" viewport-fill="white" viewport-fill-opacity="0" xmlns:exsl4D="http://www.4D.com" xmlns:math="http://exslt.org/math" xmlns:xlink="http://www.w3.org/1999/xlink"><!--gradient styles--><defs><filter id="soft_blur"><feGaussianBlur in="SourceGraphic" result="BlurAlpha" stdDeviation="1"/></filter><filter id="pastel"><feGaussianBlur in="SourceAlpha" result="blur" stdDeviation="2"/><feOffset dx="6" dy="6" in="blur" result="offsetBlur"/><feComposite in="SourceGraphic" in2="offsetBlur" operator="in" result="specOut"/></filter><filter id="blur_shadow"><feGaussianBlur in="SourceAlpha" result="blur" stdDeviation="3"/><feOffset dx="4" dy="2" in="blur" result="offsetBlur"/><feBlend in="SourceGraphic" in2="offsetBlur" mode="normal"/></filter><filter filterUnits="objectBoundingBox" id="Shadow"><feGaussianBlur in="SourceAlpha" result="flou" stdDeviation="0"/><feColorMatrix in="SourceAlpha" result="flouBlue" type="matrix" values=" 0 0 0 0 0                      0 0 0 0 0                     0 0 0 0 0                      0 0 0 0.3 0"/><feOffset dx="4" dy="4" in="flouBlue" result="flouDecalage"/><feBlend in="SourceGraphic" in2="flouDecalage" mode="normal"/></filter><filter filterUnits="objectBoundingBox" height="100%" id="SaturateMinus" width="100%" x="0%" y="0%"><feColorMatrix in="SourceGraphic" type="saturate" values="0.5"/></filter><filter filterUnits="objectBoundingBox" height="100%" id="SaturatePlus" width="100%" x="0%" y="0%"><feColorMatrix in="SourceGraphic" type="saturate" values="1.4"/></filter><linearGradient id="BlackGradient"><stop offset="0%" style="stop-color:rgb(0,0,0); stop-opacity:0"/><stop offset="100%" style="stop-color:rgb(0,0,0); stop-opacity:0.1"/></linearGradient><linearGradient id="WhiteGradient" x1="0%" x2="100%" y1="0%" y2="0%"><stop offset="0%" style="stop-color:rgb(255,255,255); stop-opacity:0.3"/><stop offset="100%" style="stop-color:rgb(255,255,255);stop-opacity:0"/></linearGradient><linearGradient id="WhiteBlackGradient" x1="0%" x2="100%" y1="0%" y2="0%"><stop offset="0%" style="stop-color:rgb(255,255,255); stop-opacity:0.15"/><stop offset="100%" style="stop-color:rgb(0,0,0);stop-opacity:0.15"/></linearGradient><linearGradient id="Black0Black1Gradient" x1="0%" x2="0%" y1="0%" y2="100%"><stop offset="0%" style="stop-color:rgb(0,0,0); stop-opacity:0"/><stop offset="100%" style="stop-color:rgb(0,0,0);stop-opacity:0.05"/></linearGradient><clipPath id="ID_graph_clip"><rect height="446" width="1120" x="38" y="22"/></clipPath></defs><!--global stroke and font styles--><g id="ID_globals" style="fill:black;stroke:none;font-family:Arial;font-size:12px;font-weight:normal;font-style:normal;text-decoration:none;shape-rendering:crispEdges"><!--draw title--><!--draw legend--><!--draw graph background--><rect fill="rgb(168,168,168)" fill-opacity="1" height="446" id="ID_background_shadow" rx="10" ry="10" stroke="none" visibility="visible" width="1120" x="39" y="23"/><g fill="rgb(229,229,229)" id="ID_background" visibility="visible"><rect height="446" rx="10" ry="10" stroke="none" width="1120" x="38" y="22"/><rect fill="url(#Black0Black1Gradient)" height="446" rx="10" ry="10" stroke="none" width="1120" x="38" y="22"/></g><clipPath id="ID_backgroundClipPath"><rect height="447" rx="10" ry="10" width="1121" x="38" y="22"/></clipPath><!--draw Y grid lines--><!--draw Y grid lines SHADOWS--><!--draw X grid lines--><!--draw X grid lines SHADOWS --><!--draw y=0 axe--><g id="ID_y0_axis" stroke="rgb(100,100,100)" stroke-width="1" visibility="visible"><line x1="38" x2="1158" y1="265.27272727272725" y2="265.27272727272725"/></g><!--draw axis x labels--><g id="ID_x_values" style="fill:black;stroke:none;font-family:Arial;font-size:12px;font-weight:normal;font-style:normal;text-decoration:none;filter:none"><text text-anchor="middle" x="111" y="486.8">PT8H0M0S</text><text text-anchor="middle" x="251" y="486.8">PT9H0M0S</text><text text-anchor="middle" x="391" y="486.8">PT10H0M0S</text><text text-anchor="middle" x="531" y="486.8">PT11H0M0S</text><text text-anchor="middle" x="671" y="486.8">PT11H15M0S</text><text text-anchor="middle" x="811" y="486.8">PT14H45M0S</text><text text-anchor="middle" x="951" y="486.8">PT15H0M0S</text><text text-anchor="middle" x="1091" y="486.8">PT16H0M0S</text></g><!--draw axis y labels--><g id="ID_y_values" style="fill:black;stroke:none;font-family:Arial;font-size:12px;font-weight:normal;font-style:normal;text-decoration:none;filter:none"><text text-anchor="end" x="28" y="472.8">-10</text><text text-anchor="end" x="28" y="432.25454545454545">-8</text><text text-anchor="end" x="28" y="391.7090909090909">-6</text><text text-anchor="end" x="28" y="351.1636363636364">-4</text><text text-anchor="end" x="28" y="310.6181818181818">-2</text><text text-anchor="end" x="28" y="270.07272727272726">0</text><text text-anchor="end" x="28" y="229.52727272727273">2</text><text text-anchor="end" x="28" y="188.9818181818182">4</text><text text-anchor="end" x="28" y="148.43636363636364">6</text><text text-anchor="end" x="28" y="107.89090909090906">8</text><text text-anchor="end" x="28" y="67.3454545454545">10</text><text text-anchor="end" x="28" y="26.8">12</text></g><!--draw lines and bullets--><g filter="none" id="allGroups"><!--draw bullet for data type 1--><g fill="rgb(0,178,195)" fill-opacity="1" id="ID_graph_1" stroke="black" stroke-opacity="0" stroke-width="0"><circle cx="108" cy="285.5454545454545" fill-opacity="1" r="8"/><circle cx="108" cy="285.5454545454545" fill="url(#WhiteGradient)" r="8"/><circle cx="108" cy="285.5454545454545" fill-opacity="0.4" filter="url(#SaturateMinus)" r="8"/><circle cx="108" cy="285.5454545454545" fill="url(#BlackGradient)" r="8"/><circle cx="248" cy="224.7272727272727" fill-opacity="1" r="8"/><circle cx="248" cy="224.7272727272727" fill="url(#WhiteGradient)" r="8"/><circle cx="248" cy="224.7272727272727" fill-opacity="0.4" filter="url(#SaturateMinus)" r="8"/><circle cx="248" cy="224.7272727272727" fill="url(#BlackGradient)" r="8"/><circle cx="388" cy="326.09090909090907" fill-opacity="1" r="8"/><circle cx="388" cy="326.09090909090907" fill="url(#WhiteGradient)" r="8"/><circle cx="388" cy="326.09090909090907" fill-opacity="0.4" filter="url(#SaturateMinus)" r="8"/><circle cx="388" cy="326.09090909090907" fill="url(#BlackGradient)" r="8"/><circle cx="528" cy="184.18181818181816" fill-opacity="1" r="8"/><circle cx="528" cy="184.18181818181816" fill="url(#WhiteGradient)" r="8"/><circle cx="528" cy="184.18181818181816" fill-opacity="0.4" filter="url(#SaturateMinus)" r="8"/><circle cx="528" cy="184.18181818181816" fill="url(#BlackGradient)" r="8"/><circle cx="668" cy="366.6363636363636" fill-opacity="1" r="8"/><circle cx="668" cy="366.6363636363636" fill="url(#WhiteGradient)" r="8"/><circle cx="668" cy="366.6363636363636" fill-opacity="0.4" filter="url(#SaturateMinus)" r="8"/><circle cx="668" cy="366.6363636363636" fill="url(#BlackGradient)" r="8"/><circle cx="808" cy="143.63636363636363" fill-opacity="1" r="8"/><circle cx="808" cy="143.63636363636363" fill="url(#WhiteGradient)" r="8"/><circle cx="808" cy="143.63636363636363" fill-opacity="0.4" filter="url(#SaturateMinus)" r="8"/><circle cx="808" cy="143.63636363636363" fill="url(#BlackGradient)" r="8"/><circle cx="948" cy="407.18181818181813" fill-opacity="1" r="8"/><circle cx="948" cy="407.18181818181813" fill="url(#WhiteGradient)" r="8"/><circle cx="948" cy="407.18181818181813" fill-opacity="0.4" filter="url(#SaturateMinus)" r="8"/><circle cx="948" cy="407.18181818181813" fill="url(#BlackGradient)" r="8"/><circle cx="1088" cy="103.09090909090907" fill-opacity="1" r="8"/><circle cx="1088" cy="103.09090909090907" fill="url(#WhiteGradient)" r="8"/><circle cx="1088" cy="103.09090909090907" fill-opacity="0.4" filter="url(#SaturateMinus)" r="8"/><circle cx="1088" cy="103.09090909090907" fill="url(#BlackGradient)" r="8"/></g><!--draw bullet for data type 2--><g fill="rgb(255,195,56)" fill-opacity="1" id="ID_graph_2" stroke="black" stroke-opacity="0" stroke-width="0"><circle cx="108" cy="287.57272727272726" fill-opacity="1" r="8"/><circle cx="108" cy="287.57272727272726" fill="url(#WhiteGradient)" r="8"/><circle cx="108" cy="287.57272727272726" fill-opacity="0.4" filter="url(#SaturateMinus)" r="8"/><circle cx="108" cy="287.57272727272726" fill="url(#BlackGradient)" r="8"/><circle cx="248" cy="220.67272727272723" fill-opacity="1" r="8"/><circle cx="248" cy="220.67272727272723" fill="url(#WhiteGradient)" r="8"/><circle cx="248" cy="220.67272727272723" fill-opacity="0.4" filter="url(#SaturateMinus)" r="8"/><circle cx="248" cy="220.67272727272723" fill="url(#BlackGradient)" r="8"/><circle cx="388" cy="332.17272727272723" fill-opacity="1" r="8"/><circle cx="388" cy="332.17272727272723" fill="url(#WhiteGradient)" r="8"/><circle cx="388" cy="332.17272727272723" fill-opacity="0.4" filter="url(#SaturateMinus)" r="8"/><circle cx="388" cy="332.17272727272723" fill="url(#BlackGradient)" r="8"/><circle cx="528" cy="176.07272727272724" fill-opacity="1" r="8"/><circle cx="528" cy="176.07272727272724" fill="url(#WhiteGradient)" r="8"/><circle cx="528" cy="176.07272727272724" fill-opacity="0.4" filter="url(#SaturateMinus)" r="8"/><circle cx="528" cy="176.07272727272724" fill="url(#BlackGradient)" r="8"/><circle cx="668" cy="376.77272727272725" fill-opacity="1" r="8"/><circle cx="668" cy="376.77272727272725" fill="url(#WhiteGradient)" r="8"/><circle cx="668" cy="376.77272727272725" fill-opacity="0.4" filter="url(#SaturateMinus)" r="8"/><circle cx="668" cy="376.77272727272725" fill="url(#BlackGradient)" r="8"/><circle cx="808" cy="131.47272727272727" fill-opacity="1" r="8"/><circle cx="808" cy="131.47272727272727" fill="url(#WhiteGradient)" r="8"/><circle cx="808" cy="131.47272727272727" fill-opacity="0.4" filter="url(#SaturateMinus)" r="8"/><circle cx="808" cy="131.47272727272727" fill="url(#BlackGradient)" r="8"/><circle cx="948" cy="421.3727272727273" fill-opacity="1" r="8"/><circle cx="948" cy="421.3727272727273" fill="url(#WhiteGradient)" r="8"/><circle cx="948" cy="421.3727272727273" fill-opacity="0.4" filter="url(#SaturateMinus)" r="8"/><circle cx="948" cy="421.3727272727273" fill="url(#BlackGradient)" r="8"/><circle cx="1088" cy="86.87272727272722" fill-opacity="1" r="8"/><circle cx="1088" cy="86.87272727272722" fill="url(#WhiteGradient)" r="8"/><circle cx="1088" cy="86.87272727272722" fill-opacity="0.4" filter="url(#SaturateMinus)" r="8"/><circle cx="1088" cy="86.87272727272722" fill="url(#BlackGradient)" r="8"/></g><!--draw bullet for data type 3--><g fill="rgb(87,62,130)" fill-opacity="1" id="ID_graph_3" stroke="black" stroke-opacity="0" stroke-width="0"><circle cx="108" cy="289.8027272727272" fill-opacity="1" r="8"/><circle cx="108" cy="289.8027272727272" fill="url(#WhiteGradient)" r="8"/><circle cx="108" cy="289.8027272727272" fill-opacity="0.4" filter="url(#SaturateMinus)" r="8"/><circle cx="108" cy="289.8027272727272" fill="url(#BlackGradient)" r="8"/><circle cx="248" cy="216.21272727272725" fill-opacity="1" r="8"/><circle cx="248" cy="216.21272727272725" fill="url(#WhiteGradient)" r="8"/><circle cx="248" cy="216.21272727272725" fill-opacity="0.4" filter="url(#SaturateMinus)" r="8"/><circle cx="248" cy="216.21272727272725" fill="url(#BlackGradient)" r="8"/><circle cx="388" cy="338.8627272727273" fill-opacity="1" r="8"/><circle cx="388" cy="338.8627272727273" fill="url(#WhiteGradient)" r="8"/><circle cx="388" cy="338.8627272727273" fill-opacity="0.4" filter="url(#SaturateMinus)" r="8"/><circle cx="388" cy="338.8627272727273" fill="url(#BlackGradient)" r="8"/><circle cx="528" cy="167.15272727272725" fill-opacity="1" r="8"/><circle cx="528" cy="167.15272727272725" fill="url(#WhiteGradient)" r="8"/><circle cx="528" cy="167.15272727272725" fill-opacity="0.4" filter="url(#SaturateMinus)" r="8"/><circle cx="528" cy="167.15272727272725" fill="url(#BlackGradient)" r="8"/><circle cx="668" cy="387.92272727272723" fill-opacity="1" r="8"/><circle cx="668" cy="387.92272727272723" fill="url(#WhiteGradient)" r="8"/><circle cx="668" cy="387.92272727272723" fill-opacity="0.4" filter="url(#SaturateMinus)" r="8"/><circle cx="668" cy="387.92272727272723" fill="url(#BlackGradient)" r="8"/><circle cx="808" cy="118.09272727272725" fill-opacity="1" r="8"/><circle cx="808" cy="118.09272727272725" fill="url(#WhiteGradient)" r="8"/><circle cx="808" cy="118.09272727272725" fill-opacity="0.4" filter="url(#SaturateMinus)" r="8"/><circle cx="808" cy="118.09272727272725" fill="url(#BlackGradient)" r="8"/><circle cx="948" cy="436.9827272727273" fill-opacity="1" r="8"/><circle cx="948" cy="436.9827272727273" fill="url(#WhiteGradient)" r="8"/><circle cx="948" cy="436.9827272727273" fill-opacity="0.4" filter="url(#SaturateMinus)" r="8"/><circle cx="948" cy="436.9827272727273" fill="url(#BlackGradient)" r="8"/><circle cx="1088" cy="69.03272727272724" fill-opacity="1" r="8"/><circle cx="1088" cy="69.03272727272724" fill="url(#WhiteGradient)" r="8"/><circle cx="1088" cy="69.03272727272724" fill-opacity="0.4" filter="url(#SaturateMinus)" r="8"/><circle cx="1088" cy="69.03272727272724" fill="url(#BlackGradient)" r="8"/></g><!--draw bullet for data type 4--><g fill="rgb(79,168,57)" fill-opacity="1" id="ID_graph_4" stroke="black" stroke-opacity="0" stroke-width="0"><circle cx="108" cy="292.25572727272726" fill-opacity="1" r="8"/><circle cx="108" cy="292.25572727272726" fill="url(#WhiteGradient)" r="8"/><circle cx="108" cy="292.25572727272726" fill-opacity="0.4" filter="url(#SaturateMinus)" r="8"/><circle cx="108" cy="292.25572727272726" fill="url(#BlackGradient)" r="8"/><circle cx="248" cy="211.30672727272724" fill-opacity="1" r="8"/><circle cx="248" cy="211.30672727272724" fill="url(#WhiteGradient)" r="8"/><circle cx="248" cy="211.30672727272724" fill-opacity="0.4" filter="url(#SaturateMinus)" r="8"/><circle cx="248" cy="211.30672727272724" fill="url(#BlackGradient)" r="8"/><circle cx="388" cy="346.22172727272726" fill-opacity="1" r="8"/><circle cx="388" cy="346.22172727272726" fill="url(#WhiteGradient)" r="8"/><circle cx="388" cy="346.22172727272726" fill-opacity="0.4" filter="url(#SaturateMinus)" r="8"/><circle cx="388" cy="346.22172727272726" fill="url(#BlackGradient)" r="8"/><circle cx="528" cy="157.34072727272724" fill-opacity="1" r="8"/><circle cx="528" cy="157.34072727272724" fill="url(#WhiteGradient)" r="8"/><circle cx="528" cy="157.34072727272724" fill-opacity="0.4" filter="url(#SaturateMinus)" r="8"/><circle cx="528" cy="157.34072727272724" fill="url(#BlackGradient)" r="8"/><circle cx="668" cy="400.1877272727273" fill-opacity="1" r="8"/><circle cx="668" cy="400.1877272727273" fill="url(#WhiteGradient)" r="8"/><circle cx="668" cy="400.1877272727273" fill-opacity="0.4" filter="url(#SaturateMinus)" r="8"/><circle cx="668" cy="400.1877272727273" fill="url(#BlackGradient)" r="8"/><circle cx="808" cy="103.37472727272726" fill-opacity="1" r="8"/><circle cx="808" cy="103.37472727272726" fill="url(#WhiteGradient)" r="8"/><circle cx="808" cy="103.37472727272726" fill-opacity="0.4" filter="url(#SaturateMinus)" r="8"/><circle cx="808" cy="103.37472727272726" fill="url(#BlackGradient)" r="8"/><circle cx="948" cy="454.1537272727272" fill-opacity="1" r="8"/><circle cx="948" cy="454.1537272727272" fill="url(#WhiteGradient)" r="8"/><circle cx="948" cy="454.1537272727272" fill-opacity="0.4" filter="url(#SaturateMinus)" r="8"/><circle cx="948" cy="454.1537272727272" fill="url(#BlackGradient)" r="8"/><circle cx="1088" cy="49.40872727272725" fill-opacity="1" r="8"/><circle cx="1088" cy="49.40872727272725" fill="url(#WhiteGradient)" r="8"/><circle cx="1088" cy="49.40872727272725" fill-opacity="0.4" filter="url(#SaturateMinus)" r="8"/><circle cx="1088" cy="49.40872727272725" fill="url(#BlackGradient)" r="8"/></g></g></g></svg>