
<svg xmlns="http://www.w3.org/2000/svg" id="ID_svg" viewBox="0 0 1257.96 466" viewport-fill="darkblue" viewport-fill-opacity="0.25" xmlns:exsl4D="http://www.4D.com" xmlns:gFunc="http://gFunc" xmlns:math="http://exslt.org/math" xmlns:xlink="http://www.w3.org/1999/xlink">

  <!--gradient styles-->

  <defs>
    <filter id="soft_blur">
      <feGaussianBlur in="SourceGraphic" result="BlurAlpha" stdDeviation="1"/>
    </filter>
    <filter id="pastel">
      <feGaussianBlur in="SourceAlpha" result="blur" stdDeviation="2"/>
      <feOffset dx="6" dy="6" in="blur" result="offsetBlur"/>
      <feComposite in="SourceGraphic" in2="offsetBlur" operator="in" result="specOut"/>
    </filter>
    <filter id="blur_shadow">
      <feGaussianBlur in="SourceAlpha" result="blur" stdDeviation="3"/>
      <feOffset dx="4" dy="2" in="blur" result="offsetBlur"/>
      <feBlend in="SourceGraphic" in2="offsetBlur" mode="normal"/>
    </filter>
    <filter filterUnits="objectBoundingBox" id="Shadow">
      <feGaussianBlur in="SourceAlpha" result="flou" stdDeviation="0"/>
      <feColorMatrix in="SourceAlpha" result="flouBlue" type="matrix" values=" 0 0 0 0 0                      0 0 0 0 0                     0 0 0 0 0                      0 0 0 0.3 0"/>
      <feOffset dx="4" dy="4" in="flouBlue" result="flouDecalage"/>
      <feBlend in="SourceGraphic" in2="flouDecalage" mode="normal"/>
    </filter>
    <filter filterUnits="objectBoundingBox" height="100%" id="SaturateMinus" width="100%" x="0%" y="0%">
      <feColorMatrix in="SourceGraphic" type="saturate" values="0.5"/>
    </filter>
    <filter filterUnits="objectBoundingBox" height="100%" id="SaturatePlus" width="100%" x="0%" y="0%">
      <feColorMatrix in="SourceGraphic" type="saturate" values="1.4"/>
    </filter>
    <linearGradient id="BlackGradient">
      <stop offset="0%" style="stop-color:rgb(0,0,0); stop-opacity:0"/>
      <stop offset="100%" style="stop-color:rgb(0,0,0); stop-opacity:0.1"/>
    </linearGradient>
    <linearGradient id="WhiteGradient" x1="0%" x2="100%" y1="0%" y2="0%">
      <stop offset="0%" style="stop-color:rgb(255,255,255); stop-opacity:0.3"/>
      <stop offset="100%" style="stop-color:rgb(255,255,255);stop-opacity:0"/>
    </linearGradient>
    <linearGradient id="WhiteBlackGradient" x1="0%" x2="100%" y1="0%" y2="0%">
      <stop offset="0%" style="stop-color:rgb(255,255,255); stop-opacity:0.15"/>
      <stop offset="100%" style="stop-color:rgb(0,0,0);stop-opacity:0.15"/>
    </linearGradient>
    <linearGradient id="Black0Black1Gradient" x1="0%" x2="0%" y1="0%" y2="100%">
      <stop offset="0%" style="stop-color:rgb(0,0,0); stop-opacity:0"/>
      <stop offset="100%" style="stop-color:rgb(0,0,0);stop-opacity:0.05"/>
    </linearGradient>
  </defs>

  <!--global stroke and font styles-->

  <g id="ID_globals" style="fill:red;stroke:none;font-family:Arial;font-size:14px;font-weight:normal;font-style:normal;text-decoration:none;shape-rendering:crispEdges">
    <!--draw title-->
    <!--********************************draw graph background********************************-->
    <rect fill="darkgreen" height="400" id="ID_background_shadow" opacity="0.5" rx="10" ry="10" stroke="none" transform="translate(1,1)" visibility="visible" width="999.96" x="53" y="20"/>
    <g fill="lightgreen" id="ID_background" opacity="0.5" stroke="none" visibility="visible">
      <rect height="400" rx="10" ry="10" stroke="none" width="999.96" x="53" y="20"/>
      <rect fill="url(#Black0Black1Gradient)" height="400" rx="10" ry="10" stroke="none" width="999.96" x="53" y="20"/>
    </g>
    <clipPath id="ID_backgroundClipPath">
      <rect height="401" rx="10" ry="10" width="1000.96" x="52" y="19"/>
    </clipPath>
    <!--********************************draw Y Labels********************************-->
    <g id="ID_y$value" style="fill:red;stroke:none;font-family:Arial;font-size:14px;font-weight:normal;font-style:normal;text-decoration:none;filter:none" visibility="visible">
      <text text-anchor="end" x="41" y="27">14</text>
      <text text-anchor="end" x="41" y="57.77">12</text>
      <text text-anchor="end" x="41" y="88.54">10</text>
      <text text-anchor="end" x="41" y="119.31">8</text>
      <text text-anchor="end" x="41" y="150.08">6</text>
      <text text-anchor="end" x="41" y="180.85">4</text>
      <text text-anchor="end" x="41" y="211.62">2</text>
      <text text-anchor="end" x="41" y="242.39">0</text>
      <text text-anchor="end" x="41" y="273.16">-2</text>
      <text text-anchor="end" x="41" y="303.93">-4</text>
      <text text-anchor="end" x="41" y="334.7">-6</text>
      <text text-anchor="end" x="41" y="365.47">-8</text>
      <text text-anchor="end" x="41" y="396.24">-10</text>
      <text text-anchor="end" x="41" y="427.01">-12</text>
    </g>
    <!--********************************draw X Labels********************************-->
    <!--draw axis x labels-->
    <g id="ID_x$value" style="fill:red;stroke:none;font-family:Arial;font-size:14px;font-weight:normal;font-style:normal;text-decoration:none;filter:none" visibility="visible">
      <text text-anchor="middle" x="53" y="446">06:00:00</text>
      <text text-anchor="middle" x="136.33" y="446">07:00:00</text>
      <text text-anchor="middle" x="219.66" y="446">08:00:00</text>
      <text text-anchor="middle" x="302.99" y="446">09:00:00</text>
      <text text-anchor="middle" x="386.32" y="446">10:00:00</text>
      <text text-anchor="middle" x="469.65" y="446">11:00:00</text>
      <text text-anchor="middle" x="552.98" y="446">12:00:00</text>
      <text text-anchor="middle" x="636.31" y="446">13:00:00</text>
      <text text-anchor="middle" x="719.64" y="446">14:00:00</text>
      <text text-anchor="middle" x="802.97" y="446">15:00:00</text>
      <text text-anchor="middle" x="886.3" y="446">16:00:00</text>
      <text text-anchor="middle" x="969.63" y="446">17:00:00</text>
      <text text-anchor="middle" x="1052.96" y="446">18:00:00</text>
    </g>
    <g style="clip-path: url(#ID_backgroundClipPath)">
      <!--******************************** draw Y grid lines******************************** (Horizontal lines)-->
      <g id="ID_y_grid" stroke="#a8a8a8" stroke-width="1">
        <line x1="53" x2="1052.96" y1="50.77" y2="50.77"/>
        <line x1="53" x2="1052.96" y1="81.54" y2="81.54"/>
        <line x1="53" x2="1052.96" y1="112.31" y2="112.31"/>
        <line x1="53" x2="1052.96" y1="143.08" y2="143.08"/>
        <line x1="53" x2="1052.96" y1="173.85" y2="173.85"/>
        <line x1="53" x2="1052.96" y1="204.62" y2="204.62"/>
        <line x1="53" x2="1052.96" y1="235.39" y2="235.39"/>
        <line x1="53" x2="1052.96" y1="266.16" y2="266.16"/>
        <line x1="53" x2="1052.96" y1="296.93" y2="296.93"/>
        <line x1="53" x2="1052.96" y1="327.7" y2="327.7"/>
        <line x1="53" x2="1052.96" y1="358.47" y2="358.47"/>
        <line x1="53" x2="1052.96" y1="389.24" y2="389.24"/>
      </g>
      <!--draw Y grid lines SHADOWS-->
      <g id="ID_y_grid_shadow" stroke="#ffffff" stroke-width="1">
        <line transform="translate(0,1)" x1="53" x2="1052.96" y1="50.77" y2="50.77"/>
        <line transform="translate(0,1)" x1="53" x2="1052.96" y1="81.54" y2="81.54"/>
        <line transform="translate(0,1)" x1="53" x2="1052.96" y1="112.31" y2="112.31"/>
        <line transform="translate(0,1)" x1="53" x2="1052.96" y1="143.08" y2="143.08"/>
        <line transform="translate(0,1)" x1="53" x2="1052.96" y1="173.85" y2="173.85"/>
        <line transform="translate(0,1)" x1="53" x2="1052.96" y1="204.62" y2="204.62"/>
        <line transform="translate(0,1)" x1="53" x2="1052.96" y1="235.39" y2="235.39"/>
        <line transform="translate(0,1)" x1="53" x2="1052.96" y1="266.16" y2="266.16"/>
        <line transform="translate(0,1)" x1="53" x2="1052.96" y1="296.93" y2="296.93"/>
        <line transform="translate(0,1)" x1="53" x2="1052.96" y1="327.7" y2="327.7"/>
        <line transform="translate(0,1)" x1="53" x2="1052.96" y1="358.47" y2="358.47"/>
        <line transform="translate(0,1)" x1="53" x2="1052.96" y1="389.24" y2="389.24"/>
      </g>
      <g id="ID_y0_axis" stroke="rgb(100,100,100)" stroke-width="1" visibility="visible">
        <line x1="53" x2="1052.96" y1="235.38" y2="235.38"/>
      </g>
      <!--********************************draw X grid lines******************************** (Vertical lines)-->
      <g id="ID_x_grid" stroke="#a8a8a8" stroke-width="1">
        <line x1="136.33" x2="136.33" y1="20" y2="420"/>
        <line x1="219.66" x2="219.66" y1="20" y2="420"/>
        <line x1="302.99" x2="302.99" y1="20" y2="420"/>
        <line x1="386.32" x2="386.32" y1="20" y2="420"/>
        <line x1="469.65" x2="469.65" y1="20" y2="420"/>
        <line x1="552.98" x2="552.98" y1="20" y2="420"/>
        <line x1="636.31" x2="636.31" y1="20" y2="420"/>
        <line x1="719.64" x2="719.64" y1="20" y2="420"/>
        <line x1="802.97" x2="802.97" y1="20" y2="420"/>
        <line x1="886.3" x2="886.3" y1="20" y2="420"/>
        <line x1="969.63" x2="969.63" y1="20" y2="420"/>
      </g>
      <!--draw X grid lines SHADOWS -->
      <g id="ID_x_grid_shadow" stroke="#ffffff" stroke-width="1">
        <line transform="translate(1,0)" x1="136.33" x2="136.33" y1="20" y2="420"/>
        <line transform="translate(1,0)" x1="219.66" x2="219.66" y1="20" y2="420"/>
        <line transform="translate(1,0)" x1="302.99" x2="302.99" y1="20" y2="420"/>
        <line transform="translate(1,0)" x1="386.32" x2="386.32" y1="20" y2="420"/>
        <line transform="translate(1,0)" x1="469.65" x2="469.65" y1="20" y2="420"/>
        <line transform="translate(1,0)" x1="552.98" x2="552.98" y1="20" y2="420"/>
        <line transform="translate(1,0)" x1="636.31" x2="636.31" y1="20" y2="420"/>
        <line transform="translate(1,0)" x1="719.64" x2="719.64" y1="20" y2="420"/>
        <line transform="translate(1,0)" x1="802.97" x2="802.97" y1="20" y2="420"/>
        <line transform="translate(1,0)" x1="886.3" x2="886.3" y1="20" y2="420"/>
        <line transform="translate(1,0)" x1="969.63" x2="969.63" y1="20" y2="420"/>
      </g>
    </g>
    <!--******************************** draw legend ***********************************-->
    <g filter="none" id="ID_legend" transform="translate(1064.96,20)" visibility="visible">
      <!--draw legend border-->
      <rect fill="darkgreen" fill-opacity="0.5" height="108" id="ID_legend_border_shadow" rx="10" ry="10" stroke="none" transform="translate(1,1)" width="173" x="0" y="0"/>
      <rect fill="lightgreen" fill-opacity="0.5" height="108" id="ID_legend_border" rx="10" ry="10" stroke="none" stroke-width="0" width="173" x="0" y="0"/>
      <!--draw legend bullets-->
      <g id="ID_legend_bullets" stroke="none">
        <g fill="purple" id="ID_legend_1">
          <rect height="12" rx="3" ry="3" width="24" x="10" y="8"/>
          <rect fill="url(#WhiteBlackGradient)" height="12" rx="3" ry="3" width="24" x="10" y="8"/>
          <rect fill-opacity="0.3" filter="url(#SaturateMinus)" height="12" rx="3" ry="3" width="24" x="10" y="8"/>
        </g>
        <g fill="darkblue" id="ID_legend_2">
          <rect height="12" rx="3" ry="3" width="24" x="10" y="28"/>
          <rect fill="url(#WhiteBlackGradient)" height="12" rx="3" ry="3" width="24" x="10" y="28"/>
          <rect fill-opacity="0.3" filter="url(#SaturateMinus)" height="12" rx="3" ry="3" width="24" x="10" y="28"/>
        </g>
        <g fill="blue" id="ID_legend_3">
          <rect height="12" rx="3" ry="3" width="24" x="10" y="48"/>
          <rect fill="url(#WhiteBlackGradient)" height="12" rx="3" ry="3" width="24" x="10" y="48"/>
          <rect fill-opacity="0.3" filter="url(#SaturateMinus)" height="12" rx="3" ry="3" width="24" x="10" y="48"/>
        </g>
        <g fill="green" id="ID_legend_4">
          <rect height="12" rx="3" ry="3" width="24" x="10" y="68"/>
          <rect fill="url(#WhiteBlackGradient)" height="12" rx="3" ry="3" width="24" x="10" y="68"/>
          <rect fill-opacity="0.3" filter="url(#SaturateMinus)" height="12" rx="3" ry="3" width="24" x="10" y="68"/>
        </g>
        <g fill="yellow" id="ID_legend_5">
          <rect height="12" rx="3" ry="3" width="24" x="10" y="88"/>
          <rect fill="url(#WhiteBlackGradient)" height="12" rx="3" ry="3" width="24" x="10" y="88"/>
          <rect fill-opacity="0.3" filter="url(#SaturateMinus)" height="12" rx="3" ry="3" width="24" x="10" y="88"/>
        </g>
      </g>
      <!--draw legend labels-->
      <g id="ID_legend_labels" style="fill:black;stroke:none;font-family:Arial;;font-weight:normal;font-style:normal;text-decoration:none;filter:none;text-anchor:start">
        <text x="44" y="17">Sharp</text>
        <text x="44" y="37">Infinity</text>
        <text x="44" y="57">Audio Référence</text>
        <text x="44" y="77">Triangle</text>
        <text x="44" y="97">Yamaha</text>
      </g>
    </g>
    <g style="clip-path: url(#ID_backgroundClipPath)">
      <g filter="none" stroke-opacity="1" stroke-width="2">
        <g id="ID_graph_1" stroke="purple">
          <line fill-opacity="1" x1="219.66" x2="302.99" y1="250.76" y2="204.61"/>
          <line fill-opacity="1" x1="302.99" x2="386.32" y1="204.61" y2="281.53"/>
          <line fill-opacity="1" x1="386.32" x2="469.65" y1="281.53" y2="173.84"/>
          <line fill-opacity="1" x1="469.65" x2="490.48" y1="173.84" y2="312.3"/>
          <line fill-opacity="1" x1="490.48" x2="782.14" y1="312.3" y2="143.07"/>
          <line fill-opacity="1" x1="782.14" x2="802.97" y1="143.07" y2="343.07"/>
          <line fill-opacity="1" x1="802.97" x2="886.3" y1="343.07" y2="112.3"/>
        </g>
        <g id="ID_graph_2" stroke="darkblue">
          <line fill-opacity="1" x1="219.66" x2="302.99" y1="252.3" y2="201.53"/>
          <line fill-opacity="1" x1="302.99" x2="386.32" y1="201.53" y2="286.15"/>
          <line fill-opacity="1" x1="386.32" x2="469.65" y1="286.15" y2="167.69"/>
          <line fill-opacity="1" x1="469.65" x2="490.48" y1="167.69" y2="320"/>
          <line fill-opacity="1" x1="490.48" x2="782.14" y1="320" y2="133.84"/>
          <line fill-opacity="1" x1="782.14" x2="802.97" y1="133.84" y2="353.84"/>
          <line fill-opacity="1" x1="802.97" x2="886.3" y1="353.84" y2="100"/>
        </g>
        <g id="ID_graph_3" stroke="blue">
          <line fill-opacity="1" x1="219.66" x2="302.99" y1="254" y2="198.15"/>
          <line fill-opacity="1" x1="302.99" x2="386.32" y1="198.15" y2="291.23"/>
          <line fill-opacity="1" x1="386.32" x2="469.65" y1="291.23" y2="160.92"/>
          <line fill-opacity="1" x1="469.65" x2="490.48" y1="160.92" y2="328.46"/>
          <line fill-opacity="1" x1="490.48" x2="782.14" y1="328.46" y2="123.69"/>
          <line fill-opacity="1" x1="782.14" x2="802.97" y1="123.69" y2="365.69"/>
          <line fill-opacity="1" x1="802.97" x2="886.3" y1="365.69" y2="86.46"/>
        </g>
        <g id="ID_graph_4" stroke="green">
          <line fill-opacity="1" x1="219.66" x2="302.99" y1="255.86" y2="194.43"/>
          <line fill-opacity="1" x1="302.99" x2="386.32" y1="194.43" y2="296.81"/>
          <line fill-opacity="1" x1="386.32" x2="469.65" y1="296.81" y2="153.47"/>
          <line fill-opacity="1" x1="469.65" x2="490.48" y1="153.47" y2="337.76"/>
          <line fill-opacity="1" x1="490.48" x2="782.14" y1="337.76" y2="112.52"/>
          <line fill-opacity="1" x1="782.14" x2="802.97" y1="112.52" y2="378.72"/>
          <line fill-opacity="1" x1="802.97" x2="886.3" y1="378.72" y2="71.56"/>
        </g>
        <g id="ID_graph_5" stroke="yellow">
          <line fill-opacity="1" x1="219.66" x2="302.99" y1="257.9" y2="190.33"/>
          <line fill-opacity="1" x1="302.99" x2="386.32" y1="190.33" y2="302.95"/>
          <line fill-opacity="1" x1="386.32" x2="469.65" y1="302.95" y2="145.28"/>
          <line fill-opacity="1" x1="469.65" x2="490.48" y1="145.28" y2="348"/>
          <line fill-opacity="1" x1="490.48" x2="782.14" y1="348" y2="100.23"/>
          <line fill-opacity="1" x1="782.14" x2="802.97" y1="100.23" y2="393.05"/>
          <line fill-opacity="1" x1="802.97" x2="886.3" y1="393.05" y2="55.18"/>
        </g>
      </g>
      <g filter="none" opacity="1" stroke="none" stroke-opacity="1" stroke-width="0">
        <g fill="purple" id="ID_graph_1">
          <g transform="translate(209.66,247.76)">
            <rect fill-opacity="1" height="6" rx="2" ry="2" width="20" x="0" y="0"/>
            <rect fill="url(#WhiteGradient)" height="6" rx="2" ry="2" width="20" x="0" y="0"/>
            <rect fill-opacity="0.4" filter="url(#SaturateMinus)" height="6" rx="2" ry="2" width="20" x="0" y="0"/>
            <rect fill="url(#BlackGradient)" height="6" rx="2" ry="2" width="20" x="0" y="0"/>
          </g>
          <g transform="translate(292.99,201.61)">
            <rect fill-opacity="1" height="6" rx="2" ry="2" width="20" x="0" y="0"/>
            <rect fill="url(#WhiteGradient)" height="6" rx="2" ry="2" width="20" x="0" y="0"/>
            <rect fill-opacity="0.4" filter="url(#SaturateMinus)" height="6" rx="2" ry="2" width="20" x="0" y="0"/>
            <rect fill="url(#BlackGradient)" height="6" rx="2" ry="2" width="20" x="0" y="0"/>
          </g>
          <g transform="translate(376.32,278.53)">
            <rect fill-opacity="1" height="6" rx="2" ry="2" width="20" x="0" y="0"/>
            <rect fill="url(#WhiteGradient)" height="6" rx="2" ry="2" width="20" x="0" y="0"/>
            <rect fill-opacity="0.4" filter="url(#SaturateMinus)" height="6" rx="2" ry="2" width="20" x="0" y="0"/>
            <rect fill="url(#BlackGradient)" height="6" rx="2" ry="2" width="20" x="0" y="0"/>
          </g>
          <g transform="translate(459.65,170.84)">
            <rect fill-opacity="1" height="6" rx="2" ry="2" width="20" x="0" y="0"/>
            <rect fill="url(#WhiteGradient)" height="6" rx="2" ry="2" width="20" x="0" y="0"/>
            <rect fill-opacity="0.4" filter="url(#SaturateMinus)" height="6" rx="2" ry="2" width="20" x="0" y="0"/>
            <rect fill="url(#BlackGradient)" height="6" rx="2" ry="2" width="20" x="0" y="0"/>
          </g>
          <g transform="translate(480.48,309.3)">
            <rect fill-opacity="1" height="6" rx="2" ry="2" width="20" x="0" y="0"/>
            <rect fill="url(#WhiteGradient)" height="6" rx="2" ry="2" width="20" x="0" y="0"/>
            <rect fill-opacity="0.4" filter="url(#SaturateMinus)" height="6" rx="2" ry="2" width="20" x="0" y="0"/>
            <rect fill="url(#BlackGradient)" height="6" rx="2" ry="2" width="20" x="0" y="0"/>
          </g>
          <g transform="translate(772.14,140.07)">
            <rect fill-opacity="1" height="6" rx="2" ry="2" width="20" x="0" y="0"/>
            <rect fill="url(#WhiteGradient)" height="6" rx="2" ry="2" width="20" x="0" y="0"/>
            <rect fill-opacity="0.4" filter="url(#SaturateMinus)" height="6" rx="2" ry="2" width="20" x="0" y="0"/>
            <rect fill="url(#BlackGradient)" height="6" rx="2" ry="2" width="20" x="0" y="0"/>
          </g>
          <g transform="translate(792.97,340.07)">
            <rect fill-opacity="1" height="6" rx="2" ry="2" width="20" x="0" y="0"/>
            <rect fill="url(#WhiteGradient)" height="6" rx="2" ry="2" width="20" x="0" y="0"/>
            <rect fill-opacity="0.4" filter="url(#SaturateMinus)" height="6" rx="2" ry="2" width="20" x="0" y="0"/>
            <rect fill="url(#BlackGradient)" height="6" rx="2" ry="2" width="20" x="0" y="0"/>
          </g>
          <g transform="translate(876.3,109.3)">
            <rect fill-opacity="1" height="6" rx="2" ry="2" width="20" x="0" y="0"/>
            <rect fill="url(#WhiteGradient)" height="6" rx="2" ry="2" width="20" x="0" y="0"/>
            <rect fill-opacity="0.4" filter="url(#SaturateMinus)" height="6" rx="2" ry="2" width="20" x="0" y="0"/>
            <rect fill="url(#BlackGradient)" height="6" rx="2" ry="2" width="20" x="0" y="0"/>
          </g>
        </g>
        <g fill="darkblue" id="ID_graph_2">
          <g transform="translate(209.66,249.3)">
            <rect fill-opacity="1" height="6" rx="2" ry="2" width="20" x="0" y="0"/>
            <rect fill="url(#WhiteGradient)" height="6" rx="2" ry="2" width="20" x="0" y="0"/>
            <rect fill-opacity="0.4" filter="url(#SaturateMinus)" height="6" rx="2" ry="2" width="20" x="0" y="0"/>
            <rect fill="url(#BlackGradient)" height="6" rx="2" ry="2" width="20" x="0" y="0"/>
          </g>
          <g transform="translate(292.99,198.53)">
            <rect fill-opacity="1" height="6" rx="2" ry="2" width="20" x="0" y="0"/>
            <rect fill="url(#WhiteGradient)" height="6" rx="2" ry="2" width="20" x="0" y="0"/>
            <rect fill-opacity="0.4" filter="url(#SaturateMinus)" height="6" rx="2" ry="2" width="20" x="0" y="0"/>
            <rect fill="url(#BlackGradient)" height="6" rx="2" ry="2" width="20" x="0" y="0"/>
          </g>
          <g transform="translate(376.32,283.15)">
            <rect fill-opacity="1" height="6" rx="2" ry="2" width="20" x="0" y="0"/>
            <rect fill="url(#WhiteGradient)" height="6" rx="2" ry="2" width="20" x="0" y="0"/>
            <rect fill-opacity="0.4" filter="url(#SaturateMinus)" height="6" rx="2" ry="2" width="20" x="0" y="0"/>
            <rect fill="url(#BlackGradient)" height="6" rx="2" ry="2" width="20" x="0" y="0"/>
          </g>
          <g transform="translate(459.65,164.69)">
            <rect fill-opacity="1" height="6" rx="2" ry="2" width="20" x="0" y="0"/>
            <rect fill="url(#WhiteGradient)" height="6" rx="2" ry="2" width="20" x="0" y="0"/>
            <rect fill-opacity="0.4" filter="url(#SaturateMinus)" height="6" rx="2" ry="2" width="20" x="0" y="0"/>
            <rect fill="url(#BlackGradient)" height="6" rx="2" ry="2" width="20" x="0" y="0"/>
          </g>
          <g transform="translate(480.48,317)">
            <rect fill-opacity="1" height="6" rx="2" ry="2" width="20" x="0" y="0"/>
            <rect fill="url(#WhiteGradient)" height="6" rx="2" ry="2" width="20" x="0" y="0"/>
            <rect fill-opacity="0.4" filter="url(#SaturateMinus)" height="6" rx="2" ry="2" width="20" x="0" y="0"/>
            <rect fill="url(#BlackGradient)" height="6" rx="2" ry="2" width="20" x="0" y="0"/>
          </g>
          <g transform="translate(772.14,130.84)">
            <rect fill-opacity="1" height="6" rx="2" ry="2" width="20" x="0" y="0"/>
            <rect fill="url(#WhiteGradient)" height="6" rx="2" ry="2" width="20" x="0" y="0"/>
            <rect fill-opacity="0.4" filter="url(#SaturateMinus)" height="6" rx="2" ry="2" width="20" x="0" y="0"/>
            <rect fill="url(#BlackGradient)" height="6" rx="2" ry="2" width="20" x="0" y="0"/>
          </g>
          <g transform="translate(792.97,350.84)">
            <rect fill-opacity="1" height="6" rx="2" ry="2" width="20" x="0" y="0"/>
            <rect fill="url(#WhiteGradient)" height="6" rx="2" ry="2" width="20" x="0" y="0"/>
            <rect fill-opacity="0.4" filter="url(#SaturateMinus)" height="6" rx="2" ry="2" width="20" x="0" y="0"/>
            <rect fill="url(#BlackGradient)" height="6" rx="2" ry="2" width="20" x="0" y="0"/>
          </g>
          <g transform="translate(876.3,97)">
            <rect fill-opacity="1" height="6" rx="2" ry="2" width="20" x="0" y="0"/>
            <rect fill="url(#WhiteGradient)" height="6" rx="2" ry="2" width="20" x="0" y="0"/>
            <rect fill-opacity="0.4" filter="url(#SaturateMinus)" height="6" rx="2" ry="2" width="20" x="0" y="0"/>
            <rect fill="url(#BlackGradient)" height="6" rx="2" ry="2" width="20" x="0" y="0"/>
          </g>
        </g>
        <g fill="blue" id="ID_graph_3">
          <g transform="translate(209.66,251)">
            <rect fill-opacity="1" height="6" rx="2" ry="2" width="20" x="0" y="0"/>
            <rect fill="url(#WhiteGradient)" height="6" rx="2" ry="2" width="20" x="0" y="0"/>
            <rect fill-opacity="0.4" filter="url(#SaturateMinus)" height="6" rx="2" ry="2" width="20" x="0" y="0"/>
            <rect fill="url(#BlackGradient)" height="6" rx="2" ry="2" width="20" x="0" y="0"/>
          </g>
          <g transform="translate(292.99,195.15)">
            <rect fill-opacity="1" height="6" rx="2" ry="2" width="20" x="0" y="0"/>
            <rect fill="url(#WhiteGradient)" height="6" rx="2" ry="2" width="20" x="0" y="0"/>
            <rect fill-opacity="0.4" filter="url(#SaturateMinus)" height="6" rx="2" ry="2" width="20" x="0" y="0"/>
            <rect fill="url(#BlackGradient)" height="6" rx="2" ry="2" width="20" x="0" y="0"/>
          </g>
          <g transform="translate(376.32,288.23)">
            <rect fill-opacity="1" height="6" rx="2" ry="2" width="20" x="0" y="0"/>
            <rect fill="url(#WhiteGradient)" height="6" rx="2" ry="2" width="20" x="0" y="0"/>
            <rect fill-opacity="0.4" filter="url(#SaturateMinus)" height="6" rx="2" ry="2" width="20" x="0" y="0"/>
            <rect fill="url(#BlackGradient)" height="6" rx="2" ry="2" width="20" x="0" y="0"/>
          </g>
          <g transform="translate(459.65,157.92)">
            <rect fill-opacity="1" height="6" rx="2" ry="2" width="20" x="0" y="0"/>
            <rect fill="url(#WhiteGradient)" height="6" rx="2" ry="2" width="20" x="0" y="0"/>
            <rect fill-opacity="0.4" filter="url(#SaturateMinus)" height="6" rx="2" ry="2" width="20" x="0" y="0"/>
            <rect fill="url(#BlackGradient)" height="6" rx="2" ry="2" width="20" x="0" y="0"/>
          </g>
          <g transform="translate(480.48,325.46)">
            <rect fill-opacity="1" height="6" rx="2" ry="2" width="20" x="0" y="0"/>
            <rect fill="url(#WhiteGradient)" height="6" rx="2" ry="2" width="20" x="0" y="0"/>
            <rect fill-opacity="0.4" filter="url(#SaturateMinus)" height="6" rx="2" ry="2" width="20" x="0" y="0"/>
            <rect fill="url(#BlackGradient)" height="6" rx="2" ry="2" width="20" x="0" y="0"/>
          </g>
          <g transform="translate(772.14,120.69)">
            <rect fill-opacity="1" height="6" rx="2" ry="2" width="20" x="0" y="0"/>
            <rect fill="url(#WhiteGradient)" height="6" rx="2" ry="2" width="20" x="0" y="0"/>
            <rect fill-opacity="0.4" filter="url(#SaturateMinus)" height="6" rx="2" ry="2" width="20" x="0" y="0"/>
            <rect fill="url(#BlackGradient)" height="6" rx="2" ry="2" width="20" x="0" y="0"/>
          </g>
          <g transform="translate(792.97,362.69)">
            <rect fill-opacity="1" height="6" rx="2" ry="2" width="20" x="0" y="0"/>
            <rect fill="url(#WhiteGradient)" height="6" rx="2" ry="2" width="20" x="0" y="0"/>
            <rect fill-opacity="0.4" filter="url(#SaturateMinus)" height="6" rx="2" ry="2" width="20" x="0" y="0"/>
            <rect fill="url(#BlackGradient)" height="6" rx="2" ry="2" width="20" x="0" y="0"/>
          </g>
          <g transform="translate(876.3,83.46)">
            <rect fill-opacity="1" height="6" rx="2" ry="2" width="20" x="0" y="0"/>
            <rect fill="url(#WhiteGradient)" height="6" rx="2" ry="2" width="20" x="0" y="0"/>
            <rect fill-opacity="0.4" filter="url(#SaturateMinus)" height="6" rx="2" ry="2" width="20" x="0" y="0"/>
            <rect fill="url(#BlackGradient)" height="6" rx="2" ry="2" width="20" x="0" y="0"/>
          </g>
        </g>
        <g fill="green" id="ID_graph_4">
          <g transform="translate(209.66,252.86)">
            <rect fill-opacity="1" height="6" rx="2" ry="2" width="20" x="0" y="0"/>
            <rect fill="url(#WhiteGradient)" height="6" rx="2" ry="2" width="20" x="0" y="0"/>
            <rect fill-opacity="0.4" filter="url(#SaturateMinus)" height="6" rx="2" ry="2" width="20" x="0" y="0"/>
            <rect fill="url(#BlackGradient)" height="6" rx="2" ry="2" width="20" x="0" y="0"/>
          </g>
          <g transform="translate(292.99,191.43)">
            <rect fill-opacity="1" height="6" rx="2" ry="2" width="20" x="0" y="0"/>
            <rect fill="url(#WhiteGradient)" height="6" rx="2" ry="2" width="20" x="0" y="0"/>
            <rect fill-opacity="0.4" filter="url(#SaturateMinus)" height="6" rx="2" ry="2" width="20" x="0" y="0"/>
            <rect fill="url(#BlackGradient)" height="6" rx="2" ry="2" width="20" x="0" y="0"/>
          </g>
          <g transform="translate(376.32,293.81)">
            <rect fill-opacity="1" height="6" rx="2" ry="2" width="20" x="0" y="0"/>
            <rect fill="url(#WhiteGradient)" height="6" rx="2" ry="2" width="20" x="0" y="0"/>
            <rect fill-opacity="0.4" filter="url(#SaturateMinus)" height="6" rx="2" ry="2" width="20" x="0" y="0"/>
            <rect fill="url(#BlackGradient)" height="6" rx="2" ry="2" width="20" x="0" y="0"/>
          </g>
          <g transform="translate(459.65,150.47)">
            <rect fill-opacity="1" height="6" rx="2" ry="2" width="20" x="0" y="0"/>
            <rect fill="url(#WhiteGradient)" height="6" rx="2" ry="2" width="20" x="0" y="0"/>
            <rect fill-opacity="0.4" filter="url(#SaturateMinus)" height="6" rx="2" ry="2" width="20" x="0" y="0"/>
            <rect fill="url(#BlackGradient)" height="6" rx="2" ry="2" width="20" x="0" y="0"/>
          </g>
          <g transform="translate(480.48,334.76)">
            <rect fill-opacity="1" height="6" rx="2" ry="2" width="20" x="0" y="0"/>
            <rect fill="url(#WhiteGradient)" height="6" rx="2" ry="2" width="20" x="0" y="0"/>
            <rect fill-opacity="0.4" filter="url(#SaturateMinus)" height="6" rx="2" ry="2" width="20" x="0" y="0"/>
            <rect fill="url(#BlackGradient)" height="6" rx="2" ry="2" width="20" x="0" y="0"/>
          </g>
          <g transform="translate(772.14,109.52)">
            <rect fill-opacity="1" height="6" rx="2" ry="2" width="20" x="0" y="0"/>
            <rect fill="url(#WhiteGradient)" height="6" rx="2" ry="2" width="20" x="0" y="0"/>
            <rect fill-opacity="0.4" filter="url(#SaturateMinus)" height="6" rx="2" ry="2" width="20" x="0" y="0"/>
            <rect fill="url(#BlackGradient)" height="6" rx="2" ry="2" width="20" x="0" y="0"/>
          </g>
          <g transform="translate(792.97,375.72)">
            <rect fill-opacity="1" height="6" rx="2" ry="2" width="20" x="0" y="0"/>
            <rect fill="url(#WhiteGradient)" height="6" rx="2" ry="2" width="20" x="0" y="0"/>
            <rect fill-opacity="0.4" filter="url(#SaturateMinus)" height="6" rx="2" ry="2" width="20" x="0" y="0"/>
            <rect fill="url(#BlackGradient)" height="6" rx="2" ry="2" width="20" x="0" y="0"/>
          </g>
          <g transform="translate(876.3,68.56)">
            <rect fill-opacity="1" height="6" rx="2" ry="2" width="20" x="0" y="0"/>
            <rect fill="url(#WhiteGradient)" height="6" rx="2" ry="2" width="20" x="0" y="0"/>
            <rect fill-opacity="0.4" filter="url(#SaturateMinus)" height="6" rx="2" ry="2" width="20" x="0" y="0"/>
            <rect fill="url(#BlackGradient)" height="6" rx="2" ry="2" width="20" x="0" y="0"/>
          </g>
        </g>
        <g fill="yellow" id="ID_graph_5">
          <g transform="translate(209.66,254.9)">
            <rect fill-opacity="1" height="6" rx="2" ry="2" width="20" x="0" y="0"/>
            <rect fill="url(#WhiteGradient)" height="6" rx="2" ry="2" width="20" x="0" y="0"/>
            <rect fill-opacity="0.4" filter="url(#SaturateMinus)" height="6" rx="2" ry="2" width="20" x="0" y="0"/>
            <rect fill="url(#BlackGradient)" height="6" rx="2" ry="2" width="20" x="0" y="0"/>
          </g>
          <g transform="translate(292.99,187.33)">
            <rect fill-opacity="1" height="6" rx="2" ry="2" width="20" x="0" y="0"/>
            <rect fill="url(#WhiteGradient)" height="6" rx="2" ry="2" width="20" x="0" y="0"/>
            <rect fill-opacity="0.4" filter="url(#SaturateMinus)" height="6" rx="2" ry="2" width="20" x="0" y="0"/>
            <rect fill="url(#BlackGradient)" height="6" rx="2" ry="2" width="20" x="0" y="0"/>
          </g>
          <g transform="translate(376.32,299.95)">
            <rect fill-opacity="1" height="6" rx="2" ry="2" width="20" x="0" y="0"/>
            <rect fill="url(#WhiteGradient)" height="6" rx="2" ry="2" width="20" x="0" y="0"/>
            <rect fill-opacity="0.4" filter="url(#SaturateMinus)" height="6" rx="2" ry="2" width="20" x="0" y="0"/>
            <rect fill="url(#BlackGradient)" height="6" rx="2" ry="2" width="20" x="0" y="0"/>
          </g>
          <g transform="translate(459.65,142.28)">
            <rect fill-opacity="1" height="6" rx="2" ry="2" width="20" x="0" y="0"/>
            <rect fill="url(#WhiteGradient)" height="6" rx="2" ry="2" width="20" x="0" y="0"/>
            <rect fill-opacity="0.4" filter="url(#SaturateMinus)" height="6" rx="2" ry="2" width="20" x="0" y="0"/>
            <rect fill="url(#BlackGradient)" height="6" rx="2" ry="2" width="20" x="0" y="0"/>
          </g>
          <g transform="translate(480.48,345)">
            <rect fill-opacity="1" height="6" rx="2" ry="2" width="20" x="0" y="0"/>
            <rect fill="url(#WhiteGradient)" height="6" rx="2" ry="2" width="20" x="0" y="0"/>
            <rect fill-opacity="0.4" filter="url(#SaturateMinus)" height="6" rx="2" ry="2" width="20" x="0" y="0"/>
            <rect fill="url(#BlackGradient)" height="6" rx="2" ry="2" width="20" x="0" y="0"/>
          </g>
          <g transform="translate(772.14,97.23)">
            <rect fill-opacity="1" height="6" rx="2" ry="2" width="20" x="0" y="0"/>
            <rect fill="url(#WhiteGradient)" height="6" rx="2" ry="2" width="20" x="0" y="0"/>
            <rect fill-opacity="0.4" filter="url(#SaturateMinus)" height="6" rx="2" ry="2" width="20" x="0" y="0"/>
            <rect fill="url(#BlackGradient)" height="6" rx="2" ry="2" width="20" x="0" y="0"/>
          </g>
          <g transform="translate(792.97,390.05)">
            <rect fill-opacity="1" height="6" rx="2" ry="2" width="20" x="0" y="0"/>
            <rect fill="url(#WhiteGradient)" height="6" rx="2" ry="2" width="20" x="0" y="0"/>
            <rect fill-opacity="0.4" filter="url(#SaturateMinus)" height="6" rx="2" ry="2" width="20" x="0" y="0"/>
            <rect fill="url(#BlackGradient)" height="6" rx="2" ry="2" width="20" x="0" y="0"/>
          </g>
          <g transform="translate(876.3,52.18)">
            <rect fill-opacity="1" height="6" rx="2" ry="2" width="20" x="0" y="0"/>
            <rect fill="url(#WhiteGradient)" height="6" rx="2" ry="2" width="20" x="0" y="0"/>
            <rect fill-opacity="0.4" filter="url(#SaturateMinus)" height="6" rx="2" ry="2" width="20" x="0" y="0"/>
            <rect fill="url(#BlackGradient)" height="6" rx="2" ry="2" width="20" x="0" y="0"/>
          </g>
        </g>
      </g>
    </g>
  </g>

</svg>