<?xml version="1.0" encoding="UTF-8" standalone="no" ?><svg xmlns="http://www.w3.org/2000/svg" id="ID_svg" viewBox="0 0 720 580" viewport-fill="white" viewport-fill-opacity="0" xmlns:exsl4D="http://www.4D.com" xmlns:math="http://exslt.org/math" xmlns:xlink="http://www.w3.org/1999/xlink"><!--gradient styles--><defs><filter id="soft_blur"><feGaussianBlur in="SourceGraphic" result="BlurAlpha" stdDeviation="1"/></filter><filter id="pastel"><feGaussianBlur in="SourceAlpha" result="blur" stdDeviation="2"/><feOffset dx="6" dy="6" in="blur" result="offsetBlur"/><feComposite in="SourceGraphic" in2="offsetBlur" operator="in" result="specOut"/></filter><filter id="blur_shadow"><feGaussianBlur in="SourceAlpha" result="blur" stdDeviation="3"/><feOffset dx="4" dy="2" in="blur" result="offsetBlur"/><feBlend in="SourceGraphic" in2="offsetBlur" mode="normal"/></filter><filter filterUnits="objectBoundingBox" id="Shadow"><feGaussianBlur in="SourceAlpha" result="flou" stdDeviation="0"/><feColorMatrix in="SourceAlpha" result="flouBlue" type="matrix" values=" 0 0 0 0 0                      0 0 0 0 0                     0 0 0 0 0                      0 0 0 0.3 0"/><feOffset dx="4" dy="4" in="flouBlue" result="flouDecalage"/><feBlend in="SourceGraphic" in2="flouDecalage" mode="normal"/></filter><filter filterUnits="objectBoundingBox" height="100%" id="SaturateMinus" width="100%" x="0%" y="0%"><feColorMatrix in="SourceGraphic" type="saturate" values="0.5"/></filter><filter filterUnits="objectBoundingBox" height="100%" id="SaturatePlus" width="100%" x="0%" y="0%"><feColorMatrix in="SourceGraphic" type="saturate" values="1.4"/></filter><linearGradient id="BlackGradient"><stop offset="0%" style="stop-color:rgb(0,0,0); stop-opacity:0"/><stop offset="100%" style="stop-color:rgb(0,0,0); stop-opacity:0.1"/></linearGradient><linearGradient id="WhiteGradient" x1="0%" x2="100%" y1="0%" y2="0%"><stop offset="0%" style="stop-color:rgb(255,255,255); stop-opacity:0.3"/><stop offset="100%" style="stop-color:rgb(255,255,255);stop-opacity:0"/></linearGradient><linearGradient id="WhiteBlackGradient" x1="0%" x2="100%" y1="0%" y2="0%"><stop offset="0%" style="stop-color:rgb(255,255,255); stop-opacity:0.15"/><stop offset="100%" style="stop-color:rgb(0,0,0);stop-opacity:0.15"/></linearGradient><linearGradient id="Black0Black1Gradient" x1="0%" x2="0%" y1="0%" y2="100%"><stop offset="0%" style="stop-color:rgb(0,0,0); stop-opacity:0"/><stop offset="100%" style="stop-color:rgb(0,0,0);stop-opacity:0.05"/></linearGradient></defs><!--global stroke and font styles--><g id="ID_globals" style="fill:darkgrey;stroke:none;font-family:Arial;font-size:13px;font-weight:normal;font-style:normal;text-decoration:none;shape-rendering:crispEdges"><!--draw title--><!--draw legend--><g id="ID_legend" visibility="hidden"><!--draw legend border--><rect fill="rgb(168,168,168)" fill-opacity="1" height="250" id="ID_legend_border_shadow" rx="10" ry="10" stroke="none" width="122" x="589" y="11"/><rect fill="rgb(229,229,229)" fill-opacity="1" height="250" id="ID_legend_border" rx="10" ry="10" stroke="gray" stroke-width="0" width="122" x="588" y="10"/><!--draw legend bullets--><g id="ID_legend_bullets" stroke="none"><g fill="rgb(0,178,195)" id="ID_legend_1"><rect height="20" rx="3" ry="3" width="20" x="598" y="20"/><rect fill="url(#WhiteBlackGradient)" height="20" rx="3" ry="3" width="20" x="598" y="20"/><rect fill-opacity="0.3" filter="url(#SaturateMinus)" height="20" rx="3" ry="3" width="20" x="598" y="20"/></g><g fill="rgb(255,195,56)" id="ID_legend_2"><rect height="20" rx="3" ry="3" width="20" x="598" y="50"/><rect fill="url(#WhiteBlackGradient)" height="20" rx="3" ry="3" width="20" x="598" y="50"/><rect fill-opacity="0.3" filter="url(#SaturateMinus)" height="20" rx="3" ry="3" width="20" x="598" y="50"/></g><g fill="rgb(87,62,130)" id="ID_legend_3"><rect height="20" rx="3" ry="3" width="20" x="598" y="80"/><rect fill="url(#WhiteBlackGradient)" height="20" rx="3" ry="3" width="20" x="598" y="80"/><rect fill-opacity="0.3" filter="url(#SaturateMinus)" height="20" rx="3" ry="3" width="20" x="598" y="80"/></g><g fill="rgb(79,168,57)" id="ID_legend_4"><rect height="20" rx="3" ry="3" width="20" x="598" y="110"/><rect fill="url(#WhiteBlackGradient)" height="20" rx="3" ry="3" width="20" x="598" y="110"/><rect fill-opacity="0.3" filter="url(#SaturateMinus)" height="20" rx="3" ry="3" width="20" x="598" y="110"/></g><g fill="rgb(217,87,0)" id="ID_legend_5"><rect height="20" rx="3" ry="3" width="20" x="598" y="140"/><rect fill="url(#WhiteBlackGradient)" height="20" rx="3" ry="3" width="20" x="598" y="140"/><rect fill-opacity="0.3" filter="url(#SaturateMinus)" height="20" rx="3" ry="3" width="20" x="598" y="140"/></g><g fill="rgb(29,157,242)" id="ID_legend_6"><rect height="20" rx="3" ry="3" width="20" x="598" y="170"/><rect fill="url(#WhiteBlackGradient)" height="20" rx="3" ry="3" width="20" x="598" y="170"/><rect fill-opacity="0.3" filter="url(#SaturateMinus)" height="20" rx="3" ry="3" width="20" x="598" y="170"/></g><g fill="rgb(181,207,50)" id="ID_legend_7"><rect height="20" rx="3" ry="3" width="20" x="598" y="200"/><rect fill="url(#WhiteBlackGradient)" height="20" rx="3" ry="3" width="20" x="598" y="200"/><rect fill-opacity="0.3" filter="url(#SaturateMinus)" height="20" rx="3" ry="3" width="20" x="598" y="200"/></g><g fill="rgb(212,58,38)" id="ID_legend_8"><rect height="20" rx="3" ry="3" width="20" x="598" y="230"/><rect fill="url(#WhiteBlackGradient)" height="20" rx="3" ry="3" width="20" x="598" y="230"/><rect fill-opacity="0.3" filter="url(#SaturateMinus)" height="20" rx="3" ry="3" width="20" x="598" y="230"/></g></g><!--draw legend labels--><g id="ID_legend_labels" style="fill:black;stroke:none;font-family:Arial;font-size:12px;font-weight:normal;font-style:normal;text-decoration:none;filter:none;text-anchor:start"><text x="628" y="34.8">PT8H0M0S</text><text x="628" y="64.8">PT9H0M0S</text><text x="628" y="94.8">PT10H0M0S</text><text x="628" y="124.8">PT11H0M0S</text><text x="628" y="154.8">PT11H15M0S</text><text x="628" y="184.8">PT14H45M0S</text><text x="628" y="214.8">PT15H0M0S</text><text x="628" y="244.8">PT16H0M0S</text></g></g><!--draw graph background--><rect fill="rgb(168,168,168)" fill-opacity="1" height="560" id="ID_background_shadow" rx="10" ry="10" stroke="none" visibility="visible" width="568" x="11" y="11"/><g fill="rgb(229,229,229)" id="ID_background" visibility="visible"><rect height="560" rx="10" ry="10" stroke="none" width="568" x="10" y="10"/><rect fill="url(#Black0Black1Gradient)" height="560" rx="10" ry="10" stroke="none" width="568" x="10" y="10"/></g><clipPath id="ID_backgroundClipPath"><rect height="561" rx="10" ry="10" width="569" x="10" y="10"/></clipPath><!--set pie global transform--><!--draw pie SLICES SHADOWS --><g filter="none" id="ID_pie"><!--								draw pie piece 1--><g fill="black" fill-opacity="0.2" id="ID_graph_shadow_1" stroke="black" stroke-opacity="0" stroke-width="0"><path d="M300.7651413691935,249.96439020450634 l0.00007392100559692688,-226.19999999998788 A226.19999999999996,226.19999999999996 0 0,1 340.0444238667665,27.200887883152475 z"/></g><!--								draw pie piece 2--><g fill="black" fill-opacity="0.2" id="ID_graph_shadow_2" stroke="black" stroke-opacity="0" stroke-width="0"><path d="M304.38764025489166,272.7026412687684 l43.03008931431739,-244.0353486968678 A247.79999999999998,247.79999999999998 0 0,1 428.2876870085839,58.1015732042481 z"/></g><!--								draw pie piece 3--><g fill="black" fill-opacity="0.2" id="ID_graph_shadow_3" stroke="black" stroke-opacity="0" stroke-width="0"><path d="M307.18233931285414,282.81766401468184 l127.50004811215297,-220.83645018746034 A254.99999999999997,254.99999999999997 0 0,1 528.0188311666677,155.31768807076062 z"/></g><!--								draw pie piece 4--><g fill="black" fill-opacity="0.2" id="ID_graph_shadow_4" stroke="black" stroke-opacity="0" stroke-width="0"><path d="M307.63592380062863,291.1246000673933 l223.95418350351454,-129.29997560430598 A258.59999999999997,258.59999999999997 0 0,1 562.3072103601257,336.03000956480855 z"/></g><!--								draw pie piece 5--><g fill="black" fill-opacity="0.2" id="ID_graph_shadow_5" stroke="black" stroke-opacity="0" stroke-width="0"><path d="M304.07747429246143,297.9556995106188 l256.79847131962276,45.28048948393657 A260.76,260.76 0 0,1 434.4575234913831,523.7804553964312 z"/></g><!--								draw pie piece 6--><g fill="black" fill-opacity="0.2" id="ID_graph_shadow_6" stroke="black" stroke-opacity="0" stroke-width="0"><path d="M297.0000023529233,300.1999999999996 l131.1000494706138,227.07183231040042 A262.2,262.2 0 0,1 165.90010129416945,527.2719179960058 z"/></g><!--								draw pie piece 7--><g fill="black" fill-opacity="0.2" id="ID_graph_shadow_7" stroke="black" stroke-opacity="0" stroke-width="0"><path d="M291.4067876964813,295.60816156324944 l-131.61418638490778,227.96268720684373 A263.2285714285714,263.2285714285714 0 0,1 32.17721820459197,249.89917866736505 z"/></g><!--								draw pie piece 8--><g fill="black" fill-opacity="0.2" id="ID_graph_shadow_8" stroke="black" stroke-opacity="0" stroke-width="0"><path d="M293.52894345300996,288.86336290598297 l-259.9892784223442,-45.84293953738979 A264,264 0 0,1 293.528684631452,24.86336290610984 z"/></g></g><!--draw pie SLICES --><g filter="none" id="ID_pie"><!--								draw pie piece 1--><g fill="rgb(0,178,195)" fill-opacity="1" id="ID_graph_1" stroke="black" stroke-opacity="0" stroke-width="0"><path d="M297.7651413691935,246.96439020450634 l0.00007392100559692688,-226.19999999998788 A226.19999999999996,226.19999999999996 0 0,1 337.0444238667665,24.200887883152475 z"/><path d="M297.7651413691935,246.96439020450634 l0.00007392100559692688,-226.19999999998788 A226.19999999999996,226.19999999999996 0 0,1 337.0444238667665,24.200887883152475 z" fill="url(#WhiteBlackGradient)"/><path d="M297.7651413691935,246.96439020450634 l0.00007392100559692688,-226.19999999998788 A226.19999999999996,226.19999999999996 0 0,1 337.0444238667665,24.200887883152475 z" fill-opacity="0.3" filter="url(#SaturateMinus)"/></g><!--								draw pie piece 2--><g fill="rgb(255,195,56)" fill-opacity="1" id="ID_graph_2" stroke="black" stroke-opacity="0" stroke-width="0"><path d="M301.38764025489166,269.7026412687684 l43.03008931431739,-244.0353486968678 A247.79999999999998,247.79999999999998 0 0,1 425.2876870085839,55.1015732042481 z"/><path d="M301.38764025489166,269.7026412687684 l43.03008931431739,-244.0353486968678 A247.79999999999998,247.79999999999998 0 0,1 425.2876870085839,55.1015732042481 z" fill="url(#WhiteBlackGradient)"/><path d="M301.38764025489166,269.7026412687684 l43.03008931431739,-244.0353486968678 A247.79999999999998,247.79999999999998 0 0,1 425.2876870085839,55.1015732042481 z" fill-opacity="0.3" filter="url(#SaturateMinus)"/></g><!--								draw pie piece 3--><g fill="rgb(87,62,130)" fill-opacity="1" id="ID_graph_3" stroke="black" stroke-opacity="0" stroke-width="0"><path d="M304.18233931285414,279.81766401468184 l127.50004811215297,-220.83645018746034 A254.99999999999997,254.99999999999997 0 0,1 525.0188311666677,152.31768807076062 z"/><path d="M304.18233931285414,279.81766401468184 l127.50004811215297,-220.83645018746034 A254.99999999999997,254.99999999999997 0 0,1 525.0188311666677,152.31768807076062 z" fill="url(#WhiteBlackGradient)"/><path d="M304.18233931285414,279.81766401468184 l127.50004811215297,-220.83645018746034 A254.99999999999997,254.99999999999997 0 0,1 525.0188311666677,152.31768807076062 z" fill-opacity="0.3" filter="url(#SaturateMinus)"/></g><!--								draw pie piece 4--><g fill="rgb(79,168,57)" fill-opacity="1" id="ID_graph_4" stroke="black" stroke-opacity="0" stroke-width="0"><path d="M304.63592380062863,288.1246000673933 l223.95418350351454,-129.29997560430598 A258.59999999999997,258.59999999999997 0 0,1 559.3072103601257,333.03000956480855 z"/><path d="M304.63592380062863,288.1246000673933 l223.95418350351454,-129.29997560430598 A258.59999999999997,258.59999999999997 0 0,1 559.3072103601257,333.03000956480855 z" fill="url(#WhiteBlackGradient)"/><path d="M304.63592380062863,288.1246000673933 l223.95418350351454,-129.29997560430598 A258.59999999999997,258.59999999999997 0 0,1 559.3072103601257,333.03000956480855 z" fill-opacity="0.3" filter="url(#SaturateMinus)"/></g><!--								draw pie piece 5--><g fill="rgb(217,87,0)" fill-opacity="1" id="ID_graph_5" stroke="black" stroke-opacity="0" stroke-width="0"><path d="M301.07747429246143,294.9556995106188 l256.79847131962276,45.28048948393657 A260.76,260.76 0 0,1 431.4575234913831,520.7804553964312 z"/><path d="M301.07747429246143,294.9556995106188 l256.79847131962276,45.28048948393657 A260.76,260.76 0 0,1 431.4575234913831,520.7804553964312 z" fill="url(#WhiteBlackGradient)"/><path d="M301.07747429246143,294.9556995106188 l256.79847131962276,45.28048948393657 A260.76,260.76 0 0,1 431.4575234913831,520.7804553964312 z" fill-opacity="0.3" filter="url(#SaturateMinus)"/></g><!--								draw pie piece 6--><g fill="rgb(29,157,242)" fill-opacity="1" id="ID_graph_6" stroke="black" stroke-opacity="0" stroke-width="0"><path d="M294.0000023529233,297.1999999999996 l131.1000494706138,227.07183231040042 A262.2,262.2 0 0,1 162.90010129416945,524.2719179960058 z"/><path d="M294.0000023529233,297.1999999999996 l131.1000494706138,227.07183231040042 A262.2,262.2 0 0,1 162.90010129416945,524.2719179960058 z" fill="url(#WhiteBlackGradient)"/><path d="M294.0000023529233,297.1999999999996 l131.1000494706138,227.07183231040042 A262.2,262.2 0 0,1 162.90010129416945,524.2719179960058 z" fill-opacity="0.3" filter="url(#SaturateMinus)"/></g><!--								draw pie piece 7--><g fill="rgb(181,207,50)" fill-opacity="1" id="ID_graph_7" stroke="black" stroke-opacity="0" stroke-width="0"><path d="M288.4067876964813,292.60816156324944 l-131.61418638490778,227.96268720684373 A263.2285714285714,263.2285714285714 0 0,1 29.177218204591973,246.89917866736505 z"/><path d="M288.4067876964813,292.60816156324944 l-131.61418638490778,227.96268720684373 A263.2285714285714,263.2285714285714 0 0,1 29.177218204591973,246.89917866736505 z" fill="url(#WhiteBlackGradient)"/><path d="M288.4067876964813,292.60816156324944 l-131.61418638490778,227.96268720684373 A263.2285714285714,263.2285714285714 0 0,1 29.177218204591973,246.89917866736505 z" fill-opacity="0.3" filter="url(#SaturateMinus)"/></g><!--								draw pie piece 8--><g fill="rgb(212,58,38)" fill-opacity="1" id="ID_graph_8" stroke="black" stroke-opacity="0" stroke-width="0"><path d="M290.52894345300996,285.86336290598297 l-259.9892784223442,-45.84293953738979 A264,264 0 0,1 290.528684631452,21.86336290610984 z"/><path d="M290.52894345300996,285.86336290598297 l-259.9892784223442,-45.84293953738979 A264,264 0 0,1 290.528684631452,21.86336290610984 z" fill="url(#WhiteBlackGradient)"/><path d="M290.52894345300996,285.86336290598297 l-259.9892784223442,-45.84293953738979 A264,264 0 0,1 290.528684631452,21.86336290610984 z" fill-opacity="0.3" filter="url(#SaturateMinus)"/></g></g><!--draw pie LABELS--><g id="ID_pie_labels" style="fill:darkgrey;stroke:none;font-family:Arial;font-size:15px;font-weight:normal;font-style:normal;text-decoration:none;filter:none;text-anchor:middle"><!--								draw pie piece label 1--><g id="ID_pie_label_1"><text fill="black" fill-opacity="0.3" text-anchor="middle" x="318.25136193732334" y="50.93701735650518">2,77 %</text><text fill="white" text-anchor="middle" x="317.25136193732334" y="49.93701735650518">2,77 %</text></g><!--								draw pie piece label 2--><g id="ID_pie_label_2"><text fill="black" fill-opacity="0.3" text-anchor="middle" x="377.47100095027713" y="64.86485071262388">5,55 %</text><text fill="white" text-anchor="middle" x="376.47100095027713" y="63.86485071262388">5,55 %</text></g><!--								draw pie piece label 3--><g id="ID_pie_label_3"><text fill="black" fill-opacity="0.3" text-anchor="middle" x="462.3015907560073" y="122.19749981132563">8,33 %</text><text fill="white" text-anchor="middle" x="461.3015907560073" y="121.19749981132563">8,33 %</text></g><!--								draw pie piece label 4--><g id="ID_pie_label_4"><text fill="black" fill-opacity="0.3" text-anchor="middle" x="526.8274689356083" y="253.69555937152995">11,11 %</text><text fill="white" text-anchor="middle" x="525.8274689356083" y="252.69555937152995">11,11 %</text></g><!--								draw pie piece label 5--><g id="ID_pie_label_5"><text fill="black" fill-opacity="0.3" text-anchor="middle" x="488.33613806835797" y="437.8871394753518">13,88 %</text><text fill="white" text-anchor="middle" x="487.33613806835797" y="436.8871394753518">13,88 %</text></g><!--								draw pie piece label 6--><g id="ID_pie_label_6"><text fill="black" fill-opacity="0.3" text-anchor="middle" x="298.0000759332452" y="543.0009999999868">16,66 %</text><text fill="white" text-anchor="middle" x="297.0000759332452" y="542.0009999999868">16,66 %</text></g><!--								draw pie piece label 7--><g id="ID_pie_label_7"><text fill="black" fill-opacity="0.3" text-anchor="middle" x="87.41264364111268" y="400.6759498730992">19,44 %</text><text fill="white" text-anchor="middle" x="86.41264364111268" y="399.6759498730992">19,44 %</text></g><!--								draw pie piece label 8--><g id="ID_pie_label_8"><text fill="black" fill-opacity="0.3" text-anchor="middle" x="148.64332933014197" y="107.66941105327894">22,22 %</text><text fill="white" text-anchor="middle" x="147.64332933014197" y="106.66941105327894">22,22 %</text></g></g></g></svg>