
<svg xmlns="http://www.w3.org/2000/svg" id="ID_svg" viewBox="0 0 1018 448" viewport-fill="none" viewport-fill-opacity="1" xmlns:exsl4D="http://www.4D.com" xmlns:gFunc="http://gFunc" xmlns:math="http://exslt.org/math" xmlns:xlink="http://www.w3.org/1999/xlink">

  <!--gradient styles-->

  <defs>
    <filter id="soft_blur">
      <feGaussianBlur in="SourceGraphic" result="BlurAlpha" stdDeviation="1"/>
    </filter>
    <filter id="pastel">
      <feGaussianBlur in="SourceAlpha" result="blur" stdDeviation="2"/>
      <feOffset dx="6" dy="6" in="blur" result="offsetBlur"/>
      <feComposite in="SourceGraphic" in2="offsetBlur" operator="in" result="specOut"/>
    </filter>
    <filter id="blur_shadow">
      <feGaussianBlur in="SourceAlpha" result="blur" stdDeviation="3"/>
      <feOffset dx="4" dy="2" in="blur" result="offsetBlur"/>
      <feBlend in="SourceGraphic" in2="offsetBlur" mode="normal"/>
    </filter>
    <filter filterUnits="objectBoundingBox" id="Shadow">
      <feGaussianBlur in="SourceAlpha" result="flou" stdDeviation="0"/>
      <feColorMatrix in="SourceAlpha" result="flouBlue" type="matrix" values=" 0 0 0 0 0                      0 0 0 0 0                     0 0 0 0 0                      0 0 0 0.3 0"/>
      <feOffset dx="4" dy="4" in="flouBlue" result="flouDecalage"/>
      <feBlend in="SourceGraphic" in2="flouDecalage" mode="normal"/>
    </filter>
    <filter filterUnits="objectBoundingBox" height="100%" id="SaturateMinus" width="100%" x="0%" y="0%">
      <feColorMatrix in="SourceGraphic" type="saturate" values="0.5"/>
    </filter>
    <filter filterUnits="objectBoundingBox" height="100%" id="SaturatePlus" width="100%" x="0%" y="0%">
      <feColorMatrix in="SourceGraphic" type="saturate" values="1.4"/>
    </filter>
    <linearGradient id="BlackGradient">
      <stop offset="0%" style="stop-color:rgb(0,0,0); stop-opacity:0"/>
      <stop offset="100%" style="stop-color:rgb(0,0,0); stop-opacity:0.1"/>
    </linearGradient>
    <linearGradient id="WhiteGradient" x1="0%" x2="100%" y1="0%" y2="0%">
      <stop offset="0%" style="stop-color:rgb(255,255,255); stop-opacity:0.3"/>
      <stop offset="100%" style="stop-color:rgb(255,255,255);stop-opacity:0"/>
    </linearGradient>
    <linearGradient id="WhiteBlackGradient" x1="0%" x2="100%" y1="0%" y2="0%">
      <stop offset="0%" style="stop-color:rgb(255,255,255); stop-opacity:0.15"/>
      <stop offset="100%" style="stop-color:rgb(0,0,0);stop-opacity:0.15"/>
    </linearGradient>
    <linearGradient id="Black0Black1Gradient" x1="0%" x2="0%" y1="0%" y2="100%">
      <stop offset="0%" style="stop-color:rgb(0,0,0); stop-opacity:0"/>
      <stop offset="100%" style="stop-color:rgb(0,0,0);stop-opacity:0.05"/>
    </linearGradient>
  </defs>

  <!--global stroke and font styles-->

  <g id="ID_globals" style="fill:black;stroke:none;font-family:Arial;font-size:12px;font-weight:normal;font-style:normal;text-decoration:none;shape-rendering:crispEdges">
    <!--draw title-->
    <!--********************************draw graph background********************************-->
    <rect fill="rgb(168,168,168)" height="400" id="ID_background_shadow" opacity="1" rx="10" ry="10" stroke="none" transform="translate(1,1)" visibility="visible" width="800" x="42" y="12"/>
    <g fill="rgb(229,229,229)" id="ID_background" opacity="1" stroke="none" visibility="visible">
      <rect height="400" rx="10" ry="10" stroke="none" width="800" x="42" y="12"/>
      <rect fill="url(#Black0Black1Gradient)" height="400" rx="10" ry="10" stroke="none" width="800" x="42" y="12"/>
    </g>
    <clipPath id="ID_backgroundClipPath">
      <rect height="401" rx="10" ry="10" width="801" x="41" y="11"/>
    </clipPath>
    <!--********************************draw Y Labels********************************-->
    <g id="ID_y$value" style="fill:black;stroke:none;font-family:Arial;font-size:12px;font-weight:normal;font-style:normal;text-decoration:none;filter:none" visibility="visible">
      <text text-anchor="end" x="30" y="18">14</text>
      <text text-anchor="end" x="30" y="51.33">12</text>
      <text text-anchor="end" x="30" y="84.66">10</text>
      <text text-anchor="end" x="30" y="117.99">8</text>
      <text text-anchor="end" x="30" y="151.32">6</text>
      <text text-anchor="end" x="30" y="184.65">4</text>
      <text text-anchor="end" x="30" y="217.98">2</text>
      <text text-anchor="end" x="30" y="251.31">0</text>
      <text text-anchor="end" x="30" y="284.64">-2</text>
      <text text-anchor="end" x="30" y="317.97">-4</text>
      <text text-anchor="end" x="30" y="351.3">-6</text>
      <text text-anchor="end" x="30" y="384.63">-8</text>
      <text text-anchor="end" x="30" y="417.96">-10</text>
    </g>
    <!--********************************draw X Labels********************************-->
    <!--draw axis x labels-->
    <g id="ID_x$value" style="fill:black;stroke:none;font-family:Arial;font-size:12px;font-weight:normal;font-style:normal;text-decoration:none;filter:none" visibility="visible">
      <text text-anchor="middle" x="92" y="436">08:00:00</text>
      <text text-anchor="middle" x="192" y="436">09:00:00</text>
      <text text-anchor="middle" x="292" y="436">10:00:00</text>
      <text text-anchor="middle" x="392" y="436">11:00:00</text>
      <text text-anchor="middle" x="492" y="436">11:15:00</text>
      <text text-anchor="middle" x="592" y="436">14:45:00</text>
      <text text-anchor="middle" x="692" y="436">15:00:00</text>
      <text text-anchor="middle" x="792" y="436">16:00:00</text>
    </g>
    <g style="clip-path: url(#ID_backgroundClipPath)">
      <!--******************************** draw Y grid lines******************************** (Horizontal lines)-->
      <g id="ID_y_grid" stroke="#a8a8a8" stroke-width="1">
        <line x1="42" x2="842" y1="45.33" y2="45.33"/>
        <line x1="42" x2="842" y1="78.66" y2="78.66"/>
        <line x1="42" x2="842" y1="111.99" y2="111.99"/>
        <line x1="42" x2="842" y1="145.32" y2="145.32"/>
        <line x1="42" x2="842" y1="178.65" y2="178.65"/>
        <line x1="42" x2="842" y1="211.98" y2="211.98"/>
        <line x1="42" x2="842" y1="245.31" y2="245.31"/>
        <line x1="42" x2="842" y1="278.64" y2="278.64"/>
        <line x1="42" x2="842" y1="311.97" y2="311.97"/>
        <line x1="42" x2="842" y1="345.3" y2="345.3"/>
        <line x1="42" x2="842" y1="378.63" y2="378.63"/>
      </g>
      <!--draw Y grid lines SHADOWS-->
      <g id="ID_y_grid_shadow" stroke="#ffffff" stroke-width="1">
        <line transform="translate(0,1)" x1="42" x2="842" y1="45.33" y2="45.33"/>
        <line transform="translate(0,1)" x1="42" x2="842" y1="78.66" y2="78.66"/>
        <line transform="translate(0,1)" x1="42" x2="842" y1="111.99" y2="111.99"/>
        <line transform="translate(0,1)" x1="42" x2="842" y1="145.32" y2="145.32"/>
        <line transform="translate(0,1)" x1="42" x2="842" y1="178.65" y2="178.65"/>
        <line transform="translate(0,1)" x1="42" x2="842" y1="211.98" y2="211.98"/>
        <line transform="translate(0,1)" x1="42" x2="842" y1="245.31" y2="245.31"/>
        <line transform="translate(0,1)" x1="42" x2="842" y1="278.64" y2="278.64"/>
        <line transform="translate(0,1)" x1="42" x2="842" y1="311.97" y2="311.97"/>
        <line transform="translate(0,1)" x1="42" x2="842" y1="345.3" y2="345.3"/>
        <line transform="translate(0,1)" x1="42" x2="842" y1="378.63" y2="378.63"/>
      </g>
      <g id="ID_y0_axis" stroke="rgb(100,100,100)" stroke-width="1" visibility="visible">
        <line x1="42" x2="842" y1="245.33" y2="245.33"/>
      </g>
      <!--********************************draw X grid lines******************************** (Vertical lines)-->
      <g id="ID_x_grid" stroke="#a8a8a8" stroke-width="1">
        <line x1="142" x2="142" y1="12" y2="412"/>
        <line x1="242" x2="242" y1="12" y2="412"/>
        <line x1="342" x2="342" y1="12" y2="412"/>
        <line x1="442" x2="442" y1="12" y2="412"/>
        <line x1="542" x2="542" y1="12" y2="412"/>
        <line x1="642" x2="642" y1="12" y2="412"/>
        <line x1="742" x2="742" y1="12" y2="412"/>
        <line x1="842" x2="842" y1="12" y2="412"/>
      </g>
      <!--draw X grid lines SHADOWS -->
      <g id="ID_x_grid_shadow" stroke="#ffffff" stroke-width="1">
        <line transform="translate(1,0)" x1="142" x2="142" y1="12" y2="412"/>
        <line transform="translate(1,0)" x1="242" x2="242" y1="12" y2="412"/>
        <line transform="translate(1,0)" x1="342" x2="342" y1="12" y2="412"/>
        <line transform="translate(1,0)" x1="442" x2="442" y1="12" y2="412"/>
        <line transform="translate(1,0)" x1="542" x2="542" y1="12" y2="412"/>
        <line transform="translate(1,0)" x1="642" x2="642" y1="12" y2="412"/>
        <line transform="translate(1,0)" x1="742" x2="742" y1="12" y2="412"/>
        <line transform="translate(1,0)" x1="842" x2="842" y1="12" y2="412"/>
      </g>
    </g>
    <!--******************************** draw legend ***********************************-->
    <g filter="none" id="ID_legend" transform="translate(854,12)" visibility="visible">
      <!--draw legend border-->
      <rect fill="rgb(168,168,168)" fill-opacity="1" height="130" id="ID_legend_border_shadow" rx="10" ry="10" stroke="none" transform="translate(1,1)" width="152" x="0" y="0"/>
      <rect fill="rgb(229,229,229)" fill-opacity="1" height="130" id="ID_legend_border" rx="10" ry="10" stroke="none" stroke-width="0" width="152" x="0" y="0"/>
      <!--draw legend bullets-->
      <g id="ID_legend_bullets" stroke="none">
        <g fill="rgb(0,178,195)" id="ID_legend_1">
          <rect height="20" rx="3" ry="3" width="20" x="10" y="10"/>
          <rect fill="url(#WhiteBlackGradient)" height="20" rx="3" ry="3" width="20" x="10" y="10"/>
          <rect fill-opacity="0.3" filter="url(#SaturateMinus)" height="20" rx="3" ry="3" width="20" x="10" y="10"/>
        </g>
        <g fill="rgb(255,195,56)" id="ID_legend_2">
          <rect height="20" rx="3" ry="3" width="20" x="10" y="40"/>
          <rect fill="url(#WhiteBlackGradient)" height="20" rx="3" ry="3" width="20" x="10" y="40"/>
          <rect fill-opacity="0.3" filter="url(#SaturateMinus)" height="20" rx="3" ry="3" width="20" x="10" y="40"/>
        </g>
        <g fill="rgb(87,62,130)" id="ID_legend_3">
          <rect height="20" rx="3" ry="3" width="20" x="10" y="70"/>
          <rect fill="url(#WhiteBlackGradient)" height="20" rx="3" ry="3" width="20" x="10" y="70"/>
          <rect fill-opacity="0.3" filter="url(#SaturateMinus)" height="20" rx="3" ry="3" width="20" x="10" y="70"/>
        </g>
        <g fill="rgb(79,168,57)" id="ID_legend_4">
          <rect height="20" rx="3" ry="3" width="20" x="10" y="100"/>
          <rect fill="url(#WhiteBlackGradient)" height="20" rx="3" ry="3" width="20" x="10" y="100"/>
          <rect fill-opacity="0.3" filter="url(#SaturateMinus)" height="20" rx="3" ry="3" width="20" x="10" y="100"/>
        </g>
      </g>
      <!--draw legend labels-->
      <g id="ID_legend_labels" style="fill:black;stroke:none;font-family:Arial;;font-weight:normal;font-style:normal;text-decoration:none;filter:none;text-anchor:start">
        <text x="40" y="27">Sharp</text>
        <text x="40" y="57">Infinity</text>
        <text x="40" y="87">Audio Référence</text>
        <text x="40" y="117">Triangle</text>
      </g>
    </g>
    <!-- exemple de path "M 0 0 l 0 -198 s 0,-6,6,-6 l 12 0 s 6,0,6,6 l 0 198 z" -->
    <g style="clip-path: url(#ID_backgroundClipPath)">
      <g fill="black" fill-opacity="0.2" id="ID_graph_shadow_1">
        <path d="M 0 0 l 0 11.67 s 0 5 5 5 l 0 0 s 5 0 5 -5 l 0 -11.67 z" transform="translate(57,245.33)"/>
        <path d="M 0 0 l 0 -28.33 s 0 -5 5 -5 l 0 0 s 5 0 5 5 l 0 28.33 z" transform="translate(157,245.33)"/>
        <path d="M 0 0 l 0 45 s 0 5 5 5 l 0 0 s 5 0 5 -5 l 0 -45 z" transform="translate(257,245.33)"/>
        <path d="M 0 0 l 0 -61.67 s 0 -5 5 -5 l 0 0 s 5 0 5 5 l 0 61.67 z" transform="translate(357,245.33)"/>
        <path d="M 0 0 l 0 78.33 s 0 5 5 5 l 0 0 s 5 0 5 -5 l 0 -78.33 z" transform="translate(457,245.33)"/>
        <path d="M 0 0 l 0 -95 s 0 -5 5 -5 l 0 0 s 5 0 5 5 l 0 95 z" transform="translate(557,245.33)"/>
        <path d="M 0 0 l 0 111.67 s 0 5 5 5 l 0 0 s 5 0 5 -5 l 0 -111.67 z" transform="translate(657,245.33)"/>
        <path d="M 0 0 l 0 -128.33 s 0 -5 5 -5 l 0 0 s 5 0 5 5 l 0 128.33 z" transform="translate(757,245.33)"/>
      </g>
      <g fill="black" fill-opacity="0.2" id="ID_graph_shadow_2">
        <path d="M 0 0 l 0 13.33 s 0 5 5 5 l 0 0 s 5 0 5 -5 l 0 -13.33 z" transform="translate(79,245.33)"/>
        <path d="M 0 0 l 0 -31.67 s 0 -5 5 -5 l 0 0 s 5 0 5 5 l 0 31.67 z" transform="translate(179,245.33)"/>
        <path d="M 0 0 l 0 50 s 0 5 5 5 l 0 0 s 5 0 5 -5 l 0 -50 z" transform="translate(279,245.33)"/>
        <path d="M 0 0 l 0 -68.33 s 0 -5 5 -5 l 0 0 s 5 0 5 5 l 0 68.33 z" transform="translate(379,245.33)"/>
        <path d="M 0 0 l 0 86.67 s 0 5 5 5 l 0 0 s 5 0 5 -5 l 0 -86.67 z" transform="translate(479,245.33)"/>
        <path d="M 0 0 l 0 -105 s 0 -5 5 -5 l 0 0 s 5 0 5 5 l 0 105 z" transform="translate(579,245.33)"/>
        <path d="M 0 0 l 0 123.33 s 0 5 5 5 l 0 0 s 5 0 5 -5 l 0 -123.33 z" transform="translate(679,245.33)"/>
        <path d="M 0 0 l 0 -141.67 s 0 -5 5 -5 l 0 0 s 5 0 5 5 l 0 141.67 z" transform="translate(779,245.33)"/>
      </g>
      <g fill="black" fill-opacity="0.2" id="ID_graph_shadow_3">
        <path d="M 0 0 l 0 15.17 s 0 5 5 5 l 0 0 s 5 0 5 -5 l 0 -15.17 z" transform="translate(101,245.33)"/>
        <path d="M 0 0 l 0 -35.33 s 0 -5 5 -5 l 0 0 s 5 0 5 5 l 0 35.33 z" transform="translate(201,245.33)"/>
        <path d="M 0 0 l 0 55.5 s 0 5 5 5 l 0 0 s 5 0 5 -5 l 0 -55.5 z" transform="translate(301,245.33)"/>
        <path d="M 0 0 l 0 -75.67 s 0 -5 5 -5 l 0 0 s 5 0 5 5 l 0 75.67 z" transform="translate(401,245.33)"/>
        <path d="M 0 0 l 0 95.83 s 0 5 5 5 l 0 0 s 5 0 5 -5 l 0 -95.83 z" transform="translate(501,245.33)"/>
        <path d="M 0 0 l 0 -116 s 0 -5 5 -5 l 0 0 s 5 0 5 5 l 0 116 z" transform="translate(601,245.33)"/>
        <path d="M 0 0 l 0 136.17 s 0 5 5 5 l 0 0 s 5 0 5 -5 l 0 -136.17 z" transform="translate(701,245.33)"/>
        <path d="M 0 0 l 0 -156.33 s 0 -5 5 -5 l 0 0 s 5 0 5 5 l 0 156.33 z" transform="translate(801,245.33)"/>
      </g>
      <g fill="black" fill-opacity="0.2" id="ID_graph_shadow_4">
        <path d="M 0 0 l 0 17.18 s 0 5 5 5 l 0 0 s 5 0 5 -5 l 0 -17.18 z" transform="translate(123,245.33)"/>
        <path d="M 0 0 l 0 -39.37 s 0 -5 5 -5 l 0 0 s 5 0 5 5 l 0 39.37 z" transform="translate(223,245.33)"/>
        <path d="M 0 0 l 0 61.55 s 0 5 5 5 l 0 0 s 5 0 5 -5 l 0 -61.55 z" transform="translate(323,245.33)"/>
        <path d="M 0 0 l 0 -83.73 s 0 -5 5 -5 l 0 0 s 5 0 5 5 l 0 83.73 z" transform="translate(423,245.33)"/>
        <path d="M 0 0 l 0 105.92 s 0 5 5 5 l 0 0 s 5 0 5 -5 l 0 -105.92 z" transform="translate(523,245.33)"/>
        <path d="M 0 0 l 0 -128.1 s 0 -5 5 -5 l 0 0 s 5 0 5 5 l 0 128.1 z" transform="translate(623,245.33)"/>
        <path d="M 0 0 l 0 150.28 s 0 5 5 5 l 0 0 s 5 0 5 -5 l 0 -150.28 z" transform="translate(723,245.33)"/>
        <path d="M 0 0 l 0 -172.47 s 0 -5 5 -5 l 0 0 s 5 0 5 5 l 0 172.47 z" transform="translate(823,245.33)"/>
      </g>
      <g fill="rgb(0,178,195)" filter="none" id="ID_graph_1" opacity="1" stroke="none" stroke-opacity="1" stroke-width="0">
        <path d="M 0 0 l 0 11.67 s 0 5 5 5 l 0 0 s 5 0 5 -5 l 0 -11.67 z" transform="translate(54,245.33)"/>
        <path d="M 0 0 l 0 11.67 s 0 5 5 5 l 0 0 s 5 0 5 -5 l 0 -11.67 z" fill="url(#WhiteBlackGradient)" transform="translate(54,245.33)"/>
        <path d="M 0 0 l 0 11.67 s 0 5 5 5 l 0 0 s 5 0 5 -5 l 0 -11.67 z" fill-opacity="0.3" filter="url(#SaturateMinus)" transform="translate(54,245.33)"/>
        <path d="M 0 0 l 0 -28.33 s 0 -5 5 -5 l 0 0 s 5 0 5 5 l 0 28.33 z" transform="translate(154,245.33)"/>
        <path d="M 0 0 l 0 -28.33 s 0 -5 5 -5 l 0 0 s 5 0 5 5 l 0 28.33 z" fill="url(#WhiteBlackGradient)" transform="translate(154,245.33)"/>
        <path d="M 0 0 l 0 -28.33 s 0 -5 5 -5 l 0 0 s 5 0 5 5 l 0 28.33 z" fill-opacity="0.3" filter="url(#SaturateMinus)" transform="translate(154,245.33)"/>
        <path d="M 0 0 l 0 45 s 0 5 5 5 l 0 0 s 5 0 5 -5 l 0 -45 z" transform="translate(254,245.33)"/>
        <path d="M 0 0 l 0 45 s 0 5 5 5 l 0 0 s 5 0 5 -5 l 0 -45 z" fill="url(#WhiteBlackGradient)" transform="translate(254,245.33)"/>
        <path d="M 0 0 l 0 45 s 0 5 5 5 l 0 0 s 5 0 5 -5 l 0 -45 z" fill-opacity="0.3" filter="url(#SaturateMinus)" transform="translate(254,245.33)"/>
        <path d="M 0 0 l 0 -61.67 s 0 -5 5 -5 l 0 0 s 5 0 5 5 l 0 61.67 z" transform="translate(354,245.33)"/>
        <path d="M 0 0 l 0 -61.67 s 0 -5 5 -5 l 0 0 s 5 0 5 5 l 0 61.67 z" fill="url(#WhiteBlackGradient)" transform="translate(354,245.33)"/>
        <path d="M 0 0 l 0 -61.67 s 0 -5 5 -5 l 0 0 s 5 0 5 5 l 0 61.67 z" fill-opacity="0.3" filter="url(#SaturateMinus)" transform="translate(354,245.33)"/>
        <path d="M 0 0 l 0 78.33 s 0 5 5 5 l 0 0 s 5 0 5 -5 l 0 -78.33 z" transform="translate(454,245.33)"/>
        <path d="M 0 0 l 0 78.33 s 0 5 5 5 l 0 0 s 5 0 5 -5 l 0 -78.33 z" fill="url(#WhiteBlackGradient)" transform="translate(454,245.33)"/>
        <path d="M 0 0 l 0 78.33 s 0 5 5 5 l 0 0 s 5 0 5 -5 l 0 -78.33 z" fill-opacity="0.3" filter="url(#SaturateMinus)" transform="translate(454,245.33)"/>
        <path d="M 0 0 l 0 -95 s 0 -5 5 -5 l 0 0 s 5 0 5 5 l 0 95 z" transform="translate(554,245.33)"/>
        <path d="M 0 0 l 0 -95 s 0 -5 5 -5 l 0 0 s 5 0 5 5 l 0 95 z" fill="url(#WhiteBlackGradient)" transform="translate(554,245.33)"/>
        <path d="M 0 0 l 0 -95 s 0 -5 5 -5 l 0 0 s 5 0 5 5 l 0 95 z" fill-opacity="0.3" filter="url(#SaturateMinus)" transform="translate(554,245.33)"/>
        <path d="M 0 0 l 0 111.67 s 0 5 5 5 l 0 0 s 5 0 5 -5 l 0 -111.67 z" transform="translate(654,245.33)"/>
        <path d="M 0 0 l 0 111.67 s 0 5 5 5 l 0 0 s 5 0 5 -5 l 0 -111.67 z" fill="url(#WhiteBlackGradient)" transform="translate(654,245.33)"/>
        <path d="M 0 0 l 0 111.67 s 0 5 5 5 l 0 0 s 5 0 5 -5 l 0 -111.67 z" fill-opacity="0.3" filter="url(#SaturateMinus)" transform="translate(654,245.33)"/>
        <path d="M 0 0 l 0 -128.33 s 0 -5 5 -5 l 0 0 s 5 0 5 5 l 0 128.33 z" transform="translate(754,245.33)"/>
        <path d="M 0 0 l 0 -128.33 s 0 -5 5 -5 l 0 0 s 5 0 5 5 l 0 128.33 z" fill="url(#WhiteBlackGradient)" transform="translate(754,245.33)"/>
        <path d="M 0 0 l 0 -128.33 s 0 -5 5 -5 l 0 0 s 5 0 5 5 l 0 128.33 z" fill-opacity="0.3" filter="url(#SaturateMinus)" transform="translate(754,245.33)"/>
      </g>
      <g fill="rgb(255,195,56)" filter="none" id="ID_graph_2" opacity="1" stroke="none" stroke-opacity="1" stroke-width="0">
        <path d="M 0 0 l 0 13.33 s 0 5 5 5 l 0 0 s 5 0 5 -5 l 0 -13.33 z" transform="translate(76,245.33)"/>
        <path d="M 0 0 l 0 13.33 s 0 5 5 5 l 0 0 s 5 0 5 -5 l 0 -13.33 z" fill="url(#WhiteBlackGradient)" transform="translate(76,245.33)"/>
        <path d="M 0 0 l 0 13.33 s 0 5 5 5 l 0 0 s 5 0 5 -5 l 0 -13.33 z" fill-opacity="0.3" filter="url(#SaturateMinus)" transform="translate(76,245.33)"/>
        <path d="M 0 0 l 0 -31.67 s 0 -5 5 -5 l 0 0 s 5 0 5 5 l 0 31.67 z" transform="translate(176,245.33)"/>
        <path d="M 0 0 l 0 -31.67 s 0 -5 5 -5 l 0 0 s 5 0 5 5 l 0 31.67 z" fill="url(#WhiteBlackGradient)" transform="translate(176,245.33)"/>
        <path d="M 0 0 l 0 -31.67 s 0 -5 5 -5 l 0 0 s 5 0 5 5 l 0 31.67 z" fill-opacity="0.3" filter="url(#SaturateMinus)" transform="translate(176,245.33)"/>
        <path d="M 0 0 l 0 50 s 0 5 5 5 l 0 0 s 5 0 5 -5 l 0 -50 z" transform="translate(276,245.33)"/>
        <path d="M 0 0 l 0 50 s 0 5 5 5 l 0 0 s 5 0 5 -5 l 0 -50 z" fill="url(#WhiteBlackGradient)" transform="translate(276,245.33)"/>
        <path d="M 0 0 l 0 50 s 0 5 5 5 l 0 0 s 5 0 5 -5 l 0 -50 z" fill-opacity="0.3" filter="url(#SaturateMinus)" transform="translate(276,245.33)"/>
        <path d="M 0 0 l 0 -68.33 s 0 -5 5 -5 l 0 0 s 5 0 5 5 l 0 68.33 z" transform="translate(376,245.33)"/>
        <path d="M 0 0 l 0 -68.33 s 0 -5 5 -5 l 0 0 s 5 0 5 5 l 0 68.33 z" fill="url(#WhiteBlackGradient)" transform="translate(376,245.33)"/>
        <path d="M 0 0 l 0 -68.33 s 0 -5 5 -5 l 0 0 s 5 0 5 5 l 0 68.33 z" fill-opacity="0.3" filter="url(#SaturateMinus)" transform="translate(376,245.33)"/>
        <path d="M 0 0 l 0 86.67 s 0 5 5 5 l 0 0 s 5 0 5 -5 l 0 -86.67 z" transform="translate(476,245.33)"/>
        <path d="M 0 0 l 0 86.67 s 0 5 5 5 l 0 0 s 5 0 5 -5 l 0 -86.67 z" fill="url(#WhiteBlackGradient)" transform="translate(476,245.33)"/>
        <path d="M 0 0 l 0 86.67 s 0 5 5 5 l 0 0 s 5 0 5 -5 l 0 -86.67 z" fill-opacity="0.3" filter="url(#SaturateMinus)" transform="translate(476,245.33)"/>
        <path d="M 0 0 l 0 -105 s 0 -5 5 -5 l 0 0 s 5 0 5 5 l 0 105 z" transform="translate(576,245.33)"/>
        <path d="M 0 0 l 0 -105 s 0 -5 5 -5 l 0 0 s 5 0 5 5 l 0 105 z" fill="url(#WhiteBlackGradient)" transform="translate(576,245.33)"/>
        <path d="M 0 0 l 0 -105 s 0 -5 5 -5 l 0 0 s 5 0 5 5 l 0 105 z" fill-opacity="0.3" filter="url(#SaturateMinus)" transform="translate(576,245.33)"/>
        <path d="M 0 0 l 0 123.33 s 0 5 5 5 l 0 0 s 5 0 5 -5 l 0 -123.33 z" transform="translate(676,245.33)"/>
        <path d="M 0 0 l 0 123.33 s 0 5 5 5 l 0 0 s 5 0 5 -5 l 0 -123.33 z" fill="url(#WhiteBlackGradient)" transform="translate(676,245.33)"/>
        <path d="M 0 0 l 0 123.33 s 0 5 5 5 l 0 0 s 5 0 5 -5 l 0 -123.33 z" fill-opacity="0.3" filter="url(#SaturateMinus)" transform="translate(676,245.33)"/>
        <path d="M 0 0 l 0 -141.67 s 0 -5 5 -5 l 0 0 s 5 0 5 5 l 0 141.67 z" transform="translate(776,245.33)"/>
        <path d="M 0 0 l 0 -141.67 s 0 -5 5 -5 l 0 0 s 5 0 5 5 l 0 141.67 z" fill="url(#WhiteBlackGradient)" transform="translate(776,245.33)"/>
        <path d="M 0 0 l 0 -141.67 s 0 -5 5 -5 l 0 0 s 5 0 5 5 l 0 141.67 z" fill-opacity="0.3" filter="url(#SaturateMinus)" transform="translate(776,245.33)"/>
      </g>
      <g fill="rgb(87,62,130)" filter="none" id="ID_graph_3" opacity="1" stroke="none" stroke-opacity="1" stroke-width="0">
        <path d="M 0 0 l 0 15.17 s 0 5 5 5 l 0 0 s 5 0 5 -5 l 0 -15.17 z" transform="translate(98,245.33)"/>
        <path d="M 0 0 l 0 15.17 s 0 5 5 5 l 0 0 s 5 0 5 -5 l 0 -15.17 z" fill="url(#WhiteBlackGradient)" transform="translate(98,245.33)"/>
        <path d="M 0 0 l 0 15.17 s 0 5 5 5 l 0 0 s 5 0 5 -5 l 0 -15.17 z" fill-opacity="0.3" filter="url(#SaturateMinus)" transform="translate(98,245.33)"/>
        <path d="M 0 0 l 0 -35.33 s 0 -5 5 -5 l 0 0 s 5 0 5 5 l 0 35.33 z" transform="translate(198,245.33)"/>
        <path d="M 0 0 l 0 -35.33 s 0 -5 5 -5 l 0 0 s 5 0 5 5 l 0 35.33 z" fill="url(#WhiteBlackGradient)" transform="translate(198,245.33)"/>
        <path d="M 0 0 l 0 -35.33 s 0 -5 5 -5 l 0 0 s 5 0 5 5 l 0 35.33 z" fill-opacity="0.3" filter="url(#SaturateMinus)" transform="translate(198,245.33)"/>
        <path d="M 0 0 l 0 55.5 s 0 5 5 5 l 0 0 s 5 0 5 -5 l 0 -55.5 z" transform="translate(298,245.33)"/>
        <path d="M 0 0 l 0 55.5 s 0 5 5 5 l 0 0 s 5 0 5 -5 l 0 -55.5 z" fill="url(#WhiteBlackGradient)" transform="translate(298,245.33)"/>
        <path d="M 0 0 l 0 55.5 s 0 5 5 5 l 0 0 s 5 0 5 -5 l 0 -55.5 z" fill-opacity="0.3" filter="url(#SaturateMinus)" transform="translate(298,245.33)"/>
        <path d="M 0 0 l 0 -75.67 s 0 -5 5 -5 l 0 0 s 5 0 5 5 l 0 75.67 z" transform="translate(398,245.33)"/>
        <path d="M 0 0 l 0 -75.67 s 0 -5 5 -5 l 0 0 s 5 0 5 5 l 0 75.67 z" fill="url(#WhiteBlackGradient)" transform="translate(398,245.33)"/>
        <path d="M 0 0 l 0 -75.67 s 0 -5 5 -5 l 0 0 s 5 0 5 5 l 0 75.67 z" fill-opacity="0.3" filter="url(#SaturateMinus)" transform="translate(398,245.33)"/>
        <path d="M 0 0 l 0 95.83 s 0 5 5 5 l 0 0 s 5 0 5 -5 l 0 -95.83 z" transform="translate(498,245.33)"/>
        <path d="M 0 0 l 0 95.83 s 0 5 5 5 l 0 0 s 5 0 5 -5 l 0 -95.83 z" fill="url(#WhiteBlackGradient)" transform="translate(498,245.33)"/>
        <path d="M 0 0 l 0 95.83 s 0 5 5 5 l 0 0 s 5 0 5 -5 l 0 -95.83 z" fill-opacity="0.3" filter="url(#SaturateMinus)" transform="translate(498,245.33)"/>
        <path d="M 0 0 l 0 -116 s 0 -5 5 -5 l 0 0 s 5 0 5 5 l 0 116 z" transform="translate(598,245.33)"/>
        <path d="M 0 0 l 0 -116 s 0 -5 5 -5 l 0 0 s 5 0 5 5 l 0 116 z" fill="url(#WhiteBlackGradient)" transform="translate(598,245.33)"/>
        <path d="M 0 0 l 0 -116 s 0 -5 5 -5 l 0 0 s 5 0 5 5 l 0 116 z" fill-opacity="0.3" filter="url(#SaturateMinus)" transform="translate(598,245.33)"/>
        <path d="M 0 0 l 0 136.17 s 0 5 5 5 l 0 0 s 5 0 5 -5 l 0 -136.17 z" transform="translate(698,245.33)"/>
        <path d="M 0 0 l 0 136.17 s 0 5 5 5 l 0 0 s 5 0 5 -5 l 0 -136.17 z" fill="url(#WhiteBlackGradient)" transform="translate(698,245.33)"/>
        <path d="M 0 0 l 0 136.17 s 0 5 5 5 l 0 0 s 5 0 5 -5 l 0 -136.17 z" fill-opacity="0.3" filter="url(#SaturateMinus)" transform="translate(698,245.33)"/>
        <path d="M 0 0 l 0 -156.33 s 0 -5 5 -5 l 0 0 s 5 0 5 5 l 0 156.33 z" transform="translate(798,245.33)"/>
        <path d="M 0 0 l 0 -156.33 s 0 -5 5 -5 l 0 0 s 5 0 5 5 l 0 156.33 z" fill="url(#WhiteBlackGradient)" transform="translate(798,245.33)"/>
        <path d="M 0 0 l 0 -156.33 s 0 -5 5 -5 l 0 0 s 5 0 5 5 l 0 156.33 z" fill-opacity="0.3" filter="url(#SaturateMinus)" transform="translate(798,245.33)"/>
      </g>
      <g fill="rgb(79,168,57)" filter="none" id="ID_graph_4" opacity="1" stroke="none" stroke-opacity="1" stroke-width="0">
        <path d="M 0 0 l 0 17.18 s 0 5 5 5 l 0 0 s 5 0 5 -5 l 0 -17.18 z" transform="translate(120,245.33)"/>
        <path d="M 0 0 l 0 17.18 s 0 5 5 5 l 0 0 s 5 0 5 -5 l 0 -17.18 z" fill="url(#WhiteBlackGradient)" transform="translate(120,245.33)"/>
        <path d="M 0 0 l 0 17.18 s 0 5 5 5 l 0 0 s 5 0 5 -5 l 0 -17.18 z" fill-opacity="0.3" filter="url(#SaturateMinus)" transform="translate(120,245.33)"/>
        <path d="M 0 0 l 0 -39.37 s 0 -5 5 -5 l 0 0 s 5 0 5 5 l 0 39.37 z" transform="translate(220,245.33)"/>
        <path d="M 0 0 l 0 -39.37 s 0 -5 5 -5 l 0 0 s 5 0 5 5 l 0 39.37 z" fill="url(#WhiteBlackGradient)" transform="translate(220,245.33)"/>
        <path d="M 0 0 l 0 -39.37 s 0 -5 5 -5 l 0 0 s 5 0 5 5 l 0 39.37 z" fill-opacity="0.3" filter="url(#SaturateMinus)" transform="translate(220,245.33)"/>
        <path d="M 0 0 l 0 61.55 s 0 5 5 5 l 0 0 s 5 0 5 -5 l 0 -61.55 z" transform="translate(320,245.33)"/>
        <path d="M 0 0 l 0 61.55 s 0 5 5 5 l 0 0 s 5 0 5 -5 l 0 -61.55 z" fill="url(#WhiteBlackGradient)" transform="translate(320,245.33)"/>
        <path d="M 0 0 l 0 61.55 s 0 5 5 5 l 0 0 s 5 0 5 -5 l 0 -61.55 z" fill-opacity="0.3" filter="url(#SaturateMinus)" transform="translate(320,245.33)"/>
        <path d="M 0 0 l 0 -83.73 s 0 -5 5 -5 l 0 0 s 5 0 5 5 l 0 83.73 z" transform="translate(420,245.33)"/>
        <path d="M 0 0 l 0 -83.73 s 0 -5 5 -5 l 0 0 s 5 0 5 5 l 0 83.73 z" fill="url(#WhiteBlackGradient)" transform="translate(420,245.33)"/>
        <path d="M 0 0 l 0 -83.73 s 0 -5 5 -5 l 0 0 s 5 0 5 5 l 0 83.73 z" fill-opacity="0.3" filter="url(#SaturateMinus)" transform="translate(420,245.33)"/>
        <path d="M 0 0 l 0 105.92 s 0 5 5 5 l 0 0 s 5 0 5 -5 l 0 -105.92 z" transform="translate(520,245.33)"/>
        <path d="M 0 0 l 0 105.92 s 0 5 5 5 l 0 0 s 5 0 5 -5 l 0 -105.92 z" fill="url(#WhiteBlackGradient)" transform="translate(520,245.33)"/>
        <path d="M 0 0 l 0 105.92 s 0 5 5 5 l 0 0 s 5 0 5 -5 l 0 -105.92 z" fill-opacity="0.3" filter="url(#SaturateMinus)" transform="translate(520,245.33)"/>
        <path d="M 0 0 l 0 -128.1 s 0 -5 5 -5 l 0 0 s 5 0 5 5 l 0 128.1 z" transform="translate(620,245.33)"/>
        <path d="M 0 0 l 0 -128.1 s 0 -5 5 -5 l 0 0 s 5 0 5 5 l 0 128.1 z" fill="url(#WhiteBlackGradient)" transform="translate(620,245.33)"/>
        <path d="M 0 0 l 0 -128.1 s 0 -5 5 -5 l 0 0 s 5 0 5 5 l 0 128.1 z" fill-opacity="0.3" filter="url(#SaturateMinus)" transform="translate(620,245.33)"/>
        <path d="M 0 0 l 0 150.28 s 0 5 5 5 l 0 0 s 5 0 5 -5 l 0 -150.28 z" transform="translate(720,245.33)"/>
        <path d="M 0 0 l 0 150.28 s 0 5 5 5 l 0 0 s 5 0 5 -5 l 0 -150.28 z" fill="url(#WhiteBlackGradient)" transform="translate(720,245.33)"/>
        <path d="M 0 0 l 0 150.28 s 0 5 5 5 l 0 0 s 5 0 5 -5 l 0 -150.28 z" fill-opacity="0.3" filter="url(#SaturateMinus)" transform="translate(720,245.33)"/>
        <path d="M 0 0 l 0 -172.47 s 0 -5 5 -5 l 0 0 s 5 0 5 5 l 0 172.47 z" transform="translate(820,245.33)"/>
        <path d="M 0 0 l 0 -172.47 s 0 -5 5 -5 l 0 0 s 5 0 5 5 l 0 172.47 z" fill="url(#WhiteBlackGradient)" transform="translate(820,245.33)"/>
        <path d="M 0 0 l 0 -172.47 s 0 -5 5 -5 l 0 0 s 5 0 5 5 l 0 172.47 z" fill-opacity="0.3" filter="url(#SaturateMinus)" transform="translate(820,245.33)"/>
      </g>
    </g>
  </g>

</svg>