
<svg xmlns="http://www.w3.org/2000/svg" id="ID_svg" viewBox="0 0 1209 466" viewport-fill="darkblue" viewport-fill-opacity="0.25" xmlns:exsl4D="http://www.4D.com" xmlns:gFunc="http://gFunc" xmlns:math="http://exslt.org/math" xmlns:xlink="http://www.w3.org/1999/xlink">

  <!--gradient styles-->

  <defs>
    <filter id="soft_blur">
      <feGaussianBlur in="SourceGraphic" result="BlurAlpha" stdDeviation="1"/>
    </filter>
    <filter id="pastel">
      <feGaussianBlur in="SourceAlpha" result="blur" stdDeviation="2"/>
      <feOffset dx="6" dy="6" in="blur" result="offsetBlur"/>
      <feComposite in="SourceGraphic" in2="offsetBlur" operator="in" result="specOut"/>
    </filter>
    <filter id="blur_shadow">
      <feGaussianBlur in="SourceAlpha" result="blur" stdDeviation="3"/>
      <feOffset dx="4" dy="2" in="blur" result="offsetBlur"/>
      <feBlend in="SourceGraphic" in2="offsetBlur" mode="normal"/>
    </filter>
    <filter filterUnits="objectBoundingBox" id="Shadow">
      <feGaussianBlur in="SourceAlpha" result="flou" stdDeviation="0"/>
      <feColorMatrix in="SourceAlpha" result="flouBlue" type="matrix" values=" 0 0 0 0 0                      0 0 0 0 0                     0 0 0 0 0                      0 0 0 0.3 0"/>
      <feOffset dx="4" dy="4" in="flouBlue" result="flouDecalage"/>
      <feBlend in="SourceGraphic" in2="flouDecalage" mode="normal"/>
    </filter>
    <filter filterUnits="objectBoundingBox" height="100%" id="SaturateMinus" width="100%" x="0%" y="0%">
      <feColorMatrix in="SourceGraphic" type="saturate" values="0.5"/>
    </filter>
    <filter filterUnits="objectBoundingBox" height="100%" id="SaturatePlus" width="100%" x="0%" y="0%">
      <feColorMatrix in="SourceGraphic" type="saturate" values="1.4"/>
    </filter>
    <linearGradient id="BlackGradient">
      <stop offset="0%" style="stop-color:rgb(0,0,0); stop-opacity:0"/>
      <stop offset="100%" style="stop-color:rgb(0,0,0); stop-opacity:0.1"/>
    </linearGradient>
    <linearGradient id="WhiteGradient" x1="0%" x2="100%" y1="0%" y2="0%">
      <stop offset="0%" style="stop-color:rgb(255,255,255); stop-opacity:0.3"/>
      <stop offset="100%" style="stop-color:rgb(255,255,255);stop-opacity:0"/>
    </linearGradient>
    <linearGradient id="WhiteBlackGradient" x1="0%" x2="100%" y1="0%" y2="0%">
      <stop offset="0%" style="stop-color:rgb(255,255,255); stop-opacity:0.15"/>
      <stop offset="100%" style="stop-color:rgb(0,0,0);stop-opacity:0.15"/>
    </linearGradient>
    <linearGradient id="Black0Black1Gradient" x1="0%" x2="0%" y1="0%" y2="100%">
      <stop offset="0%" style="stop-color:rgb(0,0,0); stop-opacity:0"/>
      <stop offset="100%" style="stop-color:rgb(0,0,0);stop-opacity:0.05"/>
    </linearGradient>
  </defs>

  <!--global stroke and font styles-->

  <g id="ID_globals" style="fill:red;stroke:none;font-family:Arial;font-size:14px;font-weight:normal;font-style:normal;text-decoration:none;shape-rendering:crispEdges">
    <!--draw title-->
    <!--********************************draw graph background********************************-->
    <rect fill="darkgreen" height="400" id="ID_background_shadow" opacity="0.5" rx="10" ry="10" stroke="none" transform="translate(1,1)" visibility="visible" width="1000" x="53" y="20"/>
    <g fill="lightgreen" id="ID_background" opacity="0.5" stroke="none" visibility="visible">
      <rect height="400" rx="10" ry="10" stroke="none" width="1000" x="53" y="20"/>
      <rect fill="url(#Black0Black1Gradient)" height="400" rx="10" ry="10" stroke="none" width="1000" x="53" y="20"/>
    </g>
    <clipPath id="ID_backgroundClipPath">
      <rect height="401" rx="10" ry="10" width="1001" x="52" y="19"/>
    </clipPath>
    <!--********************************draw Y Labels********************************-->
    <g id="ID_y$value" style="fill:red;stroke:none;font-family:Arial;font-size:14px;font-weight:normal;font-style:normal;text-decoration:none;filter:none" visibility="visible">
      <text text-anchor="end" x="41" y="27">14</text>
      <text text-anchor="end" x="41" y="60.33">12</text>
      <text text-anchor="end" x="41" y="93.66">10</text>
      <text text-anchor="end" x="41" y="126.99">8</text>
      <text text-anchor="end" x="41" y="160.32">6</text>
      <text text-anchor="end" x="41" y="193.65">4</text>
      <text text-anchor="end" x="41" y="226.98">2</text>
      <text text-anchor="end" x="41" y="260.31">0</text>
      <text text-anchor="end" x="41" y="293.64">-2</text>
      <text text-anchor="end" x="41" y="326.97">-4</text>
      <text text-anchor="end" x="41" y="360.3">-6</text>
      <text text-anchor="end" x="41" y="393.63">-8</text>
      <text text-anchor="end" x="41" y="426.96">-10</text>
    </g>
    <!--********************************draw X Labels********************************-->
    <!--draw axis x labels-->
    <g id="ID_x$value" style="fill:red;stroke:none;font-family:Arial;font-size:14px;font-weight:normal;font-style:normal;text-decoration:none;filter:none" visibility="visible">
      <text text-anchor="middle" x="115.5" y="446">08:00:00</text>
      <text text-anchor="middle" x="240.5" y="446">09:00:00</text>
      <text text-anchor="middle" x="365.5" y="446">10:00:00</text>
      <text text-anchor="middle" x="490.5" y="446">11:00:00</text>
      <text text-anchor="middle" x="615.5" y="446">11:15:00</text>
      <text text-anchor="middle" x="740.5" y="446">14:45:00</text>
      <text text-anchor="middle" x="865.5" y="446">15:00:00</text>
      <text text-anchor="middle" x="990.5" y="446">16:00:00</text>
    </g>
    <g style="clip-path: url(#ID_backgroundClipPath)">
      <!--******************************** draw Y grid lines******************************** (Horizontal lines)-->
      <g id="ID_y_grid" stroke="#a8a8a8" stroke-width="1">
        <line x1="53" x2="1053" y1="53.33" y2="53.33"/>
        <line x1="53" x2="1053" y1="86.66" y2="86.66"/>
        <line x1="53" x2="1053" y1="119.99" y2="119.99"/>
        <line x1="53" x2="1053" y1="153.32" y2="153.32"/>
        <line x1="53" x2="1053" y1="186.65" y2="186.65"/>
        <line x1="53" x2="1053" y1="219.98" y2="219.98"/>
        <line x1="53" x2="1053" y1="253.31" y2="253.31"/>
        <line x1="53" x2="1053" y1="286.64" y2="286.64"/>
        <line x1="53" x2="1053" y1="319.97" y2="319.97"/>
        <line x1="53" x2="1053" y1="353.3" y2="353.3"/>
        <line x1="53" x2="1053" y1="386.63" y2="386.63"/>
      </g>
      <!--draw Y grid lines SHADOWS-->
      <g id="ID_y_grid_shadow" stroke="#ffffff" stroke-width="1">
        <line transform="translate(0,1)" x1="53" x2="1053" y1="53.33" y2="53.33"/>
        <line transform="translate(0,1)" x1="53" x2="1053" y1="86.66" y2="86.66"/>
        <line transform="translate(0,1)" x1="53" x2="1053" y1="119.99" y2="119.99"/>
        <line transform="translate(0,1)" x1="53" x2="1053" y1="153.32" y2="153.32"/>
        <line transform="translate(0,1)" x1="53" x2="1053" y1="186.65" y2="186.65"/>
        <line transform="translate(0,1)" x1="53" x2="1053" y1="219.98" y2="219.98"/>
        <line transform="translate(0,1)" x1="53" x2="1053" y1="253.31" y2="253.31"/>
        <line transform="translate(0,1)" x1="53" x2="1053" y1="286.64" y2="286.64"/>
        <line transform="translate(0,1)" x1="53" x2="1053" y1="319.97" y2="319.97"/>
        <line transform="translate(0,1)" x1="53" x2="1053" y1="353.3" y2="353.3"/>
        <line transform="translate(0,1)" x1="53" x2="1053" y1="386.63" y2="386.63"/>
      </g>
      <g id="ID_y0_axis" stroke="rgb(100,100,100)" stroke-width="1" visibility="visible">
        <line x1="53" x2="1053" y1="253.33" y2="253.33"/>
      </g>
      <!--********************************draw X grid lines******************************** (Vertical lines)-->
      <g id="ID_x_grid" stroke="#a8a8a8" stroke-width="1">
        <line x1="178" x2="178" y1="20" y2="420"/>
        <line x1="303" x2="303" y1="20" y2="420"/>
        <line x1="428" x2="428" y1="20" y2="420"/>
        <line x1="553" x2="553" y1="20" y2="420"/>
        <line x1="678" x2="678" y1="20" y2="420"/>
        <line x1="803" x2="803" y1="20" y2="420"/>
        <line x1="928" x2="928" y1="20" y2="420"/>
        <line x1="1053" x2="1053" y1="20" y2="420"/>
      </g>
      <!--draw X grid lines SHADOWS -->
      <g id="ID_x_grid_shadow" stroke="#ffffff" stroke-width="1">
        <line transform="translate(1,0)" x1="178" x2="178" y1="20" y2="420"/>
        <line transform="translate(1,0)" x1="303" x2="303" y1="20" y2="420"/>
        <line transform="translate(1,0)" x1="428" x2="428" y1="20" y2="420"/>
        <line transform="translate(1,0)" x1="553" x2="553" y1="20" y2="420"/>
        <line transform="translate(1,0)" x1="678" x2="678" y1="20" y2="420"/>
        <line transform="translate(1,0)" x1="803" x2="803" y1="20" y2="420"/>
        <line transform="translate(1,0)" x1="928" x2="928" y1="20" y2="420"/>
        <line transform="translate(1,0)" x1="1053" x2="1053" y1="20" y2="420"/>
      </g>
    </g>
    <!--******************************** draw legend ***********************************-->
    <g filter="none" id="ID_legend" transform="translate(1065,20)" visibility="visible">
      <!--draw legend border-->
      <rect fill="darkgreen" fill-opacity="0.5" height="48" id="ID_legend_border_shadow" rx="10" ry="10" stroke="none" transform="translate(1,1)" width="124" x="0" y="0"/>
      <rect fill="lightgreen" fill-opacity="0.5" height="48" id="ID_legend_border" rx="10" ry="10" stroke="none" stroke-width="0" width="124" x="0" y="0"/>
      <!--draw legend bullets-->
      <g id="ID_legend_bullets" stroke="none">
        <g fill="purple" id="ID_legend_1">
          <rect height="12" rx="3" ry="3" width="24" x="10" y="8"/>
          <rect fill="url(#WhiteBlackGradient)" height="12" rx="3" ry="3" width="24" x="10" y="8"/>
          <rect fill-opacity="0.3" filter="url(#SaturateMinus)" height="12" rx="3" ry="3" width="24" x="10" y="8"/>
        </g>
        <g fill="darkblue" id="ID_legend_2">
          <rect height="12" rx="3" ry="3" width="24" x="10" y="28"/>
          <rect fill="url(#WhiteBlackGradient)" height="12" rx="3" ry="3" width="24" x="10" y="28"/>
          <rect fill-opacity="0.3" filter="url(#SaturateMinus)" height="12" rx="3" ry="3" width="24" x="10" y="28"/>
        </g>
      </g>
      <!--draw legend labels-->
      <g id="ID_legend_labels" style="fill:black;stroke:none;font-family:Arial;;font-weight:normal;font-style:normal;text-decoration:none;filter:none;text-anchor:start">
        <text x="44" y="17">Sharp</text>
        <text x="44" y="37">Infinity</text>
      </g>
    </g>
    <!-- exemple de path "M 0 0 l 0 -198 s 0,-6,6,-6 l 12 0 s 6,0,6,6 l 0 198 z" -->
    <g style="clip-path: url(#ID_backgroundClipPath)">
      <g fill="black" fill-opacity="0.2" id="ID_graph_shadow_1">
        <path d="M 0 0 l 0 10.67 s 0 6 6 6 l 35.5 0 s 6 0 6 -6 l 0 -10.67 z" transform="translate(66,253.33)"/>
        <path d="M 0 0 l 0 -27.33 s 0 -6 6 -6 l 35.5 0 s 6 0 6 6 l 0 27.33 z" transform="translate(191,253.33)"/>
        <path d="M 0 0 l 0 44 s 0 6 6 6 l 35.5 0 s 6 0 6 -6 l 0 -44 z" transform="translate(316,253.33)"/>
        <path d="M 0 0 l 0 -60.67 s 0 -6 6 -6 l 35.5 0 s 6 0 6 6 l 0 60.67 z" transform="translate(441,253.33)"/>
        <path d="M 0 0 l 0 77.33 s 0 6 6 6 l 35.5 0 s 6 0 6 -6 l 0 -77.33 z" transform="translate(566,253.33)"/>
        <path d="M 0 0 l 0 -94 s 0 -6 6 -6 l 35.5 0 s 6 0 6 6 l 0 94 z" transform="translate(691,253.33)"/>
        <path d="M 0 0 l 0 110.67 s 0 6 6 6 l 35.5 0 s 6 0 6 -6 l 0 -110.67 z" transform="translate(816,253.33)"/>
        <path d="M 0 0 l 0 -127.33 s 0 -6 6 -6 l 35.5 0 s 6 0 6 6 l 0 127.33 z" transform="translate(941,253.33)"/>
      </g>
      <g fill="black" fill-opacity="0.2" id="ID_graph_shadow_2">
        <path d="M 0 0 l 0 12.33 s 0 6 6 6 l 35.5 0 s 6 0 6 -6 l 0 -12.33 z" transform="translate(123.5,253.33)"/>
        <path d="M 0 0 l 0 -30.67 s 0 -6 6 -6 l 35.5 0 s 6 0 6 6 l 0 30.67 z" transform="translate(248.5,253.33)"/>
        <path d="M 0 0 l 0 49 s 0 6 6 6 l 35.5 0 s 6 0 6 -6 l 0 -49 z" transform="translate(373.5,253.33)"/>
        <path d="M 0 0 l 0 -67.33 s 0 -6 6 -6 l 35.5 0 s 6 0 6 6 l 0 67.33 z" transform="translate(498.5,253.33)"/>
        <path d="M 0 0 l 0 85.67 s 0 6 6 6 l 35.5 0 s 6 0 6 -6 l 0 -85.67 z" transform="translate(623.5,253.33)"/>
        <path d="M 0 0 l 0 -104 s 0 -6 6 -6 l 35.5 0 s 6 0 6 6 l 0 104 z" transform="translate(748.5,253.33)"/>
        <path d="M 0 0 l 0 122.33 s 0 6 6 6 l 35.5 0 s 6 0 6 -6 l 0 -122.33 z" transform="translate(873.5,253.33)"/>
        <path d="M 0 0 l 0 -140.67 s 0 -6 6 -6 l 35.5 0 s 6 0 6 6 l 0 140.67 z" transform="translate(998.5,253.33)"/>
      </g>
      <g fill="purple" filter="none" id="ID_graph_1" opacity="1" stroke="none" stroke-opacity="1" stroke-width="0">
        <path d="M 0 0 l 0 10.67 s 0 6 6 6 l 35.5 0 s 6 0 6 -6 l 0 -10.67 z" transform="translate(63,253.33)"/>
        <path d="M 0 0 l 0 10.67 s 0 6 6 6 l 35.5 0 s 6 0 6 -6 l 0 -10.67 z" fill="url(#WhiteBlackGradient)" transform="translate(63,253.33)"/>
        <path d="M 0 0 l 0 10.67 s 0 6 6 6 l 35.5 0 s 6 0 6 -6 l 0 -10.67 z" fill-opacity="0.3" filter="url(#SaturateMinus)" transform="translate(63,253.33)"/>
        <path d="M 0 0 l 0 -27.33 s 0 -6 6 -6 l 35.5 0 s 6 0 6 6 l 0 27.33 z" transform="translate(188,253.33)"/>
        <path d="M 0 0 l 0 -27.33 s 0 -6 6 -6 l 35.5 0 s 6 0 6 6 l 0 27.33 z" fill="url(#WhiteBlackGradient)" transform="translate(188,253.33)"/>
        <path d="M 0 0 l 0 -27.33 s 0 -6 6 -6 l 35.5 0 s 6 0 6 6 l 0 27.33 z" fill-opacity="0.3" filter="url(#SaturateMinus)" transform="translate(188,253.33)"/>
        <path d="M 0 0 l 0 44 s 0 6 6 6 l 35.5 0 s 6 0 6 -6 l 0 -44 z" transform="translate(313,253.33)"/>
        <path d="M 0 0 l 0 44 s 0 6 6 6 l 35.5 0 s 6 0 6 -6 l 0 -44 z" fill="url(#WhiteBlackGradient)" transform="translate(313,253.33)"/>
        <path d="M 0 0 l 0 44 s 0 6 6 6 l 35.5 0 s 6 0 6 -6 l 0 -44 z" fill-opacity="0.3" filter="url(#SaturateMinus)" transform="translate(313,253.33)"/>
        <path d="M 0 0 l 0 -60.67 s 0 -6 6 -6 l 35.5 0 s 6 0 6 6 l 0 60.67 z" transform="translate(438,253.33)"/>
        <path d="M 0 0 l 0 -60.67 s 0 -6 6 -6 l 35.5 0 s 6 0 6 6 l 0 60.67 z" fill="url(#WhiteBlackGradient)" transform="translate(438,253.33)"/>
        <path d="M 0 0 l 0 -60.67 s 0 -6 6 -6 l 35.5 0 s 6 0 6 6 l 0 60.67 z" fill-opacity="0.3" filter="url(#SaturateMinus)" transform="translate(438,253.33)"/>
        <path d="M 0 0 l 0 77.33 s 0 6 6 6 l 35.5 0 s 6 0 6 -6 l 0 -77.33 z" transform="translate(563,253.33)"/>
        <path d="M 0 0 l 0 77.33 s 0 6 6 6 l 35.5 0 s 6 0 6 -6 l 0 -77.33 z" fill="url(#WhiteBlackGradient)" transform="translate(563,253.33)"/>
        <path d="M 0 0 l 0 77.33 s 0 6 6 6 l 35.5 0 s 6 0 6 -6 l 0 -77.33 z" fill-opacity="0.3" filter="url(#SaturateMinus)" transform="translate(563,253.33)"/>
        <path d="M 0 0 l 0 -94 s 0 -6 6 -6 l 35.5 0 s 6 0 6 6 l 0 94 z" transform="translate(688,253.33)"/>
        <path d="M 0 0 l 0 -94 s 0 -6 6 -6 l 35.5 0 s 6 0 6 6 l 0 94 z" fill="url(#WhiteBlackGradient)" transform="translate(688,253.33)"/>
        <path d="M 0 0 l 0 -94 s 0 -6 6 -6 l 35.5 0 s 6 0 6 6 l 0 94 z" fill-opacity="0.3" filter="url(#SaturateMinus)" transform="translate(688,253.33)"/>
        <path d="M 0 0 l 0 110.67 s 0 6 6 6 l 35.5 0 s 6 0 6 -6 l 0 -110.67 z" transform="translate(813,253.33)"/>
        <path d="M 0 0 l 0 110.67 s 0 6 6 6 l 35.5 0 s 6 0 6 -6 l 0 -110.67 z" fill="url(#WhiteBlackGradient)" transform="translate(813,253.33)"/>
        <path d="M 0 0 l 0 110.67 s 0 6 6 6 l 35.5 0 s 6 0 6 -6 l 0 -110.67 z" fill-opacity="0.3" filter="url(#SaturateMinus)" transform="translate(813,253.33)"/>
        <path d="M 0 0 l 0 -127.33 s 0 -6 6 -6 l 35.5 0 s 6 0 6 6 l 0 127.33 z" transform="translate(938,253.33)"/>
        <path d="M 0 0 l 0 -127.33 s 0 -6 6 -6 l 35.5 0 s 6 0 6 6 l 0 127.33 z" fill="url(#WhiteBlackGradient)" transform="translate(938,253.33)"/>
        <path d="M 0 0 l 0 -127.33 s 0 -6 6 -6 l 35.5 0 s 6 0 6 6 l 0 127.33 z" fill-opacity="0.3" filter="url(#SaturateMinus)" transform="translate(938,253.33)"/>
      </g>
      <g fill="darkblue" filter="none" id="ID_graph_2" opacity="1" stroke="none" stroke-opacity="1" stroke-width="0">
        <path d="M 0 0 l 0 12.33 s 0 6 6 6 l 35.5 0 s 6 0 6 -6 l 0 -12.33 z" transform="translate(120.5,253.33)"/>
        <path d="M 0 0 l 0 12.33 s 0 6 6 6 l 35.5 0 s 6 0 6 -6 l 0 -12.33 z" fill="url(#WhiteBlackGradient)" transform="translate(120.5,253.33)"/>
        <path d="M 0 0 l 0 12.33 s 0 6 6 6 l 35.5 0 s 6 0 6 -6 l 0 -12.33 z" fill-opacity="0.3" filter="url(#SaturateMinus)" transform="translate(120.5,253.33)"/>
        <path d="M 0 0 l 0 -30.67 s 0 -6 6 -6 l 35.5 0 s 6 0 6 6 l 0 30.67 z" transform="translate(245.5,253.33)"/>
        <path d="M 0 0 l 0 -30.67 s 0 -6 6 -6 l 35.5 0 s 6 0 6 6 l 0 30.67 z" fill="url(#WhiteBlackGradient)" transform="translate(245.5,253.33)"/>
        <path d="M 0 0 l 0 -30.67 s 0 -6 6 -6 l 35.5 0 s 6 0 6 6 l 0 30.67 z" fill-opacity="0.3" filter="url(#SaturateMinus)" transform="translate(245.5,253.33)"/>
        <path d="M 0 0 l 0 49 s 0 6 6 6 l 35.5 0 s 6 0 6 -6 l 0 -49 z" transform="translate(370.5,253.33)"/>
        <path d="M 0 0 l 0 49 s 0 6 6 6 l 35.5 0 s 6 0 6 -6 l 0 -49 z" fill="url(#WhiteBlackGradient)" transform="translate(370.5,253.33)"/>
        <path d="M 0 0 l 0 49 s 0 6 6 6 l 35.5 0 s 6 0 6 -6 l 0 -49 z" fill-opacity="0.3" filter="url(#SaturateMinus)" transform="translate(370.5,253.33)"/>
        <path d="M 0 0 l 0 -67.33 s 0 -6 6 -6 l 35.5 0 s 6 0 6 6 l 0 67.33 z" transform="translate(495.5,253.33)"/>
        <path d="M 0 0 l 0 -67.33 s 0 -6 6 -6 l 35.5 0 s 6 0 6 6 l 0 67.33 z" fill="url(#WhiteBlackGradient)" transform="translate(495.5,253.33)"/>
        <path d="M 0 0 l 0 -67.33 s 0 -6 6 -6 l 35.5 0 s 6 0 6 6 l 0 67.33 z" fill-opacity="0.3" filter="url(#SaturateMinus)" transform="translate(495.5,253.33)"/>
        <path d="M 0 0 l 0 85.67 s 0 6 6 6 l 35.5 0 s 6 0 6 -6 l 0 -85.67 z" transform="translate(620.5,253.33)"/>
        <path d="M 0 0 l 0 85.67 s 0 6 6 6 l 35.5 0 s 6 0 6 -6 l 0 -85.67 z" fill="url(#WhiteBlackGradient)" transform="translate(620.5,253.33)"/>
        <path d="M 0 0 l 0 85.67 s 0 6 6 6 l 35.5 0 s 6 0 6 -6 l 0 -85.67 z" fill-opacity="0.3" filter="url(#SaturateMinus)" transform="translate(620.5,253.33)"/>
        <path d="M 0 0 l 0 -104 s 0 -6 6 -6 l 35.5 0 s 6 0 6 6 l 0 104 z" transform="translate(745.5,253.33)"/>
        <path d="M 0 0 l 0 -104 s 0 -6 6 -6 l 35.5 0 s 6 0 6 6 l 0 104 z" fill="url(#WhiteBlackGradient)" transform="translate(745.5,253.33)"/>
        <path d="M 0 0 l 0 -104 s 0 -6 6 -6 l 35.5 0 s 6 0 6 6 l 0 104 z" fill-opacity="0.3" filter="url(#SaturateMinus)" transform="translate(745.5,253.33)"/>
        <path d="M 0 0 l 0 122.33 s 0 6 6 6 l 35.5 0 s 6 0 6 -6 l 0 -122.33 z" transform="translate(870.5,253.33)"/>
        <path d="M 0 0 l 0 122.33 s 0 6 6 6 l 35.5 0 s 6 0 6 -6 l 0 -122.33 z" fill="url(#WhiteBlackGradient)" transform="translate(870.5,253.33)"/>
        <path d="M 0 0 l 0 122.33 s 0 6 6 6 l 35.5 0 s 6 0 6 -6 l 0 -122.33 z" fill-opacity="0.3" filter="url(#SaturateMinus)" transform="translate(870.5,253.33)"/>
        <path d="M 0 0 l 0 -140.67 s 0 -6 6 -6 l 35.5 0 s 6 0 6 6 l 0 140.67 z" transform="translate(995.5,253.33)"/>
        <path d="M 0 0 l 0 -140.67 s 0 -6 6 -6 l 35.5 0 s 6 0 6 6 l 0 140.67 z" fill="url(#WhiteBlackGradient)" transform="translate(995.5,253.33)"/>
        <path d="M 0 0 l 0 -140.67 s 0 -6 6 -6 l 35.5 0 s 6 0 6 6 l 0 140.67 z" fill-opacity="0.3" filter="url(#SaturateMinus)" transform="translate(995.5,253.33)"/>
      </g>
    </g>
  </g>

</svg>