<?xml version="1.0" encoding="UTF-8" standalone="no" ?><svg xmlns="http://www.w3.org/2000/svg" id="ID_svg" viewBox="0 0 1168 500" viewport-fill="white" viewport-fill-opacity="0" xmlns:exsl4D="http://www.4D.com" xmlns:math="http://exslt.org/math" xmlns:xlink="http://www.w3.org/1999/xlink"><!--gradient styles--><defs><filter id="soft_blur"><feGaussianBlur in="SourceGraphic" result="BlurAlpha" stdDeviation="1"/></filter><filter id="pastel"><feGaussianBlur in="SourceAlpha" result="blur" stdDeviation="2"/><feOffset dx="6" dy="6" in="blur" result="offsetBlur"/><feComposite in="SourceGraphic" in2="offsetBlur" operator="in" result="specOut"/></filter><filter id="blur_shadow"><feGaussianBlur in="SourceAlpha" result="blur" stdDeviation="3"/><feOffset dx="4" dy="2" in="blur" result="offsetBlur"/><feBlend in="SourceGraphic" in2="offsetBlur" mode="normal"/></filter><filter filterUnits="objectBoundingBox" id="Shadow"><feGaussianBlur in="SourceAlpha" result="flou" stdDeviation="0"/><feColorMatrix in="SourceAlpha" result="flouBlue" type="matrix" values=" 0 0 0 0 0                      0 0 0 0 0                     0 0 0 0 0                      0 0 0 0.3 0"/><feOffset dx="4" dy="4" in="flouBlue" result="flouDecalage"/><feBlend in="SourceGraphic" in2="flouDecalage" mode="normal"/></filter><filter filterUnits="objectBoundingBox" height="100%" id="SaturateMinus" width="100%" x="0%" y="0%"><feColorMatrix in="SourceGraphic" type="saturate" values="0.5"/></filter><filter filterUnits="objectBoundingBox" height="100%" id="SaturatePlus" width="100%" x="0%" y="0%"><feColorMatrix in="SourceGraphic" type="saturate" values="1.4"/></filter><linearGradient id="BlackGradient"><stop offset="0%" style="stop-color:rgb(0,0,0); stop-opacity:0"/><stop offset="100%" style="stop-color:rgb(0,0,0); stop-opacity:0.1"/></linearGradient><linearGradient id="WhiteGradient" x1="0%" x2="100%" y1="0%" y2="0%"><stop offset="0%" style="stop-color:rgb(255,255,255); stop-opacity:0.3"/><stop offset="100%" style="stop-color:rgb(255,255,255);stop-opacity:0"/></linearGradient><linearGradient id="WhiteBlackGradient" x1="0%" x2="100%" y1="0%" y2="0%"><stop offset="0%" style="stop-color:rgb(255,255,255); stop-opacity:0.15"/><stop offset="100%" style="stop-color:rgb(0,0,0);stop-opacity:0.15"/></linearGradient><linearGradient id="Black0Black1Gradient" x1="0%" x2="0%" y1="0%" y2="100%"><stop offset="0%" style="stop-color:rgb(0,0,0); stop-opacity:0"/><stop offset="100%" style="stop-color:rgb(0,0,0);stop-opacity:0.05"/></linearGradient><clipPath id="ID_graph_clip"><rect height="446" width="1120" x="38" y="22"/></clipPath></defs><!--global stroke and font styles--><g id="ID_globals" style="fill:black;stroke:none;font-family:Arial;font-size:12px;font-weight:normal;font-style:normal;text-decoration:none;shape-rendering:crispEdges"><!--draw title--><!--draw legend--><!--draw graph background--><rect fill="rgb(168,168,168)" fill-opacity="1" height="446" id="ID_background_shadow" rx="10" ry="10" stroke="none" visibility="visible" width="1120" x="39" y="23"/><g fill="rgb(229,229,229)" id="ID_background" visibility="visible"><rect height="446" rx="10" ry="10" stroke="none" width="1120" x="38" y="22"/><rect fill="url(#Black0Black1Gradient)" height="446" rx="10" ry="10" stroke="none" width="1120" x="38" y="22"/></g><clipPath id="ID_backgroundClipPath"><rect height="447" rx="10" ry="10" width="1121" x="38" y="22"/></clipPath><!--draw Y grid lines--><!--draw Y grid lines SHADOWS--><!--draw X grid lines--><!--draw X grid lines SHADOWS --><!--draw y=0 axe--><g id="ID_y0_axis" stroke="rgb(100,100,100)" stroke-width="1" visibility="visible"><line x1="38" x2="1158" y1="245" y2="245"/></g><!--draw axis x labels--><g id="ID_x_values" style="fill:black;stroke:none;font-family:Arial;font-size:12px;font-weight:normal;font-style:normal;text-decoration:none;filter:none"><text text-anchor="middle" x="111" y="486.8">PT8H0M0S</text><text text-anchor="middle" x="251" y="486.8">PT9H0M0S</text><text text-anchor="middle" x="391" y="486.8">PT10H0M0S</text><text text-anchor="middle" x="531" y="486.8">PT11H0M0S</text><text text-anchor="middle" x="671" y="486.8">PT11H15M0S</text><text text-anchor="middle" x="811" y="486.8">PT14H45M0S</text><text text-anchor="middle" x="951" y="486.8">PT15H0M0S</text><text text-anchor="middle" x="1091" y="486.8">PT16H0M0S</text></g><!--draw axis y labels--><g id="ID_y_values" style="fill:black;stroke:none;font-family:Arial;font-size:12px;font-weight:normal;font-style:normal;text-decoration:none;filter:none"><text text-anchor="end" x="28" y="472.8">-15</text><text text-anchor="end" x="28" y="398.46666666666664">-10</text><text text-anchor="end" x="28" y="324.1333333333333">-5</text><text text-anchor="end" x="28" y="249.8">0</text><text text-anchor="end" x="28" y="175.46666666666664">5</text><text text-anchor="end" x="28" y="101.13333333333331">10</text><text text-anchor="end" x="28" y="26.8">15</text></g><!--draw lines and bullets--><g filter="none" id="allGroups"><!--draw bullet for data type 1--><g fill="rgb(0,178,195)" fill-opacity="1" id="ID_graph_1" stroke="black" stroke-opacity="0" stroke-width="0"><circle cx="108" cy="259.8666666666667" fill-opacity="1" r="8"/><circle cx="108" cy="259.8666666666667" fill="url(#WhiteGradient)" r="8"/><circle cx="108" cy="259.8666666666667" fill-opacity="0.4" filter="url(#SaturateMinus)" r="8"/><circle cx="108" cy="259.8666666666667" fill="url(#BlackGradient)" r="8"/><circle cx="248" cy="215.26666666666665" fill-opacity="1" r="8"/><circle cx="248" cy="215.26666666666665" fill="url(#WhiteGradient)" r="8"/><circle cx="248" cy="215.26666666666665" fill-opacity="0.4" filter="url(#SaturateMinus)" r="8"/><circle cx="248" cy="215.26666666666665" fill="url(#BlackGradient)" r="8"/><circle cx="388" cy="289.6" fill-opacity="1" r="8"/><circle cx="388" cy="289.6" fill="url(#WhiteGradient)" r="8"/><circle cx="388" cy="289.6" fill-opacity="0.4" filter="url(#SaturateMinus)" r="8"/><circle cx="388" cy="289.6" fill="url(#BlackGradient)" r="8"/><circle cx="528" cy="185.53333333333333" fill-opacity="1" r="8"/><circle cx="528" cy="185.53333333333333" fill="url(#WhiteGradient)" r="8"/><circle cx="528" cy="185.53333333333333" fill-opacity="0.4" filter="url(#SaturateMinus)" r="8"/><circle cx="528" cy="185.53333333333333" fill="url(#BlackGradient)" r="8"/><circle cx="668" cy="319.33333333333337" fill-opacity="1" r="8"/><circle cx="668" cy="319.33333333333337" fill="url(#WhiteGradient)" r="8"/><circle cx="668" cy="319.33333333333337" fill-opacity="0.4" filter="url(#SaturateMinus)" r="8"/><circle cx="668" cy="319.33333333333337" fill="url(#BlackGradient)" r="8"/><circle cx="808" cy="155.8" fill-opacity="1" r="8"/><circle cx="808" cy="155.8" fill="url(#WhiteGradient)" r="8"/><circle cx="808" cy="155.8" fill-opacity="0.4" filter="url(#SaturateMinus)" r="8"/><circle cx="808" cy="155.8" fill="url(#BlackGradient)" r="8"/><circle cx="948" cy="349.06666666666666" fill-opacity="1" r="8"/><circle cx="948" cy="349.06666666666666" fill="url(#WhiteGradient)" r="8"/><circle cx="948" cy="349.06666666666666" fill-opacity="0.4" filter="url(#SaturateMinus)" r="8"/><circle cx="948" cy="349.06666666666666" fill="url(#BlackGradient)" r="8"/><circle cx="1088" cy="126.06666666666666" fill-opacity="1" r="8"/><circle cx="1088" cy="126.06666666666666" fill="url(#WhiteGradient)" r="8"/><circle cx="1088" cy="126.06666666666666" fill-opacity="0.4" filter="url(#SaturateMinus)" r="8"/><circle cx="1088" cy="126.06666666666666" fill="url(#BlackGradient)" r="8"/></g><!--draw bullet for data type 2--><g fill="rgb(255,195,56)" fill-opacity="1" id="ID_graph_2" stroke="black" stroke-opacity="0" stroke-width="0"><circle cx="108" cy="261.35333333333335" fill-opacity="1" r="8"/><circle cx="108" cy="261.35333333333335" fill="url(#WhiteGradient)" r="8"/><circle cx="108" cy="261.35333333333335" fill-opacity="0.4" filter="url(#SaturateMinus)" r="8"/><circle cx="108" cy="261.35333333333335" fill="url(#BlackGradient)" r="8"/><circle cx="248" cy="212.29333333333332" fill-opacity="1" r="8"/><circle cx="248" cy="212.29333333333332" fill="url(#WhiteGradient)" r="8"/><circle cx="248" cy="212.29333333333332" fill-opacity="0.4" filter="url(#SaturateMinus)" r="8"/><circle cx="248" cy="212.29333333333332" fill="url(#BlackGradient)" r="8"/><circle cx="388" cy="294.06" fill-opacity="1" r="8"/><circle cx="388" cy="294.06" fill="url(#WhiteGradient)" r="8"/><circle cx="388" cy="294.06" fill-opacity="0.4" filter="url(#SaturateMinus)" r="8"/><circle cx="388" cy="294.06" fill="url(#BlackGradient)" r="8"/><circle cx="528" cy="179.58666666666664" fill-opacity="1" r="8"/><circle cx="528" cy="179.58666666666664" fill="url(#WhiteGradient)" r="8"/><circle cx="528" cy="179.58666666666664" fill-opacity="0.4" filter="url(#SaturateMinus)" r="8"/><circle cx="528" cy="179.58666666666664" fill="url(#BlackGradient)" r="8"/><circle cx="668" cy="326.76666666666665" fill-opacity="1" r="8"/><circle cx="668" cy="326.76666666666665" fill="url(#WhiteGradient)" r="8"/><circle cx="668" cy="326.76666666666665" fill-opacity="0.4" filter="url(#SaturateMinus)" r="8"/><circle cx="668" cy="326.76666666666665" fill="url(#BlackGradient)" r="8"/><circle cx="808" cy="146.88" fill-opacity="1" r="8"/><circle cx="808" cy="146.88" fill="url(#WhiteGradient)" r="8"/><circle cx="808" cy="146.88" fill-opacity="0.4" filter="url(#SaturateMinus)" r="8"/><circle cx="808" cy="146.88" fill="url(#BlackGradient)" r="8"/><circle cx="948" cy="359.47333333333336" fill-opacity="1" r="8"/><circle cx="948" cy="359.47333333333336" fill="url(#WhiteGradient)" r="8"/><circle cx="948" cy="359.47333333333336" fill-opacity="0.4" filter="url(#SaturateMinus)" r="8"/><circle cx="948" cy="359.47333333333336" fill="url(#BlackGradient)" r="8"/><circle cx="1088" cy="114.17333333333332" fill-opacity="1" r="8"/><circle cx="1088" cy="114.17333333333332" fill="url(#WhiteGradient)" r="8"/><circle cx="1088" cy="114.17333333333332" fill-opacity="0.4" filter="url(#SaturateMinus)" r="8"/><circle cx="1088" cy="114.17333333333332" fill="url(#BlackGradient)" r="8"/></g><!--draw bullet for data type 3--><g fill="rgb(87,62,130)" fill-opacity="1" id="ID_graph_3" stroke="black" stroke-opacity="0" stroke-width="0"><circle cx="108" cy="262.9886666666667" fill-opacity="1" r="8"/><circle cx="108" cy="262.9886666666667" fill="url(#WhiteGradient)" r="8"/><circle cx="108" cy="262.9886666666667" fill-opacity="0.4" filter="url(#SaturateMinus)" r="8"/><circle cx="108" cy="262.9886666666667" fill="url(#BlackGradient)" r="8"/><circle cx="248" cy="209.02266666666668" fill-opacity="1" r="8"/><circle cx="248" cy="209.02266666666668" fill="url(#WhiteGradient)" r="8"/><circle cx="248" cy="209.02266666666668" fill-opacity="0.4" filter="url(#SaturateMinus)" r="8"/><circle cx="248" cy="209.02266666666668" fill="url(#BlackGradient)" r="8"/><circle cx="388" cy="298.966" fill-opacity="1" r="8"/><circle cx="388" cy="298.966" fill="url(#WhiteGradient)" r="8"/><circle cx="388" cy="298.966" fill-opacity="0.4" filter="url(#SaturateMinus)" r="8"/><circle cx="388" cy="298.966" fill="url(#BlackGradient)" r="8"/><circle cx="528" cy="173.04533333333333" fill-opacity="1" r="8"/><circle cx="528" cy="173.04533333333333" fill="url(#WhiteGradient)" r="8"/><circle cx="528" cy="173.04533333333333" fill-opacity="0.4" filter="url(#SaturateMinus)" r="8"/><circle cx="528" cy="173.04533333333333" fill="url(#BlackGradient)" r="8"/><circle cx="668" cy="334.9433333333333" fill-opacity="1" r="8"/><circle cx="668" cy="334.9433333333333" fill="url(#WhiteGradient)" r="8"/><circle cx="668" cy="334.9433333333333" fill-opacity="0.4" filter="url(#SaturateMinus)" r="8"/><circle cx="668" cy="334.9433333333333" fill="url(#BlackGradient)" r="8"/><circle cx="808" cy="137.06799999999998" fill-opacity="1" r="8"/><circle cx="808" cy="137.06799999999998" fill="url(#WhiteGradient)" r="8"/><circle cx="808" cy="137.06799999999998" fill-opacity="0.4" filter="url(#SaturateMinus)" r="8"/><circle cx="808" cy="137.06799999999998" fill="url(#BlackGradient)" r="8"/><circle cx="948" cy="370.92066666666665" fill-opacity="1" r="8"/><circle cx="948" cy="370.92066666666665" fill="url(#WhiteGradient)" r="8"/><circle cx="948" cy="370.92066666666665" fill-opacity="0.4" filter="url(#SaturateMinus)" r="8"/><circle cx="948" cy="370.92066666666665" fill="url(#BlackGradient)" r="8"/><circle cx="1088" cy="101.09066666666666" fill-opacity="1" r="8"/><circle cx="1088" cy="101.09066666666666" fill="url(#WhiteGradient)" r="8"/><circle cx="1088" cy="101.09066666666666" fill-opacity="0.4" filter="url(#SaturateMinus)" r="8"/><circle cx="1088" cy="101.09066666666666" fill="url(#BlackGradient)" r="8"/></g><!--draw bullet for data type 4--><g fill="rgb(79,168,57)" fill-opacity="1" id="ID_graph_4" stroke="black" stroke-opacity="0" stroke-width="0"><circle cx="108" cy="264.78753333333333" fill-opacity="1" r="8"/><circle cx="108" cy="264.78753333333333" fill="url(#WhiteGradient)" r="8"/><circle cx="108" cy="264.78753333333333" fill-opacity="0.4" filter="url(#SaturateMinus)" r="8"/><circle cx="108" cy="264.78753333333333" fill="url(#BlackGradient)" r="8"/><circle cx="248" cy="205.42493333333334" fill-opacity="1" r="8"/><circle cx="248" cy="205.42493333333334" fill="url(#WhiteGradient)" r="8"/><circle cx="248" cy="205.42493333333334" fill-opacity="0.4" filter="url(#SaturateMinus)" r="8"/><circle cx="248" cy="205.42493333333334" fill="url(#BlackGradient)" r="8"/><circle cx="388" cy="304.3626" fill-opacity="1" r="8"/><circle cx="388" cy="304.3626" fill="url(#WhiteGradient)" r="8"/><circle cx="388" cy="304.3626" fill-opacity="0.4" filter="url(#SaturateMinus)" r="8"/><circle cx="388" cy="304.3626" fill="url(#BlackGradient)" r="8"/><circle cx="528" cy="165.84986666666668" fill-opacity="1" r="8"/><circle cx="528" cy="165.84986666666668" fill="url(#WhiteGradient)" r="8"/><circle cx="528" cy="165.84986666666668" fill-opacity="0.4" filter="url(#SaturateMinus)" r="8"/><circle cx="528" cy="165.84986666666668" fill="url(#BlackGradient)" r="8"/><circle cx="668" cy="343.9376666666667" fill-opacity="1" r="8"/><circle cx="668" cy="343.9376666666667" fill="url(#WhiteGradient)" r="8"/><circle cx="668" cy="343.9376666666667" fill-opacity="0.4" filter="url(#SaturateMinus)" r="8"/><circle cx="668" cy="343.9376666666667" fill="url(#BlackGradient)" r="8"/><circle cx="808" cy="126.2748" fill-opacity="1" r="8"/><circle cx="808" cy="126.2748" fill="url(#WhiteGradient)" r="8"/><circle cx="808" cy="126.2748" fill-opacity="0.4" filter="url(#SaturateMinus)" r="8"/><circle cx="808" cy="126.2748" fill="url(#BlackGradient)" r="8"/><circle cx="948" cy="383.51273333333336" fill-opacity="1" r="8"/><circle cx="948" cy="383.51273333333336" fill="url(#WhiteGradient)" r="8"/><circle cx="948" cy="383.51273333333336" fill-opacity="0.4" filter="url(#SaturateMinus)" r="8"/><circle cx="948" cy="383.51273333333336" fill="url(#BlackGradient)" r="8"/><circle cx="1088" cy="86.69973333333334" fill-opacity="1" r="8"/><circle cx="1088" cy="86.69973333333334" fill="url(#WhiteGradient)" r="8"/><circle cx="1088" cy="86.69973333333334" fill-opacity="0.4" filter="url(#SaturateMinus)" r="8"/><circle cx="1088" cy="86.69973333333334" fill="url(#BlackGradient)" r="8"/></g><!--draw bullet for data type 5--><g fill="rgb(217,87,0)" fill-opacity="1" id="ID_graph_5" stroke="black" stroke-opacity="0" stroke-width="0"><circle cx="108" cy="266.76628666666664" fill-opacity="1" r="8"/><circle cx="108" cy="266.76628666666664" fill="url(#WhiteGradient)" r="8"/><circle cx="108" cy="266.76628666666664" fill-opacity="0.4" filter="url(#SaturateMinus)" r="8"/><circle cx="108" cy="266.76628666666664" fill="url(#BlackGradient)" r="8"/><circle cx="248" cy="201.46742666666665" fill-opacity="1" r="8"/><circle cx="248" cy="201.46742666666665" fill="url(#WhiteGradient)" r="8"/><circle cx="248" cy="201.46742666666665" fill-opacity="0.4" filter="url(#SaturateMinus)" r="8"/><circle cx="248" cy="201.46742666666665" fill="url(#BlackGradient)" r="8"/><circle cx="388" cy="310.29886" fill-opacity="1" r="8"/><circle cx="388" cy="310.29886" fill="url(#WhiteGradient)" r="8"/><circle cx="388" cy="310.29886" fill-opacity="0.4" filter="url(#SaturateMinus)" r="8"/><circle cx="388" cy="310.29886" fill="url(#BlackGradient)" r="8"/><circle cx="528" cy="157.93485333333334" fill-opacity="1" r="8"/><circle cx="528" cy="157.93485333333334" fill="url(#WhiteGradient)" r="8"/><circle cx="528" cy="157.93485333333334" fill-opacity="0.4" filter="url(#SaturateMinus)" r="8"/><circle cx="528" cy="157.93485333333334" fill="url(#BlackGradient)" r="8"/><circle cx="668" cy="353.83143333333334" fill-opacity="1" r="8"/><circle cx="668" cy="353.83143333333334" fill="url(#WhiteGradient)" r="8"/><circle cx="668" cy="353.83143333333334" fill-opacity="0.4" filter="url(#SaturateMinus)" r="8"/><circle cx="668" cy="353.83143333333334" fill="url(#BlackGradient)" r="8"/><circle cx="808" cy="114.40228000000002" fill-opacity="1" r="8"/><circle cx="808" cy="114.40228000000002" fill="url(#WhiteGradient)" r="8"/><circle cx="808" cy="114.40228000000002" fill-opacity="0.4" filter="url(#SaturateMinus)" r="8"/><circle cx="808" cy="114.40228000000002" fill="url(#BlackGradient)" r="8"/><circle cx="948" cy="397.3640066666667" fill-opacity="1" r="8"/><circle cx="948" cy="397.3640066666667" fill="url(#WhiteGradient)" r="8"/><circle cx="948" cy="397.3640066666667" fill-opacity="0.4" filter="url(#SaturateMinus)" r="8"/><circle cx="948" cy="397.3640066666667" fill="url(#BlackGradient)" r="8"/><circle cx="1088" cy="70.86970666666667" fill-opacity="1" r="8"/><circle cx="1088" cy="70.86970666666667" fill="url(#WhiteGradient)" r="8"/><circle cx="1088" cy="70.86970666666667" fill-opacity="0.4" filter="url(#SaturateMinus)" r="8"/><circle cx="1088" cy="70.86970666666667" fill="url(#BlackGradient)" r="8"/></g><!--draw bullet for data type 6--><g fill="rgb(29,157,242)" fill-opacity="1" id="ID_graph_6" stroke="black" stroke-opacity="0" stroke-width="0"><circle cx="108" cy="268.94291533333336" fill-opacity="1" r="8"/><circle cx="108" cy="268.94291533333336" fill="url(#WhiteGradient)" r="8"/><circle cx="108" cy="268.94291533333336" fill-opacity="0.4" filter="url(#SaturateMinus)" r="8"/><circle cx="108" cy="268.94291533333336" fill="url(#BlackGradient)" r="8"/><circle cx="248" cy="197.11416933333334" fill-opacity="1" r="8"/><circle cx="248" cy="197.11416933333334" fill="url(#WhiteGradient)" r="8"/><circle cx="248" cy="197.11416933333334" fill-opacity="0.4" filter="url(#SaturateMinus)" r="8"/><circle cx="248" cy="197.11416933333334" fill="url(#BlackGradient)" r="8"/><circle cx="388" cy="316.828746" fill-opacity="1" r="8"/><circle cx="388" cy="316.828746" fill="url(#WhiteGradient)" r="8"/><circle cx="388" cy="316.828746" fill-opacity="0.4" filter="url(#SaturateMinus)" r="8"/><circle cx="388" cy="316.828746" fill="url(#BlackGradient)" r="8"/><circle cx="528" cy="149.22833866666667" fill-opacity="1" r="8"/><circle cx="528" cy="149.22833866666667" fill="url(#WhiteGradient)" r="8"/><circle cx="528" cy="149.22833866666667" fill-opacity="0.4" filter="url(#SaturateMinus)" r="8"/><circle cx="528" cy="149.22833866666667" fill="url(#BlackGradient)" r="8"/><circle cx="668" cy="364.7145766666667" fill-opacity="1" r="8"/><circle cx="668" cy="364.7145766666667" fill="url(#WhiteGradient)" r="8"/><circle cx="668" cy="364.7145766666667" fill-opacity="0.4" filter="url(#SaturateMinus)" r="8"/><circle cx="668" cy="364.7145766666667" fill="url(#BlackGradient)" r="8"/><circle cx="808" cy="101.34250800000001" fill-opacity="1" r="8"/><circle cx="808" cy="101.34250800000001" fill="url(#WhiteGradient)" r="8"/><circle cx="808" cy="101.34250800000001" fill-opacity="0.4" filter="url(#SaturateMinus)" r="8"/><circle cx="808" cy="101.34250800000001" fill="url(#BlackGradient)" r="8"/><circle cx="948" cy="412.60040733333335" fill-opacity="1" r="8"/><circle cx="948" cy="412.60040733333335" fill="url(#WhiteGradient)" r="8"/><circle cx="948" cy="412.60040733333335" fill-opacity="0.4" filter="url(#SaturateMinus)" r="8"/><circle cx="948" cy="412.60040733333335" fill="url(#BlackGradient)" r="8"/><circle cx="1088" cy="53.45667733333332" fill-opacity="1" r="8"/><circle cx="1088" cy="53.45667733333332" fill="url(#WhiteGradient)" r="8"/><circle cx="1088" cy="53.45667733333332" fill-opacity="0.4" filter="url(#SaturateMinus)" r="8"/><circle cx="1088" cy="53.45667733333332" fill="url(#BlackGradient)" r="8"/></g><!--draw bullet for data type 7--><g fill="rgb(181,207,50)" fill-opacity="1" id="ID_graph_7" stroke="black" stroke-opacity="0" stroke-width="0"><circle cx="108" cy="271.3372068666667" fill-opacity="1" r="8"/><circle cx="108" cy="271.3372068666667" fill="url(#WhiteGradient)" r="8"/><circle cx="108" cy="271.3372068666667" fill-opacity="0.4" filter="url(#SaturateMinus)" r="8"/><circle cx="108" cy="271.3372068666667" fill="url(#BlackGradient)" r="8"/><circle cx="248" cy="192.32558626666668" fill-opacity="1" r="8"/><circle cx="248" cy="192.32558626666668" fill="url(#WhiteGradient)" r="8"/><circle cx="248" cy="192.32558626666668" fill-opacity="0.4" filter="url(#SaturateMinus)" r="8"/><circle cx="248" cy="192.32558626666668" fill="url(#BlackGradient)" r="8"/><circle cx="388" cy="324.0116206" fill-opacity="1" r="8"/><circle cx="388" cy="324.0116206" fill="url(#WhiteGradient)" r="8"/><circle cx="388" cy="324.0116206" fill-opacity="0.4" filter="url(#SaturateMinus)" r="8"/><circle cx="388" cy="324.0116206" fill="url(#BlackGradient)" r="8"/><circle cx="528" cy="139.65117253333335" fill-opacity="1" r="8"/><circle cx="528" cy="139.65117253333335" fill="url(#WhiteGradient)" r="8"/><circle cx="528" cy="139.65117253333335" fill-opacity="0.4" filter="url(#SaturateMinus)" r="8"/><circle cx="528" cy="139.65117253333335" fill="url(#BlackGradient)" r="8"/><circle cx="668" cy="376.68603433333334" fill-opacity="1" r="8"/><circle cx="668" cy="376.68603433333334" fill="url(#WhiteGradient)" r="8"/><circle cx="668" cy="376.68603433333334" fill-opacity="0.4" filter="url(#SaturateMinus)" r="8"/><circle cx="668" cy="376.68603433333334" fill="url(#BlackGradient)" r="8"/><circle cx="808" cy="86.9767588" fill-opacity="1" r="8"/><circle cx="808" cy="86.9767588" fill="url(#WhiteGradient)" r="8"/><circle cx="808" cy="86.9767588" fill-opacity="0.4" filter="url(#SaturateMinus)" r="8"/><circle cx="808" cy="86.9767588" fill="url(#BlackGradient)" r="8"/><circle cx="948" cy="429.36044806666666" fill-opacity="1" r="8"/><circle cx="948" cy="429.36044806666666" fill="url(#WhiteGradient)" r="8"/><circle cx="948" cy="429.36044806666666" fill-opacity="0.4" filter="url(#SaturateMinus)" r="8"/><circle cx="948" cy="429.36044806666666" fill="url(#BlackGradient)" r="8"/><circle cx="1088" cy="34.302345066666675" fill-opacity="1" r="8"/><circle cx="1088" cy="34.302345066666675" fill="url(#WhiteGradient)" r="8"/><circle cx="1088" cy="34.302345066666675" fill-opacity="0.4" filter="url(#SaturateMinus)" r="8"/><circle cx="1088" cy="34.302345066666675" fill="url(#BlackGradient)" r="8"/></g></g></g></svg>