<?xml version="1.0" encoding="UTF-8" standalone="no" ?><svg xmlns="http://www.w3.org/2000/svg" id="ID_svg" viewBox="0 0 1168 500" viewport-fill="white" viewport-fill-opacity="0" xmlns:exsl4D="http://www.4D.com" xmlns:math="http://exslt.org/math" xmlns:xlink="http://www.w3.org/1999/xlink"><!--gradient styles--><defs><filter id="soft_blur"><feGaussianBlur in="SourceGraphic" result="BlurAlpha" stdDeviation="1"/></filter><filter id="pastel"><feGaussianBlur in="SourceAlpha" result="blur" stdDeviation="2"/><feOffset dx="6" dy="6" in="blur" result="offsetBlur"/><feComposite in="SourceGraphic" in2="offsetBlur" operator="in" result="specOut"/></filter><filter id="blur_shadow"><feGaussianBlur in="SourceAlpha" result="blur" stdDeviation="3"/><feOffset dx="4" dy="2" in="blur" result="offsetBlur"/><feBlend in="SourceGraphic" in2="offsetBlur" mode="normal"/></filter><filter filterUnits="objectBoundingBox" id="Shadow"><feGaussianBlur in="SourceAlpha" result="flou" stdDeviation="0"/><feColorMatrix in="SourceAlpha" result="flouBlue" type="matrix" values=" 0 0 0 0 0                      0 0 0 0 0                     0 0 0 0 0                      0 0 0 0.3 0"/><feOffset dx="4" dy="4" in="flouBlue" result="flouDecalage"/><feBlend in="SourceGraphic" in2="flouDecalage" mode="normal"/></filter><filter filterUnits="objectBoundingBox" height="100%" id="SaturateMinus" width="100%" x="0%" y="0%"><feColorMatrix in="SourceGraphic" type="saturate" values="0.5"/></filter><filter filterUnits="objectBoundingBox" height="100%" id="SaturatePlus" width="100%" x="0%" y="0%"><feColorMatrix in="SourceGraphic" type="saturate" values="1.4"/></filter><linearGradient id="BlackGradient"><stop offset="0%" style="stop-color:rgb(0,0,0); stop-opacity:0"/><stop offset="100%" style="stop-color:rgb(0,0,0); stop-opacity:0.1"/></linearGradient><linearGradient id="WhiteGradient" x1="0%" x2="100%" y1="0%" y2="0%"><stop offset="0%" style="stop-color:rgb(255,255,255); stop-opacity:0.3"/><stop offset="100%" style="stop-color:rgb(255,255,255);stop-opacity:0"/></linearGradient><linearGradient id="WhiteBlackGradient" x1="0%" x2="100%" y1="0%" y2="0%"><stop offset="0%" style="stop-color:rgb(255,255,255); stop-opacity:0.15"/><stop offset="100%" style="stop-color:rgb(0,0,0);stop-opacity:0.15"/></linearGradient><linearGradient id="Black0Black1Gradient" x1="0%" x2="0%" y1="0%" y2="100%"><stop offset="0%" style="stop-color:rgb(0,0,0); stop-opacity:0"/><stop offset="100%" style="stop-color:rgb(0,0,0);stop-opacity:0.05"/></linearGradient></defs><!--global stroke and font styles--><g id="ID_globals" style="fill:black;stroke:none;font-family:Arial;font-size:12px;font-weight:normal;font-style:normal;text-decoration:none;shape-rendering:crispEdges"><!--draw title--><!--draw legend--><!--draw graph background--><rect fill="rgb(168,168,168)" fill-opacity="1" height="446" id="ID_background_shadow" rx="10" ry="10" stroke="none" visibility="visible" width="1120" x="39" y="23"/><g fill="rgb(229,229,229)" id="ID_background" visibility="visible"><rect height="446" rx="10" ry="10" stroke="none" width="1120" x="38" y="22"/><rect fill="url(#Black0Black1Gradient)" height="446" rx="10" ry="10" stroke="none" width="1120" x="38" y="22"/></g><clipPath id="ID_backgroundClipPath"><rect height="447" rx="10" ry="10" width="1121" x="38" y="22"/></clipPath><!--draw Y grid lines--><!--draw Y grid lines SHADOWS--><!--draw X grid lines--><!--draw X grid lines SHADOWS --><!--draw y=0 axe--><g id="ID_y0_axis" stroke="rgb(100,100,100)" stroke-width="1" visibility="visible"><line x1="38" x2="1158" y1="262.1538461538462" y2="262.1538461538462"/></g><!--draw axis x labels--><g id="ID_x_values" style="fill:black;stroke:none;font-family:Arial;font-size:12px;font-weight:normal;font-style:normal;text-decoration:none;filter:none"><text text-anchor="middle" x="111" y="486.8">PT8H0M0S</text><text text-anchor="middle" x="251" y="486.8">PT9H0M0S</text><text text-anchor="middle" x="391" y="486.8">PT10H0M0S</text><text text-anchor="middle" x="531" y="486.8">PT11H0M0S</text><text text-anchor="middle" x="671" y="486.8">PT11H15M0S</text><text text-anchor="middle" x="811" y="486.8">PT14H45M0S</text><text text-anchor="middle" x="951" y="486.8">PT15H0M0S</text><text text-anchor="middle" x="1091" y="486.8">PT16H0M0S</text></g><!--draw axis y labels--><g id="ID_y_values" style="fill:black;stroke:none;font-family:Arial;font-size:12px;font-weight:normal;font-style:normal;text-decoration:none;filter:none"><text text-anchor="end" x="28" y="472.8">-60</text><text text-anchor="end" x="28" y="438.4923076923077">-50</text><text text-anchor="end" x="28" y="404.18461538461537">-40</text><text text-anchor="end" x="28" y="369.8769230769231">-30</text><text text-anchor="end" x="28" y="335.5692307692308">-20</text><text text-anchor="end" x="28" y="301.26153846153846">-10</text><text text-anchor="end" x="28" y="266.9538461538462">0</text><text text-anchor="end" x="28" y="232.64615384615388">10</text><text text-anchor="end" x="28" y="198.33846153846156">20</text><text text-anchor="end" x="28" y="164.03076923076924">30</text><text text-anchor="end" x="28" y="129.72307692307697">40</text><text text-anchor="end" x="28" y="95.41538461538464">50</text><text text-anchor="end" x="28" y="61.10769230769232">60</text><text text-anchor="end" x="28" y="26.8">70</text></g><!--draw bars SHADOWS--><g clip-path="url(#ID_BackgroundClipPath)" filter="none" id="allGroups" shape-rendering="auto"><!--              draw bars shadows for data type 1--><g fill="black" fill-opacity="0.2" id="ID_graph_shadow_1"><rect height="3.430769230769215" rx="0" ry="0" width="100" x="61" y="262.1538461538462"/><rect height="6.8615384615384585" rx="0" ry="0" width="100" x="201" y="255.29230769230773"/><rect height="10.292307692307702" rx="0" ry="0" width="100" x="341" y="262.1538461538462"/><rect height="13.723076923076917" rx="0" ry="0" width="100" x="481" y="248.43076923076927"/><rect height="17.153846153846132" rx="0" ry="0" width="100" x="621" y="262.1538461538462"/><rect height="20.584615384615375" rx="0" ry="0" width="100" x="761" y="241.5692307692308"/><rect height="24.01538461538462" rx="0" ry="0" width="100" x="901" y="262.1538461538462"/><rect height="27.446153846153834" rx="0" ry="0" width="100" x="1041" y="234.70769230769235"/></g><!--              draw bars shadows for data type 2--><g fill="black" fill-opacity="0.2" id="ID_graph_shadow_2"><rect height="3.7738461538461365" rx="0" ry="0" width="100" x="61" y="265.58461538461546"/><rect height="7.5476923076923015" rx="0" ry="0" width="100" x="201" y="247.74461538461543"/><rect height="11.321538461538466" rx="0" ry="0" width="100" x="341" y="272.4461538461539"/><rect height="15.095384615384603" rx="0" ry="0" width="100" x="481" y="233.33538461538464"/><rect height="18.86923076923074" rx="0" ry="0" width="100" x="621" y="279.3076923076924"/><rect height="22.643076923076933" rx="0" ry="0" width="100" x="761" y="218.92615384615388"/><rect height="26.41692307692307" rx="0" ry="0" width="100" x="901" y="286.1692307692308"/><rect height="30.190769230769234" rx="0" ry="0" width="100" x="1041" y="204.51692307692312"/></g><!--              draw bars shadows for data type 3--><g fill="black" fill-opacity="0.2" id="ID_graph_shadow_3"><rect height="4.151230769230779" rx="0" ry="0" width="100" x="61" y="269.35846153846154"/><rect height="8.302461538461529" rx="0" ry="0" width="100" x="201" y="239.44215384615387"/><rect height="12.453692307692336" rx="0" ry="0" width="100" x="341" y="283.7676923076923"/><rect height="16.604923076923086" rx="0" ry="0" width="100" x="481" y="216.73046153846158"/><rect height="20.756153846153836" rx="0" ry="0" width="100" x="621" y="298.1769230769231"/><rect height="24.907384615384615" rx="0" ry="0" width="100" x="761" y="194.01876923076927"/><rect height="29.058615384615393" rx="0" ry="0" width="100" x="901" y="312.5861538461539"/><rect height="33.209846153846144" rx="0" ry="0" width="100" x="1041" y="171.30707692307698"/></g><!--              draw bars shadows for data type 4--><g fill="black" fill-opacity="0.2" id="ID_graph_shadow_4"><rect height="4.566353846153845" rx="0" ry="0" width="100" x="61" y="273.5096923076923"/><rect height="9.13270769230769" rx="0" ry="0" width="100" x="201" y="230.30944615384618"/><rect height="13.699061538461535" rx="0" ry="0" width="100" x="341" y="296.22138461538464"/><rect height="18.26541538461538" rx="0" ry="0" width="100" x="481" y="198.4650461538462"/><rect height="22.831769230769225" rx="0" ry="0" width="100" x="621" y="318.93307692307695"/><rect height="27.39812307692307" rx="0" ry="0" width="100" x="761" y="166.6206461538462"/><rect height="31.964476923076916" rx="0" ry="0" width="100" x="901" y="341.64476923076927"/><rect height="36.53083076923076" rx="0" ry="0" width="100" x="1041" y="134.77624615384622"/></g><!--              draw bars shadows for data type 5--><g fill="black" fill-opacity="0.2" id="ID_graph_shadow_5"><rect height="5.0229892307692126" rx="0" ry="0" width="100" x="61" y="278.0760461538462"/><rect height="10.045978461538454" rx="0" ry="0" width="100" x="201" y="220.26346769230773"/><rect height="15.068967692307695" rx="0" ry="0" width="100" x="341" y="309.92044615384617"/><rect height="20.091956923076907" rx="0" ry="0" width="100" x="481" y="178.37308923076927"/><rect height="25.114946153846176" rx="0" ry="0" width="100" x="621" y="341.7648461538462"/><rect height="30.13793538461539" rx="0" ry="0" width="100" x="761" y="136.4827107692308"/><rect height="35.1609246153846" rx="0" ry="0" width="100" x="901" y="373.6092461538462"/><rect height="40.18391384615384" rx="0" ry="0" width="100" x="1041" y="94.59233230769235"/></g><!--              draw bars shadows for data type 6--><g fill="black" fill-opacity="0.2" id="ID_graph_shadow_6"><path d="   M 61 283.09903538461543   l 100 0   l 0 0   s 0 5.525288153846134 -5.525288153846134 5.525288153846134    l -88.94942369230773 0   s -5.525288153846134 0 -5.525288153846134 -5.525288153846134   l 0 0   z"/><path d="   M 201 219.21289138461543   s 0 -10 10 -10   l 80 0   s 10 0 10 10   l 0 1.050576307692296    l -100 0    l 0 -1.050576307692296   z"/><path d="   M 341 324.98941384615387   l 100 0   l 0 6.575864461538458   s 0 10 -10 10    l -80 0   s -10 0 -10 -10   l 0 -6.575864461538458   z"/><path d="   M 481 166.27193661538467   s 0 -10 10 -10   l 80 0   s 10 0 10 10   l 0 12.10115261538462    l -100 0    l 0 -12.10115261538462   z"/><path d="   M 621 366.8797923076923   l 100 0   l 0 17.626440769230783   s 0 10 -10 10    l -80 0   s -10 0 -10 -10   l 0 -17.626440769230783   z"/><path d="   M 761 113.33098184615389   s 0 -10 10 -10   l 80 0   s 10 0 10 10   l 0 23.151728923076917    l -100 0    l 0 -23.151728923076917   z"/><path d="   M 901 408.7701707692308   l 100 0   l 0 28.67701707692305   s 0 10 -10 10    l -80 0   s -10 0 -10 -10   l 0 -28.67701707692305   z"/><path d="   M 1041 60.39002707692313   s 0 -10 10 -10   l 80 0   s 10 0 10 10   l 0 34.20230523076924    l -100 0    l 0 -34.20230523076924   z"/></g></g><!--draw bars--><g filter="none" id="allGroups" shape-rendering="auto"><!--              draw bars for data type 1--><g fill="rgb(0,178,195)" fill-opacity="1" id="ID_graph_1" stroke="black" stroke-opacity="0" stroke-width="0"><rect height="3.430769230769215" rx="0" ry="0" width="100" x="58" y="262.1538461538462"/><rect fill="url(#WhiteBlackGradient)" height="3.430769230769215" rx="0" ry="0" width="100" x="58" y="262.1538461538462"/><rect fill-opacity="0.3" filter="url(#SaturateMinus)" height="3.430769230769215" rx="0" ry="0" width="100" x="58" y="262.1538461538462"/><rect height="6.8615384615384585" rx="0" ry="0" width="100" x="198" y="255.29230769230773"/><rect fill="url(#WhiteBlackGradient)" height="6.8615384615384585" rx="0" ry="0" width="100" x="198" y="255.29230769230773"/><rect fill-opacity="0.3" filter="url(#SaturateMinus)" height="6.8615384615384585" rx="0" ry="0" width="100" x="198" y="255.29230769230773"/><rect height="10.292307692307702" rx="0" ry="0" width="100" x="338" y="262.1538461538462"/><rect fill="url(#WhiteBlackGradient)" height="10.292307692307702" rx="0" ry="0" width="100" x="338" y="262.1538461538462"/><rect fill-opacity="0.3" filter="url(#SaturateMinus)" height="10.292307692307702" rx="0" ry="0" width="100" x="338" y="262.1538461538462"/><rect height="13.723076923076917" rx="0" ry="0" width="100" x="478" y="248.43076923076927"/><rect fill="url(#WhiteBlackGradient)" height="13.723076923076917" rx="0" ry="0" width="100" x="478" y="248.43076923076927"/><rect fill-opacity="0.3" filter="url(#SaturateMinus)" height="13.723076923076917" rx="0" ry="0" width="100" x="478" y="248.43076923076927"/><rect height="17.153846153846132" rx="0" ry="0" width="100" x="618" y="262.1538461538462"/><rect fill="url(#WhiteBlackGradient)" height="17.153846153846132" rx="0" ry="0" width="100" x="618" y="262.1538461538462"/><rect fill-opacity="0.3" filter="url(#SaturateMinus)" height="17.153846153846132" rx="0" ry="0" width="100" x="618" y="262.1538461538462"/><rect height="20.584615384615375" rx="0" ry="0" width="100" x="758" y="241.5692307692308"/><rect fill="url(#WhiteBlackGradient)" height="20.584615384615375" rx="0" ry="0" width="100" x="758" y="241.5692307692308"/><rect fill-opacity="0.3" filter="url(#SaturateMinus)" height="20.584615384615375" rx="0" ry="0" width="100" x="758" y="241.5692307692308"/><rect height="24.01538461538462" rx="0" ry="0" width="100" x="898" y="262.1538461538462"/><rect fill="url(#WhiteBlackGradient)" height="24.01538461538462" rx="0" ry="0" width="100" x="898" y="262.1538461538462"/><rect fill-opacity="0.3" filter="url(#SaturateMinus)" height="24.01538461538462" rx="0" ry="0" width="100" x="898" y="262.1538461538462"/><rect height="27.446153846153834" rx="0" ry="0" width="100" x="1038" y="234.70769230769235"/><rect fill="url(#WhiteBlackGradient)" height="27.446153846153834" rx="0" ry="0" width="100" x="1038" y="234.70769230769235"/><rect fill-opacity="0.3" filter="url(#SaturateMinus)" height="27.446153846153834" rx="0" ry="0" width="100" x="1038" y="234.70769230769235"/></g><!--              draw bars for data type 2--><g fill="rgb(255,195,56)" fill-opacity="1" id="ID_graph_2" stroke="black" stroke-opacity="0" stroke-width="0"><rect height="3.7738461538461365" rx="0" ry="0" width="100" x="58" y="265.58461538461546"/><rect fill="url(#WhiteBlackGradient)" height="3.7738461538461365" rx="0" ry="0" width="100" x="58" y="265.58461538461546"/><rect fill-opacity="0.3" filter="url(#SaturateMinus)" height="3.7738461538461365" rx="0" ry="0" width="100" x="58" y="265.58461538461546"/><rect height="7.5476923076923015" rx="0" ry="0" width="100" x="198" y="247.74461538461543"/><rect fill="url(#WhiteBlackGradient)" height="7.5476923076923015" rx="0" ry="0" width="100" x="198" y="247.74461538461543"/><rect fill-opacity="0.3" filter="url(#SaturateMinus)" height="7.5476923076923015" rx="0" ry="0" width="100" x="198" y="247.74461538461543"/><rect height="11.321538461538466" rx="0" ry="0" width="100" x="338" y="272.4461538461539"/><rect fill="url(#WhiteBlackGradient)" height="11.321538461538466" rx="0" ry="0" width="100" x="338" y="272.4461538461539"/><rect fill-opacity="0.3" filter="url(#SaturateMinus)" height="11.321538461538466" rx="0" ry="0" width="100" x="338" y="272.4461538461539"/><rect height="15.095384615384603" rx="0" ry="0" width="100" x="478" y="233.33538461538464"/><rect fill="url(#WhiteBlackGradient)" height="15.095384615384603" rx="0" ry="0" width="100" x="478" y="233.33538461538464"/><rect fill-opacity="0.3" filter="url(#SaturateMinus)" height="15.095384615384603" rx="0" ry="0" width="100" x="478" y="233.33538461538464"/><rect height="18.86923076923074" rx="0" ry="0" width="100" x="618" y="279.3076923076924"/><rect fill="url(#WhiteBlackGradient)" height="18.86923076923074" rx="0" ry="0" width="100" x="618" y="279.3076923076924"/><rect fill-opacity="0.3" filter="url(#SaturateMinus)" height="18.86923076923074" rx="0" ry="0" width="100" x="618" y="279.3076923076924"/><rect height="22.643076923076933" rx="0" ry="0" width="100" x="758" y="218.92615384615388"/><rect fill="url(#WhiteBlackGradient)" height="22.643076923076933" rx="0" ry="0" width="100" x="758" y="218.92615384615388"/><rect fill-opacity="0.3" filter="url(#SaturateMinus)" height="22.643076923076933" rx="0" ry="0" width="100" x="758" y="218.92615384615388"/><rect height="26.41692307692307" rx="0" ry="0" width="100" x="898" y="286.1692307692308"/><rect fill="url(#WhiteBlackGradient)" height="26.41692307692307" rx="0" ry="0" width="100" x="898" y="286.1692307692308"/><rect fill-opacity="0.3" filter="url(#SaturateMinus)" height="26.41692307692307" rx="0" ry="0" width="100" x="898" y="286.1692307692308"/><rect height="30.190769230769234" rx="0" ry="0" width="100" x="1038" y="204.51692307692312"/><rect fill="url(#WhiteBlackGradient)" height="30.190769230769234" rx="0" ry="0" width="100" x="1038" y="204.51692307692312"/><rect fill-opacity="0.3" filter="url(#SaturateMinus)" height="30.190769230769234" rx="0" ry="0" width="100" x="1038" y="204.51692307692312"/></g><!--              draw bars for data type 3--><g fill="rgb(87,62,130)" fill-opacity="1" id="ID_graph_3" stroke="black" stroke-opacity="0" stroke-width="0"><rect height="4.151230769230779" rx="0" ry="0" width="100" x="58" y="269.35846153846154"/><rect fill="url(#WhiteBlackGradient)" height="4.151230769230779" rx="0" ry="0" width="100" x="58" y="269.35846153846154"/><rect fill-opacity="0.3" filter="url(#SaturateMinus)" height="4.151230769230779" rx="0" ry="0" width="100" x="58" y="269.35846153846154"/><rect height="8.302461538461529" rx="0" ry="0" width="100" x="198" y="239.44215384615387"/><rect fill="url(#WhiteBlackGradient)" height="8.302461538461529" rx="0" ry="0" width="100" x="198" y="239.44215384615387"/><rect fill-opacity="0.3" filter="url(#SaturateMinus)" height="8.302461538461529" rx="0" ry="0" width="100" x="198" y="239.44215384615387"/><rect height="12.453692307692336" rx="0" ry="0" width="100" x="338" y="283.7676923076923"/><rect fill="url(#WhiteBlackGradient)" height="12.453692307692336" rx="0" ry="0" width="100" x="338" y="283.7676923076923"/><rect fill-opacity="0.3" filter="url(#SaturateMinus)" height="12.453692307692336" rx="0" ry="0" width="100" x="338" y="283.7676923076923"/><rect height="16.604923076923086" rx="0" ry="0" width="100" x="478" y="216.73046153846158"/><rect fill="url(#WhiteBlackGradient)" height="16.604923076923086" rx="0" ry="0" width="100" x="478" y="216.73046153846158"/><rect fill-opacity="0.3" filter="url(#SaturateMinus)" height="16.604923076923086" rx="0" ry="0" width="100" x="478" y="216.73046153846158"/><rect height="20.756153846153836" rx="0" ry="0" width="100" x="618" y="298.1769230769231"/><rect fill="url(#WhiteBlackGradient)" height="20.756153846153836" rx="0" ry="0" width="100" x="618" y="298.1769230769231"/><rect fill-opacity="0.3" filter="url(#SaturateMinus)" height="20.756153846153836" rx="0" ry="0" width="100" x="618" y="298.1769230769231"/><rect height="24.907384615384615" rx="0" ry="0" width="100" x="758" y="194.01876923076927"/><rect fill="url(#WhiteBlackGradient)" height="24.907384615384615" rx="0" ry="0" width="100" x="758" y="194.01876923076927"/><rect fill-opacity="0.3" filter="url(#SaturateMinus)" height="24.907384615384615" rx="0" ry="0" width="100" x="758" y="194.01876923076927"/><rect height="29.058615384615393" rx="0" ry="0" width="100" x="898" y="312.5861538461539"/><rect fill="url(#WhiteBlackGradient)" height="29.058615384615393" rx="0" ry="0" width="100" x="898" y="312.5861538461539"/><rect fill-opacity="0.3" filter="url(#SaturateMinus)" height="29.058615384615393" rx="0" ry="0" width="100" x="898" y="312.5861538461539"/><rect height="33.209846153846144" rx="0" ry="0" width="100" x="1038" y="171.30707692307698"/><rect fill="url(#WhiteBlackGradient)" height="33.209846153846144" rx="0" ry="0" width="100" x="1038" y="171.30707692307698"/><rect fill-opacity="0.3" filter="url(#SaturateMinus)" height="33.209846153846144" rx="0" ry="0" width="100" x="1038" y="171.30707692307698"/></g><!--              draw bars for data type 4--><g fill="rgb(79,168,57)" fill-opacity="1" id="ID_graph_4" stroke="black" stroke-opacity="0" stroke-width="0"><rect height="4.566353846153845" rx="0" ry="0" width="100" x="58" y="273.5096923076923"/><rect fill="url(#WhiteBlackGradient)" height="4.566353846153845" rx="0" ry="0" width="100" x="58" y="273.5096923076923"/><rect fill-opacity="0.3" filter="url(#SaturateMinus)" height="4.566353846153845" rx="0" ry="0" width="100" x="58" y="273.5096923076923"/><rect height="9.13270769230769" rx="0" ry="0" width="100" x="198" y="230.30944615384618"/><rect fill="url(#WhiteBlackGradient)" height="9.13270769230769" rx="0" ry="0" width="100" x="198" y="230.30944615384618"/><rect fill-opacity="0.3" filter="url(#SaturateMinus)" height="9.13270769230769" rx="0" ry="0" width="100" x="198" y="230.30944615384618"/><rect height="13.699061538461535" rx="0" ry="0" width="100" x="338" y="296.22138461538464"/><rect fill="url(#WhiteBlackGradient)" height="13.699061538461535" rx="0" ry="0" width="100" x="338" y="296.22138461538464"/><rect fill-opacity="0.3" filter="url(#SaturateMinus)" height="13.699061538461535" rx="0" ry="0" width="100" x="338" y="296.22138461538464"/><rect height="18.26541538461538" rx="0" ry="0" width="100" x="478" y="198.4650461538462"/><rect fill="url(#WhiteBlackGradient)" height="18.26541538461538" rx="0" ry="0" width="100" x="478" y="198.4650461538462"/><rect fill-opacity="0.3" filter="url(#SaturateMinus)" height="18.26541538461538" rx="0" ry="0" width="100" x="478" y="198.4650461538462"/><rect height="22.831769230769225" rx="0" ry="0" width="100" x="618" y="318.93307692307695"/><rect fill="url(#WhiteBlackGradient)" height="22.831769230769225" rx="0" ry="0" width="100" x="618" y="318.93307692307695"/><rect fill-opacity="0.3" filter="url(#SaturateMinus)" height="22.831769230769225" rx="0" ry="0" width="100" x="618" y="318.93307692307695"/><rect height="27.39812307692307" rx="0" ry="0" width="100" x="758" y="166.6206461538462"/><rect fill="url(#WhiteBlackGradient)" height="27.39812307692307" rx="0" ry="0" width="100" x="758" y="166.6206461538462"/><rect fill-opacity="0.3" filter="url(#SaturateMinus)" height="27.39812307692307" rx="0" ry="0" width="100" x="758" y="166.6206461538462"/><rect height="31.964476923076916" rx="0" ry="0" width="100" x="898" y="341.64476923076927"/><rect fill="url(#WhiteBlackGradient)" height="31.964476923076916" rx="0" ry="0" width="100" x="898" y="341.64476923076927"/><rect fill-opacity="0.3" filter="url(#SaturateMinus)" height="31.964476923076916" rx="0" ry="0" width="100" x="898" y="341.64476923076927"/><rect height="36.53083076923076" rx="0" ry="0" width="100" x="1038" y="134.77624615384622"/><rect fill="url(#WhiteBlackGradient)" height="36.53083076923076" rx="0" ry="0" width="100" x="1038" y="134.77624615384622"/><rect fill-opacity="0.3" filter="url(#SaturateMinus)" height="36.53083076923076" rx="0" ry="0" width="100" x="1038" y="134.77624615384622"/></g><!--              draw bars for data type 5--><g fill="rgb(217,87,0)" fill-opacity="1" id="ID_graph_5" stroke="black" stroke-opacity="0" stroke-width="0"><rect height="5.0229892307692126" rx="0" ry="0" width="100" x="58" y="278.0760461538462"/><rect fill="url(#WhiteBlackGradient)" height="5.0229892307692126" rx="0" ry="0" width="100" x="58" y="278.0760461538462"/><rect fill-opacity="0.3" filter="url(#SaturateMinus)" height="5.0229892307692126" rx="0" ry="0" width="100" x="58" y="278.0760461538462"/><rect height="10.045978461538454" rx="0" ry="0" width="100" x="198" y="220.26346769230773"/><rect fill="url(#WhiteBlackGradient)" height="10.045978461538454" rx="0" ry="0" width="100" x="198" y="220.26346769230773"/><rect fill-opacity="0.3" filter="url(#SaturateMinus)" height="10.045978461538454" rx="0" ry="0" width="100" x="198" y="220.26346769230773"/><rect height="15.068967692307695" rx="0" ry="0" width="100" x="338" y="309.92044615384617"/><rect fill="url(#WhiteBlackGradient)" height="15.068967692307695" rx="0" ry="0" width="100" x="338" y="309.92044615384617"/><rect fill-opacity="0.3" filter="url(#SaturateMinus)" height="15.068967692307695" rx="0" ry="0" width="100" x="338" y="309.92044615384617"/><rect height="20.091956923076907" rx="0" ry="0" width="100" x="478" y="178.37308923076927"/><rect fill="url(#WhiteBlackGradient)" height="20.091956923076907" rx="0" ry="0" width="100" x="478" y="178.37308923076927"/><rect fill-opacity="0.3" filter="url(#SaturateMinus)" height="20.091956923076907" rx="0" ry="0" width="100" x="478" y="178.37308923076927"/><rect height="25.114946153846176" rx="0" ry="0" width="100" x="618" y="341.7648461538462"/><rect fill="url(#WhiteBlackGradient)" height="25.114946153846176" rx="0" ry="0" width="100" x="618" y="341.7648461538462"/><rect fill-opacity="0.3" filter="url(#SaturateMinus)" height="25.114946153846176" rx="0" ry="0" width="100" x="618" y="341.7648461538462"/><rect height="30.13793538461539" rx="0" ry="0" width="100" x="758" y="136.4827107692308"/><rect fill="url(#WhiteBlackGradient)" height="30.13793538461539" rx="0" ry="0" width="100" x="758" y="136.4827107692308"/><rect fill-opacity="0.3" filter="url(#SaturateMinus)" height="30.13793538461539" rx="0" ry="0" width="100" x="758" y="136.4827107692308"/><rect height="35.1609246153846" rx="0" ry="0" width="100" x="898" y="373.6092461538462"/><rect fill="url(#WhiteBlackGradient)" height="35.1609246153846" rx="0" ry="0" width="100" x="898" y="373.6092461538462"/><rect fill-opacity="0.3" filter="url(#SaturateMinus)" height="35.1609246153846" rx="0" ry="0" width="100" x="898" y="373.6092461538462"/><rect height="40.18391384615384" rx="0" ry="0" width="100" x="1038" y="94.59233230769235"/><rect fill="url(#WhiteBlackGradient)" height="40.18391384615384" rx="0" ry="0" width="100" x="1038" y="94.59233230769235"/><rect fill-opacity="0.3" filter="url(#SaturateMinus)" height="40.18391384615384" rx="0" ry="0" width="100" x="1038" y="94.59233230769235"/></g><!--              draw bars for data type 6--><g fill="rgb(29,157,242)" fill-opacity="1" id="ID_graph_6" stroke="black" stroke-opacity="0" stroke-width="0"><path d="   M 58 283.09903538461543   l 100 0   l 0 0   s 0 5.525288153846134 -5.525288153846134 5.525288153846134    l -88.94942369230773 0   s -5.525288153846134 0 -5.525288153846134 -5.525288153846134   l 0 0   z"/><path d="   M 58 283.09903538461543   l 100 0   l 0 0   s 0 5.525288153846134 -5.525288153846134 5.525288153846134    l -88.94942369230773 0   s -5.525288153846134 0 -5.525288153846134 -5.525288153846134   l 0 0   z" fill="url(#WhiteBlackGradient)"/><path d="   M 58 283.09903538461543   l 100 0   l 0 0   s 0 5.525288153846134 -5.525288153846134 5.525288153846134    l -88.94942369230773 0   s -5.525288153846134 0 -5.525288153846134 -5.525288153846134   l 0 0   z" fill-opacity="0.3" filter="url(#SaturateMinus)"/><path d="   M 198 219.21289138461543   s 0 -10 10 -10   l 80 0   s 10 0 10 10   l 0 1.050576307692296    l -100 0    l 0 -1.050576307692296   z"/><path d="   M 198 219.21289138461543   s 0 -10 10 -10   l 80 0   s 10 0 10 10   l 0 1.050576307692296    l -100 0    l 0 -1.050576307692296   z" fill="url(#WhiteBlackGradient)"/><path d="   M 198 219.21289138461543   s 0 -10 10 -10   l 80 0   s 10 0 10 10   l 0 1.050576307692296    l -100 0    l 0 -1.050576307692296   z" fill-opacity="0.3" filter="url(#SaturateMinus)"/><path d="   M 338 324.98941384615387   l 100 0   l 0 6.575864461538458   s 0 10 -10 10    l -80 0   s -10 0 -10 -10   l 0 -6.575864461538458   z"/><path d="   M 338 324.98941384615387   l 100 0   l 0 6.575864461538458   s 0 10 -10 10    l -80 0   s -10 0 -10 -10   l 0 -6.575864461538458   z" fill="url(#WhiteBlackGradient)"/><path d="   M 338 324.98941384615387   l 100 0   l 0 6.575864461538458   s 0 10 -10 10    l -80 0   s -10 0 -10 -10   l 0 -6.575864461538458   z" fill-opacity="0.3" filter="url(#SaturateMinus)"/><path d="   M 478 166.27193661538467   s 0 -10 10 -10   l 80 0   s 10 0 10 10   l 0 12.10115261538462    l -100 0    l 0 -12.10115261538462   z"/><path d="   M 478 166.27193661538467   s 0 -10 10 -10   l 80 0   s 10 0 10 10   l 0 12.10115261538462    l -100 0    l 0 -12.10115261538462   z" fill="url(#WhiteBlackGradient)"/><path d="   M 478 166.27193661538467   s 0 -10 10 -10   l 80 0   s 10 0 10 10   l 0 12.10115261538462    l -100 0    l 0 -12.10115261538462   z" fill-opacity="0.3" filter="url(#SaturateMinus)"/><path d="   M 618 366.8797923076923   l 100 0   l 0 17.626440769230783   s 0 10 -10 10    l -80 0   s -10 0 -10 -10   l 0 -17.626440769230783   z"/><path d="   M 618 366.8797923076923   l 100 0   l 0 17.626440769230783   s 0 10 -10 10    l -80 0   s -10 0 -10 -10   l 0 -17.626440769230783   z" fill="url(#WhiteBlackGradient)"/><path d="   M 618 366.8797923076923   l 100 0   l 0 17.626440769230783   s 0 10 -10 10    l -80 0   s -10 0 -10 -10   l 0 -17.626440769230783   z" fill-opacity="0.3" filter="url(#SaturateMinus)"/><path d="   M 758 113.33098184615389   s 0 -10 10 -10   l 80 0   s 10 0 10 10   l 0 23.151728923076917    l -100 0    l 0 -23.151728923076917   z"/><path d="   M 758 113.33098184615389   s 0 -10 10 -10   l 80 0   s 10 0 10 10   l 0 23.151728923076917    l -100 0    l 0 -23.151728923076917   z" fill="url(#WhiteBlackGradient)"/><path d="   M 758 113.33098184615389   s 0 -10 10 -10   l 80 0   s 10 0 10 10   l 0 23.151728923076917    l -100 0    l 0 -23.151728923076917   z" fill-opacity="0.3" filter="url(#SaturateMinus)"/><path d="   M 898 408.7701707692308   l 100 0   l 0 28.67701707692305   s 0 10 -10 10    l -80 0   s -10 0 -10 -10   l 0 -28.67701707692305   z"/><path d="   M 898 408.7701707692308   l 100 0   l 0 28.67701707692305   s 0 10 -10 10    l -80 0   s -10 0 -10 -10   l 0 -28.67701707692305   z" fill="url(#WhiteBlackGradient)"/><path d="   M 898 408.7701707692308   l 100 0   l 0 28.67701707692305   s 0 10 -10 10    l -80 0   s -10 0 -10 -10   l 0 -28.67701707692305   z" fill-opacity="0.3" filter="url(#SaturateMinus)"/><path d="   M 1038 60.39002707692313   s 0 -10 10 -10   l 80 0   s 10 0 10 10   l 0 34.20230523076924    l -100 0    l 0 -34.20230523076924   z"/><path d="   M 1038 60.39002707692313   s 0 -10 10 -10   l 80 0   s 10 0 10 10   l 0 34.20230523076924    l -100 0    l 0 -34.20230523076924   z" fill="url(#WhiteBlackGradient)"/><path d="   M 1038 60.39002707692313   s 0 -10 10 -10   l 80 0   s 10 0 10 10   l 0 34.20230523076924    l -100 0    l 0 -34.20230523076924   z" fill-opacity="0.3" filter="url(#SaturateMinus)"/></g></g></g></svg>