
<svg xmlns="http://www.w3.org/2000/svg" id="ID_svg" viewBox="0 0 1065 466" viewport-fill="darkblue" viewport-fill-opacity="0.25" xmlns:exsl4D="http://www.4D.com" xmlns:gFunc="http://gFunc" xmlns:math="http://exslt.org/math" xmlns:xlink="http://www.w3.org/1999/xlink">

  <!--gradient styles-->

  <defs>
    <filter id="soft_blur">
      <feGaussianBlur in="SourceGraphic" result="BlurAlpha" stdDeviation="1"/>
    </filter>
    <filter id="pastel">
      <feGaussianBlur in="SourceAlpha" result="blur" stdDeviation="2"/>
      <feOffset dx="6" dy="6" in="blur" result="offsetBlur"/>
      <feComposite in="SourceGraphic" in2="offsetBlur" operator="in" result="specOut"/>
    </filter>
    <filter id="blur_shadow">
      <feGaussianBlur in="SourceAlpha" result="blur" stdDeviation="3"/>
      <feOffset dx="4" dy="2" in="blur" result="offsetBlur"/>
      <feBlend in="SourceGraphic" in2="offsetBlur" mode="normal"/>
    </filter>
    <filter filterUnits="objectBoundingBox" id="Shadow">
      <feGaussianBlur in="SourceAlpha" result="flou" stdDeviation="0"/>
      <feColorMatrix in="SourceAlpha" result="flouBlue" type="matrix" values=" 0 0 0 0 0                      0 0 0 0 0                     0 0 0 0 0                      0 0 0 0.3 0"/>
      <feOffset dx="4" dy="4" in="flouBlue" result="flouDecalage"/>
      <feBlend in="SourceGraphic" in2="flouDecalage" mode="normal"/>
    </filter>
    <filter filterUnits="objectBoundingBox" height="100%" id="SaturateMinus" width="100%" x="0%" y="0%">
      <feColorMatrix in="SourceGraphic" type="saturate" values="0.5"/>
    </filter>
    <filter filterUnits="objectBoundingBox" height="100%" id="SaturatePlus" width="100%" x="0%" y="0%">
      <feColorMatrix in="SourceGraphic" type="saturate" values="1.4"/>
    </filter>
    <linearGradient id="BlackGradient">
      <stop offset="0%" style="stop-color:rgb(0,0,0); stop-opacity:0"/>
      <stop offset="100%" style="stop-color:rgb(0,0,0); stop-opacity:0.1"/>
    </linearGradient>
    <linearGradient id="WhiteGradient" x1="0%" x2="100%" y1="0%" y2="0%">
      <stop offset="0%" style="stop-color:rgb(255,255,255); stop-opacity:0.3"/>
      <stop offset="100%" style="stop-color:rgb(255,255,255);stop-opacity:0"/>
    </linearGradient>
    <linearGradient id="WhiteBlackGradient" x1="0%" x2="100%" y1="0%" y2="0%">
      <stop offset="0%" style="stop-color:rgb(255,255,255); stop-opacity:0.15"/>
      <stop offset="100%" style="stop-color:rgb(0,0,0);stop-opacity:0.15"/>
    </linearGradient>
    <linearGradient id="Black0Black1Gradient" x1="0%" x2="0%" y1="0%" y2="100%">
      <stop offset="0%" style="stop-color:rgb(0,0,0); stop-opacity:0"/>
      <stop offset="100%" style="stop-color:rgb(0,0,0);stop-opacity:0.05"/>
    </linearGradient>
  </defs>

  <!--global stroke and font styles-->

  <g id="ID_globals" style="fill:red;stroke:none;font-family:Arial;font-size:14px;font-weight:normal;font-style:normal;text-decoration:none;shape-rendering:crispEdges">
    <!--draw title-->
    <!--********************************draw graph background********************************-->
    <rect fill="darkgreen" height="400" id="ID_background_shadow" opacity="0.5" rx="10" ry="10" stroke="none" transform="translate(1,1)" visibility="visible" width="800" x="60" y="20"/>
    <g fill="lightgreen" id="ID_background" opacity="0.5" stroke="none" visibility="visible">
      <rect height="400" rx="10" ry="10" stroke="none" width="800" x="60" y="20"/>
      <rect fill="url(#Black0Black1Gradient)" height="400" rx="10" ry="10" stroke="none" width="800" x="60" y="20"/>
    </g>
    <clipPath id="ID_backgroundClipPath">
      <rect height="401" rx="10" ry="10" width="801" x="59" y="19"/>
    </clipPath>
    <!--********************************draw Y Labels********************************-->
    <g id="ID_y$value" style="fill:red;stroke:none;font-family:Arial;font-size:14px;font-weight:normal;font-style:normal;text-decoration:none;filter:none" visibility="visible">
      <text text-anchor="end" x="48" y="27">100</text>
      <text text-anchor="end" x="48" y="67">80</text>
      <text text-anchor="end" x="48" y="107">60</text>
      <text text-anchor="end" x="48" y="147">40</text>
      <text text-anchor="end" x="48" y="187">20</text>
      <text text-anchor="end" x="48" y="227">0</text>
      <text text-anchor="end" x="48" y="267">-20</text>
      <text text-anchor="end" x="48" y="307">-40</text>
      <text text-anchor="end" x="48" y="347">-60</text>
      <text text-anchor="end" x="48" y="387">-80</text>
      <text text-anchor="end" x="48" y="427">-100</text>
    </g>
    <!--********************************draw X Labels********************************-->
    <!--draw axis x labels-->
    <g id="ID_x$value" style="fill:red;stroke:none;font-family:Arial;font-size:14px;font-weight:normal;font-style:normal;text-decoration:none;filter:none" visibility="visible">
      <text text-anchor="middle" x="110" y="446">08:00:00</text>
      <text text-anchor="middle" x="210" y="446">09:00:00</text>
      <text text-anchor="middle" x="310" y="446">10:00:00</text>
      <text text-anchor="middle" x="410" y="446">11:00:00</text>
      <text text-anchor="middle" x="510" y="446">11:15:00</text>
      <text text-anchor="middle" x="610" y="446">14:45:00</text>
      <text text-anchor="middle" x="710" y="446">15:00:00</text>
      <text text-anchor="middle" x="810" y="446">16:00:00</text>
    </g>
    <g style="clip-path: url(#ID_backgroundClipPath)">
      <!--******************************** draw Y grid lines******************************** (Horizontal lines)-->
      <g id="ID_y_grid" stroke="#a8a8a8" stroke-width="1">
        <line x1="60" x2="860" y1="60" y2="60"/>
        <line x1="60" x2="860" y1="100" y2="100"/>
        <line x1="60" x2="860" y1="140" y2="140"/>
        <line x1="60" x2="860" y1="180" y2="180"/>
        <line x1="60" x2="860" y1="220" y2="220"/>
        <line x1="60" x2="860" y1="260" y2="260"/>
        <line x1="60" x2="860" y1="300" y2="300"/>
        <line x1="60" x2="860" y1="340" y2="340"/>
        <line x1="60" x2="860" y1="380" y2="380"/>
      </g>
      <!--draw Y grid lines SHADOWS-->
      <g id="ID_y_grid_shadow" stroke="#ffffff" stroke-width="1">
        <line transform="translate(0,1)" x1="60" x2="860" y1="60" y2="60"/>
        <line transform="translate(0,1)" x1="60" x2="860" y1="100" y2="100"/>
        <line transform="translate(0,1)" x1="60" x2="860" y1="140" y2="140"/>
        <line transform="translate(0,1)" x1="60" x2="860" y1="180" y2="180"/>
        <line transform="translate(0,1)" x1="60" x2="860" y1="220" y2="220"/>
        <line transform="translate(0,1)" x1="60" x2="860" y1="260" y2="260"/>
        <line transform="translate(0,1)" x1="60" x2="860" y1="300" y2="300"/>
        <line transform="translate(0,1)" x1="60" x2="860" y1="340" y2="340"/>
        <line transform="translate(0,1)" x1="60" x2="860" y1="380" y2="380"/>
      </g>
      <g id="ID_y0_axis" stroke="rgb(100,100,100)" stroke-width="1" visibility="visible">
        <line x1="60" x2="860" y1="220" y2="220"/>
      </g>
      <!--********************************draw X grid lines******************************** (Vertical lines)-->
      <g id="ID_x_grid" stroke="#a8a8a8" stroke-width="1">
        <line x1="160" x2="160" y1="20" y2="420"/>
        <line x1="260" x2="260" y1="20" y2="420"/>
        <line x1="360" x2="360" y1="20" y2="420"/>
        <line x1="460" x2="460" y1="20" y2="420"/>
        <line x1="560" x2="560" y1="20" y2="420"/>
        <line x1="660" x2="660" y1="20" y2="420"/>
        <line x1="760" x2="760" y1="20" y2="420"/>
        <line x1="860" x2="860" y1="20" y2="420"/>
      </g>
      <!--draw X grid lines SHADOWS -->
      <g id="ID_x_grid_shadow" stroke="#ffffff" stroke-width="1">
        <line transform="translate(1,0)" x1="160" x2="160" y1="20" y2="420"/>
        <line transform="translate(1,0)" x1="260" x2="260" y1="20" y2="420"/>
        <line transform="translate(1,0)" x1="360" x2="360" y1="20" y2="420"/>
        <line transform="translate(1,0)" x1="460" x2="460" y1="20" y2="420"/>
        <line transform="translate(1,0)" x1="560" x2="560" y1="20" y2="420"/>
        <line transform="translate(1,0)" x1="660" x2="660" y1="20" y2="420"/>
        <line transform="translate(1,0)" x1="760" x2="760" y1="20" y2="420"/>
        <line transform="translate(1,0)" x1="860" x2="860" y1="20" y2="420"/>
      </g>
    </g>
    <!--******************************** draw legend ***********************************-->
    <g filter="none" id="ID_legend" transform="translate(872,20)" visibility="visible">
      <!--draw legend border-->
      <rect fill="darkgreen" fill-opacity="0.5" height="168" id="ID_legend_border_shadow" rx="10" ry="10" stroke="none" transform="translate(1,1)" width="173" x="0" y="0"/>
      <rect fill="lightgreen" fill-opacity="0.5" height="168" id="ID_legend_border" rx="10" ry="10" stroke="none" stroke-width="0" width="173" x="0" y="0"/>
      <!--draw legend bullets-->
      <g id="ID_legend_bullets" stroke="none">
        <g fill="purple" id="ID_legend_1">
          <rect height="12" rx="3" ry="3" width="24" x="10" y="8"/>
          <rect fill="url(#WhiteBlackGradient)" height="12" rx="3" ry="3" width="24" x="10" y="8"/>
          <rect fill-opacity="0.3" filter="url(#SaturateMinus)" height="12" rx="3" ry="3" width="24" x="10" y="8"/>
        </g>
        <g fill="darkblue" id="ID_legend_2">
          <rect height="12" rx="3" ry="3" width="24" x="10" y="28"/>
          <rect fill="url(#WhiteBlackGradient)" height="12" rx="3" ry="3" width="24" x="10" y="28"/>
          <rect fill-opacity="0.3" filter="url(#SaturateMinus)" height="12" rx="3" ry="3" width="24" x="10" y="28"/>
        </g>
        <g fill="blue" id="ID_legend_3">
          <rect height="12" rx="3" ry="3" width="24" x="10" y="48"/>
          <rect fill="url(#WhiteBlackGradient)" height="12" rx="3" ry="3" width="24" x="10" y="48"/>
          <rect fill-opacity="0.3" filter="url(#SaturateMinus)" height="12" rx="3" ry="3" width="24" x="10" y="48"/>
        </g>
        <g fill="green" id="ID_legend_4">
          <rect height="12" rx="3" ry="3" width="24" x="10" y="68"/>
          <rect fill="url(#WhiteBlackGradient)" height="12" rx="3" ry="3" width="24" x="10" y="68"/>
          <rect fill-opacity="0.3" filter="url(#SaturateMinus)" height="12" rx="3" ry="3" width="24" x="10" y="68"/>
        </g>
        <g fill="yellow" id="ID_legend_5">
          <rect height="12" rx="3" ry="3" width="24" x="10" y="88"/>
          <rect fill="url(#WhiteBlackGradient)" height="12" rx="3" ry="3" width="24" x="10" y="88"/>
          <rect fill-opacity="0.3" filter="url(#SaturateMinus)" height="12" rx="3" ry="3" width="24" x="10" y="88"/>
        </g>
        <g fill="orange" id="ID_legend_6">
          <rect height="12" rx="3" ry="3" width="24" x="10" y="108"/>
          <rect fill="url(#WhiteBlackGradient)" height="12" rx="3" ry="3" width="24" x="10" y="108"/>
          <rect fill-opacity="0.3" filter="url(#SaturateMinus)" height="12" rx="3" ry="3" width="24" x="10" y="108"/>
        </g>
        <g fill="pink" id="ID_legend_7">
          <rect height="12" rx="3" ry="3" width="24" x="10" y="128"/>
          <rect fill="url(#WhiteBlackGradient)" height="12" rx="3" ry="3" width="24" x="10" y="128"/>
          <rect fill-opacity="0.3" filter="url(#SaturateMinus)" height="12" rx="3" ry="3" width="24" x="10" y="128"/>
        </g>
        <g fill="red" id="ID_legend_8">
          <rect height="12" rx="3" ry="3" width="24" x="10" y="148"/>
          <rect fill="url(#WhiteBlackGradient)" height="12" rx="3" ry="3" width="24" x="10" y="148"/>
          <rect fill-opacity="0.3" filter="url(#SaturateMinus)" height="12" rx="3" ry="3" width="24" x="10" y="148"/>
        </g>
      </g>
      <!--draw legend labels-->
      <g id="ID_legend_labels" style="fill:black;stroke:none;font-family:Arial;;font-weight:normal;font-style:normal;text-decoration:none;filter:none;text-anchor:start">
        <text x="44" y="17">Sharp</text>
        <text x="44" y="37">Infinity</text>
        <text x="44" y="57">Audio Référence</text>
        <text x="44" y="77">Triangle</text>
        <text x="44" y="97">Yamaha</text>
        <text x="44" y="117">Onkyo</text>
        <text x="44" y="137">Sony</text>
        <text x="44" y="157">Free</text>
      </g>
    </g>
    <g style="clip-path: url(#ID_backgroundClipPath)">
      <g fill="black" fill-opacity="0.2" id="ID_graph_shadow_1">
        <path d="M 0 0 l 0 2 s 0 0 0 0 l 80 0 s 0 0 0 -0 l 0 -2 z" transform="translate(73,220)"/>
        <path d="M 0 0 l 0 -4 s 0 -0 0 -0 l 80 0 s 0 0 0 0 l 0 4 z" transform="translate(173,220)"/>
        <path d="M 0 0 l 0 6 s 0 0 0 0 l 80 0 s 0 0 0 -0 l 0 -6 z" transform="translate(273,220)"/>
        <path d="M 0 0 l 0 -8 s 0 -0 0 -0 l 80 0 s 0 0 0 0 l 0 8 z" transform="translate(373,220)"/>
        <path d="M 0 0 l 0 10 s 0 0 0 0 l 80 0 s 0 0 0 -0 l 0 -10 z" transform="translate(473,220)"/>
        <path d="M 0 0 l 0 -12 s 0 -0 0 -0 l 80 0 s 0 0 0 0 l 0 12 z" transform="translate(573,220)"/>
        <path d="M 0 0 l 0 14 s 0 0 0 0 l 80 0 s 0 0 0 -0 l 0 -14 z" transform="translate(673,220)"/>
        <path d="M 0 0 l 0 -16 s 0 -0 0 -0 l 80 0 s 0 0 0 0 l 0 16 z" transform="translate(773,220)"/>
      </g>
      <g fill="black" fill-opacity="0.2" id="ID_graph_shadow_2">
        <path d="M 0 0 l 0 2.2 s 0 0 0 0 l 80 0 s 0 0 0 -0 l 0 -2.2 z" transform="translate(73,222)"/>
        <path d="M 0 0 l 0 -4.4 s 0 -0 0 -0 l 80 0 s 0 0 0 0 l 0 4.4 z" transform="translate(173,216)"/>
        <path d="M 0 0 l 0 6.6 s 0 0 0 0 l 80 0 s 0 0 0 -0 l 0 -6.6 z" transform="translate(273,226)"/>
        <path d="M 0 0 l 0 -8.8 s 0 -0 0 -0 l 80 0 s 0 0 0 0 l 0 8.8 z" transform="translate(373,212)"/>
        <path d="M 0 0 l 0 11 s 0 0 0 0 l 80 0 s 0 0 0 -0 l 0 -11 z" transform="translate(473,230)"/>
        <path d="M 0 0 l 0 -13.2 s 0 -0 0 -0 l 80 0 s 0 0 0 0 l 0 13.2 z" transform="translate(573,208)"/>
        <path d="M 0 0 l 0 15.4 s 0 0 0 0 l 80 0 s 0 0 0 -0 l 0 -15.4 z" transform="translate(673,234)"/>
        <path d="M 0 0 l 0 -17.6 s 0 -0 0 -0 l 80 0 s 0 0 0 0 l 0 17.6 z" transform="translate(773,204)"/>
      </g>
      <g fill="black" fill-opacity="0.2" id="ID_graph_shadow_3">
        <path d="M 0 0 l 0 2.42 s 0 0 0 0 l 80 0 s 0 0 0 -0 l 0 -2.42 z" transform="translate(73,224.2)"/>
        <path d="M 0 0 l 0 -4.84 s 0 -0 0 -0 l 80 0 s 0 0 0 0 l 0 4.84 z" transform="translate(173,211.6)"/>
        <path d="M 0 0 l 0 7.26 s 0 0 0 0 l 80 0 s 0 0 0 -0 l 0 -7.26 z" transform="translate(273,232.6)"/>
        <path d="M 0 0 l 0 -9.68 s 0 -0 0 -0 l 80 0 s 0 0 0 0 l 0 9.68 z" transform="translate(373,203.2)"/>
        <path d="M 0 0 l 0 12.1 s 0 0 0 0 l 80 0 s 0 0 0 -0 l 0 -12.1 z" transform="translate(473,241)"/>
        <path d="M 0 0 l 0 -14.52 s 0 -0 0 -0 l 80 0 s 0 0 0 0 l 0 14.52 z" transform="translate(573,194.8)"/>
        <path d="M 0 0 l 0 16.94 s 0 0 0 0 l 80 0 s 0 0 0 -0 l 0 -16.94 z" transform="translate(673,249.4)"/>
        <path d="M 0 0 l 0 -19.36 s 0 -0 0 -0 l 80 0 s 0 0 0 0 l 0 19.36 z" transform="translate(773,186.4)"/>
      </g>
      <g fill="black" fill-opacity="0.2" id="ID_graph_shadow_4">
        <path d="M 0 0 l 0 2.66 s 0 0 0 0 l 80 0 s 0 0 0 -0 l 0 -2.66 z" transform="translate(73,226.62)"/>
        <path d="M 0 0 l 0 -5.32 s 0 -0 0 -0 l 80 0 s 0 0 0 0 l 0 5.32 z" transform="translate(173,206.76)"/>
        <path d="M 0 0 l 0 7.99 s 0 0 0 0 l 80 0 s 0 0 0 -0 l 0 -7.99 z" transform="translate(273,239.86)"/>
        <path d="M 0 0 l 0 -10.65 s 0 -0 0 -0 l 80 0 s 0 0 0 0 l 0 10.65 z" transform="translate(373,193.52)"/>
        <path d="M 0 0 l 0 13.31 s 0 0 0 0 l 80 0 s 0 0 0 -0 l 0 -13.31 z" transform="translate(473,253.1)"/>
        <path d="M 0 0 l 0 -15.97 s 0 -0 0 -0 l 80 0 s 0 0 0 0 l 0 15.97 z" transform="translate(573,180.28)"/>
        <path d="M 0 0 l 0 18.63 s 0 0 0 0 l 80 0 s 0 0 0 -0 l 0 -18.63 z" transform="translate(673,266.34)"/>
        <path d="M 0 0 l 0 -21.3 s 0 -0 0 -0 l 80 0 s 0 0 0 0 l 0 21.3 z" transform="translate(773,167.04)"/>
      </g>
      <g fill="black" fill-opacity="0.2" id="ID_graph_shadow_5">
        <path d="M 0 0 l 0 2.93 s 0 0 0 0 l 80 0 s 0 0 0 -0 l 0 -2.93 z" transform="translate(73,229.28)"/>
        <path d="M 0 0 l 0 -5.86 s 0 -0 0 -0 l 80 0 s 0 0 0 0 l 0 5.86 z" transform="translate(173,201.44)"/>
        <path d="M 0 0 l 0 8.78 s 0 0 0 0 l 80 0 s 0 0 0 -0 l 0 -8.78 z" transform="translate(273,247.85)"/>
        <path d="M 0 0 l 0 -11.71 s 0 -0 0 -0 l 80 0 s 0 0 0 0 l 0 11.71 z" transform="translate(373,182.87)"/>
        <path d="M 0 0 l 0 14.64 s 0 0 0 0 l 80 0 s 0 0 0 -0 l 0 -14.64 z" transform="translate(473,266.41)"/>
        <path d="M 0 0 l 0 -17.57 s 0 -0 0 -0 l 80 0 s 0 0 0 0 l 0 17.57 z" transform="translate(573,164.31)"/>
        <path d="M 0 0 l 0 20.5 s 0 0 0 0 l 80 0 s 0 0 0 -0 l 0 -20.5 z" transform="translate(673,284.97)"/>
        <path d="M 0 0 l 0 -23.43 s 0 -0 0 -0 l 80 0 s 0 0 0 0 l 0 23.43 z" transform="translate(773,145.74)"/>
      </g>
      <g fill="black" fill-opacity="0.2" id="ID_graph_shadow_6">
        <path d="M 0 0 l 0 3.22 s 0 0 0 0 l 80 0 s 0 0 0 -0 l 0 -3.22 z" transform="translate(73,232.21)"/>
        <path d="M 0 0 l 0 -6.44 s 0 -0 0 -0 l 80 0 s 0 0 0 0 l 0 6.44 z" transform="translate(173,195.58)"/>
        <path d="M 0 0 l 0 9.66 s 0 0 0 0 l 80 0 s 0 0 0 -0 l 0 -9.66 z" transform="translate(273,256.63)"/>
        <path d="M 0 0 l 0 -12.88 s 0 -0 0 -0 l 80 0 s 0 0 0 0 l 0 12.88 z" transform="translate(373,171.16)"/>
        <path d="M 0 0 l 0 16.11 s 0 0 0 0 l 80 0 s 0 0 0 -0 l 0 -16.11 z" transform="translate(473,281.05)"/>
        <path d="M 0 0 l 0 -19.33 s 0 -0 0 -0 l 80 0 s 0 0 0 0 l 0 19.33 z" transform="translate(573,146.74)"/>
        <path d="M 0 0 l 0 22.55 s 0 0 0 0 l 80 0 s 0 0 0 -0 l 0 -22.55 z" transform="translate(673,305.47)"/>
        <path d="M 0 0 l 0 -25.77 s 0 -0 0 -0 l 80 0 s 0 0 0 0 l 0 25.77 z" transform="translate(773,122.31)"/>
      </g>
      <g fill="black" fill-opacity="0.2" id="ID_graph_shadow_7">
        <path d="M 0 0 l 0 3.54 s 0 0 0 0 l 80 0 s 0 0 0 -0 l 0 -3.54 z" transform="translate(73,235.43)"/>
        <path d="M 0 0 l 0 -7.09 s 0 -0 0 -0 l 80 0 s 0 0 0 0 l 0 7.09 z" transform="translate(173,189.14)"/>
        <path d="M 0 0 l 0 10.63 s 0 0 0 0 l 80 0 s 0 0 0 -0 l 0 -10.63 z" transform="translate(273,266.29)"/>
        <path d="M 0 0 l 0 -14.17 s 0 -0 0 -0 l 80 0 s 0 0 0 0 l 0 14.17 z" transform="translate(373,158.28)"/>
        <path d="M 0 0 l 0 17.72 s 0 0 0 0 l 80 0 s 0 0 0 -0 l 0 -17.72 z" transform="translate(473,297.16)"/>
        <path d="M 0 0 l 0 -21.26 s 0 -0 0 -0 l 80 0 s 0 0 0 0 l 0 21.26 z" transform="translate(573,127.41)"/>
        <path d="M 0 0 l 0 24.8 s 0 0 0 0 l 80 0 s 0 0 0 -0 l 0 -24.8 z" transform="translate(673,328.02)"/>
        <path d="M 0 0 l 0 -28.34 s 0 -0 0 -0 l 80 0 s 0 0 0 0 l 0 28.34 z" transform="translate(773,96.54)"/>
      </g>
      <g fill="black" fill-opacity="0.2" id="ID_graph_shadow_8">
        <path d="M 0 0 l 0 3.9 s 0 0 0 0 l 80 0 s 0 0 0 -0 l 0 -3.9 z" transform="translate(73,238.97)"/>
        <path d="M 0 0 l 0 -7.79 s 0 -0 0 -0 l 80 0 s 0 0 0 0 l 0 7.79 z" transform="translate(173,182.05)"/>
        <path d="M 0 0 l 0 11.69 s 0 0 0 0 l 80 0 s 0 0 0 -0 l 0 -11.69 z" transform="translate(273,276.92)"/>
        <path d="M 0 0 l 0 -15.59 s 0 -0 0 -0 l 80 0 s 0 0 0 0 l 0 15.59 z" transform="translate(373,144.11)"/>
        <path d="M 0 0 l 0 19.49 s 0 0 0 0 l 80 0 s 0 0 0 -0 l 0 -19.49 z" transform="translate(473,314.88)"/>
        <path d="M 0 0 l 0 -23.38 s 0 -0 0 -0 l 80 0 s 0 0 0 0 l 0 23.38 z" transform="translate(573,106.15)"/>
        <path d="M 0 0 l 0 27.28 s 0 0 0 0 l 80 0 s 0 0 0 -0 l 0 -27.28 z" transform="translate(673,352.82)"/>
        <path d="M 0 0 l 0 -31.18 s 0 -0 0 -0 l 80 0 s 0 0 0 0 l 0 31.18 z" transform="translate(773,68.2)"/>
      </g>
      <g fill="purple" fill-opacity="1" filter="none" id="ID_graph_shadow_1" opacity="1" stroke="none" stroke-opacity="1" stroke-width="0">
        <path d="M 0 0 l 0 2 s 0 0 0 0 l 80 0 s 0 0 0 -0 l 0 -2 z" transform="translate(70,220)"/>
        <path d="M 0 0 l 0 2 s 0 0 0 0 l 80 0 s 0 0 0 -0 l 0 -2 z" fill="url(#WhiteBlackGradient)" transform="translate(70,220)"/>
        <path d="M 0 0 l 0 2 s 0 0 0 0 l 80 0 s 0 0 0 -0 l 0 -2 z" fill-opacity="0.3" filter="url(#SaturateMinus)" transform="translate(70,220)"/>
        <path d="M 0 0 l 0 -4 s 0 -0 0 -0 l 80 0 s 0 0 0 0 l 0 4 z" transform="translate(170,220)"/>
        <path d="M 0 0 l 0 -4 s 0 -0 0 -0 l 80 0 s 0 0 0 0 l 0 4 z" fill="url(#WhiteBlackGradient)" transform="translate(170,220)"/>
        <path d="M 0 0 l 0 -4 s 0 -0 0 -0 l 80 0 s 0 0 0 0 l 0 4 z" fill-opacity="0.3" filter="url(#SaturateMinus)" transform="translate(170,220)"/>
        <path d="M 0 0 l 0 6 s 0 0 0 0 l 80 0 s 0 0 0 -0 l 0 -6 z" transform="translate(270,220)"/>
        <path d="M 0 0 l 0 6 s 0 0 0 0 l 80 0 s 0 0 0 -0 l 0 -6 z" fill="url(#WhiteBlackGradient)" transform="translate(270,220)"/>
        <path d="M 0 0 l 0 6 s 0 0 0 0 l 80 0 s 0 0 0 -0 l 0 -6 z" fill-opacity="0.3" filter="url(#SaturateMinus)" transform="translate(270,220)"/>
        <path d="M 0 0 l 0 -8 s 0 -0 0 -0 l 80 0 s 0 0 0 0 l 0 8 z" transform="translate(370,220)"/>
        <path d="M 0 0 l 0 -8 s 0 -0 0 -0 l 80 0 s 0 0 0 0 l 0 8 z" fill="url(#WhiteBlackGradient)" transform="translate(370,220)"/>
        <path d="M 0 0 l 0 -8 s 0 -0 0 -0 l 80 0 s 0 0 0 0 l 0 8 z" fill-opacity="0.3" filter="url(#SaturateMinus)" transform="translate(370,220)"/>
        <path d="M 0 0 l 0 10 s 0 0 0 0 l 80 0 s 0 0 0 -0 l 0 -10 z" transform="translate(470,220)"/>
        <path d="M 0 0 l 0 10 s 0 0 0 0 l 80 0 s 0 0 0 -0 l 0 -10 z" fill="url(#WhiteBlackGradient)" transform="translate(470,220)"/>
        <path d="M 0 0 l 0 10 s 0 0 0 0 l 80 0 s 0 0 0 -0 l 0 -10 z" fill-opacity="0.3" filter="url(#SaturateMinus)" transform="translate(470,220)"/>
        <path d="M 0 0 l 0 -12 s 0 -0 0 -0 l 80 0 s 0 0 0 0 l 0 12 z" transform="translate(570,220)"/>
        <path d="M 0 0 l 0 -12 s 0 -0 0 -0 l 80 0 s 0 0 0 0 l 0 12 z" fill="url(#WhiteBlackGradient)" transform="translate(570,220)"/>
        <path d="M 0 0 l 0 -12 s 0 -0 0 -0 l 80 0 s 0 0 0 0 l 0 12 z" fill-opacity="0.3" filter="url(#SaturateMinus)" transform="translate(570,220)"/>
        <path d="M 0 0 l 0 14 s 0 0 0 0 l 80 0 s 0 0 0 -0 l 0 -14 z" transform="translate(670,220)"/>
        <path d="M 0 0 l 0 14 s 0 0 0 0 l 80 0 s 0 0 0 -0 l 0 -14 z" fill="url(#WhiteBlackGradient)" transform="translate(670,220)"/>
        <path d="M 0 0 l 0 14 s 0 0 0 0 l 80 0 s 0 0 0 -0 l 0 -14 z" fill-opacity="0.3" filter="url(#SaturateMinus)" transform="translate(670,220)"/>
        <path d="M 0 0 l 0 -16 s 0 -0 0 -0 l 80 0 s 0 0 0 0 l 0 16 z" transform="translate(770,220)"/>
        <path d="M 0 0 l 0 -16 s 0 -0 0 -0 l 80 0 s 0 0 0 0 l 0 16 z" fill="url(#WhiteBlackGradient)" transform="translate(770,220)"/>
        <path d="M 0 0 l 0 -16 s 0 -0 0 -0 l 80 0 s 0 0 0 0 l 0 16 z" fill-opacity="0.3" filter="url(#SaturateMinus)" transform="translate(770,220)"/>
      </g>
      <g fill="darkblue" fill-opacity="1" filter="none" id="ID_graph_shadow_2" opacity="1" stroke="none" stroke-opacity="1" stroke-width="0">
        <path d="M 0 0 l 0 2.2 s 0 0 0 0 l 80 0 s 0 0 0 -0 l 0 -2.2 z" transform="translate(70,222)"/>
        <path d="M 0 0 l 0 2.2 s 0 0 0 0 l 80 0 s 0 0 0 -0 l 0 -2.2 z" fill="url(#WhiteBlackGradient)" transform="translate(70,222)"/>
        <path d="M 0 0 l 0 2.2 s 0 0 0 0 l 80 0 s 0 0 0 -0 l 0 -2.2 z" fill-opacity="0.3" filter="url(#SaturateMinus)" transform="translate(70,222)"/>
        <path d="M 0 0 l 0 -4.4 s 0 -0 0 -0 l 80 0 s 0 0 0 0 l 0 4.4 z" transform="translate(170,216)"/>
        <path d="M 0 0 l 0 -4.4 s 0 -0 0 -0 l 80 0 s 0 0 0 0 l 0 4.4 z" fill="url(#WhiteBlackGradient)" transform="translate(170,216)"/>
        <path d="M 0 0 l 0 -4.4 s 0 -0 0 -0 l 80 0 s 0 0 0 0 l 0 4.4 z" fill-opacity="0.3" filter="url(#SaturateMinus)" transform="translate(170,216)"/>
        <path d="M 0 0 l 0 6.6 s 0 0 0 0 l 80 0 s 0 0 0 -0 l 0 -6.6 z" transform="translate(270,226)"/>
        <path d="M 0 0 l 0 6.6 s 0 0 0 0 l 80 0 s 0 0 0 -0 l 0 -6.6 z" fill="url(#WhiteBlackGradient)" transform="translate(270,226)"/>
        <path d="M 0 0 l 0 6.6 s 0 0 0 0 l 80 0 s 0 0 0 -0 l 0 -6.6 z" fill-opacity="0.3" filter="url(#SaturateMinus)" transform="translate(270,226)"/>
        <path d="M 0 0 l 0 -8.8 s 0 -0 0 -0 l 80 0 s 0 0 0 0 l 0 8.8 z" transform="translate(370,212)"/>
        <path d="M 0 0 l 0 -8.8 s 0 -0 0 -0 l 80 0 s 0 0 0 0 l 0 8.8 z" fill="url(#WhiteBlackGradient)" transform="translate(370,212)"/>
        <path d="M 0 0 l 0 -8.8 s 0 -0 0 -0 l 80 0 s 0 0 0 0 l 0 8.8 z" fill-opacity="0.3" filter="url(#SaturateMinus)" transform="translate(370,212)"/>
        <path d="M 0 0 l 0 11 s 0 0 0 0 l 80 0 s 0 0 0 -0 l 0 -11 z" transform="translate(470,230)"/>
        <path d="M 0 0 l 0 11 s 0 0 0 0 l 80 0 s 0 0 0 -0 l 0 -11 z" fill="url(#WhiteBlackGradient)" transform="translate(470,230)"/>
        <path d="M 0 0 l 0 11 s 0 0 0 0 l 80 0 s 0 0 0 -0 l 0 -11 z" fill-opacity="0.3" filter="url(#SaturateMinus)" transform="translate(470,230)"/>
        <path d="M 0 0 l 0 -13.2 s 0 -0 0 -0 l 80 0 s 0 0 0 0 l 0 13.2 z" transform="translate(570,208)"/>
        <path d="M 0 0 l 0 -13.2 s 0 -0 0 -0 l 80 0 s 0 0 0 0 l 0 13.2 z" fill="url(#WhiteBlackGradient)" transform="translate(570,208)"/>
        <path d="M 0 0 l 0 -13.2 s 0 -0 0 -0 l 80 0 s 0 0 0 0 l 0 13.2 z" fill-opacity="0.3" filter="url(#SaturateMinus)" transform="translate(570,208)"/>
        <path d="M 0 0 l 0 15.4 s 0 0 0 0 l 80 0 s 0 0 0 -0 l 0 -15.4 z" transform="translate(670,234)"/>
        <path d="M 0 0 l 0 15.4 s 0 0 0 0 l 80 0 s 0 0 0 -0 l 0 -15.4 z" fill="url(#WhiteBlackGradient)" transform="translate(670,234)"/>
        <path d="M 0 0 l 0 15.4 s 0 0 0 0 l 80 0 s 0 0 0 -0 l 0 -15.4 z" fill-opacity="0.3" filter="url(#SaturateMinus)" transform="translate(670,234)"/>
        <path d="M 0 0 l 0 -17.6 s 0 -0 0 -0 l 80 0 s 0 0 0 0 l 0 17.6 z" transform="translate(770,204)"/>
        <path d="M 0 0 l 0 -17.6 s 0 -0 0 -0 l 80 0 s 0 0 0 0 l 0 17.6 z" fill="url(#WhiteBlackGradient)" transform="translate(770,204)"/>
        <path d="M 0 0 l 0 -17.6 s 0 -0 0 -0 l 80 0 s 0 0 0 0 l 0 17.6 z" fill-opacity="0.3" filter="url(#SaturateMinus)" transform="translate(770,204)"/>
      </g>
      <g fill="blue" fill-opacity="1" filter="none" id="ID_graph_shadow_3" opacity="1" stroke="none" stroke-opacity="1" stroke-width="0">
        <path d="M 0 0 l 0 2.42 s 0 0 0 0 l 80 0 s 0 0 0 -0 l 0 -2.42 z" transform="translate(70,224.2)"/>
        <path d="M 0 0 l 0 2.42 s 0 0 0 0 l 80 0 s 0 0 0 -0 l 0 -2.42 z" fill="url(#WhiteBlackGradient)" transform="translate(70,224.2)"/>
        <path d="M 0 0 l 0 2.42 s 0 0 0 0 l 80 0 s 0 0 0 -0 l 0 -2.42 z" fill-opacity="0.3" filter="url(#SaturateMinus)" transform="translate(70,224.2)"/>
        <path d="M 0 0 l 0 -4.84 s 0 -0 0 -0 l 80 0 s 0 0 0 0 l 0 4.84 z" transform="translate(170,211.6)"/>
        <path d="M 0 0 l 0 -4.84 s 0 -0 0 -0 l 80 0 s 0 0 0 0 l 0 4.84 z" fill="url(#WhiteBlackGradient)" transform="translate(170,211.6)"/>
        <path d="M 0 0 l 0 -4.84 s 0 -0 0 -0 l 80 0 s 0 0 0 0 l 0 4.84 z" fill-opacity="0.3" filter="url(#SaturateMinus)" transform="translate(170,211.6)"/>
        <path d="M 0 0 l 0 7.26 s 0 0 0 0 l 80 0 s 0 0 0 -0 l 0 -7.26 z" transform="translate(270,232.6)"/>
        <path d="M 0 0 l 0 7.26 s 0 0 0 0 l 80 0 s 0 0 0 -0 l 0 -7.26 z" fill="url(#WhiteBlackGradient)" transform="translate(270,232.6)"/>
        <path d="M 0 0 l 0 7.26 s 0 0 0 0 l 80 0 s 0 0 0 -0 l 0 -7.26 z" fill-opacity="0.3" filter="url(#SaturateMinus)" transform="translate(270,232.6)"/>
        <path d="M 0 0 l 0 -9.68 s 0 -0 0 -0 l 80 0 s 0 0 0 0 l 0 9.68 z" transform="translate(370,203.2)"/>
        <path d="M 0 0 l 0 -9.68 s 0 -0 0 -0 l 80 0 s 0 0 0 0 l 0 9.68 z" fill="url(#WhiteBlackGradient)" transform="translate(370,203.2)"/>
        <path d="M 0 0 l 0 -9.68 s 0 -0 0 -0 l 80 0 s 0 0 0 0 l 0 9.68 z" fill-opacity="0.3" filter="url(#SaturateMinus)" transform="translate(370,203.2)"/>
        <path d="M 0 0 l 0 12.1 s 0 0 0 0 l 80 0 s 0 0 0 -0 l 0 -12.1 z" transform="translate(470,241)"/>
        <path d="M 0 0 l 0 12.1 s 0 0 0 0 l 80 0 s 0 0 0 -0 l 0 -12.1 z" fill="url(#WhiteBlackGradient)" transform="translate(470,241)"/>
        <path d="M 0 0 l 0 12.1 s 0 0 0 0 l 80 0 s 0 0 0 -0 l 0 -12.1 z" fill-opacity="0.3" filter="url(#SaturateMinus)" transform="translate(470,241)"/>
        <path d="M 0 0 l 0 -14.52 s 0 -0 0 -0 l 80 0 s 0 0 0 0 l 0 14.52 z" transform="translate(570,194.8)"/>
        <path d="M 0 0 l 0 -14.52 s 0 -0 0 -0 l 80 0 s 0 0 0 0 l 0 14.52 z" fill="url(#WhiteBlackGradient)" transform="translate(570,194.8)"/>
        <path d="M 0 0 l 0 -14.52 s 0 -0 0 -0 l 80 0 s 0 0 0 0 l 0 14.52 z" fill-opacity="0.3" filter="url(#SaturateMinus)" transform="translate(570,194.8)"/>
        <path d="M 0 0 l 0 16.94 s 0 0 0 0 l 80 0 s 0 0 0 -0 l 0 -16.94 z" transform="translate(670,249.4)"/>
        <path d="M 0 0 l 0 16.94 s 0 0 0 0 l 80 0 s 0 0 0 -0 l 0 -16.94 z" fill="url(#WhiteBlackGradient)" transform="translate(670,249.4)"/>
        <path d="M 0 0 l 0 16.94 s 0 0 0 0 l 80 0 s 0 0 0 -0 l 0 -16.94 z" fill-opacity="0.3" filter="url(#SaturateMinus)" transform="translate(670,249.4)"/>
        <path d="M 0 0 l 0 -19.36 s 0 -0 0 -0 l 80 0 s 0 0 0 0 l 0 19.36 z" transform="translate(770,186.4)"/>
        <path d="M 0 0 l 0 -19.36 s 0 -0 0 -0 l 80 0 s 0 0 0 0 l 0 19.36 z" fill="url(#WhiteBlackGradient)" transform="translate(770,186.4)"/>
        <path d="M 0 0 l 0 -19.36 s 0 -0 0 -0 l 80 0 s 0 0 0 0 l 0 19.36 z" fill-opacity="0.3" filter="url(#SaturateMinus)" transform="translate(770,186.4)"/>
      </g>
      <g fill="green" fill-opacity="1" filter="none" id="ID_graph_shadow_4" opacity="1" stroke="none" stroke-opacity="1" stroke-width="0">
        <path d="M 0 0 l 0 2.66 s 0 0 0 0 l 80 0 s 0 0 0 -0 l 0 -2.66 z" transform="translate(70,226.62)"/>
        <path d="M 0 0 l 0 2.66 s 0 0 0 0 l 80 0 s 0 0 0 -0 l 0 -2.66 z" fill="url(#WhiteBlackGradient)" transform="translate(70,226.62)"/>
        <path d="M 0 0 l 0 2.66 s 0 0 0 0 l 80 0 s 0 0 0 -0 l 0 -2.66 z" fill-opacity="0.3" filter="url(#SaturateMinus)" transform="translate(70,226.62)"/>
        <path d="M 0 0 l 0 -5.32 s 0 -0 0 -0 l 80 0 s 0 0 0 0 l 0 5.32 z" transform="translate(170,206.76)"/>
        <path d="M 0 0 l 0 -5.32 s 0 -0 0 -0 l 80 0 s 0 0 0 0 l 0 5.32 z" fill="url(#WhiteBlackGradient)" transform="translate(170,206.76)"/>
        <path d="M 0 0 l 0 -5.32 s 0 -0 0 -0 l 80 0 s 0 0 0 0 l 0 5.32 z" fill-opacity="0.3" filter="url(#SaturateMinus)" transform="translate(170,206.76)"/>
        <path d="M 0 0 l 0 7.99 s 0 0 0 0 l 80 0 s 0 0 0 -0 l 0 -7.99 z" transform="translate(270,239.86)"/>
        <path d="M 0 0 l 0 7.99 s 0 0 0 0 l 80 0 s 0 0 0 -0 l 0 -7.99 z" fill="url(#WhiteBlackGradient)" transform="translate(270,239.86)"/>
        <path d="M 0 0 l 0 7.99 s 0 0 0 0 l 80 0 s 0 0 0 -0 l 0 -7.99 z" fill-opacity="0.3" filter="url(#SaturateMinus)" transform="translate(270,239.86)"/>
        <path d="M 0 0 l 0 -10.65 s 0 -0 0 -0 l 80 0 s 0 0 0 0 l 0 10.65 z" transform="translate(370,193.52)"/>
        <path d="M 0 0 l 0 -10.65 s 0 -0 0 -0 l 80 0 s 0 0 0 0 l 0 10.65 z" fill="url(#WhiteBlackGradient)" transform="translate(370,193.52)"/>
        <path d="M 0 0 l 0 -10.65 s 0 -0 0 -0 l 80 0 s 0 0 0 0 l 0 10.65 z" fill-opacity="0.3" filter="url(#SaturateMinus)" transform="translate(370,193.52)"/>
        <path d="M 0 0 l 0 13.31 s 0 0 0 0 l 80 0 s 0 0 0 -0 l 0 -13.31 z" transform="translate(470,253.1)"/>
        <path d="M 0 0 l 0 13.31 s 0 0 0 0 l 80 0 s 0 0 0 -0 l 0 -13.31 z" fill="url(#WhiteBlackGradient)" transform="translate(470,253.1)"/>
        <path d="M 0 0 l 0 13.31 s 0 0 0 0 l 80 0 s 0 0 0 -0 l 0 -13.31 z" fill-opacity="0.3" filter="url(#SaturateMinus)" transform="translate(470,253.1)"/>
        <path d="M 0 0 l 0 -15.97 s 0 -0 0 -0 l 80 0 s 0 0 0 0 l 0 15.97 z" transform="translate(570,180.28)"/>
        <path d="M 0 0 l 0 -15.97 s 0 -0 0 -0 l 80 0 s 0 0 0 0 l 0 15.97 z" fill="url(#WhiteBlackGradient)" transform="translate(570,180.28)"/>
        <path d="M 0 0 l 0 -15.97 s 0 -0 0 -0 l 80 0 s 0 0 0 0 l 0 15.97 z" fill-opacity="0.3" filter="url(#SaturateMinus)" transform="translate(570,180.28)"/>
        <path d="M 0 0 l 0 18.63 s 0 0 0 0 l 80 0 s 0 0 0 -0 l 0 -18.63 z" transform="translate(670,266.34)"/>
        <path d="M 0 0 l 0 18.63 s 0 0 0 0 l 80 0 s 0 0 0 -0 l 0 -18.63 z" fill="url(#WhiteBlackGradient)" transform="translate(670,266.34)"/>
        <path d="M 0 0 l 0 18.63 s 0 0 0 0 l 80 0 s 0 0 0 -0 l 0 -18.63 z" fill-opacity="0.3" filter="url(#SaturateMinus)" transform="translate(670,266.34)"/>
        <path d="M 0 0 l 0 -21.3 s 0 -0 0 -0 l 80 0 s 0 0 0 0 l 0 21.3 z" transform="translate(770,167.04)"/>
        <path d="M 0 0 l 0 -21.3 s 0 -0 0 -0 l 80 0 s 0 0 0 0 l 0 21.3 z" fill="url(#WhiteBlackGradient)" transform="translate(770,167.04)"/>
        <path d="M 0 0 l 0 -21.3 s 0 -0 0 -0 l 80 0 s 0 0 0 0 l 0 21.3 z" fill-opacity="0.3" filter="url(#SaturateMinus)" transform="translate(770,167.04)"/>
      </g>
      <g fill="yellow" fill-opacity="1" filter="none" id="ID_graph_shadow_5" opacity="1" stroke="none" stroke-opacity="1" stroke-width="0">
        <path d="M 0 0 l 0 2.93 s 0 0 0 0 l 80 0 s 0 0 0 -0 l 0 -2.93 z" transform="translate(70,229.28)"/>
        <path d="M 0 0 l 0 2.93 s 0 0 0 0 l 80 0 s 0 0 0 -0 l 0 -2.93 z" fill="url(#WhiteBlackGradient)" transform="translate(70,229.28)"/>
        <path d="M 0 0 l 0 2.93 s 0 0 0 0 l 80 0 s 0 0 0 -0 l 0 -2.93 z" fill-opacity="0.3" filter="url(#SaturateMinus)" transform="translate(70,229.28)"/>
        <path d="M 0 0 l 0 -5.86 s 0 -0 0 -0 l 80 0 s 0 0 0 0 l 0 5.86 z" transform="translate(170,201.44)"/>
        <path d="M 0 0 l 0 -5.86 s 0 -0 0 -0 l 80 0 s 0 0 0 0 l 0 5.86 z" fill="url(#WhiteBlackGradient)" transform="translate(170,201.44)"/>
        <path d="M 0 0 l 0 -5.86 s 0 -0 0 -0 l 80 0 s 0 0 0 0 l 0 5.86 z" fill-opacity="0.3" filter="url(#SaturateMinus)" transform="translate(170,201.44)"/>
        <path d="M 0 0 l 0 8.78 s 0 0 0 0 l 80 0 s 0 0 0 -0 l 0 -8.78 z" transform="translate(270,247.85)"/>
        <path d="M 0 0 l 0 8.78 s 0 0 0 0 l 80 0 s 0 0 0 -0 l 0 -8.78 z" fill="url(#WhiteBlackGradient)" transform="translate(270,247.85)"/>
        <path d="M 0 0 l 0 8.78 s 0 0 0 0 l 80 0 s 0 0 0 -0 l 0 -8.78 z" fill-opacity="0.3" filter="url(#SaturateMinus)" transform="translate(270,247.85)"/>
        <path d="M 0 0 l 0 -11.71 s 0 -0 0 -0 l 80 0 s 0 0 0 0 l 0 11.71 z" transform="translate(370,182.87)"/>
        <path d="M 0 0 l 0 -11.71 s 0 -0 0 -0 l 80 0 s 0 0 0 0 l 0 11.71 z" fill="url(#WhiteBlackGradient)" transform="translate(370,182.87)"/>
        <path d="M 0 0 l 0 -11.71 s 0 -0 0 -0 l 80 0 s 0 0 0 0 l 0 11.71 z" fill-opacity="0.3" filter="url(#SaturateMinus)" transform="translate(370,182.87)"/>
        <path d="M 0 0 l 0 14.64 s 0 0 0 0 l 80 0 s 0 0 0 -0 l 0 -14.64 z" transform="translate(470,266.41)"/>
        <path d="M 0 0 l 0 14.64 s 0 0 0 0 l 80 0 s 0 0 0 -0 l 0 -14.64 z" fill="url(#WhiteBlackGradient)" transform="translate(470,266.41)"/>
        <path d="M 0 0 l 0 14.64 s 0 0 0 0 l 80 0 s 0 0 0 -0 l 0 -14.64 z" fill-opacity="0.3" filter="url(#SaturateMinus)" transform="translate(470,266.41)"/>
        <path d="M 0 0 l 0 -17.57 s 0 -0 0 -0 l 80 0 s 0 0 0 0 l 0 17.57 z" transform="translate(570,164.31)"/>
        <path d="M 0 0 l 0 -17.57 s 0 -0 0 -0 l 80 0 s 0 0 0 0 l 0 17.57 z" fill="url(#WhiteBlackGradient)" transform="translate(570,164.31)"/>
        <path d="M 0 0 l 0 -17.57 s 0 -0 0 -0 l 80 0 s 0 0 0 0 l 0 17.57 z" fill-opacity="0.3" filter="url(#SaturateMinus)" transform="translate(570,164.31)"/>
        <path d="M 0 0 l 0 20.5 s 0 0 0 0 l 80 0 s 0 0 0 -0 l 0 -20.5 z" transform="translate(670,284.97)"/>
        <path d="M 0 0 l 0 20.5 s 0 0 0 0 l 80 0 s 0 0 0 -0 l 0 -20.5 z" fill="url(#WhiteBlackGradient)" transform="translate(670,284.97)"/>
        <path d="M 0 0 l 0 20.5 s 0 0 0 0 l 80 0 s 0 0 0 -0 l 0 -20.5 z" fill-opacity="0.3" filter="url(#SaturateMinus)" transform="translate(670,284.97)"/>
        <path d="M 0 0 l 0 -23.43 s 0 -0 0 -0 l 80 0 s 0 0 0 0 l 0 23.43 z" transform="translate(770,145.74)"/>
        <path d="M 0 0 l 0 -23.43 s 0 -0 0 -0 l 80 0 s 0 0 0 0 l 0 23.43 z" fill="url(#WhiteBlackGradient)" transform="translate(770,145.74)"/>
        <path d="M 0 0 l 0 -23.43 s 0 -0 0 -0 l 80 0 s 0 0 0 0 l 0 23.43 z" fill-opacity="0.3" filter="url(#SaturateMinus)" transform="translate(770,145.74)"/>
      </g>
      <g fill="orange" fill-opacity="1" filter="none" id="ID_graph_shadow_6" opacity="1" stroke="none" stroke-opacity="1" stroke-width="0">
        <path d="M 0 0 l 0 3.22 s 0 0 0 0 l 80 0 s 0 0 0 -0 l 0 -3.22 z" transform="translate(70,232.21)"/>
        <path d="M 0 0 l 0 3.22 s 0 0 0 0 l 80 0 s 0 0 0 -0 l 0 -3.22 z" fill="url(#WhiteBlackGradient)" transform="translate(70,232.21)"/>
        <path d="M 0 0 l 0 3.22 s 0 0 0 0 l 80 0 s 0 0 0 -0 l 0 -3.22 z" fill-opacity="0.3" filter="url(#SaturateMinus)" transform="translate(70,232.21)"/>
        <path d="M 0 0 l 0 -6.44 s 0 -0 0 -0 l 80 0 s 0 0 0 0 l 0 6.44 z" transform="translate(170,195.58)"/>
        <path d="M 0 0 l 0 -6.44 s 0 -0 0 -0 l 80 0 s 0 0 0 0 l 0 6.44 z" fill="url(#WhiteBlackGradient)" transform="translate(170,195.58)"/>
        <path d="M 0 0 l 0 -6.44 s 0 -0 0 -0 l 80 0 s 0 0 0 0 l 0 6.44 z" fill-opacity="0.3" filter="url(#SaturateMinus)" transform="translate(170,195.58)"/>
        <path d="M 0 0 l 0 9.66 s 0 0 0 0 l 80 0 s 0 0 0 -0 l 0 -9.66 z" transform="translate(270,256.63)"/>
        <path d="M 0 0 l 0 9.66 s 0 0 0 0 l 80 0 s 0 0 0 -0 l 0 -9.66 z" fill="url(#WhiteBlackGradient)" transform="translate(270,256.63)"/>
        <path d="M 0 0 l 0 9.66 s 0 0 0 0 l 80 0 s 0 0 0 -0 l 0 -9.66 z" fill-opacity="0.3" filter="url(#SaturateMinus)" transform="translate(270,256.63)"/>
        <path d="M 0 0 l 0 -12.88 s 0 -0 0 -0 l 80 0 s 0 0 0 0 l 0 12.88 z" transform="translate(370,171.16)"/>
        <path d="M 0 0 l 0 -12.88 s 0 -0 0 -0 l 80 0 s 0 0 0 0 l 0 12.88 z" fill="url(#WhiteBlackGradient)" transform="translate(370,171.16)"/>
        <path d="M 0 0 l 0 -12.88 s 0 -0 0 -0 l 80 0 s 0 0 0 0 l 0 12.88 z" fill-opacity="0.3" filter="url(#SaturateMinus)" transform="translate(370,171.16)"/>
        <path d="M 0 0 l 0 16.11 s 0 0 0 0 l 80 0 s 0 0 0 -0 l 0 -16.11 z" transform="translate(470,281.05)"/>
        <path d="M 0 0 l 0 16.11 s 0 0 0 0 l 80 0 s 0 0 0 -0 l 0 -16.11 z" fill="url(#WhiteBlackGradient)" transform="translate(470,281.05)"/>
        <path d="M 0 0 l 0 16.11 s 0 0 0 0 l 80 0 s 0 0 0 -0 l 0 -16.11 z" fill-opacity="0.3" filter="url(#SaturateMinus)" transform="translate(470,281.05)"/>
        <path d="M 0 0 l 0 -19.33 s 0 -0 0 -0 l 80 0 s 0 0 0 0 l 0 19.33 z" transform="translate(570,146.74)"/>
        <path d="M 0 0 l 0 -19.33 s 0 -0 0 -0 l 80 0 s 0 0 0 0 l 0 19.33 z" fill="url(#WhiteBlackGradient)" transform="translate(570,146.74)"/>
        <path d="M 0 0 l 0 -19.33 s 0 -0 0 -0 l 80 0 s 0 0 0 0 l 0 19.33 z" fill-opacity="0.3" filter="url(#SaturateMinus)" transform="translate(570,146.74)"/>
        <path d="M 0 0 l 0 22.55 s 0 0 0 0 l 80 0 s 0 0 0 -0 l 0 -22.55 z" transform="translate(670,305.47)"/>
        <path d="M 0 0 l 0 22.55 s 0 0 0 0 l 80 0 s 0 0 0 -0 l 0 -22.55 z" fill="url(#WhiteBlackGradient)" transform="translate(670,305.47)"/>
        <path d="M 0 0 l 0 22.55 s 0 0 0 0 l 80 0 s 0 0 0 -0 l 0 -22.55 z" fill-opacity="0.3" filter="url(#SaturateMinus)" transform="translate(670,305.47)"/>
        <path d="M 0 0 l 0 -25.77 s 0 -0 0 -0 l 80 0 s 0 0 0 0 l 0 25.77 z" transform="translate(770,122.31)"/>
        <path d="M 0 0 l 0 -25.77 s 0 -0 0 -0 l 80 0 s 0 0 0 0 l 0 25.77 z" fill="url(#WhiteBlackGradient)" transform="translate(770,122.31)"/>
        <path d="M 0 0 l 0 -25.77 s 0 -0 0 -0 l 80 0 s 0 0 0 0 l 0 25.77 z" fill-opacity="0.3" filter="url(#SaturateMinus)" transform="translate(770,122.31)"/>
      </g>
      <g fill="pink" fill-opacity="1" filter="none" id="ID_graph_shadow_7" opacity="1" stroke="none" stroke-opacity="1" stroke-width="0">
        <path d="M 0 0 l 0 3.54 s 0 0 0 0 l 80 0 s 0 0 0 -0 l 0 -3.54 z" transform="translate(70,235.43)"/>
        <path d="M 0 0 l 0 3.54 s 0 0 0 0 l 80 0 s 0 0 0 -0 l 0 -3.54 z" fill="url(#WhiteBlackGradient)" transform="translate(70,235.43)"/>
        <path d="M 0 0 l 0 3.54 s 0 0 0 0 l 80 0 s 0 0 0 -0 l 0 -3.54 z" fill-opacity="0.3" filter="url(#SaturateMinus)" transform="translate(70,235.43)"/>
        <path d="M 0 0 l 0 -7.09 s 0 -0 0 -0 l 80 0 s 0 0 0 0 l 0 7.09 z" transform="translate(170,189.14)"/>
        <path d="M 0 0 l 0 -7.09 s 0 -0 0 -0 l 80 0 s 0 0 0 0 l 0 7.09 z" fill="url(#WhiteBlackGradient)" transform="translate(170,189.14)"/>
        <path d="M 0 0 l 0 -7.09 s 0 -0 0 -0 l 80 0 s 0 0 0 0 l 0 7.09 z" fill-opacity="0.3" filter="url(#SaturateMinus)" transform="translate(170,189.14)"/>
        <path d="M 0 0 l 0 10.63 s 0 0 0 0 l 80 0 s 0 0 0 -0 l 0 -10.63 z" transform="translate(270,266.29)"/>
        <path d="M 0 0 l 0 10.63 s 0 0 0 0 l 80 0 s 0 0 0 -0 l 0 -10.63 z" fill="url(#WhiteBlackGradient)" transform="translate(270,266.29)"/>
        <path d="M 0 0 l 0 10.63 s 0 0 0 0 l 80 0 s 0 0 0 -0 l 0 -10.63 z" fill-opacity="0.3" filter="url(#SaturateMinus)" transform="translate(270,266.29)"/>
        <path d="M 0 0 l 0 -14.17 s 0 -0 0 -0 l 80 0 s 0 0 0 0 l 0 14.17 z" transform="translate(370,158.28)"/>
        <path d="M 0 0 l 0 -14.17 s 0 -0 0 -0 l 80 0 s 0 0 0 0 l 0 14.17 z" fill="url(#WhiteBlackGradient)" transform="translate(370,158.28)"/>
        <path d="M 0 0 l 0 -14.17 s 0 -0 0 -0 l 80 0 s 0 0 0 0 l 0 14.17 z" fill-opacity="0.3" filter="url(#SaturateMinus)" transform="translate(370,158.28)"/>
        <path d="M 0 0 l 0 17.72 s 0 0 0 0 l 80 0 s 0 0 0 -0 l 0 -17.72 z" transform="translate(470,297.16)"/>
        <path d="M 0 0 l 0 17.72 s 0 0 0 0 l 80 0 s 0 0 0 -0 l 0 -17.72 z" fill="url(#WhiteBlackGradient)" transform="translate(470,297.16)"/>
        <path d="M 0 0 l 0 17.72 s 0 0 0 0 l 80 0 s 0 0 0 -0 l 0 -17.72 z" fill-opacity="0.3" filter="url(#SaturateMinus)" transform="translate(470,297.16)"/>
        <path d="M 0 0 l 0 -21.26 s 0 -0 0 -0 l 80 0 s 0 0 0 0 l 0 21.26 z" transform="translate(570,127.41)"/>
        <path d="M 0 0 l 0 -21.26 s 0 -0 0 -0 l 80 0 s 0 0 0 0 l 0 21.26 z" fill="url(#WhiteBlackGradient)" transform="translate(570,127.41)"/>
        <path d="M 0 0 l 0 -21.26 s 0 -0 0 -0 l 80 0 s 0 0 0 0 l 0 21.26 z" fill-opacity="0.3" filter="url(#SaturateMinus)" transform="translate(570,127.41)"/>
        <path d="M 0 0 l 0 24.8 s 0 0 0 0 l 80 0 s 0 0 0 -0 l 0 -24.8 z" transform="translate(670,328.02)"/>
        <path d="M 0 0 l 0 24.8 s 0 0 0 0 l 80 0 s 0 0 0 -0 l 0 -24.8 z" fill="url(#WhiteBlackGradient)" transform="translate(670,328.02)"/>
        <path d="M 0 0 l 0 24.8 s 0 0 0 0 l 80 0 s 0 0 0 -0 l 0 -24.8 z" fill-opacity="0.3" filter="url(#SaturateMinus)" transform="translate(670,328.02)"/>
        <path d="M 0 0 l 0 -28.34 s 0 -0 0 -0 l 80 0 s 0 0 0 0 l 0 28.34 z" transform="translate(770,96.54)"/>
        <path d="M 0 0 l 0 -28.34 s 0 -0 0 -0 l 80 0 s 0 0 0 0 l 0 28.34 z" fill="url(#WhiteBlackGradient)" transform="translate(770,96.54)"/>
        <path d="M 0 0 l 0 -28.34 s 0 -0 0 -0 l 80 0 s 0 0 0 0 l 0 28.34 z" fill-opacity="0.3" filter="url(#SaturateMinus)" transform="translate(770,96.54)"/>
      </g>
      <g fill="red" fill-opacity="1" filter="none" id="ID_graph_shadow_8" opacity="1" stroke="none" stroke-opacity="1" stroke-width="0">
        <path d="M 0 0 l 0 3.9 s 0 0 0 0 l 80 0 s 0 0 0 -0 l 0 -3.9 z" transform="translate(70,238.97)"/>
        <path d="M 0 0 l 0 3.9 s 0 0 0 0 l 80 0 s 0 0 0 -0 l 0 -3.9 z" fill="url(#WhiteBlackGradient)" transform="translate(70,238.97)"/>
        <path d="M 0 0 l 0 3.9 s 0 0 0 0 l 80 0 s 0 0 0 -0 l 0 -3.9 z" fill-opacity="0.3" filter="url(#SaturateMinus)" transform="translate(70,238.97)"/>
        <path d="M 0 0 l 0 -7.79 s 0 -0 0 -0 l 80 0 s 0 0 0 0 l 0 7.79 z" transform="translate(170,182.05)"/>
        <path d="M 0 0 l 0 -7.79 s 0 -0 0 -0 l 80 0 s 0 0 0 0 l 0 7.79 z" fill="url(#WhiteBlackGradient)" transform="translate(170,182.05)"/>
        <path d="M 0 0 l 0 -7.79 s 0 -0 0 -0 l 80 0 s 0 0 0 0 l 0 7.79 z" fill-opacity="0.3" filter="url(#SaturateMinus)" transform="translate(170,182.05)"/>
        <path d="M 0 0 l 0 11.69 s 0 0 0 0 l 80 0 s 0 0 0 -0 l 0 -11.69 z" transform="translate(270,276.92)"/>
        <path d="M 0 0 l 0 11.69 s 0 0 0 0 l 80 0 s 0 0 0 -0 l 0 -11.69 z" fill="url(#WhiteBlackGradient)" transform="translate(270,276.92)"/>
        <path d="M 0 0 l 0 11.69 s 0 0 0 0 l 80 0 s 0 0 0 -0 l 0 -11.69 z" fill-opacity="0.3" filter="url(#SaturateMinus)" transform="translate(270,276.92)"/>
        <path d="M 0 0 l 0 -15.59 s 0 -0 0 -0 l 80 0 s 0 0 0 0 l 0 15.59 z" transform="translate(370,144.11)"/>
        <path d="M 0 0 l 0 -15.59 s 0 -0 0 -0 l 80 0 s 0 0 0 0 l 0 15.59 z" fill="url(#WhiteBlackGradient)" transform="translate(370,144.11)"/>
        <path d="M 0 0 l 0 -15.59 s 0 -0 0 -0 l 80 0 s 0 0 0 0 l 0 15.59 z" fill-opacity="0.3" filter="url(#SaturateMinus)" transform="translate(370,144.11)"/>
        <path d="M 0 0 l 0 19.49 s 0 0 0 0 l 80 0 s 0 0 0 -0 l 0 -19.49 z" transform="translate(470,314.88)"/>
        <path d="M 0 0 l 0 19.49 s 0 0 0 0 l 80 0 s 0 0 0 -0 l 0 -19.49 z" fill="url(#WhiteBlackGradient)" transform="translate(470,314.88)"/>
        <path d="M 0 0 l 0 19.49 s 0 0 0 0 l 80 0 s 0 0 0 -0 l 0 -19.49 z" fill-opacity="0.3" filter="url(#SaturateMinus)" transform="translate(470,314.88)"/>
        <path d="M 0 0 l 0 -23.38 s 0 -0 0 -0 l 80 0 s 0 0 0 0 l 0 23.38 z" transform="translate(570,106.15)"/>
        <path d="M 0 0 l 0 -23.38 s 0 -0 0 -0 l 80 0 s 0 0 0 0 l 0 23.38 z" fill="url(#WhiteBlackGradient)" transform="translate(570,106.15)"/>
        <path d="M 0 0 l 0 -23.38 s 0 -0 0 -0 l 80 0 s 0 0 0 0 l 0 23.38 z" fill-opacity="0.3" filter="url(#SaturateMinus)" transform="translate(570,106.15)"/>
        <path d="M 0 0 l 0 27.28 s 0 0 0 0 l 80 0 s 0 0 0 -0 l 0 -27.28 z" transform="translate(670,352.82)"/>
        <path d="M 0 0 l 0 27.28 s 0 0 0 0 l 80 0 s 0 0 0 -0 l 0 -27.28 z" fill="url(#WhiteBlackGradient)" transform="translate(670,352.82)"/>
        <path d="M 0 0 l 0 27.28 s 0 0 0 0 l 80 0 s 0 0 0 -0 l 0 -27.28 z" fill-opacity="0.3" filter="url(#SaturateMinus)" transform="translate(670,352.82)"/>
        <path d="M 0 0 l 0 -31.18 s 0 -0 0 -0 l 80 0 s 0 0 0 0 l 0 31.18 z" transform="translate(770,68.2)"/>
        <path d="M 0 0 l 0 -31.18 s 0 -0 0 -0 l 80 0 s 0 0 0 0 l 0 31.18 z" fill="url(#WhiteBlackGradient)" transform="translate(770,68.2)"/>
        <path d="M 0 0 l 0 -31.18 s 0 -0 0 -0 l 80 0 s 0 0 0 0 l 0 31.18 z" fill-opacity="0.3" filter="url(#SaturateMinus)" transform="translate(770,68.2)"/>
      </g>
    </g>
  </g>

</svg>