<?xml version="1.0" encoding="UTF-8" standalone="no" ?><svg xmlns="http://www.w3.org/2000/svg" id="ID_svg" viewBox="0 0 1168 500" viewport-fill="white" viewport-fill-opacity="0" xmlns:exsl4D="http://www.4D.com" xmlns:math="http://exslt.org/math" xmlns:xlink="http://www.w3.org/1999/xlink"><!--gradient styles--><defs><filter id="soft_blur"><feGaussianBlur in="SourceGraphic" result="BlurAlpha" stdDeviation="1"/></filter><filter id="pastel"><feGaussianBlur in="SourceAlpha" result="blur" stdDeviation="2"/><feOffset dx="6" dy="6" in="blur" result="offsetBlur"/><feComposite in="SourceGraphic" in2="offsetBlur" operator="in" result="specOut"/></filter><filter id="blur_shadow"><feGaussianBlur in="SourceAlpha" result="blur" stdDeviation="3"/><feOffset dx="4" dy="2" in="blur" result="offsetBlur"/><feBlend in="SourceGraphic" in2="offsetBlur" mode="normal"/></filter><filter filterUnits="objectBoundingBox" id="Shadow"><feGaussianBlur in="SourceAlpha" result="flou" stdDeviation="0"/><feColorMatrix in="SourceAlpha" result="flouBlue" type="matrix" values=" 0 0 0 0 0                      0 0 0 0 0                     0 0 0 0 0                      0 0 0 0.3 0"/><feOffset dx="4" dy="4" in="flouBlue" result="flouDecalage"/><feBlend in="SourceGraphic" in2="flouDecalage" mode="normal"/></filter><filter filterUnits="objectBoundingBox" height="100%" id="SaturateMinus" width="100%" x="0%" y="0%"><feColorMatrix in="SourceGraphic" type="saturate" values="0.5"/></filter><filter filterUnits="objectBoundingBox" height="100%" id="SaturatePlus" width="100%" x="0%" y="0%"><feColorMatrix in="SourceGraphic" type="saturate" values="1.4"/></filter><linearGradient id="BlackGradient"><stop offset="0%" style="stop-color:rgb(0,0,0); stop-opacity:0"/><stop offset="100%" style="stop-color:rgb(0,0,0); stop-opacity:0.1"/></linearGradient><linearGradient id="WhiteGradient" x1="0%" x2="100%" y1="0%" y2="0%"><stop offset="0%" style="stop-color:rgb(255,255,255); stop-opacity:0.3"/><stop offset="100%" style="stop-color:rgb(255,255,255);stop-opacity:0"/></linearGradient><linearGradient id="WhiteBlackGradient" x1="0%" x2="100%" y1="0%" y2="0%"><stop offset="0%" style="stop-color:rgb(255,255,255); stop-opacity:0.15"/><stop offset="100%" style="stop-color:rgb(0,0,0);stop-opacity:0.15"/></linearGradient><linearGradient id="Black0Black1Gradient" x1="0%" x2="0%" y1="0%" y2="100%"><stop offset="0%" style="stop-color:rgb(0,0,0); stop-opacity:0"/><stop offset="100%" style="stop-color:rgb(0,0,0);stop-opacity:0.05"/></linearGradient><clipPath id="ID_graph_clip"><rect height="446" width="1120" x="38" y="22"/></clipPath></defs><!--global stroke and font styles--><g id="ID_globals" style="fill:black;stroke:none;font-family:Arial;font-size:12px;font-weight:normal;font-style:normal;text-decoration:none;shape-rendering:crispEdges"><!--draw title--><!--draw legend--><!--draw graph background--><rect fill="rgb(168,168,168)" fill-opacity="1" height="446" id="ID_background_shadow" rx="10" ry="10" stroke="none" visibility="visible" width="1120" x="39" y="23"/><g fill="rgb(229,229,229)" id="ID_background" visibility="visible"><rect height="446" rx="10" ry="10" stroke="none" width="1120" x="38" y="22"/><rect fill="url(#Black0Black1Gradient)" height="446" rx="10" ry="10" stroke="none" width="1120" x="38" y="22"/></g><clipPath id="ID_backgroundClipPath"><rect height="447" rx="10" ry="10" width="1121" x="38" y="22"/></clipPath><!--draw Y grid lines--><!--draw Y grid lines SHADOWS--><!--draw X grid lines--><!--draw X grid lines SHADOWS --><!--draw y=0 axe--><g id="ID_y0_axis" stroke="rgb(100,100,100)" stroke-width="1" visibility="visible"><line x1="38" x2="1158" y1="265.27272727272725" y2="265.27272727272725"/></g><!--draw axis x labels--><g id="ID_x_values" style="fill:black;stroke:none;font-family:Arial;font-size:12px;font-weight:normal;font-style:normal;text-decoration:none;filter:none"><text text-anchor="middle" x="111" y="486.8">PT8H0M0S</text><text text-anchor="middle" x="251" y="486.8">PT9H0M0S</text><text text-anchor="middle" x="391" y="486.8">PT10H0M0S</text><text text-anchor="middle" x="531" y="486.8">PT11H0M0S</text><text text-anchor="middle" x="671" y="486.8">PT11H15M0S</text><text text-anchor="middle" x="811" y="486.8">PT14H45M0S</text><text text-anchor="middle" x="951" y="486.8">PT15H0M0S</text><text text-anchor="middle" x="1091" y="486.8">PT16H0M0S</text></g><!--draw axis y labels--><g id="ID_y_values" style="fill:black;stroke:none;font-family:Arial;font-size:12px;font-weight:normal;font-style:normal;text-decoration:none;filter:none"><text text-anchor="end" x="28" y="472.8">-10</text><text text-anchor="end" x="28" y="432.25454545454545">-8</text><text text-anchor="end" x="28" y="391.7090909090909">-6</text><text text-anchor="end" x="28" y="351.1636363636364">-4</text><text text-anchor="end" x="28" y="310.6181818181818">-2</text><text text-anchor="end" x="28" y="270.07272727272726">0</text><text text-anchor="end" x="28" y="229.52727272727273">2</text><text text-anchor="end" x="28" y="188.9818181818182">4</text><text text-anchor="end" x="28" y="148.43636363636364">6</text><text text-anchor="end" x="28" y="107.89090909090906">8</text><text text-anchor="end" x="28" y="67.3454545454545">10</text><text text-anchor="end" x="28" y="26.8">12</text></g><!--draw lines and bullets--><g filter="none" stroke-width="2"><!--draw line for data type 1--><g filter="none" id="ID_graph_1" stroke="rgb(0,178,195)" stroke-opacity="1" stroke-width="2"><line fill-opacity="1" x1="108" x2="248" y1="285.5454545454545" y2="224.7272727272727"/><line fill-opacity="1" x1="248" x2="388" y1="224.7272727272727" y2="326.09090909090907"/><line fill-opacity="1" x1="388" x2="528" y1="326.09090909090907" y2="184.18181818181816"/><line fill-opacity="1" x1="528" x2="668" y1="184.18181818181816" y2="366.6363636363636"/><line fill-opacity="1" x1="668" x2="808" y1="366.6363636363636" y2="143.63636363636363"/><line fill-opacity="1" x1="808" x2="948" y1="143.63636363636363" y2="407.18181818181813"/><line fill-opacity="1" x1="948" x2="1088" y1="407.18181818181813" y2="103.09090909090907"/></g><!--draw line for data type 2--><g filter="none" id="ID_graph_2" stroke="rgb(255,195,56)" stroke-opacity="1" stroke-width="2"><line fill-opacity="1" x1="108" x2="248" y1="287.57272727272726" y2="220.67272727272723"/><line fill-opacity="1" x1="248" x2="388" y1="220.67272727272723" y2="332.17272727272723"/><line fill-opacity="1" x1="388" x2="528" y1="332.17272727272723" y2="176.07272727272724"/><line fill-opacity="1" x1="528" x2="668" y1="176.07272727272724" y2="376.77272727272725"/><line fill-opacity="1" x1="668" x2="808" y1="376.77272727272725" y2="131.47272727272727"/><line fill-opacity="1" x1="808" x2="948" y1="131.47272727272727" y2="421.3727272727273"/><line fill-opacity="1" x1="948" x2="1088" y1="421.3727272727273" y2="86.87272727272722"/></g><!--draw line for data type 3--><g filter="none" id="ID_graph_3" stroke="rgb(87,62,130)" stroke-opacity="1" stroke-width="2"><line fill-opacity="1" x1="108" x2="248" y1="289.8027272727272" y2="216.21272727272725"/><line fill-opacity="1" x1="248" x2="388" y1="216.21272727272725" y2="338.8627272727273"/><line fill-opacity="1" x1="388" x2="528" y1="338.8627272727273" y2="167.15272727272725"/><line fill-opacity="1" x1="528" x2="668" y1="167.15272727272725" y2="387.92272727272723"/><line fill-opacity="1" x1="668" x2="808" y1="387.92272727272723" y2="118.09272727272725"/><line fill-opacity="1" x1="808" x2="948" y1="118.09272727272725" y2="436.9827272727273"/><line fill-opacity="1" x1="948" x2="1088" y1="436.9827272727273" y2="69.03272727272724"/></g><!--draw line for data type 4--><g filter="none" id="ID_graph_4" stroke="rgb(79,168,57)" stroke-opacity="1" stroke-width="2"><line fill-opacity="1" x1="108" x2="248" y1="292.25572727272726" y2="211.30672727272724"/><line fill-opacity="1" x1="248" x2="388" y1="211.30672727272724" y2="346.22172727272726"/><line fill-opacity="1" x1="388" x2="528" y1="346.22172727272726" y2="157.34072727272724"/><line fill-opacity="1" x1="528" x2="668" y1="157.34072727272724" y2="400.1877272727273"/><line fill-opacity="1" x1="668" x2="808" y1="400.1877272727273" y2="103.37472727272726"/><line fill-opacity="1" x1="808" x2="948" y1="103.37472727272726" y2="454.1537272727272"/><line fill-opacity="1" x1="948" x2="1088" y1="454.1537272727272" y2="49.40872727272725"/></g><g id="allBullets"><!--draw bullet for data type 1--><g fill="rgb(0,178,195)" fill-opacity="1" filter="none" id="ID_bullet_1" stroke="none" stroke-opacity="1" stroke-width="1"><rect height="12" rx="1.5" ry="1.5" width="12" x="102" y="279.5454545454545"/><rect fill="url(#WhiteBlackGradient)" height="12" rx="1.5" ry="1.5" width="12" x="102" y="279.5454545454545"/><rect fill-opacity="0.3" filter="url(#SaturateMinus)" height="12" rx="1.5" ry="1.5" width="12" x="102" y="279.5454545454545"/><rect height="12" rx="1.5" ry="1.5" width="12" x="242" y="218.7272727272727"/><rect fill="url(#WhiteBlackGradient)" height="12" rx="1.5" ry="1.5" width="12" x="242" y="218.7272727272727"/><rect fill-opacity="0.3" filter="url(#SaturateMinus)" height="12" rx="1.5" ry="1.5" width="12" x="242" y="218.7272727272727"/><rect height="12" rx="1.5" ry="1.5" width="12" x="382" y="320.09090909090907"/><rect fill="url(#WhiteBlackGradient)" height="12" rx="1.5" ry="1.5" width="12" x="382" y="320.09090909090907"/><rect fill-opacity="0.3" filter="url(#SaturateMinus)" height="12" rx="1.5" ry="1.5" width="12" x="382" y="320.09090909090907"/><rect height="12" rx="1.5" ry="1.5" width="12" x="522" y="178.18181818181816"/><rect fill="url(#WhiteBlackGradient)" height="12" rx="1.5" ry="1.5" width="12" x="522" y="178.18181818181816"/><rect fill-opacity="0.3" filter="url(#SaturateMinus)" height="12" rx="1.5" ry="1.5" width="12" x="522" y="178.18181818181816"/><rect height="12" rx="1.5" ry="1.5" width="12" x="662" y="360.6363636363636"/><rect fill="url(#WhiteBlackGradient)" height="12" rx="1.5" ry="1.5" width="12" x="662" y="360.6363636363636"/><rect fill-opacity="0.3" filter="url(#SaturateMinus)" height="12" rx="1.5" ry="1.5" width="12" x="662" y="360.6363636363636"/><rect height="12" rx="1.5" ry="1.5" width="12" x="802" y="137.63636363636363"/><rect fill="url(#WhiteBlackGradient)" height="12" rx="1.5" ry="1.5" width="12" x="802" y="137.63636363636363"/><rect fill-opacity="0.3" filter="url(#SaturateMinus)" height="12" rx="1.5" ry="1.5" width="12" x="802" y="137.63636363636363"/><rect height="12" rx="1.5" ry="1.5" width="12" x="942" y="401.18181818181813"/><rect fill="url(#WhiteBlackGradient)" height="12" rx="1.5" ry="1.5" width="12" x="942" y="401.18181818181813"/><rect fill-opacity="0.3" filter="url(#SaturateMinus)" height="12" rx="1.5" ry="1.5" width="12" x="942" y="401.18181818181813"/><rect height="12" rx="1.5" ry="1.5" width="12" x="1082" y="97.09090909090907"/><rect fill="url(#WhiteBlackGradient)" height="12" rx="1.5" ry="1.5" width="12" x="1082" y="97.09090909090907"/><rect fill-opacity="0.3" filter="url(#SaturateMinus)" height="12" rx="1.5" ry="1.5" width="12" x="1082" y="97.09090909090907"/></g><!--draw bullet for data type 2--><g fill="rgb(255,195,56)" fill-opacity="1" filter="none" id="ID_bullet_2" stroke="none" stroke-opacity="1" stroke-width="1"><rect height="12" rx="1.5" ry="1.5" width="12" x="102" y="281.57272727272726"/><rect fill="url(#WhiteBlackGradient)" height="12" rx="1.5" ry="1.5" width="12" x="102" y="281.57272727272726"/><rect fill-opacity="0.3" filter="url(#SaturateMinus)" height="12" rx="1.5" ry="1.5" width="12" x="102" y="281.57272727272726"/><rect height="12" rx="1.5" ry="1.5" width="12" x="242" y="214.67272727272723"/><rect fill="url(#WhiteBlackGradient)" height="12" rx="1.5" ry="1.5" width="12" x="242" y="214.67272727272723"/><rect fill-opacity="0.3" filter="url(#SaturateMinus)" height="12" rx="1.5" ry="1.5" width="12" x="242" y="214.67272727272723"/><rect height="12" rx="1.5" ry="1.5" width="12" x="382" y="326.17272727272723"/><rect fill="url(#WhiteBlackGradient)" height="12" rx="1.5" ry="1.5" width="12" x="382" y="326.17272727272723"/><rect fill-opacity="0.3" filter="url(#SaturateMinus)" height="12" rx="1.5" ry="1.5" width="12" x="382" y="326.17272727272723"/><rect height="12" rx="1.5" ry="1.5" width="12" x="522" y="170.07272727272724"/><rect fill="url(#WhiteBlackGradient)" height="12" rx="1.5" ry="1.5" width="12" x="522" y="170.07272727272724"/><rect fill-opacity="0.3" filter="url(#SaturateMinus)" height="12" rx="1.5" ry="1.5" width="12" x="522" y="170.07272727272724"/><rect height="12" rx="1.5" ry="1.5" width="12" x="662" y="370.77272727272725"/><rect fill="url(#WhiteBlackGradient)" height="12" rx="1.5" ry="1.5" width="12" x="662" y="370.77272727272725"/><rect fill-opacity="0.3" filter="url(#SaturateMinus)" height="12" rx="1.5" ry="1.5" width="12" x="662" y="370.77272727272725"/><rect height="12" rx="1.5" ry="1.5" width="12" x="802" y="125.47272727272727"/><rect fill="url(#WhiteBlackGradient)" height="12" rx="1.5" ry="1.5" width="12" x="802" y="125.47272727272727"/><rect fill-opacity="0.3" filter="url(#SaturateMinus)" height="12" rx="1.5" ry="1.5" width="12" x="802" y="125.47272727272727"/><rect height="12" rx="1.5" ry="1.5" width="12" x="942" y="415.3727272727273"/><rect fill="url(#WhiteBlackGradient)" height="12" rx="1.5" ry="1.5" width="12" x="942" y="415.3727272727273"/><rect fill-opacity="0.3" filter="url(#SaturateMinus)" height="12" rx="1.5" ry="1.5" width="12" x="942" y="415.3727272727273"/><rect height="12" rx="1.5" ry="1.5" width="12" x="1082" y="80.87272727272722"/><rect fill="url(#WhiteBlackGradient)" height="12" rx="1.5" ry="1.5" width="12" x="1082" y="80.87272727272722"/><rect fill-opacity="0.3" filter="url(#SaturateMinus)" height="12" rx="1.5" ry="1.5" width="12" x="1082" y="80.87272727272722"/></g><!--draw bullet for data type 3--><g fill="rgb(87,62,130)" fill-opacity="1" filter="none" id="ID_bullet_3" stroke="none" stroke-opacity="1" stroke-width="1"><rect height="12" rx="1.5" ry="1.5" width="12" x="102" y="283.8027272727272"/><rect fill="url(#WhiteBlackGradient)" height="12" rx="1.5" ry="1.5" width="12" x="102" y="283.8027272727272"/><rect fill-opacity="0.3" filter="url(#SaturateMinus)" height="12" rx="1.5" ry="1.5" width="12" x="102" y="283.8027272727272"/><rect height="12" rx="1.5" ry="1.5" width="12" x="242" y="210.21272727272725"/><rect fill="url(#WhiteBlackGradient)" height="12" rx="1.5" ry="1.5" width="12" x="242" y="210.21272727272725"/><rect fill-opacity="0.3" filter="url(#SaturateMinus)" height="12" rx="1.5" ry="1.5" width="12" x="242" y="210.21272727272725"/><rect height="12" rx="1.5" ry="1.5" width="12" x="382" y="332.8627272727273"/><rect fill="url(#WhiteBlackGradient)" height="12" rx="1.5" ry="1.5" width="12" x="382" y="332.8627272727273"/><rect fill-opacity="0.3" filter="url(#SaturateMinus)" height="12" rx="1.5" ry="1.5" width="12" x="382" y="332.8627272727273"/><rect height="12" rx="1.5" ry="1.5" width="12" x="522" y="161.15272727272725"/><rect fill="url(#WhiteBlackGradient)" height="12" rx="1.5" ry="1.5" width="12" x="522" y="161.15272727272725"/><rect fill-opacity="0.3" filter="url(#SaturateMinus)" height="12" rx="1.5" ry="1.5" width="12" x="522" y="161.15272727272725"/><rect height="12" rx="1.5" ry="1.5" width="12" x="662" y="381.92272727272723"/><rect fill="url(#WhiteBlackGradient)" height="12" rx="1.5" ry="1.5" width="12" x="662" y="381.92272727272723"/><rect fill-opacity="0.3" filter="url(#SaturateMinus)" height="12" rx="1.5" ry="1.5" width="12" x="662" y="381.92272727272723"/><rect height="12" rx="1.5" ry="1.5" width="12" x="802" y="112.09272727272725"/><rect fill="url(#WhiteBlackGradient)" height="12" rx="1.5" ry="1.5" width="12" x="802" y="112.09272727272725"/><rect fill-opacity="0.3" filter="url(#SaturateMinus)" height="12" rx="1.5" ry="1.5" width="12" x="802" y="112.09272727272725"/><rect height="12" rx="1.5" ry="1.5" width="12" x="942" y="430.9827272727273"/><rect fill="url(#WhiteBlackGradient)" height="12" rx="1.5" ry="1.5" width="12" x="942" y="430.9827272727273"/><rect fill-opacity="0.3" filter="url(#SaturateMinus)" height="12" rx="1.5" ry="1.5" width="12" x="942" y="430.9827272727273"/><rect height="12" rx="1.5" ry="1.5" width="12" x="1082" y="63.03272727272724"/><rect fill="url(#WhiteBlackGradient)" height="12" rx="1.5" ry="1.5" width="12" x="1082" y="63.03272727272724"/><rect fill-opacity="0.3" filter="url(#SaturateMinus)" height="12" rx="1.5" ry="1.5" width="12" x="1082" y="63.03272727272724"/></g><!--draw bullet for data type 4--><g fill="rgb(79,168,57)" fill-opacity="1" filter="none" id="ID_bullet_4" stroke="none" stroke-opacity="1" stroke-width="1"><rect height="12" rx="1.5" ry="1.5" width="12" x="102" y="286.25572727272726"/><rect fill="url(#WhiteBlackGradient)" height="12" rx="1.5" ry="1.5" width="12" x="102" y="286.25572727272726"/><rect fill-opacity="0.3" filter="url(#SaturateMinus)" height="12" rx="1.5" ry="1.5" width="12" x="102" y="286.25572727272726"/><rect height="12" rx="1.5" ry="1.5" width="12" x="242" y="205.30672727272724"/><rect fill="url(#WhiteBlackGradient)" height="12" rx="1.5" ry="1.5" width="12" x="242" y="205.30672727272724"/><rect fill-opacity="0.3" filter="url(#SaturateMinus)" height="12" rx="1.5" ry="1.5" width="12" x="242" y="205.30672727272724"/><rect height="12" rx="1.5" ry="1.5" width="12" x="382" y="340.22172727272726"/><rect fill="url(#WhiteBlackGradient)" height="12" rx="1.5" ry="1.5" width="12" x="382" y="340.22172727272726"/><rect fill-opacity="0.3" filter="url(#SaturateMinus)" height="12" rx="1.5" ry="1.5" width="12" x="382" y="340.22172727272726"/><rect height="12" rx="1.5" ry="1.5" width="12" x="522" y="151.34072727272724"/><rect fill="url(#WhiteBlackGradient)" height="12" rx="1.5" ry="1.5" width="12" x="522" y="151.34072727272724"/><rect fill-opacity="0.3" filter="url(#SaturateMinus)" height="12" rx="1.5" ry="1.5" width="12" x="522" y="151.34072727272724"/><rect height="12" rx="1.5" ry="1.5" width="12" x="662" y="394.1877272727273"/><rect fill="url(#WhiteBlackGradient)" height="12" rx="1.5" ry="1.5" width="12" x="662" y="394.1877272727273"/><rect fill-opacity="0.3" filter="url(#SaturateMinus)" height="12" rx="1.5" ry="1.5" width="12" x="662" y="394.1877272727273"/><rect height="12" rx="1.5" ry="1.5" width="12" x="802" y="97.37472727272726"/><rect fill="url(#WhiteBlackGradient)" height="12" rx="1.5" ry="1.5" width="12" x="802" y="97.37472727272726"/><rect fill-opacity="0.3" filter="url(#SaturateMinus)" height="12" rx="1.5" ry="1.5" width="12" x="802" y="97.37472727272726"/><rect height="12" rx="1.5" ry="1.5" width="12" x="942" y="448.1537272727272"/><rect fill="url(#WhiteBlackGradient)" height="12" rx="1.5" ry="1.5" width="12" x="942" y="448.1537272727272"/><rect fill-opacity="0.3" filter="url(#SaturateMinus)" height="12" rx="1.5" ry="1.5" width="12" x="942" y="448.1537272727272"/><rect height="12" rx="1.5" ry="1.5" width="12" x="1082" y="43.40872727272725"/><rect fill="url(#WhiteBlackGradient)" height="12" rx="1.5" ry="1.5" width="12" x="1082" y="43.40872727272725"/><rect fill-opacity="0.3" filter="url(#SaturateMinus)" height="12" rx="1.5" ry="1.5" width="12" x="1082" y="43.40872727272725"/></g></g></g></g></svg>