
<svg xmlns="http://www.w3.org/2000/svg" id="ID_svg" viewBox="0 0 1194 448" viewport-fill="none" viewport-fill-opacity="1" xmlns:exsl4D="http://www.4D.com" xmlns:gFunc="http://gFunc" xmlns:math="http://exslt.org/math" xmlns:xlink="http://www.w3.org/1999/xlink">

  <!--gradient styles-->

  <defs>
    <filter id="soft_blur">
      <feGaussianBlur in="SourceGraphic" result="BlurAlpha" stdDeviation="1"/>
    </filter>
    <filter id="pastel">
      <feGaussianBlur in="SourceAlpha" result="blur" stdDeviation="2"/>
      <feOffset dx="6" dy="6" in="blur" result="offsetBlur"/>
      <feComposite in="SourceGraphic" in2="offsetBlur" operator="in" result="specOut"/>
    </filter>
    <filter id="blur_shadow">
      <feGaussianBlur in="SourceAlpha" result="blur" stdDeviation="3"/>
      <feOffset dx="4" dy="2" in="blur" result="offsetBlur"/>
      <feBlend in="SourceGraphic" in2="offsetBlur" mode="normal"/>
    </filter>
    <filter filterUnits="objectBoundingBox" id="Shadow">
      <feGaussianBlur in="SourceAlpha" result="flou" stdDeviation="0"/>
      <feColorMatrix in="SourceAlpha" result="flouBlue" type="matrix" values=" 0 0 0 0 0                      0 0 0 0 0                     0 0 0 0 0                      0 0 0 0.3 0"/>
      <feOffset dx="4" dy="4" in="flouBlue" result="flouDecalage"/>
      <feBlend in="SourceGraphic" in2="flouDecalage" mode="normal"/>
    </filter>
    <filter filterUnits="objectBoundingBox" height="100%" id="SaturateMinus" width="100%" x="0%" y="0%">
      <feColorMatrix in="SourceGraphic" type="saturate" values="0.5"/>
    </filter>
    <filter filterUnits="objectBoundingBox" height="100%" id="SaturatePlus" width="100%" x="0%" y="0%">
      <feColorMatrix in="SourceGraphic" type="saturate" values="1.4"/>
    </filter>
    <linearGradient id="BlackGradient">
      <stop offset="0%" style="stop-color:rgb(0,0,0); stop-opacity:0"/>
      <stop offset="100%" style="stop-color:rgb(0,0,0); stop-opacity:0.1"/>
    </linearGradient>
    <linearGradient id="WhiteGradient" x1="0%" x2="100%" y1="0%" y2="0%">
      <stop offset="0%" style="stop-color:rgb(255,255,255); stop-opacity:0.3"/>
      <stop offset="100%" style="stop-color:rgb(255,255,255);stop-opacity:0"/>
    </linearGradient>
    <linearGradient id="WhiteBlackGradient" x1="0%" x2="100%" y1="0%" y2="0%">
      <stop offset="0%" style="stop-color:rgb(255,255,255); stop-opacity:0.15"/>
      <stop offset="100%" style="stop-color:rgb(0,0,0);stop-opacity:0.15"/>
    </linearGradient>
    <linearGradient id="Black0Black1Gradient" x1="0%" x2="0%" y1="0%" y2="100%">
      <stop offset="0%" style="stop-color:rgb(0,0,0); stop-opacity:0"/>
      <stop offset="100%" style="stop-color:rgb(0,0,0);stop-opacity:0.05"/>
    </linearGradient>
  </defs>

  <!--global stroke and font styles-->

  <g id="ID_globals" style="fill:black;stroke:none;font-family:Arial;font-size:12px;font-weight:normal;font-style:normal;text-decoration:none;shape-rendering:crispEdges">
    <!--draw title-->
    <!--********************************draw graph background********************************-->
    <rect fill="rgb(168,168,168)" height="400" id="ID_background_shadow" opacity="1" rx="10" ry="10" stroke="none" transform="translate(1,1)" visibility="visible" width="976" x="42" y="12"/>
    <g fill="rgb(229,229,229)" id="ID_background" opacity="1" stroke="none" visibility="visible">
      <rect height="400" rx="10" ry="10" stroke="none" width="976" x="42" y="12"/>
      <rect fill="url(#Black0Black1Gradient)" height="400" rx="10" ry="10" stroke="none" width="976" x="42" y="12"/>
    </g>
    <clipPath id="ID_backgroundClipPath">
      <rect height="401" rx="10" ry="10" width="977" x="41" y="11"/>
    </clipPath>
    <!--********************************draw Y Labels********************************-->
    <g id="ID_y$value" style="fill:black;stroke:none;font-family:Arial;font-size:12px;font-weight:normal;font-style:normal;text-decoration:none;filter:none" visibility="visible">
      <text text-anchor="end" x="30" y="18">14</text>
      <text text-anchor="end" x="30" y="48.77">12</text>
      <text text-anchor="end" x="30" y="79.54">10</text>
      <text text-anchor="end" x="30" y="110.31">8</text>
      <text text-anchor="end" x="30" y="141.08">6</text>
      <text text-anchor="end" x="30" y="171.85">4</text>
      <text text-anchor="end" x="30" y="202.62">2</text>
      <text text-anchor="end" x="30" y="233.39">0</text>
      <text text-anchor="end" x="30" y="264.16">-2</text>
      <text text-anchor="end" x="30" y="294.93">-4</text>
      <text text-anchor="end" x="30" y="325.7">-6</text>
      <text text-anchor="end" x="30" y="356.47">-8</text>
      <text text-anchor="end" x="30" y="387.24">-10</text>
      <text text-anchor="end" x="30" y="418.01">-12</text>
    </g>
    <!--********************************draw X Labels********************************-->
    <!--draw axis x labels-->
    <g id="ID_x$value" style="fill:black;stroke:none;font-family:Arial;font-size:12px;font-weight:normal;font-style:normal;text-decoration:none;filter:none" visibility="visible">
      <text text-anchor="middle" x="103" y="436">08:00:00</text>
      <text text-anchor="middle" x="225" y="436">09:00:00</text>
      <text text-anchor="middle" x="347" y="436">10:00:00</text>
      <text text-anchor="middle" x="469" y="436">11:00:00</text>
      <text text-anchor="middle" x="591" y="436">11:15:00</text>
      <text text-anchor="middle" x="713" y="436">14:45:00</text>
      <text text-anchor="middle" x="835" y="436">15:00:00</text>
      <text text-anchor="middle" x="957" y="436">16:00:00</text>
    </g>
    <g style="clip-path: url(#ID_backgroundClipPath)">
      <!--******************************** draw Y grid lines******************************** (Horizontal lines)-->
      <g id="ID_y_grid" stroke="#a8a8a8" stroke-width="1">
        <line x1="42" x2="1018" y1="42.77" y2="42.77"/>
        <line x1="42" x2="1018" y1="73.54" y2="73.54"/>
        <line x1="42" x2="1018" y1="104.31" y2="104.31"/>
        <line x1="42" x2="1018" y1="135.08" y2="135.08"/>
        <line x1="42" x2="1018" y1="165.85" y2="165.85"/>
        <line x1="42" x2="1018" y1="196.62" y2="196.62"/>
        <line x1="42" x2="1018" y1="227.39" y2="227.39"/>
        <line x1="42" x2="1018" y1="258.16" y2="258.16"/>
        <line x1="42" x2="1018" y1="288.93" y2="288.93"/>
        <line x1="42" x2="1018" y1="319.7" y2="319.7"/>
        <line x1="42" x2="1018" y1="350.47" y2="350.47"/>
        <line x1="42" x2="1018" y1="381.24" y2="381.24"/>
      </g>
      <!--draw Y grid lines SHADOWS-->
      <g id="ID_y_grid_shadow" stroke="#ffffff" stroke-width="1">
        <line transform="translate(0,1)" x1="42" x2="1018" y1="42.77" y2="42.77"/>
        <line transform="translate(0,1)" x1="42" x2="1018" y1="73.54" y2="73.54"/>
        <line transform="translate(0,1)" x1="42" x2="1018" y1="104.31" y2="104.31"/>
        <line transform="translate(0,1)" x1="42" x2="1018" y1="135.08" y2="135.08"/>
        <line transform="translate(0,1)" x1="42" x2="1018" y1="165.85" y2="165.85"/>
        <line transform="translate(0,1)" x1="42" x2="1018" y1="196.62" y2="196.62"/>
        <line transform="translate(0,1)" x1="42" x2="1018" y1="227.39" y2="227.39"/>
        <line transform="translate(0,1)" x1="42" x2="1018" y1="258.16" y2="258.16"/>
        <line transform="translate(0,1)" x1="42" x2="1018" y1="288.93" y2="288.93"/>
        <line transform="translate(0,1)" x1="42" x2="1018" y1="319.7" y2="319.7"/>
        <line transform="translate(0,1)" x1="42" x2="1018" y1="350.47" y2="350.47"/>
        <line transform="translate(0,1)" x1="42" x2="1018" y1="381.24" y2="381.24"/>
      </g>
      <g id="ID_y0_axis" stroke="rgb(100,100,100)" stroke-width="1" visibility="visible">
        <line x1="42" x2="1018" y1="227.38" y2="227.38"/>
      </g>
      <!--********************************draw X grid lines******************************** (Vertical lines)-->
      <g id="ID_x_grid" stroke="#a8a8a8" stroke-width="1">
        <line x1="164" x2="164" y1="12" y2="412"/>
        <line x1="286" x2="286" y1="12" y2="412"/>
        <line x1="408" x2="408" y1="12" y2="412"/>
        <line x1="530" x2="530" y1="12" y2="412"/>
        <line x1="652" x2="652" y1="12" y2="412"/>
        <line x1="774" x2="774" y1="12" y2="412"/>
        <line x1="896" x2="896" y1="12" y2="412"/>
        <line x1="1018" x2="1018" y1="12" y2="412"/>
      </g>
      <!--draw X grid lines SHADOWS -->
      <g id="ID_x_grid_shadow" stroke="#ffffff" stroke-width="1">
        <line transform="translate(1,0)" x1="164" x2="164" y1="12" y2="412"/>
        <line transform="translate(1,0)" x1="286" x2="286" y1="12" y2="412"/>
        <line transform="translate(1,0)" x1="408" x2="408" y1="12" y2="412"/>
        <line transform="translate(1,0)" x1="530" x2="530" y1="12" y2="412"/>
        <line transform="translate(1,0)" x1="652" x2="652" y1="12" y2="412"/>
        <line transform="translate(1,0)" x1="774" x2="774" y1="12" y2="412"/>
        <line transform="translate(1,0)" x1="896" x2="896" y1="12" y2="412"/>
        <line transform="translate(1,0)" x1="1018" x2="1018" y1="12" y2="412"/>
      </g>
    </g>
    <!--******************************** draw legend ***********************************-->
    <g filter="none" id="ID_legend" transform="translate(1030,12)" visibility="visible">
      <!--draw legend border-->
      <rect fill="rgb(168,168,168)" fill-opacity="1" height="160" id="ID_legend_border_shadow" rx="10" ry="10" stroke="none" transform="translate(1,1)" width="152" x="0" y="0"/>
      <rect fill="rgb(229,229,229)" fill-opacity="1" height="160" id="ID_legend_border" rx="10" ry="10" stroke="none" stroke-width="0" width="152" x="0" y="0"/>
      <!--draw legend bullets-->
      <g id="ID_legend_bullets" stroke="none">
        <g fill="rgb(0,178,195)" id="ID_legend_1">
          <rect height="20" rx="3" ry="3" width="20" x="10" y="10"/>
          <rect fill="url(#WhiteBlackGradient)" height="20" rx="3" ry="3" width="20" x="10" y="10"/>
          <rect fill-opacity="0.3" filter="url(#SaturateMinus)" height="20" rx="3" ry="3" width="20" x="10" y="10"/>
        </g>
        <g fill="rgb(255,195,56)" id="ID_legend_2">
          <rect height="20" rx="3" ry="3" width="20" x="10" y="40"/>
          <rect fill="url(#WhiteBlackGradient)" height="20" rx="3" ry="3" width="20" x="10" y="40"/>
          <rect fill-opacity="0.3" filter="url(#SaturateMinus)" height="20" rx="3" ry="3" width="20" x="10" y="40"/>
        </g>
        <g fill="rgb(87,62,130)" id="ID_legend_3">
          <rect height="20" rx="3" ry="3" width="20" x="10" y="70"/>
          <rect fill="url(#WhiteBlackGradient)" height="20" rx="3" ry="3" width="20" x="10" y="70"/>
          <rect fill-opacity="0.3" filter="url(#SaturateMinus)" height="20" rx="3" ry="3" width="20" x="10" y="70"/>
        </g>
        <g fill="rgb(79,168,57)" id="ID_legend_4">
          <rect height="20" rx="3" ry="3" width="20" x="10" y="100"/>
          <rect fill="url(#WhiteBlackGradient)" height="20" rx="3" ry="3" width="20" x="10" y="100"/>
          <rect fill-opacity="0.3" filter="url(#SaturateMinus)" height="20" rx="3" ry="3" width="20" x="10" y="100"/>
        </g>
        <g fill="rgb(217,87,0)" id="ID_legend_5">
          <rect height="20" rx="3" ry="3" width="20" x="10" y="130"/>
          <rect fill="url(#WhiteBlackGradient)" height="20" rx="3" ry="3" width="20" x="10" y="130"/>
          <rect fill-opacity="0.3" filter="url(#SaturateMinus)" height="20" rx="3" ry="3" width="20" x="10" y="130"/>
        </g>
      </g>
      <!--draw legend labels-->
      <g id="ID_legend_labels" style="fill:black;stroke:none;font-family:Arial;;font-weight:normal;font-style:normal;text-decoration:none;filter:none;text-anchor:start">
        <text x="40" y="27">Sharp</text>
        <text x="40" y="57">Infinity</text>
        <text x="40" y="87">Audio Référence</text>
        <text x="40" y="117">Triangle</text>
        <text x="40" y="147">Yamaha</text>
      </g>
    </g>
    <!-- exemple de path "M 0 0 l 0 -198 s 0,-6,6,-6 l 12 0 s 6,0,6,6 l 0 198 z" -->
    <g style="clip-path: url(#ID_backgroundClipPath)">
      <g fill="black" fill-opacity="0.2" id="ID_graph_shadow_1">
        <path d="M 0 0 l 0 10.38 s 0 5 5 5 l 0 0 s 5 0 5 -5 l 0 -10.38 z" transform="translate(57,227.38)"/>
        <path d="M 0 0 l 0 -25.77 s 0 -5 5 -5 l 0 0 s 5 0 5 5 l 0 25.77 z" transform="translate(179,227.38)"/>
        <path d="M 0 0 l 0 41.15 s 0 5 5 5 l 0 0 s 5 0 5 -5 l 0 -41.15 z" transform="translate(301,227.38)"/>
        <path d="M 0 0 l 0 -56.54 s 0 -5 5 -5 l 0 0 s 5 0 5 5 l 0 56.54 z" transform="translate(423,227.38)"/>
        <path d="M 0 0 l 0 71.92 s 0 5 5 5 l 0 0 s 5 0 5 -5 l 0 -71.92 z" transform="translate(545,227.38)"/>
        <path d="M 0 0 l 0 -87.31 s 0 -5 5 -5 l 0 0 s 5 0 5 5 l 0 87.31 z" transform="translate(667,227.38)"/>
        <path d="M 0 0 l 0 102.69 s 0 5 5 5 l 0 0 s 5 0 5 -5 l 0 -102.69 z" transform="translate(789,227.38)"/>
        <path d="M 0 0 l 0 -118.08 s 0 -5 5 -5 l 0 0 s 5 0 5 5 l 0 118.08 z" transform="translate(911,227.38)"/>
      </g>
      <g fill="black" fill-opacity="0.2" id="ID_graph_shadow_2">
        <path d="M 0 0 l 0 11.92 s 0 5 5 5 l 0 0 s 5 0 5 -5 l 0 -11.92 z" transform="translate(79,227.38)"/>
        <path d="M 0 0 l 0 -28.85 s 0 -5 5 -5 l 0 0 s 5 0 5 5 l 0 28.85 z" transform="translate(201,227.38)"/>
        <path d="M 0 0 l 0 45.77 s 0 5 5 5 l 0 0 s 5 0 5 -5 l 0 -45.77 z" transform="translate(323,227.38)"/>
        <path d="M 0 0 l 0 -62.69 s 0 -5 5 -5 l 0 0 s 5 0 5 5 l 0 62.69 z" transform="translate(445,227.38)"/>
        <path d="M 0 0 l 0 79.62 s 0 5 5 5 l 0 0 s 5 0 5 -5 l 0 -79.62 z" transform="translate(567,227.38)"/>
        <path d="M 0 0 l 0 -96.54 s 0 -5 5 -5 l 0 0 s 5 0 5 5 l 0 96.54 z" transform="translate(689,227.38)"/>
        <path d="M 0 0 l 0 113.46 s 0 5 5 5 l 0 0 s 5 0 5 -5 l 0 -113.46 z" transform="translate(811,227.38)"/>
        <path d="M 0 0 l 0 -130.38 s 0 -5 5 -5 l 0 0 s 5 0 5 5 l 0 130.38 z" transform="translate(933,227.38)"/>
      </g>
      <g fill="black" fill-opacity="0.2" id="ID_graph_shadow_3">
        <path d="M 0 0 l 0 13.62 s 0 5 5 5 l 0 0 s 5 0 5 -5 l 0 -13.62 z" transform="translate(101,227.38)"/>
        <path d="M 0 0 l 0 -32.23 s 0 -5 5 -5 l 0 0 s 5 0 5 5 l 0 32.23 z" transform="translate(223,227.38)"/>
        <path d="M 0 0 l 0 50.85 s 0 5 5 5 l 0 0 s 5 0 5 -5 l 0 -50.85 z" transform="translate(345,227.38)"/>
        <path d="M 0 0 l 0 -69.46 s 0 -5 5 -5 l 0 0 s 5 0 5 5 l 0 69.46 z" transform="translate(467,227.38)"/>
        <path d="M 0 0 l 0 88.08 s 0 5 5 5 l 0 0 s 5 0 5 -5 l 0 -88.08 z" transform="translate(589,227.38)"/>
        <path d="M 0 0 l 0 -106.69 s 0 -5 5 -5 l 0 0 s 5 0 5 5 l 0 106.69 z" transform="translate(711,227.38)"/>
        <path d="M 0 0 l 0 125.31 s 0 5 5 5 l 0 0 s 5 0 5 -5 l 0 -125.31 z" transform="translate(833,227.38)"/>
        <path d="M 0 0 l 0 -143.92 s 0 -5 5 -5 l 0 0 s 5 0 5 5 l 0 143.92 z" transform="translate(955,227.38)"/>
      </g>
      <g fill="black" fill-opacity="0.2" id="ID_graph_shadow_4">
        <path d="M 0 0 l 0 15.48 s 0 5 5 5 l 0 0 s 5 0 5 -5 l 0 -15.48 z" transform="translate(123,227.38)"/>
        <path d="M 0 0 l 0 -35.95 s 0 -5 5 -5 l 0 0 s 5 0 5 5 l 0 35.95 z" transform="translate(245,227.38)"/>
        <path d="M 0 0 l 0 56.43 s 0 5 5 5 l 0 0 s 5 0 5 -5 l 0 -56.43 z" transform="translate(367,227.38)"/>
        <path d="M 0 0 l 0 -76.91 s 0 -5 5 -5 l 0 0 s 5 0 5 5 l 0 76.91 z" transform="translate(489,227.38)"/>
        <path d="M 0 0 l 0 97.38 s 0 5 5 5 l 0 0 s 5 0 5 -5 l 0 -97.38 z" transform="translate(611,227.38)"/>
        <path d="M 0 0 l 0 -117.86 s 0 -5 5 -5 l 0 0 s 5 0 5 5 l 0 117.86 z" transform="translate(733,227.38)"/>
        <path d="M 0 0 l 0 138.34 s 0 5 5 5 l 0 0 s 5 0 5 -5 l 0 -138.34 z" transform="translate(855,227.38)"/>
        <path d="M 0 0 l 0 -158.82 s 0 -5 5 -5 l 0 0 s 5 0 5 5 l 0 158.82 z" transform="translate(977,227.38)"/>
      </g>
      <g fill="black" fill-opacity="0.2" id="ID_graph_shadow_5">
        <path d="M 0 0 l 0 17.52 s 0 5 5 5 l 0 0 s 5 0 5 -5 l 0 -17.52 z" transform="translate(145,227.38)"/>
        <path d="M 0 0 l 0 -40.05 s 0 -5 5 -5 l 0 0 s 5 0 5 5 l 0 40.05 z" transform="translate(267,227.38)"/>
        <path d="M 0 0 l 0 62.57 s 0 5 5 5 l 0 0 s 5 0 5 -5 l 0 -62.57 z" transform="translate(389,227.38)"/>
        <path d="M 0 0 l 0 -85.1 s 0 -5 5 -5 l 0 0 s 5 0 5 5 l 0 85.1 z" transform="translate(511,227.38)"/>
        <path d="M 0 0 l 0 107.62 s 0 5 5 5 l 0 0 s 5 0 5 -5 l 0 -107.62 z" transform="translate(633,227.38)"/>
        <path d="M 0 0 l 0 -130.15 s 0 -5 5 -5 l 0 0 s 5 0 5 5 l 0 130.15 z" transform="translate(755,227.38)"/>
        <path d="M 0 0 l 0 152.67 s 0 5 5 5 l 0 0 s 5 0 5 -5 l 0 -152.67 z" transform="translate(877,227.38)"/>
        <path d="M 0 0 l 0 -175.2 s 0 -5 5 -5 l 0 0 s 5 0 5 5 l 0 175.2 z" transform="translate(999,227.38)"/>
      </g>
      <g fill="rgb(0,178,195)" filter="none" id="ID_graph_1" opacity="1" stroke="none" stroke-opacity="1" stroke-width="0">
        <path d="M 0 0 l 0 10.38 s 0 5 5 5 l 0 0 s 5 0 5 -5 l 0 -10.38 z" transform="translate(54,227.38)"/>
        <path d="M 0 0 l 0 10.38 s 0 5 5 5 l 0 0 s 5 0 5 -5 l 0 -10.38 z" fill="url(#WhiteBlackGradient)" transform="translate(54,227.38)"/>
        <path d="M 0 0 l 0 10.38 s 0 5 5 5 l 0 0 s 5 0 5 -5 l 0 -10.38 z" fill-opacity="0.3" filter="url(#SaturateMinus)" transform="translate(54,227.38)"/>
        <path d="M 0 0 l 0 -25.77 s 0 -5 5 -5 l 0 0 s 5 0 5 5 l 0 25.77 z" transform="translate(176,227.38)"/>
        <path d="M 0 0 l 0 -25.77 s 0 -5 5 -5 l 0 0 s 5 0 5 5 l 0 25.77 z" fill="url(#WhiteBlackGradient)" transform="translate(176,227.38)"/>
        <path d="M 0 0 l 0 -25.77 s 0 -5 5 -5 l 0 0 s 5 0 5 5 l 0 25.77 z" fill-opacity="0.3" filter="url(#SaturateMinus)" transform="translate(176,227.38)"/>
        <path d="M 0 0 l 0 41.15 s 0 5 5 5 l 0 0 s 5 0 5 -5 l 0 -41.15 z" transform="translate(298,227.38)"/>
        <path d="M 0 0 l 0 41.15 s 0 5 5 5 l 0 0 s 5 0 5 -5 l 0 -41.15 z" fill="url(#WhiteBlackGradient)" transform="translate(298,227.38)"/>
        <path d="M 0 0 l 0 41.15 s 0 5 5 5 l 0 0 s 5 0 5 -5 l 0 -41.15 z" fill-opacity="0.3" filter="url(#SaturateMinus)" transform="translate(298,227.38)"/>
        <path d="M 0 0 l 0 -56.54 s 0 -5 5 -5 l 0 0 s 5 0 5 5 l 0 56.54 z" transform="translate(420,227.38)"/>
        <path d="M 0 0 l 0 -56.54 s 0 -5 5 -5 l 0 0 s 5 0 5 5 l 0 56.54 z" fill="url(#WhiteBlackGradient)" transform="translate(420,227.38)"/>
        <path d="M 0 0 l 0 -56.54 s 0 -5 5 -5 l 0 0 s 5 0 5 5 l 0 56.54 z" fill-opacity="0.3" filter="url(#SaturateMinus)" transform="translate(420,227.38)"/>
        <path d="M 0 0 l 0 71.92 s 0 5 5 5 l 0 0 s 5 0 5 -5 l 0 -71.92 z" transform="translate(542,227.38)"/>
        <path d="M 0 0 l 0 71.92 s 0 5 5 5 l 0 0 s 5 0 5 -5 l 0 -71.92 z" fill="url(#WhiteBlackGradient)" transform="translate(542,227.38)"/>
        <path d="M 0 0 l 0 71.92 s 0 5 5 5 l 0 0 s 5 0 5 -5 l 0 -71.92 z" fill-opacity="0.3" filter="url(#SaturateMinus)" transform="translate(542,227.38)"/>
        <path d="M 0 0 l 0 -87.31 s 0 -5 5 -5 l 0 0 s 5 0 5 5 l 0 87.31 z" transform="translate(664,227.38)"/>
        <path d="M 0 0 l 0 -87.31 s 0 -5 5 -5 l 0 0 s 5 0 5 5 l 0 87.31 z" fill="url(#WhiteBlackGradient)" transform="translate(664,227.38)"/>
        <path d="M 0 0 l 0 -87.31 s 0 -5 5 -5 l 0 0 s 5 0 5 5 l 0 87.31 z" fill-opacity="0.3" filter="url(#SaturateMinus)" transform="translate(664,227.38)"/>
        <path d="M 0 0 l 0 102.69 s 0 5 5 5 l 0 0 s 5 0 5 -5 l 0 -102.69 z" transform="translate(786,227.38)"/>
        <path d="M 0 0 l 0 102.69 s 0 5 5 5 l 0 0 s 5 0 5 -5 l 0 -102.69 z" fill="url(#WhiteBlackGradient)" transform="translate(786,227.38)"/>
        <path d="M 0 0 l 0 102.69 s 0 5 5 5 l 0 0 s 5 0 5 -5 l 0 -102.69 z" fill-opacity="0.3" filter="url(#SaturateMinus)" transform="translate(786,227.38)"/>
        <path d="M 0 0 l 0 -118.08 s 0 -5 5 -5 l 0 0 s 5 0 5 5 l 0 118.08 z" transform="translate(908,227.38)"/>
        <path d="M 0 0 l 0 -118.08 s 0 -5 5 -5 l 0 0 s 5 0 5 5 l 0 118.08 z" fill="url(#WhiteBlackGradient)" transform="translate(908,227.38)"/>
        <path d="M 0 0 l 0 -118.08 s 0 -5 5 -5 l 0 0 s 5 0 5 5 l 0 118.08 z" fill-opacity="0.3" filter="url(#SaturateMinus)" transform="translate(908,227.38)"/>
      </g>
      <g fill="rgb(255,195,56)" filter="none" id="ID_graph_2" opacity="1" stroke="none" stroke-opacity="1" stroke-width="0">
        <path d="M 0 0 l 0 11.92 s 0 5 5 5 l 0 0 s 5 0 5 -5 l 0 -11.92 z" transform="translate(76,227.38)"/>
        <path d="M 0 0 l 0 11.92 s 0 5 5 5 l 0 0 s 5 0 5 -5 l 0 -11.92 z" fill="url(#WhiteBlackGradient)" transform="translate(76,227.38)"/>
        <path d="M 0 0 l 0 11.92 s 0 5 5 5 l 0 0 s 5 0 5 -5 l 0 -11.92 z" fill-opacity="0.3" filter="url(#SaturateMinus)" transform="translate(76,227.38)"/>
        <path d="M 0 0 l 0 -28.85 s 0 -5 5 -5 l 0 0 s 5 0 5 5 l 0 28.85 z" transform="translate(198,227.38)"/>
        <path d="M 0 0 l 0 -28.85 s 0 -5 5 -5 l 0 0 s 5 0 5 5 l 0 28.85 z" fill="url(#WhiteBlackGradient)" transform="translate(198,227.38)"/>
        <path d="M 0 0 l 0 -28.85 s 0 -5 5 -5 l 0 0 s 5 0 5 5 l 0 28.85 z" fill-opacity="0.3" filter="url(#SaturateMinus)" transform="translate(198,227.38)"/>
        <path d="M 0 0 l 0 45.77 s 0 5 5 5 l 0 0 s 5 0 5 -5 l 0 -45.77 z" transform="translate(320,227.38)"/>
        <path d="M 0 0 l 0 45.77 s 0 5 5 5 l 0 0 s 5 0 5 -5 l 0 -45.77 z" fill="url(#WhiteBlackGradient)" transform="translate(320,227.38)"/>
        <path d="M 0 0 l 0 45.77 s 0 5 5 5 l 0 0 s 5 0 5 -5 l 0 -45.77 z" fill-opacity="0.3" filter="url(#SaturateMinus)" transform="translate(320,227.38)"/>
        <path d="M 0 0 l 0 -62.69 s 0 -5 5 -5 l 0 0 s 5 0 5 5 l 0 62.69 z" transform="translate(442,227.38)"/>
        <path d="M 0 0 l 0 -62.69 s 0 -5 5 -5 l 0 0 s 5 0 5 5 l 0 62.69 z" fill="url(#WhiteBlackGradient)" transform="translate(442,227.38)"/>
        <path d="M 0 0 l 0 -62.69 s 0 -5 5 -5 l 0 0 s 5 0 5 5 l 0 62.69 z" fill-opacity="0.3" filter="url(#SaturateMinus)" transform="translate(442,227.38)"/>
        <path d="M 0 0 l 0 79.62 s 0 5 5 5 l 0 0 s 5 0 5 -5 l 0 -79.62 z" transform="translate(564,227.38)"/>
        <path d="M 0 0 l 0 79.62 s 0 5 5 5 l 0 0 s 5 0 5 -5 l 0 -79.62 z" fill="url(#WhiteBlackGradient)" transform="translate(564,227.38)"/>
        <path d="M 0 0 l 0 79.62 s 0 5 5 5 l 0 0 s 5 0 5 -5 l 0 -79.62 z" fill-opacity="0.3" filter="url(#SaturateMinus)" transform="translate(564,227.38)"/>
        <path d="M 0 0 l 0 -96.54 s 0 -5 5 -5 l 0 0 s 5 0 5 5 l 0 96.54 z" transform="translate(686,227.38)"/>
        <path d="M 0 0 l 0 -96.54 s 0 -5 5 -5 l 0 0 s 5 0 5 5 l 0 96.54 z" fill="url(#WhiteBlackGradient)" transform="translate(686,227.38)"/>
        <path d="M 0 0 l 0 -96.54 s 0 -5 5 -5 l 0 0 s 5 0 5 5 l 0 96.54 z" fill-opacity="0.3" filter="url(#SaturateMinus)" transform="translate(686,227.38)"/>
        <path d="M 0 0 l 0 113.46 s 0 5 5 5 l 0 0 s 5 0 5 -5 l 0 -113.46 z" transform="translate(808,227.38)"/>
        <path d="M 0 0 l 0 113.46 s 0 5 5 5 l 0 0 s 5 0 5 -5 l 0 -113.46 z" fill="url(#WhiteBlackGradient)" transform="translate(808,227.38)"/>
        <path d="M 0 0 l 0 113.46 s 0 5 5 5 l 0 0 s 5 0 5 -5 l 0 -113.46 z" fill-opacity="0.3" filter="url(#SaturateMinus)" transform="translate(808,227.38)"/>
        <path d="M 0 0 l 0 -130.38 s 0 -5 5 -5 l 0 0 s 5 0 5 5 l 0 130.38 z" transform="translate(930,227.38)"/>
        <path d="M 0 0 l 0 -130.38 s 0 -5 5 -5 l 0 0 s 5 0 5 5 l 0 130.38 z" fill="url(#WhiteBlackGradient)" transform="translate(930,227.38)"/>
        <path d="M 0 0 l 0 -130.38 s 0 -5 5 -5 l 0 0 s 5 0 5 5 l 0 130.38 z" fill-opacity="0.3" filter="url(#SaturateMinus)" transform="translate(930,227.38)"/>
      </g>
      <g fill="rgb(87,62,130)" filter="none" id="ID_graph_3" opacity="1" stroke="none" stroke-opacity="1" stroke-width="0">
        <path d="M 0 0 l 0 13.62 s 0 5 5 5 l 0 0 s 5 0 5 -5 l 0 -13.62 z" transform="translate(98,227.38)"/>
        <path d="M 0 0 l 0 13.62 s 0 5 5 5 l 0 0 s 5 0 5 -5 l 0 -13.62 z" fill="url(#WhiteBlackGradient)" transform="translate(98,227.38)"/>
        <path d="M 0 0 l 0 13.62 s 0 5 5 5 l 0 0 s 5 0 5 -5 l 0 -13.62 z" fill-opacity="0.3" filter="url(#SaturateMinus)" transform="translate(98,227.38)"/>
        <path d="M 0 0 l 0 -32.23 s 0 -5 5 -5 l 0 0 s 5 0 5 5 l 0 32.23 z" transform="translate(220,227.38)"/>
        <path d="M 0 0 l 0 -32.23 s 0 -5 5 -5 l 0 0 s 5 0 5 5 l 0 32.23 z" fill="url(#WhiteBlackGradient)" transform="translate(220,227.38)"/>
        <path d="M 0 0 l 0 -32.23 s 0 -5 5 -5 l 0 0 s 5 0 5 5 l 0 32.23 z" fill-opacity="0.3" filter="url(#SaturateMinus)" transform="translate(220,227.38)"/>
        <path d="M 0 0 l 0 50.85 s 0 5 5 5 l 0 0 s 5 0 5 -5 l 0 -50.85 z" transform="translate(342,227.38)"/>
        <path d="M 0 0 l 0 50.85 s 0 5 5 5 l 0 0 s 5 0 5 -5 l 0 -50.85 z" fill="url(#WhiteBlackGradient)" transform="translate(342,227.38)"/>
        <path d="M 0 0 l 0 50.85 s 0 5 5 5 l 0 0 s 5 0 5 -5 l 0 -50.85 z" fill-opacity="0.3" filter="url(#SaturateMinus)" transform="translate(342,227.38)"/>
        <path d="M 0 0 l 0 -69.46 s 0 -5 5 -5 l 0 0 s 5 0 5 5 l 0 69.46 z" transform="translate(464,227.38)"/>
        <path d="M 0 0 l 0 -69.46 s 0 -5 5 -5 l 0 0 s 5 0 5 5 l 0 69.46 z" fill="url(#WhiteBlackGradient)" transform="translate(464,227.38)"/>
        <path d="M 0 0 l 0 -69.46 s 0 -5 5 -5 l 0 0 s 5 0 5 5 l 0 69.46 z" fill-opacity="0.3" filter="url(#SaturateMinus)" transform="translate(464,227.38)"/>
        <path d="M 0 0 l 0 88.08 s 0 5 5 5 l 0 0 s 5 0 5 -5 l 0 -88.08 z" transform="translate(586,227.38)"/>
        <path d="M 0 0 l 0 88.08 s 0 5 5 5 l 0 0 s 5 0 5 -5 l 0 -88.08 z" fill="url(#WhiteBlackGradient)" transform="translate(586,227.38)"/>
        <path d="M 0 0 l 0 88.08 s 0 5 5 5 l 0 0 s 5 0 5 -5 l 0 -88.08 z" fill-opacity="0.3" filter="url(#SaturateMinus)" transform="translate(586,227.38)"/>
        <path d="M 0 0 l 0 -106.69 s 0 -5 5 -5 l 0 0 s 5 0 5 5 l 0 106.69 z" transform="translate(708,227.38)"/>
        <path d="M 0 0 l 0 -106.69 s 0 -5 5 -5 l 0 0 s 5 0 5 5 l 0 106.69 z" fill="url(#WhiteBlackGradient)" transform="translate(708,227.38)"/>
        <path d="M 0 0 l 0 -106.69 s 0 -5 5 -5 l 0 0 s 5 0 5 5 l 0 106.69 z" fill-opacity="0.3" filter="url(#SaturateMinus)" transform="translate(708,227.38)"/>
        <path d="M 0 0 l 0 125.31 s 0 5 5 5 l 0 0 s 5 0 5 -5 l 0 -125.31 z" transform="translate(830,227.38)"/>
        <path d="M 0 0 l 0 125.31 s 0 5 5 5 l 0 0 s 5 0 5 -5 l 0 -125.31 z" fill="url(#WhiteBlackGradient)" transform="translate(830,227.38)"/>
        <path d="M 0 0 l 0 125.31 s 0 5 5 5 l 0 0 s 5 0 5 -5 l 0 -125.31 z" fill-opacity="0.3" filter="url(#SaturateMinus)" transform="translate(830,227.38)"/>
        <path d="M 0 0 l 0 -143.92 s 0 -5 5 -5 l 0 0 s 5 0 5 5 l 0 143.92 z" transform="translate(952,227.38)"/>
        <path d="M 0 0 l 0 -143.92 s 0 -5 5 -5 l 0 0 s 5 0 5 5 l 0 143.92 z" fill="url(#WhiteBlackGradient)" transform="translate(952,227.38)"/>
        <path d="M 0 0 l 0 -143.92 s 0 -5 5 -5 l 0 0 s 5 0 5 5 l 0 143.92 z" fill-opacity="0.3" filter="url(#SaturateMinus)" transform="translate(952,227.38)"/>
      </g>
      <g fill="rgb(79,168,57)" filter="none" id="ID_graph_4" opacity="1" stroke="none" stroke-opacity="1" stroke-width="0">
        <path d="M 0 0 l 0 15.48 s 0 5 5 5 l 0 0 s 5 0 5 -5 l 0 -15.48 z" transform="translate(120,227.38)"/>
        <path d="M 0 0 l 0 15.48 s 0 5 5 5 l 0 0 s 5 0 5 -5 l 0 -15.48 z" fill="url(#WhiteBlackGradient)" transform="translate(120,227.38)"/>
        <path d="M 0 0 l 0 15.48 s 0 5 5 5 l 0 0 s 5 0 5 -5 l 0 -15.48 z" fill-opacity="0.3" filter="url(#SaturateMinus)" transform="translate(120,227.38)"/>
        <path d="M 0 0 l 0 -35.95 s 0 -5 5 -5 l 0 0 s 5 0 5 5 l 0 35.95 z" transform="translate(242,227.38)"/>
        <path d="M 0 0 l 0 -35.95 s 0 -5 5 -5 l 0 0 s 5 0 5 5 l 0 35.95 z" fill="url(#WhiteBlackGradient)" transform="translate(242,227.38)"/>
        <path d="M 0 0 l 0 -35.95 s 0 -5 5 -5 l 0 0 s 5 0 5 5 l 0 35.95 z" fill-opacity="0.3" filter="url(#SaturateMinus)" transform="translate(242,227.38)"/>
        <path d="M 0 0 l 0 56.43 s 0 5 5 5 l 0 0 s 5 0 5 -5 l 0 -56.43 z" transform="translate(364,227.38)"/>
        <path d="M 0 0 l 0 56.43 s 0 5 5 5 l 0 0 s 5 0 5 -5 l 0 -56.43 z" fill="url(#WhiteBlackGradient)" transform="translate(364,227.38)"/>
        <path d="M 0 0 l 0 56.43 s 0 5 5 5 l 0 0 s 5 0 5 -5 l 0 -56.43 z" fill-opacity="0.3" filter="url(#SaturateMinus)" transform="translate(364,227.38)"/>
        <path d="M 0 0 l 0 -76.91 s 0 -5 5 -5 l 0 0 s 5 0 5 5 l 0 76.91 z" transform="translate(486,227.38)"/>
        <path d="M 0 0 l 0 -76.91 s 0 -5 5 -5 l 0 0 s 5 0 5 5 l 0 76.91 z" fill="url(#WhiteBlackGradient)" transform="translate(486,227.38)"/>
        <path d="M 0 0 l 0 -76.91 s 0 -5 5 -5 l 0 0 s 5 0 5 5 l 0 76.91 z" fill-opacity="0.3" filter="url(#SaturateMinus)" transform="translate(486,227.38)"/>
        <path d="M 0 0 l 0 97.38 s 0 5 5 5 l 0 0 s 5 0 5 -5 l 0 -97.38 z" transform="translate(608,227.38)"/>
        <path d="M 0 0 l 0 97.38 s 0 5 5 5 l 0 0 s 5 0 5 -5 l 0 -97.38 z" fill="url(#WhiteBlackGradient)" transform="translate(608,227.38)"/>
        <path d="M 0 0 l 0 97.38 s 0 5 5 5 l 0 0 s 5 0 5 -5 l 0 -97.38 z" fill-opacity="0.3" filter="url(#SaturateMinus)" transform="translate(608,227.38)"/>
        <path d="M 0 0 l 0 -117.86 s 0 -5 5 -5 l 0 0 s 5 0 5 5 l 0 117.86 z" transform="translate(730,227.38)"/>
        <path d="M 0 0 l 0 -117.86 s 0 -5 5 -5 l 0 0 s 5 0 5 5 l 0 117.86 z" fill="url(#WhiteBlackGradient)" transform="translate(730,227.38)"/>
        <path d="M 0 0 l 0 -117.86 s 0 -5 5 -5 l 0 0 s 5 0 5 5 l 0 117.86 z" fill-opacity="0.3" filter="url(#SaturateMinus)" transform="translate(730,227.38)"/>
        <path d="M 0 0 l 0 138.34 s 0 5 5 5 l 0 0 s 5 0 5 -5 l 0 -138.34 z" transform="translate(852,227.38)"/>
        <path d="M 0 0 l 0 138.34 s 0 5 5 5 l 0 0 s 5 0 5 -5 l 0 -138.34 z" fill="url(#WhiteBlackGradient)" transform="translate(852,227.38)"/>
        <path d="M 0 0 l 0 138.34 s 0 5 5 5 l 0 0 s 5 0 5 -5 l 0 -138.34 z" fill-opacity="0.3" filter="url(#SaturateMinus)" transform="translate(852,227.38)"/>
        <path d="M 0 0 l 0 -158.82 s 0 -5 5 -5 l 0 0 s 5 0 5 5 l 0 158.82 z" transform="translate(974,227.38)"/>
        <path d="M 0 0 l 0 -158.82 s 0 -5 5 -5 l 0 0 s 5 0 5 5 l 0 158.82 z" fill="url(#WhiteBlackGradient)" transform="translate(974,227.38)"/>
        <path d="M 0 0 l 0 -158.82 s 0 -5 5 -5 l 0 0 s 5 0 5 5 l 0 158.82 z" fill-opacity="0.3" filter="url(#SaturateMinus)" transform="translate(974,227.38)"/>
      </g>
      <g fill="rgb(217,87,0)" filter="none" id="ID_graph_5" opacity="1" stroke="none" stroke-opacity="1" stroke-width="0">
        <path d="M 0 0 l 0 17.52 s 0 5 5 5 l 0 0 s 5 0 5 -5 l 0 -17.52 z" transform="translate(142,227.38)"/>
        <path d="M 0 0 l 0 17.52 s 0 5 5 5 l 0 0 s 5 0 5 -5 l 0 -17.52 z" fill="url(#WhiteBlackGradient)" transform="translate(142,227.38)"/>
        <path d="M 0 0 l 0 17.52 s 0 5 5 5 l 0 0 s 5 0 5 -5 l 0 -17.52 z" fill-opacity="0.3" filter="url(#SaturateMinus)" transform="translate(142,227.38)"/>
        <path d="M 0 0 l 0 -40.05 s 0 -5 5 -5 l 0 0 s 5 0 5 5 l 0 40.05 z" transform="translate(264,227.38)"/>
        <path d="M 0 0 l 0 -40.05 s 0 -5 5 -5 l 0 0 s 5 0 5 5 l 0 40.05 z" fill="url(#WhiteBlackGradient)" transform="translate(264,227.38)"/>
        <path d="M 0 0 l 0 -40.05 s 0 -5 5 -5 l 0 0 s 5 0 5 5 l 0 40.05 z" fill-opacity="0.3" filter="url(#SaturateMinus)" transform="translate(264,227.38)"/>
        <path d="M 0 0 l 0 62.57 s 0 5 5 5 l 0 0 s 5 0 5 -5 l 0 -62.57 z" transform="translate(386,227.38)"/>
        <path d="M 0 0 l 0 62.57 s 0 5 5 5 l 0 0 s 5 0 5 -5 l 0 -62.57 z" fill="url(#WhiteBlackGradient)" transform="translate(386,227.38)"/>
        <path d="M 0 0 l 0 62.57 s 0 5 5 5 l 0 0 s 5 0 5 -5 l 0 -62.57 z" fill-opacity="0.3" filter="url(#SaturateMinus)" transform="translate(386,227.38)"/>
        <path d="M 0 0 l 0 -85.1 s 0 -5 5 -5 l 0 0 s 5 0 5 5 l 0 85.1 z" transform="translate(508,227.38)"/>
        <path d="M 0 0 l 0 -85.1 s 0 -5 5 -5 l 0 0 s 5 0 5 5 l 0 85.1 z" fill="url(#WhiteBlackGradient)" transform="translate(508,227.38)"/>
        <path d="M 0 0 l 0 -85.1 s 0 -5 5 -5 l 0 0 s 5 0 5 5 l 0 85.1 z" fill-opacity="0.3" filter="url(#SaturateMinus)" transform="translate(508,227.38)"/>
        <path d="M 0 0 l 0 107.62 s 0 5 5 5 l 0 0 s 5 0 5 -5 l 0 -107.62 z" transform="translate(630,227.38)"/>
        <path d="M 0 0 l 0 107.62 s 0 5 5 5 l 0 0 s 5 0 5 -5 l 0 -107.62 z" fill="url(#WhiteBlackGradient)" transform="translate(630,227.38)"/>
        <path d="M 0 0 l 0 107.62 s 0 5 5 5 l 0 0 s 5 0 5 -5 l 0 -107.62 z" fill-opacity="0.3" filter="url(#SaturateMinus)" transform="translate(630,227.38)"/>
        <path d="M 0 0 l 0 -130.15 s 0 -5 5 -5 l 0 0 s 5 0 5 5 l 0 130.15 z" transform="translate(752,227.38)"/>
        <path d="M 0 0 l 0 -130.15 s 0 -5 5 -5 l 0 0 s 5 0 5 5 l 0 130.15 z" fill="url(#WhiteBlackGradient)" transform="translate(752,227.38)"/>
        <path d="M 0 0 l 0 -130.15 s 0 -5 5 -5 l 0 0 s 5 0 5 5 l 0 130.15 z" fill-opacity="0.3" filter="url(#SaturateMinus)" transform="translate(752,227.38)"/>
        <path d="M 0 0 l 0 152.67 s 0 5 5 5 l 0 0 s 5 0 5 -5 l 0 -152.67 z" transform="translate(874,227.38)"/>
        <path d="M 0 0 l 0 152.67 s 0 5 5 5 l 0 0 s 5 0 5 -5 l 0 -152.67 z" fill="url(#WhiteBlackGradient)" transform="translate(874,227.38)"/>
        <path d="M 0 0 l 0 152.67 s 0 5 5 5 l 0 0 s 5 0 5 -5 l 0 -152.67 z" fill-opacity="0.3" filter="url(#SaturateMinus)" transform="translate(874,227.38)"/>
        <path d="M 0 0 l 0 -175.2 s 0 -5 5 -5 l 0 0 s 5 0 5 5 l 0 175.2 z" transform="translate(996,227.38)"/>
        <path d="M 0 0 l 0 -175.2 s 0 -5 5 -5 l 0 0 s 5 0 5 5 l 0 175.2 z" fill="url(#WhiteBlackGradient)" transform="translate(996,227.38)"/>
        <path d="M 0 0 l 0 -175.2 s 0 -5 5 -5 l 0 0 s 5 0 5 5 l 0 175.2 z" fill-opacity="0.3" filter="url(#SaturateMinus)" transform="translate(996,227.38)"/>
      </g>
    </g>
  </g>

</svg>