
<svg xmlns="http://www.w3.org/2000/svg" id="ID_svg" viewBox="0 0 1778 466" viewport-fill="darkblue" viewport-fill-opacity="0.25" xmlns:exsl4D="http://www.4D.com" xmlns:gFunc="http://gFunc" xmlns:math="http://exslt.org/math" xmlns:xlink="http://www.w3.org/1999/xlink">

  <!--gradient styles-->

  <defs>
    <filter id="soft_blur">
      <feGaussianBlur in="SourceGraphic" result="BlurAlpha" stdDeviation="1"/>
    </filter>
    <filter id="pastel">
      <feGaussianBlur in="SourceAlpha" result="blur" stdDeviation="2"/>
      <feOffset dx="6" dy="6" in="blur" result="offsetBlur"/>
      <feComposite in="SourceGraphic" in2="offsetBlur" operator="in" result="specOut"/>
    </filter>
    <filter id="blur_shadow">
      <feGaussianBlur in="SourceAlpha" result="blur" stdDeviation="3"/>
      <feOffset dx="4" dy="2" in="blur" result="offsetBlur"/>
      <feBlend in="SourceGraphic" in2="offsetBlur" mode="normal"/>
    </filter>
    <filter filterUnits="objectBoundingBox" id="Shadow">
      <feGaussianBlur in="SourceAlpha" result="flou" stdDeviation="0"/>
      <feColorMatrix in="SourceAlpha" result="flouBlue" type="matrix" values=" 0 0 0 0 0                      0 0 0 0 0                     0 0 0 0 0                      0 0 0 0.3 0"/>
      <feOffset dx="4" dy="4" in="flouBlue" result="flouDecalage"/>
      <feBlend in="SourceGraphic" in2="flouDecalage" mode="normal"/>
    </filter>
    <filter filterUnits="objectBoundingBox" height="100%" id="SaturateMinus" width="100%" x="0%" y="0%">
      <feColorMatrix in="SourceGraphic" type="saturate" values="0.5"/>
    </filter>
    <filter filterUnits="objectBoundingBox" height="100%" id="SaturatePlus" width="100%" x="0%" y="0%">
      <feColorMatrix in="SourceGraphic" type="saturate" values="1.4"/>
    </filter>
    <linearGradient id="BlackGradient">
      <stop offset="0%" style="stop-color:rgb(0,0,0); stop-opacity:0"/>
      <stop offset="100%" style="stop-color:rgb(0,0,0); stop-opacity:0.1"/>
    </linearGradient>
    <linearGradient id="WhiteGradient" x1="0%" x2="100%" y1="0%" y2="0%">
      <stop offset="0%" style="stop-color:rgb(255,255,255); stop-opacity:0.3"/>
      <stop offset="100%" style="stop-color:rgb(255,255,255);stop-opacity:0"/>
    </linearGradient>
    <linearGradient id="WhiteBlackGradient" x1="0%" x2="100%" y1="0%" y2="0%">
      <stop offset="0%" style="stop-color:rgb(255,255,255); stop-opacity:0.15"/>
      <stop offset="100%" style="stop-color:rgb(0,0,0);stop-opacity:0.15"/>
    </linearGradient>
    <linearGradient id="Black0Black1Gradient" x1="0%" x2="0%" y1="0%" y2="100%">
      <stop offset="0%" style="stop-color:rgb(0,0,0); stop-opacity:0"/>
      <stop offset="100%" style="stop-color:rgb(0,0,0);stop-opacity:0.05"/>
    </linearGradient>
  </defs>

  <!--global stroke and font styles-->

  <g id="ID_globals" style="fill:red;stroke:none;font-family:Arial;font-size:14px;font-weight:normal;font-style:normal;text-decoration:none;shape-rendering:crispEdges">
    <!--draw title-->
    <!--********************************draw graph background********************************-->
    <rect fill="darkgreen" height="400" id="ID_background_shadow" opacity="0.5" rx="10" ry="10" stroke="none" transform="translate(1,1)" visibility="visible" width="1520" x="53" y="20"/>
    <g fill="lightgreen" id="ID_background" opacity="0.5" stroke="none" visibility="visible">
      <rect height="400" rx="10" ry="10" stroke="none" width="1520" x="53" y="20"/>
      <rect fill="url(#Black0Black1Gradient)" height="400" rx="10" ry="10" stroke="none" width="1520" x="53" y="20"/>
    </g>
    <clipPath id="ID_backgroundClipPath">
      <rect height="401" rx="10" ry="10" width="1521" x="52" y="19"/>
    </clipPath>
    <!--********************************draw Y Labels********************************-->
    <g id="ID_y$value" style="fill:red;stroke:none;font-family:Arial;font-size:14px;font-weight:normal;font-style:normal;text-decoration:none;filter:none" visibility="visible">
      <text text-anchor="end" x="41" y="27">15</text>
      <text text-anchor="end" x="41" y="71.44">12</text>
      <text text-anchor="end" x="41" y="115.88">9</text>
      <text text-anchor="end" x="41" y="160.32">6</text>
      <text text-anchor="end" x="41" y="204.76">3</text>
      <text text-anchor="end" x="41" y="249.2">0</text>
      <text text-anchor="end" x="41" y="293.64">-3</text>
      <text text-anchor="end" x="41" y="338.08">-6</text>
      <text text-anchor="end" x="41" y="382.52">-9</text>
      <text text-anchor="end" x="41" y="426.96">-12</text>
    </g>
    <!--********************************draw X Labels********************************-->
    <!--draw axis x labels-->
    <g id="ID_x$value" style="fill:red;stroke:none;font-family:Arial;font-size:14px;font-weight:normal;font-style:normal;text-decoration:none;filter:none" visibility="visible">
      <text text-anchor="middle" x="148" y="446">08:00:00</text>
      <text text-anchor="middle" x="338" y="446">09:00:00</text>
      <text text-anchor="middle" x="528" y="446">10:00:00</text>
      <text text-anchor="middle" x="718" y="446">11:00:00</text>
      <text text-anchor="middle" x="908" y="446">11:15:00</text>
      <text text-anchor="middle" x="1098" y="446">14:45:00</text>
      <text text-anchor="middle" x="1288" y="446">15:00:00</text>
      <text text-anchor="middle" x="1478" y="446">16:00:00</text>
    </g>
    <g style="clip-path: url(#ID_backgroundClipPath)">
      <!--******************************** draw Y grid lines******************************** (Horizontal lines)-->
      <g id="ID_y_grid" stroke="#a8a8a8" stroke-width="1">
        <line x1="53" x2="1573" y1="64.44" y2="64.44"/>
        <line x1="53" x2="1573" y1="108.88" y2="108.88"/>
        <line x1="53" x2="1573" y1="153.32" y2="153.32"/>
        <line x1="53" x2="1573" y1="197.76" y2="197.76"/>
        <line x1="53" x2="1573" y1="242.2" y2="242.2"/>
        <line x1="53" x2="1573" y1="286.64" y2="286.64"/>
        <line x1="53" x2="1573" y1="331.08" y2="331.08"/>
        <line x1="53" x2="1573" y1="375.52" y2="375.52"/>
      </g>
      <!--draw Y grid lines SHADOWS-->
      <g id="ID_y_grid_shadow" stroke="#ffffff" stroke-width="1">
        <line transform="translate(0,1)" x1="53" x2="1573" y1="64.44" y2="64.44"/>
        <line transform="translate(0,1)" x1="53" x2="1573" y1="108.88" y2="108.88"/>
        <line transform="translate(0,1)" x1="53" x2="1573" y1="153.32" y2="153.32"/>
        <line transform="translate(0,1)" x1="53" x2="1573" y1="197.76" y2="197.76"/>
        <line transform="translate(0,1)" x1="53" x2="1573" y1="242.2" y2="242.2"/>
        <line transform="translate(0,1)" x1="53" x2="1573" y1="286.64" y2="286.64"/>
        <line transform="translate(0,1)" x1="53" x2="1573" y1="331.08" y2="331.08"/>
        <line transform="translate(0,1)" x1="53" x2="1573" y1="375.52" y2="375.52"/>
      </g>
      <g id="ID_y0_axis" stroke="rgb(100,100,100)" stroke-width="1" visibility="visible">
        <line x1="53" x2="1573" y1="242.22" y2="242.22"/>
      </g>
      <!--********************************draw X grid lines******************************** (Vertical lines)-->
      <g id="ID_x_grid" stroke="#a8a8a8" stroke-width="1">
        <line x1="243" x2="243" y1="20" y2="420"/>
        <line x1="433" x2="433" y1="20" y2="420"/>
        <line x1="623" x2="623" y1="20" y2="420"/>
        <line x1="813" x2="813" y1="20" y2="420"/>
        <line x1="1003" x2="1003" y1="20" y2="420"/>
        <line x1="1193" x2="1193" y1="20" y2="420"/>
        <line x1="1383" x2="1383" y1="20" y2="420"/>
        <line x1="1573" x2="1573" y1="20" y2="420"/>
      </g>
      <!--draw X grid lines SHADOWS -->
      <g id="ID_x_grid_shadow" stroke="#ffffff" stroke-width="1">
        <line transform="translate(1,0)" x1="243" x2="243" y1="20" y2="420"/>
        <line transform="translate(1,0)" x1="433" x2="433" y1="20" y2="420"/>
        <line transform="translate(1,0)" x1="623" x2="623" y1="20" y2="420"/>
        <line transform="translate(1,0)" x1="813" x2="813" y1="20" y2="420"/>
        <line transform="translate(1,0)" x1="1003" x2="1003" y1="20" y2="420"/>
        <line transform="translate(1,0)" x1="1193" x2="1193" y1="20" y2="420"/>
        <line transform="translate(1,0)" x1="1383" x2="1383" y1="20" y2="420"/>
        <line transform="translate(1,0)" x1="1573" x2="1573" y1="20" y2="420"/>
      </g>
    </g>
    <!--******************************** draw legend ***********************************-->
    <g filter="none" id="ID_legend" transform="translate(1585,20)" visibility="visible">
      <!--draw legend border-->
      <rect fill="darkgreen" fill-opacity="0.5" height="128" id="ID_legend_border_shadow" rx="10" ry="10" stroke="none" transform="translate(1,1)" width="173" x="0" y="0"/>
      <rect fill="lightgreen" fill-opacity="0.5" height="128" id="ID_legend_border" rx="10" ry="10" stroke="none" stroke-width="0" width="173" x="0" y="0"/>
      <!--draw legend bullets-->
      <g id="ID_legend_bullets" stroke="none">
        <g fill="purple" id="ID_legend_1">
          <rect height="12" rx="3" ry="3" width="24" x="10" y="8"/>
          <rect fill="url(#WhiteBlackGradient)" height="12" rx="3" ry="3" width="24" x="10" y="8"/>
          <rect fill-opacity="0.3" filter="url(#SaturateMinus)" height="12" rx="3" ry="3" width="24" x="10" y="8"/>
        </g>
        <g fill="darkblue" id="ID_legend_2">
          <rect height="12" rx="3" ry="3" width="24" x="10" y="28"/>
          <rect fill="url(#WhiteBlackGradient)" height="12" rx="3" ry="3" width="24" x="10" y="28"/>
          <rect fill-opacity="0.3" filter="url(#SaturateMinus)" height="12" rx="3" ry="3" width="24" x="10" y="28"/>
        </g>
        <g fill="blue" id="ID_legend_3">
          <rect height="12" rx="3" ry="3" width="24" x="10" y="48"/>
          <rect fill="url(#WhiteBlackGradient)" height="12" rx="3" ry="3" width="24" x="10" y="48"/>
          <rect fill-opacity="0.3" filter="url(#SaturateMinus)" height="12" rx="3" ry="3" width="24" x="10" y="48"/>
        </g>
        <g fill="green" id="ID_legend_4">
          <rect height="12" rx="3" ry="3" width="24" x="10" y="68"/>
          <rect fill="url(#WhiteBlackGradient)" height="12" rx="3" ry="3" width="24" x="10" y="68"/>
          <rect fill-opacity="0.3" filter="url(#SaturateMinus)" height="12" rx="3" ry="3" width="24" x="10" y="68"/>
        </g>
        <g fill="yellow" id="ID_legend_5">
          <rect height="12" rx="3" ry="3" width="24" x="10" y="88"/>
          <rect fill="url(#WhiteBlackGradient)" height="12" rx="3" ry="3" width="24" x="10" y="88"/>
          <rect fill-opacity="0.3" filter="url(#SaturateMinus)" height="12" rx="3" ry="3" width="24" x="10" y="88"/>
        </g>
        <g fill="orange" id="ID_legend_6">
          <rect height="12" rx="3" ry="3" width="24" x="10" y="108"/>
          <rect fill="url(#WhiteBlackGradient)" height="12" rx="3" ry="3" width="24" x="10" y="108"/>
          <rect fill-opacity="0.3" filter="url(#SaturateMinus)" height="12" rx="3" ry="3" width="24" x="10" y="108"/>
        </g>
      </g>
      <!--draw legend labels-->
      <g id="ID_legend_labels" style="fill:black;stroke:none;font-family:Arial;;font-weight:normal;font-style:normal;text-decoration:none;filter:none;text-anchor:start">
        <text x="44" y="17">Sharp</text>
        <text x="44" y="37">Infinity</text>
        <text x="44" y="57">Audio Référence</text>
        <text x="44" y="77">Triangle</text>
        <text x="44" y="97">Yamaha</text>
        <text x="44" y="117">Onkyo</text>
      </g>
    </g>
    <!-- exemple de path "M 0 0 l 0 -198 s 0,-6,6,-6 l 12 0 s 6,0,6,6 l 0 198 z" -->
    <g style="clip-path: url(#ID_backgroundClipPath)">
      <g fill="black" fill-opacity="0.2" id="ID_graph_shadow_1">
        <path d="M 0 0 l 0 8.81 s 0 6 6 6 l 8 0 s 6 0 6 -6 l 0 -8.81 z" transform="translate(66,242.22)"/>
        <path d="M 0 0 l 0 -23.63 s 0 -6 6 -6 l 8 0 s 6 0 6 6 l 0 23.63 z" transform="translate(256,242.22)"/>
        <path d="M 0 0 l 0 38.44 s 0 6 6 6 l 8 0 s 6 0 6 -6 l 0 -38.44 z" transform="translate(446,242.22)"/>
        <path d="M 0 0 l 0 -53.26 s 0 -6 6 -6 l 8 0 s 6 0 6 6 l 0 53.26 z" transform="translate(636,242.22)"/>
        <path d="M 0 0 l 0 68.07 s 0 6 6 6 l 8 0 s 6 0 6 -6 l 0 -68.07 z" transform="translate(826,242.22)"/>
        <path d="M 0 0 l 0 -82.89 s 0 -6 6 -6 l 8 0 s 6 0 6 6 l 0 82.89 z" transform="translate(1016,242.22)"/>
        <path d="M 0 0 l 0 97.7 s 0 6 6 6 l 8 0 s 6 0 6 -6 l 0 -97.7 z" transform="translate(1206,242.22)"/>
        <path d="M 0 0 l 0 -112.52 s 0 -6 6 -6 l 8 0 s 6 0 6 6 l 0 112.52 z" transform="translate(1396,242.22)"/>
      </g>
      <g fill="black" fill-opacity="0.2" id="ID_graph_shadow_2">
        <path d="M 0 0 l 0 10.3 s 0 6 6 6 l 8 0 s 6 0 6 -6 l 0 -10.3 z" transform="translate(96,242.22)"/>
        <path d="M 0 0 l 0 -26.59 s 0 -6 6 -6 l 8 0 s 6 0 6 6 l 0 26.59 z" transform="translate(286,242.22)"/>
        <path d="M 0 0 l 0 42.89 s 0 6 6 6 l 8 0 s 6 0 6 -6 l 0 -42.89 z" transform="translate(476,242.22)"/>
        <path d="M 0 0 l 0 -59.19 s 0 -6 6 -6 l 8 0 s 6 0 6 6 l 0 59.19 z" transform="translate(666,242.22)"/>
        <path d="M 0 0 l 0 75.48 s 0 6 6 6 l 8 0 s 6 0 6 -6 l 0 -75.48 z" transform="translate(856,242.22)"/>
        <path d="M 0 0 l 0 -91.78 s 0 -6 6 -6 l 8 0 s 6 0 6 6 l 0 91.78 z" transform="translate(1046,242.22)"/>
        <path d="M 0 0 l 0 108.07 s 0 6 6 6 l 8 0 s 6 0 6 -6 l 0 -108.07 z" transform="translate(1236,242.22)"/>
        <path d="M 0 0 l 0 -124.37 s 0 -6 6 -6 l 8 0 s 6 0 6 6 l 0 124.37 z" transform="translate(1426,242.22)"/>
      </g>
      <g fill="black" fill-opacity="0.2" id="ID_graph_shadow_3">
        <path d="M 0 0 l 0 11.93 s 0 6 6 6 l 8 0 s 6 0 6 -6 l 0 -11.93 z" transform="translate(126,242.22)"/>
        <path d="M 0 0 l 0 -29.85 s 0 -6 6 -6 l 8 0 s 6 0 6 6 l 0 29.85 z" transform="translate(316,242.22)"/>
        <path d="M 0 0 l 0 47.78 s 0 6 6 6 l 8 0 s 6 0 6 -6 l 0 -47.78 z" transform="translate(506,242.22)"/>
        <path d="M 0 0 l 0 -65.7 s 0 -6 6 -6 l 8 0 s 6 0 6 6 l 0 65.7 z" transform="translate(696,242.22)"/>
        <path d="M 0 0 l 0 83.63 s 0 6 6 6 l 8 0 s 6 0 6 -6 l 0 -83.63 z" transform="translate(886,242.22)"/>
        <path d="M 0 0 l 0 -101.56 s 0 -6 6 -6 l 8 0 s 6 0 6 6 l 0 101.56 z" transform="translate(1076,242.22)"/>
        <path d="M 0 0 l 0 119.48 s 0 6 6 6 l 8 0 s 6 0 6 -6 l 0 -119.48 z" transform="translate(1266,242.22)"/>
        <path d="M 0 0 l 0 -137.41 s 0 -6 6 -6 l 8 0 s 6 0 6 6 l 0 137.41 z" transform="translate(1456,242.22)"/>
      </g>
      <g fill="black" fill-opacity="0.2" id="ID_graph_shadow_4">
        <path d="M 0 0 l 0 13.72 s 0 6 6 6 l 8 0 s 6 0 6 -6 l 0 -13.72 z" transform="translate(156,242.22)"/>
        <path d="M 0 0 l 0 -33.44 s 0 -6 6 -6 l 8 0 s 6 0 6 6 l 0 33.44 z" transform="translate(346,242.22)"/>
        <path d="M 0 0 l 0 53.16 s 0 6 6 6 l 8 0 s 6 0 6 -6 l 0 -53.16 z" transform="translate(536,242.22)"/>
        <path d="M 0 0 l 0 -72.87 s 0 -6 6 -6 l 8 0 s 6 0 6 6 l 0 72.87 z" transform="translate(726,242.22)"/>
        <path d="M 0 0 l 0 92.59 s 0 6 6 6 l 8 0 s 6 0 6 -6 l 0 -92.59 z" transform="translate(916,242.22)"/>
        <path d="M 0 0 l 0 -112.31 s 0 -6 6 -6 l 8 0 s 6 0 6 6 l 0 112.31 z" transform="translate(1106,242.22)"/>
        <path d="M 0 0 l 0 132.03 s 0 6 6 6 l 8 0 s 6 0 6 -6 l 0 -132.03 z" transform="translate(1296,242.22)"/>
        <path d="M 0 0 l 0 -151.75 s 0 -6 6 -6 l 8 0 s 6 0 6 6 l 0 151.75 z" transform="translate(1486,242.22)"/>
      </g>
      <g fill="black" fill-opacity="0.2" id="ID_graph_shadow_5">
        <path d="M 0 0 l 0 15.69 s 0 6 6 6 l 8 0 s 6 0 6 -6 l 0 -15.69 z" transform="translate(186,242.22)"/>
        <path d="M 0 0 l 0 -37.38 s 0 -6 6 -6 l 8 0 s 6 0 6 6 l 0 37.38 z" transform="translate(376,242.22)"/>
        <path d="M 0 0 l 0 59.07 s 0 6 6 6 l 8 0 s 6 0 6 -6 l 0 -59.07 z" transform="translate(566,242.22)"/>
        <path d="M 0 0 l 0 -80.76 s 0 -6 6 -6 l 8 0 s 6 0 6 6 l 0 80.76 z" transform="translate(756,242.22)"/>
        <path d="M 0 0 l 0 102.45 s 0 6 6 6 l 8 0 s 6 0 6 -6 l 0 -102.45 z" transform="translate(946,242.22)"/>
        <path d="M 0 0 l 0 -124.14 s 0 -6 6 -6 l 8 0 s 6 0 6 6 l 0 124.14 z" transform="translate(1136,242.22)"/>
        <path d="M 0 0 l 0 145.83 s 0 6 6 6 l 8 0 s 6 0 6 -6 l 0 -145.83 z" transform="translate(1326,242.22)"/>
        <path d="M 0 0 l 0 -167.52 s 0 -6 6 -6 l 8 0 s 6 0 6 6 l 0 167.52 z" transform="translate(1516,242.22)"/>
      </g>
      <g fill="black" fill-opacity="0.2" id="ID_graph_shadow_6">
        <path d="M 0 0 l 0 17.86 s 0 6 6 6 l 8 0 s 6 0 6 -6 l 0 -17.86 z" transform="translate(216,242.22)"/>
        <path d="M 0 0 l 0 -41.72 s 0 -6 6 -6 l 8 0 s 6 0 6 6 l 0 41.72 z" transform="translate(406,242.22)"/>
        <path d="M 0 0 l 0 65.58 s 0 6 6 6 l 8 0 s 6 0 6 -6 l 0 -65.58 z" transform="translate(596,242.22)"/>
        <path d="M 0 0 l 0 -89.44 s 0 -6 6 -6 l 8 0 s 6 0 6 6 l 0 89.44 z" transform="translate(786,242.22)"/>
        <path d="M 0 0 l 0 113.3 s 0 6 6 6 l 8 0 s 6 0 6 -6 l 0 -113.3 z" transform="translate(976,242.22)"/>
        <path d="M 0 0 l 0 -137.16 s 0 -6 6 -6 l 8 0 s 6 0 6 6 l 0 137.16 z" transform="translate(1166,242.22)"/>
        <path d="M 0 0 l 0 161.02 s 0 6 6 6 l 8 0 s 6 0 6 -6 l 0 -161.02 z" transform="translate(1356,242.22)"/>
        <path d="M 0 0 l 0 -184.88 s 0 -6 6 -6 l 8 0 s 6 0 6 6 l 0 184.88 z" transform="translate(1546,242.22)"/>
      </g>
      <g fill="purple" filter="none" id="ID_graph_1" opacity="1" stroke="none" stroke-opacity="1" stroke-width="0">
        <path d="M 0 0 l 0 8.81 s 0 6 6 6 l 8 0 s 6 0 6 -6 l 0 -8.81 z" transform="translate(63,242.22)"/>
        <path d="M 0 0 l 0 8.81 s 0 6 6 6 l 8 0 s 6 0 6 -6 l 0 -8.81 z" fill="url(#WhiteBlackGradient)" transform="translate(63,242.22)"/>
        <path d="M 0 0 l 0 8.81 s 0 6 6 6 l 8 0 s 6 0 6 -6 l 0 -8.81 z" fill-opacity="0.3" filter="url(#SaturateMinus)" transform="translate(63,242.22)"/>
        <path d="M 0 0 l 0 -23.63 s 0 -6 6 -6 l 8 0 s 6 0 6 6 l 0 23.63 z" transform="translate(253,242.22)"/>
        <path d="M 0 0 l 0 -23.63 s 0 -6 6 -6 l 8 0 s 6 0 6 6 l 0 23.63 z" fill="url(#WhiteBlackGradient)" transform="translate(253,242.22)"/>
        <path d="M 0 0 l 0 -23.63 s 0 -6 6 -6 l 8 0 s 6 0 6 6 l 0 23.63 z" fill-opacity="0.3" filter="url(#SaturateMinus)" transform="translate(253,242.22)"/>
        <path d="M 0 0 l 0 38.44 s 0 6 6 6 l 8 0 s 6 0 6 -6 l 0 -38.44 z" transform="translate(443,242.22)"/>
        <path d="M 0 0 l 0 38.44 s 0 6 6 6 l 8 0 s 6 0 6 -6 l 0 -38.44 z" fill="url(#WhiteBlackGradient)" transform="translate(443,242.22)"/>
        <path d="M 0 0 l 0 38.44 s 0 6 6 6 l 8 0 s 6 0 6 -6 l 0 -38.44 z" fill-opacity="0.3" filter="url(#SaturateMinus)" transform="translate(443,242.22)"/>
        <path d="M 0 0 l 0 -53.26 s 0 -6 6 -6 l 8 0 s 6 0 6 6 l 0 53.26 z" transform="translate(633,242.22)"/>
        <path d="M 0 0 l 0 -53.26 s 0 -6 6 -6 l 8 0 s 6 0 6 6 l 0 53.26 z" fill="url(#WhiteBlackGradient)" transform="translate(633,242.22)"/>
        <path d="M 0 0 l 0 -53.26 s 0 -6 6 -6 l 8 0 s 6 0 6 6 l 0 53.26 z" fill-opacity="0.3" filter="url(#SaturateMinus)" transform="translate(633,242.22)"/>
        <path d="M 0 0 l 0 68.07 s 0 6 6 6 l 8 0 s 6 0 6 -6 l 0 -68.07 z" transform="translate(823,242.22)"/>
        <path d="M 0 0 l 0 68.07 s 0 6 6 6 l 8 0 s 6 0 6 -6 l 0 -68.07 z" fill="url(#WhiteBlackGradient)" transform="translate(823,242.22)"/>
        <path d="M 0 0 l 0 68.07 s 0 6 6 6 l 8 0 s 6 0 6 -6 l 0 -68.07 z" fill-opacity="0.3" filter="url(#SaturateMinus)" transform="translate(823,242.22)"/>
        <path d="M 0 0 l 0 -82.89 s 0 -6 6 -6 l 8 0 s 6 0 6 6 l 0 82.89 z" transform="translate(1013,242.22)"/>
        <path d="M 0 0 l 0 -82.89 s 0 -6 6 -6 l 8 0 s 6 0 6 6 l 0 82.89 z" fill="url(#WhiteBlackGradient)" transform="translate(1013,242.22)"/>
        <path d="M 0 0 l 0 -82.89 s 0 -6 6 -6 l 8 0 s 6 0 6 6 l 0 82.89 z" fill-opacity="0.3" filter="url(#SaturateMinus)" transform="translate(1013,242.22)"/>
        <path d="M 0 0 l 0 97.7 s 0 6 6 6 l 8 0 s 6 0 6 -6 l 0 -97.7 z" transform="translate(1203,242.22)"/>
        <path d="M 0 0 l 0 97.7 s 0 6 6 6 l 8 0 s 6 0 6 -6 l 0 -97.7 z" fill="url(#WhiteBlackGradient)" transform="translate(1203,242.22)"/>
        <path d="M 0 0 l 0 97.7 s 0 6 6 6 l 8 0 s 6 0 6 -6 l 0 -97.7 z" fill-opacity="0.3" filter="url(#SaturateMinus)" transform="translate(1203,242.22)"/>
        <path d="M 0 0 l 0 -112.52 s 0 -6 6 -6 l 8 0 s 6 0 6 6 l 0 112.52 z" transform="translate(1393,242.22)"/>
        <path d="M 0 0 l 0 -112.52 s 0 -6 6 -6 l 8 0 s 6 0 6 6 l 0 112.52 z" fill="url(#WhiteBlackGradient)" transform="translate(1393,242.22)"/>
        <path d="M 0 0 l 0 -112.52 s 0 -6 6 -6 l 8 0 s 6 0 6 6 l 0 112.52 z" fill-opacity="0.3" filter="url(#SaturateMinus)" transform="translate(1393,242.22)"/>
      </g>
      <g fill="darkblue" filter="none" id="ID_graph_2" opacity="1" stroke="none" stroke-opacity="1" stroke-width="0">
        <path d="M 0 0 l 0 10.3 s 0 6 6 6 l 8 0 s 6 0 6 -6 l 0 -10.3 z" transform="translate(93,242.22)"/>
        <path d="M 0 0 l 0 10.3 s 0 6 6 6 l 8 0 s 6 0 6 -6 l 0 -10.3 z" fill="url(#WhiteBlackGradient)" transform="translate(93,242.22)"/>
        <path d="M 0 0 l 0 10.3 s 0 6 6 6 l 8 0 s 6 0 6 -6 l 0 -10.3 z" fill-opacity="0.3" filter="url(#SaturateMinus)" transform="translate(93,242.22)"/>
        <path d="M 0 0 l 0 -26.59 s 0 -6 6 -6 l 8 0 s 6 0 6 6 l 0 26.59 z" transform="translate(283,242.22)"/>
        <path d="M 0 0 l 0 -26.59 s 0 -6 6 -6 l 8 0 s 6 0 6 6 l 0 26.59 z" fill="url(#WhiteBlackGradient)" transform="translate(283,242.22)"/>
        <path d="M 0 0 l 0 -26.59 s 0 -6 6 -6 l 8 0 s 6 0 6 6 l 0 26.59 z" fill-opacity="0.3" filter="url(#SaturateMinus)" transform="translate(283,242.22)"/>
        <path d="M 0 0 l 0 42.89 s 0 6 6 6 l 8 0 s 6 0 6 -6 l 0 -42.89 z" transform="translate(473,242.22)"/>
        <path d="M 0 0 l 0 42.89 s 0 6 6 6 l 8 0 s 6 0 6 -6 l 0 -42.89 z" fill="url(#WhiteBlackGradient)" transform="translate(473,242.22)"/>
        <path d="M 0 0 l 0 42.89 s 0 6 6 6 l 8 0 s 6 0 6 -6 l 0 -42.89 z" fill-opacity="0.3" filter="url(#SaturateMinus)" transform="translate(473,242.22)"/>
        <path d="M 0 0 l 0 -59.19 s 0 -6 6 -6 l 8 0 s 6 0 6 6 l 0 59.19 z" transform="translate(663,242.22)"/>
        <path d="M 0 0 l 0 -59.19 s 0 -6 6 -6 l 8 0 s 6 0 6 6 l 0 59.19 z" fill="url(#WhiteBlackGradient)" transform="translate(663,242.22)"/>
        <path d="M 0 0 l 0 -59.19 s 0 -6 6 -6 l 8 0 s 6 0 6 6 l 0 59.19 z" fill-opacity="0.3" filter="url(#SaturateMinus)" transform="translate(663,242.22)"/>
        <path d="M 0 0 l 0 75.48 s 0 6 6 6 l 8 0 s 6 0 6 -6 l 0 -75.48 z" transform="translate(853,242.22)"/>
        <path d="M 0 0 l 0 75.48 s 0 6 6 6 l 8 0 s 6 0 6 -6 l 0 -75.48 z" fill="url(#WhiteBlackGradient)" transform="translate(853,242.22)"/>
        <path d="M 0 0 l 0 75.48 s 0 6 6 6 l 8 0 s 6 0 6 -6 l 0 -75.48 z" fill-opacity="0.3" filter="url(#SaturateMinus)" transform="translate(853,242.22)"/>
        <path d="M 0 0 l 0 -91.78 s 0 -6 6 -6 l 8 0 s 6 0 6 6 l 0 91.78 z" transform="translate(1043,242.22)"/>
        <path d="M 0 0 l 0 -91.78 s 0 -6 6 -6 l 8 0 s 6 0 6 6 l 0 91.78 z" fill="url(#WhiteBlackGradient)" transform="translate(1043,242.22)"/>
        <path d="M 0 0 l 0 -91.78 s 0 -6 6 -6 l 8 0 s 6 0 6 6 l 0 91.78 z" fill-opacity="0.3" filter="url(#SaturateMinus)" transform="translate(1043,242.22)"/>
        <path d="M 0 0 l 0 108.07 s 0 6 6 6 l 8 0 s 6 0 6 -6 l 0 -108.07 z" transform="translate(1233,242.22)"/>
        <path d="M 0 0 l 0 108.07 s 0 6 6 6 l 8 0 s 6 0 6 -6 l 0 -108.07 z" fill="url(#WhiteBlackGradient)" transform="translate(1233,242.22)"/>
        <path d="M 0 0 l 0 108.07 s 0 6 6 6 l 8 0 s 6 0 6 -6 l 0 -108.07 z" fill-opacity="0.3" filter="url(#SaturateMinus)" transform="translate(1233,242.22)"/>
        <path d="M 0 0 l 0 -124.37 s 0 -6 6 -6 l 8 0 s 6 0 6 6 l 0 124.37 z" transform="translate(1423,242.22)"/>
        <path d="M 0 0 l 0 -124.37 s 0 -6 6 -6 l 8 0 s 6 0 6 6 l 0 124.37 z" fill="url(#WhiteBlackGradient)" transform="translate(1423,242.22)"/>
        <path d="M 0 0 l 0 -124.37 s 0 -6 6 -6 l 8 0 s 6 0 6 6 l 0 124.37 z" fill-opacity="0.3" filter="url(#SaturateMinus)" transform="translate(1423,242.22)"/>
      </g>
      <g fill="blue" filter="none" id="ID_graph_3" opacity="1" stroke="none" stroke-opacity="1" stroke-width="0">
        <path d="M 0 0 l 0 11.93 s 0 6 6 6 l 8 0 s 6 0 6 -6 l 0 -11.93 z" transform="translate(123,242.22)"/>
        <path d="M 0 0 l 0 11.93 s 0 6 6 6 l 8 0 s 6 0 6 -6 l 0 -11.93 z" fill="url(#WhiteBlackGradient)" transform="translate(123,242.22)"/>
        <path d="M 0 0 l 0 11.93 s 0 6 6 6 l 8 0 s 6 0 6 -6 l 0 -11.93 z" fill-opacity="0.3" filter="url(#SaturateMinus)" transform="translate(123,242.22)"/>
        <path d="M 0 0 l 0 -29.85 s 0 -6 6 -6 l 8 0 s 6 0 6 6 l 0 29.85 z" transform="translate(313,242.22)"/>
        <path d="M 0 0 l 0 -29.85 s 0 -6 6 -6 l 8 0 s 6 0 6 6 l 0 29.85 z" fill="url(#WhiteBlackGradient)" transform="translate(313,242.22)"/>
        <path d="M 0 0 l 0 -29.85 s 0 -6 6 -6 l 8 0 s 6 0 6 6 l 0 29.85 z" fill-opacity="0.3" filter="url(#SaturateMinus)" transform="translate(313,242.22)"/>
        <path d="M 0 0 l 0 47.78 s 0 6 6 6 l 8 0 s 6 0 6 -6 l 0 -47.78 z" transform="translate(503,242.22)"/>
        <path d="M 0 0 l 0 47.78 s 0 6 6 6 l 8 0 s 6 0 6 -6 l 0 -47.78 z" fill="url(#WhiteBlackGradient)" transform="translate(503,242.22)"/>
        <path d="M 0 0 l 0 47.78 s 0 6 6 6 l 8 0 s 6 0 6 -6 l 0 -47.78 z" fill-opacity="0.3" filter="url(#SaturateMinus)" transform="translate(503,242.22)"/>
        <path d="M 0 0 l 0 -65.7 s 0 -6 6 -6 l 8 0 s 6 0 6 6 l 0 65.7 z" transform="translate(693,242.22)"/>
        <path d="M 0 0 l 0 -65.7 s 0 -6 6 -6 l 8 0 s 6 0 6 6 l 0 65.7 z" fill="url(#WhiteBlackGradient)" transform="translate(693,242.22)"/>
        <path d="M 0 0 l 0 -65.7 s 0 -6 6 -6 l 8 0 s 6 0 6 6 l 0 65.7 z" fill-opacity="0.3" filter="url(#SaturateMinus)" transform="translate(693,242.22)"/>
        <path d="M 0 0 l 0 83.63 s 0 6 6 6 l 8 0 s 6 0 6 -6 l 0 -83.63 z" transform="translate(883,242.22)"/>
        <path d="M 0 0 l 0 83.63 s 0 6 6 6 l 8 0 s 6 0 6 -6 l 0 -83.63 z" fill="url(#WhiteBlackGradient)" transform="translate(883,242.22)"/>
        <path d="M 0 0 l 0 83.63 s 0 6 6 6 l 8 0 s 6 0 6 -6 l 0 -83.63 z" fill-opacity="0.3" filter="url(#SaturateMinus)" transform="translate(883,242.22)"/>
        <path d="M 0 0 l 0 -101.56 s 0 -6 6 -6 l 8 0 s 6 0 6 6 l 0 101.56 z" transform="translate(1073,242.22)"/>
        <path d="M 0 0 l 0 -101.56 s 0 -6 6 -6 l 8 0 s 6 0 6 6 l 0 101.56 z" fill="url(#WhiteBlackGradient)" transform="translate(1073,242.22)"/>
        <path d="M 0 0 l 0 -101.56 s 0 -6 6 -6 l 8 0 s 6 0 6 6 l 0 101.56 z" fill-opacity="0.3" filter="url(#SaturateMinus)" transform="translate(1073,242.22)"/>
        <path d="M 0 0 l 0 119.48 s 0 6 6 6 l 8 0 s 6 0 6 -6 l 0 -119.48 z" transform="translate(1263,242.22)"/>
        <path d="M 0 0 l 0 119.48 s 0 6 6 6 l 8 0 s 6 0 6 -6 l 0 -119.48 z" fill="url(#WhiteBlackGradient)" transform="translate(1263,242.22)"/>
        <path d="M 0 0 l 0 119.48 s 0 6 6 6 l 8 0 s 6 0 6 -6 l 0 -119.48 z" fill-opacity="0.3" filter="url(#SaturateMinus)" transform="translate(1263,242.22)"/>
        <path d="M 0 0 l 0 -137.41 s 0 -6 6 -6 l 8 0 s 6 0 6 6 l 0 137.41 z" transform="translate(1453,242.22)"/>
        <path d="M 0 0 l 0 -137.41 s 0 -6 6 -6 l 8 0 s 6 0 6 6 l 0 137.41 z" fill="url(#WhiteBlackGradient)" transform="translate(1453,242.22)"/>
        <path d="M 0 0 l 0 -137.41 s 0 -6 6 -6 l 8 0 s 6 0 6 6 l 0 137.41 z" fill-opacity="0.3" filter="url(#SaturateMinus)" transform="translate(1453,242.22)"/>
      </g>
      <g fill="green" filter="none" id="ID_graph_4" opacity="1" stroke="none" stroke-opacity="1" stroke-width="0">
        <path d="M 0 0 l 0 13.72 s 0 6 6 6 l 8 0 s 6 0 6 -6 l 0 -13.72 z" transform="translate(153,242.22)"/>
        <path d="M 0 0 l 0 13.72 s 0 6 6 6 l 8 0 s 6 0 6 -6 l 0 -13.72 z" fill="url(#WhiteBlackGradient)" transform="translate(153,242.22)"/>
        <path d="M 0 0 l 0 13.72 s 0 6 6 6 l 8 0 s 6 0 6 -6 l 0 -13.72 z" fill-opacity="0.3" filter="url(#SaturateMinus)" transform="translate(153,242.22)"/>
        <path d="M 0 0 l 0 -33.44 s 0 -6 6 -6 l 8 0 s 6 0 6 6 l 0 33.44 z" transform="translate(343,242.22)"/>
        <path d="M 0 0 l 0 -33.44 s 0 -6 6 -6 l 8 0 s 6 0 6 6 l 0 33.44 z" fill="url(#WhiteBlackGradient)" transform="translate(343,242.22)"/>
        <path d="M 0 0 l 0 -33.44 s 0 -6 6 -6 l 8 0 s 6 0 6 6 l 0 33.44 z" fill-opacity="0.3" filter="url(#SaturateMinus)" transform="translate(343,242.22)"/>
        <path d="M 0 0 l 0 53.16 s 0 6 6 6 l 8 0 s 6 0 6 -6 l 0 -53.16 z" transform="translate(533,242.22)"/>
        <path d="M 0 0 l 0 53.16 s 0 6 6 6 l 8 0 s 6 0 6 -6 l 0 -53.16 z" fill="url(#WhiteBlackGradient)" transform="translate(533,242.22)"/>
        <path d="M 0 0 l 0 53.16 s 0 6 6 6 l 8 0 s 6 0 6 -6 l 0 -53.16 z" fill-opacity="0.3" filter="url(#SaturateMinus)" transform="translate(533,242.22)"/>
        <path d="M 0 0 l 0 -72.87 s 0 -6 6 -6 l 8 0 s 6 0 6 6 l 0 72.87 z" transform="translate(723,242.22)"/>
        <path d="M 0 0 l 0 -72.87 s 0 -6 6 -6 l 8 0 s 6 0 6 6 l 0 72.87 z" fill="url(#WhiteBlackGradient)" transform="translate(723,242.22)"/>
        <path d="M 0 0 l 0 -72.87 s 0 -6 6 -6 l 8 0 s 6 0 6 6 l 0 72.87 z" fill-opacity="0.3" filter="url(#SaturateMinus)" transform="translate(723,242.22)"/>
        <path d="M 0 0 l 0 92.59 s 0 6 6 6 l 8 0 s 6 0 6 -6 l 0 -92.59 z" transform="translate(913,242.22)"/>
        <path d="M 0 0 l 0 92.59 s 0 6 6 6 l 8 0 s 6 0 6 -6 l 0 -92.59 z" fill="url(#WhiteBlackGradient)" transform="translate(913,242.22)"/>
        <path d="M 0 0 l 0 92.59 s 0 6 6 6 l 8 0 s 6 0 6 -6 l 0 -92.59 z" fill-opacity="0.3" filter="url(#SaturateMinus)" transform="translate(913,242.22)"/>
        <path d="M 0 0 l 0 -112.31 s 0 -6 6 -6 l 8 0 s 6 0 6 6 l 0 112.31 z" transform="translate(1103,242.22)"/>
        <path d="M 0 0 l 0 -112.31 s 0 -6 6 -6 l 8 0 s 6 0 6 6 l 0 112.31 z" fill="url(#WhiteBlackGradient)" transform="translate(1103,242.22)"/>
        <path d="M 0 0 l 0 -112.31 s 0 -6 6 -6 l 8 0 s 6 0 6 6 l 0 112.31 z" fill-opacity="0.3" filter="url(#SaturateMinus)" transform="translate(1103,242.22)"/>
        <path d="M 0 0 l 0 132.03 s 0 6 6 6 l 8 0 s 6 0 6 -6 l 0 -132.03 z" transform="translate(1293,242.22)"/>
        <path d="M 0 0 l 0 132.03 s 0 6 6 6 l 8 0 s 6 0 6 -6 l 0 -132.03 z" fill="url(#WhiteBlackGradient)" transform="translate(1293,242.22)"/>
        <path d="M 0 0 l 0 132.03 s 0 6 6 6 l 8 0 s 6 0 6 -6 l 0 -132.03 z" fill-opacity="0.3" filter="url(#SaturateMinus)" transform="translate(1293,242.22)"/>
        <path d="M 0 0 l 0 -151.75 s 0 -6 6 -6 l 8 0 s 6 0 6 6 l 0 151.75 z" transform="translate(1483,242.22)"/>
        <path d="M 0 0 l 0 -151.75 s 0 -6 6 -6 l 8 0 s 6 0 6 6 l 0 151.75 z" fill="url(#WhiteBlackGradient)" transform="translate(1483,242.22)"/>
        <path d="M 0 0 l 0 -151.75 s 0 -6 6 -6 l 8 0 s 6 0 6 6 l 0 151.75 z" fill-opacity="0.3" filter="url(#SaturateMinus)" transform="translate(1483,242.22)"/>
      </g>
      <g fill="yellow" filter="none" id="ID_graph_5" opacity="1" stroke="none" stroke-opacity="1" stroke-width="0">
        <path d="M 0 0 l 0 15.69 s 0 6 6 6 l 8 0 s 6 0 6 -6 l 0 -15.69 z" transform="translate(183,242.22)"/>
        <path d="M 0 0 l 0 15.69 s 0 6 6 6 l 8 0 s 6 0 6 -6 l 0 -15.69 z" fill="url(#WhiteBlackGradient)" transform="translate(183,242.22)"/>
        <path d="M 0 0 l 0 15.69 s 0 6 6 6 l 8 0 s 6 0 6 -6 l 0 -15.69 z" fill-opacity="0.3" filter="url(#SaturateMinus)" transform="translate(183,242.22)"/>
        <path d="M 0 0 l 0 -37.38 s 0 -6 6 -6 l 8 0 s 6 0 6 6 l 0 37.38 z" transform="translate(373,242.22)"/>
        <path d="M 0 0 l 0 -37.38 s 0 -6 6 -6 l 8 0 s 6 0 6 6 l 0 37.38 z" fill="url(#WhiteBlackGradient)" transform="translate(373,242.22)"/>
        <path d="M 0 0 l 0 -37.38 s 0 -6 6 -6 l 8 0 s 6 0 6 6 l 0 37.38 z" fill-opacity="0.3" filter="url(#SaturateMinus)" transform="translate(373,242.22)"/>
        <path d="M 0 0 l 0 59.07 s 0 6 6 6 l 8 0 s 6 0 6 -6 l 0 -59.07 z" transform="translate(563,242.22)"/>
        <path d="M 0 0 l 0 59.07 s 0 6 6 6 l 8 0 s 6 0 6 -6 l 0 -59.07 z" fill="url(#WhiteBlackGradient)" transform="translate(563,242.22)"/>
        <path d="M 0 0 l 0 59.07 s 0 6 6 6 l 8 0 s 6 0 6 -6 l 0 -59.07 z" fill-opacity="0.3" filter="url(#SaturateMinus)" transform="translate(563,242.22)"/>
        <path d="M 0 0 l 0 -80.76 s 0 -6 6 -6 l 8 0 s 6 0 6 6 l 0 80.76 z" transform="translate(753,242.22)"/>
        <path d="M 0 0 l 0 -80.76 s 0 -6 6 -6 l 8 0 s 6 0 6 6 l 0 80.76 z" fill="url(#WhiteBlackGradient)" transform="translate(753,242.22)"/>
        <path d="M 0 0 l 0 -80.76 s 0 -6 6 -6 l 8 0 s 6 0 6 6 l 0 80.76 z" fill-opacity="0.3" filter="url(#SaturateMinus)" transform="translate(753,242.22)"/>
        <path d="M 0 0 l 0 102.45 s 0 6 6 6 l 8 0 s 6 0 6 -6 l 0 -102.45 z" transform="translate(943,242.22)"/>
        <path d="M 0 0 l 0 102.45 s 0 6 6 6 l 8 0 s 6 0 6 -6 l 0 -102.45 z" fill="url(#WhiteBlackGradient)" transform="translate(943,242.22)"/>
        <path d="M 0 0 l 0 102.45 s 0 6 6 6 l 8 0 s 6 0 6 -6 l 0 -102.45 z" fill-opacity="0.3" filter="url(#SaturateMinus)" transform="translate(943,242.22)"/>
        <path d="M 0 0 l 0 -124.14 s 0 -6 6 -6 l 8 0 s 6 0 6 6 l 0 124.14 z" transform="translate(1133,242.22)"/>
        <path d="M 0 0 l 0 -124.14 s 0 -6 6 -6 l 8 0 s 6 0 6 6 l 0 124.14 z" fill="url(#WhiteBlackGradient)" transform="translate(1133,242.22)"/>
        <path d="M 0 0 l 0 -124.14 s 0 -6 6 -6 l 8 0 s 6 0 6 6 l 0 124.14 z" fill-opacity="0.3" filter="url(#SaturateMinus)" transform="translate(1133,242.22)"/>
        <path d="M 0 0 l 0 145.83 s 0 6 6 6 l 8 0 s 6 0 6 -6 l 0 -145.83 z" transform="translate(1323,242.22)"/>
        <path d="M 0 0 l 0 145.83 s 0 6 6 6 l 8 0 s 6 0 6 -6 l 0 -145.83 z" fill="url(#WhiteBlackGradient)" transform="translate(1323,242.22)"/>
        <path d="M 0 0 l 0 145.83 s 0 6 6 6 l 8 0 s 6 0 6 -6 l 0 -145.83 z" fill-opacity="0.3" filter="url(#SaturateMinus)" transform="translate(1323,242.22)"/>
        <path d="M 0 0 l 0 -167.52 s 0 -6 6 -6 l 8 0 s 6 0 6 6 l 0 167.52 z" transform="translate(1513,242.22)"/>
        <path d="M 0 0 l 0 -167.52 s 0 -6 6 -6 l 8 0 s 6 0 6 6 l 0 167.52 z" fill="url(#WhiteBlackGradient)" transform="translate(1513,242.22)"/>
        <path d="M 0 0 l 0 -167.52 s 0 -6 6 -6 l 8 0 s 6 0 6 6 l 0 167.52 z" fill-opacity="0.3" filter="url(#SaturateMinus)" transform="translate(1513,242.22)"/>
      </g>
      <g fill="orange" filter="none" id="ID_graph_6" opacity="1" stroke="none" stroke-opacity="1" stroke-width="0">
        <path d="M 0 0 l 0 17.86 s 0 6 6 6 l 8 0 s 6 0 6 -6 l 0 -17.86 z" transform="translate(213,242.22)"/>
        <path d="M 0 0 l 0 17.86 s 0 6 6 6 l 8 0 s 6 0 6 -6 l 0 -17.86 z" fill="url(#WhiteBlackGradient)" transform="translate(213,242.22)"/>
        <path d="M 0 0 l 0 17.86 s 0 6 6 6 l 8 0 s 6 0 6 -6 l 0 -17.86 z" fill-opacity="0.3" filter="url(#SaturateMinus)" transform="translate(213,242.22)"/>
        <path d="M 0 0 l 0 -41.72 s 0 -6 6 -6 l 8 0 s 6 0 6 6 l 0 41.72 z" transform="translate(403,242.22)"/>
        <path d="M 0 0 l 0 -41.72 s 0 -6 6 -6 l 8 0 s 6 0 6 6 l 0 41.72 z" fill="url(#WhiteBlackGradient)" transform="translate(403,242.22)"/>
        <path d="M 0 0 l 0 -41.72 s 0 -6 6 -6 l 8 0 s 6 0 6 6 l 0 41.72 z" fill-opacity="0.3" filter="url(#SaturateMinus)" transform="translate(403,242.22)"/>
        <path d="M 0 0 l 0 65.58 s 0 6 6 6 l 8 0 s 6 0 6 -6 l 0 -65.58 z" transform="translate(593,242.22)"/>
        <path d="M 0 0 l 0 65.58 s 0 6 6 6 l 8 0 s 6 0 6 -6 l 0 -65.58 z" fill="url(#WhiteBlackGradient)" transform="translate(593,242.22)"/>
        <path d="M 0 0 l 0 65.58 s 0 6 6 6 l 8 0 s 6 0 6 -6 l 0 -65.58 z" fill-opacity="0.3" filter="url(#SaturateMinus)" transform="translate(593,242.22)"/>
        <path d="M 0 0 l 0 -89.44 s 0 -6 6 -6 l 8 0 s 6 0 6 6 l 0 89.44 z" transform="translate(783,242.22)"/>
        <path d="M 0 0 l 0 -89.44 s 0 -6 6 -6 l 8 0 s 6 0 6 6 l 0 89.44 z" fill="url(#WhiteBlackGradient)" transform="translate(783,242.22)"/>
        <path d="M 0 0 l 0 -89.44 s 0 -6 6 -6 l 8 0 s 6 0 6 6 l 0 89.44 z" fill-opacity="0.3" filter="url(#SaturateMinus)" transform="translate(783,242.22)"/>
        <path d="M 0 0 l 0 113.3 s 0 6 6 6 l 8 0 s 6 0 6 -6 l 0 -113.3 z" transform="translate(973,242.22)"/>
        <path d="M 0 0 l 0 113.3 s 0 6 6 6 l 8 0 s 6 0 6 -6 l 0 -113.3 z" fill="url(#WhiteBlackGradient)" transform="translate(973,242.22)"/>
        <path d="M 0 0 l 0 113.3 s 0 6 6 6 l 8 0 s 6 0 6 -6 l 0 -113.3 z" fill-opacity="0.3" filter="url(#SaturateMinus)" transform="translate(973,242.22)"/>
        <path d="M 0 0 l 0 -137.16 s 0 -6 6 -6 l 8 0 s 6 0 6 6 l 0 137.16 z" transform="translate(1163,242.22)"/>
        <path d="M 0 0 l 0 -137.16 s 0 -6 6 -6 l 8 0 s 6 0 6 6 l 0 137.16 z" fill="url(#WhiteBlackGradient)" transform="translate(1163,242.22)"/>
        <path d="M 0 0 l 0 -137.16 s 0 -6 6 -6 l 8 0 s 6 0 6 6 l 0 137.16 z" fill-opacity="0.3" filter="url(#SaturateMinus)" transform="translate(1163,242.22)"/>
        <path d="M 0 0 l 0 161.02 s 0 6 6 6 l 8 0 s 6 0 6 -6 l 0 -161.02 z" transform="translate(1353,242.22)"/>
        <path d="M 0 0 l 0 161.02 s 0 6 6 6 l 8 0 s 6 0 6 -6 l 0 -161.02 z" fill="url(#WhiteBlackGradient)" transform="translate(1353,242.22)"/>
        <path d="M 0 0 l 0 161.02 s 0 6 6 6 l 8 0 s 6 0 6 -6 l 0 -161.02 z" fill-opacity="0.3" filter="url(#SaturateMinus)" transform="translate(1353,242.22)"/>
        <path d="M 0 0 l 0 -184.88 s 0 -6 6 -6 l 8 0 s 6 0 6 6 l 0 184.88 z" transform="translate(1543,242.22)"/>
        <path d="M 0 0 l 0 -184.88 s 0 -6 6 -6 l 8 0 s 6 0 6 6 l 0 184.88 z" fill="url(#WhiteBlackGradient)" transform="translate(1543,242.22)"/>
        <path d="M 0 0 l 0 -184.88 s 0 -6 6 -6 l 8 0 s 6 0 6 6 l 0 184.88 z" fill-opacity="0.3" filter="url(#SaturateMinus)" transform="translate(1543,242.22)"/>
      </g>
    </g>
  </g>

</svg>