
<svg xmlns="http://www.w3.org/2000/svg" id="ID_svg" viewBox="0 0 1546 448" viewport-fill="none" viewport-fill-opacity="1" xmlns:exsl4D="http://www.4D.com" xmlns:gFunc="http://gFunc" xmlns:math="http://exslt.org/math" xmlns:xlink="http://www.w3.org/1999/xlink">

  <!--gradient styles-->

  <defs>
    <filter id="soft_blur">
      <feGaussianBlur in="SourceGraphic" result="BlurAlpha" stdDeviation="1"/>
    </filter>
    <filter id="pastel">
      <feGaussianBlur in="SourceAlpha" result="blur" stdDeviation="2"/>
      <feOffset dx="6" dy="6" in="blur" result="offsetBlur"/>
      <feComposite in="SourceGraphic" in2="offsetBlur" operator="in" result="specOut"/>
    </filter>
    <filter id="blur_shadow">
      <feGaussianBlur in="SourceAlpha" result="blur" stdDeviation="3"/>
      <feOffset dx="4" dy="2" in="blur" result="offsetBlur"/>
      <feBlend in="SourceGraphic" in2="offsetBlur" mode="normal"/>
    </filter>
    <filter filterUnits="objectBoundingBox" id="Shadow">
      <feGaussianBlur in="SourceAlpha" result="flou" stdDeviation="0"/>
      <feColorMatrix in="SourceAlpha" result="flouBlue" type="matrix" values=" 0 0 0 0 0                      0 0 0 0 0                     0 0 0 0 0                      0 0 0 0.3 0"/>
      <feOffset dx="4" dy="4" in="flouBlue" result="flouDecalage"/>
      <feBlend in="SourceGraphic" in2="flouDecalage" mode="normal"/>
    </filter>
    <filter filterUnits="objectBoundingBox" height="100%" id="SaturateMinus" width="100%" x="0%" y="0%">
      <feColorMatrix in="SourceGraphic" type="saturate" values="0.5"/>
    </filter>
    <filter filterUnits="objectBoundingBox" height="100%" id="SaturatePlus" width="100%" x="0%" y="0%">
      <feColorMatrix in="SourceGraphic" type="saturate" values="1.4"/>
    </filter>
    <linearGradient id="BlackGradient">
      <stop offset="0%" style="stop-color:rgb(0,0,0); stop-opacity:0"/>
      <stop offset="100%" style="stop-color:rgb(0,0,0); stop-opacity:0.1"/>
    </linearGradient>
    <linearGradient id="WhiteGradient" x1="0%" x2="100%" y1="0%" y2="0%">
      <stop offset="0%" style="stop-color:rgb(255,255,255); stop-opacity:0.3"/>
      <stop offset="100%" style="stop-color:rgb(255,255,255);stop-opacity:0"/>
    </linearGradient>
    <linearGradient id="WhiteBlackGradient" x1="0%" x2="100%" y1="0%" y2="0%">
      <stop offset="0%" style="stop-color:rgb(255,255,255); stop-opacity:0.15"/>
      <stop offset="100%" style="stop-color:rgb(0,0,0);stop-opacity:0.15"/>
    </linearGradient>
    <linearGradient id="Black0Black1Gradient" x1="0%" x2="0%" y1="0%" y2="100%">
      <stop offset="0%" style="stop-color:rgb(0,0,0); stop-opacity:0"/>
      <stop offset="100%" style="stop-color:rgb(0,0,0);stop-opacity:0.05"/>
    </linearGradient>
  </defs>

  <!--global stroke and font styles-->

  <g id="ID_globals" style="fill:black;stroke:none;font-family:Arial;font-size:12px;font-weight:normal;font-style:normal;text-decoration:none;shape-rendering:crispEdges">
    <!--draw title-->
    <!--********************************draw graph background********************************-->
    <rect fill="rgb(168,168,168)" height="400" id="ID_background_shadow" opacity="1" rx="10" ry="10" stroke="none" transform="translate(1,1)" visibility="visible" width="1328" x="42" y="12"/>
    <g fill="rgb(229,229,229)" id="ID_background" opacity="1" stroke="none" visibility="visible">
      <rect height="400" rx="10" ry="10" stroke="none" width="1328" x="42" y="12"/>
      <rect fill="url(#Black0Black1Gradient)" height="400" rx="10" ry="10" stroke="none" width="1328" x="42" y="12"/>
    </g>
    <clipPath id="ID_backgroundClipPath">
      <rect height="401" rx="10" ry="10" width="1329" x="41" y="11"/>
    </clipPath>
    <!--********************************draw Y Labels********************************-->
    <g id="ID_y$value" style="fill:black;stroke:none;font-family:Arial;font-size:12px;font-weight:normal;font-style:normal;text-decoration:none;filter:none" visibility="visible">
      <text text-anchor="end" x="30" y="18">15</text>
      <text text-anchor="end" x="30" y="58">12</text>
      <text text-anchor="end" x="30" y="98">9</text>
      <text text-anchor="end" x="30" y="138">6</text>
      <text text-anchor="end" x="30" y="178">3</text>
      <text text-anchor="end" x="30" y="218">0</text>
      <text text-anchor="end" x="30" y="258">-3</text>
      <text text-anchor="end" x="30" y="298">-6</text>
      <text text-anchor="end" x="30" y="338">-9</text>
      <text text-anchor="end" x="30" y="378">-12</text>
      <text text-anchor="end" x="30" y="418">-15</text>
    </g>
    <!--********************************draw X Labels********************************-->
    <!--draw axis x labels-->
    <g id="ID_x$value" style="fill:black;stroke:none;font-family:Arial;font-size:12px;font-weight:normal;font-style:normal;text-decoration:none;filter:none" visibility="visible">
      <text text-anchor="middle" x="125" y="436">08:00:00</text>
      <text text-anchor="middle" x="291" y="436">09:00:00</text>
      <text text-anchor="middle" x="457" y="436">10:00:00</text>
      <text text-anchor="middle" x="623" y="436">11:00:00</text>
      <text text-anchor="middle" x="789" y="436">11:15:00</text>
      <text text-anchor="middle" x="955" y="436">14:45:00</text>
      <text text-anchor="middle" x="1121" y="436">15:00:00</text>
      <text text-anchor="middle" x="1287" y="436">16:00:00</text>
    </g>
    <g style="clip-path: url(#ID_backgroundClipPath)">
      <!--******************************** draw Y grid lines******************************** (Horizontal lines)-->
      <g id="ID_y_grid" stroke="#a8a8a8" stroke-width="1">
        <line x1="42" x2="1370" y1="52" y2="52"/>
        <line x1="42" x2="1370" y1="92" y2="92"/>
        <line x1="42" x2="1370" y1="132" y2="132"/>
        <line x1="42" x2="1370" y1="172" y2="172"/>
        <line x1="42" x2="1370" y1="212" y2="212"/>
        <line x1="42" x2="1370" y1="252" y2="252"/>
        <line x1="42" x2="1370" y1="292" y2="292"/>
        <line x1="42" x2="1370" y1="332" y2="332"/>
        <line x1="42" x2="1370" y1="372" y2="372"/>
      </g>
      <!--draw Y grid lines SHADOWS-->
      <g id="ID_y_grid_shadow" stroke="#ffffff" stroke-width="1">
        <line transform="translate(0,1)" x1="42" x2="1370" y1="52" y2="52"/>
        <line transform="translate(0,1)" x1="42" x2="1370" y1="92" y2="92"/>
        <line transform="translate(0,1)" x1="42" x2="1370" y1="132" y2="132"/>
        <line transform="translate(0,1)" x1="42" x2="1370" y1="172" y2="172"/>
        <line transform="translate(0,1)" x1="42" x2="1370" y1="212" y2="212"/>
        <line transform="translate(0,1)" x1="42" x2="1370" y1="252" y2="252"/>
        <line transform="translate(0,1)" x1="42" x2="1370" y1="292" y2="292"/>
        <line transform="translate(0,1)" x1="42" x2="1370" y1="332" y2="332"/>
        <line transform="translate(0,1)" x1="42" x2="1370" y1="372" y2="372"/>
      </g>
      <g id="ID_y0_axis" stroke="rgb(100,100,100)" stroke-width="1" visibility="visible">
        <line x1="42" x2="1370" y1="212" y2="212"/>
      </g>
      <!--********************************draw X grid lines******************************** (Vertical lines)-->
      <g id="ID_x_grid" stroke="#a8a8a8" stroke-width="1">
        <line x1="208" x2="208" y1="12" y2="412"/>
        <line x1="374" x2="374" y1="12" y2="412"/>
        <line x1="540" x2="540" y1="12" y2="412"/>
        <line x1="706" x2="706" y1="12" y2="412"/>
        <line x1="872" x2="872" y1="12" y2="412"/>
        <line x1="1038" x2="1038" y1="12" y2="412"/>
        <line x1="1204" x2="1204" y1="12" y2="412"/>
        <line x1="1370" x2="1370" y1="12" y2="412"/>
      </g>
      <!--draw X grid lines SHADOWS -->
      <g id="ID_x_grid_shadow" stroke="#ffffff" stroke-width="1">
        <line transform="translate(1,0)" x1="208" x2="208" y1="12" y2="412"/>
        <line transform="translate(1,0)" x1="374" x2="374" y1="12" y2="412"/>
        <line transform="translate(1,0)" x1="540" x2="540" y1="12" y2="412"/>
        <line transform="translate(1,0)" x1="706" x2="706" y1="12" y2="412"/>
        <line transform="translate(1,0)" x1="872" x2="872" y1="12" y2="412"/>
        <line transform="translate(1,0)" x1="1038" x2="1038" y1="12" y2="412"/>
        <line transform="translate(1,0)" x1="1204" x2="1204" y1="12" y2="412"/>
        <line transform="translate(1,0)" x1="1370" x2="1370" y1="12" y2="412"/>
      </g>
    </g>
    <!--******************************** draw legend ***********************************-->
    <g filter="none" id="ID_legend" transform="translate(1382,12)" visibility="visible">
      <!--draw legend border-->
      <rect fill="rgb(168,168,168)" fill-opacity="1" height="220" id="ID_legend_border_shadow" rx="10" ry="10" stroke="none" transform="translate(1,1)" width="152" x="0" y="0"/>
      <rect fill="rgb(229,229,229)" fill-opacity="1" height="220" id="ID_legend_border" rx="10" ry="10" stroke="none" stroke-width="0" width="152" x="0" y="0"/>
      <!--draw legend bullets-->
      <g id="ID_legend_bullets" stroke="none">
        <g fill="rgb(0,178,195)" id="ID_legend_1">
          <rect height="20" rx="3" ry="3" width="20" x="10" y="10"/>
          <rect fill="url(#WhiteBlackGradient)" height="20" rx="3" ry="3" width="20" x="10" y="10"/>
          <rect fill-opacity="0.3" filter="url(#SaturateMinus)" height="20" rx="3" ry="3" width="20" x="10" y="10"/>
        </g>
        <g fill="rgb(255,195,56)" id="ID_legend_2">
          <rect height="20" rx="3" ry="3" width="20" x="10" y="40"/>
          <rect fill="url(#WhiteBlackGradient)" height="20" rx="3" ry="3" width="20" x="10" y="40"/>
          <rect fill-opacity="0.3" filter="url(#SaturateMinus)" height="20" rx="3" ry="3" width="20" x="10" y="40"/>
        </g>
        <g fill="rgb(87,62,130)" id="ID_legend_3">
          <rect height="20" rx="3" ry="3" width="20" x="10" y="70"/>
          <rect fill="url(#WhiteBlackGradient)" height="20" rx="3" ry="3" width="20" x="10" y="70"/>
          <rect fill-opacity="0.3" filter="url(#SaturateMinus)" height="20" rx="3" ry="3" width="20" x="10" y="70"/>
        </g>
        <g fill="rgb(79,168,57)" id="ID_legend_4">
          <rect height="20" rx="3" ry="3" width="20" x="10" y="100"/>
          <rect fill="url(#WhiteBlackGradient)" height="20" rx="3" ry="3" width="20" x="10" y="100"/>
          <rect fill-opacity="0.3" filter="url(#SaturateMinus)" height="20" rx="3" ry="3" width="20" x="10" y="100"/>
        </g>
        <g fill="rgb(217,87,0)" id="ID_legend_5">
          <rect height="20" rx="3" ry="3" width="20" x="10" y="130"/>
          <rect fill="url(#WhiteBlackGradient)" height="20" rx="3" ry="3" width="20" x="10" y="130"/>
          <rect fill-opacity="0.3" filter="url(#SaturateMinus)" height="20" rx="3" ry="3" width="20" x="10" y="130"/>
        </g>
        <g fill="rgb(29,157,242)" id="ID_legend_6">
          <rect height="20" rx="3" ry="3" width="20" x="10" y="160"/>
          <rect fill="url(#WhiteBlackGradient)" height="20" rx="3" ry="3" width="20" x="10" y="160"/>
          <rect fill-opacity="0.3" filter="url(#SaturateMinus)" height="20" rx="3" ry="3" width="20" x="10" y="160"/>
        </g>
        <g fill="rgb(181,207,50)" id="ID_legend_7">
          <rect height="20" rx="3" ry="3" width="20" x="10" y="190"/>
          <rect fill="url(#WhiteBlackGradient)" height="20" rx="3" ry="3" width="20" x="10" y="190"/>
          <rect fill-opacity="0.3" filter="url(#SaturateMinus)" height="20" rx="3" ry="3" width="20" x="10" y="190"/>
        </g>
      </g>
      <!--draw legend labels-->
      <g id="ID_legend_labels" style="fill:black;stroke:none;font-family:Arial;;font-weight:normal;font-style:normal;text-decoration:none;filter:none;text-anchor:start">
        <text x="40" y="27">Sharp</text>
        <text x="40" y="57">Infinity</text>
        <text x="40" y="87">Audio Référence</text>
        <text x="40" y="117">Triangle</text>
        <text x="40" y="147">Yamaha</text>
        <text x="40" y="177">Onkyo</text>
        <text x="40" y="207">Sony</text>
      </g>
    </g>
    <!-- exemple de path "M 0 0 l 0 -198 s 0,-6,6,-6 l 12 0 s 6,0,6,6 l 0 198 z" -->
    <g style="clip-path: url(#ID_backgroundClipPath)">
      <g fill="black" fill-opacity="0.2" id="ID_graph_shadow_1">
        <path d="M 0 0 l 0 8.33 s 0 5 5 5 l 0 0 s 5 0 5 -5 l 0 -8.33 z" transform="translate(57,212)"/>
        <path d="M 0 0 l 0 -21.67 s 0 -5 5 -5 l 0 0 s 5 0 5 5 l 0 21.67 z" transform="translate(223,212)"/>
        <path d="M 0 0 l 0 35 s 0 5 5 5 l 0 0 s 5 0 5 -5 l 0 -35 z" transform="translate(389,212)"/>
        <path d="M 0 0 l 0 -48.33 s 0 -5 5 -5 l 0 0 s 5 0 5 5 l 0 48.33 z" transform="translate(555,212)"/>
        <path d="M 0 0 l 0 61.67 s 0 5 5 5 l 0 0 s 5 0 5 -5 l 0 -61.67 z" transform="translate(721,212)"/>
        <path d="M 0 0 l 0 -75 s 0 -5 5 -5 l 0 0 s 5 0 5 5 l 0 75 z" transform="translate(887,212)"/>
        <path d="M 0 0 l 0 88.33 s 0 5 5 5 l 0 0 s 5 0 5 -5 l 0 -88.33 z" transform="translate(1053,212)"/>
        <path d="M 0 0 l 0 -101.67 s 0 -5 5 -5 l 0 0 s 5 0 5 5 l 0 101.67 z" transform="translate(1219,212)"/>
      </g>
      <g fill="black" fill-opacity="0.2" id="ID_graph_shadow_2">
        <path d="M 0 0 l 0 9.67 s 0 5 5 5 l 0 0 s 5 0 5 -5 l 0 -9.67 z" transform="translate(79,212)"/>
        <path d="M 0 0 l 0 -24.33 s 0 -5 5 -5 l 0 0 s 5 0 5 5 l 0 24.33 z" transform="translate(245,212)"/>
        <path d="M 0 0 l 0 39 s 0 5 5 5 l 0 0 s 5 0 5 -5 l 0 -39 z" transform="translate(411,212)"/>
        <path d="M 0 0 l 0 -53.67 s 0 -5 5 -5 l 0 0 s 5 0 5 5 l 0 53.67 z" transform="translate(577,212)"/>
        <path d="M 0 0 l 0 68.33 s 0 5 5 5 l 0 0 s 5 0 5 -5 l 0 -68.33 z" transform="translate(743,212)"/>
        <path d="M 0 0 l 0 -83 s 0 -5 5 -5 l 0 0 s 5 0 5 5 l 0 83 z" transform="translate(909,212)"/>
        <path d="M 0 0 l 0 97.67 s 0 5 5 5 l 0 0 s 5 0 5 -5 l 0 -97.67 z" transform="translate(1075,212)"/>
        <path d="M 0 0 l 0 -112.33 s 0 -5 5 -5 l 0 0 s 5 0 5 5 l 0 112.33 z" transform="translate(1241,212)"/>
      </g>
      <g fill="black" fill-opacity="0.2" id="ID_graph_shadow_3">
        <path d="M 0 0 l 0 11.13 s 0 5 5 5 l 0 0 s 5 0 5 -5 l 0 -11.13 z" transform="translate(101,212)"/>
        <path d="M 0 0 l 0 -27.27 s 0 -5 5 -5 l 0 0 s 5 0 5 5 l 0 27.27 z" transform="translate(267,212)"/>
        <path d="M 0 0 l 0 43.4 s 0 5 5 5 l 0 0 s 5 0 5 -5 l 0 -43.4 z" transform="translate(433,212)"/>
        <path d="M 0 0 l 0 -59.53 s 0 -5 5 -5 l 0 0 s 5 0 5 5 l 0 59.53 z" transform="translate(599,212)"/>
        <path d="M 0 0 l 0 75.67 s 0 5 5 5 l 0 0 s 5 0 5 -5 l 0 -75.67 z" transform="translate(765,212)"/>
        <path d="M 0 0 l 0 -91.8 s 0 -5 5 -5 l 0 0 s 5 0 5 5 l 0 91.8 z" transform="translate(931,212)"/>
        <path d="M 0 0 l 0 107.93 s 0 5 5 5 l 0 0 s 5 0 5 -5 l 0 -107.93 z" transform="translate(1097,212)"/>
        <path d="M 0 0 l 0 -124.07 s 0 -5 5 -5 l 0 0 s 5 0 5 5 l 0 124.07 z" transform="translate(1263,212)"/>
      </g>
      <g fill="black" fill-opacity="0.2" id="ID_graph_shadow_4">
        <path d="M 0 0 l 0 12.75 s 0 5 5 5 l 0 0 s 5 0 5 -5 l 0 -12.75 z" transform="translate(123,212)"/>
        <path d="M 0 0 l 0 -30.49 s 0 -5 5 -5 l 0 0 s 5 0 5 5 l 0 30.49 z" transform="translate(289,212)"/>
        <path d="M 0 0 l 0 48.24 s 0 5 5 5 l 0 0 s 5 0 5 -5 l 0 -48.24 z" transform="translate(455,212)"/>
        <path d="M 0 0 l 0 -65.99 s 0 -5 5 -5 l 0 0 s 5 0 5 5 l 0 65.99 z" transform="translate(621,212)"/>
        <path d="M 0 0 l 0 83.73 s 0 5 5 5 l 0 0 s 5 0 5 -5 l 0 -83.73 z" transform="translate(787,212)"/>
        <path d="M 0 0 l 0 -101.48 s 0 -5 5 -5 l 0 0 s 5 0 5 5 l 0 101.48 z" transform="translate(953,212)"/>
        <path d="M 0 0 l 0 119.23 s 0 5 5 5 l 0 0 s 5 0 5 -5 l 0 -119.23 z" transform="translate(1119,212)"/>
        <path d="M 0 0 l 0 -136.97 s 0 -5 5 -5 l 0 0 s 5 0 5 5 l 0 136.97 z" transform="translate(1285,212)"/>
      </g>
      <g fill="black" fill-opacity="0.2" id="ID_graph_shadow_5">
        <path d="M 0 0 l 0 14.52 s 0 5 5 5 l 0 0 s 5 0 5 -5 l 0 -14.52 z" transform="translate(145,212)"/>
        <path d="M 0 0 l 0 -34.04 s 0 -5 5 -5 l 0 0 s 5 0 5 5 l 0 34.04 z" transform="translate(311,212)"/>
        <path d="M 0 0 l 0 53.56 s 0 5 5 5 l 0 0 s 5 0 5 -5 l 0 -53.56 z" transform="translate(477,212)"/>
        <path d="M 0 0 l 0 -73.09 s 0 -5 5 -5 l 0 0 s 5 0 5 5 l 0 73.09 z" transform="translate(643,212)"/>
        <path d="M 0 0 l 0 92.61 s 0 5 5 5 l 0 0 s 5 0 5 -5 l 0 -92.61 z" transform="translate(809,212)"/>
        <path d="M 0 0 l 0 -112.13 s 0 -5 5 -5 l 0 0 s 5 0 5 5 l 0 112.13 z" transform="translate(975,212)"/>
        <path d="M 0 0 l 0 131.65 s 0 5 5 5 l 0 0 s 5 0 5 -5 l 0 -131.65 z" transform="translate(1141,212)"/>
        <path d="M 0 0 l 0 -151.17 s 0 -5 5 -5 l 0 0 s 5 0 5 5 l 0 151.17 z" transform="translate(1307,212)"/>
      </g>
      <g fill="black" fill-opacity="0.2" id="ID_graph_shadow_6">
        <path d="M 0 0 l 0 16.47 s 0 5 5 5 l 0 0 s 5 0 5 -5 l 0 -16.47 z" transform="translate(167,212)"/>
        <path d="M 0 0 l 0 -37.95 s 0 -5 5 -5 l 0 0 s 5 0 5 5 l 0 37.95 z" transform="translate(333,212)"/>
        <path d="M 0 0 l 0 59.42 s 0 5 5 5 l 0 0 s 5 0 5 -5 l 0 -59.42 z" transform="translate(499,212)"/>
        <path d="M 0 0 l 0 -80.89 s 0 -5 5 -5 l 0 0 s 5 0 5 5 l 0 80.89 z" transform="translate(665,212)"/>
        <path d="M 0 0 l 0 102.37 s 0 5 5 5 l 0 0 s 5 0 5 -5 l 0 -102.37 z" transform="translate(831,212)"/>
        <path d="M 0 0 l 0 -123.84 s 0 -5 5 -5 l 0 0 s 5 0 5 5 l 0 123.84 z" transform="translate(997,212)"/>
        <path d="M 0 0 l 0 145.31 s 0 5 5 5 l 0 0 s 5 0 5 -5 l 0 -145.31 z" transform="translate(1163,212)"/>
        <path d="M 0 0 l 0 -166.79 s 0 -5 5 -5 l 0 0 s 5 0 5 5 l 0 166.79 z" transform="translate(1329,212)"/>
      </g>
      <g fill="black" fill-opacity="0.2" id="ID_graph_shadow_7">
        <path d="M 0 0 l 0 18.62 s 0 5 5 5 l 0 0 s 5 0 5 -5 l 0 -18.62 z" transform="translate(189,212)"/>
        <path d="M 0 0 l 0 -42.24 s 0 -5 5 -5 l 0 0 s 5 0 5 5 l 0 42.24 z" transform="translate(355,212)"/>
        <path d="M 0 0 l 0 65.86 s 0 5 5 5 l 0 0 s 5 0 5 -5 l 0 -65.86 z" transform="translate(521,212)"/>
        <path d="M 0 0 l 0 -89.48 s 0 -5 5 -5 l 0 0 s 5 0 5 5 l 0 89.48 z" transform="translate(687,212)"/>
        <path d="M 0 0 l 0 113.1 s 0 5 5 5 l 0 0 s 5 0 5 -5 l 0 -113.1 z" transform="translate(853,212)"/>
        <path d="M 0 0 l 0 -136.72 s 0 -5 5 -5 l 0 0 s 5 0 5 5 l 0 136.72 z" transform="translate(1019,212)"/>
        <path d="M 0 0 l 0 160.35 s 0 5 5 5 l 0 0 s 5 0 5 -5 l 0 -160.35 z" transform="translate(1185,212)"/>
        <path d="M 0 0 l 0 -183.97 s 0 -5 5 -5 l 0 0 s 5 0 5 5 l 0 183.97 z" transform="translate(1351,212)"/>
      </g>
      <g fill="rgb(0,178,195)" filter="none" id="ID_graph_1" opacity="1" stroke="none" stroke-opacity="1" stroke-width="0">
        <path d="M 0 0 l 0 8.33 s 0 5 5 5 l 0 0 s 5 0 5 -5 l 0 -8.33 z" transform="translate(54,212)"/>
        <path d="M 0 0 l 0 8.33 s 0 5 5 5 l 0 0 s 5 0 5 -5 l 0 -8.33 z" fill="url(#WhiteBlackGradient)" transform="translate(54,212)"/>
        <path d="M 0 0 l 0 8.33 s 0 5 5 5 l 0 0 s 5 0 5 -5 l 0 -8.33 z" fill-opacity="0.3" filter="url(#SaturateMinus)" transform="translate(54,212)"/>
        <path d="M 0 0 l 0 -21.67 s 0 -5 5 -5 l 0 0 s 5 0 5 5 l 0 21.67 z" transform="translate(220,212)"/>
        <path d="M 0 0 l 0 -21.67 s 0 -5 5 -5 l 0 0 s 5 0 5 5 l 0 21.67 z" fill="url(#WhiteBlackGradient)" transform="translate(220,212)"/>
        <path d="M 0 0 l 0 -21.67 s 0 -5 5 -5 l 0 0 s 5 0 5 5 l 0 21.67 z" fill-opacity="0.3" filter="url(#SaturateMinus)" transform="translate(220,212)"/>
        <path d="M 0 0 l 0 35 s 0 5 5 5 l 0 0 s 5 0 5 -5 l 0 -35 z" transform="translate(386,212)"/>
        <path d="M 0 0 l 0 35 s 0 5 5 5 l 0 0 s 5 0 5 -5 l 0 -35 z" fill="url(#WhiteBlackGradient)" transform="translate(386,212)"/>
        <path d="M 0 0 l 0 35 s 0 5 5 5 l 0 0 s 5 0 5 -5 l 0 -35 z" fill-opacity="0.3" filter="url(#SaturateMinus)" transform="translate(386,212)"/>
        <path d="M 0 0 l 0 -48.33 s 0 -5 5 -5 l 0 0 s 5 0 5 5 l 0 48.33 z" transform="translate(552,212)"/>
        <path d="M 0 0 l 0 -48.33 s 0 -5 5 -5 l 0 0 s 5 0 5 5 l 0 48.33 z" fill="url(#WhiteBlackGradient)" transform="translate(552,212)"/>
        <path d="M 0 0 l 0 -48.33 s 0 -5 5 -5 l 0 0 s 5 0 5 5 l 0 48.33 z" fill-opacity="0.3" filter="url(#SaturateMinus)" transform="translate(552,212)"/>
        <path d="M 0 0 l 0 61.67 s 0 5 5 5 l 0 0 s 5 0 5 -5 l 0 -61.67 z" transform="translate(718,212)"/>
        <path d="M 0 0 l 0 61.67 s 0 5 5 5 l 0 0 s 5 0 5 -5 l 0 -61.67 z" fill="url(#WhiteBlackGradient)" transform="translate(718,212)"/>
        <path d="M 0 0 l 0 61.67 s 0 5 5 5 l 0 0 s 5 0 5 -5 l 0 -61.67 z" fill-opacity="0.3" filter="url(#SaturateMinus)" transform="translate(718,212)"/>
        <path d="M 0 0 l 0 -75 s 0 -5 5 -5 l 0 0 s 5 0 5 5 l 0 75 z" transform="translate(884,212)"/>
        <path d="M 0 0 l 0 -75 s 0 -5 5 -5 l 0 0 s 5 0 5 5 l 0 75 z" fill="url(#WhiteBlackGradient)" transform="translate(884,212)"/>
        <path d="M 0 0 l 0 -75 s 0 -5 5 -5 l 0 0 s 5 0 5 5 l 0 75 z" fill-opacity="0.3" filter="url(#SaturateMinus)" transform="translate(884,212)"/>
        <path d="M 0 0 l 0 88.33 s 0 5 5 5 l 0 0 s 5 0 5 -5 l 0 -88.33 z" transform="translate(1050,212)"/>
        <path d="M 0 0 l 0 88.33 s 0 5 5 5 l 0 0 s 5 0 5 -5 l 0 -88.33 z" fill="url(#WhiteBlackGradient)" transform="translate(1050,212)"/>
        <path d="M 0 0 l 0 88.33 s 0 5 5 5 l 0 0 s 5 0 5 -5 l 0 -88.33 z" fill-opacity="0.3" filter="url(#SaturateMinus)" transform="translate(1050,212)"/>
        <path d="M 0 0 l 0 -101.67 s 0 -5 5 -5 l 0 0 s 5 0 5 5 l 0 101.67 z" transform="translate(1216,212)"/>
        <path d="M 0 0 l 0 -101.67 s 0 -5 5 -5 l 0 0 s 5 0 5 5 l 0 101.67 z" fill="url(#WhiteBlackGradient)" transform="translate(1216,212)"/>
        <path d="M 0 0 l 0 -101.67 s 0 -5 5 -5 l 0 0 s 5 0 5 5 l 0 101.67 z" fill-opacity="0.3" filter="url(#SaturateMinus)" transform="translate(1216,212)"/>
      </g>
      <g fill="rgb(255,195,56)" filter="none" id="ID_graph_2" opacity="1" stroke="none" stroke-opacity="1" stroke-width="0">
        <path d="M 0 0 l 0 9.67 s 0 5 5 5 l 0 0 s 5 0 5 -5 l 0 -9.67 z" transform="translate(76,212)"/>
        <path d="M 0 0 l 0 9.67 s 0 5 5 5 l 0 0 s 5 0 5 -5 l 0 -9.67 z" fill="url(#WhiteBlackGradient)" transform="translate(76,212)"/>
        <path d="M 0 0 l 0 9.67 s 0 5 5 5 l 0 0 s 5 0 5 -5 l 0 -9.67 z" fill-opacity="0.3" filter="url(#SaturateMinus)" transform="translate(76,212)"/>
        <path d="M 0 0 l 0 -24.33 s 0 -5 5 -5 l 0 0 s 5 0 5 5 l 0 24.33 z" transform="translate(242,212)"/>
        <path d="M 0 0 l 0 -24.33 s 0 -5 5 -5 l 0 0 s 5 0 5 5 l 0 24.33 z" fill="url(#WhiteBlackGradient)" transform="translate(242,212)"/>
        <path d="M 0 0 l 0 -24.33 s 0 -5 5 -5 l 0 0 s 5 0 5 5 l 0 24.33 z" fill-opacity="0.3" filter="url(#SaturateMinus)" transform="translate(242,212)"/>
        <path d="M 0 0 l 0 39 s 0 5 5 5 l 0 0 s 5 0 5 -5 l 0 -39 z" transform="translate(408,212)"/>
        <path d="M 0 0 l 0 39 s 0 5 5 5 l 0 0 s 5 0 5 -5 l 0 -39 z" fill="url(#WhiteBlackGradient)" transform="translate(408,212)"/>
        <path d="M 0 0 l 0 39 s 0 5 5 5 l 0 0 s 5 0 5 -5 l 0 -39 z" fill-opacity="0.3" filter="url(#SaturateMinus)" transform="translate(408,212)"/>
        <path d="M 0 0 l 0 -53.67 s 0 -5 5 -5 l 0 0 s 5 0 5 5 l 0 53.67 z" transform="translate(574,212)"/>
        <path d="M 0 0 l 0 -53.67 s 0 -5 5 -5 l 0 0 s 5 0 5 5 l 0 53.67 z" fill="url(#WhiteBlackGradient)" transform="translate(574,212)"/>
        <path d="M 0 0 l 0 -53.67 s 0 -5 5 -5 l 0 0 s 5 0 5 5 l 0 53.67 z" fill-opacity="0.3" filter="url(#SaturateMinus)" transform="translate(574,212)"/>
        <path d="M 0 0 l 0 68.33 s 0 5 5 5 l 0 0 s 5 0 5 -5 l 0 -68.33 z" transform="translate(740,212)"/>
        <path d="M 0 0 l 0 68.33 s 0 5 5 5 l 0 0 s 5 0 5 -5 l 0 -68.33 z" fill="url(#WhiteBlackGradient)" transform="translate(740,212)"/>
        <path d="M 0 0 l 0 68.33 s 0 5 5 5 l 0 0 s 5 0 5 -5 l 0 -68.33 z" fill-opacity="0.3" filter="url(#SaturateMinus)" transform="translate(740,212)"/>
        <path d="M 0 0 l 0 -83 s 0 -5 5 -5 l 0 0 s 5 0 5 5 l 0 83 z" transform="translate(906,212)"/>
        <path d="M 0 0 l 0 -83 s 0 -5 5 -5 l 0 0 s 5 0 5 5 l 0 83 z" fill="url(#WhiteBlackGradient)" transform="translate(906,212)"/>
        <path d="M 0 0 l 0 -83 s 0 -5 5 -5 l 0 0 s 5 0 5 5 l 0 83 z" fill-opacity="0.3" filter="url(#SaturateMinus)" transform="translate(906,212)"/>
        <path d="M 0 0 l 0 97.67 s 0 5 5 5 l 0 0 s 5 0 5 -5 l 0 -97.67 z" transform="translate(1072,212)"/>
        <path d="M 0 0 l 0 97.67 s 0 5 5 5 l 0 0 s 5 0 5 -5 l 0 -97.67 z" fill="url(#WhiteBlackGradient)" transform="translate(1072,212)"/>
        <path d="M 0 0 l 0 97.67 s 0 5 5 5 l 0 0 s 5 0 5 -5 l 0 -97.67 z" fill-opacity="0.3" filter="url(#SaturateMinus)" transform="translate(1072,212)"/>
        <path d="M 0 0 l 0 -112.33 s 0 -5 5 -5 l 0 0 s 5 0 5 5 l 0 112.33 z" transform="translate(1238,212)"/>
        <path d="M 0 0 l 0 -112.33 s 0 -5 5 -5 l 0 0 s 5 0 5 5 l 0 112.33 z" fill="url(#WhiteBlackGradient)" transform="translate(1238,212)"/>
        <path d="M 0 0 l 0 -112.33 s 0 -5 5 -5 l 0 0 s 5 0 5 5 l 0 112.33 z" fill-opacity="0.3" filter="url(#SaturateMinus)" transform="translate(1238,212)"/>
      </g>
      <g fill="rgb(87,62,130)" filter="none" id="ID_graph_3" opacity="1" stroke="none" stroke-opacity="1" stroke-width="0">
        <path d="M 0 0 l 0 11.13 s 0 5 5 5 l 0 0 s 5 0 5 -5 l 0 -11.13 z" transform="translate(98,212)"/>
        <path d="M 0 0 l 0 11.13 s 0 5 5 5 l 0 0 s 5 0 5 -5 l 0 -11.13 z" fill="url(#WhiteBlackGradient)" transform="translate(98,212)"/>
        <path d="M 0 0 l 0 11.13 s 0 5 5 5 l 0 0 s 5 0 5 -5 l 0 -11.13 z" fill-opacity="0.3" filter="url(#SaturateMinus)" transform="translate(98,212)"/>
        <path d="M 0 0 l 0 -27.27 s 0 -5 5 -5 l 0 0 s 5 0 5 5 l 0 27.27 z" transform="translate(264,212)"/>
        <path d="M 0 0 l 0 -27.27 s 0 -5 5 -5 l 0 0 s 5 0 5 5 l 0 27.27 z" fill="url(#WhiteBlackGradient)" transform="translate(264,212)"/>
        <path d="M 0 0 l 0 -27.27 s 0 -5 5 -5 l 0 0 s 5 0 5 5 l 0 27.27 z" fill-opacity="0.3" filter="url(#SaturateMinus)" transform="translate(264,212)"/>
        <path d="M 0 0 l 0 43.4 s 0 5 5 5 l 0 0 s 5 0 5 -5 l 0 -43.4 z" transform="translate(430,212)"/>
        <path d="M 0 0 l 0 43.4 s 0 5 5 5 l 0 0 s 5 0 5 -5 l 0 -43.4 z" fill="url(#WhiteBlackGradient)" transform="translate(430,212)"/>
        <path d="M 0 0 l 0 43.4 s 0 5 5 5 l 0 0 s 5 0 5 -5 l 0 -43.4 z" fill-opacity="0.3" filter="url(#SaturateMinus)" transform="translate(430,212)"/>
        <path d="M 0 0 l 0 -59.53 s 0 -5 5 -5 l 0 0 s 5 0 5 5 l 0 59.53 z" transform="translate(596,212)"/>
        <path d="M 0 0 l 0 -59.53 s 0 -5 5 -5 l 0 0 s 5 0 5 5 l 0 59.53 z" fill="url(#WhiteBlackGradient)" transform="translate(596,212)"/>
        <path d="M 0 0 l 0 -59.53 s 0 -5 5 -5 l 0 0 s 5 0 5 5 l 0 59.53 z" fill-opacity="0.3" filter="url(#SaturateMinus)" transform="translate(596,212)"/>
        <path d="M 0 0 l 0 75.67 s 0 5 5 5 l 0 0 s 5 0 5 -5 l 0 -75.67 z" transform="translate(762,212)"/>
        <path d="M 0 0 l 0 75.67 s 0 5 5 5 l 0 0 s 5 0 5 -5 l 0 -75.67 z" fill="url(#WhiteBlackGradient)" transform="translate(762,212)"/>
        <path d="M 0 0 l 0 75.67 s 0 5 5 5 l 0 0 s 5 0 5 -5 l 0 -75.67 z" fill-opacity="0.3" filter="url(#SaturateMinus)" transform="translate(762,212)"/>
        <path d="M 0 0 l 0 -91.8 s 0 -5 5 -5 l 0 0 s 5 0 5 5 l 0 91.8 z" transform="translate(928,212)"/>
        <path d="M 0 0 l 0 -91.8 s 0 -5 5 -5 l 0 0 s 5 0 5 5 l 0 91.8 z" fill="url(#WhiteBlackGradient)" transform="translate(928,212)"/>
        <path d="M 0 0 l 0 -91.8 s 0 -5 5 -5 l 0 0 s 5 0 5 5 l 0 91.8 z" fill-opacity="0.3" filter="url(#SaturateMinus)" transform="translate(928,212)"/>
        <path d="M 0 0 l 0 107.93 s 0 5 5 5 l 0 0 s 5 0 5 -5 l 0 -107.93 z" transform="translate(1094,212)"/>
        <path d="M 0 0 l 0 107.93 s 0 5 5 5 l 0 0 s 5 0 5 -5 l 0 -107.93 z" fill="url(#WhiteBlackGradient)" transform="translate(1094,212)"/>
        <path d="M 0 0 l 0 107.93 s 0 5 5 5 l 0 0 s 5 0 5 -5 l 0 -107.93 z" fill-opacity="0.3" filter="url(#SaturateMinus)" transform="translate(1094,212)"/>
        <path d="M 0 0 l 0 -124.07 s 0 -5 5 -5 l 0 0 s 5 0 5 5 l 0 124.07 z" transform="translate(1260,212)"/>
        <path d="M 0 0 l 0 -124.07 s 0 -5 5 -5 l 0 0 s 5 0 5 5 l 0 124.07 z" fill="url(#WhiteBlackGradient)" transform="translate(1260,212)"/>
        <path d="M 0 0 l 0 -124.07 s 0 -5 5 -5 l 0 0 s 5 0 5 5 l 0 124.07 z" fill-opacity="0.3" filter="url(#SaturateMinus)" transform="translate(1260,212)"/>
      </g>
      <g fill="rgb(79,168,57)" filter="none" id="ID_graph_4" opacity="1" stroke="none" stroke-opacity="1" stroke-width="0">
        <path d="M 0 0 l 0 12.75 s 0 5 5 5 l 0 0 s 5 0 5 -5 l 0 -12.75 z" transform="translate(120,212)"/>
        <path d="M 0 0 l 0 12.75 s 0 5 5 5 l 0 0 s 5 0 5 -5 l 0 -12.75 z" fill="url(#WhiteBlackGradient)" transform="translate(120,212)"/>
        <path d="M 0 0 l 0 12.75 s 0 5 5 5 l 0 0 s 5 0 5 -5 l 0 -12.75 z" fill-opacity="0.3" filter="url(#SaturateMinus)" transform="translate(120,212)"/>
        <path d="M 0 0 l 0 -30.49 s 0 -5 5 -5 l 0 0 s 5 0 5 5 l 0 30.49 z" transform="translate(286,212)"/>
        <path d="M 0 0 l 0 -30.49 s 0 -5 5 -5 l 0 0 s 5 0 5 5 l 0 30.49 z" fill="url(#WhiteBlackGradient)" transform="translate(286,212)"/>
        <path d="M 0 0 l 0 -30.49 s 0 -5 5 -5 l 0 0 s 5 0 5 5 l 0 30.49 z" fill-opacity="0.3" filter="url(#SaturateMinus)" transform="translate(286,212)"/>
        <path d="M 0 0 l 0 48.24 s 0 5 5 5 l 0 0 s 5 0 5 -5 l 0 -48.24 z" transform="translate(452,212)"/>
        <path d="M 0 0 l 0 48.24 s 0 5 5 5 l 0 0 s 5 0 5 -5 l 0 -48.24 z" fill="url(#WhiteBlackGradient)" transform="translate(452,212)"/>
        <path d="M 0 0 l 0 48.24 s 0 5 5 5 l 0 0 s 5 0 5 -5 l 0 -48.24 z" fill-opacity="0.3" filter="url(#SaturateMinus)" transform="translate(452,212)"/>
        <path d="M 0 0 l 0 -65.99 s 0 -5 5 -5 l 0 0 s 5 0 5 5 l 0 65.99 z" transform="translate(618,212)"/>
        <path d="M 0 0 l 0 -65.99 s 0 -5 5 -5 l 0 0 s 5 0 5 5 l 0 65.99 z" fill="url(#WhiteBlackGradient)" transform="translate(618,212)"/>
        <path d="M 0 0 l 0 -65.99 s 0 -5 5 -5 l 0 0 s 5 0 5 5 l 0 65.99 z" fill-opacity="0.3" filter="url(#SaturateMinus)" transform="translate(618,212)"/>
        <path d="M 0 0 l 0 83.73 s 0 5 5 5 l 0 0 s 5 0 5 -5 l 0 -83.73 z" transform="translate(784,212)"/>
        <path d="M 0 0 l 0 83.73 s 0 5 5 5 l 0 0 s 5 0 5 -5 l 0 -83.73 z" fill="url(#WhiteBlackGradient)" transform="translate(784,212)"/>
        <path d="M 0 0 l 0 83.73 s 0 5 5 5 l 0 0 s 5 0 5 -5 l 0 -83.73 z" fill-opacity="0.3" filter="url(#SaturateMinus)" transform="translate(784,212)"/>
        <path d="M 0 0 l 0 -101.48 s 0 -5 5 -5 l 0 0 s 5 0 5 5 l 0 101.48 z" transform="translate(950,212)"/>
        <path d="M 0 0 l 0 -101.48 s 0 -5 5 -5 l 0 0 s 5 0 5 5 l 0 101.48 z" fill="url(#WhiteBlackGradient)" transform="translate(950,212)"/>
        <path d="M 0 0 l 0 -101.48 s 0 -5 5 -5 l 0 0 s 5 0 5 5 l 0 101.48 z" fill-opacity="0.3" filter="url(#SaturateMinus)" transform="translate(950,212)"/>
        <path d="M 0 0 l 0 119.23 s 0 5 5 5 l 0 0 s 5 0 5 -5 l 0 -119.23 z" transform="translate(1116,212)"/>
        <path d="M 0 0 l 0 119.23 s 0 5 5 5 l 0 0 s 5 0 5 -5 l 0 -119.23 z" fill="url(#WhiteBlackGradient)" transform="translate(1116,212)"/>
        <path d="M 0 0 l 0 119.23 s 0 5 5 5 l 0 0 s 5 0 5 -5 l 0 -119.23 z" fill-opacity="0.3" filter="url(#SaturateMinus)" transform="translate(1116,212)"/>
        <path d="M 0 0 l 0 -136.97 s 0 -5 5 -5 l 0 0 s 5 0 5 5 l 0 136.97 z" transform="translate(1282,212)"/>
        <path d="M 0 0 l 0 -136.97 s 0 -5 5 -5 l 0 0 s 5 0 5 5 l 0 136.97 z" fill="url(#WhiteBlackGradient)" transform="translate(1282,212)"/>
        <path d="M 0 0 l 0 -136.97 s 0 -5 5 -5 l 0 0 s 5 0 5 5 l 0 136.97 z" fill-opacity="0.3" filter="url(#SaturateMinus)" transform="translate(1282,212)"/>
      </g>
      <g fill="rgb(217,87,0)" filter="none" id="ID_graph_5" opacity="1" stroke="none" stroke-opacity="1" stroke-width="0">
        <path d="M 0 0 l 0 14.52 s 0 5 5 5 l 0 0 s 5 0 5 -5 l 0 -14.52 z" transform="translate(142,212)"/>
        <path d="M 0 0 l 0 14.52 s 0 5 5 5 l 0 0 s 5 0 5 -5 l 0 -14.52 z" fill="url(#WhiteBlackGradient)" transform="translate(142,212)"/>
        <path d="M 0 0 l 0 14.52 s 0 5 5 5 l 0 0 s 5 0 5 -5 l 0 -14.52 z" fill-opacity="0.3" filter="url(#SaturateMinus)" transform="translate(142,212)"/>
        <path d="M 0 0 l 0 -34.04 s 0 -5 5 -5 l 0 0 s 5 0 5 5 l 0 34.04 z" transform="translate(308,212)"/>
        <path d="M 0 0 l 0 -34.04 s 0 -5 5 -5 l 0 0 s 5 0 5 5 l 0 34.04 z" fill="url(#WhiteBlackGradient)" transform="translate(308,212)"/>
        <path d="M 0 0 l 0 -34.04 s 0 -5 5 -5 l 0 0 s 5 0 5 5 l 0 34.04 z" fill-opacity="0.3" filter="url(#SaturateMinus)" transform="translate(308,212)"/>
        <path d="M 0 0 l 0 53.56 s 0 5 5 5 l 0 0 s 5 0 5 -5 l 0 -53.56 z" transform="translate(474,212)"/>
        <path d="M 0 0 l 0 53.56 s 0 5 5 5 l 0 0 s 5 0 5 -5 l 0 -53.56 z" fill="url(#WhiteBlackGradient)" transform="translate(474,212)"/>
        <path d="M 0 0 l 0 53.56 s 0 5 5 5 l 0 0 s 5 0 5 -5 l 0 -53.56 z" fill-opacity="0.3" filter="url(#SaturateMinus)" transform="translate(474,212)"/>
        <path d="M 0 0 l 0 -73.09 s 0 -5 5 -5 l 0 0 s 5 0 5 5 l 0 73.09 z" transform="translate(640,212)"/>
        <path d="M 0 0 l 0 -73.09 s 0 -5 5 -5 l 0 0 s 5 0 5 5 l 0 73.09 z" fill="url(#WhiteBlackGradient)" transform="translate(640,212)"/>
        <path d="M 0 0 l 0 -73.09 s 0 -5 5 -5 l 0 0 s 5 0 5 5 l 0 73.09 z" fill-opacity="0.3" filter="url(#SaturateMinus)" transform="translate(640,212)"/>
        <path d="M 0 0 l 0 92.61 s 0 5 5 5 l 0 0 s 5 0 5 -5 l 0 -92.61 z" transform="translate(806,212)"/>
        <path d="M 0 0 l 0 92.61 s 0 5 5 5 l 0 0 s 5 0 5 -5 l 0 -92.61 z" fill="url(#WhiteBlackGradient)" transform="translate(806,212)"/>
        <path d="M 0 0 l 0 92.61 s 0 5 5 5 l 0 0 s 5 0 5 -5 l 0 -92.61 z" fill-opacity="0.3" filter="url(#SaturateMinus)" transform="translate(806,212)"/>
        <path d="M 0 0 l 0 -112.13 s 0 -5 5 -5 l 0 0 s 5 0 5 5 l 0 112.13 z" transform="translate(972,212)"/>
        <path d="M 0 0 l 0 -112.13 s 0 -5 5 -5 l 0 0 s 5 0 5 5 l 0 112.13 z" fill="url(#WhiteBlackGradient)" transform="translate(972,212)"/>
        <path d="M 0 0 l 0 -112.13 s 0 -5 5 -5 l 0 0 s 5 0 5 5 l 0 112.13 z" fill-opacity="0.3" filter="url(#SaturateMinus)" transform="translate(972,212)"/>
        <path d="M 0 0 l 0 131.65 s 0 5 5 5 l 0 0 s 5 0 5 -5 l 0 -131.65 z" transform="translate(1138,212)"/>
        <path d="M 0 0 l 0 131.65 s 0 5 5 5 l 0 0 s 5 0 5 -5 l 0 -131.65 z" fill="url(#WhiteBlackGradient)" transform="translate(1138,212)"/>
        <path d="M 0 0 l 0 131.65 s 0 5 5 5 l 0 0 s 5 0 5 -5 l 0 -131.65 z" fill-opacity="0.3" filter="url(#SaturateMinus)" transform="translate(1138,212)"/>
        <path d="M 0 0 l 0 -151.17 s 0 -5 5 -5 l 0 0 s 5 0 5 5 l 0 151.17 z" transform="translate(1304,212)"/>
        <path d="M 0 0 l 0 -151.17 s 0 -5 5 -5 l 0 0 s 5 0 5 5 l 0 151.17 z" fill="url(#WhiteBlackGradient)" transform="translate(1304,212)"/>
        <path d="M 0 0 l 0 -151.17 s 0 -5 5 -5 l 0 0 s 5 0 5 5 l 0 151.17 z" fill-opacity="0.3" filter="url(#SaturateMinus)" transform="translate(1304,212)"/>
      </g>
      <g fill="rgb(29,157,242)" filter="none" id="ID_graph_6" opacity="1" stroke="none" stroke-opacity="1" stroke-width="0">
        <path d="M 0 0 l 0 16.47 s 0 5 5 5 l 0 0 s 5 0 5 -5 l 0 -16.47 z" transform="translate(164,212)"/>
        <path d="M 0 0 l 0 16.47 s 0 5 5 5 l 0 0 s 5 0 5 -5 l 0 -16.47 z" fill="url(#WhiteBlackGradient)" transform="translate(164,212)"/>
        <path d="M 0 0 l 0 16.47 s 0 5 5 5 l 0 0 s 5 0 5 -5 l 0 -16.47 z" fill-opacity="0.3" filter="url(#SaturateMinus)" transform="translate(164,212)"/>
        <path d="M 0 0 l 0 -37.95 s 0 -5 5 -5 l 0 0 s 5 0 5 5 l 0 37.95 z" transform="translate(330,212)"/>
        <path d="M 0 0 l 0 -37.95 s 0 -5 5 -5 l 0 0 s 5 0 5 5 l 0 37.95 z" fill="url(#WhiteBlackGradient)" transform="translate(330,212)"/>
        <path d="M 0 0 l 0 -37.95 s 0 -5 5 -5 l 0 0 s 5 0 5 5 l 0 37.95 z" fill-opacity="0.3" filter="url(#SaturateMinus)" transform="translate(330,212)"/>
        <path d="M 0 0 l 0 59.42 s 0 5 5 5 l 0 0 s 5 0 5 -5 l 0 -59.42 z" transform="translate(496,212)"/>
        <path d="M 0 0 l 0 59.42 s 0 5 5 5 l 0 0 s 5 0 5 -5 l 0 -59.42 z" fill="url(#WhiteBlackGradient)" transform="translate(496,212)"/>
        <path d="M 0 0 l 0 59.42 s 0 5 5 5 l 0 0 s 5 0 5 -5 l 0 -59.42 z" fill-opacity="0.3" filter="url(#SaturateMinus)" transform="translate(496,212)"/>
        <path d="M 0 0 l 0 -80.89 s 0 -5 5 -5 l 0 0 s 5 0 5 5 l 0 80.89 z" transform="translate(662,212)"/>
        <path d="M 0 0 l 0 -80.89 s 0 -5 5 -5 l 0 0 s 5 0 5 5 l 0 80.89 z" fill="url(#WhiteBlackGradient)" transform="translate(662,212)"/>
        <path d="M 0 0 l 0 -80.89 s 0 -5 5 -5 l 0 0 s 5 0 5 5 l 0 80.89 z" fill-opacity="0.3" filter="url(#SaturateMinus)" transform="translate(662,212)"/>
        <path d="M 0 0 l 0 102.37 s 0 5 5 5 l 0 0 s 5 0 5 -5 l 0 -102.37 z" transform="translate(828,212)"/>
        <path d="M 0 0 l 0 102.37 s 0 5 5 5 l 0 0 s 5 0 5 -5 l 0 -102.37 z" fill="url(#WhiteBlackGradient)" transform="translate(828,212)"/>
        <path d="M 0 0 l 0 102.37 s 0 5 5 5 l 0 0 s 5 0 5 -5 l 0 -102.37 z" fill-opacity="0.3" filter="url(#SaturateMinus)" transform="translate(828,212)"/>
        <path d="M 0 0 l 0 -123.84 s 0 -5 5 -5 l 0 0 s 5 0 5 5 l 0 123.84 z" transform="translate(994,212)"/>
        <path d="M 0 0 l 0 -123.84 s 0 -5 5 -5 l 0 0 s 5 0 5 5 l 0 123.84 z" fill="url(#WhiteBlackGradient)" transform="translate(994,212)"/>
        <path d="M 0 0 l 0 -123.84 s 0 -5 5 -5 l 0 0 s 5 0 5 5 l 0 123.84 z" fill-opacity="0.3" filter="url(#SaturateMinus)" transform="translate(994,212)"/>
        <path d="M 0 0 l 0 145.31 s 0 5 5 5 l 0 0 s 5 0 5 -5 l 0 -145.31 z" transform="translate(1160,212)"/>
        <path d="M 0 0 l 0 145.31 s 0 5 5 5 l 0 0 s 5 0 5 -5 l 0 -145.31 z" fill="url(#WhiteBlackGradient)" transform="translate(1160,212)"/>
        <path d="M 0 0 l 0 145.31 s 0 5 5 5 l 0 0 s 5 0 5 -5 l 0 -145.31 z" fill-opacity="0.3" filter="url(#SaturateMinus)" transform="translate(1160,212)"/>
        <path d="M 0 0 l 0 -166.79 s 0 -5 5 -5 l 0 0 s 5 0 5 5 l 0 166.79 z" transform="translate(1326,212)"/>
        <path d="M 0 0 l 0 -166.79 s 0 -5 5 -5 l 0 0 s 5 0 5 5 l 0 166.79 z" fill="url(#WhiteBlackGradient)" transform="translate(1326,212)"/>
        <path d="M 0 0 l 0 -166.79 s 0 -5 5 -5 l 0 0 s 5 0 5 5 l 0 166.79 z" fill-opacity="0.3" filter="url(#SaturateMinus)" transform="translate(1326,212)"/>
      </g>
      <g fill="rgb(181,207,50)" filter="none" id="ID_graph_7" opacity="1" stroke="none" stroke-opacity="1" stroke-width="0">
        <path d="M 0 0 l 0 18.62 s 0 5 5 5 l 0 0 s 5 0 5 -5 l 0 -18.62 z" transform="translate(186,212)"/>
        <path d="M 0 0 l 0 18.62 s 0 5 5 5 l 0 0 s 5 0 5 -5 l 0 -18.62 z" fill="url(#WhiteBlackGradient)" transform="translate(186,212)"/>
        <path d="M 0 0 l 0 18.62 s 0 5 5 5 l 0 0 s 5 0 5 -5 l 0 -18.62 z" fill-opacity="0.3" filter="url(#SaturateMinus)" transform="translate(186,212)"/>
        <path d="M 0 0 l 0 -42.24 s 0 -5 5 -5 l 0 0 s 5 0 5 5 l 0 42.24 z" transform="translate(352,212)"/>
        <path d="M 0 0 l 0 -42.24 s 0 -5 5 -5 l 0 0 s 5 0 5 5 l 0 42.24 z" fill="url(#WhiteBlackGradient)" transform="translate(352,212)"/>
        <path d="M 0 0 l 0 -42.24 s 0 -5 5 -5 l 0 0 s 5 0 5 5 l 0 42.24 z" fill-opacity="0.3" filter="url(#SaturateMinus)" transform="translate(352,212)"/>
        <path d="M 0 0 l 0 65.86 s 0 5 5 5 l 0 0 s 5 0 5 -5 l 0 -65.86 z" transform="translate(518,212)"/>
        <path d="M 0 0 l 0 65.86 s 0 5 5 5 l 0 0 s 5 0 5 -5 l 0 -65.86 z" fill="url(#WhiteBlackGradient)" transform="translate(518,212)"/>
        <path d="M 0 0 l 0 65.86 s 0 5 5 5 l 0 0 s 5 0 5 -5 l 0 -65.86 z" fill-opacity="0.3" filter="url(#SaturateMinus)" transform="translate(518,212)"/>
        <path d="M 0 0 l 0 -89.48 s 0 -5 5 -5 l 0 0 s 5 0 5 5 l 0 89.48 z" transform="translate(684,212)"/>
        <path d="M 0 0 l 0 -89.48 s 0 -5 5 -5 l 0 0 s 5 0 5 5 l 0 89.48 z" fill="url(#WhiteBlackGradient)" transform="translate(684,212)"/>
        <path d="M 0 0 l 0 -89.48 s 0 -5 5 -5 l 0 0 s 5 0 5 5 l 0 89.48 z" fill-opacity="0.3" filter="url(#SaturateMinus)" transform="translate(684,212)"/>
        <path d="M 0 0 l 0 113.1 s 0 5 5 5 l 0 0 s 5 0 5 -5 l 0 -113.1 z" transform="translate(850,212)"/>
        <path d="M 0 0 l 0 113.1 s 0 5 5 5 l 0 0 s 5 0 5 -5 l 0 -113.1 z" fill="url(#WhiteBlackGradient)" transform="translate(850,212)"/>
        <path d="M 0 0 l 0 113.1 s 0 5 5 5 l 0 0 s 5 0 5 -5 l 0 -113.1 z" fill-opacity="0.3" filter="url(#SaturateMinus)" transform="translate(850,212)"/>
        <path d="M 0 0 l 0 -136.72 s 0 -5 5 -5 l 0 0 s 5 0 5 5 l 0 136.72 z" transform="translate(1016,212)"/>
        <path d="M 0 0 l 0 -136.72 s 0 -5 5 -5 l 0 0 s 5 0 5 5 l 0 136.72 z" fill="url(#WhiteBlackGradient)" transform="translate(1016,212)"/>
        <path d="M 0 0 l 0 -136.72 s 0 -5 5 -5 l 0 0 s 5 0 5 5 l 0 136.72 z" fill-opacity="0.3" filter="url(#SaturateMinus)" transform="translate(1016,212)"/>
        <path d="M 0 0 l 0 160.35 s 0 5 5 5 l 0 0 s 5 0 5 -5 l 0 -160.35 z" transform="translate(1182,212)"/>
        <path d="M 0 0 l 0 160.35 s 0 5 5 5 l 0 0 s 5 0 5 -5 l 0 -160.35 z" fill="url(#WhiteBlackGradient)" transform="translate(1182,212)"/>
        <path d="M 0 0 l 0 160.35 s 0 5 5 5 l 0 0 s 5 0 5 -5 l 0 -160.35 z" fill-opacity="0.3" filter="url(#SaturateMinus)" transform="translate(1182,212)"/>
        <path d="M 0 0 l 0 -183.97 s 0 -5 5 -5 l 0 0 s 5 0 5 5 l 0 183.97 z" transform="translate(1348,212)"/>
        <path d="M 0 0 l 0 -183.97 s 0 -5 5 -5 l 0 0 s 5 0 5 5 l 0 183.97 z" fill="url(#WhiteBlackGradient)" transform="translate(1348,212)"/>
        <path d="M 0 0 l 0 -183.97 s 0 -5 5 -5 l 0 0 s 5 0 5 5 l 0 183.97 z" fill-opacity="0.3" filter="url(#SaturateMinus)" transform="translate(1348,212)"/>
      </g>
    </g>
  </g>

</svg>