<?xml version="1.0" encoding="UTF-8" standalone="no" ?><svg xmlns="http://www.w3.org/2000/svg" id="ID_svg" viewBox="0 0 1168 500" viewport-fill="white" viewport-fill-opacity="0" xmlns:exsl4D="http://www.4D.com" xmlns:math="http://exslt.org/math" xmlns:xlink="http://www.w3.org/1999/xlink"><!--gradient styles--><defs><filter id="soft_blur"><feGaussianBlur in="SourceGraphic" result="BlurAlpha" stdDeviation="1"/></filter><filter id="pastel"><feGaussianBlur in="SourceAlpha" result="blur" stdDeviation="2"/><feOffset dx="6" dy="6" in="blur" result="offsetBlur"/><feComposite in="SourceGraphic" in2="offsetBlur" operator="in" result="specOut"/></filter><filter id="blur_shadow"><feGaussianBlur in="SourceAlpha" result="blur" stdDeviation="3"/><feOffset dx="4" dy="2" in="blur" result="offsetBlur"/><feBlend in="SourceGraphic" in2="offsetBlur" mode="normal"/></filter><filter filterUnits="objectBoundingBox" id="Shadow"><feGaussianBlur in="SourceAlpha" result="flou" stdDeviation="0"/><feColorMatrix in="SourceAlpha" result="flouBlue" type="matrix" values=" 0 0 0 0 0                      0 0 0 0 0                     0 0 0 0 0                      0 0 0 0.3 0"/><feOffset dx="4" dy="4" in="flouBlue" result="flouDecalage"/><feBlend in="SourceGraphic" in2="flouDecalage" mode="normal"/></filter><filter filterUnits="objectBoundingBox" height="100%" id="SaturateMinus" width="100%" x="0%" y="0%"><feColorMatrix in="SourceGraphic" type="saturate" values="0.5"/></filter><filter filterUnits="objectBoundingBox" height="100%" id="SaturatePlus" width="100%" x="0%" y="0%"><feColorMatrix in="SourceGraphic" type="saturate" values="1.4"/></filter><linearGradient id="BlackGradient"><stop offset="0%" style="stop-color:rgb(0,0,0); stop-opacity:0"/><stop offset="100%" style="stop-color:rgb(0,0,0); stop-opacity:0.1"/></linearGradient><linearGradient id="WhiteGradient" x1="0%" x2="100%" y1="0%" y2="0%"><stop offset="0%" style="stop-color:rgb(255,255,255); stop-opacity:0.3"/><stop offset="100%" style="stop-color:rgb(255,255,255);stop-opacity:0"/></linearGradient><linearGradient id="WhiteBlackGradient" x1="0%" x2="100%" y1="0%" y2="0%"><stop offset="0%" style="stop-color:rgb(255,255,255); stop-opacity:0.15"/><stop offset="100%" style="stop-color:rgb(0,0,0);stop-opacity:0.15"/></linearGradient><linearGradient id="Black0Black1Gradient" x1="0%" x2="0%" y1="0%" y2="100%"><stop offset="0%" style="stop-color:rgb(0,0,0); stop-opacity:0"/><stop offset="100%" style="stop-color:rgb(0,0,0);stop-opacity:0.05"/></linearGradient><clipPath id="ID_graph_clip"><rect height="446" width="1120" x="38" y="22"/></clipPath></defs><!--global stroke and font styles--><g id="ID_globals" style="fill:black;stroke:none;font-family:Arial;font-size:12px;font-weight:normal;font-style:normal;text-decoration:none;shape-rendering:crispEdges"><!--draw title--><!--draw legend--><!--draw graph background--><rect fill="rgb(168,168,168)" fill-opacity="1" height="446" id="ID_background_shadow" rx="10" ry="10" stroke="none" visibility="visible" width="1120" x="39" y="23"/><g fill="rgb(229,229,229)" id="ID_background" visibility="visible"><rect height="446" rx="10" ry="10" stroke="none" width="1120" x="38" y="22"/><rect fill="url(#Black0Black1Gradient)" height="446" rx="10" ry="10" stroke="none" width="1120" x="38" y="22"/></g><clipPath id="ID_backgroundClipPath"><rect height="447" rx="10" ry="10" width="1121" x="38" y="22"/></clipPath><!--draw Y grid lines--><!--draw Y grid lines SHADOWS--><!--draw X grid lines--><!--draw X grid lines SHADOWS --><!--draw y=0 axe--><g id="ID_y0_axis" stroke="rgb(100,100,100)" stroke-width="1" visibility="visible"><line x1="38" x2="1158" y1="245" y2="245"/></g><!--draw axis x labels--><g id="ID_x_values" style="fill:black;stroke:none;font-family:Arial;font-size:12px;font-weight:normal;font-style:normal;text-decoration:none;filter:none"><text text-anchor="middle" x="111" y="486.8">PT8H0M0S</text><text text-anchor="middle" x="251" y="486.8">PT9H0M0S</text><text text-anchor="middle" x="391" y="486.8">PT10H0M0S</text><text text-anchor="middle" x="531" y="486.8">PT11H0M0S</text><text text-anchor="middle" x="671" y="486.8">PT11H15M0S</text><text text-anchor="middle" x="811" y="486.8">PT14H45M0S</text><text text-anchor="middle" x="951" y="486.8">PT15H0M0S</text><text text-anchor="middle" x="1091" y="486.8">PT16H0M0S</text></g><!--draw axis y labels--><g id="ID_y_values" style="fill:black;stroke:none;font-family:Arial;font-size:12px;font-weight:normal;font-style:normal;text-decoration:none;filter:none"><text text-anchor="end" x="28" y="472.8">-10</text><text text-anchor="end" x="28" y="428.2">-8</text><text text-anchor="end" x="28" y="383.6">-6</text><text text-anchor="end" x="28" y="339">-4</text><text text-anchor="end" x="28" y="294.40000000000003">-2</text><text text-anchor="end" x="28" y="249.8">0</text><text text-anchor="end" x="28" y="205.2">2</text><text text-anchor="end" x="28" y="160.60000000000002">4</text><text text-anchor="end" x="28" y="115.99999999999999">6</text><text text-anchor="end" x="28" y="71.39999999999996">8</text><text text-anchor="end" x="28" y="26.8">10</text></g><!--draw lines and bullets--><g filter="none" stroke-width="2"><!--draw line for data type 1--><g filter="none" id="ID_graph_1" stroke="rgb(0,178,195)" stroke-opacity="1" stroke-width="2"><line fill-opacity="1" x1="108" x2="248" y1="267.3" y2="200.4"/><line fill-opacity="1" x1="248" x2="388" y1="200.4" y2="311.9"/><line fill-opacity="1" x1="388" x2="528" y1="311.9" y2="155.8"/><line fill-opacity="1" x1="528" x2="668" y1="155.8" y2="356.5"/><line fill-opacity="1" x1="668" x2="808" y1="356.5" y2="111.19999999999999"/><line fill-opacity="1" x1="808" x2="948" y1="111.19999999999999" y2="401.1"/><line fill-opacity="1" x1="948" x2="1088" y1="401.1" y2="66.6"/></g><!--draw line for data type 2--><g filter="none" id="ID_graph_2" stroke="rgb(255,195,56)" stroke-opacity="1" stroke-width="2"><line fill-opacity="1" x1="108" x2="248" y1="269.53" y2="195.94"/><line fill-opacity="1" x1="248" x2="388" y1="195.94" y2="318.59000000000003"/><line fill-opacity="1" x1="388" x2="528" y1="318.59000000000003" y2="146.88"/><line fill-opacity="1" x1="528" x2="668" y1="146.88" y2="367.65"/><line fill-opacity="1" x1="668" x2="808" y1="367.65" y2="97.82"/><line fill-opacity="1" x1="808" x2="948" y1="97.82" y2="416.71000000000004"/><line fill-opacity="1" x1="948" x2="1088" y1="416.71000000000004" y2="48.75999999999999"/></g><!--draw line for data type 3--><g filter="none" id="ID_graph_3" stroke="rgb(87,62,130)" stroke-opacity="1" stroke-width="2"><line fill-opacity="1" x1="108" x2="248" y1="271.983" y2="191.034"/><line fill-opacity="1" x1="248" x2="388" y1="191.034" y2="325.949"/><line fill-opacity="1" x1="388" x2="528" y1="325.949" y2="137.06799999999998"/><line fill-opacity="1" x1="528" x2="668" y1="137.06799999999998" y2="379.91499999999996"/><line fill-opacity="1" x1="668" x2="808" y1="379.91499999999996" y2="83.102"/><line fill-opacity="1" x1="808" x2="948" y1="83.102" y2="433.88100000000003"/><line fill-opacity="1" x1="948" x2="1088" y1="433.88100000000003" y2="29.135999999999996"/></g><g id="allBullets"><!--draw bullet for data type 1--><g fill="rgb(0,178,195)" fill-opacity="1" filter="none" id="ID_bullet_1" stroke="none" stroke-opacity="1" stroke-width="1"><rect height="12" rx="1.5" ry="1.5" width="12" x="102" y="261.3"/><rect fill="url(#WhiteBlackGradient)" height="12" rx="1.5" ry="1.5" width="12" x="102" y="261.3"/><rect fill-opacity="0.3" filter="url(#SaturateMinus)" height="12" rx="1.5" ry="1.5" width="12" x="102" y="261.3"/><rect height="12" rx="1.5" ry="1.5" width="12" x="242" y="194.4"/><rect fill="url(#WhiteBlackGradient)" height="12" rx="1.5" ry="1.5" width="12" x="242" y="194.4"/><rect fill-opacity="0.3" filter="url(#SaturateMinus)" height="12" rx="1.5" ry="1.5" width="12" x="242" y="194.4"/><rect height="12" rx="1.5" ry="1.5" width="12" x="382" y="305.9"/><rect fill="url(#WhiteBlackGradient)" height="12" rx="1.5" ry="1.5" width="12" x="382" y="305.9"/><rect fill-opacity="0.3" filter="url(#SaturateMinus)" height="12" rx="1.5" ry="1.5" width="12" x="382" y="305.9"/><rect height="12" rx="1.5" ry="1.5" width="12" x="522" y="149.8"/><rect fill="url(#WhiteBlackGradient)" height="12" rx="1.5" ry="1.5" width="12" x="522" y="149.8"/><rect fill-opacity="0.3" filter="url(#SaturateMinus)" height="12" rx="1.5" ry="1.5" width="12" x="522" y="149.8"/><rect height="12" rx="1.5" ry="1.5" width="12" x="662" y="350.5"/><rect fill="url(#WhiteBlackGradient)" height="12" rx="1.5" ry="1.5" width="12" x="662" y="350.5"/><rect fill-opacity="0.3" filter="url(#SaturateMinus)" height="12" rx="1.5" ry="1.5" width="12" x="662" y="350.5"/><rect height="12" rx="1.5" ry="1.5" width="12" x="802" y="105.19999999999999"/><rect fill="url(#WhiteBlackGradient)" height="12" rx="1.5" ry="1.5" width="12" x="802" y="105.19999999999999"/><rect fill-opacity="0.3" filter="url(#SaturateMinus)" height="12" rx="1.5" ry="1.5" width="12" x="802" y="105.19999999999999"/><rect height="12" rx="1.5" ry="1.5" width="12" x="942" y="395.1"/><rect fill="url(#WhiteBlackGradient)" height="12" rx="1.5" ry="1.5" width="12" x="942" y="395.1"/><rect fill-opacity="0.3" filter="url(#SaturateMinus)" height="12" rx="1.5" ry="1.5" width="12" x="942" y="395.1"/><rect height="12" rx="1.5" ry="1.5" width="12" x="1082" y="60.599999999999994"/><rect fill="url(#WhiteBlackGradient)" height="12" rx="1.5" ry="1.5" width="12" x="1082" y="60.599999999999994"/><rect fill-opacity="0.3" filter="url(#SaturateMinus)" height="12" rx="1.5" ry="1.5" width="12" x="1082" y="60.599999999999994"/></g><!--draw bullet for data type 2--><g fill="rgb(255,195,56)" fill-opacity="1" filter="none" id="ID_bullet_2" stroke="none" stroke-opacity="1" stroke-width="1"><rect height="12" rx="1.5" ry="1.5" width="12" x="102" y="263.53"/><rect fill="url(#WhiteBlackGradient)" height="12" rx="1.5" ry="1.5" width="12" x="102" y="263.53"/><rect fill-opacity="0.3" filter="url(#SaturateMinus)" height="12" rx="1.5" ry="1.5" width="12" x="102" y="263.53"/><rect height="12" rx="1.5" ry="1.5" width="12" x="242" y="189.94"/><rect fill="url(#WhiteBlackGradient)" height="12" rx="1.5" ry="1.5" width="12" x="242" y="189.94"/><rect fill-opacity="0.3" filter="url(#SaturateMinus)" height="12" rx="1.5" ry="1.5" width="12" x="242" y="189.94"/><rect height="12" rx="1.5" ry="1.5" width="12" x="382" y="312.59000000000003"/><rect fill="url(#WhiteBlackGradient)" height="12" rx="1.5" ry="1.5" width="12" x="382" y="312.59000000000003"/><rect fill-opacity="0.3" filter="url(#SaturateMinus)" height="12" rx="1.5" ry="1.5" width="12" x="382" y="312.59000000000003"/><rect height="12" rx="1.5" ry="1.5" width="12" x="522" y="140.88"/><rect fill="url(#WhiteBlackGradient)" height="12" rx="1.5" ry="1.5" width="12" x="522" y="140.88"/><rect fill-opacity="0.3" filter="url(#SaturateMinus)" height="12" rx="1.5" ry="1.5" width="12" x="522" y="140.88"/><rect height="12" rx="1.5" ry="1.5" width="12" x="662" y="361.65"/><rect fill="url(#WhiteBlackGradient)" height="12" rx="1.5" ry="1.5" width="12" x="662" y="361.65"/><rect fill-opacity="0.3" filter="url(#SaturateMinus)" height="12" rx="1.5" ry="1.5" width="12" x="662" y="361.65"/><rect height="12" rx="1.5" ry="1.5" width="12" x="802" y="91.82"/><rect fill="url(#WhiteBlackGradient)" height="12" rx="1.5" ry="1.5" width="12" x="802" y="91.82"/><rect fill-opacity="0.3" filter="url(#SaturateMinus)" height="12" rx="1.5" ry="1.5" width="12" x="802" y="91.82"/><rect height="12" rx="1.5" ry="1.5" width="12" x="942" y="410.71000000000004"/><rect fill="url(#WhiteBlackGradient)" height="12" rx="1.5" ry="1.5" width="12" x="942" y="410.71000000000004"/><rect fill-opacity="0.3" filter="url(#SaturateMinus)" height="12" rx="1.5" ry="1.5" width="12" x="942" y="410.71000000000004"/><rect height="12" rx="1.5" ry="1.5" width="12" x="1082" y="42.75999999999999"/><rect fill="url(#WhiteBlackGradient)" height="12" rx="1.5" ry="1.5" width="12" x="1082" y="42.75999999999999"/><rect fill-opacity="0.3" filter="url(#SaturateMinus)" height="12" rx="1.5" ry="1.5" width="12" x="1082" y="42.75999999999999"/></g><!--draw bullet for data type 3--><g fill="rgb(87,62,130)" fill-opacity="1" filter="none" id="ID_bullet_3" stroke="none" stroke-opacity="1" stroke-width="1"><rect height="12" rx="1.5" ry="1.5" width="12" x="102" y="265.983"/><rect fill="url(#WhiteBlackGradient)" height="12" rx="1.5" ry="1.5" width="12" x="102" y="265.983"/><rect fill-opacity="0.3" filter="url(#SaturateMinus)" height="12" rx="1.5" ry="1.5" width="12" x="102" y="265.983"/><rect height="12" rx="1.5" ry="1.5" width="12" x="242" y="185.034"/><rect fill="url(#WhiteBlackGradient)" height="12" rx="1.5" ry="1.5" width="12" x="242" y="185.034"/><rect fill-opacity="0.3" filter="url(#SaturateMinus)" height="12" rx="1.5" ry="1.5" width="12" x="242" y="185.034"/><rect height="12" rx="1.5" ry="1.5" width="12" x="382" y="319.949"/><rect fill="url(#WhiteBlackGradient)" height="12" rx="1.5" ry="1.5" width="12" x="382" y="319.949"/><rect fill-opacity="0.3" filter="url(#SaturateMinus)" height="12" rx="1.5" ry="1.5" width="12" x="382" y="319.949"/><rect height="12" rx="1.5" ry="1.5" width="12" x="522" y="131.06799999999998"/><rect fill="url(#WhiteBlackGradient)" height="12" rx="1.5" ry="1.5" width="12" x="522" y="131.06799999999998"/><rect fill-opacity="0.3" filter="url(#SaturateMinus)" height="12" rx="1.5" ry="1.5" width="12" x="522" y="131.06799999999998"/><rect height="12" rx="1.5" ry="1.5" width="12" x="662" y="373.91499999999996"/><rect fill="url(#WhiteBlackGradient)" height="12" rx="1.5" ry="1.5" width="12" x="662" y="373.91499999999996"/><rect fill-opacity="0.3" filter="url(#SaturateMinus)" height="12" rx="1.5" ry="1.5" width="12" x="662" y="373.91499999999996"/><rect height="12" rx="1.5" ry="1.5" width="12" x="802" y="77.102"/><rect fill="url(#WhiteBlackGradient)" height="12" rx="1.5" ry="1.5" width="12" x="802" y="77.102"/><rect fill-opacity="0.3" filter="url(#SaturateMinus)" height="12" rx="1.5" ry="1.5" width="12" x="802" y="77.102"/><rect height="12" rx="1.5" ry="1.5" width="12" x="942" y="427.88100000000003"/><rect fill="url(#WhiteBlackGradient)" height="12" rx="1.5" ry="1.5" width="12" x="942" y="427.88100000000003"/><rect fill-opacity="0.3" filter="url(#SaturateMinus)" height="12" rx="1.5" ry="1.5" width="12" x="942" y="427.88100000000003"/><rect height="12" rx="1.5" ry="1.5" width="12" x="1082" y="23.135999999999996"/><rect fill="url(#WhiteBlackGradient)" height="12" rx="1.5" ry="1.5" width="12" x="1082" y="23.135999999999996"/><rect fill-opacity="0.3" filter="url(#SaturateMinus)" height="12" rx="1.5" ry="1.5" width="12" x="1082" y="23.135999999999996"/></g></g></g></g></svg>