<?xml version="1.0" encoding="UTF-8" standalone="no" ?><svg xmlns="http://www.w3.org/2000/svg" id="ID_svg" viewBox="0 0 1990 500" viewport-fill="white" viewport-fill-opacity="0" xmlns:exsl4D="http://www.4D.com" xmlns:gFunc="http://gFunc" xmlns:math="http://exslt.org/math" xmlns:xlink="http://www.w3.org/1999/xlink"><!--gradient styles--><defs><filter id="soft_blur"><feGaussianBlur in="SourceGraphic" result="BlurAlpha" stdDeviation="1"/></filter><filter id="pastel"><feGaussianBlur in="SourceAlpha" result="blur" stdDeviation="2"/><feOffset dx="6" dy="6" in="blur" result="offsetBlur"/><feComposite in="SourceGraphic" in2="offsetBlur" operator="in" result="specOut"/></filter><filter id="blur_shadow"><feGaussianBlur in="SourceAlpha" result="blur" stdDeviation="3"/><feOffset dx="4" dy="2" in="blur" result="offsetBlur"/><feBlend in="SourceGraphic" in2="offsetBlur" mode="normal"/></filter><filter filterUnits="objectBoundingBox" id="Shadow"><feGaussianBlur in="SourceAlpha" result="flou" stdDeviation="0"/><feColorMatrix in="SourceAlpha" result="flouBlue" type="matrix" values=" 0 0 0 0 0                      0 0 0 0 0                     0 0 0 0 0                      0 0 0 0.3 0"/><feOffset dx="4" dy="4" in="flouBlue" result="flouDecalage"/><feBlend in="SourceGraphic" in2="flouDecalage" mode="normal"/></filter><filter filterUnits="objectBoundingBox" height="100%" id="SaturateMinus" width="100%" x="0%" y="0%"><feColorMatrix in="SourceGraphic" type="saturate" values="0.5"/></filter><filter filterUnits="objectBoundingBox" height="100%" id="SaturatePlus" width="100%" x="0%" y="0%"><feColorMatrix in="SourceGraphic" type="saturate" values="1.4"/></filter><linearGradient id="BlackGradient"><stop offset="0%" style="stop-color:rgb(0,0,0); stop-opacity:0"/><stop offset="100%" style="stop-color:rgb(0,0,0); stop-opacity:0.1"/></linearGradient><linearGradient id="WhiteGradient" x1="0%" x2="100%" y1="0%" y2="0%"><stop offset="0%" style="stop-color:rgb(255,255,255); stop-opacity:0.3"/><stop offset="100%" style="stop-color:rgb(255,255,255);stop-opacity:0"/></linearGradient><linearGradient id="WhiteBlackGradient" x1="0%" x2="100%" y1="0%" y2="0%"><stop offset="0%" style="stop-color:rgb(255,255,255); stop-opacity:0.15"/><stop offset="100%" style="stop-color:rgb(0,0,0);stop-opacity:0.15"/></linearGradient><linearGradient id="Black0Black1Gradient" x1="0%" x2="0%" y1="0%" y2="100%"><stop offset="0%" style="stop-color:rgb(0,0,0); stop-opacity:0"/><stop offset="100%" style="stop-color:rgb(0,0,0);stop-opacity:0.05"/></linearGradient></defs><!--global stroke and font styles--><g id="ID_globals" style="fill:black;stroke:none;font-family:Arial;font-size:12px;font-weight:normal;font-style:normal;text-decoration:none;shape-rendering:crispEdges"><!--draw title--><!--draw legend--><!--draw graph background--><rect fill="rgb(168,168,168)" fill-opacity="1" height="440" id="ID_background_shadow" rx="10" ry="10" stroke="none" visibility="visible" width="1936" x="43" y="25"/><g fill="rgb(229,229,229)" id="ID_background" visibility="visible"><rect height="440" rx="10" ry="10" stroke="none" width="1936" x="42" y="24"/><rect fill="url(#Black0Black1Gradient)" height="440" rx="10" ry="10" stroke="none" width="1936" x="42" y="24"/></g><clipPath id="ID_backgroundClipPath"><rect height="441" rx="10" ry="10" width="1937" x="42" y="24"/></clipPath><!--draw Y grid lines--><!--draw Y grid lines SHADOWS--><!--draw X grid lines--><!--draw X grid lines SHADOWS --><!--draw y=0 axe--><g id="ID_y0_axis" stroke="rgb(100,100,100)" stroke-width="1" visibility="visible"><line x1="42" x2="1978" y1="275.42857142857144" y2="275.42857142857144"/></g><!--draw axis x labels--><g id="ID_x_values" style="fill:black;stroke:none;font-family:Arial;font-size:12px;font-weight:normal;font-style:normal;text-decoration:none;filter:none" visibility="visible"><text text-anchor="middle" x="166" y="484.8">PT8H0M0S</text><text text-anchor="middle" x="408" y="484.8">PT9H0M0S</text><text text-anchor="middle" x="650" y="484.8">PT10H0M0S</text><text text-anchor="middle" x="892" y="484.8">PT11H0M0S</text><text text-anchor="middle" x="1134" y="484.8">PT11H15M0S</text><text text-anchor="middle" x="1376" y="484.8">PT14H45M0S</text><text text-anchor="middle" x="1618" y="484.8">PT15H0M0S</text><text text-anchor="middle" x="1860" y="484.8">PT16H0M0S</text></g><!--draw axis y labels--><g id="ID_y_values" style="fill:black;stroke:none;font-family:Arial;font-size:12px;font-weight:normal;font-style:normal;text-decoration:none;filter:none" visibility="visible"><text text-anchor="end" x="30" y="468.8">-15</text><text text-anchor="end" x="30" y="405.9428571428572">-10</text><text text-anchor="end" x="30" y="343.0857142857143">-5</text><text text-anchor="end" x="30" y="280.22857142857146">0</text><text text-anchor="end" x="30" y="217.3714285714286">5</text><text text-anchor="end" x="30" y="154.51428571428573">10</text><text text-anchor="end" x="30" y="91.65714285714289">15</text><text text-anchor="end" x="30" y="28.8">20</text></g><!--draw bars SHADOWS--><g clip-path="url(#ID_BackgroundClipPath)"><!--              draw bars for data type 1--><g fill="black" fill-opacity="0.2" id="ID_graph_shadow_1"><path d="   M 57 275.42857142857144   l 16.75 0   l 0 6.571428571428571   s 0 6 -6 6    l -4.75 0   s -6 0 -6 -6   l 0 -6.571428571428571   z"/><path d="   M 299 256.28571428571433   s 0 -6 6 -6   l 4.75 0   s 6 0 6 6   l 0 19.142857142857142    l -16.75 0    l 0 -19.142857142857142   z"/><path d="   M 541 275.42857142857144   l 16.75 0   l 0 31.714285714285715   s 0 6 -6 6    l -4.75 0   s -6 0 -6 -6   l 0 -31.714285714285715   z"/><path d="   M 783 231.14285714285717   s 0 -6 6 -6   l 4.75 0   s 6 0 6 6   l 0 44.285714285714285    l -16.75 0    l 0 -44.285714285714285   z"/><path d="   M 1025 275.42857142857144   l 16.75 0   l 0 56.857142857142854   s 0 6 -6 6    l -4.75 0   s -6 0 -6 -6   l 0 -56.857142857142854   z"/><path d="   M 1267 206   s 0 -6 6 -6   l 4.75 0   s 6 0 6 6   l 0 69.42857142857143    l -16.75 0    l 0 -69.42857142857143   z"/><path d="   M 1509 275.42857142857144   l 16.75 0   l 0 82   s 0 6 -6 6    l -4.75 0   s -6 0 -6 -6   l 0 -82   z"/><path d="   M 1751 180.8571428571429   s 0 -6 6 -6   l 4.75 0   s 6 0 6 6   l 0 94.57142857142857    l -16.75 0    l 0 -94.57142857142857   z"/></g><!--              draw bars for data type 2--><g fill="black" fill-opacity="0.2" id="ID_graph_shadow_2"><path d="   M 85.75 275.42857142857144   l 16.75 0   l 0 7.828571428571429   s 0 6 -6 6    l -4.75 0   s -6 0 -6 -6   l 0 -7.828571428571429   z"/><path d="   M 327.75 253.7714285714286   s 0 -6 6 -6   l 4.75 0   s 6 0 6 6   l 0 21.65714285714286    l -16.75 0    l 0 -21.65714285714286   z"/><path d="   M 569.75 275.42857142857144   l 16.75 0   l 0 35.48571428571428   s 0 6 -6 6    l -4.75 0   s -6 0 -6 -6   l 0 -35.48571428571428   z"/><path d="   M 811.75 226.11428571428573   s 0 -6 6 -6   l 4.75 0   s 6 0 6 6   l 0 49.31428571428572    l -16.75 0    l 0 -49.31428571428572   z"/><path d="   M 1053.75 275.42857142857144   l 16.75 0   l 0 63.14285714285714   s 0 6 -6 6    l -4.75 0   s -6 0 -6 -6   l 0 -63.14285714285714   z"/><path d="   M 1295.75 198.45714285714288   s 0 -6 6 -6   l 4.75 0   s 6 0 6 6   l 0 76.97142857142856    l -16.75 0    l 0 -76.97142857142856   z"/><path d="   M 1537.75 275.42857142857144   l 16.75 0   l 0 90.8   s 0 6 -6 6    l -4.75 0   s -6 0 -6 -6   l 0 -90.8   z"/><path d="   M 1779.75 170.8   s 0 -6 6 -6   l 4.75 0   s 6 0 6 6   l 0 104.62857142857143    l -16.75 0    l 0 -104.62857142857143   z"/></g><!--              draw bars for data type 3--><g fill="black" fill-opacity="0.2" id="ID_graph_shadow_3"><path d="   M 114.5 275.42857142857144   l 16.75 0   l 0 9.21142857142857   s 0 6 -6 6    l -4.75 0   s -6 0 -6 -6   l 0 -9.21142857142857   z"/><path d="   M 356.5 251.0057142857143   s 0 -6 6 -6   l 4.75 0   s 6 0 6 6   l 0 24.42285714285714    l -16.75 0    l 0 -24.42285714285714   z"/><path d="   M 598.5 275.42857142857144   l 16.75 0   l 0 39.63428571428571   s 0 6 -6 6    l -4.75 0   s -6 0 -6 -6   l 0 -39.63428571428571   z"/><path d="   M 840.5 220.58285714285716   s 0 -6 6 -6   l 4.75 0   s 6 0 6 6   l 0 54.84571428571428    l -16.75 0    l 0 -54.84571428571428   z"/><path d="   M 1082.5 275.42857142857144   l 16.75 0   l 0 70.05714285714285   s 0 6 -6 6    l -4.75 0   s -6 0 -6 -6   l 0 -70.05714285714285   z"/><path d="   M 1324.5 190.16000000000003   s 0 -6 6 -6   l 4.75 0   s 6 0 6 6   l 0 85.26857142857142    l -16.75 0    l 0 -85.26857142857142   z"/><path d="   M 1566.5 275.42857142857144   l 16.75 0   l 0 100.48   s 0 6 -6 6    l -4.75 0   s -6 0 -6 -6   l 0 -100.48   z"/><path d="   M 1808.5 159.73714285714289   s 0 -6 6 -6   l 4.75 0   s 6 0 6 6   l 0 115.69142857142856    l -16.75 0    l 0 -115.69142857142856   z"/></g><!--              draw bars for data type 4--><g fill="black" fill-opacity="0.2" id="ID_graph_shadow_4"><path d="   M 143.25 275.42857142857144   l 16.75 0   l 0 10.732571428571429   s 0 6 -6 6    l -4.75 0   s -6 0 -6 -6   l 0 -10.732571428571429   z"/><path d="   M 385.25 247.96342857142858   s 0 -6 6 -6   l 4.75 0   s 6 0 6 6   l 0 27.465142857142858    l -16.75 0    l 0 -27.465142857142858   z"/><path d="   M 627.25 275.42857142857144   l 16.75 0   l 0 44.197714285714284   s 0 6 -6 6    l -4.75 0   s -6 0 -6 -6   l 0 -44.197714285714284   z"/><path d="   M 869.25 214.49828571428571   s 0 -6 6 -6   l 4.75 0   s 6 0 6 6   l 0 60.930285714285716    l -16.75 0    l 0 -60.930285714285716   z"/><path d="   M 1111.25 275.42857142857144   l 16.75 0   l 0 77.66285714285715   s 0 6 -6 6    l -4.75 0   s -6 0 -6 -6   l 0 -77.66285714285715   z"/><path d="   M 1353.25 181.03314285714288   s 0 -6 6 -6   l 4.75 0   s 6 0 6 6   l 0 94.39542857142857    l -16.75 0    l 0 -94.39542857142857   z"/><path d="   M 1595.25 275.42857142857144   l 16.75 0   l 0 111.128   s 0 6 -6 6    l -4.75 0   s -6 0 -6 -6   l 0 -111.128   z"/><path d="   M 1837.25 147.568   s 0 -6 6 -6   l 4.75 0   s 6 0 6 6   l 0 127.86057142857143    l -16.75 0    l 0 -127.86057142857143   z"/></g><!--              draw bars for data type 5--><g fill="black" fill-opacity="0.2" id="ID_graph_shadow_5"><path d="   M 172 275.42857142857144   l 16.75 0   l 0 12.405828571428572   s 0 6 -6 6    l -4.75 0   s -6 0 -6 -6   l 0 -12.405828571428572   z"/><path d="   M 414 244.6169142857143   s 0 -6 6 -6   l 4.75 0   s 6 0 6 6   l 0 30.811657142857143    l -16.75 0    l 0 -30.811657142857143   z"/><path d="   M 656 275.42857142857144   l 16.75 0   l 0 49.21748571428571   s 0 6 -6 6    l -4.75 0   s -6 0 -6 -6   l 0 -49.21748571428571   z"/><path d="   M 898 207.80525714285716   s 0 -6 6 -6   l 4.75 0   s 6 0 6 6   l 0 67.62331428571429    l -16.75 0    l 0 -67.62331428571429   z"/><path d="   M 1140 275.42857142857144   l 16.75 0   l 0 86.02914285714286   s 0 6 -6 6    l -4.75 0   s -6 0 -6 -6   l 0 -86.02914285714286   z"/><path d="   M 1382 170.99360000000001   s 0 -6 6 -6   l 4.75 0   s 6 0 6 6   l 0 104.43497142857142    l -16.75 0    l 0 -104.43497142857142   z"/><path d="   M 1624 275.42857142857144   l 16.75 0   l 0 122.8408   s 0 6 -6 6    l -4.75 0   s -6 0 -6 -6   l 0 -122.8408   z"/><path d="   M 1866 134.18194285714287   s 0 -6 6 -6   l 4.75 0   s 6 0 6 6   l 0 141.24662857142857    l -16.75 0    l 0 -141.24662857142857   z"/></g><!--              draw bars for data type 6--><g fill="black" fill-opacity="0.2" id="ID_graph_shadow_6"><path d="   M 200.75 275.42857142857144   l 16.75 0   l 0 14.246411428571431   s 0 6 -6 6    l -4.75 0   s -6 0 -6 -6   l 0 -14.246411428571431   z"/><path d="   M 442.75 240.93574857142858   s 0 -6 6 -6   l 4.75 0   s 6 0 6 6   l 0 34.49282285714286    l -16.75 0    l 0 -34.49282285714286   z"/><path d="   M 684.75 275.42857142857144   l 16.75 0   l 0 54.73923428571428   s 0 6 -6 6    l -4.75 0   s -6 0 -6 -6   l 0 -54.73923428571428   z"/><path d="   M 926.75 200.4429257142857   s 0 -6 6 -6   l 4.75 0   s 6 0 6 6   l 0 74.98564571428572    l -16.75 0    l 0 -74.98564571428572   z"/><path d="   M 1168.75 275.42857142857144   l 16.75 0   l 0 95.23205714285714   s 0 6 -6 6    l -4.75 0   s -6 0 -6 -6   l 0 -95.23205714285714   z"/><path d="   M 1410.75 159.9501028571429   s 0 -6 6 -6   l 4.75 0   s 6 0 6 6   l 0 115.47846857142856    l -16.75 0    l 0 -115.47846857142856   z"/><path d="   M 1652.75 275.42857142857144   l 16.75 0   l 0 135.72487999999998   s 0 6 -6 6    l -4.75 0   s -6 0 -6 -6   l 0 -135.72487999999998   z"/><path d="   M 1894.75 119.45728   s 0 -6 6 -6   l 4.75 0   s 6 0 6 6   l 0 155.97129142857145    l -16.75 0    l 0 -155.97129142857145   z"/></g><!--              draw bars for data type 7--><g fill="black" fill-opacity="0.2" id="ID_graph_shadow_7"><path d="   M 229.5 275.42857142857144   l 16.75 0   l 0 16.27105257142857   s 0 6 -6 6    l -4.75 0   s -6 0 -6 -6   l 0 -16.27105257142857   z"/><path d="   M 471.5 236.8864662857143   s 0 -6 6 -6   l 4.75 0   s 6 0 6 6   l 0 38.54210514285714    l -16.75 0    l 0 -38.54210514285714   z"/><path d="   M 713.5 275.42857142857144   l 16.75 0   l 0 60.81315771428571   s 0 6 -6 6    l -4.75 0   s -6 0 -6 -6   l 0 -60.81315771428571   z"/><path d="   M 955.5 192.34436114285717   s 0 -6 6 -6   l 4.75 0   s 6 0 6 6   l 0 83.08421028571428    l -16.75 0    l 0 -83.08421028571428   z"/><path d="   M 1197.5 275.42857142857144   l 16.75 0   l 0 105.35526285714286   s 0 6 -6 6    l -4.75 0   s -6 0 -6 -6   l 0 -105.35526285714286   z"/><path d="   M 1439.5 147.80225600000003   s 0 -6 6 -6   l 4.75 0   s 6 0 6 6   l 0 127.62631542857142    l -16.75 0    l 0 -127.62631542857142   z"/><path d="   M 1681.5 275.42857142857144   l 16.75 0   l 0 149.897368   s 0 6 -6 6    l -4.75 0   s -6 0 -6 -6   l 0 -149.897368   z"/><path d="   M 1923.5 103.26015085714289   s 0 -6 6 -6   l 4.75 0   s 6 0 6 6   l 0 172.16842057142856    l -16.75 0    l 0 -172.16842057142856   z"/></g><!--              draw bars for data type 8--><g fill="black" fill-opacity="0.2" id="ID_graph_shadow_8"><path d="   M 258.25 275.42857142857144   l 16.75 0   l 0 18.49815782857143   s 0 6 -6 6    l -4.75 0   s -6 0 -6 -6   l 0 -18.49815782857143   z"/><path d="   M 500.25 232.43225577142857   s 0 -6 6 -6   l 4.75 0   s 6 0 6 6   l 0 42.99631565714286    l -16.75 0    l 0 -42.99631565714286   z"/><path d="   M 742.25 275.42857142857144   l 16.75 0   l 0 67.49447348571428   s 0 6 -6 6    l -4.75 0   s -6 0 -6 -6   l 0 -67.49447348571428   z"/><path d="   M 984.25 183.43594011428573   s 0 -6 6 -6   l 4.75 0   s 6 0 6 6   l 0 91.99263131428572    l -16.75 0    l 0 -91.99263131428572   z"/><path d="   M 1226.25 275.42857142857144   l 16.75 0   l 0 116.49078914285714   s 0 6 -6 6    l -4.75 0   s -6 0 -6 -6   l 0 -116.49078914285714   z"/><path d="   M 1468.25 134.43962445714288   s 0 -6 6 -6   l 4.75 0   s 6 0 6 6   l 0 140.98894697142856    l -16.75 0    l 0 -140.98894697142856   z"/><path d="   M 1710.25 275.42857142857144   l 16.75 0   l 0 165.4871048   s 0 6 -6 6    l -4.75 0   s -6 0 -6 -6   l 0 -165.4871048   z"/><path d="   M 1952.25 85.44330880000001   s 0 -6 6 -6   l 4.75 0   s 6 0 6 6   l 0 189.98526262857143    l -16.75 0    l 0 -189.98526262857143   z"/></g></g><!--draw BARS--><!--            draw bars for data type 1--><g fill="rgb(0,178,195)" filter="none" id="ID_graph_1" opacity="1" stroke="none" stroke-opacity="1" stroke-width="0"><path d="   M 54 275.42857142857144   l 16.75 0   l 0 6.571428571428571   s 0 6 -6 6    l -4.75 0   s -6 0 -6 -6   l 0 -6.571428571428571   z"/><path d="   M 54 275.42857142857144   l 16.75 0   l 0 6.571428571428571   s 0 6 -6 6    l -4.75 0   s -6 0 -6 -6   l 0 -6.571428571428571   z" fill="url(#WhiteBlackGradient)"/><path d="   M 54 275.42857142857144   l 16.75 0   l 0 6.571428571428571   s 0 6 -6 6    l -4.75 0   s -6 0 -6 -6   l 0 -6.571428571428571   z" fill-opacity="0.3" filter="url(#SaturateMinus)"/><path d="   M 296 256.28571428571433   s 0 -6 6 -6   l 4.75 0   s 6 0 6 6   l 0 19.142857142857142    l -16.75 0    l 0 -19.142857142857142   z"/><path d="   M 296 256.28571428571433   s 0 -6 6 -6   l 4.75 0   s 6 0 6 6   l 0 19.142857142857142    l -16.75 0    l 0 -19.142857142857142   z" fill="url(#WhiteBlackGradient)"/><path d="   M 296 256.28571428571433   s 0 -6 6 -6   l 4.75 0   s 6 0 6 6   l 0 19.142857142857142    l -16.75 0    l 0 -19.142857142857142   z" fill-opacity="0.3" filter="url(#SaturateMinus)"/><path d="   M 538 275.42857142857144   l 16.75 0   l 0 31.714285714285715   s 0 6 -6 6    l -4.75 0   s -6 0 -6 -6   l 0 -31.714285714285715   z"/><path d="   M 538 275.42857142857144   l 16.75 0   l 0 31.714285714285715   s 0 6 -6 6    l -4.75 0   s -6 0 -6 -6   l 0 -31.714285714285715   z" fill="url(#WhiteBlackGradient)"/><path d="   M 538 275.42857142857144   l 16.75 0   l 0 31.714285714285715   s 0 6 -6 6    l -4.75 0   s -6 0 -6 -6   l 0 -31.714285714285715   z" fill-opacity="0.3" filter="url(#SaturateMinus)"/><path d="   M 780 231.14285714285717   s 0 -6 6 -6   l 4.75 0   s 6 0 6 6   l 0 44.285714285714285    l -16.75 0    l 0 -44.285714285714285   z"/><path d="   M 780 231.14285714285717   s 0 -6 6 -6   l 4.75 0   s 6 0 6 6   l 0 44.285714285714285    l -16.75 0    l 0 -44.285714285714285   z" fill="url(#WhiteBlackGradient)"/><path d="   M 780 231.14285714285717   s 0 -6 6 -6   l 4.75 0   s 6 0 6 6   l 0 44.285714285714285    l -16.75 0    l 0 -44.285714285714285   z" fill-opacity="0.3" filter="url(#SaturateMinus)"/><path d="   M 1022 275.42857142857144   l 16.75 0   l 0 56.857142857142854   s 0 6 -6 6    l -4.75 0   s -6 0 -6 -6   l 0 -56.857142857142854   z"/><path d="   M 1022 275.42857142857144   l 16.75 0   l 0 56.857142857142854   s 0 6 -6 6    l -4.75 0   s -6 0 -6 -6   l 0 -56.857142857142854   z" fill="url(#WhiteBlackGradient)"/><path d="   M 1022 275.42857142857144   l 16.75 0   l 0 56.857142857142854   s 0 6 -6 6    l -4.75 0   s -6 0 -6 -6   l 0 -56.857142857142854   z" fill-opacity="0.3" filter="url(#SaturateMinus)"/><path d="   M 1264 206   s 0 -6 6 -6   l 4.75 0   s 6 0 6 6   l 0 69.42857142857143    l -16.75 0    l 0 -69.42857142857143   z"/><path d="   M 1264 206   s 0 -6 6 -6   l 4.75 0   s 6 0 6 6   l 0 69.42857142857143    l -16.75 0    l 0 -69.42857142857143   z" fill="url(#WhiteBlackGradient)"/><path d="   M 1264 206   s 0 -6 6 -6   l 4.75 0   s 6 0 6 6   l 0 69.42857142857143    l -16.75 0    l 0 -69.42857142857143   z" fill-opacity="0.3" filter="url(#SaturateMinus)"/><path d="   M 1506 275.42857142857144   l 16.75 0   l 0 82   s 0 6 -6 6    l -4.75 0   s -6 0 -6 -6   l 0 -82   z"/><path d="   M 1506 275.42857142857144   l 16.75 0   l 0 82   s 0 6 -6 6    l -4.75 0   s -6 0 -6 -6   l 0 -82   z" fill="url(#WhiteBlackGradient)"/><path d="   M 1506 275.42857142857144   l 16.75 0   l 0 82   s 0 6 -6 6    l -4.75 0   s -6 0 -6 -6   l 0 -82   z" fill-opacity="0.3" filter="url(#SaturateMinus)"/><path d="   M 1748 180.8571428571429   s 0 -6 6 -6   l 4.75 0   s 6 0 6 6   l 0 94.57142857142857    l -16.75 0    l 0 -94.57142857142857   z"/><path d="   M 1748 180.8571428571429   s 0 -6 6 -6   l 4.75 0   s 6 0 6 6   l 0 94.57142857142857    l -16.75 0    l 0 -94.57142857142857   z" fill="url(#WhiteBlackGradient)"/><path d="   M 1748 180.8571428571429   s 0 -6 6 -6   l 4.75 0   s 6 0 6 6   l 0 94.57142857142857    l -16.75 0    l 0 -94.57142857142857   z" fill-opacity="0.3" filter="url(#SaturateMinus)"/></g><!--            draw bars for data type 2--><g fill="rgb(255,195,56)" filter="none" id="ID_graph_2" opacity="1" stroke="none" stroke-opacity="1" stroke-width="0"><path d="   M 82.75 275.42857142857144   l 16.75 0   l 0 7.828571428571429   s 0 6 -6 6    l -4.75 0   s -6 0 -6 -6   l 0 -7.828571428571429   z"/><path d="   M 82.75 275.42857142857144   l 16.75 0   l 0 7.828571428571429   s 0 6 -6 6    l -4.75 0   s -6 0 -6 -6   l 0 -7.828571428571429   z" fill="url(#WhiteBlackGradient)"/><path d="   M 82.75 275.42857142857144   l 16.75 0   l 0 7.828571428571429   s 0 6 -6 6    l -4.75 0   s -6 0 -6 -6   l 0 -7.828571428571429   z" fill-opacity="0.3" filter="url(#SaturateMinus)"/><path d="   M 324.75 253.7714285714286   s 0 -6 6 -6   l 4.75 0   s 6 0 6 6   l 0 21.65714285714286    l -16.75 0    l 0 -21.65714285714286   z"/><path d="   M 324.75 253.7714285714286   s 0 -6 6 -6   l 4.75 0   s 6 0 6 6   l 0 21.65714285714286    l -16.75 0    l 0 -21.65714285714286   z" fill="url(#WhiteBlackGradient)"/><path d="   M 324.75 253.7714285714286   s 0 -6 6 -6   l 4.75 0   s 6 0 6 6   l 0 21.65714285714286    l -16.75 0    l 0 -21.65714285714286   z" fill-opacity="0.3" filter="url(#SaturateMinus)"/><path d="   M 566.75 275.42857142857144   l 16.75 0   l 0 35.48571428571428   s 0 6 -6 6    l -4.75 0   s -6 0 -6 -6   l 0 -35.48571428571428   z"/><path d="   M 566.75 275.42857142857144   l 16.75 0   l 0 35.48571428571428   s 0 6 -6 6    l -4.75 0   s -6 0 -6 -6   l 0 -35.48571428571428   z" fill="url(#WhiteBlackGradient)"/><path d="   M 566.75 275.42857142857144   l 16.75 0   l 0 35.48571428571428   s 0 6 -6 6    l -4.75 0   s -6 0 -6 -6   l 0 -35.48571428571428   z" fill-opacity="0.3" filter="url(#SaturateMinus)"/><path d="   M 808.75 226.11428571428573   s 0 -6 6 -6   l 4.75 0   s 6 0 6 6   l 0 49.31428571428572    l -16.75 0    l 0 -49.31428571428572   z"/><path d="   M 808.75 226.11428571428573   s 0 -6 6 -6   l 4.75 0   s 6 0 6 6   l 0 49.31428571428572    l -16.75 0    l 0 -49.31428571428572   z" fill="url(#WhiteBlackGradient)"/><path d="   M 808.75 226.11428571428573   s 0 -6 6 -6   l 4.75 0   s 6 0 6 6   l 0 49.31428571428572    l -16.75 0    l 0 -49.31428571428572   z" fill-opacity="0.3" filter="url(#SaturateMinus)"/><path d="   M 1050.75 275.42857142857144   l 16.75 0   l 0 63.14285714285714   s 0 6 -6 6    l -4.75 0   s -6 0 -6 -6   l 0 -63.14285714285714   z"/><path d="   M 1050.75 275.42857142857144   l 16.75 0   l 0 63.14285714285714   s 0 6 -6 6    l -4.75 0   s -6 0 -6 -6   l 0 -63.14285714285714   z" fill="url(#WhiteBlackGradient)"/><path d="   M 1050.75 275.42857142857144   l 16.75 0   l 0 63.14285714285714   s 0 6 -6 6    l -4.75 0   s -6 0 -6 -6   l 0 -63.14285714285714   z" fill-opacity="0.3" filter="url(#SaturateMinus)"/><path d="   M 1292.75 198.45714285714288   s 0 -6 6 -6   l 4.75 0   s 6 0 6 6   l 0 76.97142857142856    l -16.75 0    l 0 -76.97142857142856   z"/><path d="   M 1292.75 198.45714285714288   s 0 -6 6 -6   l 4.75 0   s 6 0 6 6   l 0 76.97142857142856    l -16.75 0    l 0 -76.97142857142856   z" fill="url(#WhiteBlackGradient)"/><path d="   M 1292.75 198.45714285714288   s 0 -6 6 -6   l 4.75 0   s 6 0 6 6   l 0 76.97142857142856    l -16.75 0    l 0 -76.97142857142856   z" fill-opacity="0.3" filter="url(#SaturateMinus)"/><path d="   M 1534.75 275.42857142857144   l 16.75 0   l 0 90.8   s 0 6 -6 6    l -4.75 0   s -6 0 -6 -6   l 0 -90.8   z"/><path d="   M 1534.75 275.42857142857144   l 16.75 0   l 0 90.8   s 0 6 -6 6    l -4.75 0   s -6 0 -6 -6   l 0 -90.8   z" fill="url(#WhiteBlackGradient)"/><path d="   M 1534.75 275.42857142857144   l 16.75 0   l 0 90.8   s 0 6 -6 6    l -4.75 0   s -6 0 -6 -6   l 0 -90.8   z" fill-opacity="0.3" filter="url(#SaturateMinus)"/><path d="   M 1776.75 170.8   s 0 -6 6 -6   l 4.75 0   s 6 0 6 6   l 0 104.62857142857143    l -16.75 0    l 0 -104.62857142857143   z"/><path d="   M 1776.75 170.8   s 0 -6 6 -6   l 4.75 0   s 6 0 6 6   l 0 104.62857142857143    l -16.75 0    l 0 -104.62857142857143   z" fill="url(#WhiteBlackGradient)"/><path d="   M 1776.75 170.8   s 0 -6 6 -6   l 4.75 0   s 6 0 6 6   l 0 104.62857142857143    l -16.75 0    l 0 -104.62857142857143   z" fill-opacity="0.3" filter="url(#SaturateMinus)"/></g><!--            draw bars for data type 3--><g fill="rgb(87,62,130)" filter="none" id="ID_graph_3" opacity="1" stroke="none" stroke-opacity="1" stroke-width="0"><path d="   M 111.5 275.42857142857144   l 16.75 0   l 0 9.21142857142857   s 0 6 -6 6    l -4.75 0   s -6 0 -6 -6   l 0 -9.21142857142857   z"/><path d="   M 111.5 275.42857142857144   l 16.75 0   l 0 9.21142857142857   s 0 6 -6 6    l -4.75 0   s -6 0 -6 -6   l 0 -9.21142857142857   z" fill="url(#WhiteBlackGradient)"/><path d="   M 111.5 275.42857142857144   l 16.75 0   l 0 9.21142857142857   s 0 6 -6 6    l -4.75 0   s -6 0 -6 -6   l 0 -9.21142857142857   z" fill-opacity="0.3" filter="url(#SaturateMinus)"/><path d="   M 353.5 251.0057142857143   s 0 -6 6 -6   l 4.75 0   s 6 0 6 6   l 0 24.42285714285714    l -16.75 0    l 0 -24.42285714285714   z"/><path d="   M 353.5 251.0057142857143   s 0 -6 6 -6   l 4.75 0   s 6 0 6 6   l 0 24.42285714285714    l -16.75 0    l 0 -24.42285714285714   z" fill="url(#WhiteBlackGradient)"/><path d="   M 353.5 251.0057142857143   s 0 -6 6 -6   l 4.75 0   s 6 0 6 6   l 0 24.42285714285714    l -16.75 0    l 0 -24.42285714285714   z" fill-opacity="0.3" filter="url(#SaturateMinus)"/><path d="   M 595.5 275.42857142857144   l 16.75 0   l 0 39.63428571428571   s 0 6 -6 6    l -4.75 0   s -6 0 -6 -6   l 0 -39.63428571428571   z"/><path d="   M 595.5 275.42857142857144   l 16.75 0   l 0 39.63428571428571   s 0 6 -6 6    l -4.75 0   s -6 0 -6 -6   l 0 -39.63428571428571   z" fill="url(#WhiteBlackGradient)"/><path d="   M 595.5 275.42857142857144   l 16.75 0   l 0 39.63428571428571   s 0 6 -6 6    l -4.75 0   s -6 0 -6 -6   l 0 -39.63428571428571   z" fill-opacity="0.3" filter="url(#SaturateMinus)"/><path d="   M 837.5 220.58285714285716   s 0 -6 6 -6   l 4.75 0   s 6 0 6 6   l 0 54.84571428571428    l -16.75 0    l 0 -54.84571428571428   z"/><path d="   M 837.5 220.58285714285716   s 0 -6 6 -6   l 4.75 0   s 6 0 6 6   l 0 54.84571428571428    l -16.75 0    l 0 -54.84571428571428   z" fill="url(#WhiteBlackGradient)"/><path d="   M 837.5 220.58285714285716   s 0 -6 6 -6   l 4.75 0   s 6 0 6 6   l 0 54.84571428571428    l -16.75 0    l 0 -54.84571428571428   z" fill-opacity="0.3" filter="url(#SaturateMinus)"/><path d="   M 1079.5 275.42857142857144   l 16.75 0   l 0 70.05714285714285   s 0 6 -6 6    l -4.75 0   s -6 0 -6 -6   l 0 -70.05714285714285   z"/><path d="   M 1079.5 275.42857142857144   l 16.75 0   l 0 70.05714285714285   s 0 6 -6 6    l -4.75 0   s -6 0 -6 -6   l 0 -70.05714285714285   z" fill="url(#WhiteBlackGradient)"/><path d="   M 1079.5 275.42857142857144   l 16.75 0   l 0 70.05714285714285   s 0 6 -6 6    l -4.75 0   s -6 0 -6 -6   l 0 -70.05714285714285   z" fill-opacity="0.3" filter="url(#SaturateMinus)"/><path d="   M 1321.5 190.16000000000003   s 0 -6 6 -6   l 4.75 0   s 6 0 6 6   l 0 85.26857142857142    l -16.75 0    l 0 -85.26857142857142   z"/><path d="   M 1321.5 190.16000000000003   s 0 -6 6 -6   l 4.75 0   s 6 0 6 6   l 0 85.26857142857142    l -16.75 0    l 0 -85.26857142857142   z" fill="url(#WhiteBlackGradient)"/><path d="   M 1321.5 190.16000000000003   s 0 -6 6 -6   l 4.75 0   s 6 0 6 6   l 0 85.26857142857142    l -16.75 0    l 0 -85.26857142857142   z" fill-opacity="0.3" filter="url(#SaturateMinus)"/><path d="   M 1563.5 275.42857142857144   l 16.75 0   l 0 100.48   s 0 6 -6 6    l -4.75 0   s -6 0 -6 -6   l 0 -100.48   z"/><path d="   M 1563.5 275.42857142857144   l 16.75 0   l 0 100.48   s 0 6 -6 6    l -4.75 0   s -6 0 -6 -6   l 0 -100.48   z" fill="url(#WhiteBlackGradient)"/><path d="   M 1563.5 275.42857142857144   l 16.75 0   l 0 100.48   s 0 6 -6 6    l -4.75 0   s -6 0 -6 -6   l 0 -100.48   z" fill-opacity="0.3" filter="url(#SaturateMinus)"/><path d="   M 1805.5 159.73714285714289   s 0 -6 6 -6   l 4.75 0   s 6 0 6 6   l 0 115.69142857142856    l -16.75 0    l 0 -115.69142857142856   z"/><path d="   M 1805.5 159.73714285714289   s 0 -6 6 -6   l 4.75 0   s 6 0 6 6   l 0 115.69142857142856    l -16.75 0    l 0 -115.69142857142856   z" fill="url(#WhiteBlackGradient)"/><path d="   M 1805.5 159.73714285714289   s 0 -6 6 -6   l 4.75 0   s 6 0 6 6   l 0 115.69142857142856    l -16.75 0    l 0 -115.69142857142856   z" fill-opacity="0.3" filter="url(#SaturateMinus)"/></g><!--            draw bars for data type 4--><g fill="rgb(79,168,57)" filter="none" id="ID_graph_4" opacity="1" stroke="none" stroke-opacity="1" stroke-width="0"><path d="   M 140.25 275.42857142857144   l 16.75 0   l 0 10.732571428571429   s 0 6 -6 6    l -4.75 0   s -6 0 -6 -6   l 0 -10.732571428571429   z"/><path d="   M 140.25 275.42857142857144   l 16.75 0   l 0 10.732571428571429   s 0 6 -6 6    l -4.75 0   s -6 0 -6 -6   l 0 -10.732571428571429   z" fill="url(#WhiteBlackGradient)"/><path d="   M 140.25 275.42857142857144   l 16.75 0   l 0 10.732571428571429   s 0 6 -6 6    l -4.75 0   s -6 0 -6 -6   l 0 -10.732571428571429   z" fill-opacity="0.3" filter="url(#SaturateMinus)"/><path d="   M 382.25 247.96342857142858   s 0 -6 6 -6   l 4.75 0   s 6 0 6 6   l 0 27.465142857142858    l -16.75 0    l 0 -27.465142857142858   z"/><path d="   M 382.25 247.96342857142858   s 0 -6 6 -6   l 4.75 0   s 6 0 6 6   l 0 27.465142857142858    l -16.75 0    l 0 -27.465142857142858   z" fill="url(#WhiteBlackGradient)"/><path d="   M 382.25 247.96342857142858   s 0 -6 6 -6   l 4.75 0   s 6 0 6 6   l 0 27.465142857142858    l -16.75 0    l 0 -27.465142857142858   z" fill-opacity="0.3" filter="url(#SaturateMinus)"/><path d="   M 624.25 275.42857142857144   l 16.75 0   l 0 44.197714285714284   s 0 6 -6 6    l -4.75 0   s -6 0 -6 -6   l 0 -44.197714285714284   z"/><path d="   M 624.25 275.42857142857144   l 16.75 0   l 0 44.197714285714284   s 0 6 -6 6    l -4.75 0   s -6 0 -6 -6   l 0 -44.197714285714284   z" fill="url(#WhiteBlackGradient)"/><path d="   M 624.25 275.42857142857144   l 16.75 0   l 0 44.197714285714284   s 0 6 -6 6    l -4.75 0   s -6 0 -6 -6   l 0 -44.197714285714284   z" fill-opacity="0.3" filter="url(#SaturateMinus)"/><path d="   M 866.25 214.49828571428571   s 0 -6 6 -6   l 4.75 0   s 6 0 6 6   l 0 60.930285714285716    l -16.75 0    l 0 -60.930285714285716   z"/><path d="   M 866.25 214.49828571428571   s 0 -6 6 -6   l 4.75 0   s 6 0 6 6   l 0 60.930285714285716    l -16.75 0    l 0 -60.930285714285716   z" fill="url(#WhiteBlackGradient)"/><path d="   M 866.25 214.49828571428571   s 0 -6 6 -6   l 4.75 0   s 6 0 6 6   l 0 60.930285714285716    l -16.75 0    l 0 -60.930285714285716   z" fill-opacity="0.3" filter="url(#SaturateMinus)"/><path d="   M 1108.25 275.42857142857144   l 16.75 0   l 0 77.66285714285715   s 0 6 -6 6    l -4.75 0   s -6 0 -6 -6   l 0 -77.66285714285715   z"/><path d="   M 1108.25 275.42857142857144   l 16.75 0   l 0 77.66285714285715   s 0 6 -6 6    l -4.75 0   s -6 0 -6 -6   l 0 -77.66285714285715   z" fill="url(#WhiteBlackGradient)"/><path d="   M 1108.25 275.42857142857144   l 16.75 0   l 0 77.66285714285715   s 0 6 -6 6    l -4.75 0   s -6 0 -6 -6   l 0 -77.66285714285715   z" fill-opacity="0.3" filter="url(#SaturateMinus)"/><path d="   M 1350.25 181.03314285714288   s 0 -6 6 -6   l 4.75 0   s 6 0 6 6   l 0 94.39542857142857    l -16.75 0    l 0 -94.39542857142857   z"/><path d="   M 1350.25 181.03314285714288   s 0 -6 6 -6   l 4.75 0   s 6 0 6 6   l 0 94.39542857142857    l -16.75 0    l 0 -94.39542857142857   z" fill="url(#WhiteBlackGradient)"/><path d="   M 1350.25 181.03314285714288   s 0 -6 6 -6   l 4.75 0   s 6 0 6 6   l 0 94.39542857142857    l -16.75 0    l 0 -94.39542857142857   z" fill-opacity="0.3" filter="url(#SaturateMinus)"/><path d="   M 1592.25 275.42857142857144   l 16.75 0   l 0 111.128   s 0 6 -6 6    l -4.75 0   s -6 0 -6 -6   l 0 -111.128   z"/><path d="   M 1592.25 275.42857142857144   l 16.75 0   l 0 111.128   s 0 6 -6 6    l -4.75 0   s -6 0 -6 -6   l 0 -111.128   z" fill="url(#WhiteBlackGradient)"/><path d="   M 1592.25 275.42857142857144   l 16.75 0   l 0 111.128   s 0 6 -6 6    l -4.75 0   s -6 0 -6 -6   l 0 -111.128   z" fill-opacity="0.3" filter="url(#SaturateMinus)"/><path d="   M 1834.25 147.568   s 0 -6 6 -6   l 4.75 0   s 6 0 6 6   l 0 127.86057142857143    l -16.75 0    l 0 -127.86057142857143   z"/><path d="   M 1834.25 147.568   s 0 -6 6 -6   l 4.75 0   s 6 0 6 6   l 0 127.86057142857143    l -16.75 0    l 0 -127.86057142857143   z" fill="url(#WhiteBlackGradient)"/><path d="   M 1834.25 147.568   s 0 -6 6 -6   l 4.75 0   s 6 0 6 6   l 0 127.86057142857143    l -16.75 0    l 0 -127.86057142857143   z" fill-opacity="0.3" filter="url(#SaturateMinus)"/></g><!--            draw bars for data type 5--><g fill="rgb(217,87,0)" filter="none" id="ID_graph_5" opacity="1" stroke="none" stroke-opacity="1" stroke-width="0"><path d="   M 169 275.42857142857144   l 16.75 0   l 0 12.405828571428572   s 0 6 -6 6    l -4.75 0   s -6 0 -6 -6   l 0 -12.405828571428572   z"/><path d="   M 169 275.42857142857144   l 16.75 0   l 0 12.405828571428572   s 0 6 -6 6    l -4.75 0   s -6 0 -6 -6   l 0 -12.405828571428572   z" fill="url(#WhiteBlackGradient)"/><path d="   M 169 275.42857142857144   l 16.75 0   l 0 12.405828571428572   s 0 6 -6 6    l -4.75 0   s -6 0 -6 -6   l 0 -12.405828571428572   z" fill-opacity="0.3" filter="url(#SaturateMinus)"/><path d="   M 411 244.6169142857143   s 0 -6 6 -6   l 4.75 0   s 6 0 6 6   l 0 30.811657142857143    l -16.75 0    l 0 -30.811657142857143   z"/><path d="   M 411 244.6169142857143   s 0 -6 6 -6   l 4.75 0   s 6 0 6 6   l 0 30.811657142857143    l -16.75 0    l 0 -30.811657142857143   z" fill="url(#WhiteBlackGradient)"/><path d="   M 411 244.6169142857143   s 0 -6 6 -6   l 4.75 0   s 6 0 6 6   l 0 30.811657142857143    l -16.75 0    l 0 -30.811657142857143   z" fill-opacity="0.3" filter="url(#SaturateMinus)"/><path d="   M 653 275.42857142857144   l 16.75 0   l 0 49.21748571428571   s 0 6 -6 6    l -4.75 0   s -6 0 -6 -6   l 0 -49.21748571428571   z"/><path d="   M 653 275.42857142857144   l 16.75 0   l 0 49.21748571428571   s 0 6 -6 6    l -4.75 0   s -6 0 -6 -6   l 0 -49.21748571428571   z" fill="url(#WhiteBlackGradient)"/><path d="   M 653 275.42857142857144   l 16.75 0   l 0 49.21748571428571   s 0 6 -6 6    l -4.75 0   s -6 0 -6 -6   l 0 -49.21748571428571   z" fill-opacity="0.3" filter="url(#SaturateMinus)"/><path d="   M 895 207.80525714285716   s 0 -6 6 -6   l 4.75 0   s 6 0 6 6   l 0 67.62331428571429    l -16.75 0    l 0 -67.62331428571429   z"/><path d="   M 895 207.80525714285716   s 0 -6 6 -6   l 4.75 0   s 6 0 6 6   l 0 67.62331428571429    l -16.75 0    l 0 -67.62331428571429   z" fill="url(#WhiteBlackGradient)"/><path d="   M 895 207.80525714285716   s 0 -6 6 -6   l 4.75 0   s 6 0 6 6   l 0 67.62331428571429    l -16.75 0    l 0 -67.62331428571429   z" fill-opacity="0.3" filter="url(#SaturateMinus)"/><path d="   M 1137 275.42857142857144   l 16.75 0   l 0 86.02914285714286   s 0 6 -6 6    l -4.75 0   s -6 0 -6 -6   l 0 -86.02914285714286   z"/><path d="   M 1137 275.42857142857144   l 16.75 0   l 0 86.02914285714286   s 0 6 -6 6    l -4.75 0   s -6 0 -6 -6   l 0 -86.02914285714286   z" fill="url(#WhiteBlackGradient)"/><path d="   M 1137 275.42857142857144   l 16.75 0   l 0 86.02914285714286   s 0 6 -6 6    l -4.75 0   s -6 0 -6 -6   l 0 -86.02914285714286   z" fill-opacity="0.3" filter="url(#SaturateMinus)"/><path d="   M 1379 170.99360000000001   s 0 -6 6 -6   l 4.75 0   s 6 0 6 6   l 0 104.43497142857142    l -16.75 0    l 0 -104.43497142857142   z"/><path d="   M 1379 170.99360000000001   s 0 -6 6 -6   l 4.75 0   s 6 0 6 6   l 0 104.43497142857142    l -16.75 0    l 0 -104.43497142857142   z" fill="url(#WhiteBlackGradient)"/><path d="   M 1379 170.99360000000001   s 0 -6 6 -6   l 4.75 0   s 6 0 6 6   l 0 104.43497142857142    l -16.75 0    l 0 -104.43497142857142   z" fill-opacity="0.3" filter="url(#SaturateMinus)"/><path d="   M 1621 275.42857142857144   l 16.75 0   l 0 122.8408   s 0 6 -6 6    l -4.75 0   s -6 0 -6 -6   l 0 -122.8408   z"/><path d="   M 1621 275.42857142857144   l 16.75 0   l 0 122.8408   s 0 6 -6 6    l -4.75 0   s -6 0 -6 -6   l 0 -122.8408   z" fill="url(#WhiteBlackGradient)"/><path d="   M 1621 275.42857142857144   l 16.75 0   l 0 122.8408   s 0 6 -6 6    l -4.75 0   s -6 0 -6 -6   l 0 -122.8408   z" fill-opacity="0.3" filter="url(#SaturateMinus)"/><path d="   M 1863 134.18194285714287   s 0 -6 6 -6   l 4.75 0   s 6 0 6 6   l 0 141.24662857142857    l -16.75 0    l 0 -141.24662857142857   z"/><path d="   M 1863 134.18194285714287   s 0 -6 6 -6   l 4.75 0   s 6 0 6 6   l 0 141.24662857142857    l -16.75 0    l 0 -141.24662857142857   z" fill="url(#WhiteBlackGradient)"/><path d="   M 1863 134.18194285714287   s 0 -6 6 -6   l 4.75 0   s 6 0 6 6   l 0 141.24662857142857    l -16.75 0    l 0 -141.24662857142857   z" fill-opacity="0.3" filter="url(#SaturateMinus)"/></g><!--            draw bars for data type 6--><g fill="rgb(29,157,242)" filter="none" id="ID_graph_6" opacity="1" stroke="none" stroke-opacity="1" stroke-width="0"><path d="   M 197.75 275.42857142857144   l 16.75 0   l 0 14.246411428571431   s 0 6 -6 6    l -4.75 0   s -6 0 -6 -6   l 0 -14.246411428571431   z"/><path d="   M 197.75 275.42857142857144   l 16.75 0   l 0 14.246411428571431   s 0 6 -6 6    l -4.75 0   s -6 0 -6 -6   l 0 -14.246411428571431   z" fill="url(#WhiteBlackGradient)"/><path d="   M 197.75 275.42857142857144   l 16.75 0   l 0 14.246411428571431   s 0 6 -6 6    l -4.75 0   s -6 0 -6 -6   l 0 -14.246411428571431   z" fill-opacity="0.3" filter="url(#SaturateMinus)"/><path d="   M 439.75 240.93574857142858   s 0 -6 6 -6   l 4.75 0   s 6 0 6 6   l 0 34.49282285714286    l -16.75 0    l 0 -34.49282285714286   z"/><path d="   M 439.75 240.93574857142858   s 0 -6 6 -6   l 4.75 0   s 6 0 6 6   l 0 34.49282285714286    l -16.75 0    l 0 -34.49282285714286   z" fill="url(#WhiteBlackGradient)"/><path d="   M 439.75 240.93574857142858   s 0 -6 6 -6   l 4.75 0   s 6 0 6 6   l 0 34.49282285714286    l -16.75 0    l 0 -34.49282285714286   z" fill-opacity="0.3" filter="url(#SaturateMinus)"/><path d="   M 681.75 275.42857142857144   l 16.75 0   l 0 54.73923428571428   s 0 6 -6 6    l -4.75 0   s -6 0 -6 -6   l 0 -54.73923428571428   z"/><path d="   M 681.75 275.42857142857144   l 16.75 0   l 0 54.73923428571428   s 0 6 -6 6    l -4.75 0   s -6 0 -6 -6   l 0 -54.73923428571428   z" fill="url(#WhiteBlackGradient)"/><path d="   M 681.75 275.42857142857144   l 16.75 0   l 0 54.73923428571428   s 0 6 -6 6    l -4.75 0   s -6 0 -6 -6   l 0 -54.73923428571428   z" fill-opacity="0.3" filter="url(#SaturateMinus)"/><path d="   M 923.75 200.4429257142857   s 0 -6 6 -6   l 4.75 0   s 6 0 6 6   l 0 74.98564571428572    l -16.75 0    l 0 -74.98564571428572   z"/><path d="   M 923.75 200.4429257142857   s 0 -6 6 -6   l 4.75 0   s 6 0 6 6   l 0 74.98564571428572    l -16.75 0    l 0 -74.98564571428572   z" fill="url(#WhiteBlackGradient)"/><path d="   M 923.75 200.4429257142857   s 0 -6 6 -6   l 4.75 0   s 6 0 6 6   l 0 74.98564571428572    l -16.75 0    l 0 -74.98564571428572   z" fill-opacity="0.3" filter="url(#SaturateMinus)"/><path d="   M 1165.75 275.42857142857144   l 16.75 0   l 0 95.23205714285714   s 0 6 -6 6    l -4.75 0   s -6 0 -6 -6   l 0 -95.23205714285714   z"/><path d="   M 1165.75 275.42857142857144   l 16.75 0   l 0 95.23205714285714   s 0 6 -6 6    l -4.75 0   s -6 0 -6 -6   l 0 -95.23205714285714   z" fill="url(#WhiteBlackGradient)"/><path d="   M 1165.75 275.42857142857144   l 16.75 0   l 0 95.23205714285714   s 0 6 -6 6    l -4.75 0   s -6 0 -6 -6   l 0 -95.23205714285714   z" fill-opacity="0.3" filter="url(#SaturateMinus)"/><path d="   M 1407.75 159.9501028571429   s 0 -6 6 -6   l 4.75 0   s 6 0 6 6   l 0 115.47846857142856    l -16.75 0    l 0 -115.47846857142856   z"/><path d="   M 1407.75 159.9501028571429   s 0 -6 6 -6   l 4.75 0   s 6 0 6 6   l 0 115.47846857142856    l -16.75 0    l 0 -115.47846857142856   z" fill="url(#WhiteBlackGradient)"/><path d="   M 1407.75 159.9501028571429   s 0 -6 6 -6   l 4.75 0   s 6 0 6 6   l 0 115.47846857142856    l -16.75 0    l 0 -115.47846857142856   z" fill-opacity="0.3" filter="url(#SaturateMinus)"/><path d="   M 1649.75 275.42857142857144   l 16.75 0   l 0 135.72487999999998   s 0 6 -6 6    l -4.75 0   s -6 0 -6 -6   l 0 -135.72487999999998   z"/><path d="   M 1649.75 275.42857142857144   l 16.75 0   l 0 135.72487999999998   s 0 6 -6 6    l -4.75 0   s -6 0 -6 -6   l 0 -135.72487999999998   z" fill="url(#WhiteBlackGradient)"/><path d="   M 1649.75 275.42857142857144   l 16.75 0   l 0 135.72487999999998   s 0 6 -6 6    l -4.75 0   s -6 0 -6 -6   l 0 -135.72487999999998   z" fill-opacity="0.3" filter="url(#SaturateMinus)"/><path d="   M 1891.75 119.45728   s 0 -6 6 -6   l 4.75 0   s 6 0 6 6   l 0 155.97129142857145    l -16.75 0    l 0 -155.97129142857145   z"/><path d="   M 1891.75 119.45728   s 0 -6 6 -6   l 4.75 0   s 6 0 6 6   l 0 155.97129142857145    l -16.75 0    l 0 -155.97129142857145   z" fill="url(#WhiteBlackGradient)"/><path d="   M 1891.75 119.45728   s 0 -6 6 -6   l 4.75 0   s 6 0 6 6   l 0 155.97129142857145    l -16.75 0    l 0 -155.97129142857145   z" fill-opacity="0.3" filter="url(#SaturateMinus)"/></g><!--            draw bars for data type 7--><g fill="rgb(181,207,50)" filter="none" id="ID_graph_7" opacity="1" stroke="none" stroke-opacity="1" stroke-width="0"><path d="   M 226.5 275.42857142857144   l 16.75 0   l 0 16.27105257142857   s 0 6 -6 6    l -4.75 0   s -6 0 -6 -6   l 0 -16.27105257142857   z"/><path d="   M 226.5 275.42857142857144   l 16.75 0   l 0 16.27105257142857   s 0 6 -6 6    l -4.75 0   s -6 0 -6 -6   l 0 -16.27105257142857   z" fill="url(#WhiteBlackGradient)"/><path d="   M 226.5 275.42857142857144   l 16.75 0   l 0 16.27105257142857   s 0 6 -6 6    l -4.75 0   s -6 0 -6 -6   l 0 -16.27105257142857   z" fill-opacity="0.3" filter="url(#SaturateMinus)"/><path d="   M 468.5 236.8864662857143   s 0 -6 6 -6   l 4.75 0   s 6 0 6 6   l 0 38.54210514285714    l -16.75 0    l 0 -38.54210514285714   z"/><path d="   M 468.5 236.8864662857143   s 0 -6 6 -6   l 4.75 0   s 6 0 6 6   l 0 38.54210514285714    l -16.75 0    l 0 -38.54210514285714   z" fill="url(#WhiteBlackGradient)"/><path d="   M 468.5 236.8864662857143   s 0 -6 6 -6   l 4.75 0   s 6 0 6 6   l 0 38.54210514285714    l -16.75 0    l 0 -38.54210514285714   z" fill-opacity="0.3" filter="url(#SaturateMinus)"/><path d="   M 710.5 275.42857142857144   l 16.75 0   l 0 60.81315771428571   s 0 6 -6 6    l -4.75 0   s -6 0 -6 -6   l 0 -60.81315771428571   z"/><path d="   M 710.5 275.42857142857144   l 16.75 0   l 0 60.81315771428571   s 0 6 -6 6    l -4.75 0   s -6 0 -6 -6   l 0 -60.81315771428571   z" fill="url(#WhiteBlackGradient)"/><path d="   M 710.5 275.42857142857144   l 16.75 0   l 0 60.81315771428571   s 0 6 -6 6    l -4.75 0   s -6 0 -6 -6   l 0 -60.81315771428571   z" fill-opacity="0.3" filter="url(#SaturateMinus)"/><path d="   M 952.5 192.34436114285717   s 0 -6 6 -6   l 4.75 0   s 6 0 6 6   l 0 83.08421028571428    l -16.75 0    l 0 -83.08421028571428   z"/><path d="   M 952.5 192.34436114285717   s 0 -6 6 -6   l 4.75 0   s 6 0 6 6   l 0 83.08421028571428    l -16.75 0    l 0 -83.08421028571428   z" fill="url(#WhiteBlackGradient)"/><path d="   M 952.5 192.34436114285717   s 0 -6 6 -6   l 4.75 0   s 6 0 6 6   l 0 83.08421028571428    l -16.75 0    l 0 -83.08421028571428   z" fill-opacity="0.3" filter="url(#SaturateMinus)"/><path d="   M 1194.5 275.42857142857144   l 16.75 0   l 0 105.35526285714286   s 0 6 -6 6    l -4.75 0   s -6 0 -6 -6   l 0 -105.35526285714286   z"/><path d="   M 1194.5 275.42857142857144   l 16.75 0   l 0 105.35526285714286   s 0 6 -6 6    l -4.75 0   s -6 0 -6 -6   l 0 -105.35526285714286   z" fill="url(#WhiteBlackGradient)"/><path d="   M 1194.5 275.42857142857144   l 16.75 0   l 0 105.35526285714286   s 0 6 -6 6    l -4.75 0   s -6 0 -6 -6   l 0 -105.35526285714286   z" fill-opacity="0.3" filter="url(#SaturateMinus)"/><path d="   M 1436.5 147.80225600000003   s 0 -6 6 -6   l 4.75 0   s 6 0 6 6   l 0 127.62631542857142    l -16.75 0    l 0 -127.62631542857142   z"/><path d="   M 1436.5 147.80225600000003   s 0 -6 6 -6   l 4.75 0   s 6 0 6 6   l 0 127.62631542857142    l -16.75 0    l 0 -127.62631542857142   z" fill="url(#WhiteBlackGradient)"/><path d="   M 1436.5 147.80225600000003   s 0 -6 6 -6   l 4.75 0   s 6 0 6 6   l 0 127.62631542857142    l -16.75 0    l 0 -127.62631542857142   z" fill-opacity="0.3" filter="url(#SaturateMinus)"/><path d="   M 1678.5 275.42857142857144   l 16.75 0   l 0 149.897368   s 0 6 -6 6    l -4.75 0   s -6 0 -6 -6   l 0 -149.897368   z"/><path d="   M 1678.5 275.42857142857144   l 16.75 0   l 0 149.897368   s 0 6 -6 6    l -4.75 0   s -6 0 -6 -6   l 0 -149.897368   z" fill="url(#WhiteBlackGradient)"/><path d="   M 1678.5 275.42857142857144   l 16.75 0   l 0 149.897368   s 0 6 -6 6    l -4.75 0   s -6 0 -6 -6   l 0 -149.897368   z" fill-opacity="0.3" filter="url(#SaturateMinus)"/><path d="   M 1920.5 103.26015085714289   s 0 -6 6 -6   l 4.75 0   s 6 0 6 6   l 0 172.16842057142856    l -16.75 0    l 0 -172.16842057142856   z"/><path d="   M 1920.5 103.26015085714289   s 0 -6 6 -6   l 4.75 0   s 6 0 6 6   l 0 172.16842057142856    l -16.75 0    l 0 -172.16842057142856   z" fill="url(#WhiteBlackGradient)"/><path d="   M 1920.5 103.26015085714289   s 0 -6 6 -6   l 4.75 0   s 6 0 6 6   l 0 172.16842057142856    l -16.75 0    l 0 -172.16842057142856   z" fill-opacity="0.3" filter="url(#SaturateMinus)"/></g><!--            draw bars for data type 8--><g fill="rgb(212,58,38)" filter="none" id="ID_graph_8" opacity="1" stroke="none" stroke-opacity="1" stroke-width="0"><path d="   M 255.25 275.42857142857144   l 16.75 0   l 0 18.49815782857143   s 0 6 -6 6    l -4.75 0   s -6 0 -6 -6   l 0 -18.49815782857143   z"/><path d="   M 255.25 275.42857142857144   l 16.75 0   l 0 18.49815782857143   s 0 6 -6 6    l -4.75 0   s -6 0 -6 -6   l 0 -18.49815782857143   z" fill="url(#WhiteBlackGradient)"/><path d="   M 255.25 275.42857142857144   l 16.75 0   l 0 18.49815782857143   s 0 6 -6 6    l -4.75 0   s -6 0 -6 -6   l 0 -18.49815782857143   z" fill-opacity="0.3" filter="url(#SaturateMinus)"/><path d="   M 497.25 232.43225577142857   s 0 -6 6 -6   l 4.75 0   s 6 0 6 6   l 0 42.99631565714286    l -16.75 0    l 0 -42.99631565714286   z"/><path d="   M 497.25 232.43225577142857   s 0 -6 6 -6   l 4.75 0   s 6 0 6 6   l 0 42.99631565714286    l -16.75 0    l 0 -42.99631565714286   z" fill="url(#WhiteBlackGradient)"/><path d="   M 497.25 232.43225577142857   s 0 -6 6 -6   l 4.75 0   s 6 0 6 6   l 0 42.99631565714286    l -16.75 0    l 0 -42.99631565714286   z" fill-opacity="0.3" filter="url(#SaturateMinus)"/><path d="   M 739.25 275.42857142857144   l 16.75 0   l 0 67.49447348571428   s 0 6 -6 6    l -4.75 0   s -6 0 -6 -6   l 0 -67.49447348571428   z"/><path d="   M 739.25 275.42857142857144   l 16.75 0   l 0 67.49447348571428   s 0 6 -6 6    l -4.75 0   s -6 0 -6 -6   l 0 -67.49447348571428   z" fill="url(#WhiteBlackGradient)"/><path d="   M 739.25 275.42857142857144   l 16.75 0   l 0 67.49447348571428   s 0 6 -6 6    l -4.75 0   s -6 0 -6 -6   l 0 -67.49447348571428   z" fill-opacity="0.3" filter="url(#SaturateMinus)"/><path d="   M 981.25 183.43594011428573   s 0 -6 6 -6   l 4.75 0   s 6 0 6 6   l 0 91.99263131428572    l -16.75 0    l 0 -91.99263131428572   z"/><path d="   M 981.25 183.43594011428573   s 0 -6 6 -6   l 4.75 0   s 6 0 6 6   l 0 91.99263131428572    l -16.75 0    l 0 -91.99263131428572   z" fill="url(#WhiteBlackGradient)"/><path d="   M 981.25 183.43594011428573   s 0 -6 6 -6   l 4.75 0   s 6 0 6 6   l 0 91.99263131428572    l -16.75 0    l 0 -91.99263131428572   z" fill-opacity="0.3" filter="url(#SaturateMinus)"/><path d="   M 1223.25 275.42857142857144   l 16.75 0   l 0 116.49078914285714   s 0 6 -6 6    l -4.75 0   s -6 0 -6 -6   l 0 -116.49078914285714   z"/><path d="   M 1223.25 275.42857142857144   l 16.75 0   l 0 116.49078914285714   s 0 6 -6 6    l -4.75 0   s -6 0 -6 -6   l 0 -116.49078914285714   z" fill="url(#WhiteBlackGradient)"/><path d="   M 1223.25 275.42857142857144   l 16.75 0   l 0 116.49078914285714   s 0 6 -6 6    l -4.75 0   s -6 0 -6 -6   l 0 -116.49078914285714   z" fill-opacity="0.3" filter="url(#SaturateMinus)"/><path d="   M 1465.25 134.43962445714288   s 0 -6 6 -6   l 4.75 0   s 6 0 6 6   l 0 140.98894697142856    l -16.75 0    l 0 -140.98894697142856   z"/><path d="   M 1465.25 134.43962445714288   s 0 -6 6 -6   l 4.75 0   s 6 0 6 6   l 0 140.98894697142856    l -16.75 0    l 0 -140.98894697142856   z" fill="url(#WhiteBlackGradient)"/><path d="   M 1465.25 134.43962445714288   s 0 -6 6 -6   l 4.75 0   s 6 0 6 6   l 0 140.98894697142856    l -16.75 0    l 0 -140.98894697142856   z" fill-opacity="0.3" filter="url(#SaturateMinus)"/><path d="   M 1707.25 275.42857142857144   l 16.75 0   l 0 165.4871048   s 0 6 -6 6    l -4.75 0   s -6 0 -6 -6   l 0 -165.4871048   z"/><path d="   M 1707.25 275.42857142857144   l 16.75 0   l 0 165.4871048   s 0 6 -6 6    l -4.75 0   s -6 0 -6 -6   l 0 -165.4871048   z" fill="url(#WhiteBlackGradient)"/><path d="   M 1707.25 275.42857142857144   l 16.75 0   l 0 165.4871048   s 0 6 -6 6    l -4.75 0   s -6 0 -6 -6   l 0 -165.4871048   z" fill-opacity="0.3" filter="url(#SaturateMinus)"/><path d="   M 1949.25 85.44330880000001   s 0 -6 6 -6   l 4.75 0   s 6 0 6 6   l 0 189.98526262857143    l -16.75 0    l 0 -189.98526262857143   z"/><path d="   M 1949.25 85.44330880000001   s 0 -6 6 -6   l 4.75 0   s 6 0 6 6   l 0 189.98526262857143    l -16.75 0    l 0 -189.98526262857143   z" fill="url(#WhiteBlackGradient)"/><path d="   M 1949.25 85.44330880000001   s 0 -6 6 -6   l 4.75 0   s 6 0 6 6   l 0 189.98526262857143    l -16.75 0    l 0 -189.98526262857143   z" fill-opacity="0.3" filter="url(#SaturateMinus)"/></g></g></svg>