<?xml version="1.0" encoding="UTF-8" standalone="no" ?><svg xmlns="http://www.w3.org/2000/svg" id="ID_svg" viewBox="0 0 1162 500" viewport-fill="white" viewport-fill-opacity="0" xmlns:exsl4D="http://www.4D.com" xmlns:math="http://exslt.org/math" xmlns:xlink="http://www.w3.org/1999/xlink"><!--gradient styles--><defs><filter id="soft_blur"><feGaussianBlur in="SourceGraphic" result="BlurAlpha" stdDeviation="1"/></filter><filter id="pastel"><feGaussianBlur in="SourceAlpha" result="blur" stdDeviation="2"/><feOffset dx="6" dy="6" in="blur" result="offsetBlur"/><feComposite in="SourceGraphic" in2="offsetBlur" operator="in" result="specOut"/></filter><filter id="blur_shadow"><feGaussianBlur in="SourceAlpha" result="blur" stdDeviation="3"/><feOffset dx="4" dy="2" in="blur" result="offsetBlur"/><feBlend in="SourceGraphic" in2="offsetBlur" mode="normal"/></filter><filter filterUnits="objectBoundingBox" id="Shadow"><feGaussianBlur in="SourceAlpha" result="flou" stdDeviation="0"/><feColorMatrix in="SourceAlpha" result="flouBlue" type="matrix" values=" 0 0 0 0 0                      0 0 0 0 0                     0 0 0 0 0                      0 0 0 0.3 0"/><feOffset dx="4" dy="4" in="flouBlue" result="flouDecalage"/><feBlend in="SourceGraphic" in2="flouDecalage" mode="normal"/></filter><filter filterUnits="objectBoundingBox" height="100%" id="SaturateMinus" width="100%" x="0%" y="0%"><feColorMatrix in="SourceGraphic" type="saturate" values="0.5"/></filter><filter filterUnits="objectBoundingBox" height="100%" id="SaturatePlus" width="100%" x="0%" y="0%"><feColorMatrix in="SourceGraphic" type="saturate" values="1.4"/></filter><linearGradient id="BlackGradient"><stop offset="0%" style="stop-color:rgb(0,0,0); stop-opacity:0"/><stop offset="100%" style="stop-color:rgb(0,0,0); stop-opacity:0.1"/></linearGradient><linearGradient id="WhiteGradient" x1="0%" x2="100%" y1="0%" y2="0%"><stop offset="0%" style="stop-color:rgb(255,255,255); stop-opacity:0.3"/><stop offset="100%" style="stop-color:rgb(255,255,255);stop-opacity:0"/></linearGradient><linearGradient id="WhiteBlackGradient" x1="0%" x2="100%" y1="0%" y2="0%"><stop offset="0%" style="stop-color:rgb(255,255,255); stop-opacity:0.15"/><stop offset="100%" style="stop-color:rgb(0,0,0);stop-opacity:0.15"/></linearGradient><linearGradient id="Black0Black1Gradient" x1="0%" x2="0%" y1="0%" y2="100%"><stop offset="0%" style="stop-color:rgb(0,0,0); stop-opacity:0"/><stop offset="100%" style="stop-color:rgb(0,0,0);stop-opacity:0.05"/></linearGradient></defs><!--global stroke and font styles--><g id="ID_globals" style="fill:black;stroke:none;font-family:Arial;font-size:12px;font-weight:normal;font-style:normal;text-decoration:none;shape-rendering:crispEdges"><!--draw title--><!--draw legend--><!--draw graph background--><rect fill="rgb(168,168,168)" fill-opacity="1" height="446" id="ID_background_shadow" rx="10" ry="10" stroke="none" visibility="visible" width="1120" x="33" y="23"/><g fill="rgb(229,229,229)" id="ID_background" visibility="visible"><rect height="446" rx="10" ry="10" stroke="none" width="1120" x="32" y="22"/><rect fill="url(#Black0Black1Gradient)" height="446" rx="10" ry="10" stroke="none" width="1120" x="32" y="22"/></g><clipPath id="ID_backgroundClipPath"><rect height="447" rx="10" ry="10" width="1121" x="32" y="22"/></clipPath><!--draw Y grid lines--><!--draw Y grid lines SHADOWS--><!--draw X grid lines--><!--draw X grid lines SHADOWS --><!--draw y=0 axe--><g id="ID_y0_axis" stroke="rgb(100,100,100)" stroke-width="1" visibility="visible"><line x1="32" x2="1152" y1="259.8666666666667" y2="259.8666666666667"/></g><!--draw axis x labels--><g id="ID_x_values" style="fill:black;stroke:none;font-family:Arial;font-size:12px;font-weight:normal;font-style:normal;text-decoration:none;filter:none"><text text-anchor="middle" x="105" y="486.8">PT8H0M0S</text><text text-anchor="middle" x="245" y="486.8">PT9H0M0S</text><text text-anchor="middle" x="385" y="486.8">PT10H0M0S</text><text text-anchor="middle" x="525" y="486.8">PT11H0M0S</text><text text-anchor="middle" x="665" y="486.8">PT11H15M0S</text><text text-anchor="middle" x="805" y="486.8">PT14H45M0S</text><text text-anchor="middle" x="945" y="486.8">PT15H0M0S</text><text text-anchor="middle" x="1085" y="486.8">PT16H0M0S</text></g><!--draw axis y labels--><g id="ID_y_values" style="fill:black;stroke:none;font-family:Arial;font-size:12px;font-weight:normal;font-style:normal;text-decoration:none;filter:none"><text text-anchor="end" x="22" y="472.8">-7</text><text text-anchor="end" x="22" y="443.06666666666666">-6</text><text text-anchor="end" x="22" y="413.3333333333333">-5</text><text text-anchor="end" x="22" y="383.6">-4</text><text text-anchor="end" x="22" y="353.8666666666667">-3</text><text text-anchor="end" x="22" y="324.1333333333333">-2</text><text text-anchor="end" x="22" y="294.40000000000003">-1</text><text text-anchor="end" x="22" y="264.6666666666667">0</text><text text-anchor="end" x="22" y="234.93333333333334">1</text><text text-anchor="end" x="22" y="205.2">2</text><text text-anchor="end" x="22" y="175.46666666666664">3</text><text text-anchor="end" x="22" y="145.73333333333335">4</text><text text-anchor="end" x="22" y="115.99999999999999">5</text><text text-anchor="end" x="22" y="86.26666666666664">6</text><text text-anchor="end" x="22" y="56.533333333333346">7</text><text text-anchor="end" x="22" y="26.8">8</text></g><!--draw bars SHADOWS--><g clip-path="url(#ID_BackgroundClipPath)" filter="none" id="allGroups" shape-rendering="auto"><!--              draw bars shadows for data type 1--><g fill="black" fill-opacity="0.2" id="ID_graph_shadow_1"><path d="   M 55 259.8666666666667   l 100 0   l 0 19.73333333333335   s 0 10 -10 10    l -80 0   s -10 0 -10 -10   l 0 -19.73333333333335   z"/><path d="   M 195 210.4   s 0 -10 10 -10   l 80 0   s 10 0 10 10   l 0 49.46666666666667    l -100 0    l 0 -49.46666666666667   z"/><path d="   M 335 259.8666666666667   l 100 0   l 0 79.19999999999999   s 0 10 -10 10    l -80 0   s -10 0 -10 -10   l 0 -79.19999999999999   z"/><path d="   M 475 150.93333333333334   s 0 -10 10 -10   l 80 0   s 10 0 10 10   l 0 108.93333333333334    l -100 0    l 0 -108.93333333333334   z"/><path d="   M 615 259.8666666666667   l 100 0   l 0 138.66666666666669   s 0 10 -10 10    l -80 0   s -10 0 -10 -10   l 0 -138.66666666666669   z"/><path d="   M 755 91.46666666666667   s 0 -10 10 -10   l 80 0   s 10 0 10 10   l 0 168.4    l -100 0    l 0 -168.4   z"/><path d="   M 895 259.8666666666667   l 100 0   l 0 198.13333333333333   s 0 10 -10 10    l -80 0   s -10 0 -10 -10   l 0 -198.13333333333333   z"/><path d="   M 1035 32   s 0 -10 10 -10   l 80 0   s 10 0 10 10   l 0 227.86666666666667    l -100 0    l 0 -227.86666666666667   z"/></g></g><!--draw bars--><g filter="none" id="allGroups" shape-rendering="auto"><!--              draw bars for data type 1--><g fill="rgb(0,178,195)" fill-opacity="1" id="ID_graph_1" stroke="black" stroke-opacity="0" stroke-width="0"><path d="   M 52 259.8666666666667   l 100 0   l 0 19.73333333333335   s 0 10 -10 10    l -80 0   s -10 0 -10 -10   l 0 -19.73333333333335   z"/><path d="   M 52 259.8666666666667   l 100 0   l 0 19.73333333333335   s 0 10 -10 10    l -80 0   s -10 0 -10 -10   l 0 -19.73333333333335   z" fill="url(#WhiteBlackGradient)"/><path d="   M 52 259.8666666666667   l 100 0   l 0 19.73333333333335   s 0 10 -10 10    l -80 0   s -10 0 -10 -10   l 0 -19.73333333333335   z" fill-opacity="0.3" filter="url(#SaturateMinus)"/><path d="   M 192 210.4   s 0 -10 10 -10   l 80 0   s 10 0 10 10   l 0 49.46666666666667    l -100 0    l 0 -49.46666666666667   z"/><path d="   M 192 210.4   s 0 -10 10 -10   l 80 0   s 10 0 10 10   l 0 49.46666666666667    l -100 0    l 0 -49.46666666666667   z" fill="url(#WhiteBlackGradient)"/><path d="   M 192 210.4   s 0 -10 10 -10   l 80 0   s 10 0 10 10   l 0 49.46666666666667    l -100 0    l 0 -49.46666666666667   z" fill-opacity="0.3" filter="url(#SaturateMinus)"/><path d="   M 332 259.8666666666667   l 100 0   l 0 79.19999999999999   s 0 10 -10 10    l -80 0   s -10 0 -10 -10   l 0 -79.19999999999999   z"/><path d="   M 332 259.8666666666667   l 100 0   l 0 79.19999999999999   s 0 10 -10 10    l -80 0   s -10 0 -10 -10   l 0 -79.19999999999999   z" fill="url(#WhiteBlackGradient)"/><path d="   M 332 259.8666666666667   l 100 0   l 0 79.19999999999999   s 0 10 -10 10    l -80 0   s -10 0 -10 -10   l 0 -79.19999999999999   z" fill-opacity="0.3" filter="url(#SaturateMinus)"/><path d="   M 472 150.93333333333334   s 0 -10 10 -10   l 80 0   s 10 0 10 10   l 0 108.93333333333334    l -100 0    l 0 -108.93333333333334   z"/><path d="   M 472 150.93333333333334   s 0 -10 10 -10   l 80 0   s 10 0 10 10   l 0 108.93333333333334    l -100 0    l 0 -108.93333333333334   z" fill="url(#WhiteBlackGradient)"/><path d="   M 472 150.93333333333334   s 0 -10 10 -10   l 80 0   s 10 0 10 10   l 0 108.93333333333334    l -100 0    l 0 -108.93333333333334   z" fill-opacity="0.3" filter="url(#SaturateMinus)"/><path d="   M 612 259.8666666666667   l 100 0   l 0 138.66666666666669   s 0 10 -10 10    l -80 0   s -10 0 -10 -10   l 0 -138.66666666666669   z"/><path d="   M 612 259.8666666666667   l 100 0   l 0 138.66666666666669   s 0 10 -10 10    l -80 0   s -10 0 -10 -10   l 0 -138.66666666666669   z" fill="url(#WhiteBlackGradient)"/><path d="   M 612 259.8666666666667   l 100 0   l 0 138.66666666666669   s 0 10 -10 10    l -80 0   s -10 0 -10 -10   l 0 -138.66666666666669   z" fill-opacity="0.3" filter="url(#SaturateMinus)"/><path d="   M 752 91.46666666666667   s 0 -10 10 -10   l 80 0   s 10 0 10 10   l 0 168.4    l -100 0    l 0 -168.4   z"/><path d="   M 752 91.46666666666667   s 0 -10 10 -10   l 80 0   s 10 0 10 10   l 0 168.4    l -100 0    l 0 -168.4   z" fill="url(#WhiteBlackGradient)"/><path d="   M 752 91.46666666666667   s 0 -10 10 -10   l 80 0   s 10 0 10 10   l 0 168.4    l -100 0    l 0 -168.4   z" fill-opacity="0.3" filter="url(#SaturateMinus)"/><path d="   M 892 259.8666666666667   l 100 0   l 0 198.13333333333333   s 0 10 -10 10    l -80 0   s -10 0 -10 -10   l 0 -198.13333333333333   z"/><path d="   M 892 259.8666666666667   l 100 0   l 0 198.13333333333333   s 0 10 -10 10    l -80 0   s -10 0 -10 -10   l 0 -198.13333333333333   z" fill="url(#WhiteBlackGradient)"/><path d="   M 892 259.8666666666667   l 100 0   l 0 198.13333333333333   s 0 10 -10 10    l -80 0   s -10 0 -10 -10   l 0 -198.13333333333333   z" fill-opacity="0.3" filter="url(#SaturateMinus)"/><path d="   M 1032 32   s 0 -10 10 -10   l 80 0   s 10 0 10 10   l 0 227.86666666666667    l -100 0    l 0 -227.86666666666667   z"/><path d="   M 1032 32   s 0 -10 10 -10   l 80 0   s 10 0 10 10   l 0 227.86666666666667    l -100 0    l 0 -227.86666666666667   z" fill="url(#WhiteBlackGradient)"/><path d="   M 1032 32   s 0 -10 10 -10   l 80 0   s 10 0 10 10   l 0 227.86666666666667    l -100 0    l 0 -227.86666666666667   z" fill-opacity="0.3" filter="url(#SaturateMinus)"/></g></g></g></svg>