<?xml version="1.0" encoding="UTF-8" standalone="no" ?><svg xmlns="http://www.w3.org/2000/svg" id="ID_svg" viewBox="0 0 1058 500" viewport-fill="white" viewport-fill-opacity="0" xmlns:exsl4D="http://www.4D.com" xmlns:math="http://exslt.org/math" xmlns:xlink="http://www.w3.org/1999/xlink"><!--gradient styles--><defs><filter id="soft_blur"><feGaussianBlur in="SourceGraphic" result="BlurAlpha" stdDeviation="1"/></filter><filter id="pastel"><feGaussianBlur in="SourceAlpha" result="blur" stdDeviation="2"/><feOffset dx="6" dy="6" in="blur" result="offsetBlur"/><feComposite in="SourceGraphic" in2="offsetBlur" operator="in" result="specOut"/></filter><filter id="blur_shadow"><feGaussianBlur in="SourceAlpha" result="blur" stdDeviation="3"/><feOffset dx="4" dy="2" in="blur" result="offsetBlur"/><feBlend in="SourceGraphic" in2="offsetBlur" mode="normal"/></filter><filter filterUnits="objectBoundingBox" id="Shadow"><feGaussianBlur in="SourceAlpha" result="flou" stdDeviation="0"/><feColorMatrix in="SourceAlpha" result="flouBlue" type="matrix" values=" 0 0 0 0 0                      0 0 0 0 0                     0 0 0 0 0                      0 0 0 0.3 0"/><feOffset dx="4" dy="4" in="flouBlue" result="flouDecalage"/><feBlend in="SourceGraphic" in2="flouDecalage" mode="normal"/></filter><filter filterUnits="objectBoundingBox" height="100%" id="SaturateMinus" width="100%" x="0%" y="0%"><feColorMatrix in="SourceGraphic" type="saturate" values="0.5"/></filter><filter filterUnits="objectBoundingBox" height="100%" id="SaturatePlus" width="100%" x="0%" y="0%"><feColorMatrix in="SourceGraphic" type="saturate" values="1.4"/></filter><linearGradient id="BlackGradient"><stop offset="0%" style="stop-color:rgb(0,0,0); stop-opacity:0"/><stop offset="100%" style="stop-color:rgb(0,0,0); stop-opacity:0.1"/></linearGradient><linearGradient id="WhiteGradient" x1="0%" x2="100%" y1="0%" y2="0%"><stop offset="0%" style="stop-color:rgb(255,255,255); stop-opacity:0.3"/><stop offset="100%" style="stop-color:rgb(255,255,255);stop-opacity:0"/></linearGradient><linearGradient id="WhiteBlackGradient" x1="0%" x2="100%" y1="0%" y2="0%"><stop offset="0%" style="stop-color:rgb(255,255,255); stop-opacity:0.15"/><stop offset="100%" style="stop-color:rgb(0,0,0);stop-opacity:0.15"/></linearGradient><linearGradient id="Black0Black1Gradient" x1="0%" x2="0%" y1="0%" y2="100%"><stop offset="0%" style="stop-color:rgb(0,0,0); stop-opacity:0"/><stop offset="100%" style="stop-color:rgb(0,0,0);stop-opacity:0.05"/></linearGradient><clipPath id="ID_background_clip"><rect height="440" rx="10" width="980" x="38" y="22"/></clipPath><clipPath id="ID_area_clip"><rect height="440" width="1120" x="38" y="22"/></clipPath></defs><!--global stroke and font styles--><g id="ID_globals" style="fill:black;stroke:none;font-family:Arial;font-size:12px;font-weight:normal;font-style:normal;text-decoration:none;shape-rendering:crispEdges"><!--draw title--><!--draw legend--><!--draw graph background--><rect fill="rgb(168,168,168)" fill-opacity="1" height="440" id="ID_background_shadow" rx="10" ry="10" stroke="none" visibility="visible" width="980" x="39" y="23"/><g fill="rgb(229,229,229)" id="ID_background" visibility="visible"><rect height="440" rx="10" ry="10" stroke="none" width="980" x="38" y="22"/><rect fill="url(#Black0Black1Gradient)" height="440" rx="10" ry="10" stroke="none" width="980" x="38" y="22"/></g><clipPath id="ID_backgroundClipPath"><rect height="441" rx="10" ry="10" width="981" x="38" y="22"/></clipPath><!--draw Y grid lines--><!--draw Y grid lines SHADOW--><!--draw X grid lines--><!--draw X grid lines SHADOW--><!--draw y=0 axe--><g id="ID_y0_axis" stroke="rgb(100,100,100)" stroke-width="1" visibility="visible"><line x1="38" x2="1018" y1="273.42857142857144" y2="273.42857142857144"/></g><!--draw axis x labels--><g id="ID_x_values" style="fill:black;stroke:none;font-family:Arial;font-size:12px;font-weight:normal;font-style:normal;text-decoration:none;filter:none"><text text-anchor="middle" x="41" y="486.8">PT8H0M0S</text><text text-anchor="middle" x="181" y="486.8">PT9H0M0S</text><text text-anchor="middle" x="321" y="486.8">PT10H0M0S</text><text text-anchor="middle" x="461" y="486.8">PT11H0M0S</text><text text-anchor="middle" x="601" y="486.8">PT11H15M0S</text><text text-anchor="middle" x="741" y="486.8">PT14H45M0S</text><text text-anchor="middle" x="881" y="486.8">PT15H0M0S</text><text text-anchor="middle" x="1021" y="486.8">PT16H0M0S</text></g><!--draw axis y labels--><g id="ID_y_values" style="fill:black;stroke:none;font-family:Arial;font-size:12px;font-weight:normal;font-style:normal;text-decoration:none;filter:none"><text text-anchor="end" x="28" y="466.8">-15</text><text text-anchor="end" x="28" y="403.9428571428572">-10</text><text text-anchor="end" x="28" y="341.0857142857143">-5</text><text text-anchor="end" x="28" y="278.22857142857146">0</text><text text-anchor="end" x="28" y="215.3714285714286">5</text><text text-anchor="end" x="28" y="152.51428571428573">10</text><text text-anchor="end" x="28" y="89.65714285714289">15</text><text text-anchor="end" x="28" y="26.8">20</text></g><!--draw lines--><g clip-path="url(#ID_background_clip)" stroke="none" stroke-width="0"><g clip-path="url(#ID_area_clip)"><!--                draw polyline for data type 1--><polyline fill="rgb(0,178,195)" fill-opacity="0.7" id="ID_graph_1" points="38 286 178 248.2857142857143 318 311.14285714285717 458 223.14285714285717 598 336.2857142857143 738 198 878 361.42857142857144 1018 172.8571428571429 1018 273.42857142857144 38 273.42857142857144"/><!--                draw polyline for data type 2--><polyline fill="rgb(255,195,56)" fill-opacity="0.7" id="ID_graph_2" points="38 287.25714285714287 178 245.7714285714286 318 314.9142857142857 458 218.11428571428573 598 342.57142857142856 738 190.45714285714288 878 370.22857142857146 1018 162.8 1018 273.42857142857144 38 273.42857142857144"/><!--                draw polyline for data type 3--><polyline fill="rgb(87,62,130)" fill-opacity="0.7" id="ID_graph_3" points="38 288.64 178 243.0057142857143 318 319.0628571428572 458 212.58285714285716 598 349.48571428571427 738 182.16000000000003 878 379.90857142857146 1018 151.73714285714289 1018 273.42857142857144 38 273.42857142857144"/><!--                draw polyline for data type 4--><polyline fill="rgb(79,168,57)" fill-opacity="0.7" id="ID_graph_4" points="38 290.16114285714286 178 239.96342857142858 318 323.6262857142857 458 206.49828571428571 598 357.0914285714286 738 173.03314285714288 878 390.55657142857143 1018 139.568 1018 273.42857142857144 38 273.42857142857144"/><!--                draw polyline for data type 5--><polyline fill="rgb(217,87,0)" fill-opacity="0.7" id="ID_graph_5" points="38 291.8344 178 236.6169142857143 318 328.64605714285716 458 199.80525714285716 598 365.4577142857143 738 162.99360000000001 878 402.26937142857145 1018 126.18194285714287 1018 273.42857142857144 38 273.42857142857144"/><!--                draw polyline for data type 6--><polyline fill="rgb(29,157,242)" fill-opacity="0.7" id="ID_graph_6" points="38 293.6749828571429 178 232.93574857142858 318 334.16780571428575 458 192.4429257142857 598 374.66062857142856 738 151.9501028571429 878 415.15345142857143 1018 111.45728 1018 273.42857142857144 38 273.42857142857144"/><!--                draw polyline for data type 7--><polyline fill="rgb(181,207,50)" fill-opacity="0.7" id="ID_graph_7" points="38 295.69962400000003 178 228.8864662857143 318 340.24172914285714 458 184.34436114285717 598 384.7838342857143 738 139.80225600000003 878 429.3259394285715 1018 95.26015085714289 1018 273.42857142857144 38 273.42857142857144"/><!--                draw polyline for data type 8--><polyline fill="rgb(212,58,38)" fill-opacity="0.7" id="ID_graph_8" points="38 297.9267292571429 178 224.43225577142857 318 346.9230449142857 458 175.43594011428573 598 395.91936057142857 738 126.43962445714288 878 444.91567622857144 1018 77.44330880000001 1018 273.42857142857144 38 273.42857142857144"/></g></g></g></svg>