
<svg xmlns="http://www.w3.org/2000/svg" id="ID_svg" viewBox="0 0 1018.04 448" viewport-fill="none" viewport-fill-opacity="1" xmlns:exsl4D="http://www.4D.com" xmlns:gFunc="http://gFunc" xmlns:math="http://exslt.org/math" xmlns:xlink="http://www.w3.org/1999/xlink">

  <!--gradient styles-->

  <defs>
    <filter id="soft_blur">
      <feGaussianBlur in="SourceGraphic" result="BlurAlpha" stdDeviation="1"/>
    </filter>
    <filter id="pastel">
      <feGaussianBlur in="SourceAlpha" result="blur" stdDeviation="2"/>
      <feOffset dx="6" dy="6" in="blur" result="offsetBlur"/>
      <feComposite in="SourceGraphic" in2="offsetBlur" operator="in" result="specOut"/>
    </filter>
    <filter id="blur_shadow">
      <feGaussianBlur in="SourceAlpha" result="blur" stdDeviation="3"/>
      <feOffset dx="4" dy="2" in="blur" result="offsetBlur"/>
      <feBlend in="SourceGraphic" in2="offsetBlur" mode="normal"/>
    </filter>
    <filter filterUnits="objectBoundingBox" id="Shadow">
      <feGaussianBlur in="SourceAlpha" result="flou" stdDeviation="0"/>
      <feColorMatrix in="SourceAlpha" result="flouBlue" type="matrix" values=" 0 0 0 0 0                      0 0 0 0 0                     0 0 0 0 0                      0 0 0 0.3 0"/>
      <feOffset dx="4" dy="4" in="flouBlue" result="flouDecalage"/>
      <feBlend in="SourceGraphic" in2="flouDecalage" mode="normal"/>
    </filter>
    <filter filterUnits="objectBoundingBox" height="100%" id="SaturateMinus" width="100%" x="0%" y="0%">
      <feColorMatrix in="SourceGraphic" type="saturate" values="0.5"/>
    </filter>
    <filter filterUnits="objectBoundingBox" height="100%" id="SaturatePlus" width="100%" x="0%" y="0%">
      <feColorMatrix in="SourceGraphic" type="saturate" values="1.4"/>
    </filter>
    <linearGradient id="BlackGradient">
      <stop offset="0%" style="stop-color:rgb(0,0,0); stop-opacity:0"/>
      <stop offset="100%" style="stop-color:rgb(0,0,0); stop-opacity:0.1"/>
    </linearGradient>
    <linearGradient id="WhiteGradient" x1="0%" x2="100%" y1="0%" y2="0%">
      <stop offset="0%" style="stop-color:rgb(255,255,255); stop-opacity:0.3"/>
      <stop offset="100%" style="stop-color:rgb(255,255,255);stop-opacity:0"/>
    </linearGradient>
    <linearGradient id="WhiteBlackGradient" x1="0%" x2="100%" y1="0%" y2="0%">
      <stop offset="0%" style="stop-color:rgb(255,255,255); stop-opacity:0.15"/>
      <stop offset="100%" style="stop-color:rgb(0,0,0);stop-opacity:0.15"/>
    </linearGradient>
    <linearGradient id="Black0Black1Gradient" x1="0%" x2="0%" y1="0%" y2="100%">
      <stop offset="0%" style="stop-color:rgb(0,0,0); stop-opacity:0"/>
      <stop offset="100%" style="stop-color:rgb(0,0,0);stop-opacity:0.05"/>
    </linearGradient>
  </defs>

  <!--global stroke and font styles-->

  <g id="ID_globals" style="fill:black;stroke:none;font-family:Arial;font-size:12px;font-weight:normal;font-style:normal;text-decoration:none;shape-rendering:crispEdges">
    <!--draw title-->
    <!--********************************draw graph background********************************-->
    <rect fill="rgb(168,168,168)" height="400" id="ID_background_shadow" opacity="1" rx="10" ry="10" stroke="none" transform="translate(1,1)" visibility="visible" width="800.04" x="42" y="12"/>
    <g fill="rgb(229,229,229)" id="ID_background" opacity="1" stroke="none" visibility="visible">
      <rect height="400" rx="10" ry="10" stroke="none" width="800.04" x="42" y="12"/>
      <rect fill="url(#Black0Black1Gradient)" height="400" rx="10" ry="10" stroke="none" width="800.04" x="42" y="12"/>
    </g>
    <clipPath id="ID_backgroundClipPath">
      <rect height="401" rx="10" ry="10" width="801.04" x="41" y="11"/>
    </clipPath>
    <!--********************************draw Y Labels********************************-->
    <g id="ID_y$value" style="fill:black;stroke:none;font-family:Arial;font-size:12px;font-weight:normal;font-style:normal;text-decoration:none;filter:none" visibility="visible">
      <text text-anchor="end" x="30" y="18">18</text>
      <text text-anchor="end" x="30" y="54.36">15</text>
      <text text-anchor="end" x="30" y="90.72">12</text>
      <text text-anchor="end" x="30" y="127.08">9</text>
      <text text-anchor="end" x="30" y="163.44">6</text>
      <text text-anchor="end" x="30" y="199.8">3</text>
      <text text-anchor="end" x="30" y="236.16">0</text>
      <text text-anchor="end" x="30" y="272.52">-3</text>
      <text text-anchor="end" x="30" y="308.88">-6</text>
      <text text-anchor="end" x="30" y="345.24">-9</text>
      <text text-anchor="end" x="30" y="381.6">-12</text>
      <text text-anchor="end" x="30" y="417.96">-15</text>
    </g>
    <!--********************************draw X Labels********************************-->
    <!--draw axis x labels-->
    <g id="ID_x$value" style="fill:black;stroke:none;font-family:Arial;font-size:12px;font-weight:normal;font-style:normal;text-decoration:none;filter:none" visibility="visible">
      <text text-anchor="middle" x="42" y="436">06:00:00</text>
      <text text-anchor="middle" x="108.67" y="436">07:00:00</text>
      <text text-anchor="middle" x="175.34" y="436">08:00:00</text>
      <text text-anchor="middle" x="242.01" y="436">09:00:00</text>
      <text text-anchor="middle" x="308.68" y="436">10:00:00</text>
      <text text-anchor="middle" x="375.35" y="436">11:00:00</text>
      <text text-anchor="middle" x="442.02" y="436">12:00:00</text>
      <text text-anchor="middle" x="508.69" y="436">13:00:00</text>
      <text text-anchor="middle" x="575.36" y="436">14:00:00</text>
      <text text-anchor="middle" x="642.03" y="436">15:00:00</text>
      <text text-anchor="middle" x="708.7" y="436">16:00:00</text>
      <text text-anchor="middle" x="775.37" y="436">17:00:00</text>
      <text text-anchor="middle" x="842.04" y="436">18:00:00</text>
    </g>
    <g style="clip-path: url(#ID_backgroundClipPath)">
      <!--******************************** draw Y grid lines******************************** (Horizontal lines)-->
      <g id="ID_y_grid" stroke="#a8a8a8" stroke-width="1">
        <line x1="42" x2="842.04" y1="48.36" y2="48.36"/>
        <line x1="42" x2="842.04" y1="84.72" y2="84.72"/>
        <line x1="42" x2="842.04" y1="121.08" y2="121.08"/>
        <line x1="42" x2="842.04" y1="157.44" y2="157.44"/>
        <line x1="42" x2="842.04" y1="193.8" y2="193.8"/>
        <line x1="42" x2="842.04" y1="230.16" y2="230.16"/>
        <line x1="42" x2="842.04" y1="266.52" y2="266.52"/>
        <line x1="42" x2="842.04" y1="302.88" y2="302.88"/>
        <line x1="42" x2="842.04" y1="339.24" y2="339.24"/>
        <line x1="42" x2="842.04" y1="375.6" y2="375.6"/>
      </g>
      <!--draw Y grid lines SHADOWS-->
      <g id="ID_y_grid_shadow" stroke="#ffffff" stroke-width="1">
        <line transform="translate(0,1)" x1="42" x2="842.04" y1="48.36" y2="48.36"/>
        <line transform="translate(0,1)" x1="42" x2="842.04" y1="84.72" y2="84.72"/>
        <line transform="translate(0,1)" x1="42" x2="842.04" y1="121.08" y2="121.08"/>
        <line transform="translate(0,1)" x1="42" x2="842.04" y1="157.44" y2="157.44"/>
        <line transform="translate(0,1)" x1="42" x2="842.04" y1="193.8" y2="193.8"/>
        <line transform="translate(0,1)" x1="42" x2="842.04" y1="230.16" y2="230.16"/>
        <line transform="translate(0,1)" x1="42" x2="842.04" y1="266.52" y2="266.52"/>
        <line transform="translate(0,1)" x1="42" x2="842.04" y1="302.88" y2="302.88"/>
        <line transform="translate(0,1)" x1="42" x2="842.04" y1="339.24" y2="339.24"/>
        <line transform="translate(0,1)" x1="42" x2="842.04" y1="375.6" y2="375.6"/>
      </g>
      <g id="ID_y0_axis" stroke="rgb(100,100,100)" stroke-width="1" visibility="visible">
        <line x1="42" x2="842.04" y1="230.18" y2="230.18"/>
      </g>
      <!--********************************draw X grid lines******************************** (Vertical lines)-->
      <g id="ID_x_grid" stroke="#a8a8a8" stroke-width="1">
        <line x1="108.67" x2="108.67" y1="12" y2="412"/>
        <line x1="175.34" x2="175.34" y1="12" y2="412"/>
        <line x1="242.01" x2="242.01" y1="12" y2="412"/>
        <line x1="308.68" x2="308.68" y1="12" y2="412"/>
        <line x1="375.35" x2="375.35" y1="12" y2="412"/>
        <line x1="442.02" x2="442.02" y1="12" y2="412"/>
        <line x1="508.69" x2="508.69" y1="12" y2="412"/>
        <line x1="575.36" x2="575.36" y1="12" y2="412"/>
        <line x1="642.03" x2="642.03" y1="12" y2="412"/>
        <line x1="708.7" x2="708.7" y1="12" y2="412"/>
        <line x1="775.37" x2="775.37" y1="12" y2="412"/>
      </g>
      <!--draw X grid lines SHADOWS -->
      <g id="ID_x_grid_shadow" stroke="#ffffff" stroke-width="1">
        <line transform="translate(1,0)" x1="108.67" x2="108.67" y1="12" y2="412"/>
        <line transform="translate(1,0)" x1="175.34" x2="175.34" y1="12" y2="412"/>
        <line transform="translate(1,0)" x1="242.01" x2="242.01" y1="12" y2="412"/>
        <line transform="translate(1,0)" x1="308.68" x2="308.68" y1="12" y2="412"/>
        <line transform="translate(1,0)" x1="375.35" x2="375.35" y1="12" y2="412"/>
        <line transform="translate(1,0)" x1="442.02" x2="442.02" y1="12" y2="412"/>
        <line transform="translate(1,0)" x1="508.69" x2="508.69" y1="12" y2="412"/>
        <line transform="translate(1,0)" x1="575.36" x2="575.36" y1="12" y2="412"/>
        <line transform="translate(1,0)" x1="642.03" x2="642.03" y1="12" y2="412"/>
        <line transform="translate(1,0)" x1="708.7" x2="708.7" y1="12" y2="412"/>
        <line transform="translate(1,0)" x1="775.37" x2="775.37" y1="12" y2="412"/>
      </g>
    </g>
    <!--******************************** draw legend ***********************************-->
    <g filter="none" id="ID_legend" transform="translate(854.04,12)" visibility="visible">
      <!--draw legend border-->
      <rect fill="rgb(168,168,168)" fill-opacity="1" height="250" id="ID_legend_border_shadow" rx="10" ry="10" stroke="none" transform="translate(1,1)" width="152" x="0" y="0"/>
      <rect fill="rgb(229,229,229)" fill-opacity="1" height="250" id="ID_legend_border" rx="10" ry="10" stroke="none" stroke-width="0" width="152" x="0" y="0"/>
      <!--draw legend bullets-->
      <g id="ID_legend_bullets" stroke="none">
        <g fill="rgb(0,178,195)" id="ID_legend_1">
          <rect height="20" rx="3" ry="3" width="20" x="10" y="10"/>
          <rect fill="url(#WhiteBlackGradient)" height="20" rx="3" ry="3" width="20" x="10" y="10"/>
          <rect fill-opacity="0.3" filter="url(#SaturateMinus)" height="20" rx="3" ry="3" width="20" x="10" y="10"/>
        </g>
        <g fill="rgb(255,195,56)" id="ID_legend_2">
          <rect height="20" rx="3" ry="3" width="20" x="10" y="40"/>
          <rect fill="url(#WhiteBlackGradient)" height="20" rx="3" ry="3" width="20" x="10" y="40"/>
          <rect fill-opacity="0.3" filter="url(#SaturateMinus)" height="20" rx="3" ry="3" width="20" x="10" y="40"/>
        </g>
        <g fill="rgb(87,62,130)" id="ID_legend_3">
          <rect height="20" rx="3" ry="3" width="20" x="10" y="70"/>
          <rect fill="url(#WhiteBlackGradient)" height="20" rx="3" ry="3" width="20" x="10" y="70"/>
          <rect fill-opacity="0.3" filter="url(#SaturateMinus)" height="20" rx="3" ry="3" width="20" x="10" y="70"/>
        </g>
        <g fill="rgb(79,168,57)" id="ID_legend_4">
          <rect height="20" rx="3" ry="3" width="20" x="10" y="100"/>
          <rect fill="url(#WhiteBlackGradient)" height="20" rx="3" ry="3" width="20" x="10" y="100"/>
          <rect fill-opacity="0.3" filter="url(#SaturateMinus)" height="20" rx="3" ry="3" width="20" x="10" y="100"/>
        </g>
        <g fill="rgb(217,87,0)" id="ID_legend_5">
          <rect height="20" rx="3" ry="3" width="20" x="10" y="130"/>
          <rect fill="url(#WhiteBlackGradient)" height="20" rx="3" ry="3" width="20" x="10" y="130"/>
          <rect fill-opacity="0.3" filter="url(#SaturateMinus)" height="20" rx="3" ry="3" width="20" x="10" y="130"/>
        </g>
        <g fill="rgb(29,157,242)" id="ID_legend_6">
          <rect height="20" rx="3" ry="3" width="20" x="10" y="160"/>
          <rect fill="url(#WhiteBlackGradient)" height="20" rx="3" ry="3" width="20" x="10" y="160"/>
          <rect fill-opacity="0.3" filter="url(#SaturateMinus)" height="20" rx="3" ry="3" width="20" x="10" y="160"/>
        </g>
        <g fill="rgb(181,207,50)" id="ID_legend_7">
          <rect height="20" rx="3" ry="3" width="20" x="10" y="190"/>
          <rect fill="url(#WhiteBlackGradient)" height="20" rx="3" ry="3" width="20" x="10" y="190"/>
          <rect fill-opacity="0.3" filter="url(#SaturateMinus)" height="20" rx="3" ry="3" width="20" x="10" y="190"/>
        </g>
        <g fill="rgb(212,58,38)" id="ID_legend_8">
          <rect height="20" rx="3" ry="3" width="20" x="10" y="220"/>
          <rect fill="url(#WhiteBlackGradient)" height="20" rx="3" ry="3" width="20" x="10" y="220"/>
          <rect fill-opacity="0.3" filter="url(#SaturateMinus)" height="20" rx="3" ry="3" width="20" x="10" y="220"/>
        </g>
      </g>
      <!--draw legend labels-->
      <g id="ID_legend_labels" style="fill:black;stroke:none;font-family:Arial;;font-weight:normal;font-style:normal;text-decoration:none;filter:none;text-anchor:start">
        <text x="40" y="27">Sharp</text>
        <text x="40" y="57">Infinity</text>
        <text x="40" y="87">Audio Référence</text>
        <text x="40" y="117">Triangle</text>
        <text x="40" y="147">Yamaha</text>
        <text x="40" y="177">Onkyo</text>
        <text x="40" y="207">Sony</text>
        <text x="40" y="237">Free</text>
      </g>
    </g>
    <g style="clip-path: url(#ID_backgroundClipPath)">
      <g fill="rgb(0,178,195)" filter="None" id="ID_graph_1" opacity="1" stroke="none" stroke-opacity="1" stroke-width="0">
        <polyline fill-opacity="0.7" points="42 230.18 175.34 242.3 242.01 205.94 308.68 266.54 375.35 181.7 392.02 290.79 625.36 157.45 642.03 315.03 708.7 133.21 842.04 230.18"/>
      </g>
      <g fill="rgb(255,195,56)" filter="None" id="ID_graph_2" opacity="1" stroke="none" stroke-opacity="1" stroke-width="0">
        <polyline fill-opacity="0.7" points="42 230.18 175.34 243.51 242.01 203.51 308.68 270.18 375.35 176.85 392.02 296.85 625.36 150.18 642.03 323.51 708.7 123.51 842.04 230.18"/>
      </g>
      <g fill="rgb(87,62,130)" filter="None" id="ID_graph_3" opacity="1" stroke="none" stroke-opacity="1" stroke-width="0">
        <polyline fill-opacity="0.7" points="42 230.18 175.34 244.85 242.01 200.85 308.68 274.18 375.35 171.51 392.02 303.51 625.36 142.18 642.03 332.85 708.7 112.85 842.04 230.18"/>
      </g>
      <g fill="rgb(79,168,57)" filter="None" id="ID_graph_4" opacity="1" stroke="none" stroke-opacity="1" stroke-width="0">
        <polyline fill-opacity="0.7" points="42 230.18 175.34 246.31 242.01 197.91 308.68 278.58 375.35 165.65 392.02 310.85 625.36 133.38 642.03 343.11 708.7 101.11 842.04 230.18"/>
      </g>
      <g fill="rgb(217,87,0)" filter="None" id="ID_graph_5" opacity="1" stroke="none" stroke-opacity="1" stroke-width="0">
        <polyline fill-opacity="0.7" points="42 230.18 175.34 247.93 242.01 194.69 308.68 283.42 375.35 159.19 392.02 318.91 625.36 123.7 642.03 354.41 708.7 88.21 842.04 230.18"/>
      </g>
      <g fill="rgb(29,157,242)" filter="None" id="ID_graph_6" opacity="1" stroke="none" stroke-opacity="1" stroke-width="0">
        <polyline fill-opacity="0.7" points="42 230.18 175.34 249.7 242.01 191.14 308.68 288.74 375.35 152.09 392.02 327.79 625.36 113.05 642.03 366.83 708.7 74.01 842.04 230.18"/>
      </g>
      <g fill="rgb(181,207,50)" filter="None" id="ID_graph_7" opacity="1" stroke="none" stroke-opacity="1" stroke-width="0">
        <polyline fill-opacity="0.7" points="42 230.18 175.34 251.65 242.01 187.23 308.68 294.6 375.35 144.29 392.02 337.55 625.36 101.34 642.03 380.49 708.7 58.39 842.04 230.18"/>
      </g>
      <g fill="rgb(212,58,38)" filter="None" id="ID_graph_8" opacity="1" stroke="none" stroke-opacity="1" stroke-width="0">
        <polyline fill-opacity="0.7" points="42 230.18 175.34 253.8 242.01 182.94 308.68 301.04 375.35 135.7 392.02 348.28 625.36 88.46 642.03 395.53 708.7 41.21 842.04 230.18"/>
      </g>
    </g>
  </g>

</svg>