
<svg xmlns="http://www.w3.org/2000/svg" id="ID_svg" viewBox="0 0 1058 466" viewport-fill="darkblue" viewport-fill-opacity="0.25" xmlns:exsl4D="http://www.4D.com" xmlns:gFunc="http://gFunc" xmlns:math="http://exslt.org/math" xmlns:xlink="http://www.w3.org/1999/xlink">

  <!--gradient styles-->

  <defs>
    <filter id="soft_blur">
      <feGaussianBlur in="SourceGraphic" result="BlurAlpha" stdDeviation="1"/>
    </filter>
    <filter id="pastel">
      <feGaussianBlur in="SourceAlpha" result="blur" stdDeviation="2"/>
      <feOffset dx="6" dy="6" in="blur" result="offsetBlur"/>
      <feComposite in="SourceGraphic" in2="offsetBlur" operator="in" result="specOut"/>
    </filter>
    <filter id="blur_shadow">
      <feGaussianBlur in="SourceAlpha" result="blur" stdDeviation="3"/>
      <feOffset dx="4" dy="2" in="blur" result="offsetBlur"/>
      <feBlend in="SourceGraphic" in2="offsetBlur" mode="normal"/>
    </filter>
    <filter filterUnits="objectBoundingBox" id="Shadow">
      <feGaussianBlur in="SourceAlpha" result="flou" stdDeviation="0"/>
      <feColorMatrix in="SourceAlpha" result="flouBlue" type="matrix" values=" 0 0 0 0 0                      0 0 0 0 0                     0 0 0 0 0                      0 0 0 0.3 0"/>
      <feOffset dx="4" dy="4" in="flouBlue" result="flouDecalage"/>
      <feBlend in="SourceGraphic" in2="flouDecalage" mode="normal"/>
    </filter>
    <filter filterUnits="objectBoundingBox" height="100%" id="SaturateMinus" width="100%" x="0%" y="0%">
      <feColorMatrix in="SourceGraphic" type="saturate" values="0.5"/>
    </filter>
    <filter filterUnits="objectBoundingBox" height="100%" id="SaturatePlus" width="100%" x="0%" y="0%">
      <feColorMatrix in="SourceGraphic" type="saturate" values="1.4"/>
    </filter>
    <linearGradient id="BlackGradient">
      <stop offset="0%" style="stop-color:rgb(0,0,0); stop-opacity:0"/>
      <stop offset="100%" style="stop-color:rgb(0,0,0); stop-opacity:0.1"/>
    </linearGradient>
    <linearGradient id="WhiteGradient" x1="0%" x2="100%" y1="0%" y2="0%">
      <stop offset="0%" style="stop-color:rgb(255,255,255); stop-opacity:0.3"/>
      <stop offset="100%" style="stop-color:rgb(255,255,255);stop-opacity:0"/>
    </linearGradient>
    <linearGradient id="WhiteBlackGradient" x1="0%" x2="100%" y1="0%" y2="0%">
      <stop offset="0%" style="stop-color:rgb(255,255,255); stop-opacity:0.15"/>
      <stop offset="100%" style="stop-color:rgb(0,0,0);stop-opacity:0.15"/>
    </linearGradient>
    <linearGradient id="Black0Black1Gradient" x1="0%" x2="0%" y1="0%" y2="100%">
      <stop offset="0%" style="stop-color:rgb(0,0,0); stop-opacity:0"/>
      <stop offset="100%" style="stop-color:rgb(0,0,0);stop-opacity:0.05"/>
    </linearGradient>
  </defs>

  <!--global stroke and font styles-->

  <g id="ID_globals" style="fill:red;stroke:none;font-family:Arial;font-size:14px;font-weight:normal;font-style:normal;text-decoration:none;shape-rendering:crispEdges">
    <!--draw title-->
    <!--********************************draw graph background********************************-->
    <rect fill="darkgreen" height="400" id="ID_background_shadow" opacity="0.5" rx="10" ry="10" stroke="none" transform="translate(1,1)" visibility="visible" width="800" x="53" y="20"/>
    <g fill="lightgreen" id="ID_background" opacity="0.5" stroke="none" visibility="visible">
      <rect height="400" rx="10" ry="10" stroke="none" width="800" x="53" y="20"/>
      <rect fill="url(#Black0Black1Gradient)" height="400" rx="10" ry="10" stroke="none" width="800" x="53" y="20"/>
    </g>
    <clipPath id="ID_backgroundClipPath">
      <rect height="401" rx="10" ry="10" width="801" x="52" y="19"/>
    </clipPath>
    <!--********************************draw Y Labels********************************-->
    <g id="ID_y$value" style="fill:red;stroke:none;font-family:Arial;font-size:14px;font-weight:normal;font-style:normal;text-decoration:none;filter:none" visibility="visible">
      <text text-anchor="end" x="41" y="27">54</text>
      <text text-anchor="end" x="41" y="63.36">45</text>
      <text text-anchor="end" x="41" y="99.72">36</text>
      <text text-anchor="end" x="41" y="136.08">27</text>
      <text text-anchor="end" x="41" y="172.44">18</text>
      <text text-anchor="end" x="41" y="208.8">9</text>
      <text text-anchor="end" x="41" y="245.16">0</text>
      <text text-anchor="end" x="41" y="281.52">-9</text>
      <text text-anchor="end" x="41" y="317.88">-18</text>
      <text text-anchor="end" x="41" y="354.24">-27</text>
      <text text-anchor="end" x="41" y="390.6">-36</text>
      <text text-anchor="end" x="41" y="426.96">-45</text>
    </g>
    <!--********************************draw X Labels********************************-->
    <!--draw axis x labels-->
    <g id="ID_x$value" style="fill:red;stroke:none;font-family:Arial;font-size:14px;font-weight:normal;font-style:normal;text-decoration:none;filter:none" visibility="visible">
      <text text-anchor="middle" x="103" y="446">08:00:00</text>
      <text text-anchor="middle" x="203" y="446">09:00:00</text>
      <text text-anchor="middle" x="303" y="446">10:00:00</text>
      <text text-anchor="middle" x="403" y="446">11:00:00</text>
      <text text-anchor="middle" x="503" y="446">11:15:00</text>
      <text text-anchor="middle" x="603" y="446">14:45:00</text>
      <text text-anchor="middle" x="703" y="446">15:00:00</text>
      <text text-anchor="middle" x="803" y="446">16:00:00</text>
    </g>
    <g style="clip-path: url(#ID_backgroundClipPath)">
      <!--******************************** draw Y grid lines******************************** (Horizontal lines)-->
      <g id="ID_y_grid" stroke="#a8a8a8" stroke-width="1">
        <line x1="53" x2="853" y1="56.36" y2="56.36"/>
        <line x1="53" x2="853" y1="92.72" y2="92.72"/>
        <line x1="53" x2="853" y1="129.08" y2="129.08"/>
        <line x1="53" x2="853" y1="165.44" y2="165.44"/>
        <line x1="53" x2="853" y1="201.8" y2="201.8"/>
        <line x1="53" x2="853" y1="238.16" y2="238.16"/>
        <line x1="53" x2="853" y1="274.52" y2="274.52"/>
        <line x1="53" x2="853" y1="310.88" y2="310.88"/>
        <line x1="53" x2="853" y1="347.24" y2="347.24"/>
        <line x1="53" x2="853" y1="383.6" y2="383.6"/>
      </g>
      <!--draw Y grid lines SHADOWS-->
      <g id="ID_y_grid_shadow" stroke="#ffffff" stroke-width="1">
        <line transform="translate(0,1)" x1="53" x2="853" y1="56.36" y2="56.36"/>
        <line transform="translate(0,1)" x1="53" x2="853" y1="92.72" y2="92.72"/>
        <line transform="translate(0,1)" x1="53" x2="853" y1="129.08" y2="129.08"/>
        <line transform="translate(0,1)" x1="53" x2="853" y1="165.44" y2="165.44"/>
        <line transform="translate(0,1)" x1="53" x2="853" y1="201.8" y2="201.8"/>
        <line transform="translate(0,1)" x1="53" x2="853" y1="238.16" y2="238.16"/>
        <line transform="translate(0,1)" x1="53" x2="853" y1="274.52" y2="274.52"/>
        <line transform="translate(0,1)" x1="53" x2="853" y1="310.88" y2="310.88"/>
        <line transform="translate(0,1)" x1="53" x2="853" y1="347.24" y2="347.24"/>
        <line transform="translate(0,1)" x1="53" x2="853" y1="383.6" y2="383.6"/>
      </g>
      <g id="ID_y0_axis" stroke="rgb(100,100,100)" stroke-width="1" visibility="visible">
        <line x1="53" x2="853" y1="238.18" y2="238.18"/>
      </g>
      <!--********************************draw X grid lines******************************** (Vertical lines)-->
      <g id="ID_x_grid" stroke="#a8a8a8" stroke-width="1">
        <line x1="153" x2="153" y1="20" y2="420"/>
        <line x1="253" x2="253" y1="20" y2="420"/>
        <line x1="353" x2="353" y1="20" y2="420"/>
        <line x1="453" x2="453" y1="20" y2="420"/>
        <line x1="553" x2="553" y1="20" y2="420"/>
        <line x1="653" x2="653" y1="20" y2="420"/>
        <line x1="753" x2="753" y1="20" y2="420"/>
        <line x1="853" x2="853" y1="20" y2="420"/>
      </g>
      <!--draw X grid lines SHADOWS -->
      <g id="ID_x_grid_shadow" stroke="#ffffff" stroke-width="1">
        <line transform="translate(1,0)" x1="153" x2="153" y1="20" y2="420"/>
        <line transform="translate(1,0)" x1="253" x2="253" y1="20" y2="420"/>
        <line transform="translate(1,0)" x1="353" x2="353" y1="20" y2="420"/>
        <line transform="translate(1,0)" x1="453" x2="453" y1="20" y2="420"/>
        <line transform="translate(1,0)" x1="553" x2="553" y1="20" y2="420"/>
        <line transform="translate(1,0)" x1="653" x2="653" y1="20" y2="420"/>
        <line transform="translate(1,0)" x1="753" x2="753" y1="20" y2="420"/>
        <line transform="translate(1,0)" x1="853" x2="853" y1="20" y2="420"/>
      </g>
    </g>
    <!--******************************** draw legend ***********************************-->
    <g filter="none" id="ID_legend" transform="translate(865,20)" visibility="visible">
      <!--draw legend border-->
      <rect fill="darkgreen" fill-opacity="0.5" height="108" id="ID_legend_border_shadow" rx="10" ry="10" stroke="none" transform="translate(1,1)" width="173" x="0" y="0"/>
      <rect fill="lightgreen" fill-opacity="0.5" height="108" id="ID_legend_border" rx="10" ry="10" stroke="none" stroke-width="0" width="173" x="0" y="0"/>
      <!--draw legend bullets-->
      <g id="ID_legend_bullets" stroke="none">
        <g fill="purple" id="ID_legend_1">
          <rect height="12" rx="3" ry="3" width="24" x="10" y="8"/>
          <rect fill="url(#WhiteBlackGradient)" height="12" rx="3" ry="3" width="24" x="10" y="8"/>
          <rect fill-opacity="0.3" filter="url(#SaturateMinus)" height="12" rx="3" ry="3" width="24" x="10" y="8"/>
        </g>
        <g fill="darkblue" id="ID_legend_2">
          <rect height="12" rx="3" ry="3" width="24" x="10" y="28"/>
          <rect fill="url(#WhiteBlackGradient)" height="12" rx="3" ry="3" width="24" x="10" y="28"/>
          <rect fill-opacity="0.3" filter="url(#SaturateMinus)" height="12" rx="3" ry="3" width="24" x="10" y="28"/>
        </g>
        <g fill="blue" id="ID_legend_3">
          <rect height="12" rx="3" ry="3" width="24" x="10" y="48"/>
          <rect fill="url(#WhiteBlackGradient)" height="12" rx="3" ry="3" width="24" x="10" y="48"/>
          <rect fill-opacity="0.3" filter="url(#SaturateMinus)" height="12" rx="3" ry="3" width="24" x="10" y="48"/>
        </g>
        <g fill="green" id="ID_legend_4">
          <rect height="12" rx="3" ry="3" width="24" x="10" y="68"/>
          <rect fill="url(#WhiteBlackGradient)" height="12" rx="3" ry="3" width="24" x="10" y="68"/>
          <rect fill-opacity="0.3" filter="url(#SaturateMinus)" height="12" rx="3" ry="3" width="24" x="10" y="68"/>
        </g>
        <g fill="yellow" id="ID_legend_5">
          <rect height="12" rx="3" ry="3" width="24" x="10" y="88"/>
          <rect fill="url(#WhiteBlackGradient)" height="12" rx="3" ry="3" width="24" x="10" y="88"/>
          <rect fill-opacity="0.3" filter="url(#SaturateMinus)" height="12" rx="3" ry="3" width="24" x="10" y="88"/>
        </g>
      </g>
      <!--draw legend labels-->
      <g id="ID_legend_labels" style="fill:black;stroke:none;font-family:Arial;;font-weight:normal;font-style:normal;text-decoration:none;filter:none;text-anchor:start">
        <text x="44" y="17">Sharp</text>
        <text x="44" y="37">Infinity</text>
        <text x="44" y="57">Audio Référence</text>
        <text x="44" y="77">Triangle</text>
        <text x="44" y="97">Yamaha</text>
      </g>
    </g>
    <g style="clip-path: url(#ID_backgroundClipPath)">
      <g fill="black" fill-opacity="0.2" id="ID_graph_shadow_1">
        <path d="M 0 0 l 0 4.04 s 0 0 0 0 l 80 0 s 0 0 0 -0 l 0 -4.04 z" transform="translate(66,238.18)"/>
        <path d="M 0 0 l 0 -8.08 s 0 -0 0 -0 l 80 0 s 0 0 0 0 l 0 8.08 z" transform="translate(166,238.18)"/>
        <path d="M 0 0 l 0 12.12 s 0 0 0 0 l 80 0 s 0 0 0 -0 l 0 -12.12 z" transform="translate(266,238.18)"/>
        <path d="M 0 0 l 0 -16.16 s 0 -0 0 -0 l 80 0 s 0 0 0 0 l 0 16.16 z" transform="translate(366,238.18)"/>
        <path d="M 0 0 l 0 20.2 s 0 0 0 0 l 80 0 s 0 0 0 -0 l 0 -20.2 z" transform="translate(466,238.18)"/>
        <path d="M 0 0 l 0 -24.24 s 0 -0 0 -0 l 80 0 s 0 0 0 0 l 0 24.24 z" transform="translate(566,238.18)"/>
        <path d="M 0 0 l 0 28.28 s 0 0 0 0 l 80 0 s 0 0 0 -0 l 0 -28.28 z" transform="translate(666,238.18)"/>
        <path d="M 0 0 l 0 -32.32 s 0 -0 0 -0 l 80 0 s 0 0 0 0 l 0 32.32 z" transform="translate(766,238.18)"/>
      </g>
      <g fill="black" fill-opacity="0.2" id="ID_graph_shadow_2">
        <path d="M 0 0 l 0 4.44 s 0 0 0 0 l 80 0 s 0 0 0 -0 l 0 -4.44 z" transform="translate(66,242.22)"/>
        <path d="M 0 0 l 0 -8.89 s 0 -0 0 -0 l 80 0 s 0 0 0 0 l 0 8.89 z" transform="translate(166,230.1)"/>
        <path d="M 0 0 l 0 13.33 s 0 0 0 0 l 80 0 s 0 0 0 -0 l 0 -13.33 z" transform="translate(266,250.3)"/>
        <path d="M 0 0 l 0 -17.78 s 0 -0 0 -0 l 80 0 s 0 0 0 0 l 0 17.78 z" transform="translate(366,222.02)"/>
        <path d="M 0 0 l 0 22.22 s 0 0 0 0 l 80 0 s 0 0 0 -0 l 0 -22.22 z" transform="translate(466,258.38)"/>
        <path d="M 0 0 l 0 -26.67 s 0 -0 0 -0 l 80 0 s 0 0 0 0 l 0 26.67 z" transform="translate(566,213.94)"/>
        <path d="M 0 0 l 0 31.11 s 0 0 0 0 l 80 0 s 0 0 0 -0 l 0 -31.11 z" transform="translate(666,266.46)"/>
        <path d="M 0 0 l 0 -35.56 s 0 -0 0 -0 l 80 0 s 0 0 0 0 l 0 35.56 z" transform="translate(766,205.86)"/>
      </g>
      <g fill="black" fill-opacity="0.2" id="ID_graph_shadow_3">
        <path d="M 0 0 l 0 4.89 s 0 0 0 0 l 80 0 s 0 0 0 -0 l 0 -4.89 z" transform="translate(66,246.66)"/>
        <path d="M 0 0 l 0 -9.78 s 0 -0 0 -0 l 80 0 s 0 0 0 0 l 0 9.78 z" transform="translate(166,221.21)"/>
        <path d="M 0 0 l 0 14.67 s 0 0 0 0 l 80 0 s 0 0 0 -0 l 0 -14.67 z" transform="translate(266,263.63)"/>
        <path d="M 0 0 l 0 -19.56 s 0 -0 0 -0 l 80 0 s 0 0 0 0 l 0 19.56 z" transform="translate(366,204.24)"/>
        <path d="M 0 0 l 0 24.44 s 0 0 0 0 l 80 0 s 0 0 0 -0 l 0 -24.44 z" transform="translate(466,280.6)"/>
        <path d="M 0 0 l 0 -29.33 s 0 -0 0 -0 l 80 0 s 0 0 0 0 l 0 29.33 z" transform="translate(566,187.27)"/>
        <path d="M 0 0 l 0 34.22 s 0 0 0 0 l 80 0 s 0 0 0 -0 l 0 -34.22 z" transform="translate(666,297.57)"/>
        <path d="M 0 0 l 0 -39.11 s 0 -0 0 -0 l 80 0 s 0 0 0 0 l 0 39.11 z" transform="translate(766,170.3)"/>
      </g>
      <g fill="black" fill-opacity="0.2" id="ID_graph_shadow_4">
        <path d="M 0 0 l 0 5.38 s 0 0 0 0 l 80 0 s 0 0 0 -0 l 0 -5.38 z" transform="translate(66,251.55)"/>
        <path d="M 0 0 l 0 -10.76 s 0 -0 0 -0 l 80 0 s 0 0 0 0 l 0 10.76 z" transform="translate(166,211.43)"/>
        <path d="M 0 0 l 0 16.13 s 0 0 0 0 l 80 0 s 0 0 0 -0 l 0 -16.13 z" transform="translate(266,278.3)"/>
        <path d="M 0 0 l 0 -21.51 s 0 -0 0 -0 l 80 0 s 0 0 0 0 l 0 21.51 z" transform="translate(366,184.68)"/>
        <path d="M 0 0 l 0 26.89 s 0 0 0 0 l 80 0 s 0 0 0 -0 l 0 -26.89 z" transform="translate(466,305.04)"/>
        <path d="M 0 0 l 0 -32.27 s 0 -0 0 -0 l 80 0 s 0 0 0 0 l 0 32.27 z" transform="translate(566,157.94)"/>
        <path d="M 0 0 l 0 37.64 s 0 0 0 0 l 80 0 s 0 0 0 -0 l 0 -37.64 z" transform="translate(666,331.79)"/>
        <path d="M 0 0 l 0 -43.02 s 0 -0 0 -0 l 80 0 s 0 0 0 0 l 0 43.02 z" transform="translate(766,131.19)"/>
      </g>
      <g fill="black" fill-opacity="0.2" id="ID_graph_shadow_5">
        <path d="M 0 0 l 0 5.92 s 0 0 0 0 l 80 0 s 0 0 0 -0 l 0 -5.92 z" transform="translate(66,256.93)"/>
        <path d="M 0 0 l 0 -11.83 s 0 -0 0 -0 l 80 0 s 0 0 0 0 l 0 11.83 z" transform="translate(166,200.67)"/>
        <path d="M 0 0 l 0 17.75 s 0 0 0 0 l 80 0 s 0 0 0 -0 l 0 -17.75 z" transform="translate(266,294.43)"/>
        <path d="M 0 0 l 0 -23.66 s 0 -0 0 -0 l 80 0 s 0 0 0 0 l 0 23.66 z" transform="translate(366,163.17)"/>
        <path d="M 0 0 l 0 29.58 s 0 0 0 0 l 80 0 s 0 0 0 -0 l 0 -29.58 z" transform="translate(466,331.93)"/>
        <path d="M 0 0 l 0 -35.49 s 0 -0 0 -0 l 80 0 s 0 0 0 0 l 0 35.49 z" transform="translate(566,125.67)"/>
        <path d="M 0 0 l 0 41.41 s 0 0 0 0 l 80 0 s 0 0 0 -0 l 0 -41.41 z" transform="translate(666,369.43)"/>
        <path d="M 0 0 l 0 -47.32 s 0 -0 0 -0 l 80 0 s 0 0 0 0 l 0 47.32 z" transform="translate(766,88.17)"/>
      </g>
      <g fill="purple" fill-opacity="1" filter="none" id="ID_graph_shadow_1" opacity="1" stroke="none" stroke-opacity="1" stroke-width="0">
        <path d="M 0 0 l 0 4.04 s 0 0 0 0 l 80 0 s 0 0 0 -0 l 0 -4.04 z" transform="translate(63,238.18)"/>
        <path d="M 0 0 l 0 4.04 s 0 0 0 0 l 80 0 s 0 0 0 -0 l 0 -4.04 z" fill="url(#WhiteBlackGradient)" transform="translate(63,238.18)"/>
        <path d="M 0 0 l 0 4.04 s 0 0 0 0 l 80 0 s 0 0 0 -0 l 0 -4.04 z" fill-opacity="0.3" filter="url(#SaturateMinus)" transform="translate(63,238.18)"/>
        <path d="M 0 0 l 0 -8.08 s 0 -0 0 -0 l 80 0 s 0 0 0 0 l 0 8.08 z" transform="translate(163,238.18)"/>
        <path d="M 0 0 l 0 -8.08 s 0 -0 0 -0 l 80 0 s 0 0 0 0 l 0 8.08 z" fill="url(#WhiteBlackGradient)" transform="translate(163,238.18)"/>
        <path d="M 0 0 l 0 -8.08 s 0 -0 0 -0 l 80 0 s 0 0 0 0 l 0 8.08 z" fill-opacity="0.3" filter="url(#SaturateMinus)" transform="translate(163,238.18)"/>
        <path d="M 0 0 l 0 12.12 s 0 0 0 0 l 80 0 s 0 0 0 -0 l 0 -12.12 z" transform="translate(263,238.18)"/>
        <path d="M 0 0 l 0 12.12 s 0 0 0 0 l 80 0 s 0 0 0 -0 l 0 -12.12 z" fill="url(#WhiteBlackGradient)" transform="translate(263,238.18)"/>
        <path d="M 0 0 l 0 12.12 s 0 0 0 0 l 80 0 s 0 0 0 -0 l 0 -12.12 z" fill-opacity="0.3" filter="url(#SaturateMinus)" transform="translate(263,238.18)"/>
        <path d="M 0 0 l 0 -16.16 s 0 -0 0 -0 l 80 0 s 0 0 0 0 l 0 16.16 z" transform="translate(363,238.18)"/>
        <path d="M 0 0 l 0 -16.16 s 0 -0 0 -0 l 80 0 s 0 0 0 0 l 0 16.16 z" fill="url(#WhiteBlackGradient)" transform="translate(363,238.18)"/>
        <path d="M 0 0 l 0 -16.16 s 0 -0 0 -0 l 80 0 s 0 0 0 0 l 0 16.16 z" fill-opacity="0.3" filter="url(#SaturateMinus)" transform="translate(363,238.18)"/>
        <path d="M 0 0 l 0 20.2 s 0 0 0 0 l 80 0 s 0 0 0 -0 l 0 -20.2 z" transform="translate(463,238.18)"/>
        <path d="M 0 0 l 0 20.2 s 0 0 0 0 l 80 0 s 0 0 0 -0 l 0 -20.2 z" fill="url(#WhiteBlackGradient)" transform="translate(463,238.18)"/>
        <path d="M 0 0 l 0 20.2 s 0 0 0 0 l 80 0 s 0 0 0 -0 l 0 -20.2 z" fill-opacity="0.3" filter="url(#SaturateMinus)" transform="translate(463,238.18)"/>
        <path d="M 0 0 l 0 -24.24 s 0 -0 0 -0 l 80 0 s 0 0 0 0 l 0 24.24 z" transform="translate(563,238.18)"/>
        <path d="M 0 0 l 0 -24.24 s 0 -0 0 -0 l 80 0 s 0 0 0 0 l 0 24.24 z" fill="url(#WhiteBlackGradient)" transform="translate(563,238.18)"/>
        <path d="M 0 0 l 0 -24.24 s 0 -0 0 -0 l 80 0 s 0 0 0 0 l 0 24.24 z" fill-opacity="0.3" filter="url(#SaturateMinus)" transform="translate(563,238.18)"/>
        <path d="M 0 0 l 0 28.28 s 0 0 0 0 l 80 0 s 0 0 0 -0 l 0 -28.28 z" transform="translate(663,238.18)"/>
        <path d="M 0 0 l 0 28.28 s 0 0 0 0 l 80 0 s 0 0 0 -0 l 0 -28.28 z" fill="url(#WhiteBlackGradient)" transform="translate(663,238.18)"/>
        <path d="M 0 0 l 0 28.28 s 0 0 0 0 l 80 0 s 0 0 0 -0 l 0 -28.28 z" fill-opacity="0.3" filter="url(#SaturateMinus)" transform="translate(663,238.18)"/>
        <path d="M 0 0 l 0 -32.32 s 0 -0 0 -0 l 80 0 s 0 0 0 0 l 0 32.32 z" transform="translate(763,238.18)"/>
        <path d="M 0 0 l 0 -32.32 s 0 -0 0 -0 l 80 0 s 0 0 0 0 l 0 32.32 z" fill="url(#WhiteBlackGradient)" transform="translate(763,238.18)"/>
        <path d="M 0 0 l 0 -32.32 s 0 -0 0 -0 l 80 0 s 0 0 0 0 l 0 32.32 z" fill-opacity="0.3" filter="url(#SaturateMinus)" transform="translate(763,238.18)"/>
      </g>
      <g fill="darkblue" fill-opacity="1" filter="none" id="ID_graph_shadow_2" opacity="1" stroke="none" stroke-opacity="1" stroke-width="0">
        <path d="M 0 0 l 0 4.44 s 0 0 0 0 l 80 0 s 0 0 0 -0 l 0 -4.44 z" transform="translate(63,242.22)"/>
        <path d="M 0 0 l 0 4.44 s 0 0 0 0 l 80 0 s 0 0 0 -0 l 0 -4.44 z" fill="url(#WhiteBlackGradient)" transform="translate(63,242.22)"/>
        <path d="M 0 0 l 0 4.44 s 0 0 0 0 l 80 0 s 0 0 0 -0 l 0 -4.44 z" fill-opacity="0.3" filter="url(#SaturateMinus)" transform="translate(63,242.22)"/>
        <path d="M 0 0 l 0 -8.89 s 0 -0 0 -0 l 80 0 s 0 0 0 0 l 0 8.89 z" transform="translate(163,230.1)"/>
        <path d="M 0 0 l 0 -8.89 s 0 -0 0 -0 l 80 0 s 0 0 0 0 l 0 8.89 z" fill="url(#WhiteBlackGradient)" transform="translate(163,230.1)"/>
        <path d="M 0 0 l 0 -8.89 s 0 -0 0 -0 l 80 0 s 0 0 0 0 l 0 8.89 z" fill-opacity="0.3" filter="url(#SaturateMinus)" transform="translate(163,230.1)"/>
        <path d="M 0 0 l 0 13.33 s 0 0 0 0 l 80 0 s 0 0 0 -0 l 0 -13.33 z" transform="translate(263,250.3)"/>
        <path d="M 0 0 l 0 13.33 s 0 0 0 0 l 80 0 s 0 0 0 -0 l 0 -13.33 z" fill="url(#WhiteBlackGradient)" transform="translate(263,250.3)"/>
        <path d="M 0 0 l 0 13.33 s 0 0 0 0 l 80 0 s 0 0 0 -0 l 0 -13.33 z" fill-opacity="0.3" filter="url(#SaturateMinus)" transform="translate(263,250.3)"/>
        <path d="M 0 0 l 0 -17.78 s 0 -0 0 -0 l 80 0 s 0 0 0 0 l 0 17.78 z" transform="translate(363,222.02)"/>
        <path d="M 0 0 l 0 -17.78 s 0 -0 0 -0 l 80 0 s 0 0 0 0 l 0 17.78 z" fill="url(#WhiteBlackGradient)" transform="translate(363,222.02)"/>
        <path d="M 0 0 l 0 -17.78 s 0 -0 0 -0 l 80 0 s 0 0 0 0 l 0 17.78 z" fill-opacity="0.3" filter="url(#SaturateMinus)" transform="translate(363,222.02)"/>
        <path d="M 0 0 l 0 22.22 s 0 0 0 0 l 80 0 s 0 0 0 -0 l 0 -22.22 z" transform="translate(463,258.38)"/>
        <path d="M 0 0 l 0 22.22 s 0 0 0 0 l 80 0 s 0 0 0 -0 l 0 -22.22 z" fill="url(#WhiteBlackGradient)" transform="translate(463,258.38)"/>
        <path d="M 0 0 l 0 22.22 s 0 0 0 0 l 80 0 s 0 0 0 -0 l 0 -22.22 z" fill-opacity="0.3" filter="url(#SaturateMinus)" transform="translate(463,258.38)"/>
        <path d="M 0 0 l 0 -26.67 s 0 -0 0 -0 l 80 0 s 0 0 0 0 l 0 26.67 z" transform="translate(563,213.94)"/>
        <path d="M 0 0 l 0 -26.67 s 0 -0 0 -0 l 80 0 s 0 0 0 0 l 0 26.67 z" fill="url(#WhiteBlackGradient)" transform="translate(563,213.94)"/>
        <path d="M 0 0 l 0 -26.67 s 0 -0 0 -0 l 80 0 s 0 0 0 0 l 0 26.67 z" fill-opacity="0.3" filter="url(#SaturateMinus)" transform="translate(563,213.94)"/>
        <path d="M 0 0 l 0 31.11 s 0 0 0 0 l 80 0 s 0 0 0 -0 l 0 -31.11 z" transform="translate(663,266.46)"/>
        <path d="M 0 0 l 0 31.11 s 0 0 0 0 l 80 0 s 0 0 0 -0 l 0 -31.11 z" fill="url(#WhiteBlackGradient)" transform="translate(663,266.46)"/>
        <path d="M 0 0 l 0 31.11 s 0 0 0 0 l 80 0 s 0 0 0 -0 l 0 -31.11 z" fill-opacity="0.3" filter="url(#SaturateMinus)" transform="translate(663,266.46)"/>
        <path d="M 0 0 l 0 -35.56 s 0 -0 0 -0 l 80 0 s 0 0 0 0 l 0 35.56 z" transform="translate(763,205.86)"/>
        <path d="M 0 0 l 0 -35.56 s 0 -0 0 -0 l 80 0 s 0 0 0 0 l 0 35.56 z" fill="url(#WhiteBlackGradient)" transform="translate(763,205.86)"/>
        <path d="M 0 0 l 0 -35.56 s 0 -0 0 -0 l 80 0 s 0 0 0 0 l 0 35.56 z" fill-opacity="0.3" filter="url(#SaturateMinus)" transform="translate(763,205.86)"/>
      </g>
      <g fill="blue" fill-opacity="1" filter="none" id="ID_graph_shadow_3" opacity="1" stroke="none" stroke-opacity="1" stroke-width="0">
        <path d="M 0 0 l 0 4.89 s 0 0 0 0 l 80 0 s 0 0 0 -0 l 0 -4.89 z" transform="translate(63,246.66)"/>
        <path d="M 0 0 l 0 4.89 s 0 0 0 0 l 80 0 s 0 0 0 -0 l 0 -4.89 z" fill="url(#WhiteBlackGradient)" transform="translate(63,246.66)"/>
        <path d="M 0 0 l 0 4.89 s 0 0 0 0 l 80 0 s 0 0 0 -0 l 0 -4.89 z" fill-opacity="0.3" filter="url(#SaturateMinus)" transform="translate(63,246.66)"/>
        <path d="M 0 0 l 0 -9.78 s 0 -0 0 -0 l 80 0 s 0 0 0 0 l 0 9.78 z" transform="translate(163,221.21)"/>
        <path d="M 0 0 l 0 -9.78 s 0 -0 0 -0 l 80 0 s 0 0 0 0 l 0 9.78 z" fill="url(#WhiteBlackGradient)" transform="translate(163,221.21)"/>
        <path d="M 0 0 l 0 -9.78 s 0 -0 0 -0 l 80 0 s 0 0 0 0 l 0 9.78 z" fill-opacity="0.3" filter="url(#SaturateMinus)" transform="translate(163,221.21)"/>
        <path d="M 0 0 l 0 14.67 s 0 0 0 0 l 80 0 s 0 0 0 -0 l 0 -14.67 z" transform="translate(263,263.63)"/>
        <path d="M 0 0 l 0 14.67 s 0 0 0 0 l 80 0 s 0 0 0 -0 l 0 -14.67 z" fill="url(#WhiteBlackGradient)" transform="translate(263,263.63)"/>
        <path d="M 0 0 l 0 14.67 s 0 0 0 0 l 80 0 s 0 0 0 -0 l 0 -14.67 z" fill-opacity="0.3" filter="url(#SaturateMinus)" transform="translate(263,263.63)"/>
        <path d="M 0 0 l 0 -19.56 s 0 -0 0 -0 l 80 0 s 0 0 0 0 l 0 19.56 z" transform="translate(363,204.24)"/>
        <path d="M 0 0 l 0 -19.56 s 0 -0 0 -0 l 80 0 s 0 0 0 0 l 0 19.56 z" fill="url(#WhiteBlackGradient)" transform="translate(363,204.24)"/>
        <path d="M 0 0 l 0 -19.56 s 0 -0 0 -0 l 80 0 s 0 0 0 0 l 0 19.56 z" fill-opacity="0.3" filter="url(#SaturateMinus)" transform="translate(363,204.24)"/>
        <path d="M 0 0 l 0 24.44 s 0 0 0 0 l 80 0 s 0 0 0 -0 l 0 -24.44 z" transform="translate(463,280.6)"/>
        <path d="M 0 0 l 0 24.44 s 0 0 0 0 l 80 0 s 0 0 0 -0 l 0 -24.44 z" fill="url(#WhiteBlackGradient)" transform="translate(463,280.6)"/>
        <path d="M 0 0 l 0 24.44 s 0 0 0 0 l 80 0 s 0 0 0 -0 l 0 -24.44 z" fill-opacity="0.3" filter="url(#SaturateMinus)" transform="translate(463,280.6)"/>
        <path d="M 0 0 l 0 -29.33 s 0 -0 0 -0 l 80 0 s 0 0 0 0 l 0 29.33 z" transform="translate(563,187.27)"/>
        <path d="M 0 0 l 0 -29.33 s 0 -0 0 -0 l 80 0 s 0 0 0 0 l 0 29.33 z" fill="url(#WhiteBlackGradient)" transform="translate(563,187.27)"/>
        <path d="M 0 0 l 0 -29.33 s 0 -0 0 -0 l 80 0 s 0 0 0 0 l 0 29.33 z" fill-opacity="0.3" filter="url(#SaturateMinus)" transform="translate(563,187.27)"/>
        <path d="M 0 0 l 0 34.22 s 0 0 0 0 l 80 0 s 0 0 0 -0 l 0 -34.22 z" transform="translate(663,297.57)"/>
        <path d="M 0 0 l 0 34.22 s 0 0 0 0 l 80 0 s 0 0 0 -0 l 0 -34.22 z" fill="url(#WhiteBlackGradient)" transform="translate(663,297.57)"/>
        <path d="M 0 0 l 0 34.22 s 0 0 0 0 l 80 0 s 0 0 0 -0 l 0 -34.22 z" fill-opacity="0.3" filter="url(#SaturateMinus)" transform="translate(663,297.57)"/>
        <path d="M 0 0 l 0 -39.11 s 0 -0 0 -0 l 80 0 s 0 0 0 0 l 0 39.11 z" transform="translate(763,170.3)"/>
        <path d="M 0 0 l 0 -39.11 s 0 -0 0 -0 l 80 0 s 0 0 0 0 l 0 39.11 z" fill="url(#WhiteBlackGradient)" transform="translate(763,170.3)"/>
        <path d="M 0 0 l 0 -39.11 s 0 -0 0 -0 l 80 0 s 0 0 0 0 l 0 39.11 z" fill-opacity="0.3" filter="url(#SaturateMinus)" transform="translate(763,170.3)"/>
      </g>
      <g fill="green" fill-opacity="1" filter="none" id="ID_graph_shadow_4" opacity="1" stroke="none" stroke-opacity="1" stroke-width="0">
        <path d="M 0 0 l 0 5.38 s 0 0 0 0 l 80 0 s 0 0 0 -0 l 0 -5.38 z" transform="translate(63,251.55)"/>
        <path d="M 0 0 l 0 5.38 s 0 0 0 0 l 80 0 s 0 0 0 -0 l 0 -5.38 z" fill="url(#WhiteBlackGradient)" transform="translate(63,251.55)"/>
        <path d="M 0 0 l 0 5.38 s 0 0 0 0 l 80 0 s 0 0 0 -0 l 0 -5.38 z" fill-opacity="0.3" filter="url(#SaturateMinus)" transform="translate(63,251.55)"/>
        <path d="M 0 0 l 0 -10.76 s 0 -0 0 -0 l 80 0 s 0 0 0 0 l 0 10.76 z" transform="translate(163,211.43)"/>
        <path d="M 0 0 l 0 -10.76 s 0 -0 0 -0 l 80 0 s 0 0 0 0 l 0 10.76 z" fill="url(#WhiteBlackGradient)" transform="translate(163,211.43)"/>
        <path d="M 0 0 l 0 -10.76 s 0 -0 0 -0 l 80 0 s 0 0 0 0 l 0 10.76 z" fill-opacity="0.3" filter="url(#SaturateMinus)" transform="translate(163,211.43)"/>
        <path d="M 0 0 l 0 16.13 s 0 0 0 0 l 80 0 s 0 0 0 -0 l 0 -16.13 z" transform="translate(263,278.3)"/>
        <path d="M 0 0 l 0 16.13 s 0 0 0 0 l 80 0 s 0 0 0 -0 l 0 -16.13 z" fill="url(#WhiteBlackGradient)" transform="translate(263,278.3)"/>
        <path d="M 0 0 l 0 16.13 s 0 0 0 0 l 80 0 s 0 0 0 -0 l 0 -16.13 z" fill-opacity="0.3" filter="url(#SaturateMinus)" transform="translate(263,278.3)"/>
        <path d="M 0 0 l 0 -21.51 s 0 -0 0 -0 l 80 0 s 0 0 0 0 l 0 21.51 z" transform="translate(363,184.68)"/>
        <path d="M 0 0 l 0 -21.51 s 0 -0 0 -0 l 80 0 s 0 0 0 0 l 0 21.51 z" fill="url(#WhiteBlackGradient)" transform="translate(363,184.68)"/>
        <path d="M 0 0 l 0 -21.51 s 0 -0 0 -0 l 80 0 s 0 0 0 0 l 0 21.51 z" fill-opacity="0.3" filter="url(#SaturateMinus)" transform="translate(363,184.68)"/>
        <path d="M 0 0 l 0 26.89 s 0 0 0 0 l 80 0 s 0 0 0 -0 l 0 -26.89 z" transform="translate(463,305.04)"/>
        <path d="M 0 0 l 0 26.89 s 0 0 0 0 l 80 0 s 0 0 0 -0 l 0 -26.89 z" fill="url(#WhiteBlackGradient)" transform="translate(463,305.04)"/>
        <path d="M 0 0 l 0 26.89 s 0 0 0 0 l 80 0 s 0 0 0 -0 l 0 -26.89 z" fill-opacity="0.3" filter="url(#SaturateMinus)" transform="translate(463,305.04)"/>
        <path d="M 0 0 l 0 -32.27 s 0 -0 0 -0 l 80 0 s 0 0 0 0 l 0 32.27 z" transform="translate(563,157.94)"/>
        <path d="M 0 0 l 0 -32.27 s 0 -0 0 -0 l 80 0 s 0 0 0 0 l 0 32.27 z" fill="url(#WhiteBlackGradient)" transform="translate(563,157.94)"/>
        <path d="M 0 0 l 0 -32.27 s 0 -0 0 -0 l 80 0 s 0 0 0 0 l 0 32.27 z" fill-opacity="0.3" filter="url(#SaturateMinus)" transform="translate(563,157.94)"/>
        <path d="M 0 0 l 0 37.64 s 0 0 0 0 l 80 0 s 0 0 0 -0 l 0 -37.64 z" transform="translate(663,331.79)"/>
        <path d="M 0 0 l 0 37.64 s 0 0 0 0 l 80 0 s 0 0 0 -0 l 0 -37.64 z" fill="url(#WhiteBlackGradient)" transform="translate(663,331.79)"/>
        <path d="M 0 0 l 0 37.64 s 0 0 0 0 l 80 0 s 0 0 0 -0 l 0 -37.64 z" fill-opacity="0.3" filter="url(#SaturateMinus)" transform="translate(663,331.79)"/>
        <path d="M 0 0 l 0 -43.02 s 0 -0 0 -0 l 80 0 s 0 0 0 0 l 0 43.02 z" transform="translate(763,131.19)"/>
        <path d="M 0 0 l 0 -43.02 s 0 -0 0 -0 l 80 0 s 0 0 0 0 l 0 43.02 z" fill="url(#WhiteBlackGradient)" transform="translate(763,131.19)"/>
        <path d="M 0 0 l 0 -43.02 s 0 -0 0 -0 l 80 0 s 0 0 0 0 l 0 43.02 z" fill-opacity="0.3" filter="url(#SaturateMinus)" transform="translate(763,131.19)"/>
      </g>
      <g fill="yellow" fill-opacity="1" filter="none" id="ID_graph_shadow_5" opacity="1" stroke="none" stroke-opacity="1" stroke-width="0">
        <path d="M 0 0 l 0 5.92 s 0 0 0 0 l 80 0 s 0 0 0 -0 l 0 -5.92 z" transform="translate(63,256.93)"/>
        <path d="M 0 0 l 0 5.92 s 0 0 0 0 l 80 0 s 0 0 0 -0 l 0 -5.92 z" fill="url(#WhiteBlackGradient)" transform="translate(63,256.93)"/>
        <path d="M 0 0 l 0 5.92 s 0 0 0 0 l 80 0 s 0 0 0 -0 l 0 -5.92 z" fill-opacity="0.3" filter="url(#SaturateMinus)" transform="translate(63,256.93)"/>
        <path d="M 0 0 l 0 -11.83 s 0 -0 0 -0 l 80 0 s 0 0 0 0 l 0 11.83 z" transform="translate(163,200.67)"/>
        <path d="M 0 0 l 0 -11.83 s 0 -0 0 -0 l 80 0 s 0 0 0 0 l 0 11.83 z" fill="url(#WhiteBlackGradient)" transform="translate(163,200.67)"/>
        <path d="M 0 0 l 0 -11.83 s 0 -0 0 -0 l 80 0 s 0 0 0 0 l 0 11.83 z" fill-opacity="0.3" filter="url(#SaturateMinus)" transform="translate(163,200.67)"/>
        <path d="M 0 0 l 0 17.75 s 0 0 0 0 l 80 0 s 0 0 0 -0 l 0 -17.75 z" transform="translate(263,294.43)"/>
        <path d="M 0 0 l 0 17.75 s 0 0 0 0 l 80 0 s 0 0 0 -0 l 0 -17.75 z" fill="url(#WhiteBlackGradient)" transform="translate(263,294.43)"/>
        <path d="M 0 0 l 0 17.75 s 0 0 0 0 l 80 0 s 0 0 0 -0 l 0 -17.75 z" fill-opacity="0.3" filter="url(#SaturateMinus)" transform="translate(263,294.43)"/>
        <path d="M 0 0 l 0 -23.66 s 0 -0 0 -0 l 80 0 s 0 0 0 0 l 0 23.66 z" transform="translate(363,163.17)"/>
        <path d="M 0 0 l 0 -23.66 s 0 -0 0 -0 l 80 0 s 0 0 0 0 l 0 23.66 z" fill="url(#WhiteBlackGradient)" transform="translate(363,163.17)"/>
        <path d="M 0 0 l 0 -23.66 s 0 -0 0 -0 l 80 0 s 0 0 0 0 l 0 23.66 z" fill-opacity="0.3" filter="url(#SaturateMinus)" transform="translate(363,163.17)"/>
        <path d="M 0 0 l 0 29.58 s 0 0 0 0 l 80 0 s 0 0 0 -0 l 0 -29.58 z" transform="translate(463,331.93)"/>
        <path d="M 0 0 l 0 29.58 s 0 0 0 0 l 80 0 s 0 0 0 -0 l 0 -29.58 z" fill="url(#WhiteBlackGradient)" transform="translate(463,331.93)"/>
        <path d="M 0 0 l 0 29.58 s 0 0 0 0 l 80 0 s 0 0 0 -0 l 0 -29.58 z" fill-opacity="0.3" filter="url(#SaturateMinus)" transform="translate(463,331.93)"/>
        <path d="M 0 0 l 0 -35.49 s 0 -0 0 -0 l 80 0 s 0 0 0 0 l 0 35.49 z" transform="translate(563,125.67)"/>
        <path d="M 0 0 l 0 -35.49 s 0 -0 0 -0 l 80 0 s 0 0 0 0 l 0 35.49 z" fill="url(#WhiteBlackGradient)" transform="translate(563,125.67)"/>
        <path d="M 0 0 l 0 -35.49 s 0 -0 0 -0 l 80 0 s 0 0 0 0 l 0 35.49 z" fill-opacity="0.3" filter="url(#SaturateMinus)" transform="translate(563,125.67)"/>
        <path d="M 0 0 l 0 41.41 s 0 0 0 0 l 80 0 s 0 0 0 -0 l 0 -41.41 z" transform="translate(663,369.43)"/>
        <path d="M 0 0 l 0 41.41 s 0 0 0 0 l 80 0 s 0 0 0 -0 l 0 -41.41 z" fill="url(#WhiteBlackGradient)" transform="translate(663,369.43)"/>
        <path d="M 0 0 l 0 41.41 s 0 0 0 0 l 80 0 s 0 0 0 -0 l 0 -41.41 z" fill-opacity="0.3" filter="url(#SaturateMinus)" transform="translate(663,369.43)"/>
        <path d="M 0 0 l 0 -47.32 s 0 -0 0 -0 l 80 0 s 0 0 0 0 l 0 47.32 z" transform="translate(763,88.17)"/>
        <path d="M 0 0 l 0 -47.32 s 0 -0 0 -0 l 80 0 s 0 0 0 0 l 0 47.32 z" fill="url(#WhiteBlackGradient)" transform="translate(763,88.17)"/>
        <path d="M 0 0 l 0 -47.32 s 0 -0 0 -0 l 80 0 s 0 0 0 0 l 0 47.32 z" fill-opacity="0.3" filter="url(#SaturateMinus)" transform="translate(763,88.17)"/>
      </g>
    </g>
  </g>

</svg>