<?xml version="1.0" encoding="UTF-8" standalone="no" ?><svg xmlns="http://www.w3.org/2000/svg" id="ID_svg" viewBox="0 0 1168 500" viewport-fill="white" viewport-fill-opacity="0" xmlns:exsl4D="http://www.4D.com" xmlns:math="http://exslt.org/math" xmlns:xlink="http://www.w3.org/1999/xlink"><!--gradient styles--><defs><filter id="soft_blur"><feGaussianBlur in="SourceGraphic" result="BlurAlpha" stdDeviation="1"/></filter><filter id="pastel"><feGaussianBlur in="SourceAlpha" result="blur" stdDeviation="2"/><feOffset dx="6" dy="6" in="blur" result="offsetBlur"/><feComposite in="SourceGraphic" in2="offsetBlur" operator="in" result="specOut"/></filter><filter id="blur_shadow"><feGaussianBlur in="SourceAlpha" result="blur" stdDeviation="3"/><feOffset dx="4" dy="2" in="blur" result="offsetBlur"/><feBlend in="SourceGraphic" in2="offsetBlur" mode="normal"/></filter><filter filterUnits="objectBoundingBox" id="Shadow"><feGaussianBlur in="SourceAlpha" result="flou" stdDeviation="0"/><feColorMatrix in="SourceAlpha" result="flouBlue" type="matrix" values=" 0 0 0 0 0                      0 0 0 0 0                     0 0 0 0 0                      0 0 0 0.3 0"/><feOffset dx="4" dy="4" in="flouBlue" result="flouDecalage"/><feBlend in="SourceGraphic" in2="flouDecalage" mode="normal"/></filter><filter filterUnits="objectBoundingBox" height="100%" id="SaturateMinus" width="100%" x="0%" y="0%"><feColorMatrix in="SourceGraphic" type="saturate" values="0.5"/></filter><filter filterUnits="objectBoundingBox" height="100%" id="SaturatePlus" width="100%" x="0%" y="0%"><feColorMatrix in="SourceGraphic" type="saturate" values="1.4"/></filter><linearGradient id="BlackGradient"><stop offset="0%" style="stop-color:rgb(0,0,0); stop-opacity:0"/><stop offset="100%" style="stop-color:rgb(0,0,0); stop-opacity:0.1"/></linearGradient><linearGradient id="WhiteGradient" x1="0%" x2="100%" y1="0%" y2="0%"><stop offset="0%" style="stop-color:rgb(255,255,255); stop-opacity:0.3"/><stop offset="100%" style="stop-color:rgb(255,255,255);stop-opacity:0"/></linearGradient><linearGradient id="WhiteBlackGradient" x1="0%" x2="100%" y1="0%" y2="0%"><stop offset="0%" style="stop-color:rgb(255,255,255); stop-opacity:0.15"/><stop offset="100%" style="stop-color:rgb(0,0,0);stop-opacity:0.15"/></linearGradient><linearGradient id="Black0Black1Gradient" x1="0%" x2="0%" y1="0%" y2="100%"><stop offset="0%" style="stop-color:rgb(0,0,0); stop-opacity:0"/><stop offset="100%" style="stop-color:rgb(0,0,0);stop-opacity:0.05"/></linearGradient></defs><!--global stroke and font styles--><g id="ID_globals" style="fill:black;stroke:none;font-family:Arial;font-size:12px;font-weight:normal;font-style:normal;text-decoration:none;shape-rendering:crispEdges"><!--draw title--><!--draw legend--><!--draw graph background--><rect fill="rgb(168,168,168)" fill-opacity="1" height="446" id="ID_background_shadow" rx="10" ry="10" stroke="none" visibility="visible" width="1120" x="39" y="23"/><g fill="rgb(229,229,229)" id="ID_background" visibility="visible"><rect height="446" rx="10" ry="10" stroke="none" width="1120" x="38" y="22"/><rect fill="url(#Black0Black1Gradient)" height="446" rx="10" ry="10" stroke="none" width="1120" x="38" y="22"/></g><clipPath id="ID_backgroundClipPath"><rect height="447" rx="10" ry="10" width="1121" x="38" y="22"/></clipPath><!--draw Y grid lines--><!--draw Y grid lines SHADOWS--><!--draw X grid lines--><!--draw X grid lines SHADOWS --><!--draw y=0 axe--><g id="ID_y0_axis" stroke="rgb(100,100,100)" stroke-width="1" visibility="visible"><line x1="38" x2="1158" y1="259.8666666666667" y2="259.8666666666667"/></g><!--draw axis x labels--><g id="ID_x_values" style="fill:black;stroke:none;font-family:Arial;font-size:12px;font-weight:normal;font-style:normal;text-decoration:none;filter:none"><text text-anchor="middle" x="111" y="486.8">PT8H0M0S</text><text text-anchor="middle" x="251" y="486.8">PT9H0M0S</text><text text-anchor="middle" x="391" y="486.8">PT10H0M0S</text><text text-anchor="middle" x="531" y="486.8">PT11H0M0S</text><text text-anchor="middle" x="671" y="486.8">PT11H15M0S</text><text text-anchor="middle" x="811" y="486.8">PT14H45M0S</text><text text-anchor="middle" x="951" y="486.8">PT15H0M0S</text><text text-anchor="middle" x="1091" y="486.8">PT16H0M0S</text></g><!--draw axis y labels--><g id="ID_y_values" style="fill:black;stroke:none;font-family:Arial;font-size:12px;font-weight:normal;font-style:normal;text-decoration:none;filter:none"><text text-anchor="end" x="28" y="472.8">-35</text><text text-anchor="end" x="28" y="443.06666666666666">-30</text><text text-anchor="end" x="28" y="413.33333333333337">-25</text><text text-anchor="end" x="28" y="383.6">-20</text><text text-anchor="end" x="28" y="353.8666666666667">-15</text><text text-anchor="end" x="28" y="324.1333333333334">-10</text><text text-anchor="end" x="28" y="294.40000000000003">-5</text><text text-anchor="end" x="28" y="264.6666666666667">0</text><text text-anchor="end" x="28" y="234.93333333333337">5</text><text text-anchor="end" x="28" y="205.20000000000005">10</text><text text-anchor="end" x="28" y="175.4666666666667">15</text><text text-anchor="end" x="28" y="145.73333333333335">20</text><text text-anchor="end" x="28" y="116.00000000000004">25</text><text text-anchor="end" x="28" y="86.2666666666667">30</text><text text-anchor="end" x="28" y="56.533333333333346">35</text><text text-anchor="end" x="28" y="26.8">40</text></g><!--draw bars SHADOWS--><g clip-path="url(#ID_BackgroundClipPath)" filter="none" id="allGroups" shape-rendering="auto"><!--              draw bars shadows for data type 1--><g fill="black" fill-opacity="0.2" id="ID_graph_shadow_1"><rect height="5.946666666666658" rx="0" ry="0" width="100" x="61" y="259.8666666666667"/><rect height="11.893333333333345" rx="0" ry="0" width="100" x="201" y="247.97333333333333"/><rect height="17.839999999999975" rx="0" ry="0" width="100" x="341" y="259.8666666666667"/><rect height="23.78666666666666" rx="0" ry="0" width="100" x="481" y="236.08"/><rect height="29.73333333333335" rx="0" ry="0" width="100" x="621" y="259.8666666666667"/><rect height="35.68000000000001" rx="0" ry="0" width="100" x="761" y="224.18666666666667"/><rect height="41.626666666666665" rx="0" ry="0" width="100" x="901" y="259.8666666666667"/><rect height="47.57333333333332" rx="0" ry="0" width="100" x="1041" y="212.29333333333335"/></g><!--              draw bars shadows for data type 2--><g fill="black" fill-opacity="0.2" id="ID_graph_shadow_2"><rect height="6.541333333333341" rx="0" ry="0" width="100" x="61" y="265.81333333333333"/><rect height="13.082666666666654" rx="0" ry="0" width="100" x="201" y="234.89066666666668"/><rect height="19.624000000000024" rx="0" ry="0" width="100" x="341" y="277.70666666666665"/><rect height="26.165333333333336" rx="0" ry="0" width="100" x="481" y="209.91466666666668"/><rect height="32.70666666666665" rx="0" ry="0" width="100" x="621" y="289.6"/><rect height="39.24799999999999" rx="0" ry="0" width="100" x="761" y="184.93866666666668"/><rect height="45.78933333333333" rx="0" ry="0" width="100" x="901" y="301.49333333333334"/><rect height="52.33066666666667" rx="0" ry="0" width="100" x="1041" y="159.96266666666668"/></g><!--              draw bars shadows for data type 3--><g fill="black" fill-opacity="0.2" id="ID_graph_shadow_3"><rect height="7.195466666666675" rx="0" ry="0" width="100" x="61" y="272.3546666666667"/><rect height="14.390933333333322" rx="0" ry="0" width="100" x="201" y="220.49973333333335"/><rect height="21.586400000000026" rx="0" ry="0" width="100" x="341" y="297.3306666666666"/><rect height="28.781866666666673" rx="0" ry="0" width="100" x="481" y="181.13280000000003"/><rect height="35.97733333333332" rx="0" ry="0" width="100" x="621" y="322.3066666666667"/><rect height="43.172799999999995" rx="0" ry="0" width="100" x="761" y="141.76586666666668"/><rect height="50.36826666666667" rx="0" ry="0" width="100" x="901" y="347.28266666666667"/><rect height="57.56373333333332" rx="0" ry="0" width="100" x="1041" y="102.39893333333336"/></g><!--              draw bars shadows for data type 4--><g fill="black" fill-opacity="0.2" id="ID_graph_shadow_4"><path d="   M 61 279.55013333333335   l 100 0   l 0 0   s 0 7.91501333333332 -7.91501333333332 7.91501333333332    l -84.16997333333336 0   s -7.91501333333332 0 -7.91501333333332 -7.91501333333332   l 0 0   z"/><path d="   M 201 214.66970666666668   s 0 -10 10 -10   l 80 0   s 10 0 10 10   l 0 5.830026666666669    l -100 0    l 0 -5.830026666666669   z"/><path d="   M 341 318.91706666666664   l 100 0   l 0 13.745040000000017   s 0 10 -10 10    l -80 0   s -10 0 -10 -10   l 0 -13.745040000000017   z"/><path d="   M 481 159.4727466666667   s 0 -10 10 -10   l 80 0   s 10 0 10 10   l 0 21.660053333333337    l -100 0    l 0 -21.660053333333337   z"/><path d="   M 621 358.284   l 100 0   l 0 29.575066666666658   s 0 10 -10 10    l -80 0   s -10 0 -10 -10   l 0 -29.575066666666658   z"/><path d="   M 761 104.27578666666668   s 0 -10 10 -10   l 80 0   s 10 0 10 10   l 0 37.490080000000006    l -100 0    l 0 -37.490080000000006   z"/><path d="   M 901 397.6509333333333   l 100 0   l 0 45.405093333333355   s 0 10 -10 10    l -80 0   s -10 0 -10 -10   l 0 -45.405093333333355   z"/><path d="   M 1041 49.078826666666686   s 0 -10 10 -10   l 80 0   s 10 0 10 10   l 0 53.32010666666666    l -100 0    l 0 -53.32010666666666   z"/></g></g><!--draw bars--><g filter="none" id="allGroups" shape-rendering="auto"><!--              draw bars for data type 1--><g fill="rgb(0,178,195)" fill-opacity="1" id="ID_graph_1" stroke="black" stroke-opacity="0" stroke-width="0"><rect height="5.946666666666658" rx="0" ry="0" width="100" x="58" y="259.8666666666667"/><rect fill="url(#WhiteBlackGradient)" height="5.946666666666658" rx="0" ry="0" width="100" x="58" y="259.8666666666667"/><rect fill-opacity="0.3" filter="url(#SaturateMinus)" height="5.946666666666658" rx="0" ry="0" width="100" x="58" y="259.8666666666667"/><rect height="11.893333333333345" rx="0" ry="0" width="100" x="198" y="247.97333333333333"/><rect fill="url(#WhiteBlackGradient)" height="11.893333333333345" rx="0" ry="0" width="100" x="198" y="247.97333333333333"/><rect fill-opacity="0.3" filter="url(#SaturateMinus)" height="11.893333333333345" rx="0" ry="0" width="100" x="198" y="247.97333333333333"/><rect height="17.839999999999975" rx="0" ry="0" width="100" x="338" y="259.8666666666667"/><rect fill="url(#WhiteBlackGradient)" height="17.839999999999975" rx="0" ry="0" width="100" x="338" y="259.8666666666667"/><rect fill-opacity="0.3" filter="url(#SaturateMinus)" height="17.839999999999975" rx="0" ry="0" width="100" x="338" y="259.8666666666667"/><rect height="23.78666666666666" rx="0" ry="0" width="100" x="478" y="236.08"/><rect fill="url(#WhiteBlackGradient)" height="23.78666666666666" rx="0" ry="0" width="100" x="478" y="236.08"/><rect fill-opacity="0.3" filter="url(#SaturateMinus)" height="23.78666666666666" rx="0" ry="0" width="100" x="478" y="236.08"/><rect height="29.73333333333335" rx="0" ry="0" width="100" x="618" y="259.8666666666667"/><rect fill="url(#WhiteBlackGradient)" height="29.73333333333335" rx="0" ry="0" width="100" x="618" y="259.8666666666667"/><rect fill-opacity="0.3" filter="url(#SaturateMinus)" height="29.73333333333335" rx="0" ry="0" width="100" x="618" y="259.8666666666667"/><rect height="35.68000000000001" rx="0" ry="0" width="100" x="758" y="224.18666666666667"/><rect fill="url(#WhiteBlackGradient)" height="35.68000000000001" rx="0" ry="0" width="100" x="758" y="224.18666666666667"/><rect fill-opacity="0.3" filter="url(#SaturateMinus)" height="35.68000000000001" rx="0" ry="0" width="100" x="758" y="224.18666666666667"/><rect height="41.626666666666665" rx="0" ry="0" width="100" x="898" y="259.8666666666667"/><rect fill="url(#WhiteBlackGradient)" height="41.626666666666665" rx="0" ry="0" width="100" x="898" y="259.8666666666667"/><rect fill-opacity="0.3" filter="url(#SaturateMinus)" height="41.626666666666665" rx="0" ry="0" width="100" x="898" y="259.8666666666667"/><rect height="47.57333333333332" rx="0" ry="0" width="100" x="1038" y="212.29333333333335"/><rect fill="url(#WhiteBlackGradient)" height="47.57333333333332" rx="0" ry="0" width="100" x="1038" y="212.29333333333335"/><rect fill-opacity="0.3" filter="url(#SaturateMinus)" height="47.57333333333332" rx="0" ry="0" width="100" x="1038" y="212.29333333333335"/></g><!--              draw bars for data type 2--><g fill="rgb(255,195,56)" fill-opacity="1" id="ID_graph_2" stroke="black" stroke-opacity="0" stroke-width="0"><rect height="6.541333333333341" rx="0" ry="0" width="100" x="58" y="265.81333333333333"/><rect fill="url(#WhiteBlackGradient)" height="6.541333333333341" rx="0" ry="0" width="100" x="58" y="265.81333333333333"/><rect fill-opacity="0.3" filter="url(#SaturateMinus)" height="6.541333333333341" rx="0" ry="0" width="100" x="58" y="265.81333333333333"/><rect height="13.082666666666654" rx="0" ry="0" width="100" x="198" y="234.89066666666668"/><rect fill="url(#WhiteBlackGradient)" height="13.082666666666654" rx="0" ry="0" width="100" x="198" y="234.89066666666668"/><rect fill-opacity="0.3" filter="url(#SaturateMinus)" height="13.082666666666654" rx="0" ry="0" width="100" x="198" y="234.89066666666668"/><rect height="19.624000000000024" rx="0" ry="0" width="100" x="338" y="277.70666666666665"/><rect fill="url(#WhiteBlackGradient)" height="19.624000000000024" rx="0" ry="0" width="100" x="338" y="277.70666666666665"/><rect fill-opacity="0.3" filter="url(#SaturateMinus)" height="19.624000000000024" rx="0" ry="0" width="100" x="338" y="277.70666666666665"/><rect height="26.165333333333336" rx="0" ry="0" width="100" x="478" y="209.91466666666668"/><rect fill="url(#WhiteBlackGradient)" height="26.165333333333336" rx="0" ry="0" width="100" x="478" y="209.91466666666668"/><rect fill-opacity="0.3" filter="url(#SaturateMinus)" height="26.165333333333336" rx="0" ry="0" width="100" x="478" y="209.91466666666668"/><rect height="32.70666666666665" rx="0" ry="0" width="100" x="618" y="289.6"/><rect fill="url(#WhiteBlackGradient)" height="32.70666666666665" rx="0" ry="0" width="100" x="618" y="289.6"/><rect fill-opacity="0.3" filter="url(#SaturateMinus)" height="32.70666666666665" rx="0" ry="0" width="100" x="618" y="289.6"/><rect height="39.24799999999999" rx="0" ry="0" width="100" x="758" y="184.93866666666668"/><rect fill="url(#WhiteBlackGradient)" height="39.24799999999999" rx="0" ry="0" width="100" x="758" y="184.93866666666668"/><rect fill-opacity="0.3" filter="url(#SaturateMinus)" height="39.24799999999999" rx="0" ry="0" width="100" x="758" y="184.93866666666668"/><rect height="45.78933333333333" rx="0" ry="0" width="100" x="898" y="301.49333333333334"/><rect fill="url(#WhiteBlackGradient)" height="45.78933333333333" rx="0" ry="0" width="100" x="898" y="301.49333333333334"/><rect fill-opacity="0.3" filter="url(#SaturateMinus)" height="45.78933333333333" rx="0" ry="0" width="100" x="898" y="301.49333333333334"/><rect height="52.33066666666667" rx="0" ry="0" width="100" x="1038" y="159.96266666666668"/><rect fill="url(#WhiteBlackGradient)" height="52.33066666666667" rx="0" ry="0" width="100" x="1038" y="159.96266666666668"/><rect fill-opacity="0.3" filter="url(#SaturateMinus)" height="52.33066666666667" rx="0" ry="0" width="100" x="1038" y="159.96266666666668"/></g><!--              draw bars for data type 3--><g fill="rgb(87,62,130)" fill-opacity="1" id="ID_graph_3" stroke="black" stroke-opacity="0" stroke-width="0"><rect height="7.195466666666675" rx="0" ry="0" width="100" x="58" y="272.3546666666667"/><rect fill="url(#WhiteBlackGradient)" height="7.195466666666675" rx="0" ry="0" width="100" x="58" y="272.3546666666667"/><rect fill-opacity="0.3" filter="url(#SaturateMinus)" height="7.195466666666675" rx="0" ry="0" width="100" x="58" y="272.3546666666667"/><rect height="14.390933333333322" rx="0" ry="0" width="100" x="198" y="220.49973333333335"/><rect fill="url(#WhiteBlackGradient)" height="14.390933333333322" rx="0" ry="0" width="100" x="198" y="220.49973333333335"/><rect fill-opacity="0.3" filter="url(#SaturateMinus)" height="14.390933333333322" rx="0" ry="0" width="100" x="198" y="220.49973333333335"/><rect height="21.586400000000026" rx="0" ry="0" width="100" x="338" y="297.3306666666666"/><rect fill="url(#WhiteBlackGradient)" height="21.586400000000026" rx="0" ry="0" width="100" x="338" y="297.3306666666666"/><rect fill-opacity="0.3" filter="url(#SaturateMinus)" height="21.586400000000026" rx="0" ry="0" width="100" x="338" y="297.3306666666666"/><rect height="28.781866666666673" rx="0" ry="0" width="100" x="478" y="181.13280000000003"/><rect fill="url(#WhiteBlackGradient)" height="28.781866666666673" rx="0" ry="0" width="100" x="478" y="181.13280000000003"/><rect fill-opacity="0.3" filter="url(#SaturateMinus)" height="28.781866666666673" rx="0" ry="0" width="100" x="478" y="181.13280000000003"/><rect height="35.97733333333332" rx="0" ry="0" width="100" x="618" y="322.3066666666667"/><rect fill="url(#WhiteBlackGradient)" height="35.97733333333332" rx="0" ry="0" width="100" x="618" y="322.3066666666667"/><rect fill-opacity="0.3" filter="url(#SaturateMinus)" height="35.97733333333332" rx="0" ry="0" width="100" x="618" y="322.3066666666667"/><rect height="43.172799999999995" rx="0" ry="0" width="100" x="758" y="141.76586666666668"/><rect fill="url(#WhiteBlackGradient)" height="43.172799999999995" rx="0" ry="0" width="100" x="758" y="141.76586666666668"/><rect fill-opacity="0.3" filter="url(#SaturateMinus)" height="43.172799999999995" rx="0" ry="0" width="100" x="758" y="141.76586666666668"/><rect height="50.36826666666667" rx="0" ry="0" width="100" x="898" y="347.28266666666667"/><rect fill="url(#WhiteBlackGradient)" height="50.36826666666667" rx="0" ry="0" width="100" x="898" y="347.28266666666667"/><rect fill-opacity="0.3" filter="url(#SaturateMinus)" height="50.36826666666667" rx="0" ry="0" width="100" x="898" y="347.28266666666667"/><rect height="57.56373333333332" rx="0" ry="0" width="100" x="1038" y="102.39893333333336"/><rect fill="url(#WhiteBlackGradient)" height="57.56373333333332" rx="0" ry="0" width="100" x="1038" y="102.39893333333336"/><rect fill-opacity="0.3" filter="url(#SaturateMinus)" height="57.56373333333332" rx="0" ry="0" width="100" x="1038" y="102.39893333333336"/></g><!--              draw bars for data type 4--><g fill="rgb(79,168,57)" fill-opacity="1" id="ID_graph_4" stroke="black" stroke-opacity="0" stroke-width="0"><path d="   M 58 279.55013333333335   l 100 0   l 0 0   s 0 7.91501333333332 -7.91501333333332 7.91501333333332    l -84.16997333333336 0   s -7.91501333333332 0 -7.91501333333332 -7.91501333333332   l 0 0   z"/><path d="   M 58 279.55013333333335   l 100 0   l 0 0   s 0 7.91501333333332 -7.91501333333332 7.91501333333332    l -84.16997333333336 0   s -7.91501333333332 0 -7.91501333333332 -7.91501333333332   l 0 0   z" fill="url(#WhiteBlackGradient)"/><path d="   M 58 279.55013333333335   l 100 0   l 0 0   s 0 7.91501333333332 -7.91501333333332 7.91501333333332    l -84.16997333333336 0   s -7.91501333333332 0 -7.91501333333332 -7.91501333333332   l 0 0   z" fill-opacity="0.3" filter="url(#SaturateMinus)"/><path d="   M 198 214.66970666666668   s 0 -10 10 -10   l 80 0   s 10 0 10 10   l 0 5.830026666666669    l -100 0    l 0 -5.830026666666669   z"/><path d="   M 198 214.66970666666668   s 0 -10 10 -10   l 80 0   s 10 0 10 10   l 0 5.830026666666669    l -100 0    l 0 -5.830026666666669   z" fill="url(#WhiteBlackGradient)"/><path d="   M 198 214.66970666666668   s 0 -10 10 -10   l 80 0   s 10 0 10 10   l 0 5.830026666666669    l -100 0    l 0 -5.830026666666669   z" fill-opacity="0.3" filter="url(#SaturateMinus)"/><path d="   M 338 318.91706666666664   l 100 0   l 0 13.745040000000017   s 0 10 -10 10    l -80 0   s -10 0 -10 -10   l 0 -13.745040000000017   z"/><path d="   M 338 318.91706666666664   l 100 0   l 0 13.745040000000017   s 0 10 -10 10    l -80 0   s -10 0 -10 -10   l 0 -13.745040000000017   z" fill="url(#WhiteBlackGradient)"/><path d="   M 338 318.91706666666664   l 100 0   l 0 13.745040000000017   s 0 10 -10 10    l -80 0   s -10 0 -10 -10   l 0 -13.745040000000017   z" fill-opacity="0.3" filter="url(#SaturateMinus)"/><path d="   M 478 159.4727466666667   s 0 -10 10 -10   l 80 0   s 10 0 10 10   l 0 21.660053333333337    l -100 0    l 0 -21.660053333333337   z"/><path d="   M 478 159.4727466666667   s 0 -10 10 -10   l 80 0   s 10 0 10 10   l 0 21.660053333333337    l -100 0    l 0 -21.660053333333337   z" fill="url(#WhiteBlackGradient)"/><path d="   M 478 159.4727466666667   s 0 -10 10 -10   l 80 0   s 10 0 10 10   l 0 21.660053333333337    l -100 0    l 0 -21.660053333333337   z" fill-opacity="0.3" filter="url(#SaturateMinus)"/><path d="   M 618 358.284   l 100 0   l 0 29.575066666666658   s 0 10 -10 10    l -80 0   s -10 0 -10 -10   l 0 -29.575066666666658   z"/><path d="   M 618 358.284   l 100 0   l 0 29.575066666666658   s 0 10 -10 10    l -80 0   s -10 0 -10 -10   l 0 -29.575066666666658   z" fill="url(#WhiteBlackGradient)"/><path d="   M 618 358.284   l 100 0   l 0 29.575066666666658   s 0 10 -10 10    l -80 0   s -10 0 -10 -10   l 0 -29.575066666666658   z" fill-opacity="0.3" filter="url(#SaturateMinus)"/><path d="   M 758 104.27578666666668   s 0 -10 10 -10   l 80 0   s 10 0 10 10   l 0 37.490080000000006    l -100 0    l 0 -37.490080000000006   z"/><path d="   M 758 104.27578666666668   s 0 -10 10 -10   l 80 0   s 10 0 10 10   l 0 37.490080000000006    l -100 0    l 0 -37.490080000000006   z" fill="url(#WhiteBlackGradient)"/><path d="   M 758 104.27578666666668   s 0 -10 10 -10   l 80 0   s 10 0 10 10   l 0 37.490080000000006    l -100 0    l 0 -37.490080000000006   z" fill-opacity="0.3" filter="url(#SaturateMinus)"/><path d="   M 898 397.6509333333333   l 100 0   l 0 45.405093333333355   s 0 10 -10 10    l -80 0   s -10 0 -10 -10   l 0 -45.405093333333355   z"/><path d="   M 898 397.6509333333333   l 100 0   l 0 45.405093333333355   s 0 10 -10 10    l -80 0   s -10 0 -10 -10   l 0 -45.405093333333355   z" fill="url(#WhiteBlackGradient)"/><path d="   M 898 397.6509333333333   l 100 0   l 0 45.405093333333355   s 0 10 -10 10    l -80 0   s -10 0 -10 -10   l 0 -45.405093333333355   z" fill-opacity="0.3" filter="url(#SaturateMinus)"/><path d="   M 1038 49.078826666666686   s 0 -10 10 -10   l 80 0   s 10 0 10 10   l 0 53.32010666666666    l -100 0    l 0 -53.32010666666666   z"/><path d="   M 1038 49.078826666666686   s 0 -10 10 -10   l 80 0   s 10 0 10 10   l 0 53.32010666666666    l -100 0    l 0 -53.32010666666666   z" fill="url(#WhiteBlackGradient)"/><path d="   M 1038 49.078826666666686   s 0 -10 10 -10   l 80 0   s 10 0 10 10   l 0 53.32010666666666    l -100 0    l 0 -53.32010666666666   z" fill-opacity="0.3" filter="url(#SaturateMinus)"/></g></g></g></svg>