<?xml version="1.0" encoding="UTF-8" standalone="no" ?><svg xmlns="http://www.w3.org/2000/svg" id="ID_svg" viewBox="0 0 1990 500" viewport-fill="white" viewport-fill-opacity="0" xmlns:exsl4D="http://www.4D.com" xmlns:gFunc="http://gFunc" xmlns:math="http://exslt.org/math" xmlns:xlink="http://www.w3.org/1999/xlink"><!--gradient styles--><defs><filter id="soft_blur"><feGaussianBlur in="SourceGraphic" result="BlurAlpha" stdDeviation="1"/></filter><filter id="pastel"><feGaussianBlur in="SourceAlpha" result="blur" stdDeviation="2"/><feOffset dx="6" dy="6" in="blur" result="offsetBlur"/><feComposite in="SourceGraphic" in2="offsetBlur" operator="in" result="specOut"/></filter><filter id="blur_shadow"><feGaussianBlur in="SourceAlpha" result="blur" stdDeviation="3"/><feOffset dx="4" dy="2" in="blur" result="offsetBlur"/><feBlend in="SourceGraphic" in2="offsetBlur" mode="normal"/></filter><filter filterUnits="objectBoundingBox" id="Shadow"><feGaussianBlur in="SourceAlpha" result="flou" stdDeviation="0"/><feColorMatrix in="SourceAlpha" result="flouBlue" type="matrix" values=" 0 0 0 0 0                      0 0 0 0 0                     0 0 0 0 0                      0 0 0 0.3 0"/><feOffset dx="4" dy="4" in="flouBlue" result="flouDecalage"/><feBlend in="SourceGraphic" in2="flouDecalage" mode="normal"/></filter><filter filterUnits="objectBoundingBox" height="100%" id="SaturateMinus" width="100%" x="0%" y="0%"><feColorMatrix in="SourceGraphic" type="saturate" values="0.5"/></filter><filter filterUnits="objectBoundingBox" height="100%" id="SaturatePlus" width="100%" x="0%" y="0%"><feColorMatrix in="SourceGraphic" type="saturate" values="1.4"/></filter><linearGradient id="BlackGradient"><stop offset="0%" style="stop-color:rgb(0,0,0); stop-opacity:0"/><stop offset="100%" style="stop-color:rgb(0,0,0); stop-opacity:0.1"/></linearGradient><linearGradient id="WhiteGradient" x1="0%" x2="100%" y1="0%" y2="0%"><stop offset="0%" style="stop-color:rgb(255,255,255); stop-opacity:0.3"/><stop offset="100%" style="stop-color:rgb(255,255,255);stop-opacity:0"/></linearGradient><linearGradient id="WhiteBlackGradient" x1="0%" x2="100%" y1="0%" y2="0%"><stop offset="0%" style="stop-color:rgb(255,255,255); stop-opacity:0.15"/><stop offset="100%" style="stop-color:rgb(0,0,0);stop-opacity:0.15"/></linearGradient><linearGradient id="Black0Black1Gradient" x1="0%" x2="0%" y1="0%" y2="100%"><stop offset="0%" style="stop-color:rgb(0,0,0); stop-opacity:0"/><stop offset="100%" style="stop-color:rgb(0,0,0);stop-opacity:0.05"/></linearGradient></defs><!--global stroke and font styles--><g id="ID_globals" style="fill:black;stroke:none;font-family:Arial;font-size:12px;font-weight:normal;font-style:normal;text-decoration:none;shape-rendering:crispEdges"><!--draw title--><!--draw legend--><!--draw graph background--><rect fill="rgb(168,168,168)" fill-opacity="1" height="440" id="ID_background_shadow" rx="10" ry="10" stroke="none" visibility="visible" width="1936" x="43" y="25"/><g fill="rgb(229,229,229)" id="ID_background" visibility="visible"><rect height="440" rx="10" ry="10" stroke="none" width="1936" x="42" y="24"/><rect fill="url(#Black0Black1Gradient)" height="440" rx="10" ry="10" stroke="none" width="1936" x="42" y="24"/></g><clipPath id="ID_backgroundClipPath"><rect height="441" rx="10" ry="10" width="1937" x="42" y="24"/></clipPath><!--draw Y grid lines--><!--draw Y grid lines SHADOWS--><!--draw X grid lines--><!--draw X grid lines SHADOWS --><!--draw y=0 axe--><g id="ID_y0_axis" stroke="rgb(100,100,100)" stroke-width="1" visibility="visible"><line x1="42" x2="1978" y1="244" y2="244"/></g><!--draw axis x labels--><g id="ID_x_values" style="fill:black;stroke:none;font-family:Arial;font-size:12px;font-weight:normal;font-style:normal;text-decoration:none;filter:none" visibility="visible"><text text-anchor="middle" x="166" y="484.8">PT8H0M0S</text><text text-anchor="middle" x="408" y="484.8">PT9H0M0S</text><text text-anchor="middle" x="650" y="484.8">PT10H0M0S</text><text text-anchor="middle" x="892" y="484.8">PT11H0M0S</text><text text-anchor="middle" x="1134" y="484.8">PT11H15M0S</text><text text-anchor="middle" x="1376" y="484.8">PT14H45M0S</text><text text-anchor="middle" x="1618" y="484.8">PT15H0M0S</text><text text-anchor="middle" x="1860" y="484.8">PT16H0M0S</text></g><!--draw axis y labels--><g id="ID_y_values" style="fill:black;stroke:none;font-family:Arial;font-size:12px;font-weight:normal;font-style:normal;text-decoration:none;filter:none" visibility="visible"><text text-anchor="end" x="30" y="468.8">-15</text><text text-anchor="end" x="30" y="395.4666666666667">-10</text><text text-anchor="end" x="30" y="322.1333333333334">-5</text><text text-anchor="end" x="30" y="248.8">0</text><text text-anchor="end" x="30" y="175.4666666666667">5</text><text text-anchor="end" x="30" y="102.13333333333337">10</text><text text-anchor="end" x="30" y="28.8">15</text></g><!--draw bars SHADOWS--><g clip-path="url(#ID_BackgroundClipPath)"><!--              draw bars for data type 1--><g fill="black" fill-opacity="0.2" id="ID_graph_shadow_1"><path d="   M 57 244   l 20.857142857142854 0   l 0 8.666666666666666   s 0 6 -6 6    l -8.857142857142854 0   s -6 0 -6 -6   l 0 -8.666666666666666   z"/><path d="   M 299 220.66666666666666   s 0 -6 6 -6   l 8.857142857142854 0   s 6 0 6 6   l 0 23.333333333333332    l -20.857142857142854 0    l 0 -23.333333333333332   z"/><path d="   M 541 244   l 20.857142857142854 0   l 0 38   s 0 6 -6 6    l -8.857142857142854 0   s -6 0 -6 -6   l 0 -38   z"/><path d="   M 783 191.33333333333334   s 0 -6 6 -6   l 8.857142857142854 0   s 6 0 6 6   l 0 52.666666666666664    l -20.857142857142854 0    l 0 -52.666666666666664   z"/><path d="   M 1025 244   l 20.857142857142854 0   l 0 67.33333333333333   s 0 6 -6 6    l -8.857142857142854 0   s -6 0 -6 -6   l 0 -67.33333333333333   z"/><path d="   M 1267 162   s 0 -6 6 -6   l 8.857142857142854 0   s 6 0 6 6   l 0 82    l -20.857142857142854 0    l 0 -82   z"/><path d="   M 1509 244   l 20.857142857142854 0   l 0 96.66666666666666   s 0 6 -6 6    l -8.857142857142854 0   s -6 0 -6 -6   l 0 -96.66666666666666   z"/><path d="   M 1751 132.66666666666669   s 0 -6 6 -6   l 8.857142857142854 0   s 6 0 6 6   l 0 111.33333333333333    l -20.857142857142854 0    l 0 -111.33333333333333   z"/></g><!--              draw bars for data type 2--><g fill="black" fill-opacity="0.2" id="ID_graph_shadow_2"><path d="   M 89.85714285714286 244   l 20.857142857142854 0   l 0 10.133333333333333   s 0 6 -6 6    l -8.857142857142854 0   s -6 0 -6 -6   l 0 -10.133333333333333   z"/><path d="   M 331.85714285714283 217.73333333333335   s 0 -6 6 -6   l 8.857142857142854 0   s 6 0 6 6   l 0 26.266666666666666    l -20.857142857142854 0    l 0 -26.266666666666666   z"/><path d="   M 573.8571428571429 244   l 20.857142857142854 0   l 0 42.4   s 0 6 -6 6    l -8.857142857142854 0   s -6 0 -6 -6   l 0 -42.4   z"/><path d="   M 815.8571428571429 185.46666666666667   s 0 -6 6 -6   l 8.857142857142854 0   s 6 0 6 6   l 0 58.53333333333333    l -20.857142857142854 0    l 0 -58.53333333333333   z"/><path d="   M 1057.857142857143 244   l 20.857142857142854 0   l 0 74.66666666666666   s 0 6 -6 6    l -8.857142857142854 0   s -6 0 -6 -6   l 0 -74.66666666666666   z"/><path d="   M 1299.857142857143 153.2   s 0 -6 6 -6   l 8.857142857142854 0   s 6 0 6 6   l 0 90.8    l -20.857142857142854 0    l 0 -90.8   z"/><path d="   M 1541.857142857143 244   l 20.857142857142854 0   l 0 106.93333333333334   s 0 6 -6 6    l -8.857142857142854 0   s -6 0 -6 -6   l 0 -106.93333333333334   z"/><path d="   M 1783.857142857143 120.93333333333334   s 0 -6 6 -6   l 8.857142857142854 0   s 6 0 6 6   l 0 123.06666666666666    l -20.857142857142854 0    l 0 -123.06666666666666   z"/></g><!--              draw bars for data type 3--><g fill="black" fill-opacity="0.2" id="ID_graph_shadow_3"><path d="   M 122.71428571428571 244   l 20.857142857142854 0   l 0 11.746666666666666   s 0 6 -6 6    l -8.857142857142854 0   s -6 0 -6 -6   l 0 -11.746666666666666   z"/><path d="   M 364.7142857142857 214.50666666666666   s 0 -6 6 -6   l 8.857142857142854 0   s 6 0 6 6   l 0 29.493333333333332    l -20.857142857142854 0    l 0 -29.493333333333332   z"/><path d="   M 606.7142857142857 244   l 20.857142857142854 0   l 0 47.239999999999995   s 0 6 -6 6    l -8.857142857142854 0   s -6 0 -6 -6   l 0 -47.239999999999995   z"/><path d="   M 848.7142857142857 179.01333333333332   s 0 -6 6 -6   l 8.857142857142854 0   s 6 0 6 6   l 0 64.98666666666666    l -20.857142857142854 0    l 0 -64.98666666666666   z"/><path d="   M 1090.7142857142858 244   l 20.857142857142854 0   l 0 82.73333333333332   s 0 6 -6 6    l -8.857142857142854 0   s -6 0 -6 -6   l 0 -82.73333333333332   z"/><path d="   M 1332.7142857142858 143.52   s 0 -6 6 -6   l 8.857142857142854 0   s 6 0 6 6   l 0 100.47999999999999    l -20.857142857142854 0    l 0 -100.47999999999999   z"/><path d="   M 1574.7142857142858 244   l 20.857142857142854 0   l 0 118.22666666666667   s 0 6 -6 6    l -8.857142857142854 0   s -6 0 -6 -6   l 0 -118.22666666666667   z"/><path d="   M 1816.7142857142858 108.02666666666667   s 0 -6 6 -6   l 8.857142857142854 0   s 6 0 6 6   l 0 135.97333333333333    l -20.857142857142854 0    l 0 -135.97333333333333   z"/></g><!--              draw bars for data type 4--><g fill="black" fill-opacity="0.2" id="ID_graph_shadow_4"><path d="   M 155.57142857142856 244   l 20.857142857142854 0   l 0 13.521333333333331   s 0 6 -6 6    l -8.857142857142854 0   s -6 0 -6 -6   l 0 -13.521333333333331   z"/><path d="   M 397.57142857142856 210.95733333333334   s 0 -6 6 -6   l 8.857142857142854 0   s 6 0 6 6   l 0 33.04266666666666    l -20.857142857142854 0    l 0 -33.04266666666666   z"/><path d="   M 639.5714285714286 244   l 20.857142857142854 0   l 0 52.56399999999999   s 0 6 -6 6    l -8.857142857142854 0   s -6 0 -6 -6   l 0 -52.56399999999999   z"/><path d="   M 881.5714285714286 171.91466666666668   s 0 -6 6 -6   l 8.857142857142854 0   s 6 0 6 6   l 0 72.08533333333332    l -20.857142857142854 0    l 0 -72.08533333333332   z"/><path d="   M 1123.5714285714284 244   l 20.857142857142854 0   l 0 91.60666666666667   s 0 6 -6 6    l -8.857142857142854 0   s -6 0 -6 -6   l 0 -91.60666666666667   z"/><path d="   M 1365.5714285714284 132.872   s 0 -6 6 -6   l 8.857142857142854 0   s 6 0 6 6   l 0 111.12799999999999    l -20.857142857142854 0    l 0 -111.12799999999999   z"/><path d="   M 1607.5714285714284 244   l 20.857142857142854 0   l 0 130.64933333333332   s 0 6 -6 6    l -8.857142857142854 0   s -6 0 -6 -6   l 0 -130.64933333333332   z"/><path d="   M 1849.5714285714284 93.82933333333335   s 0 -6 6 -6   l 8.857142857142854 0   s 6 0 6 6   l 0 150.17066666666665    l -20.857142857142854 0    l 0 -150.17066666666665   z"/></g><!--              draw bars for data type 5--><g fill="black" fill-opacity="0.2" id="ID_graph_shadow_5"><path d="   M 188.42857142857142 244   l 20.857142857142854 0   l 0 15.473466666666667   s 0 6 -6 6    l -8.857142857142854 0   s -6 0 -6 -6   l 0 -15.473466666666667   z"/><path d="   M 430.42857142857144 207.05306666666667   s 0 -6 6 -6   l 8.857142857142854 0   s 6 0 6 6   l 0 36.946933333333334    l -20.857142857142854 0    l 0 -36.946933333333334   z"/><path d="   M 672.4285714285714 244   l 20.857142857142854 0   l 0 58.42039999999999   s 0 6 -6 6    l -8.857142857142854 0   s -6 0 -6 -6   l 0 -58.42039999999999   z"/><path d="   M 914.4285714285714 164.10613333333333   s 0 -6 6 -6   l 8.857142857142854 0   s 6 0 6 6   l 0 79.89386666666667    l -20.857142857142854 0    l 0 -79.89386666666667   z"/><path d="   M 1156.4285714285713 244   l 20.857142857142854 0   l 0 101.36733333333333   s 0 6 -6 6    l -8.857142857142854 0   s -6 0 -6 -6   l 0 -101.36733333333333   z"/><path d="   M 1398.4285714285713 121.15920000000003   s 0 -6 6 -6   l 8.857142857142854 0   s 6 0 6 6   l 0 122.84079999999997    l -20.857142857142854 0    l 0 -122.84079999999997   z"/><path d="   M 1640.4285714285713 244   l 20.857142857142854 0   l 0 144.31426666666664   s 0 6 -6 6    l -8.857142857142854 0   s -6 0 -6 -6   l 0 -144.31426666666664   z"/><path d="   M 1882.4285714285713 78.21226666666666   s 0 -6 6 -6   l 8.857142857142854 0   s 6 0 6 6   l 0 165.78773333333334    l -20.857142857142854 0    l 0 -165.78773333333334   z"/></g><!--              draw bars for data type 6--><g fill="black" fill-opacity="0.2" id="ID_graph_shadow_6"><path d="   M 221.28571428571428 244   l 20.857142857142854 0   l 0 17.620813333333334   s 0 6 -6 6    l -8.857142857142854 0   s -6 0 -6 -6   l 0 -17.620813333333334   z"/><path d="   M 463.2857142857143 202.75837333333334   s 0 -6 6 -6   l 8.857142857142854 0   s 6 0 6 6   l 0 41.24162666666667    l -20.857142857142854 0    l 0 -41.24162666666667   z"/><path d="   M 705.2857142857142 244   l 20.857142857142854 0   l 0 64.86243999999999   s 0 6 -6 6    l -8.857142857142854 0   s -6 0 -6 -6   l 0 -64.86243999999999   z"/><path d="   M 947.2857142857142 155.51674666666668   s 0 -6 6 -6   l 8.857142857142854 0   s 6 0 6 6   l 0 88.48325333333334    l -20.857142857142854 0    l 0 -88.48325333333334   z"/><path d="   M 1189.2857142857142 244   l 20.857142857142854 0   l 0 112.10406666666667   s 0 6 -6 6    l -8.857142857142854 0   s -6 0 -6 -6   l 0 -112.10406666666667   z"/><path d="   M 1431.2857142857142 108.27512000000002   s 0 -6 6 -6   l 8.857142857142854 0   s 6 0 6 6   l 0 135.72487999999998    l -20.857142857142854 0    l 0 -135.72487999999998   z"/><path d="   M 1673.2857142857142 244   l 20.857142857142854 0   l 0 159.34569333333332   s 0 6 -6 6    l -8.857142857142854 0   s -6 0 -6 -6   l 0 -159.34569333333332   z"/><path d="   M 1915.2857142857142 61.033493333333325   s 0 -6 6 -6   l 8.857142857142854 0   s 6 0 6 6   l 0 182.96650666666667    l -20.857142857142854 0    l 0 -182.96650666666667   z"/></g><!--              draw bars for data type 7--><g fill="black" fill-opacity="0.2" id="ID_graph_shadow_7"><path d="   M 254.1428571428571 244   l 20.857142857142854 0   l 0 19.982894666666663   s 0 6 -6 6    l -8.857142857142854 0   s -6 0 -6 -6   l 0 -19.982894666666663   z"/><path d="   M 496.1428571428571 198.03421066666667   s 0 -6 6 -6   l 8.857142857142854 0   s 6 0 6 6   l 0 45.965789333333326    l -20.857142857142854 0    l 0 -45.965789333333326   z"/><path d="   M 738.1428571428571 244   l 20.857142857142854 0   l 0 71.94868399999999   s 0 6 -6 6    l -8.857142857142854 0   s -6 0 -6 -6   l 0 -71.94868399999999   z"/><path d="   M 980.1428571428571 146.06842133333333   s 0 -6 6 -6   l 8.857142857142854 0   s 6 0 6 6   l 0 97.93157866666665    l -20.857142857142854 0    l 0 -97.93157866666665   z"/><path d="   M 1222.142857142857 244   l 20.857142857142854 0   l 0 123.91447333333335   s 0 6 -6 6    l -8.857142857142854 0   s -6 0 -6 -6   l 0 -123.91447333333335   z"/><path d="   M 1464.142857142857 94.10263200000003   s 0 -6 6 -6   l 8.857142857142854 0   s 6 0 6 6   l 0 149.89736799999997    l -20.857142857142854 0    l 0 -149.89736799999997   z"/><path d="   M 1706.142857142857 244   l 20.857142857142854 0   l 0 175.88026266666665   s 0 6 -6 6    l -8.857142857142854 0   s -6 0 -6 -6   l 0 -175.88026266666665   z"/><path d="   M 1948.142857142857 42.136842666666695   s 0 -6 6 -6   l 8.857142857142854 0   s 6 0 6 6   l 0 201.8631573333333    l -20.857142857142854 0    l 0 -201.8631573333333   z"/></g></g><!--draw BARS--><!--            draw bars for data type 1--><g fill="rgb(0,178,195)" filter="none" id="ID_graph_1" opacity="1" stroke="none" stroke-opacity="1" stroke-width="0"><path d="   M 54 244   l 20.857142857142854 0   l 0 8.666666666666666   s 0 6 -6 6    l -8.857142857142854 0   s -6 0 -6 -6   l 0 -8.666666666666666   z"/><path d="   M 54 244   l 20.857142857142854 0   l 0 8.666666666666666   s 0 6 -6 6    l -8.857142857142854 0   s -6 0 -6 -6   l 0 -8.666666666666666   z" fill="url(#WhiteBlackGradient)"/><path d="   M 54 244   l 20.857142857142854 0   l 0 8.666666666666666   s 0 6 -6 6    l -8.857142857142854 0   s -6 0 -6 -6   l 0 -8.666666666666666   z" fill-opacity="0.3" filter="url(#SaturateMinus)"/><path d="   M 296 220.66666666666666   s 0 -6 6 -6   l 8.857142857142854 0   s 6 0 6 6   l 0 23.333333333333332    l -20.857142857142854 0    l 0 -23.333333333333332   z"/><path d="   M 296 220.66666666666666   s 0 -6 6 -6   l 8.857142857142854 0   s 6 0 6 6   l 0 23.333333333333332    l -20.857142857142854 0    l 0 -23.333333333333332   z" fill="url(#WhiteBlackGradient)"/><path d="   M 296 220.66666666666666   s 0 -6 6 -6   l 8.857142857142854 0   s 6 0 6 6   l 0 23.333333333333332    l -20.857142857142854 0    l 0 -23.333333333333332   z" fill-opacity="0.3" filter="url(#SaturateMinus)"/><path d="   M 538 244   l 20.857142857142854 0   l 0 38   s 0 6 -6 6    l -8.857142857142854 0   s -6 0 -6 -6   l 0 -38   z"/><path d="   M 538 244   l 20.857142857142854 0   l 0 38   s 0 6 -6 6    l -8.857142857142854 0   s -6 0 -6 -6   l 0 -38   z" fill="url(#WhiteBlackGradient)"/><path d="   M 538 244   l 20.857142857142854 0   l 0 38   s 0 6 -6 6    l -8.857142857142854 0   s -6 0 -6 -6   l 0 -38   z" fill-opacity="0.3" filter="url(#SaturateMinus)"/><path d="   M 780 191.33333333333334   s 0 -6 6 -6   l 8.857142857142854 0   s 6 0 6 6   l 0 52.666666666666664    l -20.857142857142854 0    l 0 -52.666666666666664   z"/><path d="   M 780 191.33333333333334   s 0 -6 6 -6   l 8.857142857142854 0   s 6 0 6 6   l 0 52.666666666666664    l -20.857142857142854 0    l 0 -52.666666666666664   z" fill="url(#WhiteBlackGradient)"/><path d="   M 780 191.33333333333334   s 0 -6 6 -6   l 8.857142857142854 0   s 6 0 6 6   l 0 52.666666666666664    l -20.857142857142854 0    l 0 -52.666666666666664   z" fill-opacity="0.3" filter="url(#SaturateMinus)"/><path d="   M 1022 244   l 20.857142857142854 0   l 0 67.33333333333333   s 0 6 -6 6    l -8.857142857142854 0   s -6 0 -6 -6   l 0 -67.33333333333333   z"/><path d="   M 1022 244   l 20.857142857142854 0   l 0 67.33333333333333   s 0 6 -6 6    l -8.857142857142854 0   s -6 0 -6 -6   l 0 -67.33333333333333   z" fill="url(#WhiteBlackGradient)"/><path d="   M 1022 244   l 20.857142857142854 0   l 0 67.33333333333333   s 0 6 -6 6    l -8.857142857142854 0   s -6 0 -6 -6   l 0 -67.33333333333333   z" fill-opacity="0.3" filter="url(#SaturateMinus)"/><path d="   M 1264 162   s 0 -6 6 -6   l 8.857142857142854 0   s 6 0 6 6   l 0 82    l -20.857142857142854 0    l 0 -82   z"/><path d="   M 1264 162   s 0 -6 6 -6   l 8.857142857142854 0   s 6 0 6 6   l 0 82    l -20.857142857142854 0    l 0 -82   z" fill="url(#WhiteBlackGradient)"/><path d="   M 1264 162   s 0 -6 6 -6   l 8.857142857142854 0   s 6 0 6 6   l 0 82    l -20.857142857142854 0    l 0 -82   z" fill-opacity="0.3" filter="url(#SaturateMinus)"/><path d="   M 1506 244   l 20.857142857142854 0   l 0 96.66666666666666   s 0 6 -6 6    l -8.857142857142854 0   s -6 0 -6 -6   l 0 -96.66666666666666   z"/><path d="   M 1506 244   l 20.857142857142854 0   l 0 96.66666666666666   s 0 6 -6 6    l -8.857142857142854 0   s -6 0 -6 -6   l 0 -96.66666666666666   z" fill="url(#WhiteBlackGradient)"/><path d="   M 1506 244   l 20.857142857142854 0   l 0 96.66666666666666   s 0 6 -6 6    l -8.857142857142854 0   s -6 0 -6 -6   l 0 -96.66666666666666   z" fill-opacity="0.3" filter="url(#SaturateMinus)"/><path d="   M 1748 132.66666666666669   s 0 -6 6 -6   l 8.857142857142854 0   s 6 0 6 6   l 0 111.33333333333333    l -20.857142857142854 0    l 0 -111.33333333333333   z"/><path d="   M 1748 132.66666666666669   s 0 -6 6 -6   l 8.857142857142854 0   s 6 0 6 6   l 0 111.33333333333333    l -20.857142857142854 0    l 0 -111.33333333333333   z" fill="url(#WhiteBlackGradient)"/><path d="   M 1748 132.66666666666669   s 0 -6 6 -6   l 8.857142857142854 0   s 6 0 6 6   l 0 111.33333333333333    l -20.857142857142854 0    l 0 -111.33333333333333   z" fill-opacity="0.3" filter="url(#SaturateMinus)"/></g><!--            draw bars for data type 2--><g fill="rgb(255,195,56)" filter="none" id="ID_graph_2" opacity="1" stroke="none" stroke-opacity="1" stroke-width="0"><path d="   M 86.85714285714286 244   l 20.857142857142854 0   l 0 10.133333333333333   s 0 6 -6 6    l -8.857142857142854 0   s -6 0 -6 -6   l 0 -10.133333333333333   z"/><path d="   M 86.85714285714286 244   l 20.857142857142854 0   l 0 10.133333333333333   s 0 6 -6 6    l -8.857142857142854 0   s -6 0 -6 -6   l 0 -10.133333333333333   z" fill="url(#WhiteBlackGradient)"/><path d="   M 86.85714285714286 244   l 20.857142857142854 0   l 0 10.133333333333333   s 0 6 -6 6    l -8.857142857142854 0   s -6 0 -6 -6   l 0 -10.133333333333333   z" fill-opacity="0.3" filter="url(#SaturateMinus)"/><path d="   M 328.85714285714283 217.73333333333335   s 0 -6 6 -6   l 8.857142857142854 0   s 6 0 6 6   l 0 26.266666666666666    l -20.857142857142854 0    l 0 -26.266666666666666   z"/><path d="   M 328.85714285714283 217.73333333333335   s 0 -6 6 -6   l 8.857142857142854 0   s 6 0 6 6   l 0 26.266666666666666    l -20.857142857142854 0    l 0 -26.266666666666666   z" fill="url(#WhiteBlackGradient)"/><path d="   M 328.85714285714283 217.73333333333335   s 0 -6 6 -6   l 8.857142857142854 0   s 6 0 6 6   l 0 26.266666666666666    l -20.857142857142854 0    l 0 -26.266666666666666   z" fill-opacity="0.3" filter="url(#SaturateMinus)"/><path d="   M 570.8571428571429 244   l 20.857142857142854 0   l 0 42.4   s 0 6 -6 6    l -8.857142857142854 0   s -6 0 -6 -6   l 0 -42.4   z"/><path d="   M 570.8571428571429 244   l 20.857142857142854 0   l 0 42.4   s 0 6 -6 6    l -8.857142857142854 0   s -6 0 -6 -6   l 0 -42.4   z" fill="url(#WhiteBlackGradient)"/><path d="   M 570.8571428571429 244   l 20.857142857142854 0   l 0 42.4   s 0 6 -6 6    l -8.857142857142854 0   s -6 0 -6 -6   l 0 -42.4   z" fill-opacity="0.3" filter="url(#SaturateMinus)"/><path d="   M 812.8571428571429 185.46666666666667   s 0 -6 6 -6   l 8.857142857142854 0   s 6 0 6 6   l 0 58.53333333333333    l -20.857142857142854 0    l 0 -58.53333333333333   z"/><path d="   M 812.8571428571429 185.46666666666667   s 0 -6 6 -6   l 8.857142857142854 0   s 6 0 6 6   l 0 58.53333333333333    l -20.857142857142854 0    l 0 -58.53333333333333   z" fill="url(#WhiteBlackGradient)"/><path d="   M 812.8571428571429 185.46666666666667   s 0 -6 6 -6   l 8.857142857142854 0   s 6 0 6 6   l 0 58.53333333333333    l -20.857142857142854 0    l 0 -58.53333333333333   z" fill-opacity="0.3" filter="url(#SaturateMinus)"/><path d="   M 1054.857142857143 244   l 20.857142857142854 0   l 0 74.66666666666666   s 0 6 -6 6    l -8.857142857142854 0   s -6 0 -6 -6   l 0 -74.66666666666666   z"/><path d="   M 1054.857142857143 244   l 20.857142857142854 0   l 0 74.66666666666666   s 0 6 -6 6    l -8.857142857142854 0   s -6 0 -6 -6   l 0 -74.66666666666666   z" fill="url(#WhiteBlackGradient)"/><path d="   M 1054.857142857143 244   l 20.857142857142854 0   l 0 74.66666666666666   s 0 6 -6 6    l -8.857142857142854 0   s -6 0 -6 -6   l 0 -74.66666666666666   z" fill-opacity="0.3" filter="url(#SaturateMinus)"/><path d="   M 1296.857142857143 153.2   s 0 -6 6 -6   l 8.857142857142854 0   s 6 0 6 6   l 0 90.8    l -20.857142857142854 0    l 0 -90.8   z"/><path d="   M 1296.857142857143 153.2   s 0 -6 6 -6   l 8.857142857142854 0   s 6 0 6 6   l 0 90.8    l -20.857142857142854 0    l 0 -90.8   z" fill="url(#WhiteBlackGradient)"/><path d="   M 1296.857142857143 153.2   s 0 -6 6 -6   l 8.857142857142854 0   s 6 0 6 6   l 0 90.8    l -20.857142857142854 0    l 0 -90.8   z" fill-opacity="0.3" filter="url(#SaturateMinus)"/><path d="   M 1538.857142857143 244   l 20.857142857142854 0   l 0 106.93333333333334   s 0 6 -6 6    l -8.857142857142854 0   s -6 0 -6 -6   l 0 -106.93333333333334   z"/><path d="   M 1538.857142857143 244   l 20.857142857142854 0   l 0 106.93333333333334   s 0 6 -6 6    l -8.857142857142854 0   s -6 0 -6 -6   l 0 -106.93333333333334   z" fill="url(#WhiteBlackGradient)"/><path d="   M 1538.857142857143 244   l 20.857142857142854 0   l 0 106.93333333333334   s 0 6 -6 6    l -8.857142857142854 0   s -6 0 -6 -6   l 0 -106.93333333333334   z" fill-opacity="0.3" filter="url(#SaturateMinus)"/><path d="   M 1780.857142857143 120.93333333333334   s 0 -6 6 -6   l 8.857142857142854 0   s 6 0 6 6   l 0 123.06666666666666    l -20.857142857142854 0    l 0 -123.06666666666666   z"/><path d="   M 1780.857142857143 120.93333333333334   s 0 -6 6 -6   l 8.857142857142854 0   s 6 0 6 6   l 0 123.06666666666666    l -20.857142857142854 0    l 0 -123.06666666666666   z" fill="url(#WhiteBlackGradient)"/><path d="   M 1780.857142857143 120.93333333333334   s 0 -6 6 -6   l 8.857142857142854 0   s 6 0 6 6   l 0 123.06666666666666    l -20.857142857142854 0    l 0 -123.06666666666666   z" fill-opacity="0.3" filter="url(#SaturateMinus)"/></g><!--            draw bars for data type 3--><g fill="rgb(87,62,130)" filter="none" id="ID_graph_3" opacity="1" stroke="none" stroke-opacity="1" stroke-width="0"><path d="   M 119.71428571428571 244   l 20.857142857142854 0   l 0 11.746666666666666   s 0 6 -6 6    l -8.857142857142854 0   s -6 0 -6 -6   l 0 -11.746666666666666   z"/><path d="   M 119.71428571428571 244   l 20.857142857142854 0   l 0 11.746666666666666   s 0 6 -6 6    l -8.857142857142854 0   s -6 0 -6 -6   l 0 -11.746666666666666   z" fill="url(#WhiteBlackGradient)"/><path d="   M 119.71428571428571 244   l 20.857142857142854 0   l 0 11.746666666666666   s 0 6 -6 6    l -8.857142857142854 0   s -6 0 -6 -6   l 0 -11.746666666666666   z" fill-opacity="0.3" filter="url(#SaturateMinus)"/><path d="   M 361.7142857142857 214.50666666666666   s 0 -6 6 -6   l 8.857142857142854 0   s 6 0 6 6   l 0 29.493333333333332    l -20.857142857142854 0    l 0 -29.493333333333332   z"/><path d="   M 361.7142857142857 214.50666666666666   s 0 -6 6 -6   l 8.857142857142854 0   s 6 0 6 6   l 0 29.493333333333332    l -20.857142857142854 0    l 0 -29.493333333333332   z" fill="url(#WhiteBlackGradient)"/><path d="   M 361.7142857142857 214.50666666666666   s 0 -6 6 -6   l 8.857142857142854 0   s 6 0 6 6   l 0 29.493333333333332    l -20.857142857142854 0    l 0 -29.493333333333332   z" fill-opacity="0.3" filter="url(#SaturateMinus)"/><path d="   M 603.7142857142857 244   l 20.857142857142854 0   l 0 47.239999999999995   s 0 6 -6 6    l -8.857142857142854 0   s -6 0 -6 -6   l 0 -47.239999999999995   z"/><path d="   M 603.7142857142857 244   l 20.857142857142854 0   l 0 47.239999999999995   s 0 6 -6 6    l -8.857142857142854 0   s -6 0 -6 -6   l 0 -47.239999999999995   z" fill="url(#WhiteBlackGradient)"/><path d="   M 603.7142857142857 244   l 20.857142857142854 0   l 0 47.239999999999995   s 0 6 -6 6    l -8.857142857142854 0   s -6 0 -6 -6   l 0 -47.239999999999995   z" fill-opacity="0.3" filter="url(#SaturateMinus)"/><path d="   M 845.7142857142857 179.01333333333332   s 0 -6 6 -6   l 8.857142857142854 0   s 6 0 6 6   l 0 64.98666666666666    l -20.857142857142854 0    l 0 -64.98666666666666   z"/><path d="   M 845.7142857142857 179.01333333333332   s 0 -6 6 -6   l 8.857142857142854 0   s 6 0 6 6   l 0 64.98666666666666    l -20.857142857142854 0    l 0 -64.98666666666666   z" fill="url(#WhiteBlackGradient)"/><path d="   M 845.7142857142857 179.01333333333332   s 0 -6 6 -6   l 8.857142857142854 0   s 6 0 6 6   l 0 64.98666666666666    l -20.857142857142854 0    l 0 -64.98666666666666   z" fill-opacity="0.3" filter="url(#SaturateMinus)"/><path d="   M 1087.7142857142858 244   l 20.857142857142854 0   l 0 82.73333333333332   s 0 6 -6 6    l -8.857142857142854 0   s -6 0 -6 -6   l 0 -82.73333333333332   z"/><path d="   M 1087.7142857142858 244   l 20.857142857142854 0   l 0 82.73333333333332   s 0 6 -6 6    l -8.857142857142854 0   s -6 0 -6 -6   l 0 -82.73333333333332   z" fill="url(#WhiteBlackGradient)"/><path d="   M 1087.7142857142858 244   l 20.857142857142854 0   l 0 82.73333333333332   s 0 6 -6 6    l -8.857142857142854 0   s -6 0 -6 -6   l 0 -82.73333333333332   z" fill-opacity="0.3" filter="url(#SaturateMinus)"/><path d="   M 1329.7142857142858 143.52   s 0 -6 6 -6   l 8.857142857142854 0   s 6 0 6 6   l 0 100.47999999999999    l -20.857142857142854 0    l 0 -100.47999999999999   z"/><path d="   M 1329.7142857142858 143.52   s 0 -6 6 -6   l 8.857142857142854 0   s 6 0 6 6   l 0 100.47999999999999    l -20.857142857142854 0    l 0 -100.47999999999999   z" fill="url(#WhiteBlackGradient)"/><path d="   M 1329.7142857142858 143.52   s 0 -6 6 -6   l 8.857142857142854 0   s 6 0 6 6   l 0 100.47999999999999    l -20.857142857142854 0    l 0 -100.47999999999999   z" fill-opacity="0.3" filter="url(#SaturateMinus)"/><path d="   M 1571.7142857142858 244   l 20.857142857142854 0   l 0 118.22666666666667   s 0 6 -6 6    l -8.857142857142854 0   s -6 0 -6 -6   l 0 -118.22666666666667   z"/><path d="   M 1571.7142857142858 244   l 20.857142857142854 0   l 0 118.22666666666667   s 0 6 -6 6    l -8.857142857142854 0   s -6 0 -6 -6   l 0 -118.22666666666667   z" fill="url(#WhiteBlackGradient)"/><path d="   M 1571.7142857142858 244   l 20.857142857142854 0   l 0 118.22666666666667   s 0 6 -6 6    l -8.857142857142854 0   s -6 0 -6 -6   l 0 -118.22666666666667   z" fill-opacity="0.3" filter="url(#SaturateMinus)"/><path d="   M 1813.7142857142858 108.02666666666667   s 0 -6 6 -6   l 8.857142857142854 0   s 6 0 6 6   l 0 135.97333333333333    l -20.857142857142854 0    l 0 -135.97333333333333   z"/><path d="   M 1813.7142857142858 108.02666666666667   s 0 -6 6 -6   l 8.857142857142854 0   s 6 0 6 6   l 0 135.97333333333333    l -20.857142857142854 0    l 0 -135.97333333333333   z" fill="url(#WhiteBlackGradient)"/><path d="   M 1813.7142857142858 108.02666666666667   s 0 -6 6 -6   l 8.857142857142854 0   s 6 0 6 6   l 0 135.97333333333333    l -20.857142857142854 0    l 0 -135.97333333333333   z" fill-opacity="0.3" filter="url(#SaturateMinus)"/></g><!--            draw bars for data type 4--><g fill="rgb(79,168,57)" filter="none" id="ID_graph_4" opacity="1" stroke="none" stroke-opacity="1" stroke-width="0"><path d="   M 152.57142857142856 244   l 20.857142857142854 0   l 0 13.521333333333331   s 0 6 -6 6    l -8.857142857142854 0   s -6 0 -6 -6   l 0 -13.521333333333331   z"/><path d="   M 152.57142857142856 244   l 20.857142857142854 0   l 0 13.521333333333331   s 0 6 -6 6    l -8.857142857142854 0   s -6 0 -6 -6   l 0 -13.521333333333331   z" fill="url(#WhiteBlackGradient)"/><path d="   M 152.57142857142856 244   l 20.857142857142854 0   l 0 13.521333333333331   s 0 6 -6 6    l -8.857142857142854 0   s -6 0 -6 -6   l 0 -13.521333333333331   z" fill-opacity="0.3" filter="url(#SaturateMinus)"/><path d="   M 394.57142857142856 210.95733333333334   s 0 -6 6 -6   l 8.857142857142854 0   s 6 0 6 6   l 0 33.04266666666666    l -20.857142857142854 0    l 0 -33.04266666666666   z"/><path d="   M 394.57142857142856 210.95733333333334   s 0 -6 6 -6   l 8.857142857142854 0   s 6 0 6 6   l 0 33.04266666666666    l -20.857142857142854 0    l 0 -33.04266666666666   z" fill="url(#WhiteBlackGradient)"/><path d="   M 394.57142857142856 210.95733333333334   s 0 -6 6 -6   l 8.857142857142854 0   s 6 0 6 6   l 0 33.04266666666666    l -20.857142857142854 0    l 0 -33.04266666666666   z" fill-opacity="0.3" filter="url(#SaturateMinus)"/><path d="   M 636.5714285714286 244   l 20.857142857142854 0   l 0 52.56399999999999   s 0 6 -6 6    l -8.857142857142854 0   s -6 0 -6 -6   l 0 -52.56399999999999   z"/><path d="   M 636.5714285714286 244   l 20.857142857142854 0   l 0 52.56399999999999   s 0 6 -6 6    l -8.857142857142854 0   s -6 0 -6 -6   l 0 -52.56399999999999   z" fill="url(#WhiteBlackGradient)"/><path d="   M 636.5714285714286 244   l 20.857142857142854 0   l 0 52.56399999999999   s 0 6 -6 6    l -8.857142857142854 0   s -6 0 -6 -6   l 0 -52.56399999999999   z" fill-opacity="0.3" filter="url(#SaturateMinus)"/><path d="   M 878.5714285714286 171.91466666666668   s 0 -6 6 -6   l 8.857142857142854 0   s 6 0 6 6   l 0 72.08533333333332    l -20.857142857142854 0    l 0 -72.08533333333332   z"/><path d="   M 878.5714285714286 171.91466666666668   s 0 -6 6 -6   l 8.857142857142854 0   s 6 0 6 6   l 0 72.08533333333332    l -20.857142857142854 0    l 0 -72.08533333333332   z" fill="url(#WhiteBlackGradient)"/><path d="   M 878.5714285714286 171.91466666666668   s 0 -6 6 -6   l 8.857142857142854 0   s 6 0 6 6   l 0 72.08533333333332    l -20.857142857142854 0    l 0 -72.08533333333332   z" fill-opacity="0.3" filter="url(#SaturateMinus)"/><path d="   M 1120.5714285714284 244   l 20.857142857142854 0   l 0 91.60666666666667   s 0 6 -6 6    l -8.857142857142854 0   s -6 0 -6 -6   l 0 -91.60666666666667   z"/><path d="   M 1120.5714285714284 244   l 20.857142857142854 0   l 0 91.60666666666667   s 0 6 -6 6    l -8.857142857142854 0   s -6 0 -6 -6   l 0 -91.60666666666667   z" fill="url(#WhiteBlackGradient)"/><path d="   M 1120.5714285714284 244   l 20.857142857142854 0   l 0 91.60666666666667   s 0 6 -6 6    l -8.857142857142854 0   s -6 0 -6 -6   l 0 -91.60666666666667   z" fill-opacity="0.3" filter="url(#SaturateMinus)"/><path d="   M 1362.5714285714284 132.872   s 0 -6 6 -6   l 8.857142857142854 0   s 6 0 6 6   l 0 111.12799999999999    l -20.857142857142854 0    l 0 -111.12799999999999   z"/><path d="   M 1362.5714285714284 132.872   s 0 -6 6 -6   l 8.857142857142854 0   s 6 0 6 6   l 0 111.12799999999999    l -20.857142857142854 0    l 0 -111.12799999999999   z" fill="url(#WhiteBlackGradient)"/><path d="   M 1362.5714285714284 132.872   s 0 -6 6 -6   l 8.857142857142854 0   s 6 0 6 6   l 0 111.12799999999999    l -20.857142857142854 0    l 0 -111.12799999999999   z" fill-opacity="0.3" filter="url(#SaturateMinus)"/><path d="   M 1604.5714285714284 244   l 20.857142857142854 0   l 0 130.64933333333332   s 0 6 -6 6    l -8.857142857142854 0   s -6 0 -6 -6   l 0 -130.64933333333332   z"/><path d="   M 1604.5714285714284 244   l 20.857142857142854 0   l 0 130.64933333333332   s 0 6 -6 6    l -8.857142857142854 0   s -6 0 -6 -6   l 0 -130.64933333333332   z" fill="url(#WhiteBlackGradient)"/><path d="   M 1604.5714285714284 244   l 20.857142857142854 0   l 0 130.64933333333332   s 0 6 -6 6    l -8.857142857142854 0   s -6 0 -6 -6   l 0 -130.64933333333332   z" fill-opacity="0.3" filter="url(#SaturateMinus)"/><path d="   M 1846.5714285714284 93.82933333333335   s 0 -6 6 -6   l 8.857142857142854 0   s 6 0 6 6   l 0 150.17066666666665    l -20.857142857142854 0    l 0 -150.17066666666665   z"/><path d="   M 1846.5714285714284 93.82933333333335   s 0 -6 6 -6   l 8.857142857142854 0   s 6 0 6 6   l 0 150.17066666666665    l -20.857142857142854 0    l 0 -150.17066666666665   z" fill="url(#WhiteBlackGradient)"/><path d="   M 1846.5714285714284 93.82933333333335   s 0 -6 6 -6   l 8.857142857142854 0   s 6 0 6 6   l 0 150.17066666666665    l -20.857142857142854 0    l 0 -150.17066666666665   z" fill-opacity="0.3" filter="url(#SaturateMinus)"/></g><!--            draw bars for data type 5--><g fill="rgb(217,87,0)" filter="none" id="ID_graph_5" opacity="1" stroke="none" stroke-opacity="1" stroke-width="0"><path d="   M 185.42857142857142 244   l 20.857142857142854 0   l 0 15.473466666666667   s 0 6 -6 6    l -8.857142857142854 0   s -6 0 -6 -6   l 0 -15.473466666666667   z"/><path d="   M 185.42857142857142 244   l 20.857142857142854 0   l 0 15.473466666666667   s 0 6 -6 6    l -8.857142857142854 0   s -6 0 -6 -6   l 0 -15.473466666666667   z" fill="url(#WhiteBlackGradient)"/><path d="   M 185.42857142857142 244   l 20.857142857142854 0   l 0 15.473466666666667   s 0 6 -6 6    l -8.857142857142854 0   s -6 0 -6 -6   l 0 -15.473466666666667   z" fill-opacity="0.3" filter="url(#SaturateMinus)"/><path d="   M 427.42857142857144 207.05306666666667   s 0 -6 6 -6   l 8.857142857142854 0   s 6 0 6 6   l 0 36.946933333333334    l -20.857142857142854 0    l 0 -36.946933333333334   z"/><path d="   M 427.42857142857144 207.05306666666667   s 0 -6 6 -6   l 8.857142857142854 0   s 6 0 6 6   l 0 36.946933333333334    l -20.857142857142854 0    l 0 -36.946933333333334   z" fill="url(#WhiteBlackGradient)"/><path d="   M 427.42857142857144 207.05306666666667   s 0 -6 6 -6   l 8.857142857142854 0   s 6 0 6 6   l 0 36.946933333333334    l -20.857142857142854 0    l 0 -36.946933333333334   z" fill-opacity="0.3" filter="url(#SaturateMinus)"/><path d="   M 669.4285714285714 244   l 20.857142857142854 0   l 0 58.42039999999999   s 0 6 -6 6    l -8.857142857142854 0   s -6 0 -6 -6   l 0 -58.42039999999999   z"/><path d="   M 669.4285714285714 244   l 20.857142857142854 0   l 0 58.42039999999999   s 0 6 -6 6    l -8.857142857142854 0   s -6 0 -6 -6   l 0 -58.42039999999999   z" fill="url(#WhiteBlackGradient)"/><path d="   M 669.4285714285714 244   l 20.857142857142854 0   l 0 58.42039999999999   s 0 6 -6 6    l -8.857142857142854 0   s -6 0 -6 -6   l 0 -58.42039999999999   z" fill-opacity="0.3" filter="url(#SaturateMinus)"/><path d="   M 911.4285714285714 164.10613333333333   s 0 -6 6 -6   l 8.857142857142854 0   s 6 0 6 6   l 0 79.89386666666667    l -20.857142857142854 0    l 0 -79.89386666666667   z"/><path d="   M 911.4285714285714 164.10613333333333   s 0 -6 6 -6   l 8.857142857142854 0   s 6 0 6 6   l 0 79.89386666666667    l -20.857142857142854 0    l 0 -79.89386666666667   z" fill="url(#WhiteBlackGradient)"/><path d="   M 911.4285714285714 164.10613333333333   s 0 -6 6 -6   l 8.857142857142854 0   s 6 0 6 6   l 0 79.89386666666667    l -20.857142857142854 0    l 0 -79.89386666666667   z" fill-opacity="0.3" filter="url(#SaturateMinus)"/><path d="   M 1153.4285714285713 244   l 20.857142857142854 0   l 0 101.36733333333333   s 0 6 -6 6    l -8.857142857142854 0   s -6 0 -6 -6   l 0 -101.36733333333333   z"/><path d="   M 1153.4285714285713 244   l 20.857142857142854 0   l 0 101.36733333333333   s 0 6 -6 6    l -8.857142857142854 0   s -6 0 -6 -6   l 0 -101.36733333333333   z" fill="url(#WhiteBlackGradient)"/><path d="   M 1153.4285714285713 244   l 20.857142857142854 0   l 0 101.36733333333333   s 0 6 -6 6    l -8.857142857142854 0   s -6 0 -6 -6   l 0 -101.36733333333333   z" fill-opacity="0.3" filter="url(#SaturateMinus)"/><path d="   M 1395.4285714285713 121.15920000000003   s 0 -6 6 -6   l 8.857142857142854 0   s 6 0 6 6   l 0 122.84079999999997    l -20.857142857142854 0    l 0 -122.84079999999997   z"/><path d="   M 1395.4285714285713 121.15920000000003   s 0 -6 6 -6   l 8.857142857142854 0   s 6 0 6 6   l 0 122.84079999999997    l -20.857142857142854 0    l 0 -122.84079999999997   z" fill="url(#WhiteBlackGradient)"/><path d="   M 1395.4285714285713 121.15920000000003   s 0 -6 6 -6   l 8.857142857142854 0   s 6 0 6 6   l 0 122.84079999999997    l -20.857142857142854 0    l 0 -122.84079999999997   z" fill-opacity="0.3" filter="url(#SaturateMinus)"/><path d="   M 1637.4285714285713 244   l 20.857142857142854 0   l 0 144.31426666666664   s 0 6 -6 6    l -8.857142857142854 0   s -6 0 -6 -6   l 0 -144.31426666666664   z"/><path d="   M 1637.4285714285713 244   l 20.857142857142854 0   l 0 144.31426666666664   s 0 6 -6 6    l -8.857142857142854 0   s -6 0 -6 -6   l 0 -144.31426666666664   z" fill="url(#WhiteBlackGradient)"/><path d="   M 1637.4285714285713 244   l 20.857142857142854 0   l 0 144.31426666666664   s 0 6 -6 6    l -8.857142857142854 0   s -6 0 -6 -6   l 0 -144.31426666666664   z" fill-opacity="0.3" filter="url(#SaturateMinus)"/><path d="   M 1879.4285714285713 78.21226666666666   s 0 -6 6 -6   l 8.857142857142854 0   s 6 0 6 6   l 0 165.78773333333334    l -20.857142857142854 0    l 0 -165.78773333333334   z"/><path d="   M 1879.4285714285713 78.21226666666666   s 0 -6 6 -6   l 8.857142857142854 0   s 6 0 6 6   l 0 165.78773333333334    l -20.857142857142854 0    l 0 -165.78773333333334   z" fill="url(#WhiteBlackGradient)"/><path d="   M 1879.4285714285713 78.21226666666666   s 0 -6 6 -6   l 8.857142857142854 0   s 6 0 6 6   l 0 165.78773333333334    l -20.857142857142854 0    l 0 -165.78773333333334   z" fill-opacity="0.3" filter="url(#SaturateMinus)"/></g><!--            draw bars for data type 6--><g fill="rgb(29,157,242)" filter="none" id="ID_graph_6" opacity="1" stroke="none" stroke-opacity="1" stroke-width="0"><path d="   M 218.28571428571428 244   l 20.857142857142854 0   l 0 17.620813333333334   s 0 6 -6 6    l -8.857142857142854 0   s -6 0 -6 -6   l 0 -17.620813333333334   z"/><path d="   M 218.28571428571428 244   l 20.857142857142854 0   l 0 17.620813333333334   s 0 6 -6 6    l -8.857142857142854 0   s -6 0 -6 -6   l 0 -17.620813333333334   z" fill="url(#WhiteBlackGradient)"/><path d="   M 218.28571428571428 244   l 20.857142857142854 0   l 0 17.620813333333334   s 0 6 -6 6    l -8.857142857142854 0   s -6 0 -6 -6   l 0 -17.620813333333334   z" fill-opacity="0.3" filter="url(#SaturateMinus)"/><path d="   M 460.2857142857143 202.75837333333334   s 0 -6 6 -6   l 8.857142857142854 0   s 6 0 6 6   l 0 41.24162666666667    l -20.857142857142854 0    l 0 -41.24162666666667   z"/><path d="   M 460.2857142857143 202.75837333333334   s 0 -6 6 -6   l 8.857142857142854 0   s 6 0 6 6   l 0 41.24162666666667    l -20.857142857142854 0    l 0 -41.24162666666667   z" fill="url(#WhiteBlackGradient)"/><path d="   M 460.2857142857143 202.75837333333334   s 0 -6 6 -6   l 8.857142857142854 0   s 6 0 6 6   l 0 41.24162666666667    l -20.857142857142854 0    l 0 -41.24162666666667   z" fill-opacity="0.3" filter="url(#SaturateMinus)"/><path d="   M 702.2857142857142 244   l 20.857142857142854 0   l 0 64.86243999999999   s 0 6 -6 6    l -8.857142857142854 0   s -6 0 -6 -6   l 0 -64.86243999999999   z"/><path d="   M 702.2857142857142 244   l 20.857142857142854 0   l 0 64.86243999999999   s 0 6 -6 6    l -8.857142857142854 0   s -6 0 -6 -6   l 0 -64.86243999999999   z" fill="url(#WhiteBlackGradient)"/><path d="   M 702.2857142857142 244   l 20.857142857142854 0   l 0 64.86243999999999   s 0 6 -6 6    l -8.857142857142854 0   s -6 0 -6 -6   l 0 -64.86243999999999   z" fill-opacity="0.3" filter="url(#SaturateMinus)"/><path d="   M 944.2857142857142 155.51674666666668   s 0 -6 6 -6   l 8.857142857142854 0   s 6 0 6 6   l 0 88.48325333333334    l -20.857142857142854 0    l 0 -88.48325333333334   z"/><path d="   M 944.2857142857142 155.51674666666668   s 0 -6 6 -6   l 8.857142857142854 0   s 6 0 6 6   l 0 88.48325333333334    l -20.857142857142854 0    l 0 -88.48325333333334   z" fill="url(#WhiteBlackGradient)"/><path d="   M 944.2857142857142 155.51674666666668   s 0 -6 6 -6   l 8.857142857142854 0   s 6 0 6 6   l 0 88.48325333333334    l -20.857142857142854 0    l 0 -88.48325333333334   z" fill-opacity="0.3" filter="url(#SaturateMinus)"/><path d="   M 1186.2857142857142 244   l 20.857142857142854 0   l 0 112.10406666666667   s 0 6 -6 6    l -8.857142857142854 0   s -6 0 -6 -6   l 0 -112.10406666666667   z"/><path d="   M 1186.2857142857142 244   l 20.857142857142854 0   l 0 112.10406666666667   s 0 6 -6 6    l -8.857142857142854 0   s -6 0 -6 -6   l 0 -112.10406666666667   z" fill="url(#WhiteBlackGradient)"/><path d="   M 1186.2857142857142 244   l 20.857142857142854 0   l 0 112.10406666666667   s 0 6 -6 6    l -8.857142857142854 0   s -6 0 -6 -6   l 0 -112.10406666666667   z" fill-opacity="0.3" filter="url(#SaturateMinus)"/><path d="   M 1428.2857142857142 108.27512000000002   s 0 -6 6 -6   l 8.857142857142854 0   s 6 0 6 6   l 0 135.72487999999998    l -20.857142857142854 0    l 0 -135.72487999999998   z"/><path d="   M 1428.2857142857142 108.27512000000002   s 0 -6 6 -6   l 8.857142857142854 0   s 6 0 6 6   l 0 135.72487999999998    l -20.857142857142854 0    l 0 -135.72487999999998   z" fill="url(#WhiteBlackGradient)"/><path d="   M 1428.2857142857142 108.27512000000002   s 0 -6 6 -6   l 8.857142857142854 0   s 6 0 6 6   l 0 135.72487999999998    l -20.857142857142854 0    l 0 -135.72487999999998   z" fill-opacity="0.3" filter="url(#SaturateMinus)"/><path d="   M 1670.2857142857142 244   l 20.857142857142854 0   l 0 159.34569333333332   s 0 6 -6 6    l -8.857142857142854 0   s -6 0 -6 -6   l 0 -159.34569333333332   z"/><path d="   M 1670.2857142857142 244   l 20.857142857142854 0   l 0 159.34569333333332   s 0 6 -6 6    l -8.857142857142854 0   s -6 0 -6 -6   l 0 -159.34569333333332   z" fill="url(#WhiteBlackGradient)"/><path d="   M 1670.2857142857142 244   l 20.857142857142854 0   l 0 159.34569333333332   s 0 6 -6 6    l -8.857142857142854 0   s -6 0 -6 -6   l 0 -159.34569333333332   z" fill-opacity="0.3" filter="url(#SaturateMinus)"/><path d="   M 1912.2857142857142 61.033493333333325   s 0 -6 6 -6   l 8.857142857142854 0   s 6 0 6 6   l 0 182.96650666666667    l -20.857142857142854 0    l 0 -182.96650666666667   z"/><path d="   M 1912.2857142857142 61.033493333333325   s 0 -6 6 -6   l 8.857142857142854 0   s 6 0 6 6   l 0 182.96650666666667    l -20.857142857142854 0    l 0 -182.96650666666667   z" fill="url(#WhiteBlackGradient)"/><path d="   M 1912.2857142857142 61.033493333333325   s 0 -6 6 -6   l 8.857142857142854 0   s 6 0 6 6   l 0 182.96650666666667    l -20.857142857142854 0    l 0 -182.96650666666667   z" fill-opacity="0.3" filter="url(#SaturateMinus)"/></g><!--            draw bars for data type 7--><g fill="rgb(181,207,50)" filter="none" id="ID_graph_7" opacity="1" stroke="none" stroke-opacity="1" stroke-width="0"><path d="   M 251.1428571428571 244   l 20.857142857142854 0   l 0 19.982894666666663   s 0 6 -6 6    l -8.857142857142854 0   s -6 0 -6 -6   l 0 -19.982894666666663   z"/><path d="   M 251.1428571428571 244   l 20.857142857142854 0   l 0 19.982894666666663   s 0 6 -6 6    l -8.857142857142854 0   s -6 0 -6 -6   l 0 -19.982894666666663   z" fill="url(#WhiteBlackGradient)"/><path d="   M 251.1428571428571 244   l 20.857142857142854 0   l 0 19.982894666666663   s 0 6 -6 6    l -8.857142857142854 0   s -6 0 -6 -6   l 0 -19.982894666666663   z" fill-opacity="0.3" filter="url(#SaturateMinus)"/><path d="   M 493.1428571428571 198.03421066666667   s 0 -6 6 -6   l 8.857142857142854 0   s 6 0 6 6   l 0 45.965789333333326    l -20.857142857142854 0    l 0 -45.965789333333326   z"/><path d="   M 493.1428571428571 198.03421066666667   s 0 -6 6 -6   l 8.857142857142854 0   s 6 0 6 6   l 0 45.965789333333326    l -20.857142857142854 0    l 0 -45.965789333333326   z" fill="url(#WhiteBlackGradient)"/><path d="   M 493.1428571428571 198.03421066666667   s 0 -6 6 -6   l 8.857142857142854 0   s 6 0 6 6   l 0 45.965789333333326    l -20.857142857142854 0    l 0 -45.965789333333326   z" fill-opacity="0.3" filter="url(#SaturateMinus)"/><path d="   M 735.1428571428571 244   l 20.857142857142854 0   l 0 71.94868399999999   s 0 6 -6 6    l -8.857142857142854 0   s -6 0 -6 -6   l 0 -71.94868399999999   z"/><path d="   M 735.1428571428571 244   l 20.857142857142854 0   l 0 71.94868399999999   s 0 6 -6 6    l -8.857142857142854 0   s -6 0 -6 -6   l 0 -71.94868399999999   z" fill="url(#WhiteBlackGradient)"/><path d="   M 735.1428571428571 244   l 20.857142857142854 0   l 0 71.94868399999999   s 0 6 -6 6    l -8.857142857142854 0   s -6 0 -6 -6   l 0 -71.94868399999999   z" fill-opacity="0.3" filter="url(#SaturateMinus)"/><path d="   M 977.1428571428571 146.06842133333333   s 0 -6 6 -6   l 8.857142857142854 0   s 6 0 6 6   l 0 97.93157866666665    l -20.857142857142854 0    l 0 -97.93157866666665   z"/><path d="   M 977.1428571428571 146.06842133333333   s 0 -6 6 -6   l 8.857142857142854 0   s 6 0 6 6   l 0 97.93157866666665    l -20.857142857142854 0    l 0 -97.93157866666665   z" fill="url(#WhiteBlackGradient)"/><path d="   M 977.1428571428571 146.06842133333333   s 0 -6 6 -6   l 8.857142857142854 0   s 6 0 6 6   l 0 97.93157866666665    l -20.857142857142854 0    l 0 -97.93157866666665   z" fill-opacity="0.3" filter="url(#SaturateMinus)"/><path d="   M 1219.142857142857 244   l 20.857142857142854 0   l 0 123.91447333333335   s 0 6 -6 6    l -8.857142857142854 0   s -6 0 -6 -6   l 0 -123.91447333333335   z"/><path d="   M 1219.142857142857 244   l 20.857142857142854 0   l 0 123.91447333333335   s 0 6 -6 6    l -8.857142857142854 0   s -6 0 -6 -6   l 0 -123.91447333333335   z" fill="url(#WhiteBlackGradient)"/><path d="   M 1219.142857142857 244   l 20.857142857142854 0   l 0 123.91447333333335   s 0 6 -6 6    l -8.857142857142854 0   s -6 0 -6 -6   l 0 -123.91447333333335   z" fill-opacity="0.3" filter="url(#SaturateMinus)"/><path d="   M 1461.142857142857 94.10263200000003   s 0 -6 6 -6   l 8.857142857142854 0   s 6 0 6 6   l 0 149.89736799999997    l -20.857142857142854 0    l 0 -149.89736799999997   z"/><path d="   M 1461.142857142857 94.10263200000003   s 0 -6 6 -6   l 8.857142857142854 0   s 6 0 6 6   l 0 149.89736799999997    l -20.857142857142854 0    l 0 -149.89736799999997   z" fill="url(#WhiteBlackGradient)"/><path d="   M 1461.142857142857 94.10263200000003   s 0 -6 6 -6   l 8.857142857142854 0   s 6 0 6 6   l 0 149.89736799999997    l -20.857142857142854 0    l 0 -149.89736799999997   z" fill-opacity="0.3" filter="url(#SaturateMinus)"/><path d="   M 1703.142857142857 244   l 20.857142857142854 0   l 0 175.88026266666665   s 0 6 -6 6    l -8.857142857142854 0   s -6 0 -6 -6   l 0 -175.88026266666665   z"/><path d="   M 1703.142857142857 244   l 20.857142857142854 0   l 0 175.88026266666665   s 0 6 -6 6    l -8.857142857142854 0   s -6 0 -6 -6   l 0 -175.88026266666665   z" fill="url(#WhiteBlackGradient)"/><path d="   M 1703.142857142857 244   l 20.857142857142854 0   l 0 175.88026266666665   s 0 6 -6 6    l -8.857142857142854 0   s -6 0 -6 -6   l 0 -175.88026266666665   z" fill-opacity="0.3" filter="url(#SaturateMinus)"/><path d="   M 1945.142857142857 42.136842666666695   s 0 -6 6 -6   l 8.857142857142854 0   s 6 0 6 6   l 0 201.8631573333333    l -20.857142857142854 0    l 0 -201.8631573333333   z"/><path d="   M 1945.142857142857 42.136842666666695   s 0 -6 6 -6   l 8.857142857142854 0   s 6 0 6 6   l 0 201.8631573333333    l -20.857142857142854 0    l 0 -201.8631573333333   z" fill="url(#WhiteBlackGradient)"/><path d="   M 1945.142857142857 42.136842666666695   s 0 -6 6 -6   l 8.857142857142854 0   s 6 0 6 6   l 0 201.8631573333333    l -20.857142857142854 0    l 0 -201.8631573333333   z" fill-opacity="0.3" filter="url(#SaturateMinus)"/></g></g></svg>