<?xml version="1.0" encoding="UTF-8" standalone="no" ?><svg xmlns="http://www.w3.org/2000/svg" id="ID_svg" viewBox="0 0 1168 500" viewport-fill="white" viewport-fill-opacity="0" xmlns:exsl4D="http://www.4D.com" xmlns:math="http://exslt.org/math" xmlns:xlink="http://www.w3.org/1999/xlink"><!--gradient styles--><defs><filter id="soft_blur"><feGaussianBlur in="SourceGraphic" result="BlurAlpha" stdDeviation="1"/></filter><filter id="pastel"><feGaussianBlur in="SourceAlpha" result="blur" stdDeviation="2"/><feOffset dx="6" dy="6" in="blur" result="offsetBlur"/><feComposite in="SourceGraphic" in2="offsetBlur" operator="in" result="specOut"/></filter><filter id="blur_shadow"><feGaussianBlur in="SourceAlpha" result="blur" stdDeviation="3"/><feOffset dx="4" dy="2" in="blur" result="offsetBlur"/><feBlend in="SourceGraphic" in2="offsetBlur" mode="normal"/></filter><filter filterUnits="objectBoundingBox" id="Shadow"><feGaussianBlur in="SourceAlpha" result="flou" stdDeviation="0"/><feColorMatrix in="SourceAlpha" result="flouBlue" type="matrix" values=" 0 0 0 0 0                      0 0 0 0 0                     0 0 0 0 0                      0 0 0 0.3 0"/><feOffset dx="4" dy="4" in="flouBlue" result="flouDecalage"/><feBlend in="SourceGraphic" in2="flouDecalage" mode="normal"/></filter><filter filterUnits="objectBoundingBox" height="100%" id="SaturateMinus" width="100%" x="0%" y="0%"><feColorMatrix in="SourceGraphic" type="saturate" values="0.5"/></filter><filter filterUnits="objectBoundingBox" height="100%" id="SaturatePlus" width="100%" x="0%" y="0%"><feColorMatrix in="SourceGraphic" type="saturate" values="1.4"/></filter><linearGradient id="BlackGradient"><stop offset="0%" style="stop-color:rgb(0,0,0); stop-opacity:0"/><stop offset="100%" style="stop-color:rgb(0,0,0); stop-opacity:0.1"/></linearGradient><linearGradient id="WhiteGradient" x1="0%" x2="100%" y1="0%" y2="0%"><stop offset="0%" style="stop-color:rgb(255,255,255); stop-opacity:0.3"/><stop offset="100%" style="stop-color:rgb(255,255,255);stop-opacity:0"/></linearGradient><linearGradient id="WhiteBlackGradient" x1="0%" x2="100%" y1="0%" y2="0%"><stop offset="0%" style="stop-color:rgb(255,255,255); stop-opacity:0.15"/><stop offset="100%" style="stop-color:rgb(0,0,0);stop-opacity:0.15"/></linearGradient><linearGradient id="Black0Black1Gradient" x1="0%" x2="0%" y1="0%" y2="100%"><stop offset="0%" style="stop-color:rgb(0,0,0); stop-opacity:0"/><stop offset="100%" style="stop-color:rgb(0,0,0);stop-opacity:0.05"/></linearGradient></defs><!--global stroke and font styles--><g id="ID_globals" style="fill:black;stroke:none;font-family:Arial;font-size:12px;font-weight:normal;font-style:normal;text-decoration:none;shape-rendering:crispEdges"><!--draw title--><!--draw legend--><!--draw graph background--><rect fill="rgb(168,168,168)" fill-opacity="1" height="446" id="ID_background_shadow" rx="10" ry="10" stroke="none" visibility="visible" width="1120" x="39" y="23"/><g fill="rgb(229,229,229)" id="ID_background" visibility="visible"><rect height="446" rx="10" ry="10" stroke="none" width="1120" x="38" y="22"/><rect fill="url(#Black0Black1Gradient)" height="446" rx="10" ry="10" stroke="none" width="1120" x="38" y="22"/></g><clipPath id="ID_backgroundClipPath"><rect height="447" rx="10" ry="10" width="1121" x="38" y="22"/></clipPath><!--draw Y grid lines--><!--draw Y grid lines SHADOWS--><!--draw X grid lines--><!--draw X grid lines SHADOWS --><!--draw y=0 axe--><g id="ID_y0_axis" stroke="rgb(100,100,100)" stroke-width="1" visibility="visible"><line x1="38" x2="1158" y1="276.8571428571429" y2="276.8571428571429"/></g><!--draw axis x labels--><g id="ID_x_values" style="fill:black;stroke:none;font-family:Arial;font-size:12px;font-weight:normal;font-style:normal;text-decoration:none;filter:none"><text text-anchor="middle" x="111" y="486.8">PT8H0M0S</text><text text-anchor="middle" x="251" y="486.8">PT9H0M0S</text><text text-anchor="middle" x="391" y="486.8">PT10H0M0S</text><text text-anchor="middle" x="531" y="486.8">PT11H0M0S</text><text text-anchor="middle" x="671" y="486.8">PT11H15M0S</text><text text-anchor="middle" x="811" y="486.8">PT14H45M0S</text><text text-anchor="middle" x="951" y="486.8">PT15H0M0S</text><text text-anchor="middle" x="1091" y="486.8">PT16H0M0S</text></g><!--draw axis y labels--><g id="ID_y_values" style="fill:black;stroke:none;font-family:Arial;font-size:12px;font-weight:normal;font-style:normal;text-decoration:none;filter:none"><text text-anchor="end" x="28" y="472.8">-15</text><text text-anchor="end" x="28" y="409.0857142857143">-10</text><text text-anchor="end" x="28" y="345.37142857142857">-5</text><text text-anchor="end" x="28" y="281.6571428571429">0</text><text text-anchor="end" x="28" y="217.94285714285718">5</text><text text-anchor="end" x="28" y="154.22857142857146">10</text><text text-anchor="end" x="28" y="90.51428571428572">15</text><text text-anchor="end" x="28" y="26.800000000000058">20</text></g><!--draw bars SHADOWS--><g clip-path="url(#ID_BackgroundClipPath)" filter="none" id="allGroups" shape-rendering="auto"><!--              draw bars shadows for data type 1--><g fill="black" fill-opacity="0.2" id="ID_graph_shadow_1"><rect height="12.742857142857133" rx="0" ry="0" width="100" x="61" y="276.8571428571429"/><rect height="25.485714285714295" rx="0" ry="0" width="100" x="201" y="251.3714285714286"/><rect height="38.2285714285714" rx="0" ry="0" width="100" x="341" y="276.8571428571429"/><rect height="50.97142857142856" rx="0" ry="0" width="100" x="481" y="225.88571428571433"/><rect height="63.71428571428572" rx="0" ry="0" width="100" x="621" y="276.8571428571429"/><rect height="76.45714285714286" rx="0" ry="0" width="100" x="761" y="200.40000000000003"/><rect height="89.19999999999999" rx="0" ry="0" width="100" x="901" y="276.8571428571429"/><rect height="101.94285714285712" rx="0" ry="0" width="100" x="1041" y="174.91428571428577"/></g><!--              draw bars shadows for data type 2--><g fill="black" fill-opacity="0.2" id="ID_graph_shadow_2"><path d="   M 61 289.6   l 100 0   l 0 4.017142857142858   s 0 10 -10 10    l -80 0   s -10 0 -10 -10   l 0 -4.017142857142858   z"/><path d="   M 201 233.3371428571429   s 0 -10 10 -10   l 80 0   s 10 0 10 10   l 0 18.034285714285716    l -100 0    l 0 -18.034285714285716   z"/><path d="   M 341 315.0857142857143   l 100 0   l 0 32.05142857142857   s 0 10 -10 10    l -80 0   s -10 0 -10 -10   l 0 -32.05142857142857   z"/><path d="   M 481 179.8171428571429   s 0 -10 10 -10   l 80 0   s 10 0 10 10   l 0 46.06857142857143    l -100 0    l 0 -46.06857142857143   z"/><path d="   M 621 340.57142857142856   l 100 0   l 0 60.08571428571429   s 0 10 -10 10    l -80 0   s -10 0 -10 -10   l 0 -60.08571428571429   z"/><path d="   M 761 126.29714285714292   s 0 -10 10 -10   l 80 0   s 10 0 10 10   l 0 74.10285714285712    l -100 0    l 0 -74.10285714285712   z"/><path d="   M 901 366.0571428571428   l 100 0   l 0 88.12   s 0 10 -10 10    l -80 0   s -10 0 -10 -10   l 0 -88.12   z"/><path d="   M 1041 72.7771428571429   s 0 -10 10 -10   l 80 0   s 10 0 10 10   l 0 102.13714285714286    l -100 0    l 0 -102.13714285714286   z"/></g></g><!--draw bars--><g filter="none" id="allGroups" shape-rendering="auto"><!--              draw bars for data type 1--><g fill="rgb(0,178,195)" fill-opacity="1" id="ID_graph_1" stroke="black" stroke-opacity="0" stroke-width="0"><rect height="12.742857142857133" rx="0" ry="0" width="100" x="58" y="276.8571428571429"/><rect fill="url(#WhiteBlackGradient)" height="12.742857142857133" rx="0" ry="0" width="100" x="58" y="276.8571428571429"/><rect fill-opacity="0.3" filter="url(#SaturateMinus)" height="12.742857142857133" rx="0" ry="0" width="100" x="58" y="276.8571428571429"/><rect height="25.485714285714295" rx="0" ry="0" width="100" x="198" y="251.3714285714286"/><rect fill="url(#WhiteBlackGradient)" height="25.485714285714295" rx="0" ry="0" width="100" x="198" y="251.3714285714286"/><rect fill-opacity="0.3" filter="url(#SaturateMinus)" height="25.485714285714295" rx="0" ry="0" width="100" x="198" y="251.3714285714286"/><rect height="38.2285714285714" rx="0" ry="0" width="100" x="338" y="276.8571428571429"/><rect fill="url(#WhiteBlackGradient)" height="38.2285714285714" rx="0" ry="0" width="100" x="338" y="276.8571428571429"/><rect fill-opacity="0.3" filter="url(#SaturateMinus)" height="38.2285714285714" rx="0" ry="0" width="100" x="338" y="276.8571428571429"/><rect height="50.97142857142856" rx="0" ry="0" width="100" x="478" y="225.88571428571433"/><rect fill="url(#WhiteBlackGradient)" height="50.97142857142856" rx="0" ry="0" width="100" x="478" y="225.88571428571433"/><rect fill-opacity="0.3" filter="url(#SaturateMinus)" height="50.97142857142856" rx="0" ry="0" width="100" x="478" y="225.88571428571433"/><rect height="63.71428571428572" rx="0" ry="0" width="100" x="618" y="276.8571428571429"/><rect fill="url(#WhiteBlackGradient)" height="63.71428571428572" rx="0" ry="0" width="100" x="618" y="276.8571428571429"/><rect fill-opacity="0.3" filter="url(#SaturateMinus)" height="63.71428571428572" rx="0" ry="0" width="100" x="618" y="276.8571428571429"/><rect height="76.45714285714286" rx="0" ry="0" width="100" x="758" y="200.40000000000003"/><rect fill="url(#WhiteBlackGradient)" height="76.45714285714286" rx="0" ry="0" width="100" x="758" y="200.40000000000003"/><rect fill-opacity="0.3" filter="url(#SaturateMinus)" height="76.45714285714286" rx="0" ry="0" width="100" x="758" y="200.40000000000003"/><rect height="89.19999999999999" rx="0" ry="0" width="100" x="898" y="276.8571428571429"/><rect fill="url(#WhiteBlackGradient)" height="89.19999999999999" rx="0" ry="0" width="100" x="898" y="276.8571428571429"/><rect fill-opacity="0.3" filter="url(#SaturateMinus)" height="89.19999999999999" rx="0" ry="0" width="100" x="898" y="276.8571428571429"/><rect height="101.94285714285712" rx="0" ry="0" width="100" x="1038" y="174.91428571428577"/><rect fill="url(#WhiteBlackGradient)" height="101.94285714285712" rx="0" ry="0" width="100" x="1038" y="174.91428571428577"/><rect fill-opacity="0.3" filter="url(#SaturateMinus)" height="101.94285714285712" rx="0" ry="0" width="100" x="1038" y="174.91428571428577"/></g><!--              draw bars for data type 2--><g fill="rgb(255,195,56)" fill-opacity="1" id="ID_graph_2" stroke="black" stroke-opacity="0" stroke-width="0"><path d="   M 58 289.6   l 100 0   l 0 4.017142857142858   s 0 10 -10 10    l -80 0   s -10 0 -10 -10   l 0 -4.017142857142858   z"/><path d="   M 58 289.6   l 100 0   l 0 4.017142857142858   s 0 10 -10 10    l -80 0   s -10 0 -10 -10   l 0 -4.017142857142858   z" fill="url(#WhiteBlackGradient)"/><path d="   M 58 289.6   l 100 0   l 0 4.017142857142858   s 0 10 -10 10    l -80 0   s -10 0 -10 -10   l 0 -4.017142857142858   z" fill-opacity="0.3" filter="url(#SaturateMinus)"/><path d="   M 198 233.3371428571429   s 0 -10 10 -10   l 80 0   s 10 0 10 10   l 0 18.034285714285716    l -100 0    l 0 -18.034285714285716   z"/><path d="   M 198 233.3371428571429   s 0 -10 10 -10   l 80 0   s 10 0 10 10   l 0 18.034285714285716    l -100 0    l 0 -18.034285714285716   z" fill="url(#WhiteBlackGradient)"/><path d="   M 198 233.3371428571429   s 0 -10 10 -10   l 80 0   s 10 0 10 10   l 0 18.034285714285716    l -100 0    l 0 -18.034285714285716   z" fill-opacity="0.3" filter="url(#SaturateMinus)"/><path d="   M 338 315.0857142857143   l 100 0   l 0 32.05142857142857   s 0 10 -10 10    l -80 0   s -10 0 -10 -10   l 0 -32.05142857142857   z"/><path d="   M 338 315.0857142857143   l 100 0   l 0 32.05142857142857   s 0 10 -10 10    l -80 0   s -10 0 -10 -10   l 0 -32.05142857142857   z" fill="url(#WhiteBlackGradient)"/><path d="   M 338 315.0857142857143   l 100 0   l 0 32.05142857142857   s 0 10 -10 10    l -80 0   s -10 0 -10 -10   l 0 -32.05142857142857   z" fill-opacity="0.3" filter="url(#SaturateMinus)"/><path d="   M 478 179.8171428571429   s 0 -10 10 -10   l 80 0   s 10 0 10 10   l 0 46.06857142857143    l -100 0    l 0 -46.06857142857143   z"/><path d="   M 478 179.8171428571429   s 0 -10 10 -10   l 80 0   s 10 0 10 10   l 0 46.06857142857143    l -100 0    l 0 -46.06857142857143   z" fill="url(#WhiteBlackGradient)"/><path d="   M 478 179.8171428571429   s 0 -10 10 -10   l 80 0   s 10 0 10 10   l 0 46.06857142857143    l -100 0    l 0 -46.06857142857143   z" fill-opacity="0.3" filter="url(#SaturateMinus)"/><path d="   M 618 340.57142857142856   l 100 0   l 0 60.08571428571429   s 0 10 -10 10    l -80 0   s -10 0 -10 -10   l 0 -60.08571428571429   z"/><path d="   M 618 340.57142857142856   l 100 0   l 0 60.08571428571429   s 0 10 -10 10    l -80 0   s -10 0 -10 -10   l 0 -60.08571428571429   z" fill="url(#WhiteBlackGradient)"/><path d="   M 618 340.57142857142856   l 100 0   l 0 60.08571428571429   s 0 10 -10 10    l -80 0   s -10 0 -10 -10   l 0 -60.08571428571429   z" fill-opacity="0.3" filter="url(#SaturateMinus)"/><path d="   M 758 126.29714285714292   s 0 -10 10 -10   l 80 0   s 10 0 10 10   l 0 74.10285714285712    l -100 0    l 0 -74.10285714285712   z"/><path d="   M 758 126.29714285714292   s 0 -10 10 -10   l 80 0   s 10 0 10 10   l 0 74.10285714285712    l -100 0    l 0 -74.10285714285712   z" fill="url(#WhiteBlackGradient)"/><path d="   M 758 126.29714285714292   s 0 -10 10 -10   l 80 0   s 10 0 10 10   l 0 74.10285714285712    l -100 0    l 0 -74.10285714285712   z" fill-opacity="0.3" filter="url(#SaturateMinus)"/><path d="   M 898 366.0571428571428   l 100 0   l 0 88.12   s 0 10 -10 10    l -80 0   s -10 0 -10 -10   l 0 -88.12   z"/><path d="   M 898 366.0571428571428   l 100 0   l 0 88.12   s 0 10 -10 10    l -80 0   s -10 0 -10 -10   l 0 -88.12   z" fill="url(#WhiteBlackGradient)"/><path d="   M 898 366.0571428571428   l 100 0   l 0 88.12   s 0 10 -10 10    l -80 0   s -10 0 -10 -10   l 0 -88.12   z" fill-opacity="0.3" filter="url(#SaturateMinus)"/><path d="   M 1038 72.7771428571429   s 0 -10 10 -10   l 80 0   s 10 0 10 10   l 0 102.13714285714286    l -100 0    l 0 -102.13714285714286   z"/><path d="   M 1038 72.7771428571429   s 0 -10 10 -10   l 80 0   s 10 0 10 10   l 0 102.13714285714286    l -100 0    l 0 -102.13714285714286   z" fill="url(#WhiteBlackGradient)"/><path d="   M 1038 72.7771428571429   s 0 -10 10 -10   l 80 0   s 10 0 10 10   l 0 102.13714285714286    l -100 0    l 0 -102.13714285714286   z" fill-opacity="0.3" filter="url(#SaturateMinus)"/></g></g></g></svg>