
<svg xmlns="http://www.w3.org/2000/svg" id="ID_svg" viewBox="0 0 1058 466" viewport-fill="darkblue" viewport-fill-opacity="0.25" xmlns:exsl4D="http://www.4D.com" xmlns:gFunc="http://gFunc" xmlns:math="http://exslt.org/math" xmlns:xlink="http://www.w3.org/1999/xlink">

  <!--gradient styles-->

  <defs>
    <filter id="soft_blur">
      <feGaussianBlur in="SourceGraphic" result="BlurAlpha" stdDeviation="1"/>
    </filter>
    <filter id="pastel">
      <feGaussianBlur in="SourceAlpha" result="blur" stdDeviation="2"/>
      <feOffset dx="6" dy="6" in="blur" result="offsetBlur"/>
      <feComposite in="SourceGraphic" in2="offsetBlur" operator="in" result="specOut"/>
    </filter>
    <filter id="blur_shadow">
      <feGaussianBlur in="SourceAlpha" result="blur" stdDeviation="3"/>
      <feOffset dx="4" dy="2" in="blur" result="offsetBlur"/>
      <feBlend in="SourceGraphic" in2="offsetBlur" mode="normal"/>
    </filter>
    <filter filterUnits="objectBoundingBox" id="Shadow">
      <feGaussianBlur in="SourceAlpha" result="flou" stdDeviation="0"/>
      <feColorMatrix in="SourceAlpha" result="flouBlue" type="matrix" values=" 0 0 0 0 0                      0 0 0 0 0                     0 0 0 0 0                      0 0 0 0.3 0"/>
      <feOffset dx="4" dy="4" in="flouBlue" result="flouDecalage"/>
      <feBlend in="SourceGraphic" in2="flouDecalage" mode="normal"/>
    </filter>
    <filter filterUnits="objectBoundingBox" height="100%" id="SaturateMinus" width="100%" x="0%" y="0%">
      <feColorMatrix in="SourceGraphic" type="saturate" values="0.5"/>
    </filter>
    <filter filterUnits="objectBoundingBox" height="100%" id="SaturatePlus" width="100%" x="0%" y="0%">
      <feColorMatrix in="SourceGraphic" type="saturate" values="1.4"/>
    </filter>
    <linearGradient id="BlackGradient">
      <stop offset="0%" style="stop-color:rgb(0,0,0); stop-opacity:0"/>
      <stop offset="100%" style="stop-color:rgb(0,0,0); stop-opacity:0.1"/>
    </linearGradient>
    <linearGradient id="WhiteGradient" x1="0%" x2="100%" y1="0%" y2="0%">
      <stop offset="0%" style="stop-color:rgb(255,255,255); stop-opacity:0.3"/>
      <stop offset="100%" style="stop-color:rgb(255,255,255);stop-opacity:0"/>
    </linearGradient>
    <linearGradient id="WhiteBlackGradient" x1="0%" x2="100%" y1="0%" y2="0%">
      <stop offset="0%" style="stop-color:rgb(255,255,255); stop-opacity:0.15"/>
      <stop offset="100%" style="stop-color:rgb(0,0,0);stop-opacity:0.15"/>
    </linearGradient>
    <linearGradient id="Black0Black1Gradient" x1="0%" x2="0%" y1="0%" y2="100%">
      <stop offset="0%" style="stop-color:rgb(0,0,0); stop-opacity:0"/>
      <stop offset="100%" style="stop-color:rgb(0,0,0);stop-opacity:0.05"/>
    </linearGradient>
  </defs>

  <!--global stroke and font styles-->

  <g id="ID_globals" style="fill:red;stroke:none;font-family:Arial;font-size:14px;font-weight:normal;font-style:normal;text-decoration:none;shape-rendering:crispEdges">
    <!--draw title-->
    <!--********************************draw graph background********************************-->
    <rect fill="darkgreen" height="400" id="ID_background_shadow" opacity="0.5" rx="10" ry="10" stroke="none" transform="translate(1,1)" visibility="visible" width="800" x="53" y="20"/>
    <g fill="lightgreen" id="ID_background" opacity="0.5" stroke="none" visibility="visible">
      <rect height="400" rx="10" ry="10" stroke="none" width="800" x="53" y="20"/>
      <rect fill="url(#Black0Black1Gradient)" height="400" rx="10" ry="10" stroke="none" width="800" x="53" y="20"/>
    </g>
    <clipPath id="ID_backgroundClipPath">
      <rect height="401" rx="10" ry="10" width="801" x="52" y="19"/>
    </clipPath>
    <!--********************************draw Y Labels********************************-->
    <g id="ID_y$value" style="fill:red;stroke:none;font-family:Arial;font-size:14px;font-weight:normal;font-style:normal;text-decoration:none;filter:none" visibility="visible">
      <text text-anchor="end" x="41" y="27">80</text>
      <text text-anchor="end" x="41" y="53.67">70</text>
      <text text-anchor="end" x="41" y="80.34">60</text>
      <text text-anchor="end" x="41" y="107.01">50</text>
      <text text-anchor="end" x="41" y="133.68">40</text>
      <text text-anchor="end" x="41" y="160.35">30</text>
      <text text-anchor="end" x="41" y="187.02">20</text>
      <text text-anchor="end" x="41" y="213.69">10</text>
      <text text-anchor="end" x="41" y="240.36">0</text>
      <text text-anchor="end" x="41" y="267.03">-10</text>
      <text text-anchor="end" x="41" y="293.7">-20</text>
      <text text-anchor="end" x="41" y="320.37">-30</text>
      <text text-anchor="end" x="41" y="347.04">-40</text>
      <text text-anchor="end" x="41" y="373.71">-50</text>
      <text text-anchor="end" x="41" y="400.38">-60</text>
      <text text-anchor="end" x="41" y="427.05">-70</text>
    </g>
    <!--********************************draw X Labels********************************-->
    <!--draw axis x labels-->
    <g id="ID_x$value" style="fill:red;stroke:none;font-family:Arial;font-size:14px;font-weight:normal;font-style:normal;text-decoration:none;filter:none" visibility="visible">
      <text text-anchor="middle" x="103" y="446">08:00:00</text>
      <text text-anchor="middle" x="203" y="446">09:00:00</text>
      <text text-anchor="middle" x="303" y="446">10:00:00</text>
      <text text-anchor="middle" x="403" y="446">11:00:00</text>
      <text text-anchor="middle" x="503" y="446">11:15:00</text>
      <text text-anchor="middle" x="603" y="446">14:45:00</text>
      <text text-anchor="middle" x="703" y="446">15:00:00</text>
      <text text-anchor="middle" x="803" y="446">16:00:00</text>
    </g>
    <g style="clip-path: url(#ID_backgroundClipPath)">
      <!--******************************** draw Y grid lines******************************** (Horizontal lines)-->
      <g id="ID_y_grid" stroke="#a8a8a8" stroke-width="1">
        <line x1="53" x2="853" y1="46.67" y2="46.67"/>
        <line x1="53" x2="853" y1="73.34" y2="73.34"/>
        <line x1="53" x2="853" y1="100.01" y2="100.01"/>
        <line x1="53" x2="853" y1="126.68" y2="126.68"/>
        <line x1="53" x2="853" y1="153.35" y2="153.35"/>
        <line x1="53" x2="853" y1="180.02" y2="180.02"/>
        <line x1="53" x2="853" y1="206.69" y2="206.69"/>
        <line x1="53" x2="853" y1="233.36" y2="233.36"/>
        <line x1="53" x2="853" y1="260.03" y2="260.03"/>
        <line x1="53" x2="853" y1="286.7" y2="286.7"/>
        <line x1="53" x2="853" y1="313.37" y2="313.37"/>
        <line x1="53" x2="853" y1="340.04" y2="340.04"/>
        <line x1="53" x2="853" y1="366.71" y2="366.71"/>
        <line x1="53" x2="853" y1="393.38" y2="393.38"/>
      </g>
      <!--draw Y grid lines SHADOWS-->
      <g id="ID_y_grid_shadow" stroke="#ffffff" stroke-width="1">
        <line transform="translate(0,1)" x1="53" x2="853" y1="46.67" y2="46.67"/>
        <line transform="translate(0,1)" x1="53" x2="853" y1="73.34" y2="73.34"/>
        <line transform="translate(0,1)" x1="53" x2="853" y1="100.01" y2="100.01"/>
        <line transform="translate(0,1)" x1="53" x2="853" y1="126.68" y2="126.68"/>
        <line transform="translate(0,1)" x1="53" x2="853" y1="153.35" y2="153.35"/>
        <line transform="translate(0,1)" x1="53" x2="853" y1="180.02" y2="180.02"/>
        <line transform="translate(0,1)" x1="53" x2="853" y1="206.69" y2="206.69"/>
        <line transform="translate(0,1)" x1="53" x2="853" y1="233.36" y2="233.36"/>
        <line transform="translate(0,1)" x1="53" x2="853" y1="260.03" y2="260.03"/>
        <line transform="translate(0,1)" x1="53" x2="853" y1="286.7" y2="286.7"/>
        <line transform="translate(0,1)" x1="53" x2="853" y1="313.37" y2="313.37"/>
        <line transform="translate(0,1)" x1="53" x2="853" y1="340.04" y2="340.04"/>
        <line transform="translate(0,1)" x1="53" x2="853" y1="366.71" y2="366.71"/>
        <line transform="translate(0,1)" x1="53" x2="853" y1="393.38" y2="393.38"/>
      </g>
      <g id="ID_y0_axis" stroke="rgb(100,100,100)" stroke-width="1" visibility="visible">
        <line x1="53" x2="853" y1="233.33" y2="233.33"/>
      </g>
      <!--********************************draw X grid lines******************************** (Vertical lines)-->
      <g id="ID_x_grid" stroke="#a8a8a8" stroke-width="1">
        <line x1="153" x2="153" y1="20" y2="420"/>
        <line x1="253" x2="253" y1="20" y2="420"/>
        <line x1="353" x2="353" y1="20" y2="420"/>
        <line x1="453" x2="453" y1="20" y2="420"/>
        <line x1="553" x2="553" y1="20" y2="420"/>
        <line x1="653" x2="653" y1="20" y2="420"/>
        <line x1="753" x2="753" y1="20" y2="420"/>
        <line x1="853" x2="853" y1="20" y2="420"/>
      </g>
      <!--draw X grid lines SHADOWS -->
      <g id="ID_x_grid_shadow" stroke="#ffffff" stroke-width="1">
        <line transform="translate(1,0)" x1="153" x2="153" y1="20" y2="420"/>
        <line transform="translate(1,0)" x1="253" x2="253" y1="20" y2="420"/>
        <line transform="translate(1,0)" x1="353" x2="353" y1="20" y2="420"/>
        <line transform="translate(1,0)" x1="453" x2="453" y1="20" y2="420"/>
        <line transform="translate(1,0)" x1="553" x2="553" y1="20" y2="420"/>
        <line transform="translate(1,0)" x1="653" x2="653" y1="20" y2="420"/>
        <line transform="translate(1,0)" x1="753" x2="753" y1="20" y2="420"/>
        <line transform="translate(1,0)" x1="853" x2="853" y1="20" y2="420"/>
      </g>
    </g>
    <!--******************************** draw legend ***********************************-->
    <g filter="none" id="ID_legend" transform="translate(865,20)" visibility="visible">
      <!--draw legend border-->
      <rect fill="darkgreen" fill-opacity="0.5" height="148" id="ID_legend_border_shadow" rx="10" ry="10" stroke="none" transform="translate(1,1)" width="173" x="0" y="0"/>
      <rect fill="lightgreen" fill-opacity="0.5" height="148" id="ID_legend_border" rx="10" ry="10" stroke="none" stroke-width="0" width="173" x="0" y="0"/>
      <!--draw legend bullets-->
      <g id="ID_legend_bullets" stroke="none">
        <g fill="purple" id="ID_legend_1">
          <rect height="12" rx="3" ry="3" width="24" x="10" y="8"/>
          <rect fill="url(#WhiteBlackGradient)" height="12" rx="3" ry="3" width="24" x="10" y="8"/>
          <rect fill-opacity="0.3" filter="url(#SaturateMinus)" height="12" rx="3" ry="3" width="24" x="10" y="8"/>
        </g>
        <g fill="darkblue" id="ID_legend_2">
          <rect height="12" rx="3" ry="3" width="24" x="10" y="28"/>
          <rect fill="url(#WhiteBlackGradient)" height="12" rx="3" ry="3" width="24" x="10" y="28"/>
          <rect fill-opacity="0.3" filter="url(#SaturateMinus)" height="12" rx="3" ry="3" width="24" x="10" y="28"/>
        </g>
        <g fill="blue" id="ID_legend_3">
          <rect height="12" rx="3" ry="3" width="24" x="10" y="48"/>
          <rect fill="url(#WhiteBlackGradient)" height="12" rx="3" ry="3" width="24" x="10" y="48"/>
          <rect fill-opacity="0.3" filter="url(#SaturateMinus)" height="12" rx="3" ry="3" width="24" x="10" y="48"/>
        </g>
        <g fill="green" id="ID_legend_4">
          <rect height="12" rx="3" ry="3" width="24" x="10" y="68"/>
          <rect fill="url(#WhiteBlackGradient)" height="12" rx="3" ry="3" width="24" x="10" y="68"/>
          <rect fill-opacity="0.3" filter="url(#SaturateMinus)" height="12" rx="3" ry="3" width="24" x="10" y="68"/>
        </g>
        <g fill="yellow" id="ID_legend_5">
          <rect height="12" rx="3" ry="3" width="24" x="10" y="88"/>
          <rect fill="url(#WhiteBlackGradient)" height="12" rx="3" ry="3" width="24" x="10" y="88"/>
          <rect fill-opacity="0.3" filter="url(#SaturateMinus)" height="12" rx="3" ry="3" width="24" x="10" y="88"/>
        </g>
        <g fill="orange" id="ID_legend_6">
          <rect height="12" rx="3" ry="3" width="24" x="10" y="108"/>
          <rect fill="url(#WhiteBlackGradient)" height="12" rx="3" ry="3" width="24" x="10" y="108"/>
          <rect fill-opacity="0.3" filter="url(#SaturateMinus)" height="12" rx="3" ry="3" width="24" x="10" y="108"/>
        </g>
        <g fill="pink" id="ID_legend_7">
          <rect height="12" rx="3" ry="3" width="24" x="10" y="128"/>
          <rect fill="url(#WhiteBlackGradient)" height="12" rx="3" ry="3" width="24" x="10" y="128"/>
          <rect fill-opacity="0.3" filter="url(#SaturateMinus)" height="12" rx="3" ry="3" width="24" x="10" y="128"/>
        </g>
      </g>
      <!--draw legend labels-->
      <g id="ID_legend_labels" style="fill:black;stroke:none;font-family:Arial;;font-weight:normal;font-style:normal;text-decoration:none;filter:none;text-anchor:start">
        <text x="44" y="17">Sharp</text>
        <text x="44" y="37">Infinity</text>
        <text x="44" y="57">Audio Référence</text>
        <text x="44" y="77">Triangle</text>
        <text x="44" y="97">Yamaha</text>
        <text x="44" y="117">Onkyo</text>
        <text x="44" y="137">Sony</text>
      </g>
    </g>
    <g style="clip-path: url(#ID_backgroundClipPath)">
      <g fill="black" fill-opacity="0.2" id="ID_graph_shadow_1">
        <path d="M 0 0 l 0 2.67 s 0 0 0 0 l 80 0 s 0 0 0 -0 l 0 -2.67 z" transform="translate(66,233.33)"/>
        <path d="M 0 0 l 0 -5.33 s 0 -0 0 -0 l 80 0 s 0 0 0 0 l 0 5.33 z" transform="translate(166,233.33)"/>
        <path d="M 0 0 l 0 8 s 0 0 0 0 l 80 0 s 0 0 0 -0 l 0 -8 z" transform="translate(266,233.33)"/>
        <path d="M 0 0 l 0 -10.67 s 0 -0 0 -0 l 80 0 s 0 0 0 0 l 0 10.67 z" transform="translate(366,233.33)"/>
        <path d="M 0 0 l 0 13.33 s 0 0 0 0 l 80 0 s 0 0 0 -0 l 0 -13.33 z" transform="translate(466,233.33)"/>
        <path d="M 0 0 l 0 -16 s 0 -0 0 -0 l 80 0 s 0 0 0 0 l 0 16 z" transform="translate(566,233.33)"/>
        <path d="M 0 0 l 0 18.67 s 0 0 0 0 l 80 0 s 0 0 0 -0 l 0 -18.67 z" transform="translate(666,233.33)"/>
        <path d="M 0 0 l 0 -21.33 s 0 -0 0 -0 l 80 0 s 0 0 0 0 l 0 21.33 z" transform="translate(766,233.33)"/>
      </g>
      <g fill="black" fill-opacity="0.2" id="ID_graph_shadow_2">
        <path d="M 0 0 l 0 2.93 s 0 0 0 0 l 80 0 s 0 0 0 -0 l 0 -2.93 z" transform="translate(66,236)"/>
        <path d="M 0 0 l 0 -5.87 s 0 -0 0 -0 l 80 0 s 0 0 0 0 l 0 5.87 z" transform="translate(166,228)"/>
        <path d="M 0 0 l 0 8.8 s 0 0 0 0 l 80 0 s 0 0 0 -0 l 0 -8.8 z" transform="translate(266,241.33)"/>
        <path d="M 0 0 l 0 -11.73 s 0 -0 0 -0 l 80 0 s 0 0 0 0 l 0 11.73 z" transform="translate(366,222.66)"/>
        <path d="M 0 0 l 0 14.67 s 0 0 0 0 l 80 0 s 0 0 0 -0 l 0 -14.67 z" transform="translate(466,246.66)"/>
        <path d="M 0 0 l 0 -17.6 s 0 -0 0 -0 l 80 0 s 0 0 0 0 l 0 17.6 z" transform="translate(566,217.33)"/>
        <path d="M 0 0 l 0 20.53 s 0 0 0 0 l 80 0 s 0 0 0 -0 l 0 -20.53 z" transform="translate(666,252)"/>
        <path d="M 0 0 l 0 -23.47 s 0 -0 0 -0 l 80 0 s 0 0 0 0 l 0 23.47 z" transform="translate(766,212)"/>
      </g>
      <g fill="black" fill-opacity="0.2" id="ID_graph_shadow_3">
        <path d="M 0 0 l 0 3.23 s 0 0 0 0 l 80 0 s 0 0 0 -0 l 0 -3.23 z" transform="translate(66,238.93)"/>
        <path d="M 0 0 l 0 -6.45 s 0 -0 0 -0 l 80 0 s 0 0 0 0 l 0 6.45 z" transform="translate(166,222.13)"/>
        <path d="M 0 0 l 0 9.68 s 0 0 0 0 l 80 0 s 0 0 0 -0 l 0 -9.68 z" transform="translate(266,250.13)"/>
        <path d="M 0 0 l 0 -12.91 s 0 -0 0 -0 l 80 0 s 0 0 0 0 l 0 12.91 z" transform="translate(366,210.93)"/>
        <path d="M 0 0 l 0 16.13 s 0 0 0 0 l 80 0 s 0 0 0 -0 l 0 -16.13 z" transform="translate(466,261.33)"/>
        <path d="M 0 0 l 0 -19.36 s 0 -0 0 -0 l 80 0 s 0 0 0 0 l 0 19.36 z" transform="translate(566,199.73)"/>
        <path d="M 0 0 l 0 22.59 s 0 0 0 0 l 80 0 s 0 0 0 -0 l 0 -22.59 z" transform="translate(666,272.53)"/>
        <path d="M 0 0 l 0 -25.81 s 0 -0 0 -0 l 80 0 s 0 0 0 0 l 0 25.81 z" transform="translate(766,188.53)"/>
      </g>
      <g fill="black" fill-opacity="0.2" id="ID_graph_shadow_4">
        <path d="M 0 0 l 0 3.55 s 0 0 0 0 l 80 0 s 0 0 0 -0 l 0 -3.55 z" transform="translate(66,242.16)"/>
        <path d="M 0 0 l 0 -7.1 s 0 -0 0 -0 l 80 0 s 0 0 0 0 l 0 7.1 z" transform="translate(166,215.68)"/>
        <path d="M 0 0 l 0 10.65 s 0 0 0 0 l 80 0 s 0 0 0 -0 l 0 -10.65 z" transform="translate(266,259.81)"/>
        <path d="M 0 0 l 0 -14.2 s 0 -0 0 -0 l 80 0 s 0 0 0 0 l 0 14.2 z" transform="translate(366,198.02)"/>
        <path d="M 0 0 l 0 17.75 s 0 0 0 0 l 80 0 s 0 0 0 -0 l 0 -17.75 z" transform="translate(466,277.46)"/>
        <path d="M 0 0 l 0 -21.3 s 0 -0 0 -0 l 80 0 s 0 0 0 0 l 0 21.3 z" transform="translate(566,180.37)"/>
        <path d="M 0 0 l 0 24.85 s 0 0 0 0 l 80 0 s 0 0 0 -0 l 0 -24.85 z" transform="translate(666,295.12)"/>
        <path d="M 0 0 l 0 -28.39 s 0 -0 0 -0 l 80 0 s 0 0 0 0 l 0 28.39 z" transform="translate(766,162.72)"/>
      </g>
      <g fill="black" fill-opacity="0.2" id="ID_graph_shadow_5">
        <path d="M 0 0 l 0 3.9 s 0 0 0 0 l 80 0 s 0 0 0 -0 l 0 -3.9 z" transform="translate(66,245.71)"/>
        <path d="M 0 0 l 0 -7.81 s 0 -0 0 -0 l 80 0 s 0 0 0 0 l 0 7.81 z" transform="translate(166,208.58)"/>
        <path d="M 0 0 l 0 11.71 s 0 0 0 0 l 80 0 s 0 0 0 -0 l 0 -11.71 z" transform="translate(266,270.46)"/>
        <path d="M 0 0 l 0 -15.62 s 0 -0 0 -0 l 80 0 s 0 0 0 0 l 0 15.62 z" transform="translate(366,183.82)"/>
        <path d="M 0 0 l 0 19.52 s 0 0 0 0 l 80 0 s 0 0 0 -0 l 0 -19.52 z" transform="translate(466,295.21)"/>
        <path d="M 0 0 l 0 -23.43 s 0 -0 0 -0 l 80 0 s 0 0 0 0 l 0 23.43 z" transform="translate(566,159.07)"/>
        <path d="M 0 0 l 0 27.33 s 0 0 0 0 l 80 0 s 0 0 0 -0 l 0 -27.33 z" transform="translate(666,319.97)"/>
        <path d="M 0 0 l 0 -31.23 s 0 -0 0 -0 l 80 0 s 0 0 0 0 l 0 31.23 z" transform="translate(766,134.33)"/>
      </g>
      <g fill="black" fill-opacity="0.2" id="ID_graph_shadow_6">
        <path d="M 0 0 l 0 4.29 s 0 0 0 0 l 80 0 s 0 0 0 -0 l 0 -4.29 z" transform="translate(66,249.61)"/>
        <path d="M 0 0 l 0 -8.59 s 0 -0 0 -0 l 80 0 s 0 0 0 0 l 0 8.59 z" transform="translate(166,200.77)"/>
        <path d="M 0 0 l 0 12.88 s 0 0 0 0 l 80 0 s 0 0 0 -0 l 0 -12.88 z" transform="translate(266,282.17)"/>
        <path d="M 0 0 l 0 -17.18 s 0 -0 0 -0 l 80 0 s 0 0 0 0 l 0 17.18 z" transform="translate(366,168.2)"/>
        <path d="M 0 0 l 0 21.47 s 0 0 0 0 l 80 0 s 0 0 0 -0 l 0 -21.47 z" transform="translate(466,314.73)"/>
        <path d="M 0 0 l 0 -25.77 s 0 -0 0 -0 l 80 0 s 0 0 0 0 l 0 25.77 z" transform="translate(566,135.64)"/>
        <path d="M 0 0 l 0 30.06 s 0 0 0 0 l 80 0 s 0 0 0 -0 l 0 -30.06 z" transform="translate(666,347.3)"/>
        <path d="M 0 0 l 0 -34.36 s 0 -0 0 -0 l 80 0 s 0 0 0 0 l 0 34.36 z" transform="translate(766,103.1)"/>
      </g>
      <g fill="black" fill-opacity="0.2" id="ID_graph_shadow_7">
        <path d="M 0 0 l 0 4.72 s 0 0 0 0 l 80 0 s 0 0 0 -0 l 0 -4.72 z" transform="translate(66,253.9)"/>
        <path d="M 0 0 l 0 -9.45 s 0 -0 0 -0 l 80 0 s 0 0 0 0 l 0 9.45 z" transform="translate(166,192.18)"/>
        <path d="M 0 0 l 0 14.17 s 0 0 0 0 l 80 0 s 0 0 0 -0 l 0 -14.17 z" transform="translate(266,295.05)"/>
        <path d="M 0 0 l 0 -18.9 s 0 -0 0 -0 l 80 0 s 0 0 0 0 l 0 18.9 z" transform="translate(366,151.02)"/>
        <path d="M 0 0 l 0 23.62 s 0 0 0 0 l 80 0 s 0 0 0 -0 l 0 -23.62 z" transform="translate(466,336.2)"/>
        <path d="M 0 0 l 0 -28.34 s 0 -0 0 -0 l 80 0 s 0 0 0 0 l 0 28.34 z" transform="translate(566,109.87)"/>
        <path d="M 0 0 l 0 33.07 s 0 0 0 0 l 80 0 s 0 0 0 -0 l 0 -33.07 z" transform="translate(666,377.36)"/>
        <path d="M 0 0 l 0 -37.79 s 0 -0 0 -0 l 80 0 s 0 0 0 0 l 0 37.79 z" transform="translate(766,68.74)"/>
      </g>
      <g fill="purple" fill-opacity="1" filter="none" id="ID_graph_shadow_1" opacity="1" stroke="none" stroke-opacity="1" stroke-width="0">
        <path d="M 0 0 l 0 2.67 s 0 0 0 0 l 80 0 s 0 0 0 -0 l 0 -2.67 z" transform="translate(63,233.33)"/>
        <path d="M 0 0 l 0 2.67 s 0 0 0 0 l 80 0 s 0 0 0 -0 l 0 -2.67 z" fill="url(#WhiteBlackGradient)" transform="translate(63,233.33)"/>
        <path d="M 0 0 l 0 2.67 s 0 0 0 0 l 80 0 s 0 0 0 -0 l 0 -2.67 z" fill-opacity="0.3" filter="url(#SaturateMinus)" transform="translate(63,233.33)"/>
        <path d="M 0 0 l 0 -5.33 s 0 -0 0 -0 l 80 0 s 0 0 0 0 l 0 5.33 z" transform="translate(163,233.33)"/>
        <path d="M 0 0 l 0 -5.33 s 0 -0 0 -0 l 80 0 s 0 0 0 0 l 0 5.33 z" fill="url(#WhiteBlackGradient)" transform="translate(163,233.33)"/>
        <path d="M 0 0 l 0 -5.33 s 0 -0 0 -0 l 80 0 s 0 0 0 0 l 0 5.33 z" fill-opacity="0.3" filter="url(#SaturateMinus)" transform="translate(163,233.33)"/>
        <path d="M 0 0 l 0 8 s 0 0 0 0 l 80 0 s 0 0 0 -0 l 0 -8 z" transform="translate(263,233.33)"/>
        <path d="M 0 0 l 0 8 s 0 0 0 0 l 80 0 s 0 0 0 -0 l 0 -8 z" fill="url(#WhiteBlackGradient)" transform="translate(263,233.33)"/>
        <path d="M 0 0 l 0 8 s 0 0 0 0 l 80 0 s 0 0 0 -0 l 0 -8 z" fill-opacity="0.3" filter="url(#SaturateMinus)" transform="translate(263,233.33)"/>
        <path d="M 0 0 l 0 -10.67 s 0 -0 0 -0 l 80 0 s 0 0 0 0 l 0 10.67 z" transform="translate(363,233.33)"/>
        <path d="M 0 0 l 0 -10.67 s 0 -0 0 -0 l 80 0 s 0 0 0 0 l 0 10.67 z" fill="url(#WhiteBlackGradient)" transform="translate(363,233.33)"/>
        <path d="M 0 0 l 0 -10.67 s 0 -0 0 -0 l 80 0 s 0 0 0 0 l 0 10.67 z" fill-opacity="0.3" filter="url(#SaturateMinus)" transform="translate(363,233.33)"/>
        <path d="M 0 0 l 0 13.33 s 0 0 0 0 l 80 0 s 0 0 0 -0 l 0 -13.33 z" transform="translate(463,233.33)"/>
        <path d="M 0 0 l 0 13.33 s 0 0 0 0 l 80 0 s 0 0 0 -0 l 0 -13.33 z" fill="url(#WhiteBlackGradient)" transform="translate(463,233.33)"/>
        <path d="M 0 0 l 0 13.33 s 0 0 0 0 l 80 0 s 0 0 0 -0 l 0 -13.33 z" fill-opacity="0.3" filter="url(#SaturateMinus)" transform="translate(463,233.33)"/>
        <path d="M 0 0 l 0 -16 s 0 -0 0 -0 l 80 0 s 0 0 0 0 l 0 16 z" transform="translate(563,233.33)"/>
        <path d="M 0 0 l 0 -16 s 0 -0 0 -0 l 80 0 s 0 0 0 0 l 0 16 z" fill="url(#WhiteBlackGradient)" transform="translate(563,233.33)"/>
        <path d="M 0 0 l 0 -16 s 0 -0 0 -0 l 80 0 s 0 0 0 0 l 0 16 z" fill-opacity="0.3" filter="url(#SaturateMinus)" transform="translate(563,233.33)"/>
        <path d="M 0 0 l 0 18.67 s 0 0 0 0 l 80 0 s 0 0 0 -0 l 0 -18.67 z" transform="translate(663,233.33)"/>
        <path d="M 0 0 l 0 18.67 s 0 0 0 0 l 80 0 s 0 0 0 -0 l 0 -18.67 z" fill="url(#WhiteBlackGradient)" transform="translate(663,233.33)"/>
        <path d="M 0 0 l 0 18.67 s 0 0 0 0 l 80 0 s 0 0 0 -0 l 0 -18.67 z" fill-opacity="0.3" filter="url(#SaturateMinus)" transform="translate(663,233.33)"/>
        <path d="M 0 0 l 0 -21.33 s 0 -0 0 -0 l 80 0 s 0 0 0 0 l 0 21.33 z" transform="translate(763,233.33)"/>
        <path d="M 0 0 l 0 -21.33 s 0 -0 0 -0 l 80 0 s 0 0 0 0 l 0 21.33 z" fill="url(#WhiteBlackGradient)" transform="translate(763,233.33)"/>
        <path d="M 0 0 l 0 -21.33 s 0 -0 0 -0 l 80 0 s 0 0 0 0 l 0 21.33 z" fill-opacity="0.3" filter="url(#SaturateMinus)" transform="translate(763,233.33)"/>
      </g>
      <g fill="darkblue" fill-opacity="1" filter="none" id="ID_graph_shadow_2" opacity="1" stroke="none" stroke-opacity="1" stroke-width="0">
        <path d="M 0 0 l 0 2.93 s 0 0 0 0 l 80 0 s 0 0 0 -0 l 0 -2.93 z" transform="translate(63,236)"/>
        <path d="M 0 0 l 0 2.93 s 0 0 0 0 l 80 0 s 0 0 0 -0 l 0 -2.93 z" fill="url(#WhiteBlackGradient)" transform="translate(63,236)"/>
        <path d="M 0 0 l 0 2.93 s 0 0 0 0 l 80 0 s 0 0 0 -0 l 0 -2.93 z" fill-opacity="0.3" filter="url(#SaturateMinus)" transform="translate(63,236)"/>
        <path d="M 0 0 l 0 -5.87 s 0 -0 0 -0 l 80 0 s 0 0 0 0 l 0 5.87 z" transform="translate(163,228)"/>
        <path d="M 0 0 l 0 -5.87 s 0 -0 0 -0 l 80 0 s 0 0 0 0 l 0 5.87 z" fill="url(#WhiteBlackGradient)" transform="translate(163,228)"/>
        <path d="M 0 0 l 0 -5.87 s 0 -0 0 -0 l 80 0 s 0 0 0 0 l 0 5.87 z" fill-opacity="0.3" filter="url(#SaturateMinus)" transform="translate(163,228)"/>
        <path d="M 0 0 l 0 8.8 s 0 0 0 0 l 80 0 s 0 0 0 -0 l 0 -8.8 z" transform="translate(263,241.33)"/>
        <path d="M 0 0 l 0 8.8 s 0 0 0 0 l 80 0 s 0 0 0 -0 l 0 -8.8 z" fill="url(#WhiteBlackGradient)" transform="translate(263,241.33)"/>
        <path d="M 0 0 l 0 8.8 s 0 0 0 0 l 80 0 s 0 0 0 -0 l 0 -8.8 z" fill-opacity="0.3" filter="url(#SaturateMinus)" transform="translate(263,241.33)"/>
        <path d="M 0 0 l 0 -11.73 s 0 -0 0 -0 l 80 0 s 0 0 0 0 l 0 11.73 z" transform="translate(363,222.66)"/>
        <path d="M 0 0 l 0 -11.73 s 0 -0 0 -0 l 80 0 s 0 0 0 0 l 0 11.73 z" fill="url(#WhiteBlackGradient)" transform="translate(363,222.66)"/>
        <path d="M 0 0 l 0 -11.73 s 0 -0 0 -0 l 80 0 s 0 0 0 0 l 0 11.73 z" fill-opacity="0.3" filter="url(#SaturateMinus)" transform="translate(363,222.66)"/>
        <path d="M 0 0 l 0 14.67 s 0 0 0 0 l 80 0 s 0 0 0 -0 l 0 -14.67 z" transform="translate(463,246.66)"/>
        <path d="M 0 0 l 0 14.67 s 0 0 0 0 l 80 0 s 0 0 0 -0 l 0 -14.67 z" fill="url(#WhiteBlackGradient)" transform="translate(463,246.66)"/>
        <path d="M 0 0 l 0 14.67 s 0 0 0 0 l 80 0 s 0 0 0 -0 l 0 -14.67 z" fill-opacity="0.3" filter="url(#SaturateMinus)" transform="translate(463,246.66)"/>
        <path d="M 0 0 l 0 -17.6 s 0 -0 0 -0 l 80 0 s 0 0 0 0 l 0 17.6 z" transform="translate(563,217.33)"/>
        <path d="M 0 0 l 0 -17.6 s 0 -0 0 -0 l 80 0 s 0 0 0 0 l 0 17.6 z" fill="url(#WhiteBlackGradient)" transform="translate(563,217.33)"/>
        <path d="M 0 0 l 0 -17.6 s 0 -0 0 -0 l 80 0 s 0 0 0 0 l 0 17.6 z" fill-opacity="0.3" filter="url(#SaturateMinus)" transform="translate(563,217.33)"/>
        <path d="M 0 0 l 0 20.53 s 0 0 0 0 l 80 0 s 0 0 0 -0 l 0 -20.53 z" transform="translate(663,252)"/>
        <path d="M 0 0 l 0 20.53 s 0 0 0 0 l 80 0 s 0 0 0 -0 l 0 -20.53 z" fill="url(#WhiteBlackGradient)" transform="translate(663,252)"/>
        <path d="M 0 0 l 0 20.53 s 0 0 0 0 l 80 0 s 0 0 0 -0 l 0 -20.53 z" fill-opacity="0.3" filter="url(#SaturateMinus)" transform="translate(663,252)"/>
        <path d="M 0 0 l 0 -23.47 s 0 -0 0 -0 l 80 0 s 0 0 0 0 l 0 23.47 z" transform="translate(763,212)"/>
        <path d="M 0 0 l 0 -23.47 s 0 -0 0 -0 l 80 0 s 0 0 0 0 l 0 23.47 z" fill="url(#WhiteBlackGradient)" transform="translate(763,212)"/>
        <path d="M 0 0 l 0 -23.47 s 0 -0 0 -0 l 80 0 s 0 0 0 0 l 0 23.47 z" fill-opacity="0.3" filter="url(#SaturateMinus)" transform="translate(763,212)"/>
      </g>
      <g fill="blue" fill-opacity="1" filter="none" id="ID_graph_shadow_3" opacity="1" stroke="none" stroke-opacity="1" stroke-width="0">
        <path d="M 0 0 l 0 3.23 s 0 0 0 0 l 80 0 s 0 0 0 -0 l 0 -3.23 z" transform="translate(63,238.93)"/>
        <path d="M 0 0 l 0 3.23 s 0 0 0 0 l 80 0 s 0 0 0 -0 l 0 -3.23 z" fill="url(#WhiteBlackGradient)" transform="translate(63,238.93)"/>
        <path d="M 0 0 l 0 3.23 s 0 0 0 0 l 80 0 s 0 0 0 -0 l 0 -3.23 z" fill-opacity="0.3" filter="url(#SaturateMinus)" transform="translate(63,238.93)"/>
        <path d="M 0 0 l 0 -6.45 s 0 -0 0 -0 l 80 0 s 0 0 0 0 l 0 6.45 z" transform="translate(163,222.13)"/>
        <path d="M 0 0 l 0 -6.45 s 0 -0 0 -0 l 80 0 s 0 0 0 0 l 0 6.45 z" fill="url(#WhiteBlackGradient)" transform="translate(163,222.13)"/>
        <path d="M 0 0 l 0 -6.45 s 0 -0 0 -0 l 80 0 s 0 0 0 0 l 0 6.45 z" fill-opacity="0.3" filter="url(#SaturateMinus)" transform="translate(163,222.13)"/>
        <path d="M 0 0 l 0 9.68 s 0 0 0 0 l 80 0 s 0 0 0 -0 l 0 -9.68 z" transform="translate(263,250.13)"/>
        <path d="M 0 0 l 0 9.68 s 0 0 0 0 l 80 0 s 0 0 0 -0 l 0 -9.68 z" fill="url(#WhiteBlackGradient)" transform="translate(263,250.13)"/>
        <path d="M 0 0 l 0 9.68 s 0 0 0 0 l 80 0 s 0 0 0 -0 l 0 -9.68 z" fill-opacity="0.3" filter="url(#SaturateMinus)" transform="translate(263,250.13)"/>
        <path d="M 0 0 l 0 -12.91 s 0 -0 0 -0 l 80 0 s 0 0 0 0 l 0 12.91 z" transform="translate(363,210.93)"/>
        <path d="M 0 0 l 0 -12.91 s 0 -0 0 -0 l 80 0 s 0 0 0 0 l 0 12.91 z" fill="url(#WhiteBlackGradient)" transform="translate(363,210.93)"/>
        <path d="M 0 0 l 0 -12.91 s 0 -0 0 -0 l 80 0 s 0 0 0 0 l 0 12.91 z" fill-opacity="0.3" filter="url(#SaturateMinus)" transform="translate(363,210.93)"/>
        <path d="M 0 0 l 0 16.13 s 0 0 0 0 l 80 0 s 0 0 0 -0 l 0 -16.13 z" transform="translate(463,261.33)"/>
        <path d="M 0 0 l 0 16.13 s 0 0 0 0 l 80 0 s 0 0 0 -0 l 0 -16.13 z" fill="url(#WhiteBlackGradient)" transform="translate(463,261.33)"/>
        <path d="M 0 0 l 0 16.13 s 0 0 0 0 l 80 0 s 0 0 0 -0 l 0 -16.13 z" fill-opacity="0.3" filter="url(#SaturateMinus)" transform="translate(463,261.33)"/>
        <path d="M 0 0 l 0 -19.36 s 0 -0 0 -0 l 80 0 s 0 0 0 0 l 0 19.36 z" transform="translate(563,199.73)"/>
        <path d="M 0 0 l 0 -19.36 s 0 -0 0 -0 l 80 0 s 0 0 0 0 l 0 19.36 z" fill="url(#WhiteBlackGradient)" transform="translate(563,199.73)"/>
        <path d="M 0 0 l 0 -19.36 s 0 -0 0 -0 l 80 0 s 0 0 0 0 l 0 19.36 z" fill-opacity="0.3" filter="url(#SaturateMinus)" transform="translate(563,199.73)"/>
        <path d="M 0 0 l 0 22.59 s 0 0 0 0 l 80 0 s 0 0 0 -0 l 0 -22.59 z" transform="translate(663,272.53)"/>
        <path d="M 0 0 l 0 22.59 s 0 0 0 0 l 80 0 s 0 0 0 -0 l 0 -22.59 z" fill="url(#WhiteBlackGradient)" transform="translate(663,272.53)"/>
        <path d="M 0 0 l 0 22.59 s 0 0 0 0 l 80 0 s 0 0 0 -0 l 0 -22.59 z" fill-opacity="0.3" filter="url(#SaturateMinus)" transform="translate(663,272.53)"/>
        <path d="M 0 0 l 0 -25.81 s 0 -0 0 -0 l 80 0 s 0 0 0 0 l 0 25.81 z" transform="translate(763,188.53)"/>
        <path d="M 0 0 l 0 -25.81 s 0 -0 0 -0 l 80 0 s 0 0 0 0 l 0 25.81 z" fill="url(#WhiteBlackGradient)" transform="translate(763,188.53)"/>
        <path d="M 0 0 l 0 -25.81 s 0 -0 0 -0 l 80 0 s 0 0 0 0 l 0 25.81 z" fill-opacity="0.3" filter="url(#SaturateMinus)" transform="translate(763,188.53)"/>
      </g>
      <g fill="green" fill-opacity="1" filter="none" id="ID_graph_shadow_4" opacity="1" stroke="none" stroke-opacity="1" stroke-width="0">
        <path d="M 0 0 l 0 3.55 s 0 0 0 0 l 80 0 s 0 0 0 -0 l 0 -3.55 z" transform="translate(63,242.16)"/>
        <path d="M 0 0 l 0 3.55 s 0 0 0 0 l 80 0 s 0 0 0 -0 l 0 -3.55 z" fill="url(#WhiteBlackGradient)" transform="translate(63,242.16)"/>
        <path d="M 0 0 l 0 3.55 s 0 0 0 0 l 80 0 s 0 0 0 -0 l 0 -3.55 z" fill-opacity="0.3" filter="url(#SaturateMinus)" transform="translate(63,242.16)"/>
        <path d="M 0 0 l 0 -7.1 s 0 -0 0 -0 l 80 0 s 0 0 0 0 l 0 7.1 z" transform="translate(163,215.68)"/>
        <path d="M 0 0 l 0 -7.1 s 0 -0 0 -0 l 80 0 s 0 0 0 0 l 0 7.1 z" fill="url(#WhiteBlackGradient)" transform="translate(163,215.68)"/>
        <path d="M 0 0 l 0 -7.1 s 0 -0 0 -0 l 80 0 s 0 0 0 0 l 0 7.1 z" fill-opacity="0.3" filter="url(#SaturateMinus)" transform="translate(163,215.68)"/>
        <path d="M 0 0 l 0 10.65 s 0 0 0 0 l 80 0 s 0 0 0 -0 l 0 -10.65 z" transform="translate(263,259.81)"/>
        <path d="M 0 0 l 0 10.65 s 0 0 0 0 l 80 0 s 0 0 0 -0 l 0 -10.65 z" fill="url(#WhiteBlackGradient)" transform="translate(263,259.81)"/>
        <path d="M 0 0 l 0 10.65 s 0 0 0 0 l 80 0 s 0 0 0 -0 l 0 -10.65 z" fill-opacity="0.3" filter="url(#SaturateMinus)" transform="translate(263,259.81)"/>
        <path d="M 0 0 l 0 -14.2 s 0 -0 0 -0 l 80 0 s 0 0 0 0 l 0 14.2 z" transform="translate(363,198.02)"/>
        <path d="M 0 0 l 0 -14.2 s 0 -0 0 -0 l 80 0 s 0 0 0 0 l 0 14.2 z" fill="url(#WhiteBlackGradient)" transform="translate(363,198.02)"/>
        <path d="M 0 0 l 0 -14.2 s 0 -0 0 -0 l 80 0 s 0 0 0 0 l 0 14.2 z" fill-opacity="0.3" filter="url(#SaturateMinus)" transform="translate(363,198.02)"/>
        <path d="M 0 0 l 0 17.75 s 0 0 0 0 l 80 0 s 0 0 0 -0 l 0 -17.75 z" transform="translate(463,277.46)"/>
        <path d="M 0 0 l 0 17.75 s 0 0 0 0 l 80 0 s 0 0 0 -0 l 0 -17.75 z" fill="url(#WhiteBlackGradient)" transform="translate(463,277.46)"/>
        <path d="M 0 0 l 0 17.75 s 0 0 0 0 l 80 0 s 0 0 0 -0 l 0 -17.75 z" fill-opacity="0.3" filter="url(#SaturateMinus)" transform="translate(463,277.46)"/>
        <path d="M 0 0 l 0 -21.3 s 0 -0 0 -0 l 80 0 s 0 0 0 0 l 0 21.3 z" transform="translate(563,180.37)"/>
        <path d="M 0 0 l 0 -21.3 s 0 -0 0 -0 l 80 0 s 0 0 0 0 l 0 21.3 z" fill="url(#WhiteBlackGradient)" transform="translate(563,180.37)"/>
        <path d="M 0 0 l 0 -21.3 s 0 -0 0 -0 l 80 0 s 0 0 0 0 l 0 21.3 z" fill-opacity="0.3" filter="url(#SaturateMinus)" transform="translate(563,180.37)"/>
        <path d="M 0 0 l 0 24.85 s 0 0 0 0 l 80 0 s 0 0 0 -0 l 0 -24.85 z" transform="translate(663,295.12)"/>
        <path d="M 0 0 l 0 24.85 s 0 0 0 0 l 80 0 s 0 0 0 -0 l 0 -24.85 z" fill="url(#WhiteBlackGradient)" transform="translate(663,295.12)"/>
        <path d="M 0 0 l 0 24.85 s 0 0 0 0 l 80 0 s 0 0 0 -0 l 0 -24.85 z" fill-opacity="0.3" filter="url(#SaturateMinus)" transform="translate(663,295.12)"/>
        <path d="M 0 0 l 0 -28.39 s 0 -0 0 -0 l 80 0 s 0 0 0 0 l 0 28.39 z" transform="translate(763,162.72)"/>
        <path d="M 0 0 l 0 -28.39 s 0 -0 0 -0 l 80 0 s 0 0 0 0 l 0 28.39 z" fill="url(#WhiteBlackGradient)" transform="translate(763,162.72)"/>
        <path d="M 0 0 l 0 -28.39 s 0 -0 0 -0 l 80 0 s 0 0 0 0 l 0 28.39 z" fill-opacity="0.3" filter="url(#SaturateMinus)" transform="translate(763,162.72)"/>
      </g>
      <g fill="yellow" fill-opacity="1" filter="none" id="ID_graph_shadow_5" opacity="1" stroke="none" stroke-opacity="1" stroke-width="0">
        <path d="M 0 0 l 0 3.9 s 0 0 0 0 l 80 0 s 0 0 0 -0 l 0 -3.9 z" transform="translate(63,245.71)"/>
        <path d="M 0 0 l 0 3.9 s 0 0 0 0 l 80 0 s 0 0 0 -0 l 0 -3.9 z" fill="url(#WhiteBlackGradient)" transform="translate(63,245.71)"/>
        <path d="M 0 0 l 0 3.9 s 0 0 0 0 l 80 0 s 0 0 0 -0 l 0 -3.9 z" fill-opacity="0.3" filter="url(#SaturateMinus)" transform="translate(63,245.71)"/>
        <path d="M 0 0 l 0 -7.81 s 0 -0 0 -0 l 80 0 s 0 0 0 0 l 0 7.81 z" transform="translate(163,208.58)"/>
        <path d="M 0 0 l 0 -7.81 s 0 -0 0 -0 l 80 0 s 0 0 0 0 l 0 7.81 z" fill="url(#WhiteBlackGradient)" transform="translate(163,208.58)"/>
        <path d="M 0 0 l 0 -7.81 s 0 -0 0 -0 l 80 0 s 0 0 0 0 l 0 7.81 z" fill-opacity="0.3" filter="url(#SaturateMinus)" transform="translate(163,208.58)"/>
        <path d="M 0 0 l 0 11.71 s 0 0 0 0 l 80 0 s 0 0 0 -0 l 0 -11.71 z" transform="translate(263,270.46)"/>
        <path d="M 0 0 l 0 11.71 s 0 0 0 0 l 80 0 s 0 0 0 -0 l 0 -11.71 z" fill="url(#WhiteBlackGradient)" transform="translate(263,270.46)"/>
        <path d="M 0 0 l 0 11.71 s 0 0 0 0 l 80 0 s 0 0 0 -0 l 0 -11.71 z" fill-opacity="0.3" filter="url(#SaturateMinus)" transform="translate(263,270.46)"/>
        <path d="M 0 0 l 0 -15.62 s 0 -0 0 -0 l 80 0 s 0 0 0 0 l 0 15.62 z" transform="translate(363,183.82)"/>
        <path d="M 0 0 l 0 -15.62 s 0 -0 0 -0 l 80 0 s 0 0 0 0 l 0 15.62 z" fill="url(#WhiteBlackGradient)" transform="translate(363,183.82)"/>
        <path d="M 0 0 l 0 -15.62 s 0 -0 0 -0 l 80 0 s 0 0 0 0 l 0 15.62 z" fill-opacity="0.3" filter="url(#SaturateMinus)" transform="translate(363,183.82)"/>
        <path d="M 0 0 l 0 19.52 s 0 0 0 0 l 80 0 s 0 0 0 -0 l 0 -19.52 z" transform="translate(463,295.21)"/>
        <path d="M 0 0 l 0 19.52 s 0 0 0 0 l 80 0 s 0 0 0 -0 l 0 -19.52 z" fill="url(#WhiteBlackGradient)" transform="translate(463,295.21)"/>
        <path d="M 0 0 l 0 19.52 s 0 0 0 0 l 80 0 s 0 0 0 -0 l 0 -19.52 z" fill-opacity="0.3" filter="url(#SaturateMinus)" transform="translate(463,295.21)"/>
        <path d="M 0 0 l 0 -23.43 s 0 -0 0 -0 l 80 0 s 0 0 0 0 l 0 23.43 z" transform="translate(563,159.07)"/>
        <path d="M 0 0 l 0 -23.43 s 0 -0 0 -0 l 80 0 s 0 0 0 0 l 0 23.43 z" fill="url(#WhiteBlackGradient)" transform="translate(563,159.07)"/>
        <path d="M 0 0 l 0 -23.43 s 0 -0 0 -0 l 80 0 s 0 0 0 0 l 0 23.43 z" fill-opacity="0.3" filter="url(#SaturateMinus)" transform="translate(563,159.07)"/>
        <path d="M 0 0 l 0 27.33 s 0 0 0 0 l 80 0 s 0 0 0 -0 l 0 -27.33 z" transform="translate(663,319.97)"/>
        <path d="M 0 0 l 0 27.33 s 0 0 0 0 l 80 0 s 0 0 0 -0 l 0 -27.33 z" fill="url(#WhiteBlackGradient)" transform="translate(663,319.97)"/>
        <path d="M 0 0 l 0 27.33 s 0 0 0 0 l 80 0 s 0 0 0 -0 l 0 -27.33 z" fill-opacity="0.3" filter="url(#SaturateMinus)" transform="translate(663,319.97)"/>
        <path d="M 0 0 l 0 -31.23 s 0 -0 0 -0 l 80 0 s 0 0 0 0 l 0 31.23 z" transform="translate(763,134.33)"/>
        <path d="M 0 0 l 0 -31.23 s 0 -0 0 -0 l 80 0 s 0 0 0 0 l 0 31.23 z" fill="url(#WhiteBlackGradient)" transform="translate(763,134.33)"/>
        <path d="M 0 0 l 0 -31.23 s 0 -0 0 -0 l 80 0 s 0 0 0 0 l 0 31.23 z" fill-opacity="0.3" filter="url(#SaturateMinus)" transform="translate(763,134.33)"/>
      </g>
      <g fill="orange" fill-opacity="1" filter="none" id="ID_graph_shadow_6" opacity="1" stroke="none" stroke-opacity="1" stroke-width="0">
        <path d="M 0 0 l 0 4.29 s 0 0 0 0 l 80 0 s 0 0 0 -0 l 0 -4.29 z" transform="translate(63,249.61)"/>
        <path d="M 0 0 l 0 4.29 s 0 0 0 0 l 80 0 s 0 0 0 -0 l 0 -4.29 z" fill="url(#WhiteBlackGradient)" transform="translate(63,249.61)"/>
        <path d="M 0 0 l 0 4.29 s 0 0 0 0 l 80 0 s 0 0 0 -0 l 0 -4.29 z" fill-opacity="0.3" filter="url(#SaturateMinus)" transform="translate(63,249.61)"/>
        <path d="M 0 0 l 0 -8.59 s 0 -0 0 -0 l 80 0 s 0 0 0 0 l 0 8.59 z" transform="translate(163,200.77)"/>
        <path d="M 0 0 l 0 -8.59 s 0 -0 0 -0 l 80 0 s 0 0 0 0 l 0 8.59 z" fill="url(#WhiteBlackGradient)" transform="translate(163,200.77)"/>
        <path d="M 0 0 l 0 -8.59 s 0 -0 0 -0 l 80 0 s 0 0 0 0 l 0 8.59 z" fill-opacity="0.3" filter="url(#SaturateMinus)" transform="translate(163,200.77)"/>
        <path d="M 0 0 l 0 12.88 s 0 0 0 0 l 80 0 s 0 0 0 -0 l 0 -12.88 z" transform="translate(263,282.17)"/>
        <path d="M 0 0 l 0 12.88 s 0 0 0 0 l 80 0 s 0 0 0 -0 l 0 -12.88 z" fill="url(#WhiteBlackGradient)" transform="translate(263,282.17)"/>
        <path d="M 0 0 l 0 12.88 s 0 0 0 0 l 80 0 s 0 0 0 -0 l 0 -12.88 z" fill-opacity="0.3" filter="url(#SaturateMinus)" transform="translate(263,282.17)"/>
        <path d="M 0 0 l 0 -17.18 s 0 -0 0 -0 l 80 0 s 0 0 0 0 l 0 17.18 z" transform="translate(363,168.2)"/>
        <path d="M 0 0 l 0 -17.18 s 0 -0 0 -0 l 80 0 s 0 0 0 0 l 0 17.18 z" fill="url(#WhiteBlackGradient)" transform="translate(363,168.2)"/>
        <path d="M 0 0 l 0 -17.18 s 0 -0 0 -0 l 80 0 s 0 0 0 0 l 0 17.18 z" fill-opacity="0.3" filter="url(#SaturateMinus)" transform="translate(363,168.2)"/>
        <path d="M 0 0 l 0 21.47 s 0 0 0 0 l 80 0 s 0 0 0 -0 l 0 -21.47 z" transform="translate(463,314.73)"/>
        <path d="M 0 0 l 0 21.47 s 0 0 0 0 l 80 0 s 0 0 0 -0 l 0 -21.47 z" fill="url(#WhiteBlackGradient)" transform="translate(463,314.73)"/>
        <path d="M 0 0 l 0 21.47 s 0 0 0 0 l 80 0 s 0 0 0 -0 l 0 -21.47 z" fill-opacity="0.3" filter="url(#SaturateMinus)" transform="translate(463,314.73)"/>
        <path d="M 0 0 l 0 -25.77 s 0 -0 0 -0 l 80 0 s 0 0 0 0 l 0 25.77 z" transform="translate(563,135.64)"/>
        <path d="M 0 0 l 0 -25.77 s 0 -0 0 -0 l 80 0 s 0 0 0 0 l 0 25.77 z" fill="url(#WhiteBlackGradient)" transform="translate(563,135.64)"/>
        <path d="M 0 0 l 0 -25.77 s 0 -0 0 -0 l 80 0 s 0 0 0 0 l 0 25.77 z" fill-opacity="0.3" filter="url(#SaturateMinus)" transform="translate(563,135.64)"/>
        <path d="M 0 0 l 0 30.06 s 0 0 0 0 l 80 0 s 0 0 0 -0 l 0 -30.06 z" transform="translate(663,347.3)"/>
        <path d="M 0 0 l 0 30.06 s 0 0 0 0 l 80 0 s 0 0 0 -0 l 0 -30.06 z" fill="url(#WhiteBlackGradient)" transform="translate(663,347.3)"/>
        <path d="M 0 0 l 0 30.06 s 0 0 0 0 l 80 0 s 0 0 0 -0 l 0 -30.06 z" fill-opacity="0.3" filter="url(#SaturateMinus)" transform="translate(663,347.3)"/>
        <path d="M 0 0 l 0 -34.36 s 0 -0 0 -0 l 80 0 s 0 0 0 0 l 0 34.36 z" transform="translate(763,103.1)"/>
        <path d="M 0 0 l 0 -34.36 s 0 -0 0 -0 l 80 0 s 0 0 0 0 l 0 34.36 z" fill="url(#WhiteBlackGradient)" transform="translate(763,103.1)"/>
        <path d="M 0 0 l 0 -34.36 s 0 -0 0 -0 l 80 0 s 0 0 0 0 l 0 34.36 z" fill-opacity="0.3" filter="url(#SaturateMinus)" transform="translate(763,103.1)"/>
      </g>
      <g fill="pink" fill-opacity="1" filter="none" id="ID_graph_shadow_7" opacity="1" stroke="none" stroke-opacity="1" stroke-width="0">
        <path d="M 0 0 l 0 4.72 s 0 0 0 0 l 80 0 s 0 0 0 -0 l 0 -4.72 z" transform="translate(63,253.9)"/>
        <path d="M 0 0 l 0 4.72 s 0 0 0 0 l 80 0 s 0 0 0 -0 l 0 -4.72 z" fill="url(#WhiteBlackGradient)" transform="translate(63,253.9)"/>
        <path d="M 0 0 l 0 4.72 s 0 0 0 0 l 80 0 s 0 0 0 -0 l 0 -4.72 z" fill-opacity="0.3" filter="url(#SaturateMinus)" transform="translate(63,253.9)"/>
        <path d="M 0 0 l 0 -9.45 s 0 -0 0 -0 l 80 0 s 0 0 0 0 l 0 9.45 z" transform="translate(163,192.18)"/>
        <path d="M 0 0 l 0 -9.45 s 0 -0 0 -0 l 80 0 s 0 0 0 0 l 0 9.45 z" fill="url(#WhiteBlackGradient)" transform="translate(163,192.18)"/>
        <path d="M 0 0 l 0 -9.45 s 0 -0 0 -0 l 80 0 s 0 0 0 0 l 0 9.45 z" fill-opacity="0.3" filter="url(#SaturateMinus)" transform="translate(163,192.18)"/>
        <path d="M 0 0 l 0 14.17 s 0 0 0 0 l 80 0 s 0 0 0 -0 l 0 -14.17 z" transform="translate(263,295.05)"/>
        <path d="M 0 0 l 0 14.17 s 0 0 0 0 l 80 0 s 0 0 0 -0 l 0 -14.17 z" fill="url(#WhiteBlackGradient)" transform="translate(263,295.05)"/>
        <path d="M 0 0 l 0 14.17 s 0 0 0 0 l 80 0 s 0 0 0 -0 l 0 -14.17 z" fill-opacity="0.3" filter="url(#SaturateMinus)" transform="translate(263,295.05)"/>
        <path d="M 0 0 l 0 -18.9 s 0 -0 0 -0 l 80 0 s 0 0 0 0 l 0 18.9 z" transform="translate(363,151.02)"/>
        <path d="M 0 0 l 0 -18.9 s 0 -0 0 -0 l 80 0 s 0 0 0 0 l 0 18.9 z" fill="url(#WhiteBlackGradient)" transform="translate(363,151.02)"/>
        <path d="M 0 0 l 0 -18.9 s 0 -0 0 -0 l 80 0 s 0 0 0 0 l 0 18.9 z" fill-opacity="0.3" filter="url(#SaturateMinus)" transform="translate(363,151.02)"/>
        <path d="M 0 0 l 0 23.62 s 0 0 0 0 l 80 0 s 0 0 0 -0 l 0 -23.62 z" transform="translate(463,336.2)"/>
        <path d="M 0 0 l 0 23.62 s 0 0 0 0 l 80 0 s 0 0 0 -0 l 0 -23.62 z" fill="url(#WhiteBlackGradient)" transform="translate(463,336.2)"/>
        <path d="M 0 0 l 0 23.62 s 0 0 0 0 l 80 0 s 0 0 0 -0 l 0 -23.62 z" fill-opacity="0.3" filter="url(#SaturateMinus)" transform="translate(463,336.2)"/>
        <path d="M 0 0 l 0 -28.34 s 0 -0 0 -0 l 80 0 s 0 0 0 0 l 0 28.34 z" transform="translate(563,109.87)"/>
        <path d="M 0 0 l 0 -28.34 s 0 -0 0 -0 l 80 0 s 0 0 0 0 l 0 28.34 z" fill="url(#WhiteBlackGradient)" transform="translate(563,109.87)"/>
        <path d="M 0 0 l 0 -28.34 s 0 -0 0 -0 l 80 0 s 0 0 0 0 l 0 28.34 z" fill-opacity="0.3" filter="url(#SaturateMinus)" transform="translate(563,109.87)"/>
        <path d="M 0 0 l 0 33.07 s 0 0 0 0 l 80 0 s 0 0 0 -0 l 0 -33.07 z" transform="translate(663,377.36)"/>
        <path d="M 0 0 l 0 33.07 s 0 0 0 0 l 80 0 s 0 0 0 -0 l 0 -33.07 z" fill="url(#WhiteBlackGradient)" transform="translate(663,377.36)"/>
        <path d="M 0 0 l 0 33.07 s 0 0 0 0 l 80 0 s 0 0 0 -0 l 0 -33.07 z" fill-opacity="0.3" filter="url(#SaturateMinus)" transform="translate(663,377.36)"/>
        <path d="M 0 0 l 0 -37.79 s 0 -0 0 -0 l 80 0 s 0 0 0 0 l 0 37.79 z" transform="translate(763,68.74)"/>
        <path d="M 0 0 l 0 -37.79 s 0 -0 0 -0 l 80 0 s 0 0 0 0 l 0 37.79 z" fill="url(#WhiteBlackGradient)" transform="translate(763,68.74)"/>
        <path d="M 0 0 l 0 -37.79 s 0 -0 0 -0 l 80 0 s 0 0 0 0 l 0 37.79 z" fill-opacity="0.3" filter="url(#SaturateMinus)" transform="translate(763,68.74)"/>
      </g>
    </g>
  </g>

</svg>