<?xml version="1.0" encoding="UTF-8" standalone="no" ?><svg xmlns="http://www.w3.org/2000/svg" id="ID_svg" viewBox="0 0 1168 500" viewport-fill="white" viewport-fill-opacity="0" xmlns:exsl4D="http://www.4D.com" xmlns:math="http://exslt.org/math" xmlns:xlink="http://www.w3.org/1999/xlink"><!--gradient styles--><defs><filter id="soft_blur"><feGaussianBlur in="SourceGraphic" result="BlurAlpha" stdDeviation="1"/></filter><filter id="pastel"><feGaussianBlur in="SourceAlpha" result="blur" stdDeviation="2"/><feOffset dx="6" dy="6" in="blur" result="offsetBlur"/><feComposite in="SourceGraphic" in2="offsetBlur" operator="in" result="specOut"/></filter><filter id="blur_shadow"><feGaussianBlur in="SourceAlpha" result="blur" stdDeviation="3"/><feOffset dx="4" dy="2" in="blur" result="offsetBlur"/><feBlend in="SourceGraphic" in2="offsetBlur" mode="normal"/></filter><filter filterUnits="objectBoundingBox" id="Shadow"><feGaussianBlur in="SourceAlpha" result="flou" stdDeviation="0"/><feColorMatrix in="SourceAlpha" result="flouBlue" type="matrix" values=" 0 0 0 0 0                      0 0 0 0 0                     0 0 0 0 0                      0 0 0 0.3 0"/><feOffset dx="4" dy="4" in="flouBlue" result="flouDecalage"/><feBlend in="SourceGraphic" in2="flouDecalage" mode="normal"/></filter><filter filterUnits="objectBoundingBox" height="100%" id="SaturateMinus" width="100%" x="0%" y="0%"><feColorMatrix in="SourceGraphic" type="saturate" values="0.5"/></filter><filter filterUnits="objectBoundingBox" height="100%" id="SaturatePlus" width="100%" x="0%" y="0%"><feColorMatrix in="SourceGraphic" type="saturate" values="1.4"/></filter><linearGradient id="BlackGradient"><stop offset="0%" style="stop-color:rgb(0,0,0); stop-opacity:0"/><stop offset="100%" style="stop-color:rgb(0,0,0); stop-opacity:0.1"/></linearGradient><linearGradient id="WhiteGradient" x1="0%" x2="100%" y1="0%" y2="0%"><stop offset="0%" style="stop-color:rgb(255,255,255); stop-opacity:0.3"/><stop offset="100%" style="stop-color:rgb(255,255,255);stop-opacity:0"/></linearGradient><linearGradient id="WhiteBlackGradient" x1="0%" x2="100%" y1="0%" y2="0%"><stop offset="0%" style="stop-color:rgb(255,255,255); stop-opacity:0.15"/><stop offset="100%" style="stop-color:rgb(0,0,0);stop-opacity:0.15"/></linearGradient><linearGradient id="Black0Black1Gradient" x1="0%" x2="0%" y1="0%" y2="100%"><stop offset="0%" style="stop-color:rgb(0,0,0); stop-opacity:0"/><stop offset="100%" style="stop-color:rgb(0,0,0);stop-opacity:0.05"/></linearGradient><clipPath id="ID_graph_clip"><rect height="446" width="1120" x="38" y="22"/></clipPath></defs><!--global stroke and font styles--><g id="ID_globals" style="fill:black;stroke:none;font-family:Arial;font-size:12px;font-weight:normal;font-style:normal;text-decoration:none;shape-rendering:crispEdges"><!--draw title--><!--draw legend--><!--draw graph background--><rect fill="rgb(168,168,168)" fill-opacity="1" height="446" id="ID_background_shadow" rx="10" ry="10" stroke="none" visibility="visible" width="1120" x="39" y="23"/><g fill="rgb(229,229,229)" id="ID_background" visibility="visible"><rect height="446" rx="10" ry="10" stroke="none" width="1120" x="38" y="22"/><rect fill="url(#Black0Black1Gradient)" height="446" rx="10" ry="10" stroke="none" width="1120" x="38" y="22"/></g><clipPath id="ID_backgroundClipPath"><rect height="447" rx="10" ry="10" width="1121" x="38" y="22"/></clipPath><!--draw Y grid lines--><!--draw Y grid lines SHADOWS--><!--draw X grid lines--><!--draw X grid lines SHADOWS --><!--draw y=0 axe--><g id="ID_y0_axis" stroke="rgb(100,100,100)" stroke-width="1" visibility="visible"><line x1="38" x2="1158" y1="276.8571428571429" y2="276.8571428571429"/></g><!--draw axis x labels--><g id="ID_x_values" style="fill:black;stroke:none;font-family:Arial;font-size:12px;font-weight:normal;font-style:normal;text-decoration:none;filter:none"><text text-anchor="middle" x="111" y="486.8">PT8H0M0S</text><text text-anchor="middle" x="251" y="486.8">PT9H0M0S</text><text text-anchor="middle" x="391" y="486.8">PT10H0M0S</text><text text-anchor="middle" x="531" y="486.8">PT11H0M0S</text><text text-anchor="middle" x="671" y="486.8">PT11H15M0S</text><text text-anchor="middle" x="811" y="486.8">PT14H45M0S</text><text text-anchor="middle" x="951" y="486.8">PT15H0M0S</text><text text-anchor="middle" x="1091" y="486.8">PT16H0M0S</text></g><!--draw axis y labels--><g id="ID_y_values" style="fill:black;stroke:none;font-family:Arial;font-size:12px;font-weight:normal;font-style:normal;text-decoration:none;filter:none"><text text-anchor="end" x="28" y="472.8">-15</text><text text-anchor="end" x="28" y="409.0857142857143">-10</text><text text-anchor="end" x="28" y="345.37142857142857">-5</text><text text-anchor="end" x="28" y="281.6571428571429">0</text><text text-anchor="end" x="28" y="217.94285714285718">5</text><text text-anchor="end" x="28" y="154.22857142857146">10</text><text text-anchor="end" x="28" y="90.51428571428572">15</text><text text-anchor="end" x="28" y="26.800000000000058">20</text></g><!--draw lines and bullets--><g filter="none" stroke-width="2"><!--draw line for data type 1--><g filter="none" id="ID_graph_1" stroke="rgb(0,178,195)" stroke-opacity="1" stroke-width="2"><line fill-opacity="1" x1="108" x2="248" y1="289.6" y2="251.3714285714286"/><line fill-opacity="1" x1="248" x2="388" y1="251.3714285714286" y2="315.0857142857143"/><line fill-opacity="1" x1="388" x2="528" y1="315.0857142857143" y2="225.88571428571433"/><line fill-opacity="1" x1="528" x2="668" y1="225.88571428571433" y2="340.5714285714286"/><line fill-opacity="1" x1="668" x2="808" y1="340.5714285714286" y2="200.40000000000003"/><line fill-opacity="1" x1="808" x2="948" y1="200.40000000000003" y2="366.0571428571429"/><line fill-opacity="1" x1="948" x2="1088" y1="366.0571428571429" y2="174.91428571428577"/></g><!--draw line for data type 2--><g filter="none" id="ID_graph_2" stroke="rgb(255,195,56)" stroke-opacity="1" stroke-width="2"><line fill-opacity="1" x1="108" x2="248" y1="290.87428571428575" y2="248.82285714285717"/><line fill-opacity="1" x1="248" x2="388" y1="248.82285714285717" y2="318.90857142857146"/><line fill-opacity="1" x1="388" x2="528" y1="318.90857142857146" y2="220.78857142857146"/><line fill-opacity="1" x1="528" x2="668" y1="220.78857142857146" y2="346.9428571428572"/><line fill-opacity="1" x1="668" x2="808" y1="346.9428571428572" y2="192.75428571428574"/><line fill-opacity="1" x1="808" x2="948" y1="192.75428571428574" y2="374.9771428571429"/><line fill-opacity="1" x1="948" x2="1088" y1="374.9771428571429" y2="164.72000000000003"/></g><!--draw line for data type 3--><g filter="none" id="ID_graph_3" stroke="rgb(87,62,130)" stroke-opacity="1" stroke-width="2"><line fill-opacity="1" x1="108" x2="248" y1="292.276" y2="246.0194285714286"/><line fill-opacity="1" x1="248" x2="388" y1="246.0194285714286" y2="323.1137142857143"/><line fill-opacity="1" x1="388" x2="528" y1="323.1137142857143" y2="215.18171428571432"/><line fill-opacity="1" x1="528" x2="668" y1="215.18171428571432" y2="353.9514285714286"/><line fill-opacity="1" x1="668" x2="808" y1="353.9514285714286" y2="184.34400000000005"/><line fill-opacity="1" x1="808" x2="948" y1="184.34400000000005" y2="384.7891428571429"/><line fill-opacity="1" x1="948" x2="1088" y1="384.7891428571429" y2="153.50628571428575"/></g><!--draw line for data type 4--><g filter="none" id="ID_graph_4" stroke="rgb(79,168,57)" stroke-opacity="1" stroke-width="2"><line fill-opacity="1" x1="108" x2="248" y1="293.81788571428575" y2="242.93565714285717"/><line fill-opacity="1" x1="248" x2="388" y1="242.93565714285717" y2="327.7393714285715"/><line fill-opacity="1" x1="388" x2="528" y1="327.7393714285715" y2="209.01417142857147"/><line fill-opacity="1" x1="528" x2="668" y1="209.01417142857147" y2="361.66085714285714"/><line fill-opacity="1" x1="668" x2="808" y1="361.66085714285714" y2="175.09268571428575"/><line fill-opacity="1" x1="808" x2="948" y1="175.09268571428575" y2="395.58234285714286"/><line fill-opacity="1" x1="948" x2="1088" y1="395.58234285714286" y2="141.17120000000006"/></g><!--draw line for data type 5--><g filter="none" id="ID_graph_5" stroke="rgb(217,87,0)" stroke-opacity="1" stroke-width="2"><line fill-opacity="1" x1="108" x2="248" y1="295.51396000000005" y2="239.54350857142862"/><line fill-opacity="1" x1="248" x2="388" y1="239.54350857142862" y2="332.8275942857143"/><line fill-opacity="1" x1="388" x2="528" y1="332.8275942857143" y2="202.22987428571435"/><line fill-opacity="1" x1="528" x2="668" y1="202.22987428571435" y2="370.1412285714286"/><line fill-opacity="1" x1="668" x2="808" y1="370.1412285714286" y2="164.91624000000004"/><line fill-opacity="1" x1="808" x2="948" y1="164.91624000000004" y2="407.45486285714287"/><line fill-opacity="1" x1="948" x2="1088" y1="407.45486285714287" y2="127.60260571428577"/></g><!--draw line for data type 6--><g filter="none" id="ID_graph_6" stroke="rgb(29,157,242)" stroke-opacity="1" stroke-width="2"><line fill-opacity="1" x1="108" x2="248" y1="297.37964171428575" y2="235.81214514285716"/><line fill-opacity="1" x1="248" x2="388" y1="235.81214514285716" y2="338.4246394285715"/><line fill-opacity="1" x1="388" x2="528" y1="338.4246394285715" y2="194.76714742857146"/><line fill-opacity="1" x1="528" x2="668" y1="194.76714742857146" y2="379.46963714285715"/><line fill-opacity="1" x1="668" x2="808" y1="379.46963714285715" y2="153.72214971428576"/><line fill-opacity="1" x1="808" x2="948" y1="153.72214971428576" y2="420.5146348571429"/><line fill-opacity="1" x1="948" x2="1088" y1="420.5146348571429" y2="112.67715200000004"/></g><!--draw line for data type 7--><g filter="none" id="ID_graph_7" stroke="rgb(181,207,50)" stroke-opacity="1" stroke-width="2"><line fill-opacity="1" x1="108" x2="248" y1="299.43189160000003" y2="231.7076453714286"/><line fill-opacity="1" x1="248" x2="388" y1="231.7076453714286" y2="344.5813890857143"/><line fill-opacity="1" x1="388" x2="528" y1="344.5813890857143" y2="186.55814788571433"/><line fill-opacity="1" x1="528" x2="668" y1="186.55814788571433" y2="389.73088657142864"/><line fill-opacity="1" x1="668" x2="808" y1="389.73088657142864" y2="141.40865040000006"/><line fill-opacity="1" x1="808" x2="948" y1="141.40865040000006" y2="434.88038405714286"/><line fill-opacity="1" x1="948" x2="1088" y1="434.88038405714286" y2="96.25915291428578"/></g><!--draw line for data type 8--><g filter="none" id="ID_graph_8" stroke="rgb(212,58,38)" stroke-opacity="1" stroke-width="2"><line fill-opacity="1" x1="108" x2="248" y1="301.68936647428575" y2="227.19269562285717"/><line fill-opacity="1" x1="248" x2="388" y1="227.19269562285717" y2="351.35381370857147"/><line fill-opacity="1" x1="388" x2="528" y1="351.35381370857147" y2="177.52824838857146"/><line fill-opacity="1" x1="528" x2="668" y1="177.52824838857146" y2="401.0182609428572"/><line fill-opacity="1" x1="668" x2="808" y1="401.0182609428572" y2="127.86380115428577"/><line fill-opacity="1" x1="808" x2="948" y1="127.86380115428577" y2="450.6827081771429"/><line fill-opacity="1" x1="948" x2="1088" y1="450.6827081771429" y2="78.19935392000005"/></g><g id="allBullets"><!--draw bullet for data type 1--><g fill="rgb(0,178,195)" fill-opacity="1" filter="none" id="ID_bullet_1" stroke="none" stroke-opacity="1" stroke-width="1"><rect height="12" rx="1.5" ry="1.5" width="12" x="102" y="283.6"/><rect fill="url(#WhiteBlackGradient)" height="12" rx="1.5" ry="1.5" width="12" x="102" y="283.6"/><rect fill-opacity="0.3" filter="url(#SaturateMinus)" height="12" rx="1.5" ry="1.5" width="12" x="102" y="283.6"/><rect height="12" rx="1.5" ry="1.5" width="12" x="242" y="245.3714285714286"/><rect fill="url(#WhiteBlackGradient)" height="12" rx="1.5" ry="1.5" width="12" x="242" y="245.3714285714286"/><rect fill-opacity="0.3" filter="url(#SaturateMinus)" height="12" rx="1.5" ry="1.5" width="12" x="242" y="245.3714285714286"/><rect height="12" rx="1.5" ry="1.5" width="12" x="382" y="309.0857142857143"/><rect fill="url(#WhiteBlackGradient)" height="12" rx="1.5" ry="1.5" width="12" x="382" y="309.0857142857143"/><rect fill-opacity="0.3" filter="url(#SaturateMinus)" height="12" rx="1.5" ry="1.5" width="12" x="382" y="309.0857142857143"/><rect height="12" rx="1.5" ry="1.5" width="12" x="522" y="219.88571428571433"/><rect fill="url(#WhiteBlackGradient)" height="12" rx="1.5" ry="1.5" width="12" x="522" y="219.88571428571433"/><rect fill-opacity="0.3" filter="url(#SaturateMinus)" height="12" rx="1.5" ry="1.5" width="12" x="522" y="219.88571428571433"/><rect height="12" rx="1.5" ry="1.5" width="12" x="662" y="334.5714285714286"/><rect fill="url(#WhiteBlackGradient)" height="12" rx="1.5" ry="1.5" width="12" x="662" y="334.5714285714286"/><rect fill-opacity="0.3" filter="url(#SaturateMinus)" height="12" rx="1.5" ry="1.5" width="12" x="662" y="334.5714285714286"/><rect height="12" rx="1.5" ry="1.5" width="12" x="802" y="194.40000000000003"/><rect fill="url(#WhiteBlackGradient)" height="12" rx="1.5" ry="1.5" width="12" x="802" y="194.40000000000003"/><rect fill-opacity="0.3" filter="url(#SaturateMinus)" height="12" rx="1.5" ry="1.5" width="12" x="802" y="194.40000000000003"/><rect height="12" rx="1.5" ry="1.5" width="12" x="942" y="360.0571428571429"/><rect fill="url(#WhiteBlackGradient)" height="12" rx="1.5" ry="1.5" width="12" x="942" y="360.0571428571429"/><rect fill-opacity="0.3" filter="url(#SaturateMinus)" height="12" rx="1.5" ry="1.5" width="12" x="942" y="360.0571428571429"/><rect height="12" rx="1.5" ry="1.5" width="12" x="1082" y="168.91428571428577"/><rect fill="url(#WhiteBlackGradient)" height="12" rx="1.5" ry="1.5" width="12" x="1082" y="168.91428571428577"/><rect fill-opacity="0.3" filter="url(#SaturateMinus)" height="12" rx="1.5" ry="1.5" width="12" x="1082" y="168.91428571428577"/></g><!--draw bullet for data type 2--><g fill="rgb(255,195,56)" fill-opacity="1" filter="none" id="ID_bullet_2" stroke="none" stroke-opacity="1" stroke-width="1"><rect height="12" rx="1.5" ry="1.5" width="12" x="102" y="284.87428571428575"/><rect fill="url(#WhiteBlackGradient)" height="12" rx="1.5" ry="1.5" width="12" x="102" y="284.87428571428575"/><rect fill-opacity="0.3" filter="url(#SaturateMinus)" height="12" rx="1.5" ry="1.5" width="12" x="102" y="284.87428571428575"/><rect height="12" rx="1.5" ry="1.5" width="12" x="242" y="242.82285714285717"/><rect fill="url(#WhiteBlackGradient)" height="12" rx="1.5" ry="1.5" width="12" x="242" y="242.82285714285717"/><rect fill-opacity="0.3" filter="url(#SaturateMinus)" height="12" rx="1.5" ry="1.5" width="12" x="242" y="242.82285714285717"/><rect height="12" rx="1.5" ry="1.5" width="12" x="382" y="312.90857142857146"/><rect fill="url(#WhiteBlackGradient)" height="12" rx="1.5" ry="1.5" width="12" x="382" y="312.90857142857146"/><rect fill-opacity="0.3" filter="url(#SaturateMinus)" height="12" rx="1.5" ry="1.5" width="12" x="382" y="312.90857142857146"/><rect height="12" rx="1.5" ry="1.5" width="12" x="522" y="214.78857142857146"/><rect fill="url(#WhiteBlackGradient)" height="12" rx="1.5" ry="1.5" width="12" x="522" y="214.78857142857146"/><rect fill-opacity="0.3" filter="url(#SaturateMinus)" height="12" rx="1.5" ry="1.5" width="12" x="522" y="214.78857142857146"/><rect height="12" rx="1.5" ry="1.5" width="12" x="662" y="340.9428571428572"/><rect fill="url(#WhiteBlackGradient)" height="12" rx="1.5" ry="1.5" width="12" x="662" y="340.9428571428572"/><rect fill-opacity="0.3" filter="url(#SaturateMinus)" height="12" rx="1.5" ry="1.5" width="12" x="662" y="340.9428571428572"/><rect height="12" rx="1.5" ry="1.5" width="12" x="802" y="186.75428571428574"/><rect fill="url(#WhiteBlackGradient)" height="12" rx="1.5" ry="1.5" width="12" x="802" y="186.75428571428574"/><rect fill-opacity="0.3" filter="url(#SaturateMinus)" height="12" rx="1.5" ry="1.5" width="12" x="802" y="186.75428571428574"/><rect height="12" rx="1.5" ry="1.5" width="12" x="942" y="368.9771428571429"/><rect fill="url(#WhiteBlackGradient)" height="12" rx="1.5" ry="1.5" width="12" x="942" y="368.9771428571429"/><rect fill-opacity="0.3" filter="url(#SaturateMinus)" height="12" rx="1.5" ry="1.5" width="12" x="942" y="368.9771428571429"/><rect height="12" rx="1.5" ry="1.5" width="12" x="1082" y="158.72000000000003"/><rect fill="url(#WhiteBlackGradient)" height="12" rx="1.5" ry="1.5" width="12" x="1082" y="158.72000000000003"/><rect fill-opacity="0.3" filter="url(#SaturateMinus)" height="12" rx="1.5" ry="1.5" width="12" x="1082" y="158.72000000000003"/></g><!--draw bullet for data type 3--><g fill="rgb(87,62,130)" fill-opacity="1" filter="none" id="ID_bullet_3" stroke="none" stroke-opacity="1" stroke-width="1"><rect height="12" rx="1.5" ry="1.5" width="12" x="102" y="286.276"/><rect fill="url(#WhiteBlackGradient)" height="12" rx="1.5" ry="1.5" width="12" x="102" y="286.276"/><rect fill-opacity="0.3" filter="url(#SaturateMinus)" height="12" rx="1.5" ry="1.5" width="12" x="102" y="286.276"/><rect height="12" rx="1.5" ry="1.5" width="12" x="242" y="240.0194285714286"/><rect fill="url(#WhiteBlackGradient)" height="12" rx="1.5" ry="1.5" width="12" x="242" y="240.0194285714286"/><rect fill-opacity="0.3" filter="url(#SaturateMinus)" height="12" rx="1.5" ry="1.5" width="12" x="242" y="240.0194285714286"/><rect height="12" rx="1.5" ry="1.5" width="12" x="382" y="317.1137142857143"/><rect fill="url(#WhiteBlackGradient)" height="12" rx="1.5" ry="1.5" width="12" x="382" y="317.1137142857143"/><rect fill-opacity="0.3" filter="url(#SaturateMinus)" height="12" rx="1.5" ry="1.5" width="12" x="382" y="317.1137142857143"/><rect height="12" rx="1.5" ry="1.5" width="12" x="522" y="209.18171428571432"/><rect fill="url(#WhiteBlackGradient)" height="12" rx="1.5" ry="1.5" width="12" x="522" y="209.18171428571432"/><rect fill-opacity="0.3" filter="url(#SaturateMinus)" height="12" rx="1.5" ry="1.5" width="12" x="522" y="209.18171428571432"/><rect height="12" rx="1.5" ry="1.5" width="12" x="662" y="347.9514285714286"/><rect fill="url(#WhiteBlackGradient)" height="12" rx="1.5" ry="1.5" width="12" x="662" y="347.9514285714286"/><rect fill-opacity="0.3" filter="url(#SaturateMinus)" height="12" rx="1.5" ry="1.5" width="12" x="662" y="347.9514285714286"/><rect height="12" rx="1.5" ry="1.5" width="12" x="802" y="178.34400000000005"/><rect fill="url(#WhiteBlackGradient)" height="12" rx="1.5" ry="1.5" width="12" x="802" y="178.34400000000005"/><rect fill-opacity="0.3" filter="url(#SaturateMinus)" height="12" rx="1.5" ry="1.5" width="12" x="802" y="178.34400000000005"/><rect height="12" rx="1.5" ry="1.5" width="12" x="942" y="378.7891428571429"/><rect fill="url(#WhiteBlackGradient)" height="12" rx="1.5" ry="1.5" width="12" x="942" y="378.7891428571429"/><rect fill-opacity="0.3" filter="url(#SaturateMinus)" height="12" rx="1.5" ry="1.5" width="12" x="942" y="378.7891428571429"/><rect height="12" rx="1.5" ry="1.5" width="12" x="1082" y="147.50628571428575"/><rect fill="url(#WhiteBlackGradient)" height="12" rx="1.5" ry="1.5" width="12" x="1082" y="147.50628571428575"/><rect fill-opacity="0.3" filter="url(#SaturateMinus)" height="12" rx="1.5" ry="1.5" width="12" x="1082" y="147.50628571428575"/></g><!--draw bullet for data type 4--><g fill="rgb(79,168,57)" fill-opacity="1" filter="none" id="ID_bullet_4" stroke="none" stroke-opacity="1" stroke-width="1"><rect height="12" rx="1.5" ry="1.5" width="12" x="102" y="287.81788571428575"/><rect fill="url(#WhiteBlackGradient)" height="12" rx="1.5" ry="1.5" width="12" x="102" y="287.81788571428575"/><rect fill-opacity="0.3" filter="url(#SaturateMinus)" height="12" rx="1.5" ry="1.5" width="12" x="102" y="287.81788571428575"/><rect height="12" rx="1.5" ry="1.5" width="12" x="242" y="236.93565714285717"/><rect fill="url(#WhiteBlackGradient)" height="12" rx="1.5" ry="1.5" width="12" x="242" y="236.93565714285717"/><rect fill-opacity="0.3" filter="url(#SaturateMinus)" height="12" rx="1.5" ry="1.5" width="12" x="242" y="236.93565714285717"/><rect height="12" rx="1.5" ry="1.5" width="12" x="382" y="321.7393714285715"/><rect fill="url(#WhiteBlackGradient)" height="12" rx="1.5" ry="1.5" width="12" x="382" y="321.7393714285715"/><rect fill-opacity="0.3" filter="url(#SaturateMinus)" height="12" rx="1.5" ry="1.5" width="12" x="382" y="321.7393714285715"/><rect height="12" rx="1.5" ry="1.5" width="12" x="522" y="203.01417142857147"/><rect fill="url(#WhiteBlackGradient)" height="12" rx="1.5" ry="1.5" width="12" x="522" y="203.01417142857147"/><rect fill-opacity="0.3" filter="url(#SaturateMinus)" height="12" rx="1.5" ry="1.5" width="12" x="522" y="203.01417142857147"/><rect height="12" rx="1.5" ry="1.5" width="12" x="662" y="355.66085714285714"/><rect fill="url(#WhiteBlackGradient)" height="12" rx="1.5" ry="1.5" width="12" x="662" y="355.66085714285714"/><rect fill-opacity="0.3" filter="url(#SaturateMinus)" height="12" rx="1.5" ry="1.5" width="12" x="662" y="355.66085714285714"/><rect height="12" rx="1.5" ry="1.5" width="12" x="802" y="169.09268571428575"/><rect fill="url(#WhiteBlackGradient)" height="12" rx="1.5" ry="1.5" width="12" x="802" y="169.09268571428575"/><rect fill-opacity="0.3" filter="url(#SaturateMinus)" height="12" rx="1.5" ry="1.5" width="12" x="802" y="169.09268571428575"/><rect height="12" rx="1.5" ry="1.5" width="12" x="942" y="389.58234285714286"/><rect fill="url(#WhiteBlackGradient)" height="12" rx="1.5" ry="1.5" width="12" x="942" y="389.58234285714286"/><rect fill-opacity="0.3" filter="url(#SaturateMinus)" height="12" rx="1.5" ry="1.5" width="12" x="942" y="389.58234285714286"/><rect height="12" rx="1.5" ry="1.5" width="12" x="1082" y="135.17120000000006"/><rect fill="url(#WhiteBlackGradient)" height="12" rx="1.5" ry="1.5" width="12" x="1082" y="135.17120000000006"/><rect fill-opacity="0.3" filter="url(#SaturateMinus)" height="12" rx="1.5" ry="1.5" width="12" x="1082" y="135.17120000000006"/></g><!--draw bullet for data type 5--><g fill="rgb(217,87,0)" fill-opacity="1" filter="none" id="ID_bullet_5" stroke="none" stroke-opacity="1" stroke-width="1"><rect height="12" rx="1.5" ry="1.5" width="12" x="102" y="289.51396000000005"/><rect fill="url(#WhiteBlackGradient)" height="12" rx="1.5" ry="1.5" width="12" x="102" y="289.51396000000005"/><rect fill-opacity="0.3" filter="url(#SaturateMinus)" height="12" rx="1.5" ry="1.5" width="12" x="102" y="289.51396000000005"/><rect height="12" rx="1.5" ry="1.5" width="12" x="242" y="233.54350857142862"/><rect fill="url(#WhiteBlackGradient)" height="12" rx="1.5" ry="1.5" width="12" x="242" y="233.54350857142862"/><rect fill-opacity="0.3" filter="url(#SaturateMinus)" height="12" rx="1.5" ry="1.5" width="12" x="242" y="233.54350857142862"/><rect height="12" rx="1.5" ry="1.5" width="12" x="382" y="326.8275942857143"/><rect fill="url(#WhiteBlackGradient)" height="12" rx="1.5" ry="1.5" width="12" x="382" y="326.8275942857143"/><rect fill-opacity="0.3" filter="url(#SaturateMinus)" height="12" rx="1.5" ry="1.5" width="12" x="382" y="326.8275942857143"/><rect height="12" rx="1.5" ry="1.5" width="12" x="522" y="196.22987428571435"/><rect fill="url(#WhiteBlackGradient)" height="12" rx="1.5" ry="1.5" width="12" x="522" y="196.22987428571435"/><rect fill-opacity="0.3" filter="url(#SaturateMinus)" height="12" rx="1.5" ry="1.5" width="12" x="522" y="196.22987428571435"/><rect height="12" rx="1.5" ry="1.5" width="12" x="662" y="364.1412285714286"/><rect fill="url(#WhiteBlackGradient)" height="12" rx="1.5" ry="1.5" width="12" x="662" y="364.1412285714286"/><rect fill-opacity="0.3" filter="url(#SaturateMinus)" height="12" rx="1.5" ry="1.5" width="12" x="662" y="364.1412285714286"/><rect height="12" rx="1.5" ry="1.5" width="12" x="802" y="158.91624000000004"/><rect fill="url(#WhiteBlackGradient)" height="12" rx="1.5" ry="1.5" width="12" x="802" y="158.91624000000004"/><rect fill-opacity="0.3" filter="url(#SaturateMinus)" height="12" rx="1.5" ry="1.5" width="12" x="802" y="158.91624000000004"/><rect height="12" rx="1.5" ry="1.5" width="12" x="942" y="401.45486285714287"/><rect fill="url(#WhiteBlackGradient)" height="12" rx="1.5" ry="1.5" width="12" x="942" y="401.45486285714287"/><rect fill-opacity="0.3" filter="url(#SaturateMinus)" height="12" rx="1.5" ry="1.5" width="12" x="942" y="401.45486285714287"/><rect height="12" rx="1.5" ry="1.5" width="12" x="1082" y="121.60260571428577"/><rect fill="url(#WhiteBlackGradient)" height="12" rx="1.5" ry="1.5" width="12" x="1082" y="121.60260571428577"/><rect fill-opacity="0.3" filter="url(#SaturateMinus)" height="12" rx="1.5" ry="1.5" width="12" x="1082" y="121.60260571428577"/></g><!--draw bullet for data type 6--><g fill="rgb(29,157,242)" fill-opacity="1" filter="none" id="ID_bullet_6" stroke="none" stroke-opacity="1" stroke-width="1"><rect height="12" rx="1.5" ry="1.5" width="12" x="102" y="291.37964171428575"/><rect fill="url(#WhiteBlackGradient)" height="12" rx="1.5" ry="1.5" width="12" x="102" y="291.37964171428575"/><rect fill-opacity="0.3" filter="url(#SaturateMinus)" height="12" rx="1.5" ry="1.5" width="12" x="102" y="291.37964171428575"/><rect height="12" rx="1.5" ry="1.5" width="12" x="242" y="229.81214514285716"/><rect fill="url(#WhiteBlackGradient)" height="12" rx="1.5" ry="1.5" width="12" x="242" y="229.81214514285716"/><rect fill-opacity="0.3" filter="url(#SaturateMinus)" height="12" rx="1.5" ry="1.5" width="12" x="242" y="229.81214514285716"/><rect height="12" rx="1.5" ry="1.5" width="12" x="382" y="332.4246394285715"/><rect fill="url(#WhiteBlackGradient)" height="12" rx="1.5" ry="1.5" width="12" x="382" y="332.4246394285715"/><rect fill-opacity="0.3" filter="url(#SaturateMinus)" height="12" rx="1.5" ry="1.5" width="12" x="382" y="332.4246394285715"/><rect height="12" rx="1.5" ry="1.5" width="12" x="522" y="188.76714742857146"/><rect fill="url(#WhiteBlackGradient)" height="12" rx="1.5" ry="1.5" width="12" x="522" y="188.76714742857146"/><rect fill-opacity="0.3" filter="url(#SaturateMinus)" height="12" rx="1.5" ry="1.5" width="12" x="522" y="188.76714742857146"/><rect height="12" rx="1.5" ry="1.5" width="12" x="662" y="373.46963714285715"/><rect fill="url(#WhiteBlackGradient)" height="12" rx="1.5" ry="1.5" width="12" x="662" y="373.46963714285715"/><rect fill-opacity="0.3" filter="url(#SaturateMinus)" height="12" rx="1.5" ry="1.5" width="12" x="662" y="373.46963714285715"/><rect height="12" rx="1.5" ry="1.5" width="12" x="802" y="147.72214971428576"/><rect fill="url(#WhiteBlackGradient)" height="12" rx="1.5" ry="1.5" width="12" x="802" y="147.72214971428576"/><rect fill-opacity="0.3" filter="url(#SaturateMinus)" height="12" rx="1.5" ry="1.5" width="12" x="802" y="147.72214971428576"/><rect height="12" rx="1.5" ry="1.5" width="12" x="942" y="414.5146348571429"/><rect fill="url(#WhiteBlackGradient)" height="12" rx="1.5" ry="1.5" width="12" x="942" y="414.5146348571429"/><rect fill-opacity="0.3" filter="url(#SaturateMinus)" height="12" rx="1.5" ry="1.5" width="12" x="942" y="414.5146348571429"/><rect height="12" rx="1.5" ry="1.5" width="12" x="1082" y="106.67715200000004"/><rect fill="url(#WhiteBlackGradient)" height="12" rx="1.5" ry="1.5" width="12" x="1082" y="106.67715200000004"/><rect fill-opacity="0.3" filter="url(#SaturateMinus)" height="12" rx="1.5" ry="1.5" width="12" x="1082" y="106.67715200000004"/></g><!--draw bullet for data type 7--><g fill="rgb(181,207,50)" fill-opacity="1" filter="none" id="ID_bullet_7" stroke="none" stroke-opacity="1" stroke-width="1"><rect height="12" rx="1.5" ry="1.5" width="12" x="102" y="293.43189160000003"/><rect fill="url(#WhiteBlackGradient)" height="12" rx="1.5" ry="1.5" width="12" x="102" y="293.43189160000003"/><rect fill-opacity="0.3" filter="url(#SaturateMinus)" height="12" rx="1.5" ry="1.5" width="12" x="102" y="293.43189160000003"/><rect height="12" rx="1.5" ry="1.5" width="12" x="242" y="225.7076453714286"/><rect fill="url(#WhiteBlackGradient)" height="12" rx="1.5" ry="1.5" width="12" x="242" y="225.7076453714286"/><rect fill-opacity="0.3" filter="url(#SaturateMinus)" height="12" rx="1.5" ry="1.5" width="12" x="242" y="225.7076453714286"/><rect height="12" rx="1.5" ry="1.5" width="12" x="382" y="338.5813890857143"/><rect fill="url(#WhiteBlackGradient)" height="12" rx="1.5" ry="1.5" width="12" x="382" y="338.5813890857143"/><rect fill-opacity="0.3" filter="url(#SaturateMinus)" height="12" rx="1.5" ry="1.5" width="12" x="382" y="338.5813890857143"/><rect height="12" rx="1.5" ry="1.5" width="12" x="522" y="180.55814788571433"/><rect fill="url(#WhiteBlackGradient)" height="12" rx="1.5" ry="1.5" width="12" x="522" y="180.55814788571433"/><rect fill-opacity="0.3" filter="url(#SaturateMinus)" height="12" rx="1.5" ry="1.5" width="12" x="522" y="180.55814788571433"/><rect height="12" rx="1.5" ry="1.5" width="12" x="662" y="383.73088657142864"/><rect fill="url(#WhiteBlackGradient)" height="12" rx="1.5" ry="1.5" width="12" x="662" y="383.73088657142864"/><rect fill-opacity="0.3" filter="url(#SaturateMinus)" height="12" rx="1.5" ry="1.5" width="12" x="662" y="383.73088657142864"/><rect height="12" rx="1.5" ry="1.5" width="12" x="802" y="135.40865040000006"/><rect fill="url(#WhiteBlackGradient)" height="12" rx="1.5" ry="1.5" width="12" x="802" y="135.40865040000006"/><rect fill-opacity="0.3" filter="url(#SaturateMinus)" height="12" rx="1.5" ry="1.5" width="12" x="802" y="135.40865040000006"/><rect height="12" rx="1.5" ry="1.5" width="12" x="942" y="428.88038405714286"/><rect fill="url(#WhiteBlackGradient)" height="12" rx="1.5" ry="1.5" width="12" x="942" y="428.88038405714286"/><rect fill-opacity="0.3" filter="url(#SaturateMinus)" height="12" rx="1.5" ry="1.5" width="12" x="942" y="428.88038405714286"/><rect height="12" rx="1.5" ry="1.5" width="12" x="1082" y="90.25915291428578"/><rect fill="url(#WhiteBlackGradient)" height="12" rx="1.5" ry="1.5" width="12" x="1082" y="90.25915291428578"/><rect fill-opacity="0.3" filter="url(#SaturateMinus)" height="12" rx="1.5" ry="1.5" width="12" x="1082" y="90.25915291428578"/></g><!--draw bullet for data type 8--><g fill="rgb(212,58,38)" fill-opacity="1" filter="none" id="ID_bullet_8" stroke="none" stroke-opacity="1" stroke-width="1"><rect height="12" rx="1.5" ry="1.5" width="12" x="102" y="295.68936647428575"/><rect fill="url(#WhiteBlackGradient)" height="12" rx="1.5" ry="1.5" width="12" x="102" y="295.68936647428575"/><rect fill-opacity="0.3" filter="url(#SaturateMinus)" height="12" rx="1.5" ry="1.5" width="12" x="102" y="295.68936647428575"/><rect height="12" rx="1.5" ry="1.5" width="12" x="242" y="221.19269562285717"/><rect fill="url(#WhiteBlackGradient)" height="12" rx="1.5" ry="1.5" width="12" x="242" y="221.19269562285717"/><rect fill-opacity="0.3" filter="url(#SaturateMinus)" height="12" rx="1.5" ry="1.5" width="12" x="242" y="221.19269562285717"/><rect height="12" rx="1.5" ry="1.5" width="12" x="382" y="345.35381370857147"/><rect fill="url(#WhiteBlackGradient)" height="12" rx="1.5" ry="1.5" width="12" x="382" y="345.35381370857147"/><rect fill-opacity="0.3" filter="url(#SaturateMinus)" height="12" rx="1.5" ry="1.5" width="12" x="382" y="345.35381370857147"/><rect height="12" rx="1.5" ry="1.5" width="12" x="522" y="171.52824838857146"/><rect fill="url(#WhiteBlackGradient)" height="12" rx="1.5" ry="1.5" width="12" x="522" y="171.52824838857146"/><rect fill-opacity="0.3" filter="url(#SaturateMinus)" height="12" rx="1.5" ry="1.5" width="12" x="522" y="171.52824838857146"/><rect height="12" rx="1.5" ry="1.5" width="12" x="662" y="395.0182609428572"/><rect fill="url(#WhiteBlackGradient)" height="12" rx="1.5" ry="1.5" width="12" x="662" y="395.0182609428572"/><rect fill-opacity="0.3" filter="url(#SaturateMinus)" height="12" rx="1.5" ry="1.5" width="12" x="662" y="395.0182609428572"/><rect height="12" rx="1.5" ry="1.5" width="12" x="802" y="121.86380115428577"/><rect fill="url(#WhiteBlackGradient)" height="12" rx="1.5" ry="1.5" width="12" x="802" y="121.86380115428577"/><rect fill-opacity="0.3" filter="url(#SaturateMinus)" height="12" rx="1.5" ry="1.5" width="12" x="802" y="121.86380115428577"/><rect height="12" rx="1.5" ry="1.5" width="12" x="942" y="444.6827081771429"/><rect fill="url(#WhiteBlackGradient)" height="12" rx="1.5" ry="1.5" width="12" x="942" y="444.6827081771429"/><rect fill-opacity="0.3" filter="url(#SaturateMinus)" height="12" rx="1.5" ry="1.5" width="12" x="942" y="444.6827081771429"/><rect height="12" rx="1.5" ry="1.5" width="12" x="1082" y="72.19935392000005"/><rect fill="url(#WhiteBlackGradient)" height="12" rx="1.5" ry="1.5" width="12" x="1082" y="72.19935392000005"/><rect fill-opacity="0.3" filter="url(#SaturateMinus)" height="12" rx="1.5" ry="1.5" width="12" x="1082" y="72.19935392000005"/></g></g></g></g></svg>