<?xml version="1.0" encoding="UTF-8" standalone="no" ?><svg xmlns="http://www.w3.org/2000/svg" id="ID_svg" viewBox="0 0 1162 500" viewport-fill="white" viewport-fill-opacity="0" xmlns:exsl4D="http://www.4D.com" xmlns:math="http://exslt.org/math" xmlns:xlink="http://www.w3.org/1999/xlink"><!--gradient styles--><defs><filter id="soft_blur"><feGaussianBlur in="SourceGraphic" result="BlurAlpha" stdDeviation="1"/></filter><filter id="pastel"><feGaussianBlur in="SourceAlpha" result="blur" stdDeviation="2"/><feOffset dx="6" dy="6" in="blur" result="offsetBlur"/><feComposite in="SourceGraphic" in2="offsetBlur" operator="in" result="specOut"/></filter><filter id="blur_shadow"><feGaussianBlur in="SourceAlpha" result="blur" stdDeviation="3"/><feOffset dx="4" dy="2" in="blur" result="offsetBlur"/><feBlend in="SourceGraphic" in2="offsetBlur" mode="normal"/></filter><filter filterUnits="objectBoundingBox" id="Shadow"><feGaussianBlur in="SourceAlpha" result="flou" stdDeviation="0"/><feColorMatrix in="SourceAlpha" result="flouBlue" type="matrix" values=" 0 0 0 0 0                      0 0 0 0 0                     0 0 0 0 0                      0 0 0 0.3 0"/><feOffset dx="4" dy="4" in="flouBlue" result="flouDecalage"/><feBlend in="SourceGraphic" in2="flouDecalage" mode="normal"/></filter><filter filterUnits="objectBoundingBox" height="100%" id="SaturateMinus" width="100%" x="0%" y="0%"><feColorMatrix in="SourceGraphic" type="saturate" values="0.5"/></filter><filter filterUnits="objectBoundingBox" height="100%" id="SaturatePlus" width="100%" x="0%" y="0%"><feColorMatrix in="SourceGraphic" type="saturate" values="1.4"/></filter><linearGradient id="BlackGradient"><stop offset="0%" style="stop-color:rgb(0,0,0); stop-opacity:0"/><stop offset="100%" style="stop-color:rgb(0,0,0); stop-opacity:0.1"/></linearGradient><linearGradient id="WhiteGradient" x1="0%" x2="100%" y1="0%" y2="0%"><stop offset="0%" style="stop-color:rgb(255,255,255); stop-opacity:0.3"/><stop offset="100%" style="stop-color:rgb(255,255,255);stop-opacity:0"/></linearGradient><linearGradient id="WhiteBlackGradient" x1="0%" x2="100%" y1="0%" y2="0%"><stop offset="0%" style="stop-color:rgb(255,255,255); stop-opacity:0.15"/><stop offset="100%" style="stop-color:rgb(0,0,0);stop-opacity:0.15"/></linearGradient><linearGradient id="Black0Black1Gradient" x1="0%" x2="0%" y1="0%" y2="100%"><stop offset="0%" style="stop-color:rgb(0,0,0); stop-opacity:0"/><stop offset="100%" style="stop-color:rgb(0,0,0);stop-opacity:0.05"/></linearGradient><clipPath id="ID_graph_clip"><rect height="446" width="1120" x="32" y="22"/></clipPath></defs><!--global stroke and font styles--><g id="ID_globals" style="fill:black;stroke:none;font-family:Arial;font-size:12px;font-weight:normal;font-style:normal;text-decoration:none;shape-rendering:crispEdges"><!--draw title--><!--draw legend--><!--draw graph background--><rect fill="rgb(168,168,168)" fill-opacity="1" height="446" id="ID_background_shadow" rx="10" ry="10" stroke="none" visibility="visible" width="1120" x="33" y="23"/><g fill="rgb(229,229,229)" id="ID_background" visibility="visible"><rect height="446" rx="10" ry="10" stroke="none" width="1120" x="32" y="22"/><rect fill="url(#Black0Black1Gradient)" height="446" rx="10" ry="10" stroke="none" width="1120" x="32" y="22"/></g><clipPath id="ID_backgroundClipPath"><rect height="447" rx="10" ry="10" width="1121" x="32" y="22"/></clipPath><!--draw Y grid lines--><!--draw Y grid lines SHADOWS--><!--draw X grid lines--><!--draw X grid lines SHADOWS --><!--draw y=0 axe--><g id="ID_y0_axis" stroke="rgb(100,100,100)" stroke-width="1" visibility="visible"><line x1="32" x2="1152" y1="258.11764705882354" y2="258.11764705882354"/></g><!--draw axis x labels--><g id="ID_x_values" style="fill:black;stroke:none;font-family:Arial;font-size:12px;font-weight:normal;font-style:normal;text-decoration:none;filter:none"><text text-anchor="middle" x="105" y="486.8">PT8H0M0S</text><text text-anchor="middle" x="245" y="486.8">PT9H0M0S</text><text text-anchor="middle" x="385" y="486.8">PT10H0M0S</text><text text-anchor="middle" x="525" y="486.8">PT11H0M0S</text><text text-anchor="middle" x="665" y="486.8">PT11H15M0S</text><text text-anchor="middle" x="805" y="486.8">PT14H45M0S</text><text text-anchor="middle" x="945" y="486.8">PT15H0M0S</text><text text-anchor="middle" x="1085" y="486.8">PT16H0M0S</text></g><!--draw axis y labels--><g id="ID_y_values" style="fill:black;stroke:none;font-family:Arial;font-size:12px;font-weight:normal;font-style:normal;text-decoration:none;filter:none"><text text-anchor="end" x="22" y="472.8">-8</text><text text-anchor="end" x="22" y="446.56470588235294">-7</text><text text-anchor="end" x="22" y="420.32941176470587">-6</text><text text-anchor="end" x="22" y="394.09411764705885">-5</text><text text-anchor="end" x="22" y="367.8588235294118">-4</text><text text-anchor="end" x="22" y="341.6235294117647">-3</text><text text-anchor="end" x="22" y="315.3882352941177">-2</text><text text-anchor="end" x="22" y="289.1529411764706">-1</text><text text-anchor="end" x="22" y="262.91764705882355">0</text><text text-anchor="end" x="22" y="236.68235294117648">1</text><text text-anchor="end" x="22" y="210.4470588235294">2</text><text text-anchor="end" x="22" y="184.2117647058824">3</text><text text-anchor="end" x="22" y="157.97647058823532">4</text><text text-anchor="end" x="22" y="131.74117647058824">5</text><text text-anchor="end" x="22" y="105.50588235294121">6</text><text text-anchor="end" x="22" y="79.27058823529414">7</text><text text-anchor="end" x="22" y="53.03529411764707">8</text><text text-anchor="end" x="22" y="26.8">9</text></g><!--draw lines and bullets--><g filter="none" stroke-width="2"><!--draw line for data type 1--><g filter="none" id="ID_graph_1" stroke="rgb(0,178,195)" stroke-opacity="1" stroke-width="2"><line fill-opacity="1" x1="102" x2="242" y1="284.3529411764706" y2="205.64705882352942"/><line fill-opacity="1" x1="242" x2="382" y1="205.64705882352942" y2="336.8235294117647"/><line fill-opacity="1" x1="382" x2="522" y1="336.8235294117647" y2="153.1764705882353"/><line fill-opacity="1" x1="522" x2="662" y1="153.1764705882353" y2="389.29411764705884"/><line fill-opacity="1" x1="662" x2="802" y1="389.29411764705884" y2="100.70588235294119"/><line fill-opacity="1" x1="802" x2="942" y1="100.70588235294119" y2="441.7647058823529"/><line fill-opacity="1" x1="942" x2="1082" y1="441.7647058823529" y2="48.23529411764707"/></g><!--draw line for data type 2--><g filter="none" id="ID_graph_2" stroke="rgb(255,195,56)" stroke-opacity="1" stroke-width="2"><line fill-opacity="1" x1="102" x2="242" y1="286.9764705882353" y2="200.4"/><line fill-opacity="1" x1="242" x2="382" y1="200.4" y2="344.6941176470588"/><line fill-opacity="1" x1="382" x2="522" y1="344.6941176470588" y2="142.68235294117648"/><line fill-opacity="1" x1="522" x2="662" y1="142.68235294117648" y2="402.4117647058823"/><line fill-opacity="1" x1="662" x2="802" y1="402.4117647058823" y2="84.96470588235297"/><line fill-opacity="1" x1="802" x2="942" y1="84.96470588235297" y2="460.1294117647059"/><line fill-opacity="1" x1="942" x2="1082" y1="460.1294117647059" y2="27.247058823529414"/></g><g id="allBullets"><!--draw bullet for data type 1--><g fill="rgb(0,178,195)" fill-opacity="1" filter="none" id="ID_bullet_1" stroke="none" stroke-opacity="1" stroke-width="1"><rect height="12" rx="1.5" ry="1.5" width="12" x="96" y="278.3529411764706"/><rect fill="url(#WhiteBlackGradient)" height="12" rx="1.5" ry="1.5" width="12" x="96" y="278.3529411764706"/><rect fill-opacity="0.3" filter="url(#SaturateMinus)" height="12" rx="1.5" ry="1.5" width="12" x="96" y="278.3529411764706"/><rect height="12" rx="1.5" ry="1.5" width="12" x="236" y="199.64705882352942"/><rect fill="url(#WhiteBlackGradient)" height="12" rx="1.5" ry="1.5" width="12" x="236" y="199.64705882352942"/><rect fill-opacity="0.3" filter="url(#SaturateMinus)" height="12" rx="1.5" ry="1.5" width="12" x="236" y="199.64705882352942"/><rect height="12" rx="1.5" ry="1.5" width="12" x="376" y="330.8235294117647"/><rect fill="url(#WhiteBlackGradient)" height="12" rx="1.5" ry="1.5" width="12" x="376" y="330.8235294117647"/><rect fill-opacity="0.3" filter="url(#SaturateMinus)" height="12" rx="1.5" ry="1.5" width="12" x="376" y="330.8235294117647"/><rect height="12" rx="1.5" ry="1.5" width="12" x="516" y="147.1764705882353"/><rect fill="url(#WhiteBlackGradient)" height="12" rx="1.5" ry="1.5" width="12" x="516" y="147.1764705882353"/><rect fill-opacity="0.3" filter="url(#SaturateMinus)" height="12" rx="1.5" ry="1.5" width="12" x="516" y="147.1764705882353"/><rect height="12" rx="1.5" ry="1.5" width="12" x="656" y="383.29411764705884"/><rect fill="url(#WhiteBlackGradient)" height="12" rx="1.5" ry="1.5" width="12" x="656" y="383.29411764705884"/><rect fill-opacity="0.3" filter="url(#SaturateMinus)" height="12" rx="1.5" ry="1.5" width="12" x="656" y="383.29411764705884"/><rect height="12" rx="1.5" ry="1.5" width="12" x="796" y="94.70588235294119"/><rect fill="url(#WhiteBlackGradient)" height="12" rx="1.5" ry="1.5" width="12" x="796" y="94.70588235294119"/><rect fill-opacity="0.3" filter="url(#SaturateMinus)" height="12" rx="1.5" ry="1.5" width="12" x="796" y="94.70588235294119"/><rect height="12" rx="1.5" ry="1.5" width="12" x="936" y="435.7647058823529"/><rect fill="url(#WhiteBlackGradient)" height="12" rx="1.5" ry="1.5" width="12" x="936" y="435.7647058823529"/><rect fill-opacity="0.3" filter="url(#SaturateMinus)" height="12" rx="1.5" ry="1.5" width="12" x="936" y="435.7647058823529"/><rect height="12" rx="1.5" ry="1.5" width="12" x="1076" y="42.23529411764707"/><rect fill="url(#WhiteBlackGradient)" height="12" rx="1.5" ry="1.5" width="12" x="1076" y="42.23529411764707"/><rect fill-opacity="0.3" filter="url(#SaturateMinus)" height="12" rx="1.5" ry="1.5" width="12" x="1076" y="42.23529411764707"/></g><!--draw bullet for data type 2--><g fill="rgb(255,195,56)" fill-opacity="1" filter="none" id="ID_bullet_2" stroke="none" stroke-opacity="1" stroke-width="1"><rect height="12" rx="1.5" ry="1.5" width="12" x="96" y="280.9764705882353"/><rect fill="url(#WhiteBlackGradient)" height="12" rx="1.5" ry="1.5" width="12" x="96" y="280.9764705882353"/><rect fill-opacity="0.3" filter="url(#SaturateMinus)" height="12" rx="1.5" ry="1.5" width="12" x="96" y="280.9764705882353"/><rect height="12" rx="1.5" ry="1.5" width="12" x="236" y="194.4"/><rect fill="url(#WhiteBlackGradient)" height="12" rx="1.5" ry="1.5" width="12" x="236" y="194.4"/><rect fill-opacity="0.3" filter="url(#SaturateMinus)" height="12" rx="1.5" ry="1.5" width="12" x="236" y="194.4"/><rect height="12" rx="1.5" ry="1.5" width="12" x="376" y="338.6941176470588"/><rect fill="url(#WhiteBlackGradient)" height="12" rx="1.5" ry="1.5" width="12" x="376" y="338.6941176470588"/><rect fill-opacity="0.3" filter="url(#SaturateMinus)" height="12" rx="1.5" ry="1.5" width="12" x="376" y="338.6941176470588"/><rect height="12" rx="1.5" ry="1.5" width="12" x="516" y="136.68235294117648"/><rect fill="url(#WhiteBlackGradient)" height="12" rx="1.5" ry="1.5" width="12" x="516" y="136.68235294117648"/><rect fill-opacity="0.3" filter="url(#SaturateMinus)" height="12" rx="1.5" ry="1.5" width="12" x="516" y="136.68235294117648"/><rect height="12" rx="1.5" ry="1.5" width="12" x="656" y="396.4117647058823"/><rect fill="url(#WhiteBlackGradient)" height="12" rx="1.5" ry="1.5" width="12" x="656" y="396.4117647058823"/><rect fill-opacity="0.3" filter="url(#SaturateMinus)" height="12" rx="1.5" ry="1.5" width="12" x="656" y="396.4117647058823"/><rect height="12" rx="1.5" ry="1.5" width="12" x="796" y="78.96470588235297"/><rect fill="url(#WhiteBlackGradient)" height="12" rx="1.5" ry="1.5" width="12" x="796" y="78.96470588235297"/><rect fill-opacity="0.3" filter="url(#SaturateMinus)" height="12" rx="1.5" ry="1.5" width="12" x="796" y="78.96470588235297"/><rect height="12" rx="1.5" ry="1.5" width="12" x="936" y="454.1294117647059"/><rect fill="url(#WhiteBlackGradient)" height="12" rx="1.5" ry="1.5" width="12" x="936" y="454.1294117647059"/><rect fill-opacity="0.3" filter="url(#SaturateMinus)" height="12" rx="1.5" ry="1.5" width="12" x="936" y="454.1294117647059"/><rect height="12" rx="1.5" ry="1.5" width="12" x="1076" y="21.247058823529414"/><rect fill="url(#WhiteBlackGradient)" height="12" rx="1.5" ry="1.5" width="12" x="1076" y="21.247058823529414"/><rect fill-opacity="0.3" filter="url(#SaturateMinus)" height="12" rx="1.5" ry="1.5" width="12" x="1076" y="21.247058823529414"/></g></g></g></g></svg>