
<svg xmlns="http://www.w3.org/2000/svg" id="ID_svg" viewBox="0 0 1024 448" viewport-fill="none" viewport-fill-opacity="1" xmlns:exsl4D="http://www.4D.com" xmlns:gFunc="http://gFunc" xmlns:math="http://exslt.org/math" xmlns:xlink="http://www.w3.org/1999/xlink">

  <!--gradient styles-->

  <defs>
    <filter id="soft_blur">
      <feGaussianBlur in="SourceGraphic" result="BlurAlpha" stdDeviation="1"/>
    </filter>
    <filter id="pastel">
      <feGaussianBlur in="SourceAlpha" result="blur" stdDeviation="2"/>
      <feOffset dx="6" dy="6" in="blur" result="offsetBlur"/>
      <feComposite in="SourceGraphic" in2="offsetBlur" operator="in" result="specOut"/>
    </filter>
    <filter id="blur_shadow">
      <feGaussianBlur in="SourceAlpha" result="blur" stdDeviation="3"/>
      <feOffset dx="4" dy="2" in="blur" result="offsetBlur"/>
      <feBlend in="SourceGraphic" in2="offsetBlur" mode="normal"/>
    </filter>
    <filter filterUnits="objectBoundingBox" id="Shadow">
      <feGaussianBlur in="SourceAlpha" result="flou" stdDeviation="0"/>
      <feColorMatrix in="SourceAlpha" result="flouBlue" type="matrix" values=" 0 0 0 0 0                      0 0 0 0 0                     0 0 0 0 0                      0 0 0 0.3 0"/>
      <feOffset dx="4" dy="4" in="flouBlue" result="flouDecalage"/>
      <feBlend in="SourceGraphic" in2="flouDecalage" mode="normal"/>
    </filter>
    <filter filterUnits="objectBoundingBox" height="100%" id="SaturateMinus" width="100%" x="0%" y="0%">
      <feColorMatrix in="SourceGraphic" type="saturate" values="0.5"/>
    </filter>
    <filter filterUnits="objectBoundingBox" height="100%" id="SaturatePlus" width="100%" x="0%" y="0%">
      <feColorMatrix in="SourceGraphic" type="saturate" values="1.4"/>
    </filter>
    <linearGradient id="BlackGradient">
      <stop offset="0%" style="stop-color:rgb(0,0,0); stop-opacity:0"/>
      <stop offset="100%" style="stop-color:rgb(0,0,0); stop-opacity:0.1"/>
    </linearGradient>
    <linearGradient id="WhiteGradient" x1="0%" x2="100%" y1="0%" y2="0%">
      <stop offset="0%" style="stop-color:rgb(255,255,255); stop-opacity:0.3"/>
      <stop offset="100%" style="stop-color:rgb(255,255,255);stop-opacity:0"/>
    </linearGradient>
    <linearGradient id="WhiteBlackGradient" x1="0%" x2="100%" y1="0%" y2="0%">
      <stop offset="0%" style="stop-color:rgb(255,255,255); stop-opacity:0.15"/>
      <stop offset="100%" style="stop-color:rgb(0,0,0);stop-opacity:0.15"/>
    </linearGradient>
    <linearGradient id="Black0Black1Gradient" x1="0%" x2="0%" y1="0%" y2="100%">
      <stop offset="0%" style="stop-color:rgb(0,0,0); stop-opacity:0"/>
      <stop offset="100%" style="stop-color:rgb(0,0,0);stop-opacity:0.05"/>
    </linearGradient>
  </defs>

  <!--global stroke and font styles-->

  <g id="ID_globals" style="fill:black;stroke:none;font-family:Arial;font-size:12px;font-weight:normal;font-style:normal;text-decoration:none;shape-rendering:crispEdges">
    <!--draw title-->
    <!--********************************draw graph background********************************-->
    <rect fill="rgb(168,168,168)" height="400" id="ID_background_shadow" opacity="1" rx="10" ry="10" stroke="none" transform="translate(1,1)" visibility="visible" width="800" x="48" y="12"/>
    <g fill="rgb(229,229,229)" id="ID_background" opacity="1" stroke="none" visibility="visible">
      <rect height="400" rx="10" ry="10" stroke="none" width="800" x="48" y="12"/>
      <rect fill="url(#Black0Black1Gradient)" height="400" rx="10" ry="10" stroke="none" width="800" x="48" y="12"/>
    </g>
    <clipPath id="ID_backgroundClipPath">
      <rect height="401" rx="10" ry="10" width="801" x="47" y="11"/>
    </clipPath>
    <!--********************************draw Y Labels********************************-->
    <g id="ID_y$value" style="fill:black;stroke:none;font-family:Arial;font-size:12px;font-weight:normal;font-style:normal;text-decoration:none;filter:none" visibility="visible">
      <text text-anchor="end" x="36" y="18">100</text>
      <text text-anchor="end" x="36" y="58">80</text>
      <text text-anchor="end" x="36" y="98">60</text>
      <text text-anchor="end" x="36" y="138">40</text>
      <text text-anchor="end" x="36" y="178">20</text>
      <text text-anchor="end" x="36" y="218">0</text>
      <text text-anchor="end" x="36" y="258">-20</text>
      <text text-anchor="end" x="36" y="298">-40</text>
      <text text-anchor="end" x="36" y="338">-60</text>
      <text text-anchor="end" x="36" y="378">-80</text>
      <text text-anchor="end" x="36" y="418">-100</text>
    </g>
    <!--********************************draw X Labels********************************-->
    <!--draw axis x labels-->
    <g id="ID_x$value" style="fill:black;stroke:none;font-family:Arial;font-size:12px;font-weight:normal;font-style:normal;text-decoration:none;filter:none" visibility="visible">
      <text text-anchor="middle" x="98" y="436">08:00:00</text>
      <text text-anchor="middle" x="198" y="436">09:00:00</text>
      <text text-anchor="middle" x="298" y="436">10:00:00</text>
      <text text-anchor="middle" x="398" y="436">11:00:00</text>
      <text text-anchor="middle" x="498" y="436">11:15:00</text>
      <text text-anchor="middle" x="598" y="436">14:45:00</text>
      <text text-anchor="middle" x="698" y="436">15:00:00</text>
      <text text-anchor="middle" x="798" y="436">16:00:00</text>
    </g>
    <g style="clip-path: url(#ID_backgroundClipPath)">
      <!--******************************** draw Y grid lines******************************** (Horizontal lines)-->
      <g id="ID_y_grid" stroke="#a8a8a8" stroke-width="1">
        <line x1="48" x2="848" y1="52" y2="52"/>
        <line x1="48" x2="848" y1="92" y2="92"/>
        <line x1="48" x2="848" y1="132" y2="132"/>
        <line x1="48" x2="848" y1="172" y2="172"/>
        <line x1="48" x2="848" y1="212" y2="212"/>
        <line x1="48" x2="848" y1="252" y2="252"/>
        <line x1="48" x2="848" y1="292" y2="292"/>
        <line x1="48" x2="848" y1="332" y2="332"/>
        <line x1="48" x2="848" y1="372" y2="372"/>
      </g>
      <!--draw Y grid lines SHADOWS-->
      <g id="ID_y_grid_shadow" stroke="#ffffff" stroke-width="1">
        <line transform="translate(0,1)" x1="48" x2="848" y1="52" y2="52"/>
        <line transform="translate(0,1)" x1="48" x2="848" y1="92" y2="92"/>
        <line transform="translate(0,1)" x1="48" x2="848" y1="132" y2="132"/>
        <line transform="translate(0,1)" x1="48" x2="848" y1="172" y2="172"/>
        <line transform="translate(0,1)" x1="48" x2="848" y1="212" y2="212"/>
        <line transform="translate(0,1)" x1="48" x2="848" y1="252" y2="252"/>
        <line transform="translate(0,1)" x1="48" x2="848" y1="292" y2="292"/>
        <line transform="translate(0,1)" x1="48" x2="848" y1="332" y2="332"/>
        <line transform="translate(0,1)" x1="48" x2="848" y1="372" y2="372"/>
      </g>
      <g id="ID_y0_axis" stroke="rgb(100,100,100)" stroke-width="1" visibility="visible">
        <line x1="48" x2="848" y1="212" y2="212"/>
      </g>
      <!--********************************draw X grid lines******************************** (Vertical lines)-->
      <g id="ID_x_grid" stroke="#a8a8a8" stroke-width="1">
        <line x1="148" x2="148" y1="12" y2="412"/>
        <line x1="248" x2="248" y1="12" y2="412"/>
        <line x1="348" x2="348" y1="12" y2="412"/>
        <line x1="448" x2="448" y1="12" y2="412"/>
        <line x1="548" x2="548" y1="12" y2="412"/>
        <line x1="648" x2="648" y1="12" y2="412"/>
        <line x1="748" x2="748" y1="12" y2="412"/>
        <line x1="848" x2="848" y1="12" y2="412"/>
      </g>
      <!--draw X grid lines SHADOWS -->
      <g id="ID_x_grid_shadow" stroke="#ffffff" stroke-width="1">
        <line transform="translate(1,0)" x1="148" x2="148" y1="12" y2="412"/>
        <line transform="translate(1,0)" x1="248" x2="248" y1="12" y2="412"/>
        <line transform="translate(1,0)" x1="348" x2="348" y1="12" y2="412"/>
        <line transform="translate(1,0)" x1="448" x2="448" y1="12" y2="412"/>
        <line transform="translate(1,0)" x1="548" x2="548" y1="12" y2="412"/>
        <line transform="translate(1,0)" x1="648" x2="648" y1="12" y2="412"/>
        <line transform="translate(1,0)" x1="748" x2="748" y1="12" y2="412"/>
        <line transform="translate(1,0)" x1="848" x2="848" y1="12" y2="412"/>
      </g>
    </g>
    <!--******************************** draw legend ***********************************-->
    <g filter="none" id="ID_legend" transform="translate(860,12)" visibility="visible">
      <!--draw legend border-->
      <rect fill="rgb(168,168,168)" fill-opacity="1" height="130" id="ID_legend_border_shadow" rx="10" ry="10" stroke="none" transform="translate(1,1)" width="152" x="0" y="0"/>
      <rect fill="rgb(229,229,229)" fill-opacity="1" height="130" id="ID_legend_border" rx="10" ry="10" stroke="none" stroke-width="0" width="152" x="0" y="0"/>
      <!--draw legend bullets-->
      <g id="ID_legend_bullets" stroke="none">
        <g fill="rgb(0,178,195)" id="ID_legend_1">
          <rect height="20" rx="3" ry="3" width="20" x="10" y="10"/>
          <rect fill="url(#WhiteBlackGradient)" height="20" rx="3" ry="3" width="20" x="10" y="10"/>
          <rect fill-opacity="0.3" filter="url(#SaturateMinus)" height="20" rx="3" ry="3" width="20" x="10" y="10"/>
        </g>
        <g fill="rgb(255,195,56)" id="ID_legend_2">
          <rect height="20" rx="3" ry="3" width="20" x="10" y="40"/>
          <rect fill="url(#WhiteBlackGradient)" height="20" rx="3" ry="3" width="20" x="10" y="40"/>
          <rect fill-opacity="0.3" filter="url(#SaturateMinus)" height="20" rx="3" ry="3" width="20" x="10" y="40"/>
        </g>
        <g fill="rgb(87,62,130)" id="ID_legend_3">
          <rect height="20" rx="3" ry="3" width="20" x="10" y="70"/>
          <rect fill="url(#WhiteBlackGradient)" height="20" rx="3" ry="3" width="20" x="10" y="70"/>
          <rect fill-opacity="0.3" filter="url(#SaturateMinus)" height="20" rx="3" ry="3" width="20" x="10" y="70"/>
        </g>
        <g fill="rgb(79,168,57)" id="ID_legend_4">
          <rect height="20" rx="3" ry="3" width="20" x="10" y="100"/>
          <rect fill="url(#WhiteBlackGradient)" height="20" rx="3" ry="3" width="20" x="10" y="100"/>
          <rect fill-opacity="0.3" filter="url(#SaturateMinus)" height="20" rx="3" ry="3" width="20" x="10" y="100"/>
        </g>
      </g>
      <!--draw legend labels-->
      <g id="ID_legend_labels" style="fill:black;stroke:none;font-family:Arial;;font-weight:normal;font-style:normal;text-decoration:none;filter:none;text-anchor:start">
        <text x="40" y="27">Sharp</text>
        <text x="40" y="57">Infinity</text>
        <text x="40" y="87">Audio Référence</text>
        <text x="40" y="117">Triangle</text>
      </g>
    </g>
    <g style="clip-path: url(#ID_backgroundClipPath)">
      <g fill="black" fill-opacity="0.2" id="ID_graph_shadow_1">
        <path d="M 0 0 l 0 43.09 s 0 0 0 0 l 76 0 s 0 0 0 -0 l 0 -43.09 z" transform="translate(63,212)"/>
        <path d="M 0 0 l 0 -43.09 s 0 -0 0 -0 l 76 0 s 0 0 0 0 l 0 43.09 z" transform="translate(163,212)"/>
        <path d="M 0 0 l 0 43.09 s 0 0 0 0 l 76 0 s 0 0 0 -0 l 0 -43.09 z" transform="translate(263,212)"/>
        <path d="M 0 0 l 0 -43.09 s 0 -0 0 -0 l 76 0 s 0 0 0 0 l 0 43.09 z" transform="translate(363,212)"/>
        <path d="M 0 0 l 0 43.09 s 0 0 0 0 l 76 0 s 0 0 0 -0 l 0 -43.09 z" transform="translate(463,212)"/>
        <path d="M 0 0 l 0 -43.09 s 0 -0 0 -0 l 76 0 s 0 0 0 0 l 0 43.09 z" transform="translate(563,212)"/>
        <path d="M 0 0 l 0 43.09 s 0 0 0 0 l 76 0 s 0 0 0 -0 l 0 -43.09 z" transform="translate(663,212)"/>
        <path d="M 0 0 l 0 -43.09 s 0 -0 0 -0 l 76 0 s 0 0 0 0 l 0 43.09 z" transform="translate(763,212)"/>
      </g>
      <g fill="black" fill-opacity="0.2" id="ID_graph_shadow_2">
        <path d="M 0 0 l 0 47.4 s 0 0 0 0 l 76 0 s 0 0 0 -0 l 0 -47.4 z" transform="translate(63,255.09)"/>
        <path d="M 0 0 l 0 -47.4 s 0 -0 0 -0 l 76 0 s 0 0 0 0 l 0 47.4 z" transform="translate(163,168.91)"/>
        <path d="M 0 0 l 0 47.4 s 0 0 0 0 l 76 0 s 0 0 0 -0 l 0 -47.4 z" transform="translate(263,255.09)"/>
        <path d="M 0 0 l 0 -47.4 s 0 -0 0 -0 l 76 0 s 0 0 0 0 l 0 47.4 z" transform="translate(363,168.91)"/>
        <path d="M 0 0 l 0 47.4 s 0 0 0 0 l 76 0 s 0 0 0 -0 l 0 -47.4 z" transform="translate(463,255.09)"/>
        <path d="M 0 0 l 0 -47.4 s 0 -0 0 -0 l 76 0 s 0 0 0 0 l 0 47.4 z" transform="translate(563,168.91)"/>
        <path d="M 0 0 l 0 47.4 s 0 0 0 0 l 76 0 s 0 0 0 -0 l 0 -47.4 z" transform="translate(663,255.09)"/>
        <path d="M 0 0 l 0 -47.4 s 0 -0 0 -0 l 76 0 s 0 0 0 0 l 0 47.4 z" transform="translate(763,168.91)"/>
      </g>
      <g fill="black" fill-opacity="0.2" id="ID_graph_shadow_3">
        <path d="M 0 0 l 0 52.14 s 0 0 0 0 l 76 0 s 0 0 0 -0 l 0 -52.14 z" transform="translate(63,302.49)"/>
        <path d="M 0 0 l 0 -52.14 s 0 -0 0 -0 l 76 0 s 0 0 0 0 l 0 52.14 z" transform="translate(163,121.51)"/>
        <path d="M 0 0 l 0 52.14 s 0 0 0 0 l 76 0 s 0 0 0 -0 l 0 -52.14 z" transform="translate(263,302.49)"/>
        <path d="M 0 0 l 0 -52.14 s 0 -0 0 -0 l 76 0 s 0 0 0 0 l 0 52.14 z" transform="translate(363,121.51)"/>
        <path d="M 0 0 l 0 52.14 s 0 0 0 0 l 76 0 s 0 0 0 -0 l 0 -52.14 z" transform="translate(463,302.49)"/>
        <path d="M 0 0 l 0 -52.14 s 0 -0 0 -0 l 76 0 s 0 0 0 0 l 0 52.14 z" transform="translate(563,121.51)"/>
        <path d="M 0 0 l 0 52.14 s 0 0 0 0 l 76 0 s 0 0 0 -0 l 0 -52.14 z" transform="translate(663,302.49)"/>
        <path d="M 0 0 l 0 -52.14 s 0 -0 0 -0 l 76 0 s 0 0 0 0 l 0 52.14 z" transform="translate(763,121.51)"/>
      </g>
      <g fill="black" fill-opacity="0.2" id="ID_graph_shadow_4">
        <path d="M 0 0 l 0 57.36 s 0 0 0 0 l 76 0 s 0 0 0 -0 l 0 -57.36 z" transform="translate(63,354.63)"/>
        <path d="M 0 0 l 0 -57.36 s 0 -0 0 -0 l 76 0 s 0 0 0 0 l 0 57.36 z" transform="translate(163,69.37)"/>
        <path d="M 0 0 l 0 57.36 s 0 0 0 0 l 76 0 s 0 0 0 -0 l 0 -57.36 z" transform="translate(263,354.63)"/>
        <path d="M 0 0 l 0 -57.36 s 0 -0 0 -0 l 76 0 s 0 0 0 0 l 0 57.36 z" transform="translate(363,69.37)"/>
        <path d="M 0 0 l 0 57.36 s 0 0 0 0 l 76 0 s 0 0 0 -0 l 0 -57.36 z" transform="translate(463,354.63)"/>
        <path d="M 0 0 l 0 -57.36 s 0 -0 0 -0 l 76 0 s 0 0 0 0 l 0 57.36 z" transform="translate(563,69.37)"/>
        <path d="M 0 0 l 0 57.36 s 0 0 0 0 l 76 0 s 0 0 0 -0 l 0 -57.36 z" transform="translate(663,354.63)"/>
        <path d="M 0 0 l 0 -57.36 s 0 -0 0 -0 l 76 0 s 0 0 0 0 l 0 57.36 z" transform="translate(763,69.37)"/>
      </g>
      <g fill="rgb(0,178,195)" fill-opacity="1" filter="none" id="ID_graph_shadow_1" opacity="1" stroke="none" stroke-opacity="1" stroke-width="0">
        <path d="M 0 0 l 0 43.09 s 0 0 0 0 l 76 0 s 0 0 0 -0 l 0 -43.09 z" transform="translate(60,212)"/>
        <path d="M 0 0 l 0 43.09 s 0 0 0 0 l 76 0 s 0 0 0 -0 l 0 -43.09 z" fill="url(#WhiteBlackGradient)" transform="translate(60,212)"/>
        <path d="M 0 0 l 0 43.09 s 0 0 0 0 l 76 0 s 0 0 0 -0 l 0 -43.09 z" fill-opacity="0.3" filter="url(#SaturateMinus)" transform="translate(60,212)"/>
        <path d="M 0 0 l 0 -43.09 s 0 -0 0 -0 l 76 0 s 0 0 0 0 l 0 43.09 z" transform="translate(160,212)"/>
        <path d="M 0 0 l 0 -43.09 s 0 -0 0 -0 l 76 0 s 0 0 0 0 l 0 43.09 z" fill="url(#WhiteBlackGradient)" transform="translate(160,212)"/>
        <path d="M 0 0 l 0 -43.09 s 0 -0 0 -0 l 76 0 s 0 0 0 0 l 0 43.09 z" fill-opacity="0.3" filter="url(#SaturateMinus)" transform="translate(160,212)"/>
        <path d="M 0 0 l 0 43.09 s 0 0 0 0 l 76 0 s 0 0 0 -0 l 0 -43.09 z" transform="translate(260,212)"/>
        <path d="M 0 0 l 0 43.09 s 0 0 0 0 l 76 0 s 0 0 0 -0 l 0 -43.09 z" fill="url(#WhiteBlackGradient)" transform="translate(260,212)"/>
        <path d="M 0 0 l 0 43.09 s 0 0 0 0 l 76 0 s 0 0 0 -0 l 0 -43.09 z" fill-opacity="0.3" filter="url(#SaturateMinus)" transform="translate(260,212)"/>
        <path d="M 0 0 l 0 -43.09 s 0 -0 0 -0 l 76 0 s 0 0 0 0 l 0 43.09 z" transform="translate(360,212)"/>
        <path d="M 0 0 l 0 -43.09 s 0 -0 0 -0 l 76 0 s 0 0 0 0 l 0 43.09 z" fill="url(#WhiteBlackGradient)" transform="translate(360,212)"/>
        <path d="M 0 0 l 0 -43.09 s 0 -0 0 -0 l 76 0 s 0 0 0 0 l 0 43.09 z" fill-opacity="0.3" filter="url(#SaturateMinus)" transform="translate(360,212)"/>
        <path d="M 0 0 l 0 43.09 s 0 0 0 0 l 76 0 s 0 0 0 -0 l 0 -43.09 z" transform="translate(460,212)"/>
        <path d="M 0 0 l 0 43.09 s 0 0 0 0 l 76 0 s 0 0 0 -0 l 0 -43.09 z" fill="url(#WhiteBlackGradient)" transform="translate(460,212)"/>
        <path d="M 0 0 l 0 43.09 s 0 0 0 0 l 76 0 s 0 0 0 -0 l 0 -43.09 z" fill-opacity="0.3" filter="url(#SaturateMinus)" transform="translate(460,212)"/>
        <path d="M 0 0 l 0 -43.09 s 0 -0 0 -0 l 76 0 s 0 0 0 0 l 0 43.09 z" transform="translate(560,212)"/>
        <path d="M 0 0 l 0 -43.09 s 0 -0 0 -0 l 76 0 s 0 0 0 0 l 0 43.09 z" fill="url(#WhiteBlackGradient)" transform="translate(560,212)"/>
        <path d="M 0 0 l 0 -43.09 s 0 -0 0 -0 l 76 0 s 0 0 0 0 l 0 43.09 z" fill-opacity="0.3" filter="url(#SaturateMinus)" transform="translate(560,212)"/>
        <path d="M 0 0 l 0 43.09 s 0 0 0 0 l 76 0 s 0 0 0 -0 l 0 -43.09 z" transform="translate(660,212)"/>
        <path d="M 0 0 l 0 43.09 s 0 0 0 0 l 76 0 s 0 0 0 -0 l 0 -43.09 z" fill="url(#WhiteBlackGradient)" transform="translate(660,212)"/>
        <path d="M 0 0 l 0 43.09 s 0 0 0 0 l 76 0 s 0 0 0 -0 l 0 -43.09 z" fill-opacity="0.3" filter="url(#SaturateMinus)" transform="translate(660,212)"/>
        <path d="M 0 0 l 0 -43.09 s 0 -0 0 -0 l 76 0 s 0 0 0 0 l 0 43.09 z" transform="translate(760,212)"/>
        <path d="M 0 0 l 0 -43.09 s 0 -0 0 -0 l 76 0 s 0 0 0 0 l 0 43.09 z" fill="url(#WhiteBlackGradient)" transform="translate(760,212)"/>
        <path d="M 0 0 l 0 -43.09 s 0 -0 0 -0 l 76 0 s 0 0 0 0 l 0 43.09 z" fill-opacity="0.3" filter="url(#SaturateMinus)" transform="translate(760,212)"/>
      </g>
      <g fill="rgb(255,195,56)" fill-opacity="1" filter="none" id="ID_graph_shadow_2" opacity="1" stroke="none" stroke-opacity="1" stroke-width="0">
        <path d="M 0 0 l 0 47.4 s 0 0 0 0 l 76 0 s 0 0 0 -0 l 0 -47.4 z" transform="translate(60,255.09)"/>
        <path d="M 0 0 l 0 47.4 s 0 0 0 0 l 76 0 s 0 0 0 -0 l 0 -47.4 z" fill="url(#WhiteBlackGradient)" transform="translate(60,255.09)"/>
        <path d="M 0 0 l 0 47.4 s 0 0 0 0 l 76 0 s 0 0 0 -0 l 0 -47.4 z" fill-opacity="0.3" filter="url(#SaturateMinus)" transform="translate(60,255.09)"/>
        <path d="M 0 0 l 0 -47.4 s 0 -0 0 -0 l 76 0 s 0 0 0 0 l 0 47.4 z" transform="translate(160,168.91)"/>
        <path d="M 0 0 l 0 -47.4 s 0 -0 0 -0 l 76 0 s 0 0 0 0 l 0 47.4 z" fill="url(#WhiteBlackGradient)" transform="translate(160,168.91)"/>
        <path d="M 0 0 l 0 -47.4 s 0 -0 0 -0 l 76 0 s 0 0 0 0 l 0 47.4 z" fill-opacity="0.3" filter="url(#SaturateMinus)" transform="translate(160,168.91)"/>
        <path d="M 0 0 l 0 47.4 s 0 0 0 0 l 76 0 s 0 0 0 -0 l 0 -47.4 z" transform="translate(260,255.09)"/>
        <path d="M 0 0 l 0 47.4 s 0 0 0 0 l 76 0 s 0 0 0 -0 l 0 -47.4 z" fill="url(#WhiteBlackGradient)" transform="translate(260,255.09)"/>
        <path d="M 0 0 l 0 47.4 s 0 0 0 0 l 76 0 s 0 0 0 -0 l 0 -47.4 z" fill-opacity="0.3" filter="url(#SaturateMinus)" transform="translate(260,255.09)"/>
        <path d="M 0 0 l 0 -47.4 s 0 -0 0 -0 l 76 0 s 0 0 0 0 l 0 47.4 z" transform="translate(360,168.91)"/>
        <path d="M 0 0 l 0 -47.4 s 0 -0 0 -0 l 76 0 s 0 0 0 0 l 0 47.4 z" fill="url(#WhiteBlackGradient)" transform="translate(360,168.91)"/>
        <path d="M 0 0 l 0 -47.4 s 0 -0 0 -0 l 76 0 s 0 0 0 0 l 0 47.4 z" fill-opacity="0.3" filter="url(#SaturateMinus)" transform="translate(360,168.91)"/>
        <path d="M 0 0 l 0 47.4 s 0 0 0 0 l 76 0 s 0 0 0 -0 l 0 -47.4 z" transform="translate(460,255.09)"/>
        <path d="M 0 0 l 0 47.4 s 0 0 0 0 l 76 0 s 0 0 0 -0 l 0 -47.4 z" fill="url(#WhiteBlackGradient)" transform="translate(460,255.09)"/>
        <path d="M 0 0 l 0 47.4 s 0 0 0 0 l 76 0 s 0 0 0 -0 l 0 -47.4 z" fill-opacity="0.3" filter="url(#SaturateMinus)" transform="translate(460,255.09)"/>
        <path d="M 0 0 l 0 -47.4 s 0 -0 0 -0 l 76 0 s 0 0 0 0 l 0 47.4 z" transform="translate(560,168.91)"/>
        <path d="M 0 0 l 0 -47.4 s 0 -0 0 -0 l 76 0 s 0 0 0 0 l 0 47.4 z" fill="url(#WhiteBlackGradient)" transform="translate(560,168.91)"/>
        <path d="M 0 0 l 0 -47.4 s 0 -0 0 -0 l 76 0 s 0 0 0 0 l 0 47.4 z" fill-opacity="0.3" filter="url(#SaturateMinus)" transform="translate(560,168.91)"/>
        <path d="M 0 0 l 0 47.4 s 0 0 0 0 l 76 0 s 0 0 0 -0 l 0 -47.4 z" transform="translate(660,255.09)"/>
        <path d="M 0 0 l 0 47.4 s 0 0 0 0 l 76 0 s 0 0 0 -0 l 0 -47.4 z" fill="url(#WhiteBlackGradient)" transform="translate(660,255.09)"/>
        <path d="M 0 0 l 0 47.4 s 0 0 0 0 l 76 0 s 0 0 0 -0 l 0 -47.4 z" fill-opacity="0.3" filter="url(#SaturateMinus)" transform="translate(660,255.09)"/>
        <path d="M 0 0 l 0 -47.4 s 0 -0 0 -0 l 76 0 s 0 0 0 0 l 0 47.4 z" transform="translate(760,168.91)"/>
        <path d="M 0 0 l 0 -47.4 s 0 -0 0 -0 l 76 0 s 0 0 0 0 l 0 47.4 z" fill="url(#WhiteBlackGradient)" transform="translate(760,168.91)"/>
        <path d="M 0 0 l 0 -47.4 s 0 -0 0 -0 l 76 0 s 0 0 0 0 l 0 47.4 z" fill-opacity="0.3" filter="url(#SaturateMinus)" transform="translate(760,168.91)"/>
      </g>
      <g fill="rgb(87,62,130)" fill-opacity="1" filter="none" id="ID_graph_shadow_3" opacity="1" stroke="none" stroke-opacity="1" stroke-width="0">
        <path d="M 0 0 l 0 52.14 s 0 0 0 0 l 76 0 s 0 0 0 -0 l 0 -52.14 z" transform="translate(60,302.49)"/>
        <path d="M 0 0 l 0 52.14 s 0 0 0 0 l 76 0 s 0 0 0 -0 l 0 -52.14 z" fill="url(#WhiteBlackGradient)" transform="translate(60,302.49)"/>
        <path d="M 0 0 l 0 52.14 s 0 0 0 0 l 76 0 s 0 0 0 -0 l 0 -52.14 z" fill-opacity="0.3" filter="url(#SaturateMinus)" transform="translate(60,302.49)"/>
        <path d="M 0 0 l 0 -52.14 s 0 -0 0 -0 l 76 0 s 0 0 0 0 l 0 52.14 z" transform="translate(160,121.51)"/>
        <path d="M 0 0 l 0 -52.14 s 0 -0 0 -0 l 76 0 s 0 0 0 0 l 0 52.14 z" fill="url(#WhiteBlackGradient)" transform="translate(160,121.51)"/>
        <path d="M 0 0 l 0 -52.14 s 0 -0 0 -0 l 76 0 s 0 0 0 0 l 0 52.14 z" fill-opacity="0.3" filter="url(#SaturateMinus)" transform="translate(160,121.51)"/>
        <path d="M 0 0 l 0 52.14 s 0 0 0 0 l 76 0 s 0 0 0 -0 l 0 -52.14 z" transform="translate(260,302.49)"/>
        <path d="M 0 0 l 0 52.14 s 0 0 0 0 l 76 0 s 0 0 0 -0 l 0 -52.14 z" fill="url(#WhiteBlackGradient)" transform="translate(260,302.49)"/>
        <path d="M 0 0 l 0 52.14 s 0 0 0 0 l 76 0 s 0 0 0 -0 l 0 -52.14 z" fill-opacity="0.3" filter="url(#SaturateMinus)" transform="translate(260,302.49)"/>
        <path d="M 0 0 l 0 -52.14 s 0 -0 0 -0 l 76 0 s 0 0 0 0 l 0 52.14 z" transform="translate(360,121.51)"/>
        <path d="M 0 0 l 0 -52.14 s 0 -0 0 -0 l 76 0 s 0 0 0 0 l 0 52.14 z" fill="url(#WhiteBlackGradient)" transform="translate(360,121.51)"/>
        <path d="M 0 0 l 0 -52.14 s 0 -0 0 -0 l 76 0 s 0 0 0 0 l 0 52.14 z" fill-opacity="0.3" filter="url(#SaturateMinus)" transform="translate(360,121.51)"/>
        <path d="M 0 0 l 0 52.14 s 0 0 0 0 l 76 0 s 0 0 0 -0 l 0 -52.14 z" transform="translate(460,302.49)"/>
        <path d="M 0 0 l 0 52.14 s 0 0 0 0 l 76 0 s 0 0 0 -0 l 0 -52.14 z" fill="url(#WhiteBlackGradient)" transform="translate(460,302.49)"/>
        <path d="M 0 0 l 0 52.14 s 0 0 0 0 l 76 0 s 0 0 0 -0 l 0 -52.14 z" fill-opacity="0.3" filter="url(#SaturateMinus)" transform="translate(460,302.49)"/>
        <path d="M 0 0 l 0 -52.14 s 0 -0 0 -0 l 76 0 s 0 0 0 0 l 0 52.14 z" transform="translate(560,121.51)"/>
        <path d="M 0 0 l 0 -52.14 s 0 -0 0 -0 l 76 0 s 0 0 0 0 l 0 52.14 z" fill="url(#WhiteBlackGradient)" transform="translate(560,121.51)"/>
        <path d="M 0 0 l 0 -52.14 s 0 -0 0 -0 l 76 0 s 0 0 0 0 l 0 52.14 z" fill-opacity="0.3" filter="url(#SaturateMinus)" transform="translate(560,121.51)"/>
        <path d="M 0 0 l 0 52.14 s 0 0 0 0 l 76 0 s 0 0 0 -0 l 0 -52.14 z" transform="translate(660,302.49)"/>
        <path d="M 0 0 l 0 52.14 s 0 0 0 0 l 76 0 s 0 0 0 -0 l 0 -52.14 z" fill="url(#WhiteBlackGradient)" transform="translate(660,302.49)"/>
        <path d="M 0 0 l 0 52.14 s 0 0 0 0 l 76 0 s 0 0 0 -0 l 0 -52.14 z" fill-opacity="0.3" filter="url(#SaturateMinus)" transform="translate(660,302.49)"/>
        <path d="M 0 0 l 0 -52.14 s 0 -0 0 -0 l 76 0 s 0 0 0 0 l 0 52.14 z" transform="translate(760,121.51)"/>
        <path d="M 0 0 l 0 -52.14 s 0 -0 0 -0 l 76 0 s 0 0 0 0 l 0 52.14 z" fill="url(#WhiteBlackGradient)" transform="translate(760,121.51)"/>
        <path d="M 0 0 l 0 -52.14 s 0 -0 0 -0 l 76 0 s 0 0 0 0 l 0 52.14 z" fill-opacity="0.3" filter="url(#SaturateMinus)" transform="translate(760,121.51)"/>
      </g>
      <g fill="rgb(79,168,57)" fill-opacity="1" filter="none" id="ID_graph_shadow_4" opacity="1" stroke="none" stroke-opacity="1" stroke-width="0">
        <path d="M 0 0 l 0 57.36 s 0 0 0 0 l 76 0 s 0 0 0 -0 l 0 -57.36 z" transform="translate(60,354.63)"/>
        <path d="M 0 0 l 0 57.36 s 0 0 0 0 l 76 0 s 0 0 0 -0 l 0 -57.36 z" fill="url(#WhiteBlackGradient)" transform="translate(60,354.63)"/>
        <path d="M 0 0 l 0 57.36 s 0 0 0 0 l 76 0 s 0 0 0 -0 l 0 -57.36 z" fill-opacity="0.3" filter="url(#SaturateMinus)" transform="translate(60,354.63)"/>
        <path d="M 0 0 l 0 -57.36 s 0 -0 0 -0 l 76 0 s 0 0 0 0 l 0 57.36 z" transform="translate(160,69.37)"/>
        <path d="M 0 0 l 0 -57.36 s 0 -0 0 -0 l 76 0 s 0 0 0 0 l 0 57.36 z" fill="url(#WhiteBlackGradient)" transform="translate(160,69.37)"/>
        <path d="M 0 0 l 0 -57.36 s 0 -0 0 -0 l 76 0 s 0 0 0 0 l 0 57.36 z" fill-opacity="0.3" filter="url(#SaturateMinus)" transform="translate(160,69.37)"/>
        <path d="M 0 0 l 0 57.36 s 0 0 0 0 l 76 0 s 0 0 0 -0 l 0 -57.36 z" transform="translate(260,354.63)"/>
        <path d="M 0 0 l 0 57.36 s 0 0 0 0 l 76 0 s 0 0 0 -0 l 0 -57.36 z" fill="url(#WhiteBlackGradient)" transform="translate(260,354.63)"/>
        <path d="M 0 0 l 0 57.36 s 0 0 0 0 l 76 0 s 0 0 0 -0 l 0 -57.36 z" fill-opacity="0.3" filter="url(#SaturateMinus)" transform="translate(260,354.63)"/>
        <path d="M 0 0 l 0 -57.36 s 0 -0 0 -0 l 76 0 s 0 0 0 0 l 0 57.36 z" transform="translate(360,69.37)"/>
        <path d="M 0 0 l 0 -57.36 s 0 -0 0 -0 l 76 0 s 0 0 0 0 l 0 57.36 z" fill="url(#WhiteBlackGradient)" transform="translate(360,69.37)"/>
        <path d="M 0 0 l 0 -57.36 s 0 -0 0 -0 l 76 0 s 0 0 0 0 l 0 57.36 z" fill-opacity="0.3" filter="url(#SaturateMinus)" transform="translate(360,69.37)"/>
        <path d="M 0 0 l 0 57.36 s 0 0 0 0 l 76 0 s 0 0 0 -0 l 0 -57.36 z" transform="translate(460,354.63)"/>
        <path d="M 0 0 l 0 57.36 s 0 0 0 0 l 76 0 s 0 0 0 -0 l 0 -57.36 z" fill="url(#WhiteBlackGradient)" transform="translate(460,354.63)"/>
        <path d="M 0 0 l 0 57.36 s 0 0 0 0 l 76 0 s 0 0 0 -0 l 0 -57.36 z" fill-opacity="0.3" filter="url(#SaturateMinus)" transform="translate(460,354.63)"/>
        <path d="M 0 0 l 0 -57.36 s 0 -0 0 -0 l 76 0 s 0 0 0 0 l 0 57.36 z" transform="translate(560,69.37)"/>
        <path d="M 0 0 l 0 -57.36 s 0 -0 0 -0 l 76 0 s 0 0 0 0 l 0 57.36 z" fill="url(#WhiteBlackGradient)" transform="translate(560,69.37)"/>
        <path d="M 0 0 l 0 -57.36 s 0 -0 0 -0 l 76 0 s 0 0 0 0 l 0 57.36 z" fill-opacity="0.3" filter="url(#SaturateMinus)" transform="translate(560,69.37)"/>
        <path d="M 0 0 l 0 57.36 s 0 0 0 0 l 76 0 s 0 0 0 -0 l 0 -57.36 z" transform="translate(660,354.63)"/>
        <path d="M 0 0 l 0 57.36 s 0 0 0 0 l 76 0 s 0 0 0 -0 l 0 -57.36 z" fill="url(#WhiteBlackGradient)" transform="translate(660,354.63)"/>
        <path d="M 0 0 l 0 57.36 s 0 0 0 0 l 76 0 s 0 0 0 -0 l 0 -57.36 z" fill-opacity="0.3" filter="url(#SaturateMinus)" transform="translate(660,354.63)"/>
        <path d="M 0 0 l 0 -57.36 s 0 -0 0 -0 l 76 0 s 0 0 0 0 l 0 57.36 z" transform="translate(760,69.37)"/>
        <path d="M 0 0 l 0 -57.36 s 0 -0 0 -0 l 76 0 s 0 0 0 0 l 0 57.36 z" fill="url(#WhiteBlackGradient)" transform="translate(760,69.37)"/>
        <path d="M 0 0 l 0 -57.36 s 0 -0 0 -0 l 76 0 s 0 0 0 0 l 0 57.36 z" fill-opacity="0.3" filter="url(#SaturateMinus)" transform="translate(760,69.37)"/>
      </g>
    </g>
  </g>

</svg>