
<svg xmlns="http://www.w3.org/2000/svg" id="ID_svg" viewBox="0 0 1257.96 466" viewport-fill="darkblue" viewport-fill-opacity="0.25" xmlns:exsl4D="http://www.4D.com" xmlns:gFunc="http://gFunc" xmlns:math="http://exslt.org/math" xmlns:xlink="http://www.w3.org/1999/xlink">

  <!--gradient styles-->

  <defs>
    <filter id="soft_blur">
      <feGaussianBlur in="SourceGraphic" result="BlurAlpha" stdDeviation="1"/>
    </filter>
    <filter id="pastel">
      <feGaussianBlur in="SourceAlpha" result="blur" stdDeviation="2"/>
      <feOffset dx="6" dy="6" in="blur" result="offsetBlur"/>
      <feComposite in="SourceGraphic" in2="offsetBlur" operator="in" result="specOut"/>
    </filter>
    <filter id="blur_shadow">
      <feGaussianBlur in="SourceAlpha" result="blur" stdDeviation="3"/>
      <feOffset dx="4" dy="2" in="blur" result="offsetBlur"/>
      <feBlend in="SourceGraphic" in2="offsetBlur" mode="normal"/>
    </filter>
    <filter filterUnits="objectBoundingBox" id="Shadow">
      <feGaussianBlur in="SourceAlpha" result="flou" stdDeviation="0"/>
      <feColorMatrix in="SourceAlpha" result="flouBlue" type="matrix" values=" 0 0 0 0 0                      0 0 0 0 0                     0 0 0 0 0                      0 0 0 0.3 0"/>
      <feOffset dx="4" dy="4" in="flouBlue" result="flouDecalage"/>
      <feBlend in="SourceGraphic" in2="flouDecalage" mode="normal"/>
    </filter>
    <filter filterUnits="objectBoundingBox" height="100%" id="SaturateMinus" width="100%" x="0%" y="0%">
      <feColorMatrix in="SourceGraphic" type="saturate" values="0.5"/>
    </filter>
    <filter filterUnits="objectBoundingBox" height="100%" id="SaturatePlus" width="100%" x="0%" y="0%">
      <feColorMatrix in="SourceGraphic" type="saturate" values="1.4"/>
    </filter>
    <linearGradient id="BlackGradient">
      <stop offset="0%" style="stop-color:rgb(0,0,0); stop-opacity:0"/>
      <stop offset="100%" style="stop-color:rgb(0,0,0); stop-opacity:0.1"/>
    </linearGradient>
    <linearGradient id="WhiteGradient" x1="0%" x2="100%" y1="0%" y2="0%">
      <stop offset="0%" style="stop-color:rgb(255,255,255); stop-opacity:0.3"/>
      <stop offset="100%" style="stop-color:rgb(255,255,255);stop-opacity:0"/>
    </linearGradient>
    <linearGradient id="WhiteBlackGradient" x1="0%" x2="100%" y1="0%" y2="0%">
      <stop offset="0%" style="stop-color:rgb(255,255,255); stop-opacity:0.15"/>
      <stop offset="100%" style="stop-color:rgb(0,0,0);stop-opacity:0.15"/>
    </linearGradient>
    <linearGradient id="Black0Black1Gradient" x1="0%" x2="0%" y1="0%" y2="100%">
      <stop offset="0%" style="stop-color:rgb(0,0,0); stop-opacity:0"/>
      <stop offset="100%" style="stop-color:rgb(0,0,0);stop-opacity:0.05"/>
    </linearGradient>
  </defs>

  <!--global stroke and font styles-->

  <g id="ID_globals" style="fill:red;stroke:none;font-family:Arial;font-size:14px;font-weight:normal;font-style:normal;text-decoration:none;shape-rendering:crispEdges">
    <!--draw title-->
    <!--********************************draw graph background********************************-->
    <rect fill="darkgreen" height="400" id="ID_background_shadow" opacity="0.5" rx="10" ry="10" stroke="none" transform="translate(1,1)" visibility="visible" width="999.96" x="53" y="20"/>
    <g fill="lightgreen" id="ID_background" opacity="0.5" stroke="none" visibility="visible">
      <rect height="400" rx="10" ry="10" stroke="none" width="999.96" x="53" y="20"/>
      <rect fill="url(#Black0Black1Gradient)" height="400" rx="10" ry="10" stroke="none" width="999.96" x="53" y="20"/>
    </g>
    <clipPath id="ID_backgroundClipPath">
      <rect height="401" rx="10" ry="10" width="1000.96" x="52" y="19"/>
    </clipPath>
    <!--********************************draw Y Labels********************************-->
    <g id="ID_y$value" style="fill:red;stroke:none;font-family:Arial;font-size:14px;font-weight:normal;font-style:normal;text-decoration:none;filter:none" visibility="visible">
      <text text-anchor="end" x="41" y="27">15</text>
      <text text-anchor="end" x="41" y="67">12</text>
      <text text-anchor="end" x="41" y="107">9</text>
      <text text-anchor="end" x="41" y="147">6</text>
      <text text-anchor="end" x="41" y="187">3</text>
      <text text-anchor="end" x="41" y="227">0</text>
      <text text-anchor="end" x="41" y="267">-3</text>
      <text text-anchor="end" x="41" y="307">-6</text>
      <text text-anchor="end" x="41" y="347">-9</text>
      <text text-anchor="end" x="41" y="387">-12</text>
      <text text-anchor="end" x="41" y="427">-15</text>
    </g>
    <!--********************************draw X Labels********************************-->
    <!--draw axis x labels-->
    <g id="ID_x$value" style="fill:red;stroke:none;font-family:Arial;font-size:14px;font-weight:normal;font-style:normal;text-decoration:none;filter:none" visibility="visible">
      <text text-anchor="middle" x="53" y="446">06:00:00</text>
      <text text-anchor="middle" x="136.33" y="446">07:00:00</text>
      <text text-anchor="middle" x="219.66" y="446">08:00:00</text>
      <text text-anchor="middle" x="302.99" y="446">09:00:00</text>
      <text text-anchor="middle" x="386.32" y="446">10:00:00</text>
      <text text-anchor="middle" x="469.65" y="446">11:00:00</text>
      <text text-anchor="middle" x="552.98" y="446">12:00:00</text>
      <text text-anchor="middle" x="636.31" y="446">13:00:00</text>
      <text text-anchor="middle" x="719.64" y="446">14:00:00</text>
      <text text-anchor="middle" x="802.97" y="446">15:00:00</text>
      <text text-anchor="middle" x="886.3" y="446">16:00:00</text>
      <text text-anchor="middle" x="969.63" y="446">17:00:00</text>
      <text text-anchor="middle" x="1052.96" y="446">18:00:00</text>
    </g>
    <g style="clip-path: url(#ID_backgroundClipPath)">
      <!--******************************** draw Y grid lines******************************** (Horizontal lines)-->
      <g id="ID_y_grid" stroke="#a8a8a8" stroke-width="1">
        <line x1="53" x2="1052.96" y1="60" y2="60"/>
        <line x1="53" x2="1052.96" y1="100" y2="100"/>
        <line x1="53" x2="1052.96" y1="140" y2="140"/>
        <line x1="53" x2="1052.96" y1="180" y2="180"/>
        <line x1="53" x2="1052.96" y1="220" y2="220"/>
        <line x1="53" x2="1052.96" y1="260" y2="260"/>
        <line x1="53" x2="1052.96" y1="300" y2="300"/>
        <line x1="53" x2="1052.96" y1="340" y2="340"/>
        <line x1="53" x2="1052.96" y1="380" y2="380"/>
      </g>
      <!--draw Y grid lines SHADOWS-->
      <g id="ID_y_grid_shadow" stroke="#ffffff" stroke-width="1">
        <line transform="translate(0,1)" x1="53" x2="1052.96" y1="60" y2="60"/>
        <line transform="translate(0,1)" x1="53" x2="1052.96" y1="100" y2="100"/>
        <line transform="translate(0,1)" x1="53" x2="1052.96" y1="140" y2="140"/>
        <line transform="translate(0,1)" x1="53" x2="1052.96" y1="180" y2="180"/>
        <line transform="translate(0,1)" x1="53" x2="1052.96" y1="220" y2="220"/>
        <line transform="translate(0,1)" x1="53" x2="1052.96" y1="260" y2="260"/>
        <line transform="translate(0,1)" x1="53" x2="1052.96" y1="300" y2="300"/>
        <line transform="translate(0,1)" x1="53" x2="1052.96" y1="340" y2="340"/>
        <line transform="translate(0,1)" x1="53" x2="1052.96" y1="380" y2="380"/>
      </g>
      <g id="ID_y0_axis" stroke="rgb(100,100,100)" stroke-width="1" visibility="visible">
        <line x1="53" x2="1052.96" y1="220" y2="220"/>
      </g>
      <!--********************************draw X grid lines******************************** (Vertical lines)-->
      <g id="ID_x_grid" stroke="#a8a8a8" stroke-width="1">
        <line x1="136.33" x2="136.33" y1="20" y2="420"/>
        <line x1="219.66" x2="219.66" y1="20" y2="420"/>
        <line x1="302.99" x2="302.99" y1="20" y2="420"/>
        <line x1="386.32" x2="386.32" y1="20" y2="420"/>
        <line x1="469.65" x2="469.65" y1="20" y2="420"/>
        <line x1="552.98" x2="552.98" y1="20" y2="420"/>
        <line x1="636.31" x2="636.31" y1="20" y2="420"/>
        <line x1="719.64" x2="719.64" y1="20" y2="420"/>
        <line x1="802.97" x2="802.97" y1="20" y2="420"/>
        <line x1="886.3" x2="886.3" y1="20" y2="420"/>
        <line x1="969.63" x2="969.63" y1="20" y2="420"/>
      </g>
      <!--draw X grid lines SHADOWS -->
      <g id="ID_x_grid_shadow" stroke="#ffffff" stroke-width="1">
        <line transform="translate(1,0)" x1="136.33" x2="136.33" y1="20" y2="420"/>
        <line transform="translate(1,0)" x1="219.66" x2="219.66" y1="20" y2="420"/>
        <line transform="translate(1,0)" x1="302.99" x2="302.99" y1="20" y2="420"/>
        <line transform="translate(1,0)" x1="386.32" x2="386.32" y1="20" y2="420"/>
        <line transform="translate(1,0)" x1="469.65" x2="469.65" y1="20" y2="420"/>
        <line transform="translate(1,0)" x1="552.98" x2="552.98" y1="20" y2="420"/>
        <line transform="translate(1,0)" x1="636.31" x2="636.31" y1="20" y2="420"/>
        <line transform="translate(1,0)" x1="719.64" x2="719.64" y1="20" y2="420"/>
        <line transform="translate(1,0)" x1="802.97" x2="802.97" y1="20" y2="420"/>
        <line transform="translate(1,0)" x1="886.3" x2="886.3" y1="20" y2="420"/>
        <line transform="translate(1,0)" x1="969.63" x2="969.63" y1="20" y2="420"/>
      </g>
    </g>
    <!--******************************** draw legend ***********************************-->
    <g filter="none" id="ID_legend" transform="translate(1064.96,20)" visibility="visible">
      <!--draw legend border-->
      <rect fill="darkgreen" fill-opacity="0.5" height="148" id="ID_legend_border_shadow" rx="10" ry="10" stroke="none" transform="translate(1,1)" width="173" x="0" y="0"/>
      <rect fill="lightgreen" fill-opacity="0.5" height="148" id="ID_legend_border" rx="10" ry="10" stroke="none" stroke-width="0" width="173" x="0" y="0"/>
      <!--draw legend bullets-->
      <g id="ID_legend_bullets" stroke="none">
        <g fill="purple" id="ID_legend_1">
          <rect height="12" rx="3" ry="3" width="24" x="10" y="8"/>
          <rect fill="url(#WhiteBlackGradient)" height="12" rx="3" ry="3" width="24" x="10" y="8"/>
          <rect fill-opacity="0.3" filter="url(#SaturateMinus)" height="12" rx="3" ry="3" width="24" x="10" y="8"/>
        </g>
        <g fill="darkblue" id="ID_legend_2">
          <rect height="12" rx="3" ry="3" width="24" x="10" y="28"/>
          <rect fill="url(#WhiteBlackGradient)" height="12" rx="3" ry="3" width="24" x="10" y="28"/>
          <rect fill-opacity="0.3" filter="url(#SaturateMinus)" height="12" rx="3" ry="3" width="24" x="10" y="28"/>
        </g>
        <g fill="blue" id="ID_legend_3">
          <rect height="12" rx="3" ry="3" width="24" x="10" y="48"/>
          <rect fill="url(#WhiteBlackGradient)" height="12" rx="3" ry="3" width="24" x="10" y="48"/>
          <rect fill-opacity="0.3" filter="url(#SaturateMinus)" height="12" rx="3" ry="3" width="24" x="10" y="48"/>
        </g>
        <g fill="green" id="ID_legend_4">
          <rect height="12" rx="3" ry="3" width="24" x="10" y="68"/>
          <rect fill="url(#WhiteBlackGradient)" height="12" rx="3" ry="3" width="24" x="10" y="68"/>
          <rect fill-opacity="0.3" filter="url(#SaturateMinus)" height="12" rx="3" ry="3" width="24" x="10" y="68"/>
        </g>
        <g fill="yellow" id="ID_legend_5">
          <rect height="12" rx="3" ry="3" width="24" x="10" y="88"/>
          <rect fill="url(#WhiteBlackGradient)" height="12" rx="3" ry="3" width="24" x="10" y="88"/>
          <rect fill-opacity="0.3" filter="url(#SaturateMinus)" height="12" rx="3" ry="3" width="24" x="10" y="88"/>
        </g>
        <g fill="orange" id="ID_legend_6">
          <rect height="12" rx="3" ry="3" width="24" x="10" y="108"/>
          <rect fill="url(#WhiteBlackGradient)" height="12" rx="3" ry="3" width="24" x="10" y="108"/>
          <rect fill-opacity="0.3" filter="url(#SaturateMinus)" height="12" rx="3" ry="3" width="24" x="10" y="108"/>
        </g>
        <g fill="pink" id="ID_legend_7">
          <rect height="12" rx="3" ry="3" width="24" x="10" y="128"/>
          <rect fill="url(#WhiteBlackGradient)" height="12" rx="3" ry="3" width="24" x="10" y="128"/>
          <rect fill-opacity="0.3" filter="url(#SaturateMinus)" height="12" rx="3" ry="3" width="24" x="10" y="128"/>
        </g>
      </g>
      <!--draw legend labels-->
      <g id="ID_legend_labels" style="fill:black;stroke:none;font-family:Arial;;font-weight:normal;font-style:normal;text-decoration:none;filter:none;text-anchor:start">
        <text x="44" y="17">Sharp</text>
        <text x="44" y="37">Infinity</text>
        <text x="44" y="57">Audio Référence</text>
        <text x="44" y="77">Triangle</text>
        <text x="44" y="97">Yamaha</text>
        <text x="44" y="117">Onkyo</text>
        <text x="44" y="137">Sony</text>
      </g>
    </g>
    <g style="clip-path: url(#ID_backgroundClipPath)">
      <g fill="purple" filter="None" id="ID_graph_1" opacity="1" stroke="none" stroke-opacity="1" stroke-width="0">
        <g transform="translate(219.66,233.33)">
          <circle cx="0" cy="0" fill-opacity="1" r="7"/>
          <circle cx="0" cy="0" fill="url(#WhiteGradient)" r="7"/>
          <circle cx="0" cy="0" fill-opacity="0.4" filter="url(#SaturateMinus)" r="7"/>
          <circle cx="0" cy="0" fill="url(#BlackGradient)" r="7"/>
        </g>
        <g transform="translate(302.99,193.33)">
          <circle cx="0" cy="0" fill-opacity="1" r="7"/>
          <circle cx="0" cy="0" fill="url(#WhiteGradient)" r="7"/>
          <circle cx="0" cy="0" fill-opacity="0.4" filter="url(#SaturateMinus)" r="7"/>
          <circle cx="0" cy="0" fill="url(#BlackGradient)" r="7"/>
        </g>
        <g transform="translate(386.32,260)">
          <circle cx="0" cy="0" fill-opacity="1" r="7"/>
          <circle cx="0" cy="0" fill="url(#WhiteGradient)" r="7"/>
          <circle cx="0" cy="0" fill-opacity="0.4" filter="url(#SaturateMinus)" r="7"/>
          <circle cx="0" cy="0" fill="url(#BlackGradient)" r="7"/>
        </g>
        <g transform="translate(469.65,166.67)">
          <circle cx="0" cy="0" fill-opacity="1" r="7"/>
          <circle cx="0" cy="0" fill="url(#WhiteGradient)" r="7"/>
          <circle cx="0" cy="0" fill-opacity="0.4" filter="url(#SaturateMinus)" r="7"/>
          <circle cx="0" cy="0" fill="url(#BlackGradient)" r="7"/>
        </g>
        <g transform="translate(490.48,286.67)">
          <circle cx="0" cy="0" fill-opacity="1" r="7"/>
          <circle cx="0" cy="0" fill="url(#WhiteGradient)" r="7"/>
          <circle cx="0" cy="0" fill-opacity="0.4" filter="url(#SaturateMinus)" r="7"/>
          <circle cx="0" cy="0" fill="url(#BlackGradient)" r="7"/>
        </g>
        <g transform="translate(782.14,140)">
          <circle cx="0" cy="0" fill-opacity="1" r="7"/>
          <circle cx="0" cy="0" fill="url(#WhiteGradient)" r="7"/>
          <circle cx="0" cy="0" fill-opacity="0.4" filter="url(#SaturateMinus)" r="7"/>
          <circle cx="0" cy="0" fill="url(#BlackGradient)" r="7"/>
        </g>
        <g transform="translate(802.97,313.33)">
          <circle cx="0" cy="0" fill-opacity="1" r="7"/>
          <circle cx="0" cy="0" fill="url(#WhiteGradient)" r="7"/>
          <circle cx="0" cy="0" fill-opacity="0.4" filter="url(#SaturateMinus)" r="7"/>
          <circle cx="0" cy="0" fill="url(#BlackGradient)" r="7"/>
        </g>
        <g transform="translate(886.3,113.33)">
          <circle cx="0" cy="0" fill-opacity="1" r="7"/>
          <circle cx="0" cy="0" fill="url(#WhiteGradient)" r="7"/>
          <circle cx="0" cy="0" fill-opacity="0.4" filter="url(#SaturateMinus)" r="7"/>
          <circle cx="0" cy="0" fill="url(#BlackGradient)" r="7"/>
        </g>
      </g>
      <g fill="darkblue" filter="None" id="ID_graph_2" opacity="1" stroke="none" stroke-opacity="1" stroke-width="0">
        <g transform="translate(219.66,234.67)">
          <circle cx="0" cy="0" fill-opacity="1" r="7"/>
          <circle cx="0" cy="0" fill="url(#WhiteGradient)" r="7"/>
          <circle cx="0" cy="0" fill-opacity="0.4" filter="url(#SaturateMinus)" r="7"/>
          <circle cx="0" cy="0" fill="url(#BlackGradient)" r="7"/>
        </g>
        <g transform="translate(302.99,190.67)">
          <circle cx="0" cy="0" fill-opacity="1" r="7"/>
          <circle cx="0" cy="0" fill="url(#WhiteGradient)" r="7"/>
          <circle cx="0" cy="0" fill-opacity="0.4" filter="url(#SaturateMinus)" r="7"/>
          <circle cx="0" cy="0" fill="url(#BlackGradient)" r="7"/>
        </g>
        <g transform="translate(386.32,264)">
          <circle cx="0" cy="0" fill-opacity="1" r="7"/>
          <circle cx="0" cy="0" fill="url(#WhiteGradient)" r="7"/>
          <circle cx="0" cy="0" fill-opacity="0.4" filter="url(#SaturateMinus)" r="7"/>
          <circle cx="0" cy="0" fill="url(#BlackGradient)" r="7"/>
        </g>
        <g transform="translate(469.65,161.33)">
          <circle cx="0" cy="0" fill-opacity="1" r="7"/>
          <circle cx="0" cy="0" fill="url(#WhiteGradient)" r="7"/>
          <circle cx="0" cy="0" fill-opacity="0.4" filter="url(#SaturateMinus)" r="7"/>
          <circle cx="0" cy="0" fill="url(#BlackGradient)" r="7"/>
        </g>
        <g transform="translate(490.48,293.33)">
          <circle cx="0" cy="0" fill-opacity="1" r="7"/>
          <circle cx="0" cy="0" fill="url(#WhiteGradient)" r="7"/>
          <circle cx="0" cy="0" fill-opacity="0.4" filter="url(#SaturateMinus)" r="7"/>
          <circle cx="0" cy="0" fill="url(#BlackGradient)" r="7"/>
        </g>
        <g transform="translate(782.14,132)">
          <circle cx="0" cy="0" fill-opacity="1" r="7"/>
          <circle cx="0" cy="0" fill="url(#WhiteGradient)" r="7"/>
          <circle cx="0" cy="0" fill-opacity="0.4" filter="url(#SaturateMinus)" r="7"/>
          <circle cx="0" cy="0" fill="url(#BlackGradient)" r="7"/>
        </g>
        <g transform="translate(802.97,322.67)">
          <circle cx="0" cy="0" fill-opacity="1" r="7"/>
          <circle cx="0" cy="0" fill="url(#WhiteGradient)" r="7"/>
          <circle cx="0" cy="0" fill-opacity="0.4" filter="url(#SaturateMinus)" r="7"/>
          <circle cx="0" cy="0" fill="url(#BlackGradient)" r="7"/>
        </g>
        <g transform="translate(886.3,102.67)">
          <circle cx="0" cy="0" fill-opacity="1" r="7"/>
          <circle cx="0" cy="0" fill="url(#WhiteGradient)" r="7"/>
          <circle cx="0" cy="0" fill-opacity="0.4" filter="url(#SaturateMinus)" r="7"/>
          <circle cx="0" cy="0" fill="url(#BlackGradient)" r="7"/>
        </g>
      </g>
      <g fill="blue" filter="None" id="ID_graph_3" opacity="1" stroke="none" stroke-opacity="1" stroke-width="0">
        <g transform="translate(219.66,236.13)">
          <circle cx="0" cy="0" fill-opacity="1" r="7"/>
          <circle cx="0" cy="0" fill="url(#WhiteGradient)" r="7"/>
          <circle cx="0" cy="0" fill-opacity="0.4" filter="url(#SaturateMinus)" r="7"/>
          <circle cx="0" cy="0" fill="url(#BlackGradient)" r="7"/>
        </g>
        <g transform="translate(302.99,187.73)">
          <circle cx="0" cy="0" fill-opacity="1" r="7"/>
          <circle cx="0" cy="0" fill="url(#WhiteGradient)" r="7"/>
          <circle cx="0" cy="0" fill-opacity="0.4" filter="url(#SaturateMinus)" r="7"/>
          <circle cx="0" cy="0" fill="url(#BlackGradient)" r="7"/>
        </g>
        <g transform="translate(386.32,268.4)">
          <circle cx="0" cy="0" fill-opacity="1" r="7"/>
          <circle cx="0" cy="0" fill="url(#WhiteGradient)" r="7"/>
          <circle cx="0" cy="0" fill-opacity="0.4" filter="url(#SaturateMinus)" r="7"/>
          <circle cx="0" cy="0" fill="url(#BlackGradient)" r="7"/>
        </g>
        <g transform="translate(469.65,155.47)">
          <circle cx="0" cy="0" fill-opacity="1" r="7"/>
          <circle cx="0" cy="0" fill="url(#WhiteGradient)" r="7"/>
          <circle cx="0" cy="0" fill-opacity="0.4" filter="url(#SaturateMinus)" r="7"/>
          <circle cx="0" cy="0" fill="url(#BlackGradient)" r="7"/>
        </g>
        <g transform="translate(490.48,300.67)">
          <circle cx="0" cy="0" fill-opacity="1" r="7"/>
          <circle cx="0" cy="0" fill="url(#WhiteGradient)" r="7"/>
          <circle cx="0" cy="0" fill-opacity="0.4" filter="url(#SaturateMinus)" r="7"/>
          <circle cx="0" cy="0" fill="url(#BlackGradient)" r="7"/>
        </g>
        <g transform="translate(782.14,123.2)">
          <circle cx="0" cy="0" fill-opacity="1" r="7"/>
          <circle cx="0" cy="0" fill="url(#WhiteGradient)" r="7"/>
          <circle cx="0" cy="0" fill-opacity="0.4" filter="url(#SaturateMinus)" r="7"/>
          <circle cx="0" cy="0" fill="url(#BlackGradient)" r="7"/>
        </g>
        <g transform="translate(802.97,332.93)">
          <circle cx="0" cy="0" fill-opacity="1" r="7"/>
          <circle cx="0" cy="0" fill="url(#WhiteGradient)" r="7"/>
          <circle cx="0" cy="0" fill-opacity="0.4" filter="url(#SaturateMinus)" r="7"/>
          <circle cx="0" cy="0" fill="url(#BlackGradient)" r="7"/>
        </g>
        <g transform="translate(886.3,90.93)">
          <circle cx="0" cy="0" fill-opacity="1" r="7"/>
          <circle cx="0" cy="0" fill="url(#WhiteGradient)" r="7"/>
          <circle cx="0" cy="0" fill-opacity="0.4" filter="url(#SaturateMinus)" r="7"/>
          <circle cx="0" cy="0" fill="url(#BlackGradient)" r="7"/>
        </g>
      </g>
      <g fill="green" filter="None" id="ID_graph_4" opacity="1" stroke="none" stroke-opacity="1" stroke-width="0">
        <g transform="translate(219.66,237.75)">
          <circle cx="0" cy="0" fill-opacity="1" r="7"/>
          <circle cx="0" cy="0" fill="url(#WhiteGradient)" r="7"/>
          <circle cx="0" cy="0" fill-opacity="0.4" filter="url(#SaturateMinus)" r="7"/>
          <circle cx="0" cy="0" fill="url(#BlackGradient)" r="7"/>
        </g>
        <g transform="translate(302.99,184.51)">
          <circle cx="0" cy="0" fill-opacity="1" r="7"/>
          <circle cx="0" cy="0" fill="url(#WhiteGradient)" r="7"/>
          <circle cx="0" cy="0" fill-opacity="0.4" filter="url(#SaturateMinus)" r="7"/>
          <circle cx="0" cy="0" fill="url(#BlackGradient)" r="7"/>
        </g>
        <g transform="translate(386.32,273.24)">
          <circle cx="0" cy="0" fill-opacity="1" r="7"/>
          <circle cx="0" cy="0" fill="url(#WhiteGradient)" r="7"/>
          <circle cx="0" cy="0" fill-opacity="0.4" filter="url(#SaturateMinus)" r="7"/>
          <circle cx="0" cy="0" fill="url(#BlackGradient)" r="7"/>
        </g>
        <g transform="translate(469.65,149.01)">
          <circle cx="0" cy="0" fill-opacity="1" r="7"/>
          <circle cx="0" cy="0" fill="url(#WhiteGradient)" r="7"/>
          <circle cx="0" cy="0" fill-opacity="0.4" filter="url(#SaturateMinus)" r="7"/>
          <circle cx="0" cy="0" fill="url(#BlackGradient)" r="7"/>
        </g>
        <g transform="translate(490.48,308.73)">
          <circle cx="0" cy="0" fill-opacity="1" r="7"/>
          <circle cx="0" cy="0" fill="url(#WhiteGradient)" r="7"/>
          <circle cx="0" cy="0" fill-opacity="0.4" filter="url(#SaturateMinus)" r="7"/>
          <circle cx="0" cy="0" fill="url(#BlackGradient)" r="7"/>
        </g>
        <g transform="translate(782.14,113.52)">
          <circle cx="0" cy="0" fill-opacity="1" r="7"/>
          <circle cx="0" cy="0" fill="url(#WhiteGradient)" r="7"/>
          <circle cx="0" cy="0" fill-opacity="0.4" filter="url(#SaturateMinus)" r="7"/>
          <circle cx="0" cy="0" fill="url(#BlackGradient)" r="7"/>
        </g>
        <g transform="translate(802.97,344.23)">
          <circle cx="0" cy="0" fill-opacity="1" r="7"/>
          <circle cx="0" cy="0" fill="url(#WhiteGradient)" r="7"/>
          <circle cx="0" cy="0" fill-opacity="0.4" filter="url(#SaturateMinus)" r="7"/>
          <circle cx="0" cy="0" fill="url(#BlackGradient)" r="7"/>
        </g>
        <g transform="translate(886.3,78.03)">
          <circle cx="0" cy="0" fill-opacity="1" r="7"/>
          <circle cx="0" cy="0" fill="url(#WhiteGradient)" r="7"/>
          <circle cx="0" cy="0" fill-opacity="0.4" filter="url(#SaturateMinus)" r="7"/>
          <circle cx="0" cy="0" fill="url(#BlackGradient)" r="7"/>
        </g>
      </g>
      <g fill="yellow" filter="None" id="ID_graph_5" opacity="1" stroke="none" stroke-opacity="1" stroke-width="0">
        <g transform="translate(219.66,239.52)">
          <circle cx="0" cy="0" fill-opacity="1" r="7"/>
          <circle cx="0" cy="0" fill="url(#WhiteGradient)" r="7"/>
          <circle cx="0" cy="0" fill-opacity="0.4" filter="url(#SaturateMinus)" r="7"/>
          <circle cx="0" cy="0" fill="url(#BlackGradient)" r="7"/>
        </g>
        <g transform="translate(302.99,180.96)">
          <circle cx="0" cy="0" fill-opacity="1" r="7"/>
          <circle cx="0" cy="0" fill="url(#WhiteGradient)" r="7"/>
          <circle cx="0" cy="0" fill-opacity="0.4" filter="url(#SaturateMinus)" r="7"/>
          <circle cx="0" cy="0" fill="url(#BlackGradient)" r="7"/>
        </g>
        <g transform="translate(386.32,278.56)">
          <circle cx="0" cy="0" fill-opacity="1" r="7"/>
          <circle cx="0" cy="0" fill="url(#WhiteGradient)" r="7"/>
          <circle cx="0" cy="0" fill-opacity="0.4" filter="url(#SaturateMinus)" r="7"/>
          <circle cx="0" cy="0" fill="url(#BlackGradient)" r="7"/>
        </g>
        <g transform="translate(469.65,141.91)">
          <circle cx="0" cy="0" fill-opacity="1" r="7"/>
          <circle cx="0" cy="0" fill="url(#WhiteGradient)" r="7"/>
          <circle cx="0" cy="0" fill-opacity="0.4" filter="url(#SaturateMinus)" r="7"/>
          <circle cx="0" cy="0" fill="url(#BlackGradient)" r="7"/>
        </g>
        <g transform="translate(490.48,317.61)">
          <circle cx="0" cy="0" fill-opacity="1" r="7"/>
          <circle cx="0" cy="0" fill="url(#WhiteGradient)" r="7"/>
          <circle cx="0" cy="0" fill-opacity="0.4" filter="url(#SaturateMinus)" r="7"/>
          <circle cx="0" cy="0" fill="url(#BlackGradient)" r="7"/>
        </g>
        <g transform="translate(782.14,102.87)">
          <circle cx="0" cy="0" fill-opacity="1" r="7"/>
          <circle cx="0" cy="0" fill="url(#WhiteGradient)" r="7"/>
          <circle cx="0" cy="0" fill-opacity="0.4" filter="url(#SaturateMinus)" r="7"/>
          <circle cx="0" cy="0" fill="url(#BlackGradient)" r="7"/>
        </g>
        <g transform="translate(802.97,356.65)">
          <circle cx="0" cy="0" fill-opacity="1" r="7"/>
          <circle cx="0" cy="0" fill="url(#WhiteGradient)" r="7"/>
          <circle cx="0" cy="0" fill-opacity="0.4" filter="url(#SaturateMinus)" r="7"/>
          <circle cx="0" cy="0" fill="url(#BlackGradient)" r="7"/>
        </g>
        <g transform="translate(886.3,63.83)">
          <circle cx="0" cy="0" fill-opacity="1" r="7"/>
          <circle cx="0" cy="0" fill="url(#WhiteGradient)" r="7"/>
          <circle cx="0" cy="0" fill-opacity="0.4" filter="url(#SaturateMinus)" r="7"/>
          <circle cx="0" cy="0" fill="url(#BlackGradient)" r="7"/>
        </g>
      </g>
      <g fill="orange" filter="None" id="ID_graph_6" opacity="1" stroke="none" stroke-opacity="1" stroke-width="0">
        <g transform="translate(219.66,241.47)">
          <circle cx="0" cy="0" fill-opacity="1" r="7"/>
          <circle cx="0" cy="0" fill="url(#WhiteGradient)" r="7"/>
          <circle cx="0" cy="0" fill-opacity="0.4" filter="url(#SaturateMinus)" r="7"/>
          <circle cx="0" cy="0" fill="url(#BlackGradient)" r="7"/>
        </g>
        <g transform="translate(302.99,177.05)">
          <circle cx="0" cy="0" fill-opacity="1" r="7"/>
          <circle cx="0" cy="0" fill="url(#WhiteGradient)" r="7"/>
          <circle cx="0" cy="0" fill-opacity="0.4" filter="url(#SaturateMinus)" r="7"/>
          <circle cx="0" cy="0" fill="url(#BlackGradient)" r="7"/>
        </g>
        <g transform="translate(386.32,284.42)">
          <circle cx="0" cy="0" fill-opacity="1" r="7"/>
          <circle cx="0" cy="0" fill="url(#WhiteGradient)" r="7"/>
          <circle cx="0" cy="0" fill-opacity="0.4" filter="url(#SaturateMinus)" r="7"/>
          <circle cx="0" cy="0" fill="url(#BlackGradient)" r="7"/>
        </g>
        <g transform="translate(469.65,134.11)">
          <circle cx="0" cy="0" fill-opacity="1" r="7"/>
          <circle cx="0" cy="0" fill="url(#WhiteGradient)" r="7"/>
          <circle cx="0" cy="0" fill-opacity="0.4" filter="url(#SaturateMinus)" r="7"/>
          <circle cx="0" cy="0" fill="url(#BlackGradient)" r="7"/>
        </g>
        <g transform="translate(490.48,327.37)">
          <circle cx="0" cy="0" fill-opacity="1" r="7"/>
          <circle cx="0" cy="0" fill="url(#WhiteGradient)" r="7"/>
          <circle cx="0" cy="0" fill-opacity="0.4" filter="url(#SaturateMinus)" r="7"/>
          <circle cx="0" cy="0" fill="url(#BlackGradient)" r="7"/>
        </g>
        <g transform="translate(782.14,91.16)">
          <circle cx="0" cy="0" fill-opacity="1" r="7"/>
          <circle cx="0" cy="0" fill="url(#WhiteGradient)" r="7"/>
          <circle cx="0" cy="0" fill-opacity="0.4" filter="url(#SaturateMinus)" r="7"/>
          <circle cx="0" cy="0" fill="url(#BlackGradient)" r="7"/>
        </g>
        <g transform="translate(802.97,370.31)">
          <circle cx="0" cy="0" fill-opacity="1" r="7"/>
          <circle cx="0" cy="0" fill="url(#WhiteGradient)" r="7"/>
          <circle cx="0" cy="0" fill-opacity="0.4" filter="url(#SaturateMinus)" r="7"/>
          <circle cx="0" cy="0" fill="url(#BlackGradient)" r="7"/>
        </g>
        <g transform="translate(886.3,48.21)">
          <circle cx="0" cy="0" fill-opacity="1" r="7"/>
          <circle cx="0" cy="0" fill="url(#WhiteGradient)" r="7"/>
          <circle cx="0" cy="0" fill-opacity="0.4" filter="url(#SaturateMinus)" r="7"/>
          <circle cx="0" cy="0" fill="url(#BlackGradient)" r="7"/>
        </g>
      </g>
      <g fill="pink" filter="None" id="ID_graph_7" opacity="1" stroke="none" stroke-opacity="1" stroke-width="0">
        <g transform="translate(219.66,243.62)">
          <circle cx="0" cy="0" fill-opacity="1" r="7"/>
          <circle cx="0" cy="0" fill="url(#WhiteGradient)" r="7"/>
          <circle cx="0" cy="0" fill-opacity="0.4" filter="url(#SaturateMinus)" r="7"/>
          <circle cx="0" cy="0" fill="url(#BlackGradient)" r="7"/>
        </g>
        <g transform="translate(302.99,172.76)">
          <circle cx="0" cy="0" fill-opacity="1" r="7"/>
          <circle cx="0" cy="0" fill="url(#WhiteGradient)" r="7"/>
          <circle cx="0" cy="0" fill-opacity="0.4" filter="url(#SaturateMinus)" r="7"/>
          <circle cx="0" cy="0" fill="url(#BlackGradient)" r="7"/>
        </g>
        <g transform="translate(386.32,290.86)">
          <circle cx="0" cy="0" fill-opacity="1" r="7"/>
          <circle cx="0" cy="0" fill="url(#WhiteGradient)" r="7"/>
          <circle cx="0" cy="0" fill-opacity="0.4" filter="url(#SaturateMinus)" r="7"/>
          <circle cx="0" cy="0" fill="url(#BlackGradient)" r="7"/>
        </g>
        <g transform="translate(469.65,125.52)">
          <circle cx="0" cy="0" fill-opacity="1" r="7"/>
          <circle cx="0" cy="0" fill="url(#WhiteGradient)" r="7"/>
          <circle cx="0" cy="0" fill-opacity="0.4" filter="url(#SaturateMinus)" r="7"/>
          <circle cx="0" cy="0" fill="url(#BlackGradient)" r="7"/>
        </g>
        <g transform="translate(490.48,338.1)">
          <circle cx="0" cy="0" fill-opacity="1" r="7"/>
          <circle cx="0" cy="0" fill="url(#WhiteGradient)" r="7"/>
          <circle cx="0" cy="0" fill-opacity="0.4" filter="url(#SaturateMinus)" r="7"/>
          <circle cx="0" cy="0" fill="url(#BlackGradient)" r="7"/>
        </g>
        <g transform="translate(782.14,78.28)">
          <circle cx="0" cy="0" fill-opacity="1" r="7"/>
          <circle cx="0" cy="0" fill="url(#WhiteGradient)" r="7"/>
          <circle cx="0" cy="0" fill-opacity="0.4" filter="url(#SaturateMinus)" r="7"/>
          <circle cx="0" cy="0" fill="url(#BlackGradient)" r="7"/>
        </g>
        <g transform="translate(802.97,385.35)">
          <circle cx="0" cy="0" fill-opacity="1" r="7"/>
          <circle cx="0" cy="0" fill="url(#WhiteGradient)" r="7"/>
          <circle cx="0" cy="0" fill-opacity="0.4" filter="url(#SaturateMinus)" r="7"/>
          <circle cx="0" cy="0" fill="url(#BlackGradient)" r="7"/>
        </g>
        <g transform="translate(886.3,31.03)">
          <circle cx="0" cy="0" fill-opacity="1" r="7"/>
          <circle cx="0" cy="0" fill="url(#WhiteGradient)" r="7"/>
          <circle cx="0" cy="0" fill-opacity="0.4" filter="url(#SaturateMinus)" r="7"/>
          <circle cx="0" cy="0" fill="url(#BlackGradient)" r="7"/>
        </g>
      </g>
    </g>
  </g>

</svg>