
<svg xmlns="http://www.w3.org/2000/svg" id="ID_svg" viewBox="0 0 1370 448" viewport-fill="none" viewport-fill-opacity="1" xmlns:exsl4D="http://www.4D.com" xmlns:gFunc="http://gFunc" xmlns:math="http://exslt.org/math" xmlns:xlink="http://www.w3.org/1999/xlink">

  <!--gradient styles-->

  <defs>
    <filter id="soft_blur">
      <feGaussianBlur in="SourceGraphic" result="BlurAlpha" stdDeviation="1"/>
    </filter>
    <filter id="pastel">
      <feGaussianBlur in="SourceAlpha" result="blur" stdDeviation="2"/>
      <feOffset dx="6" dy="6" in="blur" result="offsetBlur"/>
      <feComposite in="SourceGraphic" in2="offsetBlur" operator="in" result="specOut"/>
    </filter>
    <filter id="blur_shadow">
      <feGaussianBlur in="SourceAlpha" result="blur" stdDeviation="3"/>
      <feOffset dx="4" dy="2" in="blur" result="offsetBlur"/>
      <feBlend in="SourceGraphic" in2="offsetBlur" mode="normal"/>
    </filter>
    <filter filterUnits="objectBoundingBox" id="Shadow">
      <feGaussianBlur in="SourceAlpha" result="flou" stdDeviation="0"/>
      <feColorMatrix in="SourceAlpha" result="flouBlue" type="matrix" values=" 0 0 0 0 0                      0 0 0 0 0                     0 0 0 0 0                      0 0 0 0.3 0"/>
      <feOffset dx="4" dy="4" in="flouBlue" result="flouDecalage"/>
      <feBlend in="SourceGraphic" in2="flouDecalage" mode="normal"/>
    </filter>
    <filter filterUnits="objectBoundingBox" height="100%" id="SaturateMinus" width="100%" x="0%" y="0%">
      <feColorMatrix in="SourceGraphic" type="saturate" values="0.5"/>
    </filter>
    <filter filterUnits="objectBoundingBox" height="100%" id="SaturatePlus" width="100%" x="0%" y="0%">
      <feColorMatrix in="SourceGraphic" type="saturate" values="1.4"/>
    </filter>
    <linearGradient id="BlackGradient">
      <stop offset="0%" style="stop-color:rgb(0,0,0); stop-opacity:0"/>
      <stop offset="100%" style="stop-color:rgb(0,0,0); stop-opacity:0.1"/>
    </linearGradient>
    <linearGradient id="WhiteGradient" x1="0%" x2="100%" y1="0%" y2="0%">
      <stop offset="0%" style="stop-color:rgb(255,255,255); stop-opacity:0.3"/>
      <stop offset="100%" style="stop-color:rgb(255,255,255);stop-opacity:0"/>
    </linearGradient>
    <linearGradient id="WhiteBlackGradient" x1="0%" x2="100%" y1="0%" y2="0%">
      <stop offset="0%" style="stop-color:rgb(255,255,255); stop-opacity:0.15"/>
      <stop offset="100%" style="stop-color:rgb(0,0,0);stop-opacity:0.15"/>
    </linearGradient>
    <linearGradient id="Black0Black1Gradient" x1="0%" x2="0%" y1="0%" y2="100%">
      <stop offset="0%" style="stop-color:rgb(0,0,0); stop-opacity:0"/>
      <stop offset="100%" style="stop-color:rgb(0,0,0);stop-opacity:0.05"/>
    </linearGradient>
  </defs>

  <!--global stroke and font styles-->

  <g id="ID_globals" style="fill:black;stroke:none;font-family:Arial;font-size:12px;font-weight:normal;font-style:normal;text-decoration:none;shape-rendering:crispEdges">
    <!--draw title-->
    <!--********************************draw graph background********************************-->
    <rect fill="rgb(168,168,168)" height="400" id="ID_background_shadow" opacity="1" rx="10" ry="10" stroke="none" transform="translate(1,1)" visibility="visible" width="1152" x="42" y="12"/>
    <g fill="rgb(229,229,229)" id="ID_background" opacity="1" stroke="none" visibility="visible">
      <rect height="400" rx="10" ry="10" stroke="none" width="1152" x="42" y="12"/>
      <rect fill="url(#Black0Black1Gradient)" height="400" rx="10" ry="10" stroke="none" width="1152" x="42" y="12"/>
    </g>
    <clipPath id="ID_backgroundClipPath">
      <rect height="401" rx="10" ry="10" width="1153" x="41" y="11"/>
    </clipPath>
    <!--********************************draw Y Labels********************************-->
    <g id="ID_y$value" style="fill:black;stroke:none;font-family:Arial;font-size:12px;font-weight:normal;font-style:normal;text-decoration:none;filter:none" visibility="visible">
      <text text-anchor="end" x="30" y="18">15</text>
      <text text-anchor="end" x="30" y="62.44">12</text>
      <text text-anchor="end" x="30" y="106.88">9</text>
      <text text-anchor="end" x="30" y="151.32">6</text>
      <text text-anchor="end" x="30" y="195.76">3</text>
      <text text-anchor="end" x="30" y="240.2">0</text>
      <text text-anchor="end" x="30" y="284.64">-3</text>
      <text text-anchor="end" x="30" y="329.08">-6</text>
      <text text-anchor="end" x="30" y="373.52">-9</text>
      <text text-anchor="end" x="30" y="417.96">-12</text>
    </g>
    <!--********************************draw X Labels********************************-->
    <!--draw axis x labels-->
    <g id="ID_x$value" style="fill:black;stroke:none;font-family:Arial;font-size:12px;font-weight:normal;font-style:normal;text-decoration:none;filter:none" visibility="visible">
      <text text-anchor="middle" x="114" y="436">08:00:00</text>
      <text text-anchor="middle" x="258" y="436">09:00:00</text>
      <text text-anchor="middle" x="402" y="436">10:00:00</text>
      <text text-anchor="middle" x="546" y="436">11:00:00</text>
      <text text-anchor="middle" x="690" y="436">11:15:00</text>
      <text text-anchor="middle" x="834" y="436">14:45:00</text>
      <text text-anchor="middle" x="978" y="436">15:00:00</text>
      <text text-anchor="middle" x="1122" y="436">16:00:00</text>
    </g>
    <g style="clip-path: url(#ID_backgroundClipPath)">
      <!--******************************** draw Y grid lines******************************** (Horizontal lines)-->
      <g id="ID_y_grid" stroke="#a8a8a8" stroke-width="1">
        <line x1="42" x2="1194" y1="56.44" y2="56.44"/>
        <line x1="42" x2="1194" y1="100.88" y2="100.88"/>
        <line x1="42" x2="1194" y1="145.32" y2="145.32"/>
        <line x1="42" x2="1194" y1="189.76" y2="189.76"/>
        <line x1="42" x2="1194" y1="234.2" y2="234.2"/>
        <line x1="42" x2="1194" y1="278.64" y2="278.64"/>
        <line x1="42" x2="1194" y1="323.08" y2="323.08"/>
        <line x1="42" x2="1194" y1="367.52" y2="367.52"/>
      </g>
      <!--draw Y grid lines SHADOWS-->
      <g id="ID_y_grid_shadow" stroke="#ffffff" stroke-width="1">
        <line transform="translate(0,1)" x1="42" x2="1194" y1="56.44" y2="56.44"/>
        <line transform="translate(0,1)" x1="42" x2="1194" y1="100.88" y2="100.88"/>
        <line transform="translate(0,1)" x1="42" x2="1194" y1="145.32" y2="145.32"/>
        <line transform="translate(0,1)" x1="42" x2="1194" y1="189.76" y2="189.76"/>
        <line transform="translate(0,1)" x1="42" x2="1194" y1="234.2" y2="234.2"/>
        <line transform="translate(0,1)" x1="42" x2="1194" y1="278.64" y2="278.64"/>
        <line transform="translate(0,1)" x1="42" x2="1194" y1="323.08" y2="323.08"/>
        <line transform="translate(0,1)" x1="42" x2="1194" y1="367.52" y2="367.52"/>
      </g>
      <g id="ID_y0_axis" stroke="rgb(100,100,100)" stroke-width="1" visibility="visible">
        <line x1="42" x2="1194" y1="234.22" y2="234.22"/>
      </g>
      <!--********************************draw X grid lines******************************** (Vertical lines)-->
      <g id="ID_x_grid" stroke="#a8a8a8" stroke-width="1">
        <line x1="186" x2="186" y1="12" y2="412"/>
        <line x1="330" x2="330" y1="12" y2="412"/>
        <line x1="474" x2="474" y1="12" y2="412"/>
        <line x1="618" x2="618" y1="12" y2="412"/>
        <line x1="762" x2="762" y1="12" y2="412"/>
        <line x1="906" x2="906" y1="12" y2="412"/>
        <line x1="1050" x2="1050" y1="12" y2="412"/>
        <line x1="1194" x2="1194" y1="12" y2="412"/>
      </g>
      <!--draw X grid lines SHADOWS -->
      <g id="ID_x_grid_shadow" stroke="#ffffff" stroke-width="1">
        <line transform="translate(1,0)" x1="186" x2="186" y1="12" y2="412"/>
        <line transform="translate(1,0)" x1="330" x2="330" y1="12" y2="412"/>
        <line transform="translate(1,0)" x1="474" x2="474" y1="12" y2="412"/>
        <line transform="translate(1,0)" x1="618" x2="618" y1="12" y2="412"/>
        <line transform="translate(1,0)" x1="762" x2="762" y1="12" y2="412"/>
        <line transform="translate(1,0)" x1="906" x2="906" y1="12" y2="412"/>
        <line transform="translate(1,0)" x1="1050" x2="1050" y1="12" y2="412"/>
        <line transform="translate(1,0)" x1="1194" x2="1194" y1="12" y2="412"/>
      </g>
    </g>
    <!--******************************** draw legend ***********************************-->
    <g filter="none" id="ID_legend" transform="translate(1206,12)" visibility="visible">
      <!--draw legend border-->
      <rect fill="rgb(168,168,168)" fill-opacity="1" height="190" id="ID_legend_border_shadow" rx="10" ry="10" stroke="none" transform="translate(1,1)" width="152" x="0" y="0"/>
      <rect fill="rgb(229,229,229)" fill-opacity="1" height="190" id="ID_legend_border" rx="10" ry="10" stroke="none" stroke-width="0" width="152" x="0" y="0"/>
      <!--draw legend bullets-->
      <g id="ID_legend_bullets" stroke="none">
        <g fill="rgb(0,178,195)" id="ID_legend_1">
          <rect height="20" rx="3" ry="3" width="20" x="10" y="10"/>
          <rect fill="url(#WhiteBlackGradient)" height="20" rx="3" ry="3" width="20" x="10" y="10"/>
          <rect fill-opacity="0.3" filter="url(#SaturateMinus)" height="20" rx="3" ry="3" width="20" x="10" y="10"/>
        </g>
        <g fill="rgb(255,195,56)" id="ID_legend_2">
          <rect height="20" rx="3" ry="3" width="20" x="10" y="40"/>
          <rect fill="url(#WhiteBlackGradient)" height="20" rx="3" ry="3" width="20" x="10" y="40"/>
          <rect fill-opacity="0.3" filter="url(#SaturateMinus)" height="20" rx="3" ry="3" width="20" x="10" y="40"/>
        </g>
        <g fill="rgb(87,62,130)" id="ID_legend_3">
          <rect height="20" rx="3" ry="3" width="20" x="10" y="70"/>
          <rect fill="url(#WhiteBlackGradient)" height="20" rx="3" ry="3" width="20" x="10" y="70"/>
          <rect fill-opacity="0.3" filter="url(#SaturateMinus)" height="20" rx="3" ry="3" width="20" x="10" y="70"/>
        </g>
        <g fill="rgb(79,168,57)" id="ID_legend_4">
          <rect height="20" rx="3" ry="3" width="20" x="10" y="100"/>
          <rect fill="url(#WhiteBlackGradient)" height="20" rx="3" ry="3" width="20" x="10" y="100"/>
          <rect fill-opacity="0.3" filter="url(#SaturateMinus)" height="20" rx="3" ry="3" width="20" x="10" y="100"/>
        </g>
        <g fill="rgb(217,87,0)" id="ID_legend_5">
          <rect height="20" rx="3" ry="3" width="20" x="10" y="130"/>
          <rect fill="url(#WhiteBlackGradient)" height="20" rx="3" ry="3" width="20" x="10" y="130"/>
          <rect fill-opacity="0.3" filter="url(#SaturateMinus)" height="20" rx="3" ry="3" width="20" x="10" y="130"/>
        </g>
        <g fill="rgb(29,157,242)" id="ID_legend_6">
          <rect height="20" rx="3" ry="3" width="20" x="10" y="160"/>
          <rect fill="url(#WhiteBlackGradient)" height="20" rx="3" ry="3" width="20" x="10" y="160"/>
          <rect fill-opacity="0.3" filter="url(#SaturateMinus)" height="20" rx="3" ry="3" width="20" x="10" y="160"/>
        </g>
      </g>
      <!--draw legend labels-->
      <g id="ID_legend_labels" style="fill:black;stroke:none;font-family:Arial;;font-weight:normal;font-style:normal;text-decoration:none;filter:none;text-anchor:start">
        <text x="40" y="27">Sharp</text>
        <text x="40" y="57">Infinity</text>
        <text x="40" y="87">Audio Référence</text>
        <text x="40" y="117">Triangle</text>
        <text x="40" y="147">Yamaha</text>
        <text x="40" y="177">Onkyo</text>
      </g>
    </g>
    <!-- exemple de path "M 0 0 l 0 -198 s 0,-6,6,-6 l 12 0 s 6,0,6,6 l 0 198 z" -->
    <g style="clip-path: url(#ID_backgroundClipPath)">
      <g fill="black" fill-opacity="0.2" id="ID_graph_shadow_1">
        <path d="M 0 0 l 0 9.81 s 0 5 5 5 l 0 0 s 5 0 5 -5 l 0 -9.81 z" transform="translate(57,234.22)"/>
        <path d="M 0 0 l 0 -24.63 s 0 -5 5 -5 l 0 0 s 5 0 5 5 l 0 24.63 z" transform="translate(201,234.22)"/>
        <path d="M 0 0 l 0 39.44 s 0 5 5 5 l 0 0 s 5 0 5 -5 l 0 -39.44 z" transform="translate(345,234.22)"/>
        <path d="M 0 0 l 0 -54.26 s 0 -5 5 -5 l 0 0 s 5 0 5 5 l 0 54.26 z" transform="translate(489,234.22)"/>
        <path d="M 0 0 l 0 69.07 s 0 5 5 5 l 0 0 s 5 0 5 -5 l 0 -69.07 z" transform="translate(633,234.22)"/>
        <path d="M 0 0 l 0 -83.89 s 0 -5 5 -5 l 0 0 s 5 0 5 5 l 0 83.89 z" transform="translate(777,234.22)"/>
        <path d="M 0 0 l 0 98.7 s 0 5 5 5 l 0 0 s 5 0 5 -5 l 0 -98.7 z" transform="translate(921,234.22)"/>
        <path d="M 0 0 l 0 -113.52 s 0 -5 5 -5 l 0 0 s 5 0 5 5 l 0 113.52 z" transform="translate(1065,234.22)"/>
      </g>
      <g fill="black" fill-opacity="0.2" id="ID_graph_shadow_2">
        <path d="M 0 0 l 0 11.3 s 0 5 5 5 l 0 0 s 5 0 5 -5 l 0 -11.3 z" transform="translate(79,234.22)"/>
        <path d="M 0 0 l 0 -27.59 s 0 -5 5 -5 l 0 0 s 5 0 5 5 l 0 27.59 z" transform="translate(223,234.22)"/>
        <path d="M 0 0 l 0 43.89 s 0 5 5 5 l 0 0 s 5 0 5 -5 l 0 -43.89 z" transform="translate(367,234.22)"/>
        <path d="M 0 0 l 0 -60.19 s 0 -5 5 -5 l 0 0 s 5 0 5 5 l 0 60.19 z" transform="translate(511,234.22)"/>
        <path d="M 0 0 l 0 76.48 s 0 5 5 5 l 0 0 s 5 0 5 -5 l 0 -76.48 z" transform="translate(655,234.22)"/>
        <path d="M 0 0 l 0 -92.78 s 0 -5 5 -5 l 0 0 s 5 0 5 5 l 0 92.78 z" transform="translate(799,234.22)"/>
        <path d="M 0 0 l 0 109.07 s 0 5 5 5 l 0 0 s 5 0 5 -5 l 0 -109.07 z" transform="translate(943,234.22)"/>
        <path d="M 0 0 l 0 -125.37 s 0 -5 5 -5 l 0 0 s 5 0 5 5 l 0 125.37 z" transform="translate(1087,234.22)"/>
      </g>
      <g fill="black" fill-opacity="0.2" id="ID_graph_shadow_3">
        <path d="M 0 0 l 0 12.93 s 0 5 5 5 l 0 0 s 5 0 5 -5 l 0 -12.93 z" transform="translate(101,234.22)"/>
        <path d="M 0 0 l 0 -30.85 s 0 -5 5 -5 l 0 0 s 5 0 5 5 l 0 30.85 z" transform="translate(245,234.22)"/>
        <path d="M 0 0 l 0 48.78 s 0 5 5 5 l 0 0 s 5 0 5 -5 l 0 -48.78 z" transform="translate(389,234.22)"/>
        <path d="M 0 0 l 0 -66.7 s 0 -5 5 -5 l 0 0 s 5 0 5 5 l 0 66.7 z" transform="translate(533,234.22)"/>
        <path d="M 0 0 l 0 84.63 s 0 5 5 5 l 0 0 s 5 0 5 -5 l 0 -84.63 z" transform="translate(677,234.22)"/>
        <path d="M 0 0 l 0 -102.56 s 0 -5 5 -5 l 0 0 s 5 0 5 5 l 0 102.56 z" transform="translate(821,234.22)"/>
        <path d="M 0 0 l 0 120.48 s 0 5 5 5 l 0 0 s 5 0 5 -5 l 0 -120.48 z" transform="translate(965,234.22)"/>
        <path d="M 0 0 l 0 -138.41 s 0 -5 5 -5 l 0 0 s 5 0 5 5 l 0 138.41 z" transform="translate(1109,234.22)"/>
      </g>
      <g fill="black" fill-opacity="0.2" id="ID_graph_shadow_4">
        <path d="M 0 0 l 0 14.72 s 0 5 5 5 l 0 0 s 5 0 5 -5 l 0 -14.72 z" transform="translate(123,234.22)"/>
        <path d="M 0 0 l 0 -34.44 s 0 -5 5 -5 l 0 0 s 5 0 5 5 l 0 34.44 z" transform="translate(267,234.22)"/>
        <path d="M 0 0 l 0 54.16 s 0 5 5 5 l 0 0 s 5 0 5 -5 l 0 -54.16 z" transform="translate(411,234.22)"/>
        <path d="M 0 0 l 0 -73.87 s 0 -5 5 -5 l 0 0 s 5 0 5 5 l 0 73.87 z" transform="translate(555,234.22)"/>
        <path d="M 0 0 l 0 93.59 s 0 5 5 5 l 0 0 s 5 0 5 -5 l 0 -93.59 z" transform="translate(699,234.22)"/>
        <path d="M 0 0 l 0 -113.31 s 0 -5 5 -5 l 0 0 s 5 0 5 5 l 0 113.31 z" transform="translate(843,234.22)"/>
        <path d="M 0 0 l 0 133.03 s 0 5 5 5 l 0 0 s 5 0 5 -5 l 0 -133.03 z" transform="translate(987,234.22)"/>
        <path d="M 0 0 l 0 -152.75 s 0 -5 5 -5 l 0 0 s 5 0 5 5 l 0 152.75 z" transform="translate(1131,234.22)"/>
      </g>
      <g fill="black" fill-opacity="0.2" id="ID_graph_shadow_5">
        <path d="M 0 0 l 0 16.69 s 0 5 5 5 l 0 0 s 5 0 5 -5 l 0 -16.69 z" transform="translate(145,234.22)"/>
        <path d="M 0 0 l 0 -38.38 s 0 -5 5 -5 l 0 0 s 5 0 5 5 l 0 38.38 z" transform="translate(289,234.22)"/>
        <path d="M 0 0 l 0 60.07 s 0 5 5 5 l 0 0 s 5 0 5 -5 l 0 -60.07 z" transform="translate(433,234.22)"/>
        <path d="M 0 0 l 0 -81.76 s 0 -5 5 -5 l 0 0 s 5 0 5 5 l 0 81.76 z" transform="translate(577,234.22)"/>
        <path d="M 0 0 l 0 103.45 s 0 5 5 5 l 0 0 s 5 0 5 -5 l 0 -103.45 z" transform="translate(721,234.22)"/>
        <path d="M 0 0 l 0 -125.14 s 0 -5 5 -5 l 0 0 s 5 0 5 5 l 0 125.14 z" transform="translate(865,234.22)"/>
        <path d="M 0 0 l 0 146.83 s 0 5 5 5 l 0 0 s 5 0 5 -5 l 0 -146.83 z" transform="translate(1009,234.22)"/>
        <path d="M 0 0 l 0 -168.52 s 0 -5 5 -5 l 0 0 s 5 0 5 5 l 0 168.52 z" transform="translate(1153,234.22)"/>
      </g>
      <g fill="black" fill-opacity="0.2" id="ID_graph_shadow_6">
        <path d="M 0 0 l 0 18.86 s 0 5 5 5 l 0 0 s 5 0 5 -5 l 0 -18.86 z" transform="translate(167,234.22)"/>
        <path d="M 0 0 l 0 -42.72 s 0 -5 5 -5 l 0 0 s 5 0 5 5 l 0 42.72 z" transform="translate(311,234.22)"/>
        <path d="M 0 0 l 0 66.58 s 0 5 5 5 l 0 0 s 5 0 5 -5 l 0 -66.58 z" transform="translate(455,234.22)"/>
        <path d="M 0 0 l 0 -90.44 s 0 -5 5 -5 l 0 0 s 5 0 5 5 l 0 90.44 z" transform="translate(599,234.22)"/>
        <path d="M 0 0 l 0 114.3 s 0 5 5 5 l 0 0 s 5 0 5 -5 l 0 -114.3 z" transform="translate(743,234.22)"/>
        <path d="M 0 0 l 0 -138.16 s 0 -5 5 -5 l 0 0 s 5 0 5 5 l 0 138.16 z" transform="translate(887,234.22)"/>
        <path d="M 0 0 l 0 162.02 s 0 5 5 5 l 0 0 s 5 0 5 -5 l 0 -162.02 z" transform="translate(1031,234.22)"/>
        <path d="M 0 0 l 0 -185.88 s 0 -5 5 -5 l 0 0 s 5 0 5 5 l 0 185.88 z" transform="translate(1175,234.22)"/>
      </g>
      <g fill="rgb(0,178,195)" filter="none" id="ID_graph_1" opacity="1" stroke="none" stroke-opacity="1" stroke-width="0">
        <path d="M 0 0 l 0 9.81 s 0 5 5 5 l 0 0 s 5 0 5 -5 l 0 -9.81 z" transform="translate(54,234.22)"/>
        <path d="M 0 0 l 0 9.81 s 0 5 5 5 l 0 0 s 5 0 5 -5 l 0 -9.81 z" fill="url(#WhiteBlackGradient)" transform="translate(54,234.22)"/>
        <path d="M 0 0 l 0 9.81 s 0 5 5 5 l 0 0 s 5 0 5 -5 l 0 -9.81 z" fill-opacity="0.3" filter="url(#SaturateMinus)" transform="translate(54,234.22)"/>
        <path d="M 0 0 l 0 -24.63 s 0 -5 5 -5 l 0 0 s 5 0 5 5 l 0 24.63 z" transform="translate(198,234.22)"/>
        <path d="M 0 0 l 0 -24.63 s 0 -5 5 -5 l 0 0 s 5 0 5 5 l 0 24.63 z" fill="url(#WhiteBlackGradient)" transform="translate(198,234.22)"/>
        <path d="M 0 0 l 0 -24.63 s 0 -5 5 -5 l 0 0 s 5 0 5 5 l 0 24.63 z" fill-opacity="0.3" filter="url(#SaturateMinus)" transform="translate(198,234.22)"/>
        <path d="M 0 0 l 0 39.44 s 0 5 5 5 l 0 0 s 5 0 5 -5 l 0 -39.44 z" transform="translate(342,234.22)"/>
        <path d="M 0 0 l 0 39.44 s 0 5 5 5 l 0 0 s 5 0 5 -5 l 0 -39.44 z" fill="url(#WhiteBlackGradient)" transform="translate(342,234.22)"/>
        <path d="M 0 0 l 0 39.44 s 0 5 5 5 l 0 0 s 5 0 5 -5 l 0 -39.44 z" fill-opacity="0.3" filter="url(#SaturateMinus)" transform="translate(342,234.22)"/>
        <path d="M 0 0 l 0 -54.26 s 0 -5 5 -5 l 0 0 s 5 0 5 5 l 0 54.26 z" transform="translate(486,234.22)"/>
        <path d="M 0 0 l 0 -54.26 s 0 -5 5 -5 l 0 0 s 5 0 5 5 l 0 54.26 z" fill="url(#WhiteBlackGradient)" transform="translate(486,234.22)"/>
        <path d="M 0 0 l 0 -54.26 s 0 -5 5 -5 l 0 0 s 5 0 5 5 l 0 54.26 z" fill-opacity="0.3" filter="url(#SaturateMinus)" transform="translate(486,234.22)"/>
        <path d="M 0 0 l 0 69.07 s 0 5 5 5 l 0 0 s 5 0 5 -5 l 0 -69.07 z" transform="translate(630,234.22)"/>
        <path d="M 0 0 l 0 69.07 s 0 5 5 5 l 0 0 s 5 0 5 -5 l 0 -69.07 z" fill="url(#WhiteBlackGradient)" transform="translate(630,234.22)"/>
        <path d="M 0 0 l 0 69.07 s 0 5 5 5 l 0 0 s 5 0 5 -5 l 0 -69.07 z" fill-opacity="0.3" filter="url(#SaturateMinus)" transform="translate(630,234.22)"/>
        <path d="M 0 0 l 0 -83.89 s 0 -5 5 -5 l 0 0 s 5 0 5 5 l 0 83.89 z" transform="translate(774,234.22)"/>
        <path d="M 0 0 l 0 -83.89 s 0 -5 5 -5 l 0 0 s 5 0 5 5 l 0 83.89 z" fill="url(#WhiteBlackGradient)" transform="translate(774,234.22)"/>
        <path d="M 0 0 l 0 -83.89 s 0 -5 5 -5 l 0 0 s 5 0 5 5 l 0 83.89 z" fill-opacity="0.3" filter="url(#SaturateMinus)" transform="translate(774,234.22)"/>
        <path d="M 0 0 l 0 98.7 s 0 5 5 5 l 0 0 s 5 0 5 -5 l 0 -98.7 z" transform="translate(918,234.22)"/>
        <path d="M 0 0 l 0 98.7 s 0 5 5 5 l 0 0 s 5 0 5 -5 l 0 -98.7 z" fill="url(#WhiteBlackGradient)" transform="translate(918,234.22)"/>
        <path d="M 0 0 l 0 98.7 s 0 5 5 5 l 0 0 s 5 0 5 -5 l 0 -98.7 z" fill-opacity="0.3" filter="url(#SaturateMinus)" transform="translate(918,234.22)"/>
        <path d="M 0 0 l 0 -113.52 s 0 -5 5 -5 l 0 0 s 5 0 5 5 l 0 113.52 z" transform="translate(1062,234.22)"/>
        <path d="M 0 0 l 0 -113.52 s 0 -5 5 -5 l 0 0 s 5 0 5 5 l 0 113.52 z" fill="url(#WhiteBlackGradient)" transform="translate(1062,234.22)"/>
        <path d="M 0 0 l 0 -113.52 s 0 -5 5 -5 l 0 0 s 5 0 5 5 l 0 113.52 z" fill-opacity="0.3" filter="url(#SaturateMinus)" transform="translate(1062,234.22)"/>
      </g>
      <g fill="rgb(255,195,56)" filter="none" id="ID_graph_2" opacity="1" stroke="none" stroke-opacity="1" stroke-width="0">
        <path d="M 0 0 l 0 11.3 s 0 5 5 5 l 0 0 s 5 0 5 -5 l 0 -11.3 z" transform="translate(76,234.22)"/>
        <path d="M 0 0 l 0 11.3 s 0 5 5 5 l 0 0 s 5 0 5 -5 l 0 -11.3 z" fill="url(#WhiteBlackGradient)" transform="translate(76,234.22)"/>
        <path d="M 0 0 l 0 11.3 s 0 5 5 5 l 0 0 s 5 0 5 -5 l 0 -11.3 z" fill-opacity="0.3" filter="url(#SaturateMinus)" transform="translate(76,234.22)"/>
        <path d="M 0 0 l 0 -27.59 s 0 -5 5 -5 l 0 0 s 5 0 5 5 l 0 27.59 z" transform="translate(220,234.22)"/>
        <path d="M 0 0 l 0 -27.59 s 0 -5 5 -5 l 0 0 s 5 0 5 5 l 0 27.59 z" fill="url(#WhiteBlackGradient)" transform="translate(220,234.22)"/>
        <path d="M 0 0 l 0 -27.59 s 0 -5 5 -5 l 0 0 s 5 0 5 5 l 0 27.59 z" fill-opacity="0.3" filter="url(#SaturateMinus)" transform="translate(220,234.22)"/>
        <path d="M 0 0 l 0 43.89 s 0 5 5 5 l 0 0 s 5 0 5 -5 l 0 -43.89 z" transform="translate(364,234.22)"/>
        <path d="M 0 0 l 0 43.89 s 0 5 5 5 l 0 0 s 5 0 5 -5 l 0 -43.89 z" fill="url(#WhiteBlackGradient)" transform="translate(364,234.22)"/>
        <path d="M 0 0 l 0 43.89 s 0 5 5 5 l 0 0 s 5 0 5 -5 l 0 -43.89 z" fill-opacity="0.3" filter="url(#SaturateMinus)" transform="translate(364,234.22)"/>
        <path d="M 0 0 l 0 -60.19 s 0 -5 5 -5 l 0 0 s 5 0 5 5 l 0 60.19 z" transform="translate(508,234.22)"/>
        <path d="M 0 0 l 0 -60.19 s 0 -5 5 -5 l 0 0 s 5 0 5 5 l 0 60.19 z" fill="url(#WhiteBlackGradient)" transform="translate(508,234.22)"/>
        <path d="M 0 0 l 0 -60.19 s 0 -5 5 -5 l 0 0 s 5 0 5 5 l 0 60.19 z" fill-opacity="0.3" filter="url(#SaturateMinus)" transform="translate(508,234.22)"/>
        <path d="M 0 0 l 0 76.48 s 0 5 5 5 l 0 0 s 5 0 5 -5 l 0 -76.48 z" transform="translate(652,234.22)"/>
        <path d="M 0 0 l 0 76.48 s 0 5 5 5 l 0 0 s 5 0 5 -5 l 0 -76.48 z" fill="url(#WhiteBlackGradient)" transform="translate(652,234.22)"/>
        <path d="M 0 0 l 0 76.48 s 0 5 5 5 l 0 0 s 5 0 5 -5 l 0 -76.48 z" fill-opacity="0.3" filter="url(#SaturateMinus)" transform="translate(652,234.22)"/>
        <path d="M 0 0 l 0 -92.78 s 0 -5 5 -5 l 0 0 s 5 0 5 5 l 0 92.78 z" transform="translate(796,234.22)"/>
        <path d="M 0 0 l 0 -92.78 s 0 -5 5 -5 l 0 0 s 5 0 5 5 l 0 92.78 z" fill="url(#WhiteBlackGradient)" transform="translate(796,234.22)"/>
        <path d="M 0 0 l 0 -92.78 s 0 -5 5 -5 l 0 0 s 5 0 5 5 l 0 92.78 z" fill-opacity="0.3" filter="url(#SaturateMinus)" transform="translate(796,234.22)"/>
        <path d="M 0 0 l 0 109.07 s 0 5 5 5 l 0 0 s 5 0 5 -5 l 0 -109.07 z" transform="translate(940,234.22)"/>
        <path d="M 0 0 l 0 109.07 s 0 5 5 5 l 0 0 s 5 0 5 -5 l 0 -109.07 z" fill="url(#WhiteBlackGradient)" transform="translate(940,234.22)"/>
        <path d="M 0 0 l 0 109.07 s 0 5 5 5 l 0 0 s 5 0 5 -5 l 0 -109.07 z" fill-opacity="0.3" filter="url(#SaturateMinus)" transform="translate(940,234.22)"/>
        <path d="M 0 0 l 0 -125.37 s 0 -5 5 -5 l 0 0 s 5 0 5 5 l 0 125.37 z" transform="translate(1084,234.22)"/>
        <path d="M 0 0 l 0 -125.37 s 0 -5 5 -5 l 0 0 s 5 0 5 5 l 0 125.37 z" fill="url(#WhiteBlackGradient)" transform="translate(1084,234.22)"/>
        <path d="M 0 0 l 0 -125.37 s 0 -5 5 -5 l 0 0 s 5 0 5 5 l 0 125.37 z" fill-opacity="0.3" filter="url(#SaturateMinus)" transform="translate(1084,234.22)"/>
      </g>
      <g fill="rgb(87,62,130)" filter="none" id="ID_graph_3" opacity="1" stroke="none" stroke-opacity="1" stroke-width="0">
        <path d="M 0 0 l 0 12.93 s 0 5 5 5 l 0 0 s 5 0 5 -5 l 0 -12.93 z" transform="translate(98,234.22)"/>
        <path d="M 0 0 l 0 12.93 s 0 5 5 5 l 0 0 s 5 0 5 -5 l 0 -12.93 z" fill="url(#WhiteBlackGradient)" transform="translate(98,234.22)"/>
        <path d="M 0 0 l 0 12.93 s 0 5 5 5 l 0 0 s 5 0 5 -5 l 0 -12.93 z" fill-opacity="0.3" filter="url(#SaturateMinus)" transform="translate(98,234.22)"/>
        <path d="M 0 0 l 0 -30.85 s 0 -5 5 -5 l 0 0 s 5 0 5 5 l 0 30.85 z" transform="translate(242,234.22)"/>
        <path d="M 0 0 l 0 -30.85 s 0 -5 5 -5 l 0 0 s 5 0 5 5 l 0 30.85 z" fill="url(#WhiteBlackGradient)" transform="translate(242,234.22)"/>
        <path d="M 0 0 l 0 -30.85 s 0 -5 5 -5 l 0 0 s 5 0 5 5 l 0 30.85 z" fill-opacity="0.3" filter="url(#SaturateMinus)" transform="translate(242,234.22)"/>
        <path d="M 0 0 l 0 48.78 s 0 5 5 5 l 0 0 s 5 0 5 -5 l 0 -48.78 z" transform="translate(386,234.22)"/>
        <path d="M 0 0 l 0 48.78 s 0 5 5 5 l 0 0 s 5 0 5 -5 l 0 -48.78 z" fill="url(#WhiteBlackGradient)" transform="translate(386,234.22)"/>
        <path d="M 0 0 l 0 48.78 s 0 5 5 5 l 0 0 s 5 0 5 -5 l 0 -48.78 z" fill-opacity="0.3" filter="url(#SaturateMinus)" transform="translate(386,234.22)"/>
        <path d="M 0 0 l 0 -66.7 s 0 -5 5 -5 l 0 0 s 5 0 5 5 l 0 66.7 z" transform="translate(530,234.22)"/>
        <path d="M 0 0 l 0 -66.7 s 0 -5 5 -5 l 0 0 s 5 0 5 5 l 0 66.7 z" fill="url(#WhiteBlackGradient)" transform="translate(530,234.22)"/>
        <path d="M 0 0 l 0 -66.7 s 0 -5 5 -5 l 0 0 s 5 0 5 5 l 0 66.7 z" fill-opacity="0.3" filter="url(#SaturateMinus)" transform="translate(530,234.22)"/>
        <path d="M 0 0 l 0 84.63 s 0 5 5 5 l 0 0 s 5 0 5 -5 l 0 -84.63 z" transform="translate(674,234.22)"/>
        <path d="M 0 0 l 0 84.63 s 0 5 5 5 l 0 0 s 5 0 5 -5 l 0 -84.63 z" fill="url(#WhiteBlackGradient)" transform="translate(674,234.22)"/>
        <path d="M 0 0 l 0 84.63 s 0 5 5 5 l 0 0 s 5 0 5 -5 l 0 -84.63 z" fill-opacity="0.3" filter="url(#SaturateMinus)" transform="translate(674,234.22)"/>
        <path d="M 0 0 l 0 -102.56 s 0 -5 5 -5 l 0 0 s 5 0 5 5 l 0 102.56 z" transform="translate(818,234.22)"/>
        <path d="M 0 0 l 0 -102.56 s 0 -5 5 -5 l 0 0 s 5 0 5 5 l 0 102.56 z" fill="url(#WhiteBlackGradient)" transform="translate(818,234.22)"/>
        <path d="M 0 0 l 0 -102.56 s 0 -5 5 -5 l 0 0 s 5 0 5 5 l 0 102.56 z" fill-opacity="0.3" filter="url(#SaturateMinus)" transform="translate(818,234.22)"/>
        <path d="M 0 0 l 0 120.48 s 0 5 5 5 l 0 0 s 5 0 5 -5 l 0 -120.48 z" transform="translate(962,234.22)"/>
        <path d="M 0 0 l 0 120.48 s 0 5 5 5 l 0 0 s 5 0 5 -5 l 0 -120.48 z" fill="url(#WhiteBlackGradient)" transform="translate(962,234.22)"/>
        <path d="M 0 0 l 0 120.48 s 0 5 5 5 l 0 0 s 5 0 5 -5 l 0 -120.48 z" fill-opacity="0.3" filter="url(#SaturateMinus)" transform="translate(962,234.22)"/>
        <path d="M 0 0 l 0 -138.41 s 0 -5 5 -5 l 0 0 s 5 0 5 5 l 0 138.41 z" transform="translate(1106,234.22)"/>
        <path d="M 0 0 l 0 -138.41 s 0 -5 5 -5 l 0 0 s 5 0 5 5 l 0 138.41 z" fill="url(#WhiteBlackGradient)" transform="translate(1106,234.22)"/>
        <path d="M 0 0 l 0 -138.41 s 0 -5 5 -5 l 0 0 s 5 0 5 5 l 0 138.41 z" fill-opacity="0.3" filter="url(#SaturateMinus)" transform="translate(1106,234.22)"/>
      </g>
      <g fill="rgb(79,168,57)" filter="none" id="ID_graph_4" opacity="1" stroke="none" stroke-opacity="1" stroke-width="0">
        <path d="M 0 0 l 0 14.72 s 0 5 5 5 l 0 0 s 5 0 5 -5 l 0 -14.72 z" transform="translate(120,234.22)"/>
        <path d="M 0 0 l 0 14.72 s 0 5 5 5 l 0 0 s 5 0 5 -5 l 0 -14.72 z" fill="url(#WhiteBlackGradient)" transform="translate(120,234.22)"/>
        <path d="M 0 0 l 0 14.72 s 0 5 5 5 l 0 0 s 5 0 5 -5 l 0 -14.72 z" fill-opacity="0.3" filter="url(#SaturateMinus)" transform="translate(120,234.22)"/>
        <path d="M 0 0 l 0 -34.44 s 0 -5 5 -5 l 0 0 s 5 0 5 5 l 0 34.44 z" transform="translate(264,234.22)"/>
        <path d="M 0 0 l 0 -34.44 s 0 -5 5 -5 l 0 0 s 5 0 5 5 l 0 34.44 z" fill="url(#WhiteBlackGradient)" transform="translate(264,234.22)"/>
        <path d="M 0 0 l 0 -34.44 s 0 -5 5 -5 l 0 0 s 5 0 5 5 l 0 34.44 z" fill-opacity="0.3" filter="url(#SaturateMinus)" transform="translate(264,234.22)"/>
        <path d="M 0 0 l 0 54.16 s 0 5 5 5 l 0 0 s 5 0 5 -5 l 0 -54.16 z" transform="translate(408,234.22)"/>
        <path d="M 0 0 l 0 54.16 s 0 5 5 5 l 0 0 s 5 0 5 -5 l 0 -54.16 z" fill="url(#WhiteBlackGradient)" transform="translate(408,234.22)"/>
        <path d="M 0 0 l 0 54.16 s 0 5 5 5 l 0 0 s 5 0 5 -5 l 0 -54.16 z" fill-opacity="0.3" filter="url(#SaturateMinus)" transform="translate(408,234.22)"/>
        <path d="M 0 0 l 0 -73.87 s 0 -5 5 -5 l 0 0 s 5 0 5 5 l 0 73.87 z" transform="translate(552,234.22)"/>
        <path d="M 0 0 l 0 -73.87 s 0 -5 5 -5 l 0 0 s 5 0 5 5 l 0 73.87 z" fill="url(#WhiteBlackGradient)" transform="translate(552,234.22)"/>
        <path d="M 0 0 l 0 -73.87 s 0 -5 5 -5 l 0 0 s 5 0 5 5 l 0 73.87 z" fill-opacity="0.3" filter="url(#SaturateMinus)" transform="translate(552,234.22)"/>
        <path d="M 0 0 l 0 93.59 s 0 5 5 5 l 0 0 s 5 0 5 -5 l 0 -93.59 z" transform="translate(696,234.22)"/>
        <path d="M 0 0 l 0 93.59 s 0 5 5 5 l 0 0 s 5 0 5 -5 l 0 -93.59 z" fill="url(#WhiteBlackGradient)" transform="translate(696,234.22)"/>
        <path d="M 0 0 l 0 93.59 s 0 5 5 5 l 0 0 s 5 0 5 -5 l 0 -93.59 z" fill-opacity="0.3" filter="url(#SaturateMinus)" transform="translate(696,234.22)"/>
        <path d="M 0 0 l 0 -113.31 s 0 -5 5 -5 l 0 0 s 5 0 5 5 l 0 113.31 z" transform="translate(840,234.22)"/>
        <path d="M 0 0 l 0 -113.31 s 0 -5 5 -5 l 0 0 s 5 0 5 5 l 0 113.31 z" fill="url(#WhiteBlackGradient)" transform="translate(840,234.22)"/>
        <path d="M 0 0 l 0 -113.31 s 0 -5 5 -5 l 0 0 s 5 0 5 5 l 0 113.31 z" fill-opacity="0.3" filter="url(#SaturateMinus)" transform="translate(840,234.22)"/>
        <path d="M 0 0 l 0 133.03 s 0 5 5 5 l 0 0 s 5 0 5 -5 l 0 -133.03 z" transform="translate(984,234.22)"/>
        <path d="M 0 0 l 0 133.03 s 0 5 5 5 l 0 0 s 5 0 5 -5 l 0 -133.03 z" fill="url(#WhiteBlackGradient)" transform="translate(984,234.22)"/>
        <path d="M 0 0 l 0 133.03 s 0 5 5 5 l 0 0 s 5 0 5 -5 l 0 -133.03 z" fill-opacity="0.3" filter="url(#SaturateMinus)" transform="translate(984,234.22)"/>
        <path d="M 0 0 l 0 -152.75 s 0 -5 5 -5 l 0 0 s 5 0 5 5 l 0 152.75 z" transform="translate(1128,234.22)"/>
        <path d="M 0 0 l 0 -152.75 s 0 -5 5 -5 l 0 0 s 5 0 5 5 l 0 152.75 z" fill="url(#WhiteBlackGradient)" transform="translate(1128,234.22)"/>
        <path d="M 0 0 l 0 -152.75 s 0 -5 5 -5 l 0 0 s 5 0 5 5 l 0 152.75 z" fill-opacity="0.3" filter="url(#SaturateMinus)" transform="translate(1128,234.22)"/>
      </g>
      <g fill="rgb(217,87,0)" filter="none" id="ID_graph_5" opacity="1" stroke="none" stroke-opacity="1" stroke-width="0">
        <path d="M 0 0 l 0 16.69 s 0 5 5 5 l 0 0 s 5 0 5 -5 l 0 -16.69 z" transform="translate(142,234.22)"/>
        <path d="M 0 0 l 0 16.69 s 0 5 5 5 l 0 0 s 5 0 5 -5 l 0 -16.69 z" fill="url(#WhiteBlackGradient)" transform="translate(142,234.22)"/>
        <path d="M 0 0 l 0 16.69 s 0 5 5 5 l 0 0 s 5 0 5 -5 l 0 -16.69 z" fill-opacity="0.3" filter="url(#SaturateMinus)" transform="translate(142,234.22)"/>
        <path d="M 0 0 l 0 -38.38 s 0 -5 5 -5 l 0 0 s 5 0 5 5 l 0 38.38 z" transform="translate(286,234.22)"/>
        <path d="M 0 0 l 0 -38.38 s 0 -5 5 -5 l 0 0 s 5 0 5 5 l 0 38.38 z" fill="url(#WhiteBlackGradient)" transform="translate(286,234.22)"/>
        <path d="M 0 0 l 0 -38.38 s 0 -5 5 -5 l 0 0 s 5 0 5 5 l 0 38.38 z" fill-opacity="0.3" filter="url(#SaturateMinus)" transform="translate(286,234.22)"/>
        <path d="M 0 0 l 0 60.07 s 0 5 5 5 l 0 0 s 5 0 5 -5 l 0 -60.07 z" transform="translate(430,234.22)"/>
        <path d="M 0 0 l 0 60.07 s 0 5 5 5 l 0 0 s 5 0 5 -5 l 0 -60.07 z" fill="url(#WhiteBlackGradient)" transform="translate(430,234.22)"/>
        <path d="M 0 0 l 0 60.07 s 0 5 5 5 l 0 0 s 5 0 5 -5 l 0 -60.07 z" fill-opacity="0.3" filter="url(#SaturateMinus)" transform="translate(430,234.22)"/>
        <path d="M 0 0 l 0 -81.76 s 0 -5 5 -5 l 0 0 s 5 0 5 5 l 0 81.76 z" transform="translate(574,234.22)"/>
        <path d="M 0 0 l 0 -81.76 s 0 -5 5 -5 l 0 0 s 5 0 5 5 l 0 81.76 z" fill="url(#WhiteBlackGradient)" transform="translate(574,234.22)"/>
        <path d="M 0 0 l 0 -81.76 s 0 -5 5 -5 l 0 0 s 5 0 5 5 l 0 81.76 z" fill-opacity="0.3" filter="url(#SaturateMinus)" transform="translate(574,234.22)"/>
        <path d="M 0 0 l 0 103.45 s 0 5 5 5 l 0 0 s 5 0 5 -5 l 0 -103.45 z" transform="translate(718,234.22)"/>
        <path d="M 0 0 l 0 103.45 s 0 5 5 5 l 0 0 s 5 0 5 -5 l 0 -103.45 z" fill="url(#WhiteBlackGradient)" transform="translate(718,234.22)"/>
        <path d="M 0 0 l 0 103.45 s 0 5 5 5 l 0 0 s 5 0 5 -5 l 0 -103.45 z" fill-opacity="0.3" filter="url(#SaturateMinus)" transform="translate(718,234.22)"/>
        <path d="M 0 0 l 0 -125.14 s 0 -5 5 -5 l 0 0 s 5 0 5 5 l 0 125.14 z" transform="translate(862,234.22)"/>
        <path d="M 0 0 l 0 -125.14 s 0 -5 5 -5 l 0 0 s 5 0 5 5 l 0 125.14 z" fill="url(#WhiteBlackGradient)" transform="translate(862,234.22)"/>
        <path d="M 0 0 l 0 -125.14 s 0 -5 5 -5 l 0 0 s 5 0 5 5 l 0 125.14 z" fill-opacity="0.3" filter="url(#SaturateMinus)" transform="translate(862,234.22)"/>
        <path d="M 0 0 l 0 146.83 s 0 5 5 5 l 0 0 s 5 0 5 -5 l 0 -146.83 z" transform="translate(1006,234.22)"/>
        <path d="M 0 0 l 0 146.83 s 0 5 5 5 l 0 0 s 5 0 5 -5 l 0 -146.83 z" fill="url(#WhiteBlackGradient)" transform="translate(1006,234.22)"/>
        <path d="M 0 0 l 0 146.83 s 0 5 5 5 l 0 0 s 5 0 5 -5 l 0 -146.83 z" fill-opacity="0.3" filter="url(#SaturateMinus)" transform="translate(1006,234.22)"/>
        <path d="M 0 0 l 0 -168.52 s 0 -5 5 -5 l 0 0 s 5 0 5 5 l 0 168.52 z" transform="translate(1150,234.22)"/>
        <path d="M 0 0 l 0 -168.52 s 0 -5 5 -5 l 0 0 s 5 0 5 5 l 0 168.52 z" fill="url(#WhiteBlackGradient)" transform="translate(1150,234.22)"/>
        <path d="M 0 0 l 0 -168.52 s 0 -5 5 -5 l 0 0 s 5 0 5 5 l 0 168.52 z" fill-opacity="0.3" filter="url(#SaturateMinus)" transform="translate(1150,234.22)"/>
      </g>
      <g fill="rgb(29,157,242)" filter="none" id="ID_graph_6" opacity="1" stroke="none" stroke-opacity="1" stroke-width="0">
        <path d="M 0 0 l 0 18.86 s 0 5 5 5 l 0 0 s 5 0 5 -5 l 0 -18.86 z" transform="translate(164,234.22)"/>
        <path d="M 0 0 l 0 18.86 s 0 5 5 5 l 0 0 s 5 0 5 -5 l 0 -18.86 z" fill="url(#WhiteBlackGradient)" transform="translate(164,234.22)"/>
        <path d="M 0 0 l 0 18.86 s 0 5 5 5 l 0 0 s 5 0 5 -5 l 0 -18.86 z" fill-opacity="0.3" filter="url(#SaturateMinus)" transform="translate(164,234.22)"/>
        <path d="M 0 0 l 0 -42.72 s 0 -5 5 -5 l 0 0 s 5 0 5 5 l 0 42.72 z" transform="translate(308,234.22)"/>
        <path d="M 0 0 l 0 -42.72 s 0 -5 5 -5 l 0 0 s 5 0 5 5 l 0 42.72 z" fill="url(#WhiteBlackGradient)" transform="translate(308,234.22)"/>
        <path d="M 0 0 l 0 -42.72 s 0 -5 5 -5 l 0 0 s 5 0 5 5 l 0 42.72 z" fill-opacity="0.3" filter="url(#SaturateMinus)" transform="translate(308,234.22)"/>
        <path d="M 0 0 l 0 66.58 s 0 5 5 5 l 0 0 s 5 0 5 -5 l 0 -66.58 z" transform="translate(452,234.22)"/>
        <path d="M 0 0 l 0 66.58 s 0 5 5 5 l 0 0 s 5 0 5 -5 l 0 -66.58 z" fill="url(#WhiteBlackGradient)" transform="translate(452,234.22)"/>
        <path d="M 0 0 l 0 66.58 s 0 5 5 5 l 0 0 s 5 0 5 -5 l 0 -66.58 z" fill-opacity="0.3" filter="url(#SaturateMinus)" transform="translate(452,234.22)"/>
        <path d="M 0 0 l 0 -90.44 s 0 -5 5 -5 l 0 0 s 5 0 5 5 l 0 90.44 z" transform="translate(596,234.22)"/>
        <path d="M 0 0 l 0 -90.44 s 0 -5 5 -5 l 0 0 s 5 0 5 5 l 0 90.44 z" fill="url(#WhiteBlackGradient)" transform="translate(596,234.22)"/>
        <path d="M 0 0 l 0 -90.44 s 0 -5 5 -5 l 0 0 s 5 0 5 5 l 0 90.44 z" fill-opacity="0.3" filter="url(#SaturateMinus)" transform="translate(596,234.22)"/>
        <path d="M 0 0 l 0 114.3 s 0 5 5 5 l 0 0 s 5 0 5 -5 l 0 -114.3 z" transform="translate(740,234.22)"/>
        <path d="M 0 0 l 0 114.3 s 0 5 5 5 l 0 0 s 5 0 5 -5 l 0 -114.3 z" fill="url(#WhiteBlackGradient)" transform="translate(740,234.22)"/>
        <path d="M 0 0 l 0 114.3 s 0 5 5 5 l 0 0 s 5 0 5 -5 l 0 -114.3 z" fill-opacity="0.3" filter="url(#SaturateMinus)" transform="translate(740,234.22)"/>
        <path d="M 0 0 l 0 -138.16 s 0 -5 5 -5 l 0 0 s 5 0 5 5 l 0 138.16 z" transform="translate(884,234.22)"/>
        <path d="M 0 0 l 0 -138.16 s 0 -5 5 -5 l 0 0 s 5 0 5 5 l 0 138.16 z" fill="url(#WhiteBlackGradient)" transform="translate(884,234.22)"/>
        <path d="M 0 0 l 0 -138.16 s 0 -5 5 -5 l 0 0 s 5 0 5 5 l 0 138.16 z" fill-opacity="0.3" filter="url(#SaturateMinus)" transform="translate(884,234.22)"/>
        <path d="M 0 0 l 0 162.02 s 0 5 5 5 l 0 0 s 5 0 5 -5 l 0 -162.02 z" transform="translate(1028,234.22)"/>
        <path d="M 0 0 l 0 162.02 s 0 5 5 5 l 0 0 s 5 0 5 -5 l 0 -162.02 z" fill="url(#WhiteBlackGradient)" transform="translate(1028,234.22)"/>
        <path d="M 0 0 l 0 162.02 s 0 5 5 5 l 0 0 s 5 0 5 -5 l 0 -162.02 z" fill-opacity="0.3" filter="url(#SaturateMinus)" transform="translate(1028,234.22)"/>
        <path d="M 0 0 l 0 -185.88 s 0 -5 5 -5 l 0 0 s 5 0 5 5 l 0 185.88 z" transform="translate(1172,234.22)"/>
        <path d="M 0 0 l 0 -185.88 s 0 -5 5 -5 l 0 0 s 5 0 5 5 l 0 185.88 z" fill="url(#WhiteBlackGradient)" transform="translate(1172,234.22)"/>
        <path d="M 0 0 l 0 -185.88 s 0 -5 5 -5 l 0 0 s 5 0 5 5 l 0 185.88 z" fill-opacity="0.3" filter="url(#SaturateMinus)" transform="translate(1172,234.22)"/>
      </g>
    </g>
  </g>

</svg>