
<svg xmlns="http://www.w3.org/2000/svg" id="ID_svg" viewBox="0 0 1257.96 466" viewport-fill="darkblue" viewport-fill-opacity="0.25" xmlns:exsl4D="http://www.4D.com" xmlns:gFunc="http://gFunc" xmlns:math="http://exslt.org/math" xmlns:xlink="http://www.w3.org/1999/xlink">

  <!--gradient styles-->

  <defs>
    <filter id="soft_blur">
      <feGaussianBlur in="SourceGraphic" result="BlurAlpha" stdDeviation="1"/>
    </filter>
    <filter id="pastel">
      <feGaussianBlur in="SourceAlpha" result="blur" stdDeviation="2"/>
      <feOffset dx="6" dy="6" in="blur" result="offsetBlur"/>
      <feComposite in="SourceGraphic" in2="offsetBlur" operator="in" result="specOut"/>
    </filter>
    <filter id="blur_shadow">
      <feGaussianBlur in="SourceAlpha" result="blur" stdDeviation="3"/>
      <feOffset dx="4" dy="2" in="blur" result="offsetBlur"/>
      <feBlend in="SourceGraphic" in2="offsetBlur" mode="normal"/>
    </filter>
    <filter filterUnits="objectBoundingBox" id="Shadow">
      <feGaussianBlur in="SourceAlpha" result="flou" stdDeviation="0"/>
      <feColorMatrix in="SourceAlpha" result="flouBlue" type="matrix" values=" 0 0 0 0 0                      0 0 0 0 0                     0 0 0 0 0                      0 0 0 0.3 0"/>
      <feOffset dx="4" dy="4" in="flouBlue" result="flouDecalage"/>
      <feBlend in="SourceGraphic" in2="flouDecalage" mode="normal"/>
    </filter>
    <filter filterUnits="objectBoundingBox" height="100%" id="SaturateMinus" width="100%" x="0%" y="0%">
      <feColorMatrix in="SourceGraphic" type="saturate" values="0.5"/>
    </filter>
    <filter filterUnits="objectBoundingBox" height="100%" id="SaturatePlus" width="100%" x="0%" y="0%">
      <feColorMatrix in="SourceGraphic" type="saturate" values="1.4"/>
    </filter>
    <linearGradient id="BlackGradient">
      <stop offset="0%" style="stop-color:rgb(0,0,0); stop-opacity:0"/>
      <stop offset="100%" style="stop-color:rgb(0,0,0); stop-opacity:0.1"/>
    </linearGradient>
    <linearGradient id="WhiteGradient" x1="0%" x2="100%" y1="0%" y2="0%">
      <stop offset="0%" style="stop-color:rgb(255,255,255); stop-opacity:0.3"/>
      <stop offset="100%" style="stop-color:rgb(255,255,255);stop-opacity:0"/>
    </linearGradient>
    <linearGradient id="WhiteBlackGradient" x1="0%" x2="100%" y1="0%" y2="0%">
      <stop offset="0%" style="stop-color:rgb(255,255,255); stop-opacity:0.15"/>
      <stop offset="100%" style="stop-color:rgb(0,0,0);stop-opacity:0.15"/>
    </linearGradient>
    <linearGradient id="Black0Black1Gradient" x1="0%" x2="0%" y1="0%" y2="100%">
      <stop offset="0%" style="stop-color:rgb(0,0,0); stop-opacity:0"/>
      <stop offset="100%" style="stop-color:rgb(0,0,0);stop-opacity:0.05"/>
    </linearGradient>
  </defs>

  <!--global stroke and font styles-->

  <g id="ID_globals" style="fill:red;stroke:none;font-family:Arial;font-size:14px;font-weight:normal;font-style:normal;text-decoration:none;shape-rendering:crispEdges">
    <!--draw title-->
    <!--********************************draw graph background********************************-->
    <rect fill="darkgreen" height="400" id="ID_background_shadow" opacity="0.5" rx="10" ry="10" stroke="none" transform="translate(1,1)" visibility="visible" width="999.96" x="53" y="20"/>
    <g fill="lightgreen" id="ID_background" opacity="0.5" stroke="none" visibility="visible">
      <rect height="400" rx="10" ry="10" stroke="none" width="999.96" x="53" y="20"/>
      <rect fill="url(#Black0Black1Gradient)" height="400" rx="10" ry="10" stroke="none" width="999.96" x="53" y="20"/>
    </g>
    <clipPath id="ID_backgroundClipPath">
      <rect height="401" rx="10" ry="10" width="1000.96" x="52" y="19"/>
    </clipPath>
    <!--********************************draw Y Labels********************************-->
    <g id="ID_y$value" style="fill:red;stroke:none;font-family:Arial;font-size:14px;font-weight:normal;font-style:normal;text-decoration:none;filter:none" visibility="visible">
      <text text-anchor="end" x="41" y="27">18</text>
      <text text-anchor="end" x="41" y="63.36">15</text>
      <text text-anchor="end" x="41" y="99.72">12</text>
      <text text-anchor="end" x="41" y="136.08">9</text>
      <text text-anchor="end" x="41" y="172.44">6</text>
      <text text-anchor="end" x="41" y="208.8">3</text>
      <text text-anchor="end" x="41" y="245.16">0</text>
      <text text-anchor="end" x="41" y="281.52">-3</text>
      <text text-anchor="end" x="41" y="317.88">-6</text>
      <text text-anchor="end" x="41" y="354.24">-9</text>
      <text text-anchor="end" x="41" y="390.6">-12</text>
      <text text-anchor="end" x="41" y="426.96">-15</text>
    </g>
    <!--********************************draw X Labels********************************-->
    <!--draw axis x labels-->
    <g id="ID_x$value" style="fill:red;stroke:none;font-family:Arial;font-size:14px;font-weight:normal;font-style:normal;text-decoration:none;filter:none" visibility="visible">
      <text text-anchor="middle" x="53" y="446">06:00:00</text>
      <text text-anchor="middle" x="136.33" y="446">07:00:00</text>
      <text text-anchor="middle" x="219.66" y="446">08:00:00</text>
      <text text-anchor="middle" x="302.99" y="446">09:00:00</text>
      <text text-anchor="middle" x="386.32" y="446">10:00:00</text>
      <text text-anchor="middle" x="469.65" y="446">11:00:00</text>
      <text text-anchor="middle" x="552.98" y="446">12:00:00</text>
      <text text-anchor="middle" x="636.31" y="446">13:00:00</text>
      <text text-anchor="middle" x="719.64" y="446">14:00:00</text>
      <text text-anchor="middle" x="802.97" y="446">15:00:00</text>
      <text text-anchor="middle" x="886.3" y="446">16:00:00</text>
      <text text-anchor="middle" x="969.63" y="446">17:00:00</text>
      <text text-anchor="middle" x="1052.96" y="446">18:00:00</text>
    </g>
    <g style="clip-path: url(#ID_backgroundClipPath)">
      <!--******************************** draw Y grid lines******************************** (Horizontal lines)-->
      <g id="ID_y_grid" stroke="#a8a8a8" stroke-width="1">
        <line x1="53" x2="1052.96" y1="56.36" y2="56.36"/>
        <line x1="53" x2="1052.96" y1="92.72" y2="92.72"/>
        <line x1="53" x2="1052.96" y1="129.08" y2="129.08"/>
        <line x1="53" x2="1052.96" y1="165.44" y2="165.44"/>
        <line x1="53" x2="1052.96" y1="201.8" y2="201.8"/>
        <line x1="53" x2="1052.96" y1="238.16" y2="238.16"/>
        <line x1="53" x2="1052.96" y1="274.52" y2="274.52"/>
        <line x1="53" x2="1052.96" y1="310.88" y2="310.88"/>
        <line x1="53" x2="1052.96" y1="347.24" y2="347.24"/>
        <line x1="53" x2="1052.96" y1="383.6" y2="383.6"/>
      </g>
      <!--draw Y grid lines SHADOWS-->
      <g id="ID_y_grid_shadow" stroke="#ffffff" stroke-width="1">
        <line transform="translate(0,1)" x1="53" x2="1052.96" y1="56.36" y2="56.36"/>
        <line transform="translate(0,1)" x1="53" x2="1052.96" y1="92.72" y2="92.72"/>
        <line transform="translate(0,1)" x1="53" x2="1052.96" y1="129.08" y2="129.08"/>
        <line transform="translate(0,1)" x1="53" x2="1052.96" y1="165.44" y2="165.44"/>
        <line transform="translate(0,1)" x1="53" x2="1052.96" y1="201.8" y2="201.8"/>
        <line transform="translate(0,1)" x1="53" x2="1052.96" y1="238.16" y2="238.16"/>
        <line transform="translate(0,1)" x1="53" x2="1052.96" y1="274.52" y2="274.52"/>
        <line transform="translate(0,1)" x1="53" x2="1052.96" y1="310.88" y2="310.88"/>
        <line transform="translate(0,1)" x1="53" x2="1052.96" y1="347.24" y2="347.24"/>
        <line transform="translate(0,1)" x1="53" x2="1052.96" y1="383.6" y2="383.6"/>
      </g>
      <g id="ID_y0_axis" stroke="rgb(100,100,100)" stroke-width="1" visibility="visible">
        <line x1="53" x2="1052.96" y1="238.18" y2="238.18"/>
      </g>
      <!--********************************draw X grid lines******************************** (Vertical lines)-->
      <g id="ID_x_grid" stroke="#a8a8a8" stroke-width="1">
        <line x1="136.33" x2="136.33" y1="20" y2="420"/>
        <line x1="219.66" x2="219.66" y1="20" y2="420"/>
        <line x1="302.99" x2="302.99" y1="20" y2="420"/>
        <line x1="386.32" x2="386.32" y1="20" y2="420"/>
        <line x1="469.65" x2="469.65" y1="20" y2="420"/>
        <line x1="552.98" x2="552.98" y1="20" y2="420"/>
        <line x1="636.31" x2="636.31" y1="20" y2="420"/>
        <line x1="719.64" x2="719.64" y1="20" y2="420"/>
        <line x1="802.97" x2="802.97" y1="20" y2="420"/>
        <line x1="886.3" x2="886.3" y1="20" y2="420"/>
        <line x1="969.63" x2="969.63" y1="20" y2="420"/>
      </g>
      <!--draw X grid lines SHADOWS -->
      <g id="ID_x_grid_shadow" stroke="#ffffff" stroke-width="1">
        <line transform="translate(1,0)" x1="136.33" x2="136.33" y1="20" y2="420"/>
        <line transform="translate(1,0)" x1="219.66" x2="219.66" y1="20" y2="420"/>
        <line transform="translate(1,0)" x1="302.99" x2="302.99" y1="20" y2="420"/>
        <line transform="translate(1,0)" x1="386.32" x2="386.32" y1="20" y2="420"/>
        <line transform="translate(1,0)" x1="469.65" x2="469.65" y1="20" y2="420"/>
        <line transform="translate(1,0)" x1="552.98" x2="552.98" y1="20" y2="420"/>
        <line transform="translate(1,0)" x1="636.31" x2="636.31" y1="20" y2="420"/>
        <line transform="translate(1,0)" x1="719.64" x2="719.64" y1="20" y2="420"/>
        <line transform="translate(1,0)" x1="802.97" x2="802.97" y1="20" y2="420"/>
        <line transform="translate(1,0)" x1="886.3" x2="886.3" y1="20" y2="420"/>
        <line transform="translate(1,0)" x1="969.63" x2="969.63" y1="20" y2="420"/>
      </g>
    </g>
    <!--******************************** draw legend ***********************************-->
    <g filter="none" id="ID_legend" transform="translate(1064.96,20)" visibility="visible">
      <!--draw legend border-->
      <rect fill="darkgreen" fill-opacity="0.5" height="168" id="ID_legend_border_shadow" rx="10" ry="10" stroke="none" transform="translate(1,1)" width="173" x="0" y="0"/>
      <rect fill="lightgreen" fill-opacity="0.5" height="168" id="ID_legend_border" rx="10" ry="10" stroke="none" stroke-width="0" width="173" x="0" y="0"/>
      <!--draw legend bullets-->
      <g id="ID_legend_bullets" stroke="none">
        <g fill="purple" id="ID_legend_1">
          <rect height="12" rx="3" ry="3" width="24" x="10" y="8"/>
          <rect fill="url(#WhiteBlackGradient)" height="12" rx="3" ry="3" width="24" x="10" y="8"/>
          <rect fill-opacity="0.3" filter="url(#SaturateMinus)" height="12" rx="3" ry="3" width="24" x="10" y="8"/>
        </g>
        <g fill="darkblue" id="ID_legend_2">
          <rect height="12" rx="3" ry="3" width="24" x="10" y="28"/>
          <rect fill="url(#WhiteBlackGradient)" height="12" rx="3" ry="3" width="24" x="10" y="28"/>
          <rect fill-opacity="0.3" filter="url(#SaturateMinus)" height="12" rx="3" ry="3" width="24" x="10" y="28"/>
        </g>
        <g fill="blue" id="ID_legend_3">
          <rect height="12" rx="3" ry="3" width="24" x="10" y="48"/>
          <rect fill="url(#WhiteBlackGradient)" height="12" rx="3" ry="3" width="24" x="10" y="48"/>
          <rect fill-opacity="0.3" filter="url(#SaturateMinus)" height="12" rx="3" ry="3" width="24" x="10" y="48"/>
        </g>
        <g fill="green" id="ID_legend_4">
          <rect height="12" rx="3" ry="3" width="24" x="10" y="68"/>
          <rect fill="url(#WhiteBlackGradient)" height="12" rx="3" ry="3" width="24" x="10" y="68"/>
          <rect fill-opacity="0.3" filter="url(#SaturateMinus)" height="12" rx="3" ry="3" width="24" x="10" y="68"/>
        </g>
        <g fill="yellow" id="ID_legend_5">
          <rect height="12" rx="3" ry="3" width="24" x="10" y="88"/>
          <rect fill="url(#WhiteBlackGradient)" height="12" rx="3" ry="3" width="24" x="10" y="88"/>
          <rect fill-opacity="0.3" filter="url(#SaturateMinus)" height="12" rx="3" ry="3" width="24" x="10" y="88"/>
        </g>
        <g fill="orange" id="ID_legend_6">
          <rect height="12" rx="3" ry="3" width="24" x="10" y="108"/>
          <rect fill="url(#WhiteBlackGradient)" height="12" rx="3" ry="3" width="24" x="10" y="108"/>
          <rect fill-opacity="0.3" filter="url(#SaturateMinus)" height="12" rx="3" ry="3" width="24" x="10" y="108"/>
        </g>
        <g fill="pink" id="ID_legend_7">
          <rect height="12" rx="3" ry="3" width="24" x="10" y="128"/>
          <rect fill="url(#WhiteBlackGradient)" height="12" rx="3" ry="3" width="24" x="10" y="128"/>
          <rect fill-opacity="0.3" filter="url(#SaturateMinus)" height="12" rx="3" ry="3" width="24" x="10" y="128"/>
        </g>
        <g fill="red" id="ID_legend_8">
          <rect height="12" rx="3" ry="3" width="24" x="10" y="148"/>
          <rect fill="url(#WhiteBlackGradient)" height="12" rx="3" ry="3" width="24" x="10" y="148"/>
          <rect fill-opacity="0.3" filter="url(#SaturateMinus)" height="12" rx="3" ry="3" width="24" x="10" y="148"/>
        </g>
      </g>
      <!--draw legend labels-->
      <g id="ID_legend_labels" style="fill:black;stroke:none;font-family:Arial;;font-weight:normal;font-style:normal;text-decoration:none;filter:none;text-anchor:start">
        <text x="44" y="17">Sharp</text>
        <text x="44" y="37">Infinity</text>
        <text x="44" y="57">Audio Référence</text>
        <text x="44" y="77">Triangle</text>
        <text x="44" y="97">Yamaha</text>
        <text x="44" y="117">Onkyo</text>
        <text x="44" y="137">Sony</text>
        <text x="44" y="157">Free</text>
      </g>
    </g>
    <g style="clip-path: url(#ID_backgroundClipPath)">
      <g filter="none" stroke-opacity="1" stroke-width="2">
        <g id="ID_graph_1" stroke="purple">
          <line fill-opacity="1" x1="219.66" x2="302.99" y1="250.3" y2="213.94"/>
          <line fill-opacity="1" x1="302.99" x2="386.32" y1="213.94" y2="274.54"/>
          <line fill-opacity="1" x1="386.32" x2="469.65" y1="274.54" y2="189.7"/>
          <line fill-opacity="1" x1="469.65" x2="490.48" y1="189.7" y2="298.79"/>
          <line fill-opacity="1" x1="490.48" x2="782.14" y1="298.79" y2="165.45"/>
          <line fill-opacity="1" x1="782.14" x2="802.97" y1="165.45" y2="323.03"/>
          <line fill-opacity="1" x1="802.97" x2="886.3" y1="323.03" y2="141.21"/>
        </g>
        <g id="ID_graph_2" stroke="darkblue">
          <line fill-opacity="1" x1="219.66" x2="302.99" y1="251.51" y2="211.51"/>
          <line fill-opacity="1" x1="302.99" x2="386.32" y1="211.51" y2="278.18"/>
          <line fill-opacity="1" x1="386.32" x2="469.65" y1="278.18" y2="184.85"/>
          <line fill-opacity="1" x1="469.65" x2="490.48" y1="184.85" y2="304.85"/>
          <line fill-opacity="1" x1="490.48" x2="782.14" y1="304.85" y2="158.18"/>
          <line fill-opacity="1" x1="782.14" x2="802.97" y1="158.18" y2="331.51"/>
          <line fill-opacity="1" x1="802.97" x2="886.3" y1="331.51" y2="131.51"/>
        </g>
        <g id="ID_graph_3" stroke="blue">
          <line fill-opacity="1" x1="219.66" x2="302.99" y1="252.85" y2="208.85"/>
          <line fill-opacity="1" x1="302.99" x2="386.32" y1="208.85" y2="282.18"/>
          <line fill-opacity="1" x1="386.32" x2="469.65" y1="282.18" y2="179.51"/>
          <line fill-opacity="1" x1="469.65" x2="490.48" y1="179.51" y2="311.51"/>
          <line fill-opacity="1" x1="490.48" x2="782.14" y1="311.51" y2="150.18"/>
          <line fill-opacity="1" x1="782.14" x2="802.97" y1="150.18" y2="340.85"/>
          <line fill-opacity="1" x1="802.97" x2="886.3" y1="340.85" y2="120.85"/>
        </g>
        <g id="ID_graph_4" stroke="green">
          <line fill-opacity="1" x1="219.66" x2="302.99" y1="254.31" y2="205.91"/>
          <line fill-opacity="1" x1="302.99" x2="386.32" y1="205.91" y2="286.58"/>
          <line fill-opacity="1" x1="386.32" x2="469.65" y1="286.58" y2="173.65"/>
          <line fill-opacity="1" x1="469.65" x2="490.48" y1="173.65" y2="318.85"/>
          <line fill-opacity="1" x1="490.48" x2="782.14" y1="318.85" y2="141.38"/>
          <line fill-opacity="1" x1="782.14" x2="802.97" y1="141.38" y2="351.11"/>
          <line fill-opacity="1" x1="802.97" x2="886.3" y1="351.11" y2="109.11"/>
        </g>
        <g id="ID_graph_5" stroke="yellow">
          <line fill-opacity="1" x1="219.66" x2="302.99" y1="255.93" y2="202.69"/>
          <line fill-opacity="1" x1="302.99" x2="386.32" y1="202.69" y2="291.42"/>
          <line fill-opacity="1" x1="386.32" x2="469.65" y1="291.42" y2="167.19"/>
          <line fill-opacity="1" x1="469.65" x2="490.48" y1="167.19" y2="326.91"/>
          <line fill-opacity="1" x1="490.48" x2="782.14" y1="326.91" y2="131.7"/>
          <line fill-opacity="1" x1="782.14" x2="802.97" y1="131.7" y2="362.41"/>
          <line fill-opacity="1" x1="802.97" x2="886.3" y1="362.41" y2="96.21"/>
        </g>
        <g id="ID_graph_6" stroke="orange">
          <line fill-opacity="1" x1="219.66" x2="302.99" y1="257.7" y2="199.14"/>
          <line fill-opacity="1" x1="302.99" x2="386.32" y1="199.14" y2="296.74"/>
          <line fill-opacity="1" x1="386.32" x2="469.65" y1="296.74" y2="160.09"/>
          <line fill-opacity="1" x1="469.65" x2="490.48" y1="160.09" y2="335.79"/>
          <line fill-opacity="1" x1="490.48" x2="782.14" y1="335.79" y2="121.05"/>
          <line fill-opacity="1" x1="782.14" x2="802.97" y1="121.05" y2="374.83"/>
          <line fill-opacity="1" x1="802.97" x2="886.3" y1="374.83" y2="82.01"/>
        </g>
        <g id="ID_graph_7" stroke="pink">
          <line fill-opacity="1" x1="219.66" x2="302.99" y1="259.65" y2="195.23"/>
          <line fill-opacity="1" x1="302.99" x2="386.32" y1="195.23" y2="302.6"/>
          <line fill-opacity="1" x1="386.32" x2="469.65" y1="302.6" y2="152.29"/>
          <line fill-opacity="1" x1="469.65" x2="490.48" y1="152.29" y2="345.55"/>
          <line fill-opacity="1" x1="490.48" x2="782.14" y1="345.55" y2="109.34"/>
          <line fill-opacity="1" x1="782.14" x2="802.97" y1="109.34" y2="388.49"/>
          <line fill-opacity="1" x1="802.97" x2="886.3" y1="388.49" y2="66.39"/>
        </g>
        <g id="ID_graph_8" stroke="red">
          <line fill-opacity="1" x1="219.66" x2="302.99" y1="261.8" y2="190.94"/>
          <line fill-opacity="1" x1="302.99" x2="386.32" y1="190.94" y2="309.04"/>
          <line fill-opacity="1" x1="386.32" x2="469.65" y1="309.04" y2="143.7"/>
          <line fill-opacity="1" x1="469.65" x2="490.48" y1="143.7" y2="356.28"/>
          <line fill-opacity="1" x1="490.48" x2="782.14" y1="356.28" y2="96.46"/>
          <line fill-opacity="1" x1="782.14" x2="802.97" y1="96.46" y2="403.53"/>
          <line fill-opacity="1" x1="802.97" x2="886.3" y1="403.53" y2="49.21"/>
        </g>
      </g>
      <g filter="none" opacity="1" stroke="none" stroke-opacity="1" stroke-width="0">
        <g fill="purple" id="ID_graph_1">
          <g transform="translate(209.66,247.3)">
            <rect fill-opacity="1" height="6" rx="2" ry="2" width="20" x="0" y="0"/>
            <rect fill="url(#WhiteGradient)" height="6" rx="2" ry="2" width="20" x="0" y="0"/>
            <rect fill-opacity="0.4" filter="url(#SaturateMinus)" height="6" rx="2" ry="2" width="20" x="0" y="0"/>
            <rect fill="url(#BlackGradient)" height="6" rx="2" ry="2" width="20" x="0" y="0"/>
          </g>
          <g transform="translate(292.99,210.94)">
            <rect fill-opacity="1" height="6" rx="2" ry="2" width="20" x="0" y="0"/>
            <rect fill="url(#WhiteGradient)" height="6" rx="2" ry="2" width="20" x="0" y="0"/>
            <rect fill-opacity="0.4" filter="url(#SaturateMinus)" height="6" rx="2" ry="2" width="20" x="0" y="0"/>
            <rect fill="url(#BlackGradient)" height="6" rx="2" ry="2" width="20" x="0" y="0"/>
          </g>
          <g transform="translate(376.32,271.54)">
            <rect fill-opacity="1" height="6" rx="2" ry="2" width="20" x="0" y="0"/>
            <rect fill="url(#WhiteGradient)" height="6" rx="2" ry="2" width="20" x="0" y="0"/>
            <rect fill-opacity="0.4" filter="url(#SaturateMinus)" height="6" rx="2" ry="2" width="20" x="0" y="0"/>
            <rect fill="url(#BlackGradient)" height="6" rx="2" ry="2" width="20" x="0" y="0"/>
          </g>
          <g transform="translate(459.65,186.7)">
            <rect fill-opacity="1" height="6" rx="2" ry="2" width="20" x="0" y="0"/>
            <rect fill="url(#WhiteGradient)" height="6" rx="2" ry="2" width="20" x="0" y="0"/>
            <rect fill-opacity="0.4" filter="url(#SaturateMinus)" height="6" rx="2" ry="2" width="20" x="0" y="0"/>
            <rect fill="url(#BlackGradient)" height="6" rx="2" ry="2" width="20" x="0" y="0"/>
          </g>
          <g transform="translate(480.48,295.79)">
            <rect fill-opacity="1" height="6" rx="2" ry="2" width="20" x="0" y="0"/>
            <rect fill="url(#WhiteGradient)" height="6" rx="2" ry="2" width="20" x="0" y="0"/>
            <rect fill-opacity="0.4" filter="url(#SaturateMinus)" height="6" rx="2" ry="2" width="20" x="0" y="0"/>
            <rect fill="url(#BlackGradient)" height="6" rx="2" ry="2" width="20" x="0" y="0"/>
          </g>
          <g transform="translate(772.14,162.45)">
            <rect fill-opacity="1" height="6" rx="2" ry="2" width="20" x="0" y="0"/>
            <rect fill="url(#WhiteGradient)" height="6" rx="2" ry="2" width="20" x="0" y="0"/>
            <rect fill-opacity="0.4" filter="url(#SaturateMinus)" height="6" rx="2" ry="2" width="20" x="0" y="0"/>
            <rect fill="url(#BlackGradient)" height="6" rx="2" ry="2" width="20" x="0" y="0"/>
          </g>
          <g transform="translate(792.97,320.03)">
            <rect fill-opacity="1" height="6" rx="2" ry="2" width="20" x="0" y="0"/>
            <rect fill="url(#WhiteGradient)" height="6" rx="2" ry="2" width="20" x="0" y="0"/>
            <rect fill-opacity="0.4" filter="url(#SaturateMinus)" height="6" rx="2" ry="2" width="20" x="0" y="0"/>
            <rect fill="url(#BlackGradient)" height="6" rx="2" ry="2" width="20" x="0" y="0"/>
          </g>
          <g transform="translate(876.3,138.21)">
            <rect fill-opacity="1" height="6" rx="2" ry="2" width="20" x="0" y="0"/>
            <rect fill="url(#WhiteGradient)" height="6" rx="2" ry="2" width="20" x="0" y="0"/>
            <rect fill-opacity="0.4" filter="url(#SaturateMinus)" height="6" rx="2" ry="2" width="20" x="0" y="0"/>
            <rect fill="url(#BlackGradient)" height="6" rx="2" ry="2" width="20" x="0" y="0"/>
          </g>
        </g>
        <g fill="darkblue" id="ID_graph_2">
          <g transform="translate(209.66,248.51)">
            <rect fill-opacity="1" height="6" rx="2" ry="2" width="20" x="0" y="0"/>
            <rect fill="url(#WhiteGradient)" height="6" rx="2" ry="2" width="20" x="0" y="0"/>
            <rect fill-opacity="0.4" filter="url(#SaturateMinus)" height="6" rx="2" ry="2" width="20" x="0" y="0"/>
            <rect fill="url(#BlackGradient)" height="6" rx="2" ry="2" width="20" x="0" y="0"/>
          </g>
          <g transform="translate(292.99,208.51)">
            <rect fill-opacity="1" height="6" rx="2" ry="2" width="20" x="0" y="0"/>
            <rect fill="url(#WhiteGradient)" height="6" rx="2" ry="2" width="20" x="0" y="0"/>
            <rect fill-opacity="0.4" filter="url(#SaturateMinus)" height="6" rx="2" ry="2" width="20" x="0" y="0"/>
            <rect fill="url(#BlackGradient)" height="6" rx="2" ry="2" width="20" x="0" y="0"/>
          </g>
          <g transform="translate(376.32,275.18)">
            <rect fill-opacity="1" height="6" rx="2" ry="2" width="20" x="0" y="0"/>
            <rect fill="url(#WhiteGradient)" height="6" rx="2" ry="2" width="20" x="0" y="0"/>
            <rect fill-opacity="0.4" filter="url(#SaturateMinus)" height="6" rx="2" ry="2" width="20" x="0" y="0"/>
            <rect fill="url(#BlackGradient)" height="6" rx="2" ry="2" width="20" x="0" y="0"/>
          </g>
          <g transform="translate(459.65,181.85)">
            <rect fill-opacity="1" height="6" rx="2" ry="2" width="20" x="0" y="0"/>
            <rect fill="url(#WhiteGradient)" height="6" rx="2" ry="2" width="20" x="0" y="0"/>
            <rect fill-opacity="0.4" filter="url(#SaturateMinus)" height="6" rx="2" ry="2" width="20" x="0" y="0"/>
            <rect fill="url(#BlackGradient)" height="6" rx="2" ry="2" width="20" x="0" y="0"/>
          </g>
          <g transform="translate(480.48,301.85)">
            <rect fill-opacity="1" height="6" rx="2" ry="2" width="20" x="0" y="0"/>
            <rect fill="url(#WhiteGradient)" height="6" rx="2" ry="2" width="20" x="0" y="0"/>
            <rect fill-opacity="0.4" filter="url(#SaturateMinus)" height="6" rx="2" ry="2" width="20" x="0" y="0"/>
            <rect fill="url(#BlackGradient)" height="6" rx="2" ry="2" width="20" x="0" y="0"/>
          </g>
          <g transform="translate(772.14,155.18)">
            <rect fill-opacity="1" height="6" rx="2" ry="2" width="20" x="0" y="0"/>
            <rect fill="url(#WhiteGradient)" height="6" rx="2" ry="2" width="20" x="0" y="0"/>
            <rect fill-opacity="0.4" filter="url(#SaturateMinus)" height="6" rx="2" ry="2" width="20" x="0" y="0"/>
            <rect fill="url(#BlackGradient)" height="6" rx="2" ry="2" width="20" x="0" y="0"/>
          </g>
          <g transform="translate(792.97,328.51)">
            <rect fill-opacity="1" height="6" rx="2" ry="2" width="20" x="0" y="0"/>
            <rect fill="url(#WhiteGradient)" height="6" rx="2" ry="2" width="20" x="0" y="0"/>
            <rect fill-opacity="0.4" filter="url(#SaturateMinus)" height="6" rx="2" ry="2" width="20" x="0" y="0"/>
            <rect fill="url(#BlackGradient)" height="6" rx="2" ry="2" width="20" x="0" y="0"/>
          </g>
          <g transform="translate(876.3,128.51)">
            <rect fill-opacity="1" height="6" rx="2" ry="2" width="20" x="0" y="0"/>
            <rect fill="url(#WhiteGradient)" height="6" rx="2" ry="2" width="20" x="0" y="0"/>
            <rect fill-opacity="0.4" filter="url(#SaturateMinus)" height="6" rx="2" ry="2" width="20" x="0" y="0"/>
            <rect fill="url(#BlackGradient)" height="6" rx="2" ry="2" width="20" x="0" y="0"/>
          </g>
        </g>
        <g fill="blue" id="ID_graph_3">
          <g transform="translate(209.66,249.85)">
            <rect fill-opacity="1" height="6" rx="2" ry="2" width="20" x="0" y="0"/>
            <rect fill="url(#WhiteGradient)" height="6" rx="2" ry="2" width="20" x="0" y="0"/>
            <rect fill-opacity="0.4" filter="url(#SaturateMinus)" height="6" rx="2" ry="2" width="20" x="0" y="0"/>
            <rect fill="url(#BlackGradient)" height="6" rx="2" ry="2" width="20" x="0" y="0"/>
          </g>
          <g transform="translate(292.99,205.85)">
            <rect fill-opacity="1" height="6" rx="2" ry="2" width="20" x="0" y="0"/>
            <rect fill="url(#WhiteGradient)" height="6" rx="2" ry="2" width="20" x="0" y="0"/>
            <rect fill-opacity="0.4" filter="url(#SaturateMinus)" height="6" rx="2" ry="2" width="20" x="0" y="0"/>
            <rect fill="url(#BlackGradient)" height="6" rx="2" ry="2" width="20" x="0" y="0"/>
          </g>
          <g transform="translate(376.32,279.18)">
            <rect fill-opacity="1" height="6" rx="2" ry="2" width="20" x="0" y="0"/>
            <rect fill="url(#WhiteGradient)" height="6" rx="2" ry="2" width="20" x="0" y="0"/>
            <rect fill-opacity="0.4" filter="url(#SaturateMinus)" height="6" rx="2" ry="2" width="20" x="0" y="0"/>
            <rect fill="url(#BlackGradient)" height="6" rx="2" ry="2" width="20" x="0" y="0"/>
          </g>
          <g transform="translate(459.65,176.51)">
            <rect fill-opacity="1" height="6" rx="2" ry="2" width="20" x="0" y="0"/>
            <rect fill="url(#WhiteGradient)" height="6" rx="2" ry="2" width="20" x="0" y="0"/>
            <rect fill-opacity="0.4" filter="url(#SaturateMinus)" height="6" rx="2" ry="2" width="20" x="0" y="0"/>
            <rect fill="url(#BlackGradient)" height="6" rx="2" ry="2" width="20" x="0" y="0"/>
          </g>
          <g transform="translate(480.48,308.51)">
            <rect fill-opacity="1" height="6" rx="2" ry="2" width="20" x="0" y="0"/>
            <rect fill="url(#WhiteGradient)" height="6" rx="2" ry="2" width="20" x="0" y="0"/>
            <rect fill-opacity="0.4" filter="url(#SaturateMinus)" height="6" rx="2" ry="2" width="20" x="0" y="0"/>
            <rect fill="url(#BlackGradient)" height="6" rx="2" ry="2" width="20" x="0" y="0"/>
          </g>
          <g transform="translate(772.14,147.18)">
            <rect fill-opacity="1" height="6" rx="2" ry="2" width="20" x="0" y="0"/>
            <rect fill="url(#WhiteGradient)" height="6" rx="2" ry="2" width="20" x="0" y="0"/>
            <rect fill-opacity="0.4" filter="url(#SaturateMinus)" height="6" rx="2" ry="2" width="20" x="0" y="0"/>
            <rect fill="url(#BlackGradient)" height="6" rx="2" ry="2" width="20" x="0" y="0"/>
          </g>
          <g transform="translate(792.97,337.85)">
            <rect fill-opacity="1" height="6" rx="2" ry="2" width="20" x="0" y="0"/>
            <rect fill="url(#WhiteGradient)" height="6" rx="2" ry="2" width="20" x="0" y="0"/>
            <rect fill-opacity="0.4" filter="url(#SaturateMinus)" height="6" rx="2" ry="2" width="20" x="0" y="0"/>
            <rect fill="url(#BlackGradient)" height="6" rx="2" ry="2" width="20" x="0" y="0"/>
          </g>
          <g transform="translate(876.3,117.85)">
            <rect fill-opacity="1" height="6" rx="2" ry="2" width="20" x="0" y="0"/>
            <rect fill="url(#WhiteGradient)" height="6" rx="2" ry="2" width="20" x="0" y="0"/>
            <rect fill-opacity="0.4" filter="url(#SaturateMinus)" height="6" rx="2" ry="2" width="20" x="0" y="0"/>
            <rect fill="url(#BlackGradient)" height="6" rx="2" ry="2" width="20" x="0" y="0"/>
          </g>
        </g>
        <g fill="green" id="ID_graph_4">
          <g transform="translate(209.66,251.31)">
            <rect fill-opacity="1" height="6" rx="2" ry="2" width="20" x="0" y="0"/>
            <rect fill="url(#WhiteGradient)" height="6" rx="2" ry="2" width="20" x="0" y="0"/>
            <rect fill-opacity="0.4" filter="url(#SaturateMinus)" height="6" rx="2" ry="2" width="20" x="0" y="0"/>
            <rect fill="url(#BlackGradient)" height="6" rx="2" ry="2" width="20" x="0" y="0"/>
          </g>
          <g transform="translate(292.99,202.91)">
            <rect fill-opacity="1" height="6" rx="2" ry="2" width="20" x="0" y="0"/>
            <rect fill="url(#WhiteGradient)" height="6" rx="2" ry="2" width="20" x="0" y="0"/>
            <rect fill-opacity="0.4" filter="url(#SaturateMinus)" height="6" rx="2" ry="2" width="20" x="0" y="0"/>
            <rect fill="url(#BlackGradient)" height="6" rx="2" ry="2" width="20" x="0" y="0"/>
          </g>
          <g transform="translate(376.32,283.58)">
            <rect fill-opacity="1" height="6" rx="2" ry="2" width="20" x="0" y="0"/>
            <rect fill="url(#WhiteGradient)" height="6" rx="2" ry="2" width="20" x="0" y="0"/>
            <rect fill-opacity="0.4" filter="url(#SaturateMinus)" height="6" rx="2" ry="2" width="20" x="0" y="0"/>
            <rect fill="url(#BlackGradient)" height="6" rx="2" ry="2" width="20" x="0" y="0"/>
          </g>
          <g transform="translate(459.65,170.65)">
            <rect fill-opacity="1" height="6" rx="2" ry="2" width="20" x="0" y="0"/>
            <rect fill="url(#WhiteGradient)" height="6" rx="2" ry="2" width="20" x="0" y="0"/>
            <rect fill-opacity="0.4" filter="url(#SaturateMinus)" height="6" rx="2" ry="2" width="20" x="0" y="0"/>
            <rect fill="url(#BlackGradient)" height="6" rx="2" ry="2" width="20" x="0" y="0"/>
          </g>
          <g transform="translate(480.48,315.85)">
            <rect fill-opacity="1" height="6" rx="2" ry="2" width="20" x="0" y="0"/>
            <rect fill="url(#WhiteGradient)" height="6" rx="2" ry="2" width="20" x="0" y="0"/>
            <rect fill-opacity="0.4" filter="url(#SaturateMinus)" height="6" rx="2" ry="2" width="20" x="0" y="0"/>
            <rect fill="url(#BlackGradient)" height="6" rx="2" ry="2" width="20" x="0" y="0"/>
          </g>
          <g transform="translate(772.14,138.38)">
            <rect fill-opacity="1" height="6" rx="2" ry="2" width="20" x="0" y="0"/>
            <rect fill="url(#WhiteGradient)" height="6" rx="2" ry="2" width="20" x="0" y="0"/>
            <rect fill-opacity="0.4" filter="url(#SaturateMinus)" height="6" rx="2" ry="2" width="20" x="0" y="0"/>
            <rect fill="url(#BlackGradient)" height="6" rx="2" ry="2" width="20" x="0" y="0"/>
          </g>
          <g transform="translate(792.97,348.11)">
            <rect fill-opacity="1" height="6" rx="2" ry="2" width="20" x="0" y="0"/>
            <rect fill="url(#WhiteGradient)" height="6" rx="2" ry="2" width="20" x="0" y="0"/>
            <rect fill-opacity="0.4" filter="url(#SaturateMinus)" height="6" rx="2" ry="2" width="20" x="0" y="0"/>
            <rect fill="url(#BlackGradient)" height="6" rx="2" ry="2" width="20" x="0" y="0"/>
          </g>
          <g transform="translate(876.3,106.11)">
            <rect fill-opacity="1" height="6" rx="2" ry="2" width="20" x="0" y="0"/>
            <rect fill="url(#WhiteGradient)" height="6" rx="2" ry="2" width="20" x="0" y="0"/>
            <rect fill-opacity="0.4" filter="url(#SaturateMinus)" height="6" rx="2" ry="2" width="20" x="0" y="0"/>
            <rect fill="url(#BlackGradient)" height="6" rx="2" ry="2" width="20" x="0" y="0"/>
          </g>
        </g>
        <g fill="yellow" id="ID_graph_5">
          <g transform="translate(209.66,252.93)">
            <rect fill-opacity="1" height="6" rx="2" ry="2" width="20" x="0" y="0"/>
            <rect fill="url(#WhiteGradient)" height="6" rx="2" ry="2" width="20" x="0" y="0"/>
            <rect fill-opacity="0.4" filter="url(#SaturateMinus)" height="6" rx="2" ry="2" width="20" x="0" y="0"/>
            <rect fill="url(#BlackGradient)" height="6" rx="2" ry="2" width="20" x="0" y="0"/>
          </g>
          <g transform="translate(292.99,199.69)">
            <rect fill-opacity="1" height="6" rx="2" ry="2" width="20" x="0" y="0"/>
            <rect fill="url(#WhiteGradient)" height="6" rx="2" ry="2" width="20" x="0" y="0"/>
            <rect fill-opacity="0.4" filter="url(#SaturateMinus)" height="6" rx="2" ry="2" width="20" x="0" y="0"/>
            <rect fill="url(#BlackGradient)" height="6" rx="2" ry="2" width="20" x="0" y="0"/>
          </g>
          <g transform="translate(376.32,288.42)">
            <rect fill-opacity="1" height="6" rx="2" ry="2" width="20" x="0" y="0"/>
            <rect fill="url(#WhiteGradient)" height="6" rx="2" ry="2" width="20" x="0" y="0"/>
            <rect fill-opacity="0.4" filter="url(#SaturateMinus)" height="6" rx="2" ry="2" width="20" x="0" y="0"/>
            <rect fill="url(#BlackGradient)" height="6" rx="2" ry="2" width="20" x="0" y="0"/>
          </g>
          <g transform="translate(459.65,164.19)">
            <rect fill-opacity="1" height="6" rx="2" ry="2" width="20" x="0" y="0"/>
            <rect fill="url(#WhiteGradient)" height="6" rx="2" ry="2" width="20" x="0" y="0"/>
            <rect fill-opacity="0.4" filter="url(#SaturateMinus)" height="6" rx="2" ry="2" width="20" x="0" y="0"/>
            <rect fill="url(#BlackGradient)" height="6" rx="2" ry="2" width="20" x="0" y="0"/>
          </g>
          <g transform="translate(480.48,323.91)">
            <rect fill-opacity="1" height="6" rx="2" ry="2" width="20" x="0" y="0"/>
            <rect fill="url(#WhiteGradient)" height="6" rx="2" ry="2" width="20" x="0" y="0"/>
            <rect fill-opacity="0.4" filter="url(#SaturateMinus)" height="6" rx="2" ry="2" width="20" x="0" y="0"/>
            <rect fill="url(#BlackGradient)" height="6" rx="2" ry="2" width="20" x="0" y="0"/>
          </g>
          <g transform="translate(772.14,128.7)">
            <rect fill-opacity="1" height="6" rx="2" ry="2" width="20" x="0" y="0"/>
            <rect fill="url(#WhiteGradient)" height="6" rx="2" ry="2" width="20" x="0" y="0"/>
            <rect fill-opacity="0.4" filter="url(#SaturateMinus)" height="6" rx="2" ry="2" width="20" x="0" y="0"/>
            <rect fill="url(#BlackGradient)" height="6" rx="2" ry="2" width="20" x="0" y="0"/>
          </g>
          <g transform="translate(792.97,359.41)">
            <rect fill-opacity="1" height="6" rx="2" ry="2" width="20" x="0" y="0"/>
            <rect fill="url(#WhiteGradient)" height="6" rx="2" ry="2" width="20" x="0" y="0"/>
            <rect fill-opacity="0.4" filter="url(#SaturateMinus)" height="6" rx="2" ry="2" width="20" x="0" y="0"/>
            <rect fill="url(#BlackGradient)" height="6" rx="2" ry="2" width="20" x="0" y="0"/>
          </g>
          <g transform="translate(876.3,93.21)">
            <rect fill-opacity="1" height="6" rx="2" ry="2" width="20" x="0" y="0"/>
            <rect fill="url(#WhiteGradient)" height="6" rx="2" ry="2" width="20" x="0" y="0"/>
            <rect fill-opacity="0.4" filter="url(#SaturateMinus)" height="6" rx="2" ry="2" width="20" x="0" y="0"/>
            <rect fill="url(#BlackGradient)" height="6" rx="2" ry="2" width="20" x="0" y="0"/>
          </g>
        </g>
        <g fill="orange" id="ID_graph_6">
          <g transform="translate(209.66,254.7)">
            <rect fill-opacity="1" height="6" rx="2" ry="2" width="20" x="0" y="0"/>
            <rect fill="url(#WhiteGradient)" height="6" rx="2" ry="2" width="20" x="0" y="0"/>
            <rect fill-opacity="0.4" filter="url(#SaturateMinus)" height="6" rx="2" ry="2" width="20" x="0" y="0"/>
            <rect fill="url(#BlackGradient)" height="6" rx="2" ry="2" width="20" x="0" y="0"/>
          </g>
          <g transform="translate(292.99,196.14)">
            <rect fill-opacity="1" height="6" rx="2" ry="2" width="20" x="0" y="0"/>
            <rect fill="url(#WhiteGradient)" height="6" rx="2" ry="2" width="20" x="0" y="0"/>
            <rect fill-opacity="0.4" filter="url(#SaturateMinus)" height="6" rx="2" ry="2" width="20" x="0" y="0"/>
            <rect fill="url(#BlackGradient)" height="6" rx="2" ry="2" width="20" x="0" y="0"/>
          </g>
          <g transform="translate(376.32,293.74)">
            <rect fill-opacity="1" height="6" rx="2" ry="2" width="20" x="0" y="0"/>
            <rect fill="url(#WhiteGradient)" height="6" rx="2" ry="2" width="20" x="0" y="0"/>
            <rect fill-opacity="0.4" filter="url(#SaturateMinus)" height="6" rx="2" ry="2" width="20" x="0" y="0"/>
            <rect fill="url(#BlackGradient)" height="6" rx="2" ry="2" width="20" x="0" y="0"/>
          </g>
          <g transform="translate(459.65,157.09)">
            <rect fill-opacity="1" height="6" rx="2" ry="2" width="20" x="0" y="0"/>
            <rect fill="url(#WhiteGradient)" height="6" rx="2" ry="2" width="20" x="0" y="0"/>
            <rect fill-opacity="0.4" filter="url(#SaturateMinus)" height="6" rx="2" ry="2" width="20" x="0" y="0"/>
            <rect fill="url(#BlackGradient)" height="6" rx="2" ry="2" width="20" x="0" y="0"/>
          </g>
          <g transform="translate(480.48,332.79)">
            <rect fill-opacity="1" height="6" rx="2" ry="2" width="20" x="0" y="0"/>
            <rect fill="url(#WhiteGradient)" height="6" rx="2" ry="2" width="20" x="0" y="0"/>
            <rect fill-opacity="0.4" filter="url(#SaturateMinus)" height="6" rx="2" ry="2" width="20" x="0" y="0"/>
            <rect fill="url(#BlackGradient)" height="6" rx="2" ry="2" width="20" x="0" y="0"/>
          </g>
          <g transform="translate(772.14,118.05)">
            <rect fill-opacity="1" height="6" rx="2" ry="2" width="20" x="0" y="0"/>
            <rect fill="url(#WhiteGradient)" height="6" rx="2" ry="2" width="20" x="0" y="0"/>
            <rect fill-opacity="0.4" filter="url(#SaturateMinus)" height="6" rx="2" ry="2" width="20" x="0" y="0"/>
            <rect fill="url(#BlackGradient)" height="6" rx="2" ry="2" width="20" x="0" y="0"/>
          </g>
          <g transform="translate(792.97,371.83)">
            <rect fill-opacity="1" height="6" rx="2" ry="2" width="20" x="0" y="0"/>
            <rect fill="url(#WhiteGradient)" height="6" rx="2" ry="2" width="20" x="0" y="0"/>
            <rect fill-opacity="0.4" filter="url(#SaturateMinus)" height="6" rx="2" ry="2" width="20" x="0" y="0"/>
            <rect fill="url(#BlackGradient)" height="6" rx="2" ry="2" width="20" x="0" y="0"/>
          </g>
          <g transform="translate(876.3,79.01)">
            <rect fill-opacity="1" height="6" rx="2" ry="2" width="20" x="0" y="0"/>
            <rect fill="url(#WhiteGradient)" height="6" rx="2" ry="2" width="20" x="0" y="0"/>
            <rect fill-opacity="0.4" filter="url(#SaturateMinus)" height="6" rx="2" ry="2" width="20" x="0" y="0"/>
            <rect fill="url(#BlackGradient)" height="6" rx="2" ry="2" width="20" x="0" y="0"/>
          </g>
        </g>
        <g fill="pink" id="ID_graph_7">
          <g transform="translate(209.66,256.65)">
            <rect fill-opacity="1" height="6" rx="2" ry="2" width="20" x="0" y="0"/>
            <rect fill="url(#WhiteGradient)" height="6" rx="2" ry="2" width="20" x="0" y="0"/>
            <rect fill-opacity="0.4" filter="url(#SaturateMinus)" height="6" rx="2" ry="2" width="20" x="0" y="0"/>
            <rect fill="url(#BlackGradient)" height="6" rx="2" ry="2" width="20" x="0" y="0"/>
          </g>
          <g transform="translate(292.99,192.23)">
            <rect fill-opacity="1" height="6" rx="2" ry="2" width="20" x="0" y="0"/>
            <rect fill="url(#WhiteGradient)" height="6" rx="2" ry="2" width="20" x="0" y="0"/>
            <rect fill-opacity="0.4" filter="url(#SaturateMinus)" height="6" rx="2" ry="2" width="20" x="0" y="0"/>
            <rect fill="url(#BlackGradient)" height="6" rx="2" ry="2" width="20" x="0" y="0"/>
          </g>
          <g transform="translate(376.32,299.6)">
            <rect fill-opacity="1" height="6" rx="2" ry="2" width="20" x="0" y="0"/>
            <rect fill="url(#WhiteGradient)" height="6" rx="2" ry="2" width="20" x="0" y="0"/>
            <rect fill-opacity="0.4" filter="url(#SaturateMinus)" height="6" rx="2" ry="2" width="20" x="0" y="0"/>
            <rect fill="url(#BlackGradient)" height="6" rx="2" ry="2" width="20" x="0" y="0"/>
          </g>
          <g transform="translate(459.65,149.29)">
            <rect fill-opacity="1" height="6" rx="2" ry="2" width="20" x="0" y="0"/>
            <rect fill="url(#WhiteGradient)" height="6" rx="2" ry="2" width="20" x="0" y="0"/>
            <rect fill-opacity="0.4" filter="url(#SaturateMinus)" height="6" rx="2" ry="2" width="20" x="0" y="0"/>
            <rect fill="url(#BlackGradient)" height="6" rx="2" ry="2" width="20" x="0" y="0"/>
          </g>
          <g transform="translate(480.48,342.55)">
            <rect fill-opacity="1" height="6" rx="2" ry="2" width="20" x="0" y="0"/>
            <rect fill="url(#WhiteGradient)" height="6" rx="2" ry="2" width="20" x="0" y="0"/>
            <rect fill-opacity="0.4" filter="url(#SaturateMinus)" height="6" rx="2" ry="2" width="20" x="0" y="0"/>
            <rect fill="url(#BlackGradient)" height="6" rx="2" ry="2" width="20" x="0" y="0"/>
          </g>
          <g transform="translate(772.14,106.34)">
            <rect fill-opacity="1" height="6" rx="2" ry="2" width="20" x="0" y="0"/>
            <rect fill="url(#WhiteGradient)" height="6" rx="2" ry="2" width="20" x="0" y="0"/>
            <rect fill-opacity="0.4" filter="url(#SaturateMinus)" height="6" rx="2" ry="2" width="20" x="0" y="0"/>
            <rect fill="url(#BlackGradient)" height="6" rx="2" ry="2" width="20" x="0" y="0"/>
          </g>
          <g transform="translate(792.97,385.49)">
            <rect fill-opacity="1" height="6" rx="2" ry="2" width="20" x="0" y="0"/>
            <rect fill="url(#WhiteGradient)" height="6" rx="2" ry="2" width="20" x="0" y="0"/>
            <rect fill-opacity="0.4" filter="url(#SaturateMinus)" height="6" rx="2" ry="2" width="20" x="0" y="0"/>
            <rect fill="url(#BlackGradient)" height="6" rx="2" ry="2" width="20" x="0" y="0"/>
          </g>
          <g transform="translate(876.3,63.39)">
            <rect fill-opacity="1" height="6" rx="2" ry="2" width="20" x="0" y="0"/>
            <rect fill="url(#WhiteGradient)" height="6" rx="2" ry="2" width="20" x="0" y="0"/>
            <rect fill-opacity="0.4" filter="url(#SaturateMinus)" height="6" rx="2" ry="2" width="20" x="0" y="0"/>
            <rect fill="url(#BlackGradient)" height="6" rx="2" ry="2" width="20" x="0" y="0"/>
          </g>
        </g>
        <g fill="red" id="ID_graph_8">
          <g transform="translate(209.66,258.8)">
            <rect fill-opacity="1" height="6" rx="2" ry="2" width="20" x="0" y="0"/>
            <rect fill="url(#WhiteGradient)" height="6" rx="2" ry="2" width="20" x="0" y="0"/>
            <rect fill-opacity="0.4" filter="url(#SaturateMinus)" height="6" rx="2" ry="2" width="20" x="0" y="0"/>
            <rect fill="url(#BlackGradient)" height="6" rx="2" ry="2" width="20" x="0" y="0"/>
          </g>
          <g transform="translate(292.99,187.94)">
            <rect fill-opacity="1" height="6" rx="2" ry="2" width="20" x="0" y="0"/>
            <rect fill="url(#WhiteGradient)" height="6" rx="2" ry="2" width="20" x="0" y="0"/>
            <rect fill-opacity="0.4" filter="url(#SaturateMinus)" height="6" rx="2" ry="2" width="20" x="0" y="0"/>
            <rect fill="url(#BlackGradient)" height="6" rx="2" ry="2" width="20" x="0" y="0"/>
          </g>
          <g transform="translate(376.32,306.04)">
            <rect fill-opacity="1" height="6" rx="2" ry="2" width="20" x="0" y="0"/>
            <rect fill="url(#WhiteGradient)" height="6" rx="2" ry="2" width="20" x="0" y="0"/>
            <rect fill-opacity="0.4" filter="url(#SaturateMinus)" height="6" rx="2" ry="2" width="20" x="0" y="0"/>
            <rect fill="url(#BlackGradient)" height="6" rx="2" ry="2" width="20" x="0" y="0"/>
          </g>
          <g transform="translate(459.65,140.7)">
            <rect fill-opacity="1" height="6" rx="2" ry="2" width="20" x="0" y="0"/>
            <rect fill="url(#WhiteGradient)" height="6" rx="2" ry="2" width="20" x="0" y="0"/>
            <rect fill-opacity="0.4" filter="url(#SaturateMinus)" height="6" rx="2" ry="2" width="20" x="0" y="0"/>
            <rect fill="url(#BlackGradient)" height="6" rx="2" ry="2" width="20" x="0" y="0"/>
          </g>
          <g transform="translate(480.48,353.28)">
            <rect fill-opacity="1" height="6" rx="2" ry="2" width="20" x="0" y="0"/>
            <rect fill="url(#WhiteGradient)" height="6" rx="2" ry="2" width="20" x="0" y="0"/>
            <rect fill-opacity="0.4" filter="url(#SaturateMinus)" height="6" rx="2" ry="2" width="20" x="0" y="0"/>
            <rect fill="url(#BlackGradient)" height="6" rx="2" ry="2" width="20" x="0" y="0"/>
          </g>
          <g transform="translate(772.14,93.46)">
            <rect fill-opacity="1" height="6" rx="2" ry="2" width="20" x="0" y="0"/>
            <rect fill="url(#WhiteGradient)" height="6" rx="2" ry="2" width="20" x="0" y="0"/>
            <rect fill-opacity="0.4" filter="url(#SaturateMinus)" height="6" rx="2" ry="2" width="20" x="0" y="0"/>
            <rect fill="url(#BlackGradient)" height="6" rx="2" ry="2" width="20" x="0" y="0"/>
          </g>
          <g transform="translate(792.97,400.53)">
            <rect fill-opacity="1" height="6" rx="2" ry="2" width="20" x="0" y="0"/>
            <rect fill="url(#WhiteGradient)" height="6" rx="2" ry="2" width="20" x="0" y="0"/>
            <rect fill-opacity="0.4" filter="url(#SaturateMinus)" height="6" rx="2" ry="2" width="20" x="0" y="0"/>
            <rect fill="url(#BlackGradient)" height="6" rx="2" ry="2" width="20" x="0" y="0"/>
          </g>
          <g transform="translate(876.3,46.21)">
            <rect fill-opacity="1" height="6" rx="2" ry="2" width="20" x="0" y="0"/>
            <rect fill="url(#WhiteGradient)" height="6" rx="2" ry="2" width="20" x="0" y="0"/>
            <rect fill-opacity="0.4" filter="url(#SaturateMinus)" height="6" rx="2" ry="2" width="20" x="0" y="0"/>
            <rect fill="url(#BlackGradient)" height="6" rx="2" ry="2" width="20" x="0" y="0"/>
          </g>
        </g>
      </g>
    </g>
  </g>

</svg>