
<svg xmlns="http://www.w3.org/2000/svg" id="ID_svg" viewBox="0 0 1257.96 466" viewport-fill="darkblue" viewport-fill-opacity="0.25" xmlns:exsl4D="http://www.4D.com" xmlns:gFunc="http://gFunc" xmlns:math="http://exslt.org/math" xmlns:xlink="http://www.w3.org/1999/xlink">

  <!--gradient styles-->

  <defs>
    <filter id="soft_blur">
      <feGaussianBlur in="SourceGraphic" result="BlurAlpha" stdDeviation="1"/>
    </filter>
    <filter id="pastel">
      <feGaussianBlur in="SourceAlpha" result="blur" stdDeviation="2"/>
      <feOffset dx="6" dy="6" in="blur" result="offsetBlur"/>
      <feComposite in="SourceGraphic" in2="offsetBlur" operator="in" result="specOut"/>
    </filter>
    <filter id="blur_shadow">
      <feGaussianBlur in="SourceAlpha" result="blur" stdDeviation="3"/>
      <feOffset dx="4" dy="2" in="blur" result="offsetBlur"/>
      <feBlend in="SourceGraphic" in2="offsetBlur" mode="normal"/>
    </filter>
    <filter filterUnits="objectBoundingBox" id="Shadow">
      <feGaussianBlur in="SourceAlpha" result="flou" stdDeviation="0"/>
      <feColorMatrix in="SourceAlpha" result="flouBlue" type="matrix" values=" 0 0 0 0 0                      0 0 0 0 0                     0 0 0 0 0                      0 0 0 0.3 0"/>
      <feOffset dx="4" dy="4" in="flouBlue" result="flouDecalage"/>
      <feBlend in="SourceGraphic" in2="flouDecalage" mode="normal"/>
    </filter>
    <filter filterUnits="objectBoundingBox" height="100%" id="SaturateMinus" width="100%" x="0%" y="0%">
      <feColorMatrix in="SourceGraphic" type="saturate" values="0.5"/>
    </filter>
    <filter filterUnits="objectBoundingBox" height="100%" id="SaturatePlus" width="100%" x="0%" y="0%">
      <feColorMatrix in="SourceGraphic" type="saturate" values="1.4"/>
    </filter>
    <linearGradient id="BlackGradient">
      <stop offset="0%" style="stop-color:rgb(0,0,0); stop-opacity:0"/>
      <stop offset="100%" style="stop-color:rgb(0,0,0); stop-opacity:0.1"/>
    </linearGradient>
    <linearGradient id="WhiteGradient" x1="0%" x2="100%" y1="0%" y2="0%">
      <stop offset="0%" style="stop-color:rgb(255,255,255); stop-opacity:0.3"/>
      <stop offset="100%" style="stop-color:rgb(255,255,255);stop-opacity:0"/>
    </linearGradient>
    <linearGradient id="WhiteBlackGradient" x1="0%" x2="100%" y1="0%" y2="0%">
      <stop offset="0%" style="stop-color:rgb(255,255,255); stop-opacity:0.15"/>
      <stop offset="100%" style="stop-color:rgb(0,0,0);stop-opacity:0.15"/>
    </linearGradient>
    <linearGradient id="Black0Black1Gradient" x1="0%" x2="0%" y1="0%" y2="100%">
      <stop offset="0%" style="stop-color:rgb(0,0,0); stop-opacity:0"/>
      <stop offset="100%" style="stop-color:rgb(0,0,0);stop-opacity:0.05"/>
    </linearGradient>
  </defs>

  <!--global stroke and font styles-->

  <g id="ID_globals" style="fill:red;stroke:none;font-family:Arial;font-size:14px;font-weight:normal;font-style:normal;text-decoration:none;shape-rendering:crispEdges">
    <!--draw title-->
    <!--********************************draw graph background********************************-->
    <rect fill="darkgreen" height="400" id="ID_background_shadow" opacity="0.5" rx="10" ry="10" stroke="none" transform="translate(1,1)" visibility="visible" width="999.96" x="53" y="20"/>
    <g fill="lightgreen" id="ID_background" opacity="0.5" stroke="none" visibility="visible">
      <rect height="400" rx="10" ry="10" stroke="none" width="999.96" x="53" y="20"/>
      <rect fill="url(#Black0Black1Gradient)" height="400" rx="10" ry="10" stroke="none" width="999.96" x="53" y="20"/>
    </g>
    <clipPath id="ID_backgroundClipPath">
      <rect height="401" rx="10" ry="10" width="1000.96" x="52" y="19"/>
    </clipPath>
    <!--********************************draw Y Labels********************************-->
    <g id="ID_y$value" style="fill:red;stroke:none;font-family:Arial;font-size:14px;font-weight:normal;font-style:normal;text-decoration:none;filter:none" visibility="visible">
      <text text-anchor="end" x="41" y="27">15</text>
      <text text-anchor="end" x="41" y="71.44">12</text>
      <text text-anchor="end" x="41" y="115.88">9</text>
      <text text-anchor="end" x="41" y="160.32">6</text>
      <text text-anchor="end" x="41" y="204.76">3</text>
      <text text-anchor="end" x="41" y="249.2">0</text>
      <text text-anchor="end" x="41" y="293.64">-3</text>
      <text text-anchor="end" x="41" y="338.08">-6</text>
      <text text-anchor="end" x="41" y="382.52">-9</text>
      <text text-anchor="end" x="41" y="426.96">-12</text>
    </g>
    <!--********************************draw X Labels********************************-->
    <!--draw axis x labels-->
    <g id="ID_x$value" style="fill:red;stroke:none;font-family:Arial;font-size:14px;font-weight:normal;font-style:normal;text-decoration:none;filter:none" visibility="visible">
      <text text-anchor="middle" x="53" y="446">06:00:00</text>
      <text text-anchor="middle" x="136.33" y="446">07:00:00</text>
      <text text-anchor="middle" x="219.66" y="446">08:00:00</text>
      <text text-anchor="middle" x="302.99" y="446">09:00:00</text>
      <text text-anchor="middle" x="386.32" y="446">10:00:00</text>
      <text text-anchor="middle" x="469.65" y="446">11:00:00</text>
      <text text-anchor="middle" x="552.98" y="446">12:00:00</text>
      <text text-anchor="middle" x="636.31" y="446">13:00:00</text>
      <text text-anchor="middle" x="719.64" y="446">14:00:00</text>
      <text text-anchor="middle" x="802.97" y="446">15:00:00</text>
      <text text-anchor="middle" x="886.3" y="446">16:00:00</text>
      <text text-anchor="middle" x="969.63" y="446">17:00:00</text>
      <text text-anchor="middle" x="1052.96" y="446">18:00:00</text>
    </g>
    <g style="clip-path: url(#ID_backgroundClipPath)">
      <!--******************************** draw Y grid lines******************************** (Horizontal lines)-->
      <g id="ID_y_grid" stroke="#a8a8a8" stroke-width="1">
        <line x1="53" x2="1052.96" y1="64.44" y2="64.44"/>
        <line x1="53" x2="1052.96" y1="108.88" y2="108.88"/>
        <line x1="53" x2="1052.96" y1="153.32" y2="153.32"/>
        <line x1="53" x2="1052.96" y1="197.76" y2="197.76"/>
        <line x1="53" x2="1052.96" y1="242.2" y2="242.2"/>
        <line x1="53" x2="1052.96" y1="286.64" y2="286.64"/>
        <line x1="53" x2="1052.96" y1="331.08" y2="331.08"/>
        <line x1="53" x2="1052.96" y1="375.52" y2="375.52"/>
      </g>
      <!--draw Y grid lines SHADOWS-->
      <g id="ID_y_grid_shadow" stroke="#ffffff" stroke-width="1">
        <line transform="translate(0,1)" x1="53" x2="1052.96" y1="64.44" y2="64.44"/>
        <line transform="translate(0,1)" x1="53" x2="1052.96" y1="108.88" y2="108.88"/>
        <line transform="translate(0,1)" x1="53" x2="1052.96" y1="153.32" y2="153.32"/>
        <line transform="translate(0,1)" x1="53" x2="1052.96" y1="197.76" y2="197.76"/>
        <line transform="translate(0,1)" x1="53" x2="1052.96" y1="242.2" y2="242.2"/>
        <line transform="translate(0,1)" x1="53" x2="1052.96" y1="286.64" y2="286.64"/>
        <line transform="translate(0,1)" x1="53" x2="1052.96" y1="331.08" y2="331.08"/>
        <line transform="translate(0,1)" x1="53" x2="1052.96" y1="375.52" y2="375.52"/>
      </g>
      <g id="ID_y0_axis" stroke="rgb(100,100,100)" stroke-width="1" visibility="visible">
        <line x1="53" x2="1052.96" y1="242.22" y2="242.22"/>
      </g>
      <!--********************************draw X grid lines******************************** (Vertical lines)-->
      <g id="ID_x_grid" stroke="#a8a8a8" stroke-width="1">
        <line x1="136.33" x2="136.33" y1="20" y2="420"/>
        <line x1="219.66" x2="219.66" y1="20" y2="420"/>
        <line x1="302.99" x2="302.99" y1="20" y2="420"/>
        <line x1="386.32" x2="386.32" y1="20" y2="420"/>
        <line x1="469.65" x2="469.65" y1="20" y2="420"/>
        <line x1="552.98" x2="552.98" y1="20" y2="420"/>
        <line x1="636.31" x2="636.31" y1="20" y2="420"/>
        <line x1="719.64" x2="719.64" y1="20" y2="420"/>
        <line x1="802.97" x2="802.97" y1="20" y2="420"/>
        <line x1="886.3" x2="886.3" y1="20" y2="420"/>
        <line x1="969.63" x2="969.63" y1="20" y2="420"/>
      </g>
      <!--draw X grid lines SHADOWS -->
      <g id="ID_x_grid_shadow" stroke="#ffffff" stroke-width="1">
        <line transform="translate(1,0)" x1="136.33" x2="136.33" y1="20" y2="420"/>
        <line transform="translate(1,0)" x1="219.66" x2="219.66" y1="20" y2="420"/>
        <line transform="translate(1,0)" x1="302.99" x2="302.99" y1="20" y2="420"/>
        <line transform="translate(1,0)" x1="386.32" x2="386.32" y1="20" y2="420"/>
        <line transform="translate(1,0)" x1="469.65" x2="469.65" y1="20" y2="420"/>
        <line transform="translate(1,0)" x1="552.98" x2="552.98" y1="20" y2="420"/>
        <line transform="translate(1,0)" x1="636.31" x2="636.31" y1="20" y2="420"/>
        <line transform="translate(1,0)" x1="719.64" x2="719.64" y1="20" y2="420"/>
        <line transform="translate(1,0)" x1="802.97" x2="802.97" y1="20" y2="420"/>
        <line transform="translate(1,0)" x1="886.3" x2="886.3" y1="20" y2="420"/>
        <line transform="translate(1,0)" x1="969.63" x2="969.63" y1="20" y2="420"/>
      </g>
    </g>
    <!--******************************** draw legend ***********************************-->
    <g filter="none" id="ID_legend" transform="translate(1064.96,20)" visibility="visible">
      <!--draw legend border-->
      <rect fill="darkgreen" fill-opacity="0.5" height="128" id="ID_legend_border_shadow" rx="10" ry="10" stroke="none" transform="translate(1,1)" width="173" x="0" y="0"/>
      <rect fill="lightgreen" fill-opacity="0.5" height="128" id="ID_legend_border" rx="10" ry="10" stroke="none" stroke-width="0" width="173" x="0" y="0"/>
      <!--draw legend bullets-->
      <g id="ID_legend_bullets" stroke="none">
        <g fill="purple" id="ID_legend_1">
          <rect height="12" rx="3" ry="3" width="24" x="10" y="8"/>
          <rect fill="url(#WhiteBlackGradient)" height="12" rx="3" ry="3" width="24" x="10" y="8"/>
          <rect fill-opacity="0.3" filter="url(#SaturateMinus)" height="12" rx="3" ry="3" width="24" x="10" y="8"/>
        </g>
        <g fill="darkblue" id="ID_legend_2">
          <rect height="12" rx="3" ry="3" width="24" x="10" y="28"/>
          <rect fill="url(#WhiteBlackGradient)" height="12" rx="3" ry="3" width="24" x="10" y="28"/>
          <rect fill-opacity="0.3" filter="url(#SaturateMinus)" height="12" rx="3" ry="3" width="24" x="10" y="28"/>
        </g>
        <g fill="blue" id="ID_legend_3">
          <rect height="12" rx="3" ry="3" width="24" x="10" y="48"/>
          <rect fill="url(#WhiteBlackGradient)" height="12" rx="3" ry="3" width="24" x="10" y="48"/>
          <rect fill-opacity="0.3" filter="url(#SaturateMinus)" height="12" rx="3" ry="3" width="24" x="10" y="48"/>
        </g>
        <g fill="green" id="ID_legend_4">
          <rect height="12" rx="3" ry="3" width="24" x="10" y="68"/>
          <rect fill="url(#WhiteBlackGradient)" height="12" rx="3" ry="3" width="24" x="10" y="68"/>
          <rect fill-opacity="0.3" filter="url(#SaturateMinus)" height="12" rx="3" ry="3" width="24" x="10" y="68"/>
        </g>
        <g fill="yellow" id="ID_legend_5">
          <rect height="12" rx="3" ry="3" width="24" x="10" y="88"/>
          <rect fill="url(#WhiteBlackGradient)" height="12" rx="3" ry="3" width="24" x="10" y="88"/>
          <rect fill-opacity="0.3" filter="url(#SaturateMinus)" height="12" rx="3" ry="3" width="24" x="10" y="88"/>
        </g>
        <g fill="orange" id="ID_legend_6">
          <rect height="12" rx="3" ry="3" width="24" x="10" y="108"/>
          <rect fill="url(#WhiteBlackGradient)" height="12" rx="3" ry="3" width="24" x="10" y="108"/>
          <rect fill-opacity="0.3" filter="url(#SaturateMinus)" height="12" rx="3" ry="3" width="24" x="10" y="108"/>
        </g>
      </g>
      <!--draw legend labels-->
      <g id="ID_legend_labels" style="fill:black;stroke:none;font-family:Arial;;font-weight:normal;font-style:normal;text-decoration:none;filter:none;text-anchor:start">
        <text x="44" y="17">Sharp</text>
        <text x="44" y="37">Infinity</text>
        <text x="44" y="57">Audio Référence</text>
        <text x="44" y="77">Triangle</text>
        <text x="44" y="97">Yamaha</text>
        <text x="44" y="117">Onkyo</text>
      </g>
    </g>
    <g style="clip-path: url(#ID_backgroundClipPath)">
      <g filter="none" stroke-opacity="1" stroke-width="2">
        <g id="ID_graph_1" stroke="purple">
          <line fill-opacity="1" x1="219.66" x2="302.99" y1="257.03" y2="212.59"/>
          <line fill-opacity="1" x1="302.99" x2="386.32" y1="212.59" y2="286.66"/>
          <line fill-opacity="1" x1="386.32" x2="469.65" y1="286.66" y2="182.96"/>
          <line fill-opacity="1" x1="469.65" x2="490.48" y1="182.96" y2="316.29"/>
          <line fill-opacity="1" x1="490.48" x2="782.14" y1="316.29" y2="153.33"/>
          <line fill-opacity="1" x1="782.14" x2="802.97" y1="153.33" y2="345.92"/>
          <line fill-opacity="1" x1="802.97" x2="886.3" y1="345.92" y2="123.7"/>
        </g>
        <g id="ID_graph_2" stroke="darkblue">
          <line fill-opacity="1" x1="219.66" x2="302.99" y1="258.52" y2="209.63"/>
          <line fill-opacity="1" x1="302.99" x2="386.32" y1="209.63" y2="291.11"/>
          <line fill-opacity="1" x1="386.32" x2="469.65" y1="291.11" y2="177.03"/>
          <line fill-opacity="1" x1="469.65" x2="490.48" y1="177.03" y2="323.7"/>
          <line fill-opacity="1" x1="490.48" x2="782.14" y1="323.7" y2="144.44"/>
          <line fill-opacity="1" x1="782.14" x2="802.97" y1="144.44" y2="356.29"/>
          <line fill-opacity="1" x1="802.97" x2="886.3" y1="356.29" y2="111.85"/>
        </g>
        <g id="ID_graph_3" stroke="blue">
          <line fill-opacity="1" x1="219.66" x2="302.99" y1="260.15" y2="206.37"/>
          <line fill-opacity="1" x1="302.99" x2="386.32" y1="206.37" y2="296"/>
          <line fill-opacity="1" x1="386.32" x2="469.65" y1="296" y2="170.52"/>
          <line fill-opacity="1" x1="469.65" x2="490.48" y1="170.52" y2="331.85"/>
          <line fill-opacity="1" x1="490.48" x2="782.14" y1="331.85" y2="134.66"/>
          <line fill-opacity="1" x1="782.14" x2="802.97" y1="134.66" y2="367.7"/>
          <line fill-opacity="1" x1="802.97" x2="886.3" y1="367.7" y2="98.81"/>
        </g>
        <g id="ID_graph_4" stroke="green">
          <line fill-opacity="1" x1="219.66" x2="302.99" y1="261.94" y2="202.78"/>
          <line fill-opacity="1" x1="302.99" x2="386.32" y1="202.78" y2="301.38"/>
          <line fill-opacity="1" x1="386.32" x2="469.65" y1="301.38" y2="163.35"/>
          <line fill-opacity="1" x1="469.65" x2="490.48" y1="163.35" y2="340.81"/>
          <line fill-opacity="1" x1="490.48" x2="782.14" y1="340.81" y2="123.91"/>
          <line fill-opacity="1" x1="782.14" x2="802.97" y1="123.91" y2="380.25"/>
          <line fill-opacity="1" x1="802.97" x2="886.3" y1="380.25" y2="84.47"/>
        </g>
        <g id="ID_graph_5" stroke="yellow">
          <line fill-opacity="1" x1="219.66" x2="302.99" y1="263.91" y2="198.84"/>
          <line fill-opacity="1" x1="302.99" x2="386.32" y1="198.84" y2="307.29"/>
          <line fill-opacity="1" x1="386.32" x2="469.65" y1="307.29" y2="155.46"/>
          <line fill-opacity="1" x1="469.65" x2="490.48" y1="155.46" y2="350.67"/>
          <line fill-opacity="1" x1="490.48" x2="782.14" y1="350.67" y2="112.08"/>
          <line fill-opacity="1" x1="782.14" x2="802.97" y1="112.08" y2="394.05"/>
          <line fill-opacity="1" x1="802.97" x2="886.3" y1="394.05" y2="68.7"/>
        </g>
        <g id="ID_graph_6" stroke="orange">
          <line fill-opacity="1" x1="219.66" x2="302.99" y1="266.08" y2="194.5"/>
          <line fill-opacity="1" x1="302.99" x2="386.32" y1="194.5" y2="313.8"/>
          <line fill-opacity="1" x1="386.32" x2="469.65" y1="313.8" y2="146.78"/>
          <line fill-opacity="1" x1="469.65" x2="490.48" y1="146.78" y2="361.52"/>
          <line fill-opacity="1" x1="490.48" x2="782.14" y1="361.52" y2="99.06"/>
          <line fill-opacity="1" x1="782.14" x2="802.97" y1="99.06" y2="409.24"/>
          <line fill-opacity="1" x1="802.97" x2="886.3" y1="409.24" y2="51.34"/>
        </g>
      </g>
      <g filter="none" opacity="1" stroke="none" stroke-opacity="1" stroke-width="0">
        <g fill="purple" id="ID_graph_1">
          <g transform="translate(209.66,254.03)">
            <rect fill-opacity="1" height="6" rx="2" ry="2" width="20" x="0" y="0"/>
            <rect fill="url(#WhiteGradient)" height="6" rx="2" ry="2" width="20" x="0" y="0"/>
            <rect fill-opacity="0.4" filter="url(#SaturateMinus)" height="6" rx="2" ry="2" width="20" x="0" y="0"/>
            <rect fill="url(#BlackGradient)" height="6" rx="2" ry="2" width="20" x="0" y="0"/>
          </g>
          <g transform="translate(292.99,209.59)">
            <rect fill-opacity="1" height="6" rx="2" ry="2" width="20" x="0" y="0"/>
            <rect fill="url(#WhiteGradient)" height="6" rx="2" ry="2" width="20" x="0" y="0"/>
            <rect fill-opacity="0.4" filter="url(#SaturateMinus)" height="6" rx="2" ry="2" width="20" x="0" y="0"/>
            <rect fill="url(#BlackGradient)" height="6" rx="2" ry="2" width="20" x="0" y="0"/>
          </g>
          <g transform="translate(376.32,283.66)">
            <rect fill-opacity="1" height="6" rx="2" ry="2" width="20" x="0" y="0"/>
            <rect fill="url(#WhiteGradient)" height="6" rx="2" ry="2" width="20" x="0" y="0"/>
            <rect fill-opacity="0.4" filter="url(#SaturateMinus)" height="6" rx="2" ry="2" width="20" x="0" y="0"/>
            <rect fill="url(#BlackGradient)" height="6" rx="2" ry="2" width="20" x="0" y="0"/>
          </g>
          <g transform="translate(459.65,179.96)">
            <rect fill-opacity="1" height="6" rx="2" ry="2" width="20" x="0" y="0"/>
            <rect fill="url(#WhiteGradient)" height="6" rx="2" ry="2" width="20" x="0" y="0"/>
            <rect fill-opacity="0.4" filter="url(#SaturateMinus)" height="6" rx="2" ry="2" width="20" x="0" y="0"/>
            <rect fill="url(#BlackGradient)" height="6" rx="2" ry="2" width="20" x="0" y="0"/>
          </g>
          <g transform="translate(480.48,313.29)">
            <rect fill-opacity="1" height="6" rx="2" ry="2" width="20" x="0" y="0"/>
            <rect fill="url(#WhiteGradient)" height="6" rx="2" ry="2" width="20" x="0" y="0"/>
            <rect fill-opacity="0.4" filter="url(#SaturateMinus)" height="6" rx="2" ry="2" width="20" x="0" y="0"/>
            <rect fill="url(#BlackGradient)" height="6" rx="2" ry="2" width="20" x="0" y="0"/>
          </g>
          <g transform="translate(772.14,150.33)">
            <rect fill-opacity="1" height="6" rx="2" ry="2" width="20" x="0" y="0"/>
            <rect fill="url(#WhiteGradient)" height="6" rx="2" ry="2" width="20" x="0" y="0"/>
            <rect fill-opacity="0.4" filter="url(#SaturateMinus)" height="6" rx="2" ry="2" width="20" x="0" y="0"/>
            <rect fill="url(#BlackGradient)" height="6" rx="2" ry="2" width="20" x="0" y="0"/>
          </g>
          <g transform="translate(792.97,342.92)">
            <rect fill-opacity="1" height="6" rx="2" ry="2" width="20" x="0" y="0"/>
            <rect fill="url(#WhiteGradient)" height="6" rx="2" ry="2" width="20" x="0" y="0"/>
            <rect fill-opacity="0.4" filter="url(#SaturateMinus)" height="6" rx="2" ry="2" width="20" x="0" y="0"/>
            <rect fill="url(#BlackGradient)" height="6" rx="2" ry="2" width="20" x="0" y="0"/>
          </g>
          <g transform="translate(876.3,120.7)">
            <rect fill-opacity="1" height="6" rx="2" ry="2" width="20" x="0" y="0"/>
            <rect fill="url(#WhiteGradient)" height="6" rx="2" ry="2" width="20" x="0" y="0"/>
            <rect fill-opacity="0.4" filter="url(#SaturateMinus)" height="6" rx="2" ry="2" width="20" x="0" y="0"/>
            <rect fill="url(#BlackGradient)" height="6" rx="2" ry="2" width="20" x="0" y="0"/>
          </g>
        </g>
        <g fill="darkblue" id="ID_graph_2">
          <g transform="translate(209.66,255.52)">
            <rect fill-opacity="1" height="6" rx="2" ry="2" width="20" x="0" y="0"/>
            <rect fill="url(#WhiteGradient)" height="6" rx="2" ry="2" width="20" x="0" y="0"/>
            <rect fill-opacity="0.4" filter="url(#SaturateMinus)" height="6" rx="2" ry="2" width="20" x="0" y="0"/>
            <rect fill="url(#BlackGradient)" height="6" rx="2" ry="2" width="20" x="0" y="0"/>
          </g>
          <g transform="translate(292.99,206.63)">
            <rect fill-opacity="1" height="6" rx="2" ry="2" width="20" x="0" y="0"/>
            <rect fill="url(#WhiteGradient)" height="6" rx="2" ry="2" width="20" x="0" y="0"/>
            <rect fill-opacity="0.4" filter="url(#SaturateMinus)" height="6" rx="2" ry="2" width="20" x="0" y="0"/>
            <rect fill="url(#BlackGradient)" height="6" rx="2" ry="2" width="20" x="0" y="0"/>
          </g>
          <g transform="translate(376.32,288.11)">
            <rect fill-opacity="1" height="6" rx="2" ry="2" width="20" x="0" y="0"/>
            <rect fill="url(#WhiteGradient)" height="6" rx="2" ry="2" width="20" x="0" y="0"/>
            <rect fill-opacity="0.4" filter="url(#SaturateMinus)" height="6" rx="2" ry="2" width="20" x="0" y="0"/>
            <rect fill="url(#BlackGradient)" height="6" rx="2" ry="2" width="20" x="0" y="0"/>
          </g>
          <g transform="translate(459.65,174.03)">
            <rect fill-opacity="1" height="6" rx="2" ry="2" width="20" x="0" y="0"/>
            <rect fill="url(#WhiteGradient)" height="6" rx="2" ry="2" width="20" x="0" y="0"/>
            <rect fill-opacity="0.4" filter="url(#SaturateMinus)" height="6" rx="2" ry="2" width="20" x="0" y="0"/>
            <rect fill="url(#BlackGradient)" height="6" rx="2" ry="2" width="20" x="0" y="0"/>
          </g>
          <g transform="translate(480.48,320.7)">
            <rect fill-opacity="1" height="6" rx="2" ry="2" width="20" x="0" y="0"/>
            <rect fill="url(#WhiteGradient)" height="6" rx="2" ry="2" width="20" x="0" y="0"/>
            <rect fill-opacity="0.4" filter="url(#SaturateMinus)" height="6" rx="2" ry="2" width="20" x="0" y="0"/>
            <rect fill="url(#BlackGradient)" height="6" rx="2" ry="2" width="20" x="0" y="0"/>
          </g>
          <g transform="translate(772.14,141.44)">
            <rect fill-opacity="1" height="6" rx="2" ry="2" width="20" x="0" y="0"/>
            <rect fill="url(#WhiteGradient)" height="6" rx="2" ry="2" width="20" x="0" y="0"/>
            <rect fill-opacity="0.4" filter="url(#SaturateMinus)" height="6" rx="2" ry="2" width="20" x="0" y="0"/>
            <rect fill="url(#BlackGradient)" height="6" rx="2" ry="2" width="20" x="0" y="0"/>
          </g>
          <g transform="translate(792.97,353.29)">
            <rect fill-opacity="1" height="6" rx="2" ry="2" width="20" x="0" y="0"/>
            <rect fill="url(#WhiteGradient)" height="6" rx="2" ry="2" width="20" x="0" y="0"/>
            <rect fill-opacity="0.4" filter="url(#SaturateMinus)" height="6" rx="2" ry="2" width="20" x="0" y="0"/>
            <rect fill="url(#BlackGradient)" height="6" rx="2" ry="2" width="20" x="0" y="0"/>
          </g>
          <g transform="translate(876.3,108.85)">
            <rect fill-opacity="1" height="6" rx="2" ry="2" width="20" x="0" y="0"/>
            <rect fill="url(#WhiteGradient)" height="6" rx="2" ry="2" width="20" x="0" y="0"/>
            <rect fill-opacity="0.4" filter="url(#SaturateMinus)" height="6" rx="2" ry="2" width="20" x="0" y="0"/>
            <rect fill="url(#BlackGradient)" height="6" rx="2" ry="2" width="20" x="0" y="0"/>
          </g>
        </g>
        <g fill="blue" id="ID_graph_3">
          <g transform="translate(209.66,257.15)">
            <rect fill-opacity="1" height="6" rx="2" ry="2" width="20" x="0" y="0"/>
            <rect fill="url(#WhiteGradient)" height="6" rx="2" ry="2" width="20" x="0" y="0"/>
            <rect fill-opacity="0.4" filter="url(#SaturateMinus)" height="6" rx="2" ry="2" width="20" x="0" y="0"/>
            <rect fill="url(#BlackGradient)" height="6" rx="2" ry="2" width="20" x="0" y="0"/>
          </g>
          <g transform="translate(292.99,203.37)">
            <rect fill-opacity="1" height="6" rx="2" ry="2" width="20" x="0" y="0"/>
            <rect fill="url(#WhiteGradient)" height="6" rx="2" ry="2" width="20" x="0" y="0"/>
            <rect fill-opacity="0.4" filter="url(#SaturateMinus)" height="6" rx="2" ry="2" width="20" x="0" y="0"/>
            <rect fill="url(#BlackGradient)" height="6" rx="2" ry="2" width="20" x="0" y="0"/>
          </g>
          <g transform="translate(376.32,293)">
            <rect fill-opacity="1" height="6" rx="2" ry="2" width="20" x="0" y="0"/>
            <rect fill="url(#WhiteGradient)" height="6" rx="2" ry="2" width="20" x="0" y="0"/>
            <rect fill-opacity="0.4" filter="url(#SaturateMinus)" height="6" rx="2" ry="2" width="20" x="0" y="0"/>
            <rect fill="url(#BlackGradient)" height="6" rx="2" ry="2" width="20" x="0" y="0"/>
          </g>
          <g transform="translate(459.65,167.52)">
            <rect fill-opacity="1" height="6" rx="2" ry="2" width="20" x="0" y="0"/>
            <rect fill="url(#WhiteGradient)" height="6" rx="2" ry="2" width="20" x="0" y="0"/>
            <rect fill-opacity="0.4" filter="url(#SaturateMinus)" height="6" rx="2" ry="2" width="20" x="0" y="0"/>
            <rect fill="url(#BlackGradient)" height="6" rx="2" ry="2" width="20" x="0" y="0"/>
          </g>
          <g transform="translate(480.48,328.85)">
            <rect fill-opacity="1" height="6" rx="2" ry="2" width="20" x="0" y="0"/>
            <rect fill="url(#WhiteGradient)" height="6" rx="2" ry="2" width="20" x="0" y="0"/>
            <rect fill-opacity="0.4" filter="url(#SaturateMinus)" height="6" rx="2" ry="2" width="20" x="0" y="0"/>
            <rect fill="url(#BlackGradient)" height="6" rx="2" ry="2" width="20" x="0" y="0"/>
          </g>
          <g transform="translate(772.14,131.66)">
            <rect fill-opacity="1" height="6" rx="2" ry="2" width="20" x="0" y="0"/>
            <rect fill="url(#WhiteGradient)" height="6" rx="2" ry="2" width="20" x="0" y="0"/>
            <rect fill-opacity="0.4" filter="url(#SaturateMinus)" height="6" rx="2" ry="2" width="20" x="0" y="0"/>
            <rect fill="url(#BlackGradient)" height="6" rx="2" ry="2" width="20" x="0" y="0"/>
          </g>
          <g transform="translate(792.97,364.7)">
            <rect fill-opacity="1" height="6" rx="2" ry="2" width="20" x="0" y="0"/>
            <rect fill="url(#WhiteGradient)" height="6" rx="2" ry="2" width="20" x="0" y="0"/>
            <rect fill-opacity="0.4" filter="url(#SaturateMinus)" height="6" rx="2" ry="2" width="20" x="0" y="0"/>
            <rect fill="url(#BlackGradient)" height="6" rx="2" ry="2" width="20" x="0" y="0"/>
          </g>
          <g transform="translate(876.3,95.81)">
            <rect fill-opacity="1" height="6" rx="2" ry="2" width="20" x="0" y="0"/>
            <rect fill="url(#WhiteGradient)" height="6" rx="2" ry="2" width="20" x="0" y="0"/>
            <rect fill-opacity="0.4" filter="url(#SaturateMinus)" height="6" rx="2" ry="2" width="20" x="0" y="0"/>
            <rect fill="url(#BlackGradient)" height="6" rx="2" ry="2" width="20" x="0" y="0"/>
          </g>
        </g>
        <g fill="green" id="ID_graph_4">
          <g transform="translate(209.66,258.94)">
            <rect fill-opacity="1" height="6" rx="2" ry="2" width="20" x="0" y="0"/>
            <rect fill="url(#WhiteGradient)" height="6" rx="2" ry="2" width="20" x="0" y="0"/>
            <rect fill-opacity="0.4" filter="url(#SaturateMinus)" height="6" rx="2" ry="2" width="20" x="0" y="0"/>
            <rect fill="url(#BlackGradient)" height="6" rx="2" ry="2" width="20" x="0" y="0"/>
          </g>
          <g transform="translate(292.99,199.78)">
            <rect fill-opacity="1" height="6" rx="2" ry="2" width="20" x="0" y="0"/>
            <rect fill="url(#WhiteGradient)" height="6" rx="2" ry="2" width="20" x="0" y="0"/>
            <rect fill-opacity="0.4" filter="url(#SaturateMinus)" height="6" rx="2" ry="2" width="20" x="0" y="0"/>
            <rect fill="url(#BlackGradient)" height="6" rx="2" ry="2" width="20" x="0" y="0"/>
          </g>
          <g transform="translate(376.32,298.38)">
            <rect fill-opacity="1" height="6" rx="2" ry="2" width="20" x="0" y="0"/>
            <rect fill="url(#WhiteGradient)" height="6" rx="2" ry="2" width="20" x="0" y="0"/>
            <rect fill-opacity="0.4" filter="url(#SaturateMinus)" height="6" rx="2" ry="2" width="20" x="0" y="0"/>
            <rect fill="url(#BlackGradient)" height="6" rx="2" ry="2" width="20" x="0" y="0"/>
          </g>
          <g transform="translate(459.65,160.35)">
            <rect fill-opacity="1" height="6" rx="2" ry="2" width="20" x="0" y="0"/>
            <rect fill="url(#WhiteGradient)" height="6" rx="2" ry="2" width="20" x="0" y="0"/>
            <rect fill-opacity="0.4" filter="url(#SaturateMinus)" height="6" rx="2" ry="2" width="20" x="0" y="0"/>
            <rect fill="url(#BlackGradient)" height="6" rx="2" ry="2" width="20" x="0" y="0"/>
          </g>
          <g transform="translate(480.48,337.81)">
            <rect fill-opacity="1" height="6" rx="2" ry="2" width="20" x="0" y="0"/>
            <rect fill="url(#WhiteGradient)" height="6" rx="2" ry="2" width="20" x="0" y="0"/>
            <rect fill-opacity="0.4" filter="url(#SaturateMinus)" height="6" rx="2" ry="2" width="20" x="0" y="0"/>
            <rect fill="url(#BlackGradient)" height="6" rx="2" ry="2" width="20" x="0" y="0"/>
          </g>
          <g transform="translate(772.14,120.91)">
            <rect fill-opacity="1" height="6" rx="2" ry="2" width="20" x="0" y="0"/>
            <rect fill="url(#WhiteGradient)" height="6" rx="2" ry="2" width="20" x="0" y="0"/>
            <rect fill-opacity="0.4" filter="url(#SaturateMinus)" height="6" rx="2" ry="2" width="20" x="0" y="0"/>
            <rect fill="url(#BlackGradient)" height="6" rx="2" ry="2" width="20" x="0" y="0"/>
          </g>
          <g transform="translate(792.97,377.25)">
            <rect fill-opacity="1" height="6" rx="2" ry="2" width="20" x="0" y="0"/>
            <rect fill="url(#WhiteGradient)" height="6" rx="2" ry="2" width="20" x="0" y="0"/>
            <rect fill-opacity="0.4" filter="url(#SaturateMinus)" height="6" rx="2" ry="2" width="20" x="0" y="0"/>
            <rect fill="url(#BlackGradient)" height="6" rx="2" ry="2" width="20" x="0" y="0"/>
          </g>
          <g transform="translate(876.3,81.47)">
            <rect fill-opacity="1" height="6" rx="2" ry="2" width="20" x="0" y="0"/>
            <rect fill="url(#WhiteGradient)" height="6" rx="2" ry="2" width="20" x="0" y="0"/>
            <rect fill-opacity="0.4" filter="url(#SaturateMinus)" height="6" rx="2" ry="2" width="20" x="0" y="0"/>
            <rect fill="url(#BlackGradient)" height="6" rx="2" ry="2" width="20" x="0" y="0"/>
          </g>
        </g>
        <g fill="yellow" id="ID_graph_5">
          <g transform="translate(209.66,260.91)">
            <rect fill-opacity="1" height="6" rx="2" ry="2" width="20" x="0" y="0"/>
            <rect fill="url(#WhiteGradient)" height="6" rx="2" ry="2" width="20" x="0" y="0"/>
            <rect fill-opacity="0.4" filter="url(#SaturateMinus)" height="6" rx="2" ry="2" width="20" x="0" y="0"/>
            <rect fill="url(#BlackGradient)" height="6" rx="2" ry="2" width="20" x="0" y="0"/>
          </g>
          <g transform="translate(292.99,195.84)">
            <rect fill-opacity="1" height="6" rx="2" ry="2" width="20" x="0" y="0"/>
            <rect fill="url(#WhiteGradient)" height="6" rx="2" ry="2" width="20" x="0" y="0"/>
            <rect fill-opacity="0.4" filter="url(#SaturateMinus)" height="6" rx="2" ry="2" width="20" x="0" y="0"/>
            <rect fill="url(#BlackGradient)" height="6" rx="2" ry="2" width="20" x="0" y="0"/>
          </g>
          <g transform="translate(376.32,304.29)">
            <rect fill-opacity="1" height="6" rx="2" ry="2" width="20" x="0" y="0"/>
            <rect fill="url(#WhiteGradient)" height="6" rx="2" ry="2" width="20" x="0" y="0"/>
            <rect fill-opacity="0.4" filter="url(#SaturateMinus)" height="6" rx="2" ry="2" width="20" x="0" y="0"/>
            <rect fill="url(#BlackGradient)" height="6" rx="2" ry="2" width="20" x="0" y="0"/>
          </g>
          <g transform="translate(459.65,152.46)">
            <rect fill-opacity="1" height="6" rx="2" ry="2" width="20" x="0" y="0"/>
            <rect fill="url(#WhiteGradient)" height="6" rx="2" ry="2" width="20" x="0" y="0"/>
            <rect fill-opacity="0.4" filter="url(#SaturateMinus)" height="6" rx="2" ry="2" width="20" x="0" y="0"/>
            <rect fill="url(#BlackGradient)" height="6" rx="2" ry="2" width="20" x="0" y="0"/>
          </g>
          <g transform="translate(480.48,347.67)">
            <rect fill-opacity="1" height="6" rx="2" ry="2" width="20" x="0" y="0"/>
            <rect fill="url(#WhiteGradient)" height="6" rx="2" ry="2" width="20" x="0" y="0"/>
            <rect fill-opacity="0.4" filter="url(#SaturateMinus)" height="6" rx="2" ry="2" width="20" x="0" y="0"/>
            <rect fill="url(#BlackGradient)" height="6" rx="2" ry="2" width="20" x="0" y="0"/>
          </g>
          <g transform="translate(772.14,109.08)">
            <rect fill-opacity="1" height="6" rx="2" ry="2" width="20" x="0" y="0"/>
            <rect fill="url(#WhiteGradient)" height="6" rx="2" ry="2" width="20" x="0" y="0"/>
            <rect fill-opacity="0.4" filter="url(#SaturateMinus)" height="6" rx="2" ry="2" width="20" x="0" y="0"/>
            <rect fill="url(#BlackGradient)" height="6" rx="2" ry="2" width="20" x="0" y="0"/>
          </g>
          <g transform="translate(792.97,391.05)">
            <rect fill-opacity="1" height="6" rx="2" ry="2" width="20" x="0" y="0"/>
            <rect fill="url(#WhiteGradient)" height="6" rx="2" ry="2" width="20" x="0" y="0"/>
            <rect fill-opacity="0.4" filter="url(#SaturateMinus)" height="6" rx="2" ry="2" width="20" x="0" y="0"/>
            <rect fill="url(#BlackGradient)" height="6" rx="2" ry="2" width="20" x="0" y="0"/>
          </g>
          <g transform="translate(876.3,65.7)">
            <rect fill-opacity="1" height="6" rx="2" ry="2" width="20" x="0" y="0"/>
            <rect fill="url(#WhiteGradient)" height="6" rx="2" ry="2" width="20" x="0" y="0"/>
            <rect fill-opacity="0.4" filter="url(#SaturateMinus)" height="6" rx="2" ry="2" width="20" x="0" y="0"/>
            <rect fill="url(#BlackGradient)" height="6" rx="2" ry="2" width="20" x="0" y="0"/>
          </g>
        </g>
        <g fill="orange" id="ID_graph_6">
          <g transform="translate(209.66,263.08)">
            <rect fill-opacity="1" height="6" rx="2" ry="2" width="20" x="0" y="0"/>
            <rect fill="url(#WhiteGradient)" height="6" rx="2" ry="2" width="20" x="0" y="0"/>
            <rect fill-opacity="0.4" filter="url(#SaturateMinus)" height="6" rx="2" ry="2" width="20" x="0" y="0"/>
            <rect fill="url(#BlackGradient)" height="6" rx="2" ry="2" width="20" x="0" y="0"/>
          </g>
          <g transform="translate(292.99,191.5)">
            <rect fill-opacity="1" height="6" rx="2" ry="2" width="20" x="0" y="0"/>
            <rect fill="url(#WhiteGradient)" height="6" rx="2" ry="2" width="20" x="0" y="0"/>
            <rect fill-opacity="0.4" filter="url(#SaturateMinus)" height="6" rx="2" ry="2" width="20" x="0" y="0"/>
            <rect fill="url(#BlackGradient)" height="6" rx="2" ry="2" width="20" x="0" y="0"/>
          </g>
          <g transform="translate(376.32,310.8)">
            <rect fill-opacity="1" height="6" rx="2" ry="2" width="20" x="0" y="0"/>
            <rect fill="url(#WhiteGradient)" height="6" rx="2" ry="2" width="20" x="0" y="0"/>
            <rect fill-opacity="0.4" filter="url(#SaturateMinus)" height="6" rx="2" ry="2" width="20" x="0" y="0"/>
            <rect fill="url(#BlackGradient)" height="6" rx="2" ry="2" width="20" x="0" y="0"/>
          </g>
          <g transform="translate(459.65,143.78)">
            <rect fill-opacity="1" height="6" rx="2" ry="2" width="20" x="0" y="0"/>
            <rect fill="url(#WhiteGradient)" height="6" rx="2" ry="2" width="20" x="0" y="0"/>
            <rect fill-opacity="0.4" filter="url(#SaturateMinus)" height="6" rx="2" ry="2" width="20" x="0" y="0"/>
            <rect fill="url(#BlackGradient)" height="6" rx="2" ry="2" width="20" x="0" y="0"/>
          </g>
          <g transform="translate(480.48,358.52)">
            <rect fill-opacity="1" height="6" rx="2" ry="2" width="20" x="0" y="0"/>
            <rect fill="url(#WhiteGradient)" height="6" rx="2" ry="2" width="20" x="0" y="0"/>
            <rect fill-opacity="0.4" filter="url(#SaturateMinus)" height="6" rx="2" ry="2" width="20" x="0" y="0"/>
            <rect fill="url(#BlackGradient)" height="6" rx="2" ry="2" width="20" x="0" y="0"/>
          </g>
          <g transform="translate(772.14,96.06)">
            <rect fill-opacity="1" height="6" rx="2" ry="2" width="20" x="0" y="0"/>
            <rect fill="url(#WhiteGradient)" height="6" rx="2" ry="2" width="20" x="0" y="0"/>
            <rect fill-opacity="0.4" filter="url(#SaturateMinus)" height="6" rx="2" ry="2" width="20" x="0" y="0"/>
            <rect fill="url(#BlackGradient)" height="6" rx="2" ry="2" width="20" x="0" y="0"/>
          </g>
          <g transform="translate(792.97,406.24)">
            <rect fill-opacity="1" height="6" rx="2" ry="2" width="20" x="0" y="0"/>
            <rect fill="url(#WhiteGradient)" height="6" rx="2" ry="2" width="20" x="0" y="0"/>
            <rect fill-opacity="0.4" filter="url(#SaturateMinus)" height="6" rx="2" ry="2" width="20" x="0" y="0"/>
            <rect fill="url(#BlackGradient)" height="6" rx="2" ry="2" width="20" x="0" y="0"/>
          </g>
          <g transform="translate(876.3,48.34)">
            <rect fill-opacity="1" height="6" rx="2" ry="2" width="20" x="0" y="0"/>
            <rect fill="url(#WhiteGradient)" height="6" rx="2" ry="2" width="20" x="0" y="0"/>
            <rect fill-opacity="0.4" filter="url(#SaturateMinus)" height="6" rx="2" ry="2" width="20" x="0" y="0"/>
            <rect fill="url(#BlackGradient)" height="6" rx="2" ry="2" width="20" x="0" y="0"/>
          </g>
        </g>
      </g>
    </g>
  </g>

</svg>