
<svg xmlns="http://www.w3.org/2000/svg" id="ID_svg" viewBox="0 0 1018.04 448" viewport-fill="none" viewport-fill-opacity="1" xmlns:exsl4D="http://www.4D.com" xmlns:gFunc="http://gFunc" xmlns:math="http://exslt.org/math" xmlns:xlink="http://www.w3.org/1999/xlink">

  <!--gradient styles-->

  <defs>
    <filter id="soft_blur">
      <feGaussianBlur in="SourceGraphic" result="BlurAlpha" stdDeviation="1"/>
    </filter>
    <filter id="pastel">
      <feGaussianBlur in="SourceAlpha" result="blur" stdDeviation="2"/>
      <feOffset dx="6" dy="6" in="blur" result="offsetBlur"/>
      <feComposite in="SourceGraphic" in2="offsetBlur" operator="in" result="specOut"/>
    </filter>
    <filter id="blur_shadow">
      <feGaussianBlur in="SourceAlpha" result="blur" stdDeviation="3"/>
      <feOffset dx="4" dy="2" in="blur" result="offsetBlur"/>
      <feBlend in="SourceGraphic" in2="offsetBlur" mode="normal"/>
    </filter>
    <filter filterUnits="objectBoundingBox" id="Shadow">
      <feGaussianBlur in="SourceAlpha" result="flou" stdDeviation="0"/>
      <feColorMatrix in="SourceAlpha" result="flouBlue" type="matrix" values=" 0 0 0 0 0                      0 0 0 0 0                     0 0 0 0 0                      0 0 0 0.3 0"/>
      <feOffset dx="4" dy="4" in="flouBlue" result="flouDecalage"/>
      <feBlend in="SourceGraphic" in2="flouDecalage" mode="normal"/>
    </filter>
    <filter filterUnits="objectBoundingBox" height="100%" id="SaturateMinus" width="100%" x="0%" y="0%">
      <feColorMatrix in="SourceGraphic" type="saturate" values="0.5"/>
    </filter>
    <filter filterUnits="objectBoundingBox" height="100%" id="SaturatePlus" width="100%" x="0%" y="0%">
      <feColorMatrix in="SourceGraphic" type="saturate" values="1.4"/>
    </filter>
    <linearGradient id="BlackGradient">
      <stop offset="0%" style="stop-color:rgb(0,0,0); stop-opacity:0"/>
      <stop offset="100%" style="stop-color:rgb(0,0,0); stop-opacity:0.1"/>
    </linearGradient>
    <linearGradient id="WhiteGradient" x1="0%" x2="100%" y1="0%" y2="0%">
      <stop offset="0%" style="stop-color:rgb(255,255,255); stop-opacity:0.3"/>
      <stop offset="100%" style="stop-color:rgb(255,255,255);stop-opacity:0"/>
    </linearGradient>
    <linearGradient id="WhiteBlackGradient" x1="0%" x2="100%" y1="0%" y2="0%">
      <stop offset="0%" style="stop-color:rgb(255,255,255); stop-opacity:0.15"/>
      <stop offset="100%" style="stop-color:rgb(0,0,0);stop-opacity:0.15"/>
    </linearGradient>
    <linearGradient id="Black0Black1Gradient" x1="0%" x2="0%" y1="0%" y2="100%">
      <stop offset="0%" style="stop-color:rgb(0,0,0); stop-opacity:0"/>
      <stop offset="100%" style="stop-color:rgb(0,0,0);stop-opacity:0.05"/>
    </linearGradient>
  </defs>

  <!--global stroke and font styles-->

  <g id="ID_globals" style="fill:black;stroke:none;font-family:Arial;font-size:12px;font-weight:normal;font-style:normal;text-decoration:none;shape-rendering:crispEdges">
    <!--draw title-->
    <!--********************************draw graph background********************************-->
    <rect fill="rgb(168,168,168)" height="400" id="ID_background_shadow" opacity="1" rx="10" ry="10" stroke="none" transform="translate(1,1)" visibility="visible" width="800.04" x="42" y="12"/>
    <g fill="rgb(229,229,229)" id="ID_background" opacity="1" stroke="none" visibility="visible">
      <rect height="400" rx="10" ry="10" stroke="none" width="800.04" x="42" y="12"/>
      <rect fill="url(#Black0Black1Gradient)" height="400" rx="10" ry="10" stroke="none" width="800.04" x="42" y="12"/>
    </g>
    <clipPath id="ID_backgroundClipPath">
      <rect height="401" rx="10" ry="10" width="801.04" x="41" y="11"/>
    </clipPath>
    <!--********************************draw Y Labels********************************-->
    <g id="ID_y$value" style="fill:black;stroke:none;font-family:Arial;font-size:12px;font-weight:normal;font-style:normal;text-decoration:none;filter:none" visibility="visible">
      <text text-anchor="end" x="30" y="18">15</text>
      <text text-anchor="end" x="30" y="58">12</text>
      <text text-anchor="end" x="30" y="98">9</text>
      <text text-anchor="end" x="30" y="138">6</text>
      <text text-anchor="end" x="30" y="178">3</text>
      <text text-anchor="end" x="30" y="218">0</text>
      <text text-anchor="end" x="30" y="258">-3</text>
      <text text-anchor="end" x="30" y="298">-6</text>
      <text text-anchor="end" x="30" y="338">-9</text>
      <text text-anchor="end" x="30" y="378">-12</text>
      <text text-anchor="end" x="30" y="418">-15</text>
    </g>
    <!--********************************draw X Labels********************************-->
    <!--draw axis x labels-->
    <g id="ID_x$value" style="fill:black;stroke:none;font-family:Arial;font-size:12px;font-weight:normal;font-style:normal;text-decoration:none;filter:none" visibility="visible">
      <text text-anchor="middle" x="42" y="436">06:00:00</text>
      <text text-anchor="middle" x="108.67" y="436">07:00:00</text>
      <text text-anchor="middle" x="175.34" y="436">08:00:00</text>
      <text text-anchor="middle" x="242.01" y="436">09:00:00</text>
      <text text-anchor="middle" x="308.68" y="436">10:00:00</text>
      <text text-anchor="middle" x="375.35" y="436">11:00:00</text>
      <text text-anchor="middle" x="442.02" y="436">12:00:00</text>
      <text text-anchor="middle" x="508.69" y="436">13:00:00</text>
      <text text-anchor="middle" x="575.36" y="436">14:00:00</text>
      <text text-anchor="middle" x="642.03" y="436">15:00:00</text>
      <text text-anchor="middle" x="708.7" y="436">16:00:00</text>
      <text text-anchor="middle" x="775.37" y="436">17:00:00</text>
      <text text-anchor="middle" x="842.04" y="436">18:00:00</text>
    </g>
    <g style="clip-path: url(#ID_backgroundClipPath)">
      <!--******************************** draw Y grid lines******************************** (Horizontal lines)-->
      <g id="ID_y_grid" stroke="#a8a8a8" stroke-width="1">
        <line x1="42" x2="842.04" y1="52" y2="52"/>
        <line x1="42" x2="842.04" y1="92" y2="92"/>
        <line x1="42" x2="842.04" y1="132" y2="132"/>
        <line x1="42" x2="842.04" y1="172" y2="172"/>
        <line x1="42" x2="842.04" y1="212" y2="212"/>
        <line x1="42" x2="842.04" y1="252" y2="252"/>
        <line x1="42" x2="842.04" y1="292" y2="292"/>
        <line x1="42" x2="842.04" y1="332" y2="332"/>
        <line x1="42" x2="842.04" y1="372" y2="372"/>
      </g>
      <!--draw Y grid lines SHADOWS-->
      <g id="ID_y_grid_shadow" stroke="#ffffff" stroke-width="1">
        <line transform="translate(0,1)" x1="42" x2="842.04" y1="52" y2="52"/>
        <line transform="translate(0,1)" x1="42" x2="842.04" y1="92" y2="92"/>
        <line transform="translate(0,1)" x1="42" x2="842.04" y1="132" y2="132"/>
        <line transform="translate(0,1)" x1="42" x2="842.04" y1="172" y2="172"/>
        <line transform="translate(0,1)" x1="42" x2="842.04" y1="212" y2="212"/>
        <line transform="translate(0,1)" x1="42" x2="842.04" y1="252" y2="252"/>
        <line transform="translate(0,1)" x1="42" x2="842.04" y1="292" y2="292"/>
        <line transform="translate(0,1)" x1="42" x2="842.04" y1="332" y2="332"/>
        <line transform="translate(0,1)" x1="42" x2="842.04" y1="372" y2="372"/>
      </g>
      <g id="ID_y0_axis" stroke="rgb(100,100,100)" stroke-width="1" visibility="visible">
        <line x1="42" x2="842.04" y1="212" y2="212"/>
      </g>
      <!--********************************draw X grid lines******************************** (Vertical lines)-->
      <g id="ID_x_grid" stroke="#a8a8a8" stroke-width="1">
        <line x1="108.67" x2="108.67" y1="12" y2="412"/>
        <line x1="175.34" x2="175.34" y1="12" y2="412"/>
        <line x1="242.01" x2="242.01" y1="12" y2="412"/>
        <line x1="308.68" x2="308.68" y1="12" y2="412"/>
        <line x1="375.35" x2="375.35" y1="12" y2="412"/>
        <line x1="442.02" x2="442.02" y1="12" y2="412"/>
        <line x1="508.69" x2="508.69" y1="12" y2="412"/>
        <line x1="575.36" x2="575.36" y1="12" y2="412"/>
        <line x1="642.03" x2="642.03" y1="12" y2="412"/>
        <line x1="708.7" x2="708.7" y1="12" y2="412"/>
        <line x1="775.37" x2="775.37" y1="12" y2="412"/>
      </g>
      <!--draw X grid lines SHADOWS -->
      <g id="ID_x_grid_shadow" stroke="#ffffff" stroke-width="1">
        <line transform="translate(1,0)" x1="108.67" x2="108.67" y1="12" y2="412"/>
        <line transform="translate(1,0)" x1="175.34" x2="175.34" y1="12" y2="412"/>
        <line transform="translate(1,0)" x1="242.01" x2="242.01" y1="12" y2="412"/>
        <line transform="translate(1,0)" x1="308.68" x2="308.68" y1="12" y2="412"/>
        <line transform="translate(1,0)" x1="375.35" x2="375.35" y1="12" y2="412"/>
        <line transform="translate(1,0)" x1="442.02" x2="442.02" y1="12" y2="412"/>
        <line transform="translate(1,0)" x1="508.69" x2="508.69" y1="12" y2="412"/>
        <line transform="translate(1,0)" x1="575.36" x2="575.36" y1="12" y2="412"/>
        <line transform="translate(1,0)" x1="642.03" x2="642.03" y1="12" y2="412"/>
        <line transform="translate(1,0)" x1="708.7" x2="708.7" y1="12" y2="412"/>
        <line transform="translate(1,0)" x1="775.37" x2="775.37" y1="12" y2="412"/>
      </g>
    </g>
    <!--******************************** draw legend ***********************************-->
    <g filter="none" id="ID_legend" transform="translate(854.04,12)" visibility="visible">
      <!--draw legend border-->
      <rect fill="rgb(168,168,168)" fill-opacity="1" height="220" id="ID_legend_border_shadow" rx="10" ry="10" stroke="none" transform="translate(1,1)" width="152" x="0" y="0"/>
      <rect fill="rgb(229,229,229)" fill-opacity="1" height="220" id="ID_legend_border" rx="10" ry="10" stroke="none" stroke-width="0" width="152" x="0" y="0"/>
      <!--draw legend bullets-->
      <g id="ID_legend_bullets" stroke="none">
        <g fill="rgb(0,178,195)" id="ID_legend_1">
          <rect height="20" rx="3" ry="3" width="20" x="10" y="10"/>
          <rect fill="url(#WhiteBlackGradient)" height="20" rx="3" ry="3" width="20" x="10" y="10"/>
          <rect fill-opacity="0.3" filter="url(#SaturateMinus)" height="20" rx="3" ry="3" width="20" x="10" y="10"/>
        </g>
        <g fill="rgb(255,195,56)" id="ID_legend_2">
          <rect height="20" rx="3" ry="3" width="20" x="10" y="40"/>
          <rect fill="url(#WhiteBlackGradient)" height="20" rx="3" ry="3" width="20" x="10" y="40"/>
          <rect fill-opacity="0.3" filter="url(#SaturateMinus)" height="20" rx="3" ry="3" width="20" x="10" y="40"/>
        </g>
        <g fill="rgb(87,62,130)" id="ID_legend_3">
          <rect height="20" rx="3" ry="3" width="20" x="10" y="70"/>
          <rect fill="url(#WhiteBlackGradient)" height="20" rx="3" ry="3" width="20" x="10" y="70"/>
          <rect fill-opacity="0.3" filter="url(#SaturateMinus)" height="20" rx="3" ry="3" width="20" x="10" y="70"/>
        </g>
        <g fill="rgb(79,168,57)" id="ID_legend_4">
          <rect height="20" rx="3" ry="3" width="20" x="10" y="100"/>
          <rect fill="url(#WhiteBlackGradient)" height="20" rx="3" ry="3" width="20" x="10" y="100"/>
          <rect fill-opacity="0.3" filter="url(#SaturateMinus)" height="20" rx="3" ry="3" width="20" x="10" y="100"/>
        </g>
        <g fill="rgb(217,87,0)" id="ID_legend_5">
          <rect height="20" rx="3" ry="3" width="20" x="10" y="130"/>
          <rect fill="url(#WhiteBlackGradient)" height="20" rx="3" ry="3" width="20" x="10" y="130"/>
          <rect fill-opacity="0.3" filter="url(#SaturateMinus)" height="20" rx="3" ry="3" width="20" x="10" y="130"/>
        </g>
        <g fill="rgb(29,157,242)" id="ID_legend_6">
          <rect height="20" rx="3" ry="3" width="20" x="10" y="160"/>
          <rect fill="url(#WhiteBlackGradient)" height="20" rx="3" ry="3" width="20" x="10" y="160"/>
          <rect fill-opacity="0.3" filter="url(#SaturateMinus)" height="20" rx="3" ry="3" width="20" x="10" y="160"/>
        </g>
        <g fill="rgb(181,207,50)" id="ID_legend_7">
          <rect height="20" rx="3" ry="3" width="20" x="10" y="190"/>
          <rect fill="url(#WhiteBlackGradient)" height="20" rx="3" ry="3" width="20" x="10" y="190"/>
          <rect fill-opacity="0.3" filter="url(#SaturateMinus)" height="20" rx="3" ry="3" width="20" x="10" y="190"/>
        </g>
      </g>
      <!--draw legend labels-->
      <g id="ID_legend_labels" style="fill:black;stroke:none;font-family:Arial;;font-weight:normal;font-style:normal;text-decoration:none;filter:none;text-anchor:start">
        <text x="40" y="27">Sharp</text>
        <text x="40" y="57">Infinity</text>
        <text x="40" y="87">Audio Référence</text>
        <text x="40" y="117">Triangle</text>
        <text x="40" y="147">Yamaha</text>
        <text x="40" y="177">Onkyo</text>
        <text x="40" y="207">Sony</text>
      </g>
    </g>
    <g style="clip-path: url(#ID_backgroundClipPath)">
      <g filter="none" stroke-opacity="1" stroke-width="2">
        <g id="ID_graph_1" stroke="rgb(0,178,195)">
          <line fill-opacity="1" x1="175.34" x2="242.01" y1="225.33" y2="185.33"/>
          <line fill-opacity="1" x1="242.01" x2="308.68" y1="185.33" y2="252"/>
          <line fill-opacity="1" x1="308.68" x2="375.35" y1="252" y2="158.67"/>
          <line fill-opacity="1" x1="375.35" x2="392.02" y1="158.67" y2="278.67"/>
          <line fill-opacity="1" x1="392.02" x2="625.36" y1="278.67" y2="132"/>
          <line fill-opacity="1" x1="625.36" x2="642.03" y1="132" y2="305.33"/>
          <line fill-opacity="1" x1="642.03" x2="708.7" y1="305.33" y2="105.33"/>
        </g>
        <g id="ID_graph_2" stroke="rgb(255,195,56)">
          <line fill-opacity="1" x1="175.34" x2="242.01" y1="226.67" y2="182.67"/>
          <line fill-opacity="1" x1="242.01" x2="308.68" y1="182.67" y2="256"/>
          <line fill-opacity="1" x1="308.68" x2="375.35" y1="256" y2="153.33"/>
          <line fill-opacity="1" x1="375.35" x2="392.02" y1="153.33" y2="285.33"/>
          <line fill-opacity="1" x1="392.02" x2="625.36" y1="285.33" y2="124"/>
          <line fill-opacity="1" x1="625.36" x2="642.03" y1="124" y2="314.67"/>
          <line fill-opacity="1" x1="642.03" x2="708.7" y1="314.67" y2="94.67"/>
        </g>
        <g id="ID_graph_3" stroke="rgb(87,62,130)">
          <line fill-opacity="1" x1="175.34" x2="242.01" y1="228.13" y2="179.73"/>
          <line fill-opacity="1" x1="242.01" x2="308.68" y1="179.73" y2="260.4"/>
          <line fill-opacity="1" x1="308.68" x2="375.35" y1="260.4" y2="147.47"/>
          <line fill-opacity="1" x1="375.35" x2="392.02" y1="147.47" y2="292.67"/>
          <line fill-opacity="1" x1="392.02" x2="625.36" y1="292.67" y2="115.2"/>
          <line fill-opacity="1" x1="625.36" x2="642.03" y1="115.2" y2="324.93"/>
          <line fill-opacity="1" x1="642.03" x2="708.7" y1="324.93" y2="82.93"/>
        </g>
        <g id="ID_graph_4" stroke="rgb(79,168,57)">
          <line fill-opacity="1" x1="175.34" x2="242.01" y1="229.75" y2="176.51"/>
          <line fill-opacity="1" x1="242.01" x2="308.68" y1="176.51" y2="265.24"/>
          <line fill-opacity="1" x1="308.68" x2="375.35" y1="265.24" y2="141.01"/>
          <line fill-opacity="1" x1="375.35" x2="392.02" y1="141.01" y2="300.73"/>
          <line fill-opacity="1" x1="392.02" x2="625.36" y1="300.73" y2="105.52"/>
          <line fill-opacity="1" x1="625.36" x2="642.03" y1="105.52" y2="336.23"/>
          <line fill-opacity="1" x1="642.03" x2="708.7" y1="336.23" y2="70.03"/>
        </g>
        <g id="ID_graph_5" stroke="rgb(217,87,0)">
          <line fill-opacity="1" x1="175.34" x2="242.01" y1="231.52" y2="172.96"/>
          <line fill-opacity="1" x1="242.01" x2="308.68" y1="172.96" y2="270.56"/>
          <line fill-opacity="1" x1="308.68" x2="375.35" y1="270.56" y2="133.91"/>
          <line fill-opacity="1" x1="375.35" x2="392.02" y1="133.91" y2="309.61"/>
          <line fill-opacity="1" x1="392.02" x2="625.36" y1="309.61" y2="94.87"/>
          <line fill-opacity="1" x1="625.36" x2="642.03" y1="94.87" y2="348.65"/>
          <line fill-opacity="1" x1="642.03" x2="708.7" y1="348.65" y2="55.83"/>
        </g>
        <g id="ID_graph_6" stroke="rgb(29,157,242)">
          <line fill-opacity="1" x1="175.34" x2="242.01" y1="233.47" y2="169.05"/>
          <line fill-opacity="1" x1="242.01" x2="308.68" y1="169.05" y2="276.42"/>
          <line fill-opacity="1" x1="308.68" x2="375.35" y1="276.42" y2="126.11"/>
          <line fill-opacity="1" x1="375.35" x2="392.02" y1="126.11" y2="319.37"/>
          <line fill-opacity="1" x1="392.02" x2="625.36" y1="319.37" y2="83.16"/>
          <line fill-opacity="1" x1="625.36" x2="642.03" y1="83.16" y2="362.31"/>
          <line fill-opacity="1" x1="642.03" x2="708.7" y1="362.31" y2="40.21"/>
        </g>
        <g id="ID_graph_7" stroke="rgb(181,207,50)">
          <line fill-opacity="1" x1="175.34" x2="242.01" y1="235.62" y2="164.76"/>
          <line fill-opacity="1" x1="242.01" x2="308.68" y1="164.76" y2="282.86"/>
          <line fill-opacity="1" x1="308.68" x2="375.35" y1="282.86" y2="117.52"/>
          <line fill-opacity="1" x1="375.35" x2="392.02" y1="117.52" y2="330.1"/>
          <line fill-opacity="1" x1="392.02" x2="625.36" y1="330.1" y2="70.28"/>
          <line fill-opacity="1" x1="625.36" x2="642.03" y1="70.28" y2="377.35"/>
          <line fill-opacity="1" x1="642.03" x2="708.7" y1="377.35" y2="23.03"/>
        </g>
      </g>
      <g filter="none" opacity="1" stroke="none" stroke-opacity="1" stroke-width="0">
        <g fill="rgb(0,178,195)" id="ID_graph_1">
          <g transform="translate(169.34,219.33)">
            <rect fill-opacity="1" height="12" rx="2" ry="2" width="12" x="0" y="0"/>
            <rect fill="url(#WhiteGradient)" height="12" rx="2" ry="2" width="12" x="0" y="0"/>
            <rect fill-opacity="0.4" filter="url(#SaturateMinus)" height="12" rx="2" ry="2" width="12" x="0" y="0"/>
            <rect fill="url(#BlackGradient)" height="12" rx="2" ry="2" width="12" x="0" y="0"/>
          </g>
          <g transform="translate(236.01,179.33)">
            <rect fill-opacity="1" height="12" rx="2" ry="2" width="12" x="0" y="0"/>
            <rect fill="url(#WhiteGradient)" height="12" rx="2" ry="2" width="12" x="0" y="0"/>
            <rect fill-opacity="0.4" filter="url(#SaturateMinus)" height="12" rx="2" ry="2" width="12" x="0" y="0"/>
            <rect fill="url(#BlackGradient)" height="12" rx="2" ry="2" width="12" x="0" y="0"/>
          </g>
          <g transform="translate(302.68,246)">
            <rect fill-opacity="1" height="12" rx="2" ry="2" width="12" x="0" y="0"/>
            <rect fill="url(#WhiteGradient)" height="12" rx="2" ry="2" width="12" x="0" y="0"/>
            <rect fill-opacity="0.4" filter="url(#SaturateMinus)" height="12" rx="2" ry="2" width="12" x="0" y="0"/>
            <rect fill="url(#BlackGradient)" height="12" rx="2" ry="2" width="12" x="0" y="0"/>
          </g>
          <g transform="translate(369.35,152.67)">
            <rect fill-opacity="1" height="12" rx="2" ry="2" width="12" x="0" y="0"/>
            <rect fill="url(#WhiteGradient)" height="12" rx="2" ry="2" width="12" x="0" y="0"/>
            <rect fill-opacity="0.4" filter="url(#SaturateMinus)" height="12" rx="2" ry="2" width="12" x="0" y="0"/>
            <rect fill="url(#BlackGradient)" height="12" rx="2" ry="2" width="12" x="0" y="0"/>
          </g>
          <g transform="translate(386.02,272.67)">
            <rect fill-opacity="1" height="12" rx="2" ry="2" width="12" x="0" y="0"/>
            <rect fill="url(#WhiteGradient)" height="12" rx="2" ry="2" width="12" x="0" y="0"/>
            <rect fill-opacity="0.4" filter="url(#SaturateMinus)" height="12" rx="2" ry="2" width="12" x="0" y="0"/>
            <rect fill="url(#BlackGradient)" height="12" rx="2" ry="2" width="12" x="0" y="0"/>
          </g>
          <g transform="translate(619.36,126)">
            <rect fill-opacity="1" height="12" rx="2" ry="2" width="12" x="0" y="0"/>
            <rect fill="url(#WhiteGradient)" height="12" rx="2" ry="2" width="12" x="0" y="0"/>
            <rect fill-opacity="0.4" filter="url(#SaturateMinus)" height="12" rx="2" ry="2" width="12" x="0" y="0"/>
            <rect fill="url(#BlackGradient)" height="12" rx="2" ry="2" width="12" x="0" y="0"/>
          </g>
          <g transform="translate(636.03,299.33)">
            <rect fill-opacity="1" height="12" rx="2" ry="2" width="12" x="0" y="0"/>
            <rect fill="url(#WhiteGradient)" height="12" rx="2" ry="2" width="12" x="0" y="0"/>
            <rect fill-opacity="0.4" filter="url(#SaturateMinus)" height="12" rx="2" ry="2" width="12" x="0" y="0"/>
            <rect fill="url(#BlackGradient)" height="12" rx="2" ry="2" width="12" x="0" y="0"/>
          </g>
          <g transform="translate(702.7,99.33)">
            <rect fill-opacity="1" height="12" rx="2" ry="2" width="12" x="0" y="0"/>
            <rect fill="url(#WhiteGradient)" height="12" rx="2" ry="2" width="12" x="0" y="0"/>
            <rect fill-opacity="0.4" filter="url(#SaturateMinus)" height="12" rx="2" ry="2" width="12" x="0" y="0"/>
            <rect fill="url(#BlackGradient)" height="12" rx="2" ry="2" width="12" x="0" y="0"/>
          </g>
        </g>
        <g fill="rgb(255,195,56)" id="ID_graph_2">
          <g transform="translate(169.34,220.67)">
            <rect fill-opacity="1" height="12" rx="2" ry="2" width="12" x="0" y="0"/>
            <rect fill="url(#WhiteGradient)" height="12" rx="2" ry="2" width="12" x="0" y="0"/>
            <rect fill-opacity="0.4" filter="url(#SaturateMinus)" height="12" rx="2" ry="2" width="12" x="0" y="0"/>
            <rect fill="url(#BlackGradient)" height="12" rx="2" ry="2" width="12" x="0" y="0"/>
          </g>
          <g transform="translate(236.01,176.67)">
            <rect fill-opacity="1" height="12" rx="2" ry="2" width="12" x="0" y="0"/>
            <rect fill="url(#WhiteGradient)" height="12" rx="2" ry="2" width="12" x="0" y="0"/>
            <rect fill-opacity="0.4" filter="url(#SaturateMinus)" height="12" rx="2" ry="2" width="12" x="0" y="0"/>
            <rect fill="url(#BlackGradient)" height="12" rx="2" ry="2" width="12" x="0" y="0"/>
          </g>
          <g transform="translate(302.68,250)">
            <rect fill-opacity="1" height="12" rx="2" ry="2" width="12" x="0" y="0"/>
            <rect fill="url(#WhiteGradient)" height="12" rx="2" ry="2" width="12" x="0" y="0"/>
            <rect fill-opacity="0.4" filter="url(#SaturateMinus)" height="12" rx="2" ry="2" width="12" x="0" y="0"/>
            <rect fill="url(#BlackGradient)" height="12" rx="2" ry="2" width="12" x="0" y="0"/>
          </g>
          <g transform="translate(369.35,147.33)">
            <rect fill-opacity="1" height="12" rx="2" ry="2" width="12" x="0" y="0"/>
            <rect fill="url(#WhiteGradient)" height="12" rx="2" ry="2" width="12" x="0" y="0"/>
            <rect fill-opacity="0.4" filter="url(#SaturateMinus)" height="12" rx="2" ry="2" width="12" x="0" y="0"/>
            <rect fill="url(#BlackGradient)" height="12" rx="2" ry="2" width="12" x="0" y="0"/>
          </g>
          <g transform="translate(386.02,279.33)">
            <rect fill-opacity="1" height="12" rx="2" ry="2" width="12" x="0" y="0"/>
            <rect fill="url(#WhiteGradient)" height="12" rx="2" ry="2" width="12" x="0" y="0"/>
            <rect fill-opacity="0.4" filter="url(#SaturateMinus)" height="12" rx="2" ry="2" width="12" x="0" y="0"/>
            <rect fill="url(#BlackGradient)" height="12" rx="2" ry="2" width="12" x="0" y="0"/>
          </g>
          <g transform="translate(619.36,118)">
            <rect fill-opacity="1" height="12" rx="2" ry="2" width="12" x="0" y="0"/>
            <rect fill="url(#WhiteGradient)" height="12" rx="2" ry="2" width="12" x="0" y="0"/>
            <rect fill-opacity="0.4" filter="url(#SaturateMinus)" height="12" rx="2" ry="2" width="12" x="0" y="0"/>
            <rect fill="url(#BlackGradient)" height="12" rx="2" ry="2" width="12" x="0" y="0"/>
          </g>
          <g transform="translate(636.03,308.67)">
            <rect fill-opacity="1" height="12" rx="2" ry="2" width="12" x="0" y="0"/>
            <rect fill="url(#WhiteGradient)" height="12" rx="2" ry="2" width="12" x="0" y="0"/>
            <rect fill-opacity="0.4" filter="url(#SaturateMinus)" height="12" rx="2" ry="2" width="12" x="0" y="0"/>
            <rect fill="url(#BlackGradient)" height="12" rx="2" ry="2" width="12" x="0" y="0"/>
          </g>
          <g transform="translate(702.7,88.67)">
            <rect fill-opacity="1" height="12" rx="2" ry="2" width="12" x="0" y="0"/>
            <rect fill="url(#WhiteGradient)" height="12" rx="2" ry="2" width="12" x="0" y="0"/>
            <rect fill-opacity="0.4" filter="url(#SaturateMinus)" height="12" rx="2" ry="2" width="12" x="0" y="0"/>
            <rect fill="url(#BlackGradient)" height="12" rx="2" ry="2" width="12" x="0" y="0"/>
          </g>
        </g>
        <g fill="rgb(87,62,130)" id="ID_graph_3">
          <g transform="translate(169.34,222.13)">
            <rect fill-opacity="1" height="12" rx="2" ry="2" width="12" x="0" y="0"/>
            <rect fill="url(#WhiteGradient)" height="12" rx="2" ry="2" width="12" x="0" y="0"/>
            <rect fill-opacity="0.4" filter="url(#SaturateMinus)" height="12" rx="2" ry="2" width="12" x="0" y="0"/>
            <rect fill="url(#BlackGradient)" height="12" rx="2" ry="2" width="12" x="0" y="0"/>
          </g>
          <g transform="translate(236.01,173.73)">
            <rect fill-opacity="1" height="12" rx="2" ry="2" width="12" x="0" y="0"/>
            <rect fill="url(#WhiteGradient)" height="12" rx="2" ry="2" width="12" x="0" y="0"/>
            <rect fill-opacity="0.4" filter="url(#SaturateMinus)" height="12" rx="2" ry="2" width="12" x="0" y="0"/>
            <rect fill="url(#BlackGradient)" height="12" rx="2" ry="2" width="12" x="0" y="0"/>
          </g>
          <g transform="translate(302.68,254.4)">
            <rect fill-opacity="1" height="12" rx="2" ry="2" width="12" x="0" y="0"/>
            <rect fill="url(#WhiteGradient)" height="12" rx="2" ry="2" width="12" x="0" y="0"/>
            <rect fill-opacity="0.4" filter="url(#SaturateMinus)" height="12" rx="2" ry="2" width="12" x="0" y="0"/>
            <rect fill="url(#BlackGradient)" height="12" rx="2" ry="2" width="12" x="0" y="0"/>
          </g>
          <g transform="translate(369.35,141.47)">
            <rect fill-opacity="1" height="12" rx="2" ry="2" width="12" x="0" y="0"/>
            <rect fill="url(#WhiteGradient)" height="12" rx="2" ry="2" width="12" x="0" y="0"/>
            <rect fill-opacity="0.4" filter="url(#SaturateMinus)" height="12" rx="2" ry="2" width="12" x="0" y="0"/>
            <rect fill="url(#BlackGradient)" height="12" rx="2" ry="2" width="12" x="0" y="0"/>
          </g>
          <g transform="translate(386.02,286.67)">
            <rect fill-opacity="1" height="12" rx="2" ry="2" width="12" x="0" y="0"/>
            <rect fill="url(#WhiteGradient)" height="12" rx="2" ry="2" width="12" x="0" y="0"/>
            <rect fill-opacity="0.4" filter="url(#SaturateMinus)" height="12" rx="2" ry="2" width="12" x="0" y="0"/>
            <rect fill="url(#BlackGradient)" height="12" rx="2" ry="2" width="12" x="0" y="0"/>
          </g>
          <g transform="translate(619.36,109.2)">
            <rect fill-opacity="1" height="12" rx="2" ry="2" width="12" x="0" y="0"/>
            <rect fill="url(#WhiteGradient)" height="12" rx="2" ry="2" width="12" x="0" y="0"/>
            <rect fill-opacity="0.4" filter="url(#SaturateMinus)" height="12" rx="2" ry="2" width="12" x="0" y="0"/>
            <rect fill="url(#BlackGradient)" height="12" rx="2" ry="2" width="12" x="0" y="0"/>
          </g>
          <g transform="translate(636.03,318.93)">
            <rect fill-opacity="1" height="12" rx="2" ry="2" width="12" x="0" y="0"/>
            <rect fill="url(#WhiteGradient)" height="12" rx="2" ry="2" width="12" x="0" y="0"/>
            <rect fill-opacity="0.4" filter="url(#SaturateMinus)" height="12" rx="2" ry="2" width="12" x="0" y="0"/>
            <rect fill="url(#BlackGradient)" height="12" rx="2" ry="2" width="12" x="0" y="0"/>
          </g>
          <g transform="translate(702.7,76.93)">
            <rect fill-opacity="1" height="12" rx="2" ry="2" width="12" x="0" y="0"/>
            <rect fill="url(#WhiteGradient)" height="12" rx="2" ry="2" width="12" x="0" y="0"/>
            <rect fill-opacity="0.4" filter="url(#SaturateMinus)" height="12" rx="2" ry="2" width="12" x="0" y="0"/>
            <rect fill="url(#BlackGradient)" height="12" rx="2" ry="2" width="12" x="0" y="0"/>
          </g>
        </g>
        <g fill="rgb(79,168,57)" id="ID_graph_4">
          <g transform="translate(169.34,223.75)">
            <rect fill-opacity="1" height="12" rx="2" ry="2" width="12" x="0" y="0"/>
            <rect fill="url(#WhiteGradient)" height="12" rx="2" ry="2" width="12" x="0" y="0"/>
            <rect fill-opacity="0.4" filter="url(#SaturateMinus)" height="12" rx="2" ry="2" width="12" x="0" y="0"/>
            <rect fill="url(#BlackGradient)" height="12" rx="2" ry="2" width="12" x="0" y="0"/>
          </g>
          <g transform="translate(236.01,170.51)">
            <rect fill-opacity="1" height="12" rx="2" ry="2" width="12" x="0" y="0"/>
            <rect fill="url(#WhiteGradient)" height="12" rx="2" ry="2" width="12" x="0" y="0"/>
            <rect fill-opacity="0.4" filter="url(#SaturateMinus)" height="12" rx="2" ry="2" width="12" x="0" y="0"/>
            <rect fill="url(#BlackGradient)" height="12" rx="2" ry="2" width="12" x="0" y="0"/>
          </g>
          <g transform="translate(302.68,259.24)">
            <rect fill-opacity="1" height="12" rx="2" ry="2" width="12" x="0" y="0"/>
            <rect fill="url(#WhiteGradient)" height="12" rx="2" ry="2" width="12" x="0" y="0"/>
            <rect fill-opacity="0.4" filter="url(#SaturateMinus)" height="12" rx="2" ry="2" width="12" x="0" y="0"/>
            <rect fill="url(#BlackGradient)" height="12" rx="2" ry="2" width="12" x="0" y="0"/>
          </g>
          <g transform="translate(369.35,135.01)">
            <rect fill-opacity="1" height="12" rx="2" ry="2" width="12" x="0" y="0"/>
            <rect fill="url(#WhiteGradient)" height="12" rx="2" ry="2" width="12" x="0" y="0"/>
            <rect fill-opacity="0.4" filter="url(#SaturateMinus)" height="12" rx="2" ry="2" width="12" x="0" y="0"/>
            <rect fill="url(#BlackGradient)" height="12" rx="2" ry="2" width="12" x="0" y="0"/>
          </g>
          <g transform="translate(386.02,294.73)">
            <rect fill-opacity="1" height="12" rx="2" ry="2" width="12" x="0" y="0"/>
            <rect fill="url(#WhiteGradient)" height="12" rx="2" ry="2" width="12" x="0" y="0"/>
            <rect fill-opacity="0.4" filter="url(#SaturateMinus)" height="12" rx="2" ry="2" width="12" x="0" y="0"/>
            <rect fill="url(#BlackGradient)" height="12" rx="2" ry="2" width="12" x="0" y="0"/>
          </g>
          <g transform="translate(619.36,99.52)">
            <rect fill-opacity="1" height="12" rx="2" ry="2" width="12" x="0" y="0"/>
            <rect fill="url(#WhiteGradient)" height="12" rx="2" ry="2" width="12" x="0" y="0"/>
            <rect fill-opacity="0.4" filter="url(#SaturateMinus)" height="12" rx="2" ry="2" width="12" x="0" y="0"/>
            <rect fill="url(#BlackGradient)" height="12" rx="2" ry="2" width="12" x="0" y="0"/>
          </g>
          <g transform="translate(636.03,330.23)">
            <rect fill-opacity="1" height="12" rx="2" ry="2" width="12" x="0" y="0"/>
            <rect fill="url(#WhiteGradient)" height="12" rx="2" ry="2" width="12" x="0" y="0"/>
            <rect fill-opacity="0.4" filter="url(#SaturateMinus)" height="12" rx="2" ry="2" width="12" x="0" y="0"/>
            <rect fill="url(#BlackGradient)" height="12" rx="2" ry="2" width="12" x="0" y="0"/>
          </g>
          <g transform="translate(702.7,64.03)">
            <rect fill-opacity="1" height="12" rx="2" ry="2" width="12" x="0" y="0"/>
            <rect fill="url(#WhiteGradient)" height="12" rx="2" ry="2" width="12" x="0" y="0"/>
            <rect fill-opacity="0.4" filter="url(#SaturateMinus)" height="12" rx="2" ry="2" width="12" x="0" y="0"/>
            <rect fill="url(#BlackGradient)" height="12" rx="2" ry="2" width="12" x="0" y="0"/>
          </g>
        </g>
        <g fill="rgb(217,87,0)" id="ID_graph_5">
          <g transform="translate(169.34,225.52)">
            <rect fill-opacity="1" height="12" rx="2" ry="2" width="12" x="0" y="0"/>
            <rect fill="url(#WhiteGradient)" height="12" rx="2" ry="2" width="12" x="0" y="0"/>
            <rect fill-opacity="0.4" filter="url(#SaturateMinus)" height="12" rx="2" ry="2" width="12" x="0" y="0"/>
            <rect fill="url(#BlackGradient)" height="12" rx="2" ry="2" width="12" x="0" y="0"/>
          </g>
          <g transform="translate(236.01,166.96)">
            <rect fill-opacity="1" height="12" rx="2" ry="2" width="12" x="0" y="0"/>
            <rect fill="url(#WhiteGradient)" height="12" rx="2" ry="2" width="12" x="0" y="0"/>
            <rect fill-opacity="0.4" filter="url(#SaturateMinus)" height="12" rx="2" ry="2" width="12" x="0" y="0"/>
            <rect fill="url(#BlackGradient)" height="12" rx="2" ry="2" width="12" x="0" y="0"/>
          </g>
          <g transform="translate(302.68,264.56)">
            <rect fill-opacity="1" height="12" rx="2" ry="2" width="12" x="0" y="0"/>
            <rect fill="url(#WhiteGradient)" height="12" rx="2" ry="2" width="12" x="0" y="0"/>
            <rect fill-opacity="0.4" filter="url(#SaturateMinus)" height="12" rx="2" ry="2" width="12" x="0" y="0"/>
            <rect fill="url(#BlackGradient)" height="12" rx="2" ry="2" width="12" x="0" y="0"/>
          </g>
          <g transform="translate(369.35,127.91)">
            <rect fill-opacity="1" height="12" rx="2" ry="2" width="12" x="0" y="0"/>
            <rect fill="url(#WhiteGradient)" height="12" rx="2" ry="2" width="12" x="0" y="0"/>
            <rect fill-opacity="0.4" filter="url(#SaturateMinus)" height="12" rx="2" ry="2" width="12" x="0" y="0"/>
            <rect fill="url(#BlackGradient)" height="12" rx="2" ry="2" width="12" x="0" y="0"/>
          </g>
          <g transform="translate(386.02,303.61)">
            <rect fill-opacity="1" height="12" rx="2" ry="2" width="12" x="0" y="0"/>
            <rect fill="url(#WhiteGradient)" height="12" rx="2" ry="2" width="12" x="0" y="0"/>
            <rect fill-opacity="0.4" filter="url(#SaturateMinus)" height="12" rx="2" ry="2" width="12" x="0" y="0"/>
            <rect fill="url(#BlackGradient)" height="12" rx="2" ry="2" width="12" x="0" y="0"/>
          </g>
          <g transform="translate(619.36,88.87)">
            <rect fill-opacity="1" height="12" rx="2" ry="2" width="12" x="0" y="0"/>
            <rect fill="url(#WhiteGradient)" height="12" rx="2" ry="2" width="12" x="0" y="0"/>
            <rect fill-opacity="0.4" filter="url(#SaturateMinus)" height="12" rx="2" ry="2" width="12" x="0" y="0"/>
            <rect fill="url(#BlackGradient)" height="12" rx="2" ry="2" width="12" x="0" y="0"/>
          </g>
          <g transform="translate(636.03,342.65)">
            <rect fill-opacity="1" height="12" rx="2" ry="2" width="12" x="0" y="0"/>
            <rect fill="url(#WhiteGradient)" height="12" rx="2" ry="2" width="12" x="0" y="0"/>
            <rect fill-opacity="0.4" filter="url(#SaturateMinus)" height="12" rx="2" ry="2" width="12" x="0" y="0"/>
            <rect fill="url(#BlackGradient)" height="12" rx="2" ry="2" width="12" x="0" y="0"/>
          </g>
          <g transform="translate(702.7,49.83)">
            <rect fill-opacity="1" height="12" rx="2" ry="2" width="12" x="0" y="0"/>
            <rect fill="url(#WhiteGradient)" height="12" rx="2" ry="2" width="12" x="0" y="0"/>
            <rect fill-opacity="0.4" filter="url(#SaturateMinus)" height="12" rx="2" ry="2" width="12" x="0" y="0"/>
            <rect fill="url(#BlackGradient)" height="12" rx="2" ry="2" width="12" x="0" y="0"/>
          </g>
        </g>
        <g fill="rgb(29,157,242)" id="ID_graph_6">
          <g transform="translate(169.34,227.47)">
            <rect fill-opacity="1" height="12" rx="2" ry="2" width="12" x="0" y="0"/>
            <rect fill="url(#WhiteGradient)" height="12" rx="2" ry="2" width="12" x="0" y="0"/>
            <rect fill-opacity="0.4" filter="url(#SaturateMinus)" height="12" rx="2" ry="2" width="12" x="0" y="0"/>
            <rect fill="url(#BlackGradient)" height="12" rx="2" ry="2" width="12" x="0" y="0"/>
          </g>
          <g transform="translate(236.01,163.05)">
            <rect fill-opacity="1" height="12" rx="2" ry="2" width="12" x="0" y="0"/>
            <rect fill="url(#WhiteGradient)" height="12" rx="2" ry="2" width="12" x="0" y="0"/>
            <rect fill-opacity="0.4" filter="url(#SaturateMinus)" height="12" rx="2" ry="2" width="12" x="0" y="0"/>
            <rect fill="url(#BlackGradient)" height="12" rx="2" ry="2" width="12" x="0" y="0"/>
          </g>
          <g transform="translate(302.68,270.42)">
            <rect fill-opacity="1" height="12" rx="2" ry="2" width="12" x="0" y="0"/>
            <rect fill="url(#WhiteGradient)" height="12" rx="2" ry="2" width="12" x="0" y="0"/>
            <rect fill-opacity="0.4" filter="url(#SaturateMinus)" height="12" rx="2" ry="2" width="12" x="0" y="0"/>
            <rect fill="url(#BlackGradient)" height="12" rx="2" ry="2" width="12" x="0" y="0"/>
          </g>
          <g transform="translate(369.35,120.11)">
            <rect fill-opacity="1" height="12" rx="2" ry="2" width="12" x="0" y="0"/>
            <rect fill="url(#WhiteGradient)" height="12" rx="2" ry="2" width="12" x="0" y="0"/>
            <rect fill-opacity="0.4" filter="url(#SaturateMinus)" height="12" rx="2" ry="2" width="12" x="0" y="0"/>
            <rect fill="url(#BlackGradient)" height="12" rx="2" ry="2" width="12" x="0" y="0"/>
          </g>
          <g transform="translate(386.02,313.37)">
            <rect fill-opacity="1" height="12" rx="2" ry="2" width="12" x="0" y="0"/>
            <rect fill="url(#WhiteGradient)" height="12" rx="2" ry="2" width="12" x="0" y="0"/>
            <rect fill-opacity="0.4" filter="url(#SaturateMinus)" height="12" rx="2" ry="2" width="12" x="0" y="0"/>
            <rect fill="url(#BlackGradient)" height="12" rx="2" ry="2" width="12" x="0" y="0"/>
          </g>
          <g transform="translate(619.36,77.16)">
            <rect fill-opacity="1" height="12" rx="2" ry="2" width="12" x="0" y="0"/>
            <rect fill="url(#WhiteGradient)" height="12" rx="2" ry="2" width="12" x="0" y="0"/>
            <rect fill-opacity="0.4" filter="url(#SaturateMinus)" height="12" rx="2" ry="2" width="12" x="0" y="0"/>
            <rect fill="url(#BlackGradient)" height="12" rx="2" ry="2" width="12" x="0" y="0"/>
          </g>
          <g transform="translate(636.03,356.31)">
            <rect fill-opacity="1" height="12" rx="2" ry="2" width="12" x="0" y="0"/>
            <rect fill="url(#WhiteGradient)" height="12" rx="2" ry="2" width="12" x="0" y="0"/>
            <rect fill-opacity="0.4" filter="url(#SaturateMinus)" height="12" rx="2" ry="2" width="12" x="0" y="0"/>
            <rect fill="url(#BlackGradient)" height="12" rx="2" ry="2" width="12" x="0" y="0"/>
          </g>
          <g transform="translate(702.7,34.21)">
            <rect fill-opacity="1" height="12" rx="2" ry="2" width="12" x="0" y="0"/>
            <rect fill="url(#WhiteGradient)" height="12" rx="2" ry="2" width="12" x="0" y="0"/>
            <rect fill-opacity="0.4" filter="url(#SaturateMinus)" height="12" rx="2" ry="2" width="12" x="0" y="0"/>
            <rect fill="url(#BlackGradient)" height="12" rx="2" ry="2" width="12" x="0" y="0"/>
          </g>
        </g>
        <g fill="rgb(181,207,50)" id="ID_graph_7">
          <g transform="translate(169.34,229.62)">
            <rect fill-opacity="1" height="12" rx="2" ry="2" width="12" x="0" y="0"/>
            <rect fill="url(#WhiteGradient)" height="12" rx="2" ry="2" width="12" x="0" y="0"/>
            <rect fill-opacity="0.4" filter="url(#SaturateMinus)" height="12" rx="2" ry="2" width="12" x="0" y="0"/>
            <rect fill="url(#BlackGradient)" height="12" rx="2" ry="2" width="12" x="0" y="0"/>
          </g>
          <g transform="translate(236.01,158.76)">
            <rect fill-opacity="1" height="12" rx="2" ry="2" width="12" x="0" y="0"/>
            <rect fill="url(#WhiteGradient)" height="12" rx="2" ry="2" width="12" x="0" y="0"/>
            <rect fill-opacity="0.4" filter="url(#SaturateMinus)" height="12" rx="2" ry="2" width="12" x="0" y="0"/>
            <rect fill="url(#BlackGradient)" height="12" rx="2" ry="2" width="12" x="0" y="0"/>
          </g>
          <g transform="translate(302.68,276.86)">
            <rect fill-opacity="1" height="12" rx="2" ry="2" width="12" x="0" y="0"/>
            <rect fill="url(#WhiteGradient)" height="12" rx="2" ry="2" width="12" x="0" y="0"/>
            <rect fill-opacity="0.4" filter="url(#SaturateMinus)" height="12" rx="2" ry="2" width="12" x="0" y="0"/>
            <rect fill="url(#BlackGradient)" height="12" rx="2" ry="2" width="12" x="0" y="0"/>
          </g>
          <g transform="translate(369.35,111.52)">
            <rect fill-opacity="1" height="12" rx="2" ry="2" width="12" x="0" y="0"/>
            <rect fill="url(#WhiteGradient)" height="12" rx="2" ry="2" width="12" x="0" y="0"/>
            <rect fill-opacity="0.4" filter="url(#SaturateMinus)" height="12" rx="2" ry="2" width="12" x="0" y="0"/>
            <rect fill="url(#BlackGradient)" height="12" rx="2" ry="2" width="12" x="0" y="0"/>
          </g>
          <g transform="translate(386.02,324.1)">
            <rect fill-opacity="1" height="12" rx="2" ry="2" width="12" x="0" y="0"/>
            <rect fill="url(#WhiteGradient)" height="12" rx="2" ry="2" width="12" x="0" y="0"/>
            <rect fill-opacity="0.4" filter="url(#SaturateMinus)" height="12" rx="2" ry="2" width="12" x="0" y="0"/>
            <rect fill="url(#BlackGradient)" height="12" rx="2" ry="2" width="12" x="0" y="0"/>
          </g>
          <g transform="translate(619.36,64.28)">
            <rect fill-opacity="1" height="12" rx="2" ry="2" width="12" x="0" y="0"/>
            <rect fill="url(#WhiteGradient)" height="12" rx="2" ry="2" width="12" x="0" y="0"/>
            <rect fill-opacity="0.4" filter="url(#SaturateMinus)" height="12" rx="2" ry="2" width="12" x="0" y="0"/>
            <rect fill="url(#BlackGradient)" height="12" rx="2" ry="2" width="12" x="0" y="0"/>
          </g>
          <g transform="translate(636.03,371.35)">
            <rect fill-opacity="1" height="12" rx="2" ry="2" width="12" x="0" y="0"/>
            <rect fill="url(#WhiteGradient)" height="12" rx="2" ry="2" width="12" x="0" y="0"/>
            <rect fill-opacity="0.4" filter="url(#SaturateMinus)" height="12" rx="2" ry="2" width="12" x="0" y="0"/>
            <rect fill="url(#BlackGradient)" height="12" rx="2" ry="2" width="12" x="0" y="0"/>
          </g>
          <g transform="translate(702.7,17.03)">
            <rect fill-opacity="1" height="12" rx="2" ry="2" width="12" x="0" y="0"/>
            <rect fill="url(#WhiteGradient)" height="12" rx="2" ry="2" width="12" x="0" y="0"/>
            <rect fill-opacity="0.4" filter="url(#SaturateMinus)" height="12" rx="2" ry="2" width="12" x="0" y="0"/>
            <rect fill="url(#BlackGradient)" height="12" rx="2" ry="2" width="12" x="0" y="0"/>
          </g>
        </g>
      </g>
    </g>
  </g>

</svg>