<?xml version="1.0" encoding="UTF-8" standalone="no" ?><svg xmlns="http://www.w3.org/2000/svg" id="ID_svg" viewBox="0 0 1058 500" viewport-fill="white" viewport-fill-opacity="0" xmlns:exsl4D="http://www.4D.com" xmlns:math="http://exslt.org/math" xmlns:xlink="http://www.w3.org/1999/xlink"><!--gradient styles--><defs><filter id="soft_blur"><feGaussianBlur in="SourceGraphic" result="BlurAlpha" stdDeviation="1"/></filter><filter id="pastel"><feGaussianBlur in="SourceAlpha" result="blur" stdDeviation="2"/><feOffset dx="6" dy="6" in="blur" result="offsetBlur"/><feComposite in="SourceGraphic" in2="offsetBlur" operator="in" result="specOut"/></filter><filter id="blur_shadow"><feGaussianBlur in="SourceAlpha" result="blur" stdDeviation="3"/><feOffset dx="4" dy="2" in="blur" result="offsetBlur"/><feBlend in="SourceGraphic" in2="offsetBlur" mode="normal"/></filter><filter filterUnits="objectBoundingBox" id="Shadow"><feGaussianBlur in="SourceAlpha" result="flou" stdDeviation="0"/><feColorMatrix in="SourceAlpha" result="flouBlue" type="matrix" values=" 0 0 0 0 0                      0 0 0 0 0                     0 0 0 0 0                      0 0 0 0.3 0"/><feOffset dx="4" dy="4" in="flouBlue" result="flouDecalage"/><feBlend in="SourceGraphic" in2="flouDecalage" mode="normal"/></filter><filter filterUnits="objectBoundingBox" height="100%" id="SaturateMinus" width="100%" x="0%" y="0%"><feColorMatrix in="SourceGraphic" type="saturate" values="0.5"/></filter><filter filterUnits="objectBoundingBox" height="100%" id="SaturatePlus" width="100%" x="0%" y="0%"><feColorMatrix in="SourceGraphic" type="saturate" values="1.4"/></filter><linearGradient id="BlackGradient"><stop offset="0%" style="stop-color:rgb(0,0,0); stop-opacity:0"/><stop offset="100%" style="stop-color:rgb(0,0,0); stop-opacity:0.1"/></linearGradient><linearGradient id="WhiteGradient" x1="0%" x2="100%" y1="0%" y2="0%"><stop offset="0%" style="stop-color:rgb(255,255,255); stop-opacity:0.3"/><stop offset="100%" style="stop-color:rgb(255,255,255);stop-opacity:0"/></linearGradient><linearGradient id="WhiteBlackGradient" x1="0%" x2="100%" y1="0%" y2="0%"><stop offset="0%" style="stop-color:rgb(255,255,255); stop-opacity:0.15"/><stop offset="100%" style="stop-color:rgb(0,0,0);stop-opacity:0.15"/></linearGradient><linearGradient id="Black0Black1Gradient" x1="0%" x2="0%" y1="0%" y2="100%"><stop offset="0%" style="stop-color:rgb(0,0,0); stop-opacity:0"/><stop offset="100%" style="stop-color:rgb(0,0,0);stop-opacity:0.05"/></linearGradient><clipPath id="ID_background_clip"><rect height="440" rx="10" width="980" x="38" y="22"/></clipPath><clipPath id="ID_area_clip"><rect height="440" width="1120" x="38" y="22"/></clipPath></defs><!--global stroke and font styles--><g id="ID_globals" style="fill:black;stroke:none;font-family:Arial;font-size:12px;font-weight:normal;font-style:normal;text-decoration:none;shape-rendering:crispEdges"><!--draw title--><!--draw legend--><!--draw graph background--><rect fill="rgb(168,168,168)" fill-opacity="1" height="440" id="ID_background_shadow" rx="10" ry="10" stroke="none" visibility="visible" width="980" x="39" y="23"/><g fill="rgb(229,229,229)" id="ID_background" visibility="visible"><rect height="440" rx="10" ry="10" stroke="none" width="980" x="38" y="22"/><rect fill="url(#Black0Black1Gradient)" height="440" rx="10" ry="10" stroke="none" width="980" x="38" y="22"/></g><clipPath id="ID_backgroundClipPath"><rect height="441" rx="10" ry="10" width="981" x="38" y="22"/></clipPath><!--draw Y grid lines--><!--draw Y grid lines SHADOW--><!--draw X grid lines--><!--draw X grid lines SHADOW--><!--draw y=0 axe--><g id="ID_y0_axis" stroke="rgb(100,100,100)" stroke-width="1" visibility="visible"><line x1="38" x2="1018" y1="242" y2="242"/></g><!--draw axis x labels--><g id="ID_x_values" style="fill:black;stroke:none;font-family:Arial;font-size:12px;font-weight:normal;font-style:normal;text-decoration:none;filter:none"><text text-anchor="middle" x="41" y="486.8">PT8H0M0S</text><text text-anchor="middle" x="181" y="486.8">PT9H0M0S</text><text text-anchor="middle" x="321" y="486.8">PT10H0M0S</text><text text-anchor="middle" x="461" y="486.8">PT11H0M0S</text><text text-anchor="middle" x="601" y="486.8">PT11H15M0S</text><text text-anchor="middle" x="741" y="486.8">PT14H45M0S</text><text text-anchor="middle" x="881" y="486.8">PT15H0M0S</text><text text-anchor="middle" x="1021" y="486.8">PT16H0M0S</text></g><!--draw axis y labels--><g id="ID_y_values" style="fill:black;stroke:none;font-family:Arial;font-size:12px;font-weight:normal;font-style:normal;text-decoration:none;filter:none"><text text-anchor="end" x="28" y="466.8">-10</text><text text-anchor="end" x="28" y="422.8">-8</text><text text-anchor="end" x="28" y="378.8">-6</text><text text-anchor="end" x="28" y="334.8">-4</text><text text-anchor="end" x="28" y="290.8">-2</text><text text-anchor="end" x="28" y="246.8">0</text><text text-anchor="end" x="28" y="202.8">2</text><text text-anchor="end" x="28" y="158.8">4</text><text text-anchor="end" x="28" y="114.8">6</text><text text-anchor="end" x="28" y="70.8">8</text><text text-anchor="end" x="28" y="26.8">10</text></g><!--draw lines--><g clip-path="url(#ID_background_clip)" stroke="none" stroke-width="0"><g clip-path="url(#ID_area_clip)"><!--                draw polyline for data type 1--><polyline fill="rgb(0,178,195)" fill-opacity="0.7" id="ID_graph_1" points="38 264 178 198 318 308 458 154 598 352 738 110 878 396 1018 66 1018 242 38 242"/><!--                draw polyline for data type 2--><polyline fill="rgb(255,195,56)" fill-opacity="0.7" id="ID_graph_2" points="38 266.2 178 193.6 318 314.6 458 145.2 598 363 738 96.80000000000001 878 411.4 1018 48.39999999999998 1018 242 38 242"/><!--                draw polyline for data type 3--><polyline fill="rgb(87,62,130)" fill-opacity="0.7" id="ID_graph_3" points="38 268.62 178 188.76 318 321.86 458 135.52 598 375.1 738 82.28 878 428.34000000000003 1018 29.04000000000002 1018 242 38 242"/></g></g></g></svg>