
<svg xmlns="http://www.w3.org/2000/svg" id="ID_svg" viewBox="0 0 1018 448" viewport-fill="none" viewport-fill-opacity="1" xmlns:exsl4D="http://www.4D.com" xmlns:gFunc="http://gFunc" xmlns:math="http://exslt.org/math" xmlns:xlink="http://www.w3.org/1999/xlink">

  <!--gradient styles-->

  <defs>
    <filter id="soft_blur">
      <feGaussianBlur in="SourceGraphic" result="BlurAlpha" stdDeviation="1"/>
    </filter>
    <filter id="pastel">
      <feGaussianBlur in="SourceAlpha" result="blur" stdDeviation="2"/>
      <feOffset dx="6" dy="6" in="blur" result="offsetBlur"/>
      <feComposite in="SourceGraphic" in2="offsetBlur" operator="in" result="specOut"/>
    </filter>
    <filter id="blur_shadow">
      <feGaussianBlur in="SourceAlpha" result="blur" stdDeviation="3"/>
      <feOffset dx="4" dy="2" in="blur" result="offsetBlur"/>
      <feBlend in="SourceGraphic" in2="offsetBlur" mode="normal"/>
    </filter>
    <filter filterUnits="objectBoundingBox" id="Shadow">
      <feGaussianBlur in="SourceAlpha" result="flou" stdDeviation="0"/>
      <feColorMatrix in="SourceAlpha" result="flouBlue" type="matrix" values=" 0 0 0 0 0                      0 0 0 0 0                     0 0 0 0 0                      0 0 0 0.3 0"/>
      <feOffset dx="4" dy="4" in="flouBlue" result="flouDecalage"/>
      <feBlend in="SourceGraphic" in2="flouDecalage" mode="normal"/>
    </filter>
    <filter filterUnits="objectBoundingBox" height="100%" id="SaturateMinus" width="100%" x="0%" y="0%">
      <feColorMatrix in="SourceGraphic" type="saturate" values="0.5"/>
    </filter>
    <filter filterUnits="objectBoundingBox" height="100%" id="SaturatePlus" width="100%" x="0%" y="0%">
      <feColorMatrix in="SourceGraphic" type="saturate" values="1.4"/>
    </filter>
    <linearGradient id="BlackGradient">
      <stop offset="0%" style="stop-color:rgb(0,0,0); stop-opacity:0"/>
      <stop offset="100%" style="stop-color:rgb(0,0,0); stop-opacity:0.1"/>
    </linearGradient>
    <linearGradient id="WhiteGradient" x1="0%" x2="100%" y1="0%" y2="0%">
      <stop offset="0%" style="stop-color:rgb(255,255,255); stop-opacity:0.3"/>
      <stop offset="100%" style="stop-color:rgb(255,255,255);stop-opacity:0"/>
    </linearGradient>
    <linearGradient id="WhiteBlackGradient" x1="0%" x2="100%" y1="0%" y2="0%">
      <stop offset="0%" style="stop-color:rgb(255,255,255); stop-opacity:0.15"/>
      <stop offset="100%" style="stop-color:rgb(0,0,0);stop-opacity:0.15"/>
    </linearGradient>
    <linearGradient id="Black0Black1Gradient" x1="0%" x2="0%" y1="0%" y2="100%">
      <stop offset="0%" style="stop-color:rgb(0,0,0); stop-opacity:0"/>
      <stop offset="100%" style="stop-color:rgb(0,0,0);stop-opacity:0.05"/>
    </linearGradient>
  </defs>

  <!--global stroke and font styles-->

  <g id="ID_globals" style="fill:black;stroke:none;font-family:Arial;font-size:12px;font-weight:normal;font-style:normal;text-decoration:none;shape-rendering:crispEdges">
    <!--draw title-->
    <!--********************************draw graph background********************************-->
    <rect fill="rgb(168,168,168)" height="400" id="ID_background_shadow" opacity="1" rx="10" ry="10" stroke="none" transform="translate(1,1)" visibility="visible" width="800" x="42" y="12"/>
    <g fill="rgb(229,229,229)" id="ID_background" opacity="1" stroke="none" visibility="visible">
      <rect height="400" rx="10" ry="10" stroke="none" width="800" x="42" y="12"/>
      <rect fill="url(#Black0Black1Gradient)" height="400" rx="10" ry="10" stroke="none" width="800" x="42" y="12"/>
    </g>
    <clipPath id="ID_backgroundClipPath">
      <rect height="401" rx="10" ry="10" width="801" x="41" y="11"/>
    </clipPath>
    <!--********************************draw Y Labels********************************-->
    <g id="ID_y$value" style="fill:black;stroke:none;font-family:Arial;font-size:12px;font-weight:normal;font-style:normal;text-decoration:none;filter:none" visibility="visible">
      <text text-anchor="end" x="30" y="18">70</text>
      <text text-anchor="end" x="30" y="48.77">60</text>
      <text text-anchor="end" x="30" y="79.54">50</text>
      <text text-anchor="end" x="30" y="110.31">40</text>
      <text text-anchor="end" x="30" y="141.08">30</text>
      <text text-anchor="end" x="30" y="171.85">20</text>
      <text text-anchor="end" x="30" y="202.62">10</text>
      <text text-anchor="end" x="30" y="233.39">0</text>
      <text text-anchor="end" x="30" y="264.16">-10</text>
      <text text-anchor="end" x="30" y="294.93">-20</text>
      <text text-anchor="end" x="30" y="325.7">-30</text>
      <text text-anchor="end" x="30" y="356.47">-40</text>
      <text text-anchor="end" x="30" y="387.24">-50</text>
      <text text-anchor="end" x="30" y="418.01">-60</text>
    </g>
    <!--********************************draw X Labels********************************-->
    <!--draw axis x labels-->
    <g id="ID_x$value" style="fill:black;stroke:none;font-family:Arial;font-size:12px;font-weight:normal;font-style:normal;text-decoration:none;filter:none" visibility="visible">
      <text text-anchor="middle" x="92" y="436">08:00:00</text>
      <text text-anchor="middle" x="192" y="436">09:00:00</text>
      <text text-anchor="middle" x="292" y="436">10:00:00</text>
      <text text-anchor="middle" x="392" y="436">11:00:00</text>
      <text text-anchor="middle" x="492" y="436">11:15:00</text>
      <text text-anchor="middle" x="592" y="436">14:45:00</text>
      <text text-anchor="middle" x="692" y="436">15:00:00</text>
      <text text-anchor="middle" x="792" y="436">16:00:00</text>
    </g>
    <g style="clip-path: url(#ID_backgroundClipPath)">
      <!--******************************** draw Y grid lines******************************** (Horizontal lines)-->
      <g id="ID_y_grid" stroke="#a8a8a8" stroke-width="1">
        <line x1="42" x2="842" y1="42.77" y2="42.77"/>
        <line x1="42" x2="842" y1="73.54" y2="73.54"/>
        <line x1="42" x2="842" y1="104.31" y2="104.31"/>
        <line x1="42" x2="842" y1="135.08" y2="135.08"/>
        <line x1="42" x2="842" y1="165.85" y2="165.85"/>
        <line x1="42" x2="842" y1="196.62" y2="196.62"/>
        <line x1="42" x2="842" y1="227.39" y2="227.39"/>
        <line x1="42" x2="842" y1="258.16" y2="258.16"/>
        <line x1="42" x2="842" y1="288.93" y2="288.93"/>
        <line x1="42" x2="842" y1="319.7" y2="319.7"/>
        <line x1="42" x2="842" y1="350.47" y2="350.47"/>
        <line x1="42" x2="842" y1="381.24" y2="381.24"/>
      </g>
      <!--draw Y grid lines SHADOWS-->
      <g id="ID_y_grid_shadow" stroke="#ffffff" stroke-width="1">
        <line transform="translate(0,1)" x1="42" x2="842" y1="42.77" y2="42.77"/>
        <line transform="translate(0,1)" x1="42" x2="842" y1="73.54" y2="73.54"/>
        <line transform="translate(0,1)" x1="42" x2="842" y1="104.31" y2="104.31"/>
        <line transform="translate(0,1)" x1="42" x2="842" y1="135.08" y2="135.08"/>
        <line transform="translate(0,1)" x1="42" x2="842" y1="165.85" y2="165.85"/>
        <line transform="translate(0,1)" x1="42" x2="842" y1="196.62" y2="196.62"/>
        <line transform="translate(0,1)" x1="42" x2="842" y1="227.39" y2="227.39"/>
        <line transform="translate(0,1)" x1="42" x2="842" y1="258.16" y2="258.16"/>
        <line transform="translate(0,1)" x1="42" x2="842" y1="288.93" y2="288.93"/>
        <line transform="translate(0,1)" x1="42" x2="842" y1="319.7" y2="319.7"/>
        <line transform="translate(0,1)" x1="42" x2="842" y1="350.47" y2="350.47"/>
        <line transform="translate(0,1)" x1="42" x2="842" y1="381.24" y2="381.24"/>
      </g>
      <g id="ID_y0_axis" stroke="rgb(100,100,100)" stroke-width="1" visibility="visible">
        <line x1="42" x2="842" y1="227.38" y2="227.38"/>
      </g>
      <!--********************************draw X grid lines******************************** (Vertical lines)-->
      <g id="ID_x_grid" stroke="#a8a8a8" stroke-width="1">
        <line x1="142" x2="142" y1="12" y2="412"/>
        <line x1="242" x2="242" y1="12" y2="412"/>
        <line x1="342" x2="342" y1="12" y2="412"/>
        <line x1="442" x2="442" y1="12" y2="412"/>
        <line x1="542" x2="542" y1="12" y2="412"/>
        <line x1="642" x2="642" y1="12" y2="412"/>
        <line x1="742" x2="742" y1="12" y2="412"/>
        <line x1="842" x2="842" y1="12" y2="412"/>
      </g>
      <!--draw X grid lines SHADOWS -->
      <g id="ID_x_grid_shadow" stroke="#ffffff" stroke-width="1">
        <line transform="translate(1,0)" x1="142" x2="142" y1="12" y2="412"/>
        <line transform="translate(1,0)" x1="242" x2="242" y1="12" y2="412"/>
        <line transform="translate(1,0)" x1="342" x2="342" y1="12" y2="412"/>
        <line transform="translate(1,0)" x1="442" x2="442" y1="12" y2="412"/>
        <line transform="translate(1,0)" x1="542" x2="542" y1="12" y2="412"/>
        <line transform="translate(1,0)" x1="642" x2="642" y1="12" y2="412"/>
        <line transform="translate(1,0)" x1="742" x2="742" y1="12" y2="412"/>
        <line transform="translate(1,0)" x1="842" x2="842" y1="12" y2="412"/>
      </g>
    </g>
    <!--******************************** draw legend ***********************************-->
    <g filter="none" id="ID_legend" transform="translate(854,12)" visibility="visible">
      <!--draw legend border-->
      <rect fill="rgb(168,168,168)" fill-opacity="1" height="190" id="ID_legend_border_shadow" rx="10" ry="10" stroke="none" transform="translate(1,1)" width="152" x="0" y="0"/>
      <rect fill="rgb(229,229,229)" fill-opacity="1" height="190" id="ID_legend_border" rx="10" ry="10" stroke="none" stroke-width="0" width="152" x="0" y="0"/>
      <!--draw legend bullets-->
      <g id="ID_legend_bullets" stroke="none">
        <g fill="rgb(0,178,195)" id="ID_legend_1">
          <rect height="20" rx="3" ry="3" width="20" x="10" y="10"/>
          <rect fill="url(#WhiteBlackGradient)" height="20" rx="3" ry="3" width="20" x="10" y="10"/>
          <rect fill-opacity="0.3" filter="url(#SaturateMinus)" height="20" rx="3" ry="3" width="20" x="10" y="10"/>
        </g>
        <g fill="rgb(255,195,56)" id="ID_legend_2">
          <rect height="20" rx="3" ry="3" width="20" x="10" y="40"/>
          <rect fill="url(#WhiteBlackGradient)" height="20" rx="3" ry="3" width="20" x="10" y="40"/>
          <rect fill-opacity="0.3" filter="url(#SaturateMinus)" height="20" rx="3" ry="3" width="20" x="10" y="40"/>
        </g>
        <g fill="rgb(87,62,130)" id="ID_legend_3">
          <rect height="20" rx="3" ry="3" width="20" x="10" y="70"/>
          <rect fill="url(#WhiteBlackGradient)" height="20" rx="3" ry="3" width="20" x="10" y="70"/>
          <rect fill-opacity="0.3" filter="url(#SaturateMinus)" height="20" rx="3" ry="3" width="20" x="10" y="70"/>
        </g>
        <g fill="rgb(79,168,57)" id="ID_legend_4">
          <rect height="20" rx="3" ry="3" width="20" x="10" y="100"/>
          <rect fill="url(#WhiteBlackGradient)" height="20" rx="3" ry="3" width="20" x="10" y="100"/>
          <rect fill-opacity="0.3" filter="url(#SaturateMinus)" height="20" rx="3" ry="3" width="20" x="10" y="100"/>
        </g>
        <g fill="rgb(217,87,0)" id="ID_legend_5">
          <rect height="20" rx="3" ry="3" width="20" x="10" y="130"/>
          <rect fill="url(#WhiteBlackGradient)" height="20" rx="3" ry="3" width="20" x="10" y="130"/>
          <rect fill-opacity="0.3" filter="url(#SaturateMinus)" height="20" rx="3" ry="3" width="20" x="10" y="130"/>
        </g>
        <g fill="rgb(29,157,242)" id="ID_legend_6">
          <rect height="20" rx="3" ry="3" width="20" x="10" y="160"/>
          <rect fill="url(#WhiteBlackGradient)" height="20" rx="3" ry="3" width="20" x="10" y="160"/>
          <rect fill-opacity="0.3" filter="url(#SaturateMinus)" height="20" rx="3" ry="3" width="20" x="10" y="160"/>
        </g>
      </g>
      <!--draw legend labels-->
      <g id="ID_legend_labels" style="fill:black;stroke:none;font-family:Arial;;font-weight:normal;font-style:normal;text-decoration:none;filter:none;text-anchor:start">
        <text x="40" y="27">Sharp</text>
        <text x="40" y="57">Infinity</text>
        <text x="40" y="87">Audio Référence</text>
        <text x="40" y="117">Triangle</text>
        <text x="40" y="147">Yamaha</text>
        <text x="40" y="177">Onkyo</text>
      </g>
    </g>
    <g style="clip-path: url(#ID_backgroundClipPath)">
      <g fill="black" fill-opacity="0.2" id="ID_graph_shadow_1">
        <path d="M 0 0 l 0 3.08 s 0 0 0 0 l 76 0 s 0 0 0 -0 l 0 -3.08 z" transform="translate(57,227.38)"/>
        <path d="M 0 0 l 0 -6.15 s 0 -0 0 -0 l 76 0 s 0 0 0 0 l 0 6.15 z" transform="translate(157,227.38)"/>
        <path d="M 0 0 l 0 9.23 s 0 0 0 0 l 76 0 s 0 0 0 -0 l 0 -9.23 z" transform="translate(257,227.38)"/>
        <path d="M 0 0 l 0 -12.31 s 0 -0 0 -0 l 76 0 s 0 0 0 0 l 0 12.31 z" transform="translate(357,227.38)"/>
        <path d="M 0 0 l 0 15.38 s 0 0 0 0 l 76 0 s 0 0 0 -0 l 0 -15.38 z" transform="translate(457,227.38)"/>
        <path d="M 0 0 l 0 -18.46 s 0 -0 0 -0 l 76 0 s 0 0 0 0 l 0 18.46 z" transform="translate(557,227.38)"/>
        <path d="M 0 0 l 0 21.54 s 0 0 0 0 l 76 0 s 0 0 0 -0 l 0 -21.54 z" transform="translate(657,227.38)"/>
        <path d="M 0 0 l 0 -24.62 s 0 -0 0 -0 l 76 0 s 0 0 0 0 l 0 24.62 z" transform="translate(757,227.38)"/>
      </g>
      <g fill="black" fill-opacity="0.2" id="ID_graph_shadow_2">
        <path d="M 0 0 l 0 3.38 s 0 0 0 0 l 76 0 s 0 0 0 -0 l 0 -3.38 z" transform="translate(57,230.46)"/>
        <path d="M 0 0 l 0 -6.77 s 0 -0 0 -0 l 76 0 s 0 0 0 0 l 0 6.77 z" transform="translate(157,221.23)"/>
        <path d="M 0 0 l 0 10.15 s 0 0 0 0 l 76 0 s 0 0 0 -0 l 0 -10.15 z" transform="translate(257,236.61)"/>
        <path d="M 0 0 l 0 -13.54 s 0 -0 0 -0 l 76 0 s 0 0 0 0 l 0 13.54 z" transform="translate(357,215.07)"/>
        <path d="M 0 0 l 0 16.92 s 0 0 0 0 l 76 0 s 0 0 0 -0 l 0 -16.92 z" transform="translate(457,242.76)"/>
        <path d="M 0 0 l 0 -20.31 s 0 -0 0 -0 l 76 0 s 0 0 0 0 l 0 20.31 z" transform="translate(557,208.92)"/>
        <path d="M 0 0 l 0 23.69 s 0 0 0 0 l 76 0 s 0 0 0 -0 l 0 -23.69 z" transform="translate(657,248.92)"/>
        <path d="M 0 0 l 0 -27.08 s 0 -0 0 -0 l 76 0 s 0 0 0 0 l 0 27.08 z" transform="translate(757,202.76)"/>
      </g>
      <g fill="black" fill-opacity="0.2" id="ID_graph_shadow_3">
        <path d="M 0 0 l 0 3.72 s 0 0 0 0 l 76 0 s 0 0 0 -0 l 0 -3.72 z" transform="translate(57,233.84)"/>
        <path d="M 0 0 l 0 -7.45 s 0 -0 0 -0 l 76 0 s 0 0 0 0 l 0 7.45 z" transform="translate(157,214.46)"/>
        <path d="M 0 0 l 0 11.17 s 0 0 0 0 l 76 0 s 0 0 0 -0 l 0 -11.17 z" transform="translate(257,246.76)"/>
        <path d="M 0 0 l 0 -14.89 s 0 -0 0 -0 l 76 0 s 0 0 0 0 l 0 14.89 z" transform="translate(357,201.53)"/>
        <path d="M 0 0 l 0 18.62 s 0 0 0 0 l 76 0 s 0 0 0 -0 l 0 -18.62 z" transform="translate(457,259.68)"/>
        <path d="M 0 0 l 0 -22.34 s 0 -0 0 -0 l 76 0 s 0 0 0 0 l 0 22.34 z" transform="translate(557,188.61)"/>
        <path d="M 0 0 l 0 26.06 s 0 0 0 0 l 76 0 s 0 0 0 -0 l 0 -26.06 z" transform="translate(657,272.61)"/>
        <path d="M 0 0 l 0 -29.78 s 0 -0 0 -0 l 76 0 s 0 0 0 0 l 0 29.78 z" transform="translate(757,175.68)"/>
      </g>
      <g fill="black" fill-opacity="0.2" id="ID_graph_shadow_4">
        <path d="M 0 0 l 0 4.1 s 0 0 0 0 l 76 0 s 0 0 0 -0 l 0 -4.1 z" transform="translate(57,237.56)"/>
        <path d="M 0 0 l 0 -8.19 s 0 -0 0 -0 l 76 0 s 0 0 0 0 l 0 8.19 z" transform="translate(157,207.01)"/>
        <path d="M 0 0 l 0 12.29 s 0 0 0 0 l 76 0 s 0 0 0 -0 l 0 -12.29 z" transform="translate(257,257.93)"/>
        <path d="M 0 0 l 0 -16.38 s 0 -0 0 -0 l 76 0 s 0 0 0 0 l 0 16.38 z" transform="translate(357,186.64)"/>
        <path d="M 0 0 l 0 20.48 s 0 0 0 0 l 76 0 s 0 0 0 -0 l 0 -20.48 z" transform="translate(457,278.3)"/>
        <path d="M 0 0 l 0 -24.57 s 0 -0 0 -0 l 76 0 s 0 0 0 0 l 0 24.57 z" transform="translate(557,166.27)"/>
        <path d="M 0 0 l 0 28.67 s 0 0 0 0 l 76 0 s 0 0 0 -0 l 0 -28.67 z" transform="translate(657,298.67)"/>
        <path d="M 0 0 l 0 -32.76 s 0 -0 0 -0 l 76 0 s 0 0 0 0 l 0 32.76 z" transform="translate(757,145.9)"/>
      </g>
      <g fill="black" fill-opacity="0.2" id="ID_graph_shadow_5">
        <path d="M 0 0 l 0 4.5 s 0 0 0 0 l 76 0 s 0 0 0 -0 l 0 -4.5 z" transform="translate(57,241.66)"/>
        <path d="M 0 0 l 0 -9.01 s 0 -0 0 -0 l 76 0 s 0 0 0 0 l 0 9.01 z" transform="translate(157,198.82)"/>
        <path d="M 0 0 l 0 13.51 s 0 0 0 0 l 76 0 s 0 0 0 -0 l 0 -13.51 z" transform="translate(257,270.22)"/>
        <path d="M 0 0 l 0 -18.02 s 0 -0 0 -0 l 76 0 s 0 0 0 0 l 0 18.02 z" transform="translate(357,170.26)"/>
        <path d="M 0 0 l 0 22.52 s 0 0 0 0 l 76 0 s 0 0 0 -0 l 0 -22.52 z" transform="translate(457,298.78)"/>
        <path d="M 0 0 l 0 -27.03 s 0 -0 0 -0 l 76 0 s 0 0 0 0 l 0 27.03 z" transform="translate(557,141.7)"/>
        <path d="M 0 0 l 0 31.53 s 0 0 0 0 l 76 0 s 0 0 0 -0 l 0 -31.53 z" transform="translate(657,327.34)"/>
        <path d="M 0 0 l 0 -36.04 s 0 -0 0 -0 l 76 0 s 0 0 0 0 l 0 36.04 z" transform="translate(757,113.14)"/>
      </g>
      <g fill="black" fill-opacity="0.2" id="ID_graph_shadow_6">
        <path d="M 0 0 l 0 4.96 s 0 0 0 0 l 76 0 s 0 0 0 -0 l 0 -4.96 z" transform="translate(57,246.16)"/>
        <path d="M 0 0 l 0 -9.91 s 0 -0 0 -0 l 76 0 s 0 0 0 0 l 0 9.91 z" transform="translate(157,189.81)"/>
        <path d="M 0 0 l 0 14.87 s 0 0 0 0 l 76 0 s 0 0 0 -0 l 0 -14.87 z" transform="translate(257,283.73)"/>
        <path d="M 0 0 l 0 -19.82 s 0 -0 0 -0 l 76 0 s 0 0 0 0 l 0 19.82 z" transform="translate(357,152.24)"/>
        <path d="M 0 0 l 0 24.78 s 0 0 0 0 l 76 0 s 0 0 0 -0 l 0 -24.78 z" transform="translate(457,321.3)"/>
        <path d="M 0 0 l 0 -29.73 s 0 -0 0 -0 l 76 0 s 0 0 0 0 l 0 29.73 z" transform="translate(557,114.67)"/>
        <path d="M 0 0 l 0 34.69 s 0 0 0 0 l 76 0 s 0 0 0 -0 l 0 -34.69 z" transform="translate(657,358.87)"/>
        <path d="M 0 0 l 0 -39.64 s 0 -0 0 -0 l 76 0 s 0 0 0 0 l 0 39.64 z" transform="translate(757,77.1)"/>
      </g>
      <g fill="rgb(0,178,195)" fill-opacity="1" filter="none" id="ID_graph_shadow_1" opacity="1" stroke="none" stroke-opacity="1" stroke-width="0">
        <path d="M 0 0 l 0 3.08 s 0 0 0 0 l 76 0 s 0 0 0 -0 l 0 -3.08 z" transform="translate(54,227.38)"/>
        <path d="M 0 0 l 0 3.08 s 0 0 0 0 l 76 0 s 0 0 0 -0 l 0 -3.08 z" fill="url(#WhiteBlackGradient)" transform="translate(54,227.38)"/>
        <path d="M 0 0 l 0 3.08 s 0 0 0 0 l 76 0 s 0 0 0 -0 l 0 -3.08 z" fill-opacity="0.3" filter="url(#SaturateMinus)" transform="translate(54,227.38)"/>
        <path d="M 0 0 l 0 -6.15 s 0 -0 0 -0 l 76 0 s 0 0 0 0 l 0 6.15 z" transform="translate(154,227.38)"/>
        <path d="M 0 0 l 0 -6.15 s 0 -0 0 -0 l 76 0 s 0 0 0 0 l 0 6.15 z" fill="url(#WhiteBlackGradient)" transform="translate(154,227.38)"/>
        <path d="M 0 0 l 0 -6.15 s 0 -0 0 -0 l 76 0 s 0 0 0 0 l 0 6.15 z" fill-opacity="0.3" filter="url(#SaturateMinus)" transform="translate(154,227.38)"/>
        <path d="M 0 0 l 0 9.23 s 0 0 0 0 l 76 0 s 0 0 0 -0 l 0 -9.23 z" transform="translate(254,227.38)"/>
        <path d="M 0 0 l 0 9.23 s 0 0 0 0 l 76 0 s 0 0 0 -0 l 0 -9.23 z" fill="url(#WhiteBlackGradient)" transform="translate(254,227.38)"/>
        <path d="M 0 0 l 0 9.23 s 0 0 0 0 l 76 0 s 0 0 0 -0 l 0 -9.23 z" fill-opacity="0.3" filter="url(#SaturateMinus)" transform="translate(254,227.38)"/>
        <path d="M 0 0 l 0 -12.31 s 0 -0 0 -0 l 76 0 s 0 0 0 0 l 0 12.31 z" transform="translate(354,227.38)"/>
        <path d="M 0 0 l 0 -12.31 s 0 -0 0 -0 l 76 0 s 0 0 0 0 l 0 12.31 z" fill="url(#WhiteBlackGradient)" transform="translate(354,227.38)"/>
        <path d="M 0 0 l 0 -12.31 s 0 -0 0 -0 l 76 0 s 0 0 0 0 l 0 12.31 z" fill-opacity="0.3" filter="url(#SaturateMinus)" transform="translate(354,227.38)"/>
        <path d="M 0 0 l 0 15.38 s 0 0 0 0 l 76 0 s 0 0 0 -0 l 0 -15.38 z" transform="translate(454,227.38)"/>
        <path d="M 0 0 l 0 15.38 s 0 0 0 0 l 76 0 s 0 0 0 -0 l 0 -15.38 z" fill="url(#WhiteBlackGradient)" transform="translate(454,227.38)"/>
        <path d="M 0 0 l 0 15.38 s 0 0 0 0 l 76 0 s 0 0 0 -0 l 0 -15.38 z" fill-opacity="0.3" filter="url(#SaturateMinus)" transform="translate(454,227.38)"/>
        <path d="M 0 0 l 0 -18.46 s 0 -0 0 -0 l 76 0 s 0 0 0 0 l 0 18.46 z" transform="translate(554,227.38)"/>
        <path d="M 0 0 l 0 -18.46 s 0 -0 0 -0 l 76 0 s 0 0 0 0 l 0 18.46 z" fill="url(#WhiteBlackGradient)" transform="translate(554,227.38)"/>
        <path d="M 0 0 l 0 -18.46 s 0 -0 0 -0 l 76 0 s 0 0 0 0 l 0 18.46 z" fill-opacity="0.3" filter="url(#SaturateMinus)" transform="translate(554,227.38)"/>
        <path d="M 0 0 l 0 21.54 s 0 0 0 0 l 76 0 s 0 0 0 -0 l 0 -21.54 z" transform="translate(654,227.38)"/>
        <path d="M 0 0 l 0 21.54 s 0 0 0 0 l 76 0 s 0 0 0 -0 l 0 -21.54 z" fill="url(#WhiteBlackGradient)" transform="translate(654,227.38)"/>
        <path d="M 0 0 l 0 21.54 s 0 0 0 0 l 76 0 s 0 0 0 -0 l 0 -21.54 z" fill-opacity="0.3" filter="url(#SaturateMinus)" transform="translate(654,227.38)"/>
        <path d="M 0 0 l 0 -24.62 s 0 -0 0 -0 l 76 0 s 0 0 0 0 l 0 24.62 z" transform="translate(754,227.38)"/>
        <path d="M 0 0 l 0 -24.62 s 0 -0 0 -0 l 76 0 s 0 0 0 0 l 0 24.62 z" fill="url(#WhiteBlackGradient)" transform="translate(754,227.38)"/>
        <path d="M 0 0 l 0 -24.62 s 0 -0 0 -0 l 76 0 s 0 0 0 0 l 0 24.62 z" fill-opacity="0.3" filter="url(#SaturateMinus)" transform="translate(754,227.38)"/>
      </g>
      <g fill="rgb(255,195,56)" fill-opacity="1" filter="none" id="ID_graph_shadow_2" opacity="1" stroke="none" stroke-opacity="1" stroke-width="0">
        <path d="M 0 0 l 0 3.38 s 0 0 0 0 l 76 0 s 0 0 0 -0 l 0 -3.38 z" transform="translate(54,230.46)"/>
        <path d="M 0 0 l 0 3.38 s 0 0 0 0 l 76 0 s 0 0 0 -0 l 0 -3.38 z" fill="url(#WhiteBlackGradient)" transform="translate(54,230.46)"/>
        <path d="M 0 0 l 0 3.38 s 0 0 0 0 l 76 0 s 0 0 0 -0 l 0 -3.38 z" fill-opacity="0.3" filter="url(#SaturateMinus)" transform="translate(54,230.46)"/>
        <path d="M 0 0 l 0 -6.77 s 0 -0 0 -0 l 76 0 s 0 0 0 0 l 0 6.77 z" transform="translate(154,221.23)"/>
        <path d="M 0 0 l 0 -6.77 s 0 -0 0 -0 l 76 0 s 0 0 0 0 l 0 6.77 z" fill="url(#WhiteBlackGradient)" transform="translate(154,221.23)"/>
        <path d="M 0 0 l 0 -6.77 s 0 -0 0 -0 l 76 0 s 0 0 0 0 l 0 6.77 z" fill-opacity="0.3" filter="url(#SaturateMinus)" transform="translate(154,221.23)"/>
        <path d="M 0 0 l 0 10.15 s 0 0 0 0 l 76 0 s 0 0 0 -0 l 0 -10.15 z" transform="translate(254,236.61)"/>
        <path d="M 0 0 l 0 10.15 s 0 0 0 0 l 76 0 s 0 0 0 -0 l 0 -10.15 z" fill="url(#WhiteBlackGradient)" transform="translate(254,236.61)"/>
        <path d="M 0 0 l 0 10.15 s 0 0 0 0 l 76 0 s 0 0 0 -0 l 0 -10.15 z" fill-opacity="0.3" filter="url(#SaturateMinus)" transform="translate(254,236.61)"/>
        <path d="M 0 0 l 0 -13.54 s 0 -0 0 -0 l 76 0 s 0 0 0 0 l 0 13.54 z" transform="translate(354,215.07)"/>
        <path d="M 0 0 l 0 -13.54 s 0 -0 0 -0 l 76 0 s 0 0 0 0 l 0 13.54 z" fill="url(#WhiteBlackGradient)" transform="translate(354,215.07)"/>
        <path d="M 0 0 l 0 -13.54 s 0 -0 0 -0 l 76 0 s 0 0 0 0 l 0 13.54 z" fill-opacity="0.3" filter="url(#SaturateMinus)" transform="translate(354,215.07)"/>
        <path d="M 0 0 l 0 16.92 s 0 0 0 0 l 76 0 s 0 0 0 -0 l 0 -16.92 z" transform="translate(454,242.76)"/>
        <path d="M 0 0 l 0 16.92 s 0 0 0 0 l 76 0 s 0 0 0 -0 l 0 -16.92 z" fill="url(#WhiteBlackGradient)" transform="translate(454,242.76)"/>
        <path d="M 0 0 l 0 16.92 s 0 0 0 0 l 76 0 s 0 0 0 -0 l 0 -16.92 z" fill-opacity="0.3" filter="url(#SaturateMinus)" transform="translate(454,242.76)"/>
        <path d="M 0 0 l 0 -20.31 s 0 -0 0 -0 l 76 0 s 0 0 0 0 l 0 20.31 z" transform="translate(554,208.92)"/>
        <path d="M 0 0 l 0 -20.31 s 0 -0 0 -0 l 76 0 s 0 0 0 0 l 0 20.31 z" fill="url(#WhiteBlackGradient)" transform="translate(554,208.92)"/>
        <path d="M 0 0 l 0 -20.31 s 0 -0 0 -0 l 76 0 s 0 0 0 0 l 0 20.31 z" fill-opacity="0.3" filter="url(#SaturateMinus)" transform="translate(554,208.92)"/>
        <path d="M 0 0 l 0 23.69 s 0 0 0 0 l 76 0 s 0 0 0 -0 l 0 -23.69 z" transform="translate(654,248.92)"/>
        <path d="M 0 0 l 0 23.69 s 0 0 0 0 l 76 0 s 0 0 0 -0 l 0 -23.69 z" fill="url(#WhiteBlackGradient)" transform="translate(654,248.92)"/>
        <path d="M 0 0 l 0 23.69 s 0 0 0 0 l 76 0 s 0 0 0 -0 l 0 -23.69 z" fill-opacity="0.3" filter="url(#SaturateMinus)" transform="translate(654,248.92)"/>
        <path d="M 0 0 l 0 -27.08 s 0 -0 0 -0 l 76 0 s 0 0 0 0 l 0 27.08 z" transform="translate(754,202.76)"/>
        <path d="M 0 0 l 0 -27.08 s 0 -0 0 -0 l 76 0 s 0 0 0 0 l 0 27.08 z" fill="url(#WhiteBlackGradient)" transform="translate(754,202.76)"/>
        <path d="M 0 0 l 0 -27.08 s 0 -0 0 -0 l 76 0 s 0 0 0 0 l 0 27.08 z" fill-opacity="0.3" filter="url(#SaturateMinus)" transform="translate(754,202.76)"/>
      </g>
      <g fill="rgb(87,62,130)" fill-opacity="1" filter="none" id="ID_graph_shadow_3" opacity="1" stroke="none" stroke-opacity="1" stroke-width="0">
        <path d="M 0 0 l 0 3.72 s 0 0 0 0 l 76 0 s 0 0 0 -0 l 0 -3.72 z" transform="translate(54,233.84)"/>
        <path d="M 0 0 l 0 3.72 s 0 0 0 0 l 76 0 s 0 0 0 -0 l 0 -3.72 z" fill="url(#WhiteBlackGradient)" transform="translate(54,233.84)"/>
        <path d="M 0 0 l 0 3.72 s 0 0 0 0 l 76 0 s 0 0 0 -0 l 0 -3.72 z" fill-opacity="0.3" filter="url(#SaturateMinus)" transform="translate(54,233.84)"/>
        <path d="M 0 0 l 0 -7.45 s 0 -0 0 -0 l 76 0 s 0 0 0 0 l 0 7.45 z" transform="translate(154,214.46)"/>
        <path d="M 0 0 l 0 -7.45 s 0 -0 0 -0 l 76 0 s 0 0 0 0 l 0 7.45 z" fill="url(#WhiteBlackGradient)" transform="translate(154,214.46)"/>
        <path d="M 0 0 l 0 -7.45 s 0 -0 0 -0 l 76 0 s 0 0 0 0 l 0 7.45 z" fill-opacity="0.3" filter="url(#SaturateMinus)" transform="translate(154,214.46)"/>
        <path d="M 0 0 l 0 11.17 s 0 0 0 0 l 76 0 s 0 0 0 -0 l 0 -11.17 z" transform="translate(254,246.76)"/>
        <path d="M 0 0 l 0 11.17 s 0 0 0 0 l 76 0 s 0 0 0 -0 l 0 -11.17 z" fill="url(#WhiteBlackGradient)" transform="translate(254,246.76)"/>
        <path d="M 0 0 l 0 11.17 s 0 0 0 0 l 76 0 s 0 0 0 -0 l 0 -11.17 z" fill-opacity="0.3" filter="url(#SaturateMinus)" transform="translate(254,246.76)"/>
        <path d="M 0 0 l 0 -14.89 s 0 -0 0 -0 l 76 0 s 0 0 0 0 l 0 14.89 z" transform="translate(354,201.53)"/>
        <path d="M 0 0 l 0 -14.89 s 0 -0 0 -0 l 76 0 s 0 0 0 0 l 0 14.89 z" fill="url(#WhiteBlackGradient)" transform="translate(354,201.53)"/>
        <path d="M 0 0 l 0 -14.89 s 0 -0 0 -0 l 76 0 s 0 0 0 0 l 0 14.89 z" fill-opacity="0.3" filter="url(#SaturateMinus)" transform="translate(354,201.53)"/>
        <path d="M 0 0 l 0 18.62 s 0 0 0 0 l 76 0 s 0 0 0 -0 l 0 -18.62 z" transform="translate(454,259.68)"/>
        <path d="M 0 0 l 0 18.62 s 0 0 0 0 l 76 0 s 0 0 0 -0 l 0 -18.62 z" fill="url(#WhiteBlackGradient)" transform="translate(454,259.68)"/>
        <path d="M 0 0 l 0 18.62 s 0 0 0 0 l 76 0 s 0 0 0 -0 l 0 -18.62 z" fill-opacity="0.3" filter="url(#SaturateMinus)" transform="translate(454,259.68)"/>
        <path d="M 0 0 l 0 -22.34 s 0 -0 0 -0 l 76 0 s 0 0 0 0 l 0 22.34 z" transform="translate(554,188.61)"/>
        <path d="M 0 0 l 0 -22.34 s 0 -0 0 -0 l 76 0 s 0 0 0 0 l 0 22.34 z" fill="url(#WhiteBlackGradient)" transform="translate(554,188.61)"/>
        <path d="M 0 0 l 0 -22.34 s 0 -0 0 -0 l 76 0 s 0 0 0 0 l 0 22.34 z" fill-opacity="0.3" filter="url(#SaturateMinus)" transform="translate(554,188.61)"/>
        <path d="M 0 0 l 0 26.06 s 0 0 0 0 l 76 0 s 0 0 0 -0 l 0 -26.06 z" transform="translate(654,272.61)"/>
        <path d="M 0 0 l 0 26.06 s 0 0 0 0 l 76 0 s 0 0 0 -0 l 0 -26.06 z" fill="url(#WhiteBlackGradient)" transform="translate(654,272.61)"/>
        <path d="M 0 0 l 0 26.06 s 0 0 0 0 l 76 0 s 0 0 0 -0 l 0 -26.06 z" fill-opacity="0.3" filter="url(#SaturateMinus)" transform="translate(654,272.61)"/>
        <path d="M 0 0 l 0 -29.78 s 0 -0 0 -0 l 76 0 s 0 0 0 0 l 0 29.78 z" transform="translate(754,175.68)"/>
        <path d="M 0 0 l 0 -29.78 s 0 -0 0 -0 l 76 0 s 0 0 0 0 l 0 29.78 z" fill="url(#WhiteBlackGradient)" transform="translate(754,175.68)"/>
        <path d="M 0 0 l 0 -29.78 s 0 -0 0 -0 l 76 0 s 0 0 0 0 l 0 29.78 z" fill-opacity="0.3" filter="url(#SaturateMinus)" transform="translate(754,175.68)"/>
      </g>
      <g fill="rgb(79,168,57)" fill-opacity="1" filter="none" id="ID_graph_shadow_4" opacity="1" stroke="none" stroke-opacity="1" stroke-width="0">
        <path d="M 0 0 l 0 4.1 s 0 0 0 0 l 76 0 s 0 0 0 -0 l 0 -4.1 z" transform="translate(54,237.56)"/>
        <path d="M 0 0 l 0 4.1 s 0 0 0 0 l 76 0 s 0 0 0 -0 l 0 -4.1 z" fill="url(#WhiteBlackGradient)" transform="translate(54,237.56)"/>
        <path d="M 0 0 l 0 4.1 s 0 0 0 0 l 76 0 s 0 0 0 -0 l 0 -4.1 z" fill-opacity="0.3" filter="url(#SaturateMinus)" transform="translate(54,237.56)"/>
        <path d="M 0 0 l 0 -8.19 s 0 -0 0 -0 l 76 0 s 0 0 0 0 l 0 8.19 z" transform="translate(154,207.01)"/>
        <path d="M 0 0 l 0 -8.19 s 0 -0 0 -0 l 76 0 s 0 0 0 0 l 0 8.19 z" fill="url(#WhiteBlackGradient)" transform="translate(154,207.01)"/>
        <path d="M 0 0 l 0 -8.19 s 0 -0 0 -0 l 76 0 s 0 0 0 0 l 0 8.19 z" fill-opacity="0.3" filter="url(#SaturateMinus)" transform="translate(154,207.01)"/>
        <path d="M 0 0 l 0 12.29 s 0 0 0 0 l 76 0 s 0 0 0 -0 l 0 -12.29 z" transform="translate(254,257.93)"/>
        <path d="M 0 0 l 0 12.29 s 0 0 0 0 l 76 0 s 0 0 0 -0 l 0 -12.29 z" fill="url(#WhiteBlackGradient)" transform="translate(254,257.93)"/>
        <path d="M 0 0 l 0 12.29 s 0 0 0 0 l 76 0 s 0 0 0 -0 l 0 -12.29 z" fill-opacity="0.3" filter="url(#SaturateMinus)" transform="translate(254,257.93)"/>
        <path d="M 0 0 l 0 -16.38 s 0 -0 0 -0 l 76 0 s 0 0 0 0 l 0 16.38 z" transform="translate(354,186.64)"/>
        <path d="M 0 0 l 0 -16.38 s 0 -0 0 -0 l 76 0 s 0 0 0 0 l 0 16.38 z" fill="url(#WhiteBlackGradient)" transform="translate(354,186.64)"/>
        <path d="M 0 0 l 0 -16.38 s 0 -0 0 -0 l 76 0 s 0 0 0 0 l 0 16.38 z" fill-opacity="0.3" filter="url(#SaturateMinus)" transform="translate(354,186.64)"/>
        <path d="M 0 0 l 0 20.48 s 0 0 0 0 l 76 0 s 0 0 0 -0 l 0 -20.48 z" transform="translate(454,278.3)"/>
        <path d="M 0 0 l 0 20.48 s 0 0 0 0 l 76 0 s 0 0 0 -0 l 0 -20.48 z" fill="url(#WhiteBlackGradient)" transform="translate(454,278.3)"/>
        <path d="M 0 0 l 0 20.48 s 0 0 0 0 l 76 0 s 0 0 0 -0 l 0 -20.48 z" fill-opacity="0.3" filter="url(#SaturateMinus)" transform="translate(454,278.3)"/>
        <path d="M 0 0 l 0 -24.57 s 0 -0 0 -0 l 76 0 s 0 0 0 0 l 0 24.57 z" transform="translate(554,166.27)"/>
        <path d="M 0 0 l 0 -24.57 s 0 -0 0 -0 l 76 0 s 0 0 0 0 l 0 24.57 z" fill="url(#WhiteBlackGradient)" transform="translate(554,166.27)"/>
        <path d="M 0 0 l 0 -24.57 s 0 -0 0 -0 l 76 0 s 0 0 0 0 l 0 24.57 z" fill-opacity="0.3" filter="url(#SaturateMinus)" transform="translate(554,166.27)"/>
        <path d="M 0 0 l 0 28.67 s 0 0 0 0 l 76 0 s 0 0 0 -0 l 0 -28.67 z" transform="translate(654,298.67)"/>
        <path d="M 0 0 l 0 28.67 s 0 0 0 0 l 76 0 s 0 0 0 -0 l 0 -28.67 z" fill="url(#WhiteBlackGradient)" transform="translate(654,298.67)"/>
        <path d="M 0 0 l 0 28.67 s 0 0 0 0 l 76 0 s 0 0 0 -0 l 0 -28.67 z" fill-opacity="0.3" filter="url(#SaturateMinus)" transform="translate(654,298.67)"/>
        <path d="M 0 0 l 0 -32.76 s 0 -0 0 -0 l 76 0 s 0 0 0 0 l 0 32.76 z" transform="translate(754,145.9)"/>
        <path d="M 0 0 l 0 -32.76 s 0 -0 0 -0 l 76 0 s 0 0 0 0 l 0 32.76 z" fill="url(#WhiteBlackGradient)" transform="translate(754,145.9)"/>
        <path d="M 0 0 l 0 -32.76 s 0 -0 0 -0 l 76 0 s 0 0 0 0 l 0 32.76 z" fill-opacity="0.3" filter="url(#SaturateMinus)" transform="translate(754,145.9)"/>
      </g>
      <g fill="rgb(217,87,0)" fill-opacity="1" filter="none" id="ID_graph_shadow_5" opacity="1" stroke="none" stroke-opacity="1" stroke-width="0">
        <path d="M 0 0 l 0 4.5 s 0 0 0 0 l 76 0 s 0 0 0 -0 l 0 -4.5 z" transform="translate(54,241.66)"/>
        <path d="M 0 0 l 0 4.5 s 0 0 0 0 l 76 0 s 0 0 0 -0 l 0 -4.5 z" fill="url(#WhiteBlackGradient)" transform="translate(54,241.66)"/>
        <path d="M 0 0 l 0 4.5 s 0 0 0 0 l 76 0 s 0 0 0 -0 l 0 -4.5 z" fill-opacity="0.3" filter="url(#SaturateMinus)" transform="translate(54,241.66)"/>
        <path d="M 0 0 l 0 -9.01 s 0 -0 0 -0 l 76 0 s 0 0 0 0 l 0 9.01 z" transform="translate(154,198.82)"/>
        <path d="M 0 0 l 0 -9.01 s 0 -0 0 -0 l 76 0 s 0 0 0 0 l 0 9.01 z" fill="url(#WhiteBlackGradient)" transform="translate(154,198.82)"/>
        <path d="M 0 0 l 0 -9.01 s 0 -0 0 -0 l 76 0 s 0 0 0 0 l 0 9.01 z" fill-opacity="0.3" filter="url(#SaturateMinus)" transform="translate(154,198.82)"/>
        <path d="M 0 0 l 0 13.51 s 0 0 0 0 l 76 0 s 0 0 0 -0 l 0 -13.51 z" transform="translate(254,270.22)"/>
        <path d="M 0 0 l 0 13.51 s 0 0 0 0 l 76 0 s 0 0 0 -0 l 0 -13.51 z" fill="url(#WhiteBlackGradient)" transform="translate(254,270.22)"/>
        <path d="M 0 0 l 0 13.51 s 0 0 0 0 l 76 0 s 0 0 0 -0 l 0 -13.51 z" fill-opacity="0.3" filter="url(#SaturateMinus)" transform="translate(254,270.22)"/>
        <path d="M 0 0 l 0 -18.02 s 0 -0 0 -0 l 76 0 s 0 0 0 0 l 0 18.02 z" transform="translate(354,170.26)"/>
        <path d="M 0 0 l 0 -18.02 s 0 -0 0 -0 l 76 0 s 0 0 0 0 l 0 18.02 z" fill="url(#WhiteBlackGradient)" transform="translate(354,170.26)"/>
        <path d="M 0 0 l 0 -18.02 s 0 -0 0 -0 l 76 0 s 0 0 0 0 l 0 18.02 z" fill-opacity="0.3" filter="url(#SaturateMinus)" transform="translate(354,170.26)"/>
        <path d="M 0 0 l 0 22.52 s 0 0 0 0 l 76 0 s 0 0 0 -0 l 0 -22.52 z" transform="translate(454,298.78)"/>
        <path d="M 0 0 l 0 22.52 s 0 0 0 0 l 76 0 s 0 0 0 -0 l 0 -22.52 z" fill="url(#WhiteBlackGradient)" transform="translate(454,298.78)"/>
        <path d="M 0 0 l 0 22.52 s 0 0 0 0 l 76 0 s 0 0 0 -0 l 0 -22.52 z" fill-opacity="0.3" filter="url(#SaturateMinus)" transform="translate(454,298.78)"/>
        <path d="M 0 0 l 0 -27.03 s 0 -0 0 -0 l 76 0 s 0 0 0 0 l 0 27.03 z" transform="translate(554,141.7)"/>
        <path d="M 0 0 l 0 -27.03 s 0 -0 0 -0 l 76 0 s 0 0 0 0 l 0 27.03 z" fill="url(#WhiteBlackGradient)" transform="translate(554,141.7)"/>
        <path d="M 0 0 l 0 -27.03 s 0 -0 0 -0 l 76 0 s 0 0 0 0 l 0 27.03 z" fill-opacity="0.3" filter="url(#SaturateMinus)" transform="translate(554,141.7)"/>
        <path d="M 0 0 l 0 31.53 s 0 0 0 0 l 76 0 s 0 0 0 -0 l 0 -31.53 z" transform="translate(654,327.34)"/>
        <path d="M 0 0 l 0 31.53 s 0 0 0 0 l 76 0 s 0 0 0 -0 l 0 -31.53 z" fill="url(#WhiteBlackGradient)" transform="translate(654,327.34)"/>
        <path d="M 0 0 l 0 31.53 s 0 0 0 0 l 76 0 s 0 0 0 -0 l 0 -31.53 z" fill-opacity="0.3" filter="url(#SaturateMinus)" transform="translate(654,327.34)"/>
        <path d="M 0 0 l 0 -36.04 s 0 -0 0 -0 l 76 0 s 0 0 0 0 l 0 36.04 z" transform="translate(754,113.14)"/>
        <path d="M 0 0 l 0 -36.04 s 0 -0 0 -0 l 76 0 s 0 0 0 0 l 0 36.04 z" fill="url(#WhiteBlackGradient)" transform="translate(754,113.14)"/>
        <path d="M 0 0 l 0 -36.04 s 0 -0 0 -0 l 76 0 s 0 0 0 0 l 0 36.04 z" fill-opacity="0.3" filter="url(#SaturateMinus)" transform="translate(754,113.14)"/>
      </g>
      <g fill="rgb(29,157,242)" fill-opacity="1" filter="none" id="ID_graph_shadow_6" opacity="1" stroke="none" stroke-opacity="1" stroke-width="0">
        <path d="M 0 0 l 0 4.96 s 0 0 0 0 l 76 0 s 0 0 0 -0 l 0 -4.96 z" transform="translate(54,246.16)"/>
        <path d="M 0 0 l 0 4.96 s 0 0 0 0 l 76 0 s 0 0 0 -0 l 0 -4.96 z" fill="url(#WhiteBlackGradient)" transform="translate(54,246.16)"/>
        <path d="M 0 0 l 0 4.96 s 0 0 0 0 l 76 0 s 0 0 0 -0 l 0 -4.96 z" fill-opacity="0.3" filter="url(#SaturateMinus)" transform="translate(54,246.16)"/>
        <path d="M 0 0 l 0 -9.91 s 0 -0 0 -0 l 76 0 s 0 0 0 0 l 0 9.91 z" transform="translate(154,189.81)"/>
        <path d="M 0 0 l 0 -9.91 s 0 -0 0 -0 l 76 0 s 0 0 0 0 l 0 9.91 z" fill="url(#WhiteBlackGradient)" transform="translate(154,189.81)"/>
        <path d="M 0 0 l 0 -9.91 s 0 -0 0 -0 l 76 0 s 0 0 0 0 l 0 9.91 z" fill-opacity="0.3" filter="url(#SaturateMinus)" transform="translate(154,189.81)"/>
        <path d="M 0 0 l 0 14.87 s 0 0 0 0 l 76 0 s 0 0 0 -0 l 0 -14.87 z" transform="translate(254,283.73)"/>
        <path d="M 0 0 l 0 14.87 s 0 0 0 0 l 76 0 s 0 0 0 -0 l 0 -14.87 z" fill="url(#WhiteBlackGradient)" transform="translate(254,283.73)"/>
        <path d="M 0 0 l 0 14.87 s 0 0 0 0 l 76 0 s 0 0 0 -0 l 0 -14.87 z" fill-opacity="0.3" filter="url(#SaturateMinus)" transform="translate(254,283.73)"/>
        <path d="M 0 0 l 0 -19.82 s 0 -0 0 -0 l 76 0 s 0 0 0 0 l 0 19.82 z" transform="translate(354,152.24)"/>
        <path d="M 0 0 l 0 -19.82 s 0 -0 0 -0 l 76 0 s 0 0 0 0 l 0 19.82 z" fill="url(#WhiteBlackGradient)" transform="translate(354,152.24)"/>
        <path d="M 0 0 l 0 -19.82 s 0 -0 0 -0 l 76 0 s 0 0 0 0 l 0 19.82 z" fill-opacity="0.3" filter="url(#SaturateMinus)" transform="translate(354,152.24)"/>
        <path d="M 0 0 l 0 24.78 s 0 0 0 0 l 76 0 s 0 0 0 -0 l 0 -24.78 z" transform="translate(454,321.3)"/>
        <path d="M 0 0 l 0 24.78 s 0 0 0 0 l 76 0 s 0 0 0 -0 l 0 -24.78 z" fill="url(#WhiteBlackGradient)" transform="translate(454,321.3)"/>
        <path d="M 0 0 l 0 24.78 s 0 0 0 0 l 76 0 s 0 0 0 -0 l 0 -24.78 z" fill-opacity="0.3" filter="url(#SaturateMinus)" transform="translate(454,321.3)"/>
        <path d="M 0 0 l 0 -29.73 s 0 -0 0 -0 l 76 0 s 0 0 0 0 l 0 29.73 z" transform="translate(554,114.67)"/>
        <path d="M 0 0 l 0 -29.73 s 0 -0 0 -0 l 76 0 s 0 0 0 0 l 0 29.73 z" fill="url(#WhiteBlackGradient)" transform="translate(554,114.67)"/>
        <path d="M 0 0 l 0 -29.73 s 0 -0 0 -0 l 76 0 s 0 0 0 0 l 0 29.73 z" fill-opacity="0.3" filter="url(#SaturateMinus)" transform="translate(554,114.67)"/>
        <path d="M 0 0 l 0 34.69 s 0 0 0 0 l 76 0 s 0 0 0 -0 l 0 -34.69 z" transform="translate(654,358.87)"/>
        <path d="M 0 0 l 0 34.69 s 0 0 0 0 l 76 0 s 0 0 0 -0 l 0 -34.69 z" fill="url(#WhiteBlackGradient)" transform="translate(654,358.87)"/>
        <path d="M 0 0 l 0 34.69 s 0 0 0 0 l 76 0 s 0 0 0 -0 l 0 -34.69 z" fill-opacity="0.3" filter="url(#SaturateMinus)" transform="translate(654,358.87)"/>
        <path d="M 0 0 l 0 -39.64 s 0 -0 0 -0 l 76 0 s 0 0 0 0 l 0 39.64 z" transform="translate(754,77.1)"/>
        <path d="M 0 0 l 0 -39.64 s 0 -0 0 -0 l 76 0 s 0 0 0 0 l 0 39.64 z" fill="url(#WhiteBlackGradient)" transform="translate(754,77.1)"/>
        <path d="M 0 0 l 0 -39.64 s 0 -0 0 -0 l 76 0 s 0 0 0 0 l 0 39.64 z" fill-opacity="0.3" filter="url(#SaturateMinus)" transform="translate(754,77.1)"/>
      </g>
    </g>
  </g>

</svg>