
<svg xmlns="http://www.w3.org/2000/svg" id="ID_svg" viewBox="0 0 1187.96 466" viewport-fill="darkblue" viewport-fill-opacity="0.25" xmlns:exsl4D="http://www.4D.com" xmlns:gFunc="http://gFunc" xmlns:math="http://exslt.org/math" xmlns:xlink="http://www.w3.org/1999/xlink">

  <!--gradient styles-->

  <defs>
    <filter id="soft_blur">
      <feGaussianBlur in="SourceGraphic" result="BlurAlpha" stdDeviation="1"/>
    </filter>
    <filter id="pastel">
      <feGaussianBlur in="SourceAlpha" result="blur" stdDeviation="2"/>
      <feOffset dx="6" dy="6" in="blur" result="offsetBlur"/>
      <feComposite in="SourceGraphic" in2="offsetBlur" operator="in" result="specOut"/>
    </filter>
    <filter id="blur_shadow">
      <feGaussianBlur in="SourceAlpha" result="blur" stdDeviation="3"/>
      <feOffset dx="4" dy="2" in="blur" result="offsetBlur"/>
      <feBlend in="SourceGraphic" in2="offsetBlur" mode="normal"/>
    </filter>
    <filter filterUnits="objectBoundingBox" id="Shadow">
      <feGaussianBlur in="SourceAlpha" result="flou" stdDeviation="0"/>
      <feColorMatrix in="SourceAlpha" result="flouBlue" type="matrix" values=" 0 0 0 0 0                      0 0 0 0 0                     0 0 0 0 0                      0 0 0 0.3 0"/>
      <feOffset dx="4" dy="4" in="flouBlue" result="flouDecalage"/>
      <feBlend in="SourceGraphic" in2="flouDecalage" mode="normal"/>
    </filter>
    <filter filterUnits="objectBoundingBox" height="100%" id="SaturateMinus" width="100%" x="0%" y="0%">
      <feColorMatrix in="SourceGraphic" type="saturate" values="0.5"/>
    </filter>
    <filter filterUnits="objectBoundingBox" height="100%" id="SaturatePlus" width="100%" x="0%" y="0%">
      <feColorMatrix in="SourceGraphic" type="saturate" values="1.4"/>
    </filter>
    <linearGradient id="BlackGradient">
      <stop offset="0%" style="stop-color:rgb(0,0,0); stop-opacity:0"/>
      <stop offset="100%" style="stop-color:rgb(0,0,0); stop-opacity:0.1"/>
    </linearGradient>
    <linearGradient id="WhiteGradient" x1="0%" x2="100%" y1="0%" y2="0%">
      <stop offset="0%" style="stop-color:rgb(255,255,255); stop-opacity:0.3"/>
      <stop offset="100%" style="stop-color:rgb(255,255,255);stop-opacity:0"/>
    </linearGradient>
    <linearGradient id="WhiteBlackGradient" x1="0%" x2="100%" y1="0%" y2="0%">
      <stop offset="0%" style="stop-color:rgb(255,255,255); stop-opacity:0.15"/>
      <stop offset="100%" style="stop-color:rgb(0,0,0);stop-opacity:0.15"/>
    </linearGradient>
    <linearGradient id="Black0Black1Gradient" x1="0%" x2="0%" y1="0%" y2="100%">
      <stop offset="0%" style="stop-color:rgb(0,0,0); stop-opacity:0"/>
      <stop offset="100%" style="stop-color:rgb(0,0,0);stop-opacity:0.05"/>
    </linearGradient>
  </defs>

  <!--global stroke and font styles-->

  <g id="ID_globals" style="fill:red;stroke:none;font-family:Arial;font-size:14px;font-weight:normal;font-style:normal;text-decoration:none;shape-rendering:crispEdges">
    <!--draw title-->
    <!--********************************draw graph background********************************-->
    <rect fill="darkgreen" height="400" id="ID_background_shadow" opacity="0.5" rx="10" ry="10" stroke="none" transform="translate(1,1)" visibility="visible" width="999.96" x="53" y="20"/>
    <g fill="lightgreen" id="ID_background" opacity="0.5" stroke="none" visibility="visible">
      <rect height="400" rx="10" ry="10" stroke="none" width="999.96" x="53" y="20"/>
      <rect fill="url(#Black0Black1Gradient)" height="400" rx="10" ry="10" stroke="none" width="999.96" x="53" y="20"/>
    </g>
    <clipPath id="ID_backgroundClipPath">
      <rect height="401" rx="10" ry="10" width="1000.96" x="52" y="19"/>
    </clipPath>
    <!--********************************draw Y Labels********************************-->
    <g id="ID_y$value" style="fill:red;stroke:none;font-family:Arial;font-size:14px;font-weight:normal;font-style:normal;text-decoration:none;filter:none" visibility="visible">
      <text text-anchor="end" x="41" y="27">14</text>
      <text text-anchor="end" x="41" y="60.33">12</text>
      <text text-anchor="end" x="41" y="93.66">10</text>
      <text text-anchor="end" x="41" y="126.99">8</text>
      <text text-anchor="end" x="41" y="160.32">6</text>
      <text text-anchor="end" x="41" y="193.65">4</text>
      <text text-anchor="end" x="41" y="226.98">2</text>
      <text text-anchor="end" x="41" y="260.31">0</text>
      <text text-anchor="end" x="41" y="293.64">-2</text>
      <text text-anchor="end" x="41" y="326.97">-4</text>
      <text text-anchor="end" x="41" y="360.3">-6</text>
      <text text-anchor="end" x="41" y="393.63">-8</text>
      <text text-anchor="end" x="41" y="426.96">-10</text>
    </g>
    <!--********************************draw X Labels********************************-->
    <!--draw axis x labels-->
    <g id="ID_x$value" style="fill:red;stroke:none;font-family:Arial;font-size:14px;font-weight:normal;font-style:normal;text-decoration:none;filter:none" visibility="visible">
      <text text-anchor="middle" x="53" y="446">06:00:00</text>
      <text text-anchor="middle" x="136.33" y="446">07:00:00</text>
      <text text-anchor="middle" x="219.66" y="446">08:00:00</text>
      <text text-anchor="middle" x="302.99" y="446">09:00:00</text>
      <text text-anchor="middle" x="386.32" y="446">10:00:00</text>
      <text text-anchor="middle" x="469.65" y="446">11:00:00</text>
      <text text-anchor="middle" x="552.98" y="446">12:00:00</text>
      <text text-anchor="middle" x="636.31" y="446">13:00:00</text>
      <text text-anchor="middle" x="719.64" y="446">14:00:00</text>
      <text text-anchor="middle" x="802.97" y="446">15:00:00</text>
      <text text-anchor="middle" x="886.3" y="446">16:00:00</text>
      <text text-anchor="middle" x="969.63" y="446">17:00:00</text>
      <text text-anchor="middle" x="1052.96" y="446">18:00:00</text>
    </g>
    <g style="clip-path: url(#ID_backgroundClipPath)">
      <!--******************************** draw Y grid lines******************************** (Horizontal lines)-->
      <g id="ID_y_grid" stroke="#a8a8a8" stroke-width="1">
        <line x1="53" x2="1052.96" y1="53.33" y2="53.33"/>
        <line x1="53" x2="1052.96" y1="86.66" y2="86.66"/>
        <line x1="53" x2="1052.96" y1="119.99" y2="119.99"/>
        <line x1="53" x2="1052.96" y1="153.32" y2="153.32"/>
        <line x1="53" x2="1052.96" y1="186.65" y2="186.65"/>
        <line x1="53" x2="1052.96" y1="219.98" y2="219.98"/>
        <line x1="53" x2="1052.96" y1="253.31" y2="253.31"/>
        <line x1="53" x2="1052.96" y1="286.64" y2="286.64"/>
        <line x1="53" x2="1052.96" y1="319.97" y2="319.97"/>
        <line x1="53" x2="1052.96" y1="353.3" y2="353.3"/>
        <line x1="53" x2="1052.96" y1="386.63" y2="386.63"/>
      </g>
      <!--draw Y grid lines SHADOWS-->
      <g id="ID_y_grid_shadow" stroke="#ffffff" stroke-width="1">
        <line transform="translate(0,1)" x1="53" x2="1052.96" y1="53.33" y2="53.33"/>
        <line transform="translate(0,1)" x1="53" x2="1052.96" y1="86.66" y2="86.66"/>
        <line transform="translate(0,1)" x1="53" x2="1052.96" y1="119.99" y2="119.99"/>
        <line transform="translate(0,1)" x1="53" x2="1052.96" y1="153.32" y2="153.32"/>
        <line transform="translate(0,1)" x1="53" x2="1052.96" y1="186.65" y2="186.65"/>
        <line transform="translate(0,1)" x1="53" x2="1052.96" y1="219.98" y2="219.98"/>
        <line transform="translate(0,1)" x1="53" x2="1052.96" y1="253.31" y2="253.31"/>
        <line transform="translate(0,1)" x1="53" x2="1052.96" y1="286.64" y2="286.64"/>
        <line transform="translate(0,1)" x1="53" x2="1052.96" y1="319.97" y2="319.97"/>
        <line transform="translate(0,1)" x1="53" x2="1052.96" y1="353.3" y2="353.3"/>
        <line transform="translate(0,1)" x1="53" x2="1052.96" y1="386.63" y2="386.63"/>
      </g>
      <g id="ID_y0_axis" stroke="rgb(100,100,100)" stroke-width="1" visibility="visible">
        <line x1="53" x2="1052.96" y1="253.33" y2="253.33"/>
      </g>
      <!--********************************draw X grid lines******************************** (Vertical lines)-->
      <g id="ID_x_grid" stroke="#a8a8a8" stroke-width="1">
        <line x1="136.33" x2="136.33" y1="20" y2="420"/>
        <line x1="219.66" x2="219.66" y1="20" y2="420"/>
        <line x1="302.99" x2="302.99" y1="20" y2="420"/>
        <line x1="386.32" x2="386.32" y1="20" y2="420"/>
        <line x1="469.65" x2="469.65" y1="20" y2="420"/>
        <line x1="552.98" x2="552.98" y1="20" y2="420"/>
        <line x1="636.31" x2="636.31" y1="20" y2="420"/>
        <line x1="719.64" x2="719.64" y1="20" y2="420"/>
        <line x1="802.97" x2="802.97" y1="20" y2="420"/>
        <line x1="886.3" x2="886.3" y1="20" y2="420"/>
        <line x1="969.63" x2="969.63" y1="20" y2="420"/>
      </g>
      <!--draw X grid lines SHADOWS -->
      <g id="ID_x_grid_shadow" stroke="#ffffff" stroke-width="1">
        <line transform="translate(1,0)" x1="136.33" x2="136.33" y1="20" y2="420"/>
        <line transform="translate(1,0)" x1="219.66" x2="219.66" y1="20" y2="420"/>
        <line transform="translate(1,0)" x1="302.99" x2="302.99" y1="20" y2="420"/>
        <line transform="translate(1,0)" x1="386.32" x2="386.32" y1="20" y2="420"/>
        <line transform="translate(1,0)" x1="469.65" x2="469.65" y1="20" y2="420"/>
        <line transform="translate(1,0)" x1="552.98" x2="552.98" y1="20" y2="420"/>
        <line transform="translate(1,0)" x1="636.31" x2="636.31" y1="20" y2="420"/>
        <line transform="translate(1,0)" x1="719.64" x2="719.64" y1="20" y2="420"/>
        <line transform="translate(1,0)" x1="802.97" x2="802.97" y1="20" y2="420"/>
        <line transform="translate(1,0)" x1="886.3" x2="886.3" y1="20" y2="420"/>
        <line transform="translate(1,0)" x1="969.63" x2="969.63" y1="20" y2="420"/>
      </g>
    </g>
    <!--******************************** draw legend ***********************************-->
    <g filter="none" id="ID_legend" transform="translate(1064.96,20)" visibility="visible">
      <!--draw legend border-->
      <rect fill="darkgreen" fill-opacity="0.5" height="28" id="ID_legend_border_shadow" rx="10" ry="10" stroke="none" transform="translate(1,1)" width="103" x="0" y="0"/>
      <rect fill="lightgreen" fill-opacity="0.5" height="28" id="ID_legend_border" rx="10" ry="10" stroke="none" stroke-width="0" width="103" x="0" y="0"/>
      <!--draw legend bullets-->
      <g id="ID_legend_bullets" stroke="none">
        <g fill="purple" id="ID_legend_1">
          <rect height="12" rx="3" ry="3" width="24" x="10" y="8"/>
          <rect fill="url(#WhiteBlackGradient)" height="12" rx="3" ry="3" width="24" x="10" y="8"/>
          <rect fill-opacity="0.3" filter="url(#SaturateMinus)" height="12" rx="3" ry="3" width="24" x="10" y="8"/>
        </g>
      </g>
      <!--draw legend labels-->
      <g id="ID_legend_labels" style="fill:black;stroke:none;font-family:Arial;;font-weight:normal;font-style:normal;text-decoration:none;filter:none;text-anchor:start">
        <text x="44" y="17">Sharp</text>
      </g>
    </g>
    <g style="clip-path: url(#ID_backgroundClipPath)">
      <g filter="none" stroke-opacity="1" stroke-width="2">
        <g id="ID_graph_1" stroke="purple">
          <line fill-opacity="1" x1="219.66" x2="302.99" y1="270" y2="220"/>
          <line fill-opacity="1" x1="302.99" x2="386.32" y1="220" y2="303.33"/>
          <line fill-opacity="1" x1="386.32" x2="469.65" y1="303.33" y2="186.66"/>
          <line fill-opacity="1" x1="469.65" x2="490.48" y1="186.66" y2="336.66"/>
          <line fill-opacity="1" x1="490.48" x2="782.14" y1="336.66" y2="153.33"/>
          <line fill-opacity="1" x1="782.14" x2="802.97" y1="153.33" y2="370"/>
          <line fill-opacity="1" x1="802.97" x2="886.3" y1="370" y2="120"/>
        </g>
      </g>
      <g filter="none" opacity="1" stroke="none" stroke-opacity="1" stroke-width="0">
        <g fill="purple" id="ID_graph_1">
          <g transform="translate(209.66,267)">
            <rect fill-opacity="1" height="6" rx="2" ry="2" width="20" x="0" y="0"/>
            <rect fill="url(#WhiteGradient)" height="6" rx="2" ry="2" width="20" x="0" y="0"/>
            <rect fill-opacity="0.4" filter="url(#SaturateMinus)" height="6" rx="2" ry="2" width="20" x="0" y="0"/>
            <rect fill="url(#BlackGradient)" height="6" rx="2" ry="2" width="20" x="0" y="0"/>
          </g>
          <g transform="translate(292.99,217)">
            <rect fill-opacity="1" height="6" rx="2" ry="2" width="20" x="0" y="0"/>
            <rect fill="url(#WhiteGradient)" height="6" rx="2" ry="2" width="20" x="0" y="0"/>
            <rect fill-opacity="0.4" filter="url(#SaturateMinus)" height="6" rx="2" ry="2" width="20" x="0" y="0"/>
            <rect fill="url(#BlackGradient)" height="6" rx="2" ry="2" width="20" x="0" y="0"/>
          </g>
          <g transform="translate(376.32,300.33)">
            <rect fill-opacity="1" height="6" rx="2" ry="2" width="20" x="0" y="0"/>
            <rect fill="url(#WhiteGradient)" height="6" rx="2" ry="2" width="20" x="0" y="0"/>
            <rect fill-opacity="0.4" filter="url(#SaturateMinus)" height="6" rx="2" ry="2" width="20" x="0" y="0"/>
            <rect fill="url(#BlackGradient)" height="6" rx="2" ry="2" width="20" x="0" y="0"/>
          </g>
          <g transform="translate(459.65,183.66)">
            <rect fill-opacity="1" height="6" rx="2" ry="2" width="20" x="0" y="0"/>
            <rect fill="url(#WhiteGradient)" height="6" rx="2" ry="2" width="20" x="0" y="0"/>
            <rect fill-opacity="0.4" filter="url(#SaturateMinus)" height="6" rx="2" ry="2" width="20" x="0" y="0"/>
            <rect fill="url(#BlackGradient)" height="6" rx="2" ry="2" width="20" x="0" y="0"/>
          </g>
          <g transform="translate(480.48,333.66)">
            <rect fill-opacity="1" height="6" rx="2" ry="2" width="20" x="0" y="0"/>
            <rect fill="url(#WhiteGradient)" height="6" rx="2" ry="2" width="20" x="0" y="0"/>
            <rect fill-opacity="0.4" filter="url(#SaturateMinus)" height="6" rx="2" ry="2" width="20" x="0" y="0"/>
            <rect fill="url(#BlackGradient)" height="6" rx="2" ry="2" width="20" x="0" y="0"/>
          </g>
          <g transform="translate(772.14,150.33)">
            <rect fill-opacity="1" height="6" rx="2" ry="2" width="20" x="0" y="0"/>
            <rect fill="url(#WhiteGradient)" height="6" rx="2" ry="2" width="20" x="0" y="0"/>
            <rect fill-opacity="0.4" filter="url(#SaturateMinus)" height="6" rx="2" ry="2" width="20" x="0" y="0"/>
            <rect fill="url(#BlackGradient)" height="6" rx="2" ry="2" width="20" x="0" y="0"/>
          </g>
          <g transform="translate(792.97,367)">
            <rect fill-opacity="1" height="6" rx="2" ry="2" width="20" x="0" y="0"/>
            <rect fill="url(#WhiteGradient)" height="6" rx="2" ry="2" width="20" x="0" y="0"/>
            <rect fill-opacity="0.4" filter="url(#SaturateMinus)" height="6" rx="2" ry="2" width="20" x="0" y="0"/>
            <rect fill="url(#BlackGradient)" height="6" rx="2" ry="2" width="20" x="0" y="0"/>
          </g>
          <g transform="translate(876.3,117)">
            <rect fill-opacity="1" height="6" rx="2" ry="2" width="20" x="0" y="0"/>
            <rect fill="url(#WhiteGradient)" height="6" rx="2" ry="2" width="20" x="0" y="0"/>
            <rect fill-opacity="0.4" filter="url(#SaturateMinus)" height="6" rx="2" ry="2" width="20" x="0" y="0"/>
            <rect fill="url(#BlackGradient)" height="6" rx="2" ry="2" width="20" x="0" y="0"/>
          </g>
        </g>
      </g>
    </g>
  </g>

</svg>