
<svg xmlns="http://www.w3.org/2000/svg" id="ID_svg" viewBox="0 0 2018 466" viewport-fill="darkblue" viewport-fill-opacity="0.25" xmlns:exsl4D="http://www.4D.com" xmlns:gFunc="http://gFunc" xmlns:math="http://exslt.org/math" xmlns:xlink="http://www.w3.org/1999/xlink">

  <!--gradient styles-->

  <defs>
    <filter id="soft_blur">
      <feGaussianBlur in="SourceGraphic" result="BlurAlpha" stdDeviation="1"/>
    </filter>
    <filter id="pastel">
      <feGaussianBlur in="SourceAlpha" result="blur" stdDeviation="2"/>
      <feOffset dx="6" dy="6" in="blur" result="offsetBlur"/>
      <feComposite in="SourceGraphic" in2="offsetBlur" operator="in" result="specOut"/>
    </filter>
    <filter id="blur_shadow">
      <feGaussianBlur in="SourceAlpha" result="blur" stdDeviation="3"/>
      <feOffset dx="4" dy="2" in="blur" result="offsetBlur"/>
      <feBlend in="SourceGraphic" in2="offsetBlur" mode="normal"/>
    </filter>
    <filter filterUnits="objectBoundingBox" id="Shadow">
      <feGaussianBlur in="SourceAlpha" result="flou" stdDeviation="0"/>
      <feColorMatrix in="SourceAlpha" result="flouBlue" type="matrix" values=" 0 0 0 0 0                      0 0 0 0 0                     0 0 0 0 0                      0 0 0 0.3 0"/>
      <feOffset dx="4" dy="4" in="flouBlue" result="flouDecalage"/>
      <feBlend in="SourceGraphic" in2="flouDecalage" mode="normal"/>
    </filter>
    <filter filterUnits="objectBoundingBox" height="100%" id="SaturateMinus" width="100%" x="0%" y="0%">
      <feColorMatrix in="SourceGraphic" type="saturate" values="0.5"/>
    </filter>
    <filter filterUnits="objectBoundingBox" height="100%" id="SaturatePlus" width="100%" x="0%" y="0%">
      <feColorMatrix in="SourceGraphic" type="saturate" values="1.4"/>
    </filter>
    <linearGradient id="BlackGradient">
      <stop offset="0%" style="stop-color:rgb(0,0,0); stop-opacity:0"/>
      <stop offset="100%" style="stop-color:rgb(0,0,0); stop-opacity:0.1"/>
    </linearGradient>
    <linearGradient id="WhiteGradient" x1="0%" x2="100%" y1="0%" y2="0%">
      <stop offset="0%" style="stop-color:rgb(255,255,255); stop-opacity:0.3"/>
      <stop offset="100%" style="stop-color:rgb(255,255,255);stop-opacity:0"/>
    </linearGradient>
    <linearGradient id="WhiteBlackGradient" x1="0%" x2="100%" y1="0%" y2="0%">
      <stop offset="0%" style="stop-color:rgb(255,255,255); stop-opacity:0.15"/>
      <stop offset="100%" style="stop-color:rgb(0,0,0);stop-opacity:0.15"/>
    </linearGradient>
    <linearGradient id="Black0Black1Gradient" x1="0%" x2="0%" y1="0%" y2="100%">
      <stop offset="0%" style="stop-color:rgb(0,0,0); stop-opacity:0"/>
      <stop offset="100%" style="stop-color:rgb(0,0,0);stop-opacity:0.05"/>
    </linearGradient>
  </defs>

  <!--global stroke and font styles-->

  <g id="ID_globals" style="fill:red;stroke:none;font-family:Arial;font-size:14px;font-weight:normal;font-style:normal;text-decoration:none;shape-rendering:crispEdges">
    <!--draw title-->
    <!--********************************draw graph background********************************-->
    <rect fill="darkgreen" height="400" id="ID_background_shadow" opacity="0.5" rx="10" ry="10" stroke="none" transform="translate(1,1)" visibility="visible" width="1760" x="53" y="20"/>
    <g fill="lightgreen" id="ID_background" opacity="0.5" stroke="none" visibility="visible">
      <rect height="400" rx="10" ry="10" stroke="none" width="1760" x="53" y="20"/>
      <rect fill="url(#Black0Black1Gradient)" height="400" rx="10" ry="10" stroke="none" width="1760" x="53" y="20"/>
    </g>
    <clipPath id="ID_backgroundClipPath">
      <rect height="401" rx="10" ry="10" width="1761" x="52" y="19"/>
    </clipPath>
    <!--********************************draw Y Labels********************************-->
    <g id="ID_y$value" style="fill:red;stroke:none;font-family:Arial;font-size:14px;font-weight:normal;font-style:normal;text-decoration:none;filter:none" visibility="visible">
      <text text-anchor="end" x="41" y="27">15</text>
      <text text-anchor="end" x="41" y="67">12</text>
      <text text-anchor="end" x="41" y="107">9</text>
      <text text-anchor="end" x="41" y="147">6</text>
      <text text-anchor="end" x="41" y="187">3</text>
      <text text-anchor="end" x="41" y="227">0</text>
      <text text-anchor="end" x="41" y="267">-3</text>
      <text text-anchor="end" x="41" y="307">-6</text>
      <text text-anchor="end" x="41" y="347">-9</text>
      <text text-anchor="end" x="41" y="387">-12</text>
      <text text-anchor="end" x="41" y="427">-15</text>
    </g>
    <!--********************************draw X Labels********************************-->
    <!--draw axis x labels-->
    <g id="ID_x$value" style="fill:red;stroke:none;font-family:Arial;font-size:14px;font-weight:normal;font-style:normal;text-decoration:none;filter:none" visibility="visible">
      <text text-anchor="middle" x="163" y="446">08:00:00</text>
      <text text-anchor="middle" x="383" y="446">09:00:00</text>
      <text text-anchor="middle" x="603" y="446">10:00:00</text>
      <text text-anchor="middle" x="823" y="446">11:00:00</text>
      <text text-anchor="middle" x="1043" y="446">11:15:00</text>
      <text text-anchor="middle" x="1263" y="446">14:45:00</text>
      <text text-anchor="middle" x="1483" y="446">15:00:00</text>
      <text text-anchor="middle" x="1703" y="446">16:00:00</text>
    </g>
    <g style="clip-path: url(#ID_backgroundClipPath)">
      <!--******************************** draw Y grid lines******************************** (Horizontal lines)-->
      <g id="ID_y_grid" stroke="#a8a8a8" stroke-width="1">
        <line x1="53" x2="1813" y1="60" y2="60"/>
        <line x1="53" x2="1813" y1="100" y2="100"/>
        <line x1="53" x2="1813" y1="140" y2="140"/>
        <line x1="53" x2="1813" y1="180" y2="180"/>
        <line x1="53" x2="1813" y1="220" y2="220"/>
        <line x1="53" x2="1813" y1="260" y2="260"/>
        <line x1="53" x2="1813" y1="300" y2="300"/>
        <line x1="53" x2="1813" y1="340" y2="340"/>
        <line x1="53" x2="1813" y1="380" y2="380"/>
      </g>
      <!--draw Y grid lines SHADOWS-->
      <g id="ID_y_grid_shadow" stroke="#ffffff" stroke-width="1">
        <line transform="translate(0,1)" x1="53" x2="1813" y1="60" y2="60"/>
        <line transform="translate(0,1)" x1="53" x2="1813" y1="100" y2="100"/>
        <line transform="translate(0,1)" x1="53" x2="1813" y1="140" y2="140"/>
        <line transform="translate(0,1)" x1="53" x2="1813" y1="180" y2="180"/>
        <line transform="translate(0,1)" x1="53" x2="1813" y1="220" y2="220"/>
        <line transform="translate(0,1)" x1="53" x2="1813" y1="260" y2="260"/>
        <line transform="translate(0,1)" x1="53" x2="1813" y1="300" y2="300"/>
        <line transform="translate(0,1)" x1="53" x2="1813" y1="340" y2="340"/>
        <line transform="translate(0,1)" x1="53" x2="1813" y1="380" y2="380"/>
      </g>
      <g id="ID_y0_axis" stroke="rgb(100,100,100)" stroke-width="1" visibility="visible">
        <line x1="53" x2="1813" y1="220" y2="220"/>
      </g>
      <!--********************************draw X grid lines******************************** (Vertical lines)-->
      <g id="ID_x_grid" stroke="#a8a8a8" stroke-width="1">
        <line x1="273" x2="273" y1="20" y2="420"/>
        <line x1="493" x2="493" y1="20" y2="420"/>
        <line x1="713" x2="713" y1="20" y2="420"/>
        <line x1="933" x2="933" y1="20" y2="420"/>
        <line x1="1153" x2="1153" y1="20" y2="420"/>
        <line x1="1373" x2="1373" y1="20" y2="420"/>
        <line x1="1593" x2="1593" y1="20" y2="420"/>
        <line x1="1813" x2="1813" y1="20" y2="420"/>
      </g>
      <!--draw X grid lines SHADOWS -->
      <g id="ID_x_grid_shadow" stroke="#ffffff" stroke-width="1">
        <line transform="translate(1,0)" x1="273" x2="273" y1="20" y2="420"/>
        <line transform="translate(1,0)" x1="493" x2="493" y1="20" y2="420"/>
        <line transform="translate(1,0)" x1="713" x2="713" y1="20" y2="420"/>
        <line transform="translate(1,0)" x1="933" x2="933" y1="20" y2="420"/>
        <line transform="translate(1,0)" x1="1153" x2="1153" y1="20" y2="420"/>
        <line transform="translate(1,0)" x1="1373" x2="1373" y1="20" y2="420"/>
        <line transform="translate(1,0)" x1="1593" x2="1593" y1="20" y2="420"/>
        <line transform="translate(1,0)" x1="1813" x2="1813" y1="20" y2="420"/>
      </g>
    </g>
    <!--******************************** draw legend ***********************************-->
    <g filter="none" id="ID_legend" transform="translate(1825,20)" visibility="visible">
      <!--draw legend border-->
      <rect fill="darkgreen" fill-opacity="0.5" height="148" id="ID_legend_border_shadow" rx="10" ry="10" stroke="none" transform="translate(1,1)" width="173" x="0" y="0"/>
      <rect fill="lightgreen" fill-opacity="0.5" height="148" id="ID_legend_border" rx="10" ry="10" stroke="none" stroke-width="0" width="173" x="0" y="0"/>
      <!--draw legend bullets-->
      <g id="ID_legend_bullets" stroke="none">
        <g fill="purple" id="ID_legend_1">
          <rect height="12" rx="3" ry="3" width="24" x="10" y="8"/>
          <rect fill="url(#WhiteBlackGradient)" height="12" rx="3" ry="3" width="24" x="10" y="8"/>
          <rect fill-opacity="0.3" filter="url(#SaturateMinus)" height="12" rx="3" ry="3" width="24" x="10" y="8"/>
        </g>
        <g fill="darkblue" id="ID_legend_2">
          <rect height="12" rx="3" ry="3" width="24" x="10" y="28"/>
          <rect fill="url(#WhiteBlackGradient)" height="12" rx="3" ry="3" width="24" x="10" y="28"/>
          <rect fill-opacity="0.3" filter="url(#SaturateMinus)" height="12" rx="3" ry="3" width="24" x="10" y="28"/>
        </g>
        <g fill="blue" id="ID_legend_3">
          <rect height="12" rx="3" ry="3" width="24" x="10" y="48"/>
          <rect fill="url(#WhiteBlackGradient)" height="12" rx="3" ry="3" width="24" x="10" y="48"/>
          <rect fill-opacity="0.3" filter="url(#SaturateMinus)" height="12" rx="3" ry="3" width="24" x="10" y="48"/>
        </g>
        <g fill="green" id="ID_legend_4">
          <rect height="12" rx="3" ry="3" width="24" x="10" y="68"/>
          <rect fill="url(#WhiteBlackGradient)" height="12" rx="3" ry="3" width="24" x="10" y="68"/>
          <rect fill-opacity="0.3" filter="url(#SaturateMinus)" height="12" rx="3" ry="3" width="24" x="10" y="68"/>
        </g>
        <g fill="yellow" id="ID_legend_5">
          <rect height="12" rx="3" ry="3" width="24" x="10" y="88"/>
          <rect fill="url(#WhiteBlackGradient)" height="12" rx="3" ry="3" width="24" x="10" y="88"/>
          <rect fill-opacity="0.3" filter="url(#SaturateMinus)" height="12" rx="3" ry="3" width="24" x="10" y="88"/>
        </g>
        <g fill="orange" id="ID_legend_6">
          <rect height="12" rx="3" ry="3" width="24" x="10" y="108"/>
          <rect fill="url(#WhiteBlackGradient)" height="12" rx="3" ry="3" width="24" x="10" y="108"/>
          <rect fill-opacity="0.3" filter="url(#SaturateMinus)" height="12" rx="3" ry="3" width="24" x="10" y="108"/>
        </g>
        <g fill="pink" id="ID_legend_7">
          <rect height="12" rx="3" ry="3" width="24" x="10" y="128"/>
          <rect fill="url(#WhiteBlackGradient)" height="12" rx="3" ry="3" width="24" x="10" y="128"/>
          <rect fill-opacity="0.3" filter="url(#SaturateMinus)" height="12" rx="3" ry="3" width="24" x="10" y="128"/>
        </g>
      </g>
      <!--draw legend labels-->
      <g id="ID_legend_labels" style="fill:black;stroke:none;font-family:Arial;;font-weight:normal;font-style:normal;text-decoration:none;filter:none;text-anchor:start">
        <text x="44" y="17">Sharp</text>
        <text x="44" y="37">Infinity</text>
        <text x="44" y="57">Audio Référence</text>
        <text x="44" y="77">Triangle</text>
        <text x="44" y="97">Yamaha</text>
        <text x="44" y="117">Onkyo</text>
        <text x="44" y="137">Sony</text>
      </g>
    </g>
    <!-- exemple de path "M 0 0 l 0 -198 s 0,-6,6,-6 l 12 0 s 6,0,6,6 l 0 198 z" -->
    <g style="clip-path: url(#ID_backgroundClipPath)">
      <g fill="black" fill-opacity="0.2" id="ID_graph_shadow_1">
        <path d="M 0 0 l 0 7.33 s 0 6 6 6 l 8 0 s 6 0 6 -6 l 0 -7.33 z" transform="translate(66,220)"/>
        <path d="M 0 0 l 0 -20.67 s 0 -6 6 -6 l 8 0 s 6 0 6 6 l 0 20.67 z" transform="translate(286,220)"/>
        <path d="M 0 0 l 0 34 s 0 6 6 6 l 8 0 s 6 0 6 -6 l 0 -34 z" transform="translate(506,220)"/>
        <path d="M 0 0 l 0 -47.33 s 0 -6 6 -6 l 8 0 s 6 0 6 6 l 0 47.33 z" transform="translate(726,220)"/>
        <path d="M 0 0 l 0 60.67 s 0 6 6 6 l 8 0 s 6 0 6 -6 l 0 -60.67 z" transform="translate(946,220)"/>
        <path d="M 0 0 l 0 -74 s 0 -6 6 -6 l 8 0 s 6 0 6 6 l 0 74 z" transform="translate(1166,220)"/>
        <path d="M 0 0 l 0 87.33 s 0 6 6 6 l 8 0 s 6 0 6 -6 l 0 -87.33 z" transform="translate(1386,220)"/>
        <path d="M 0 0 l 0 -100.67 s 0 -6 6 -6 l 8 0 s 6 0 6 6 l 0 100.67 z" transform="translate(1606,220)"/>
      </g>
      <g fill="black" fill-opacity="0.2" id="ID_graph_shadow_2">
        <path d="M 0 0 l 0 8.67 s 0 6 6 6 l 8 0 s 6 0 6 -6 l 0 -8.67 z" transform="translate(96,220)"/>
        <path d="M 0 0 l 0 -23.33 s 0 -6 6 -6 l 8 0 s 6 0 6 6 l 0 23.33 z" transform="translate(316,220)"/>
        <path d="M 0 0 l 0 38 s 0 6 6 6 l 8 0 s 6 0 6 -6 l 0 -38 z" transform="translate(536,220)"/>
        <path d="M 0 0 l 0 -52.67 s 0 -6 6 -6 l 8 0 s 6 0 6 6 l 0 52.67 z" transform="translate(756,220)"/>
        <path d="M 0 0 l 0 67.33 s 0 6 6 6 l 8 0 s 6 0 6 -6 l 0 -67.33 z" transform="translate(976,220)"/>
        <path d="M 0 0 l 0 -82 s 0 -6 6 -6 l 8 0 s 6 0 6 6 l 0 82 z" transform="translate(1196,220)"/>
        <path d="M 0 0 l 0 96.67 s 0 6 6 6 l 8 0 s 6 0 6 -6 l 0 -96.67 z" transform="translate(1416,220)"/>
        <path d="M 0 0 l 0 -111.33 s 0 -6 6 -6 l 8 0 s 6 0 6 6 l 0 111.33 z" transform="translate(1636,220)"/>
      </g>
      <g fill="black" fill-opacity="0.2" id="ID_graph_shadow_3">
        <path d="M 0 0 l 0 10.13 s 0 6 6 6 l 8 0 s 6 0 6 -6 l 0 -10.13 z" transform="translate(126,220)"/>
        <path d="M 0 0 l 0 -26.27 s 0 -6 6 -6 l 8 0 s 6 0 6 6 l 0 26.27 z" transform="translate(346,220)"/>
        <path d="M 0 0 l 0 42.4 s 0 6 6 6 l 8 0 s 6 0 6 -6 l 0 -42.4 z" transform="translate(566,220)"/>
        <path d="M 0 0 l 0 -58.53 s 0 -6 6 -6 l 8 0 s 6 0 6 6 l 0 58.53 z" transform="translate(786,220)"/>
        <path d="M 0 0 l 0 74.67 s 0 6 6 6 l 8 0 s 6 0 6 -6 l 0 -74.67 z" transform="translate(1006,220)"/>
        <path d="M 0 0 l 0 -90.8 s 0 -6 6 -6 l 8 0 s 6 0 6 6 l 0 90.8 z" transform="translate(1226,220)"/>
        <path d="M 0 0 l 0 106.93 s 0 6 6 6 l 8 0 s 6 0 6 -6 l 0 -106.93 z" transform="translate(1446,220)"/>
        <path d="M 0 0 l 0 -123.07 s 0 -6 6 -6 l 8 0 s 6 0 6 6 l 0 123.07 z" transform="translate(1666,220)"/>
      </g>
      <g fill="black" fill-opacity="0.2" id="ID_graph_shadow_4">
        <path d="M 0 0 l 0 11.75 s 0 6 6 6 l 8 0 s 6 0 6 -6 l 0 -11.75 z" transform="translate(156,220)"/>
        <path d="M 0 0 l 0 -29.49 s 0 -6 6 -6 l 8 0 s 6 0 6 6 l 0 29.49 z" transform="translate(376,220)"/>
        <path d="M 0 0 l 0 47.24 s 0 6 6 6 l 8 0 s 6 0 6 -6 l 0 -47.24 z" transform="translate(596,220)"/>
        <path d="M 0 0 l 0 -64.99 s 0 -6 6 -6 l 8 0 s 6 0 6 6 l 0 64.99 z" transform="translate(816,220)"/>
        <path d="M 0 0 l 0 82.73 s 0 6 6 6 l 8 0 s 6 0 6 -6 l 0 -82.73 z" transform="translate(1036,220)"/>
        <path d="M 0 0 l 0 -100.48 s 0 -6 6 -6 l 8 0 s 6 0 6 6 l 0 100.48 z" transform="translate(1256,220)"/>
        <path d="M 0 0 l 0 118.23 s 0 6 6 6 l 8 0 s 6 0 6 -6 l 0 -118.23 z" transform="translate(1476,220)"/>
        <path d="M 0 0 l 0 -135.97 s 0 -6 6 -6 l 8 0 s 6 0 6 6 l 0 135.97 z" transform="translate(1696,220)"/>
      </g>
      <g fill="black" fill-opacity="0.2" id="ID_graph_shadow_5">
        <path d="M 0 0 l 0 13.52 s 0 6 6 6 l 8 0 s 6 0 6 -6 l 0 -13.52 z" transform="translate(186,220)"/>
        <path d="M 0 0 l 0 -33.04 s 0 -6 6 -6 l 8 0 s 6 0 6 6 l 0 33.04 z" transform="translate(406,220)"/>
        <path d="M 0 0 l 0 52.56 s 0 6 6 6 l 8 0 s 6 0 6 -6 l 0 -52.56 z" transform="translate(626,220)"/>
        <path d="M 0 0 l 0 -72.09 s 0 -6 6 -6 l 8 0 s 6 0 6 6 l 0 72.09 z" transform="translate(846,220)"/>
        <path d="M 0 0 l 0 91.61 s 0 6 6 6 l 8 0 s 6 0 6 -6 l 0 -91.61 z" transform="translate(1066,220)"/>
        <path d="M 0 0 l 0 -111.13 s 0 -6 6 -6 l 8 0 s 6 0 6 6 l 0 111.13 z" transform="translate(1286,220)"/>
        <path d="M 0 0 l 0 130.65 s 0 6 6 6 l 8 0 s 6 0 6 -6 l 0 -130.65 z" transform="translate(1506,220)"/>
        <path d="M 0 0 l 0 -150.17 s 0 -6 6 -6 l 8 0 s 6 0 6 6 l 0 150.17 z" transform="translate(1726,220)"/>
      </g>
      <g fill="black" fill-opacity="0.2" id="ID_graph_shadow_6">
        <path d="M 0 0 l 0 15.47 s 0 6 6 6 l 8 0 s 6 0 6 -6 l 0 -15.47 z" transform="translate(216,220)"/>
        <path d="M 0 0 l 0 -36.95 s 0 -6 6 -6 l 8 0 s 6 0 6 6 l 0 36.95 z" transform="translate(436,220)"/>
        <path d="M 0 0 l 0 58.42 s 0 6 6 6 l 8 0 s 6 0 6 -6 l 0 -58.42 z" transform="translate(656,220)"/>
        <path d="M 0 0 l 0 -79.89 s 0 -6 6 -6 l 8 0 s 6 0 6 6 l 0 79.89 z" transform="translate(876,220)"/>
        <path d="M 0 0 l 0 101.37 s 0 6 6 6 l 8 0 s 6 0 6 -6 l 0 -101.37 z" transform="translate(1096,220)"/>
        <path d="M 0 0 l 0 -122.84 s 0 -6 6 -6 l 8 0 s 6 0 6 6 l 0 122.84 z" transform="translate(1316,220)"/>
        <path d="M 0 0 l 0 144.31 s 0 6 6 6 l 8 0 s 6 0 6 -6 l 0 -144.31 z" transform="translate(1536,220)"/>
        <path d="M 0 0 l 0 -165.79 s 0 -6 6 -6 l 8 0 s 6 0 6 6 l 0 165.79 z" transform="translate(1756,220)"/>
      </g>
      <g fill="black" fill-opacity="0.2" id="ID_graph_shadow_7">
        <path d="M 0 0 l 0 17.62 s 0 6 6 6 l 8 0 s 6 0 6 -6 l 0 -17.62 z" transform="translate(246,220)"/>
        <path d="M 0 0 l 0 -41.24 s 0 -6 6 -6 l 8 0 s 6 0 6 6 l 0 41.24 z" transform="translate(466,220)"/>
        <path d="M 0 0 l 0 64.86 s 0 6 6 6 l 8 0 s 6 0 6 -6 l 0 -64.86 z" transform="translate(686,220)"/>
        <path d="M 0 0 l 0 -88.48 s 0 -6 6 -6 l 8 0 s 6 0 6 6 l 0 88.48 z" transform="translate(906,220)"/>
        <path d="M 0 0 l 0 112.1 s 0 6 6 6 l 8 0 s 6 0 6 -6 l 0 -112.1 z" transform="translate(1126,220)"/>
        <path d="M 0 0 l 0 -135.72 s 0 -6 6 -6 l 8 0 s 6 0 6 6 l 0 135.72 z" transform="translate(1346,220)"/>
        <path d="M 0 0 l 0 159.35 s 0 6 6 6 l 8 0 s 6 0 6 -6 l 0 -159.35 z" transform="translate(1566,220)"/>
        <path d="M 0 0 l 0 -182.97 s 0 -6 6 -6 l 8 0 s 6 0 6 6 l 0 182.97 z" transform="translate(1786,220)"/>
      </g>
      <g fill="purple" filter="none" id="ID_graph_1" opacity="1" stroke="none" stroke-opacity="1" stroke-width="0">
        <path d="M 0 0 l 0 7.33 s 0 6 6 6 l 8 0 s 6 0 6 -6 l 0 -7.33 z" transform="translate(63,220)"/>
        <path d="M 0 0 l 0 7.33 s 0 6 6 6 l 8 0 s 6 0 6 -6 l 0 -7.33 z" fill="url(#WhiteBlackGradient)" transform="translate(63,220)"/>
        <path d="M 0 0 l 0 7.33 s 0 6 6 6 l 8 0 s 6 0 6 -6 l 0 -7.33 z" fill-opacity="0.3" filter="url(#SaturateMinus)" transform="translate(63,220)"/>
        <path d="M 0 0 l 0 -20.67 s 0 -6 6 -6 l 8 0 s 6 0 6 6 l 0 20.67 z" transform="translate(283,220)"/>
        <path d="M 0 0 l 0 -20.67 s 0 -6 6 -6 l 8 0 s 6 0 6 6 l 0 20.67 z" fill="url(#WhiteBlackGradient)" transform="translate(283,220)"/>
        <path d="M 0 0 l 0 -20.67 s 0 -6 6 -6 l 8 0 s 6 0 6 6 l 0 20.67 z" fill-opacity="0.3" filter="url(#SaturateMinus)" transform="translate(283,220)"/>
        <path d="M 0 0 l 0 34 s 0 6 6 6 l 8 0 s 6 0 6 -6 l 0 -34 z" transform="translate(503,220)"/>
        <path d="M 0 0 l 0 34 s 0 6 6 6 l 8 0 s 6 0 6 -6 l 0 -34 z" fill="url(#WhiteBlackGradient)" transform="translate(503,220)"/>
        <path d="M 0 0 l 0 34 s 0 6 6 6 l 8 0 s 6 0 6 -6 l 0 -34 z" fill-opacity="0.3" filter="url(#SaturateMinus)" transform="translate(503,220)"/>
        <path d="M 0 0 l 0 -47.33 s 0 -6 6 -6 l 8 0 s 6 0 6 6 l 0 47.33 z" transform="translate(723,220)"/>
        <path d="M 0 0 l 0 -47.33 s 0 -6 6 -6 l 8 0 s 6 0 6 6 l 0 47.33 z" fill="url(#WhiteBlackGradient)" transform="translate(723,220)"/>
        <path d="M 0 0 l 0 -47.33 s 0 -6 6 -6 l 8 0 s 6 0 6 6 l 0 47.33 z" fill-opacity="0.3" filter="url(#SaturateMinus)" transform="translate(723,220)"/>
        <path d="M 0 0 l 0 60.67 s 0 6 6 6 l 8 0 s 6 0 6 -6 l 0 -60.67 z" transform="translate(943,220)"/>
        <path d="M 0 0 l 0 60.67 s 0 6 6 6 l 8 0 s 6 0 6 -6 l 0 -60.67 z" fill="url(#WhiteBlackGradient)" transform="translate(943,220)"/>
        <path d="M 0 0 l 0 60.67 s 0 6 6 6 l 8 0 s 6 0 6 -6 l 0 -60.67 z" fill-opacity="0.3" filter="url(#SaturateMinus)" transform="translate(943,220)"/>
        <path d="M 0 0 l 0 -74 s 0 -6 6 -6 l 8 0 s 6 0 6 6 l 0 74 z" transform="translate(1163,220)"/>
        <path d="M 0 0 l 0 -74 s 0 -6 6 -6 l 8 0 s 6 0 6 6 l 0 74 z" fill="url(#WhiteBlackGradient)" transform="translate(1163,220)"/>
        <path d="M 0 0 l 0 -74 s 0 -6 6 -6 l 8 0 s 6 0 6 6 l 0 74 z" fill-opacity="0.3" filter="url(#SaturateMinus)" transform="translate(1163,220)"/>
        <path d="M 0 0 l 0 87.33 s 0 6 6 6 l 8 0 s 6 0 6 -6 l 0 -87.33 z" transform="translate(1383,220)"/>
        <path d="M 0 0 l 0 87.33 s 0 6 6 6 l 8 0 s 6 0 6 -6 l 0 -87.33 z" fill="url(#WhiteBlackGradient)" transform="translate(1383,220)"/>
        <path d="M 0 0 l 0 87.33 s 0 6 6 6 l 8 0 s 6 0 6 -6 l 0 -87.33 z" fill-opacity="0.3" filter="url(#SaturateMinus)" transform="translate(1383,220)"/>
        <path d="M 0 0 l 0 -100.67 s 0 -6 6 -6 l 8 0 s 6 0 6 6 l 0 100.67 z" transform="translate(1603,220)"/>
        <path d="M 0 0 l 0 -100.67 s 0 -6 6 -6 l 8 0 s 6 0 6 6 l 0 100.67 z" fill="url(#WhiteBlackGradient)" transform="translate(1603,220)"/>
        <path d="M 0 0 l 0 -100.67 s 0 -6 6 -6 l 8 0 s 6 0 6 6 l 0 100.67 z" fill-opacity="0.3" filter="url(#SaturateMinus)" transform="translate(1603,220)"/>
      </g>
      <g fill="darkblue" filter="none" id="ID_graph_2" opacity="1" stroke="none" stroke-opacity="1" stroke-width="0">
        <path d="M 0 0 l 0 8.67 s 0 6 6 6 l 8 0 s 6 0 6 -6 l 0 -8.67 z" transform="translate(93,220)"/>
        <path d="M 0 0 l 0 8.67 s 0 6 6 6 l 8 0 s 6 0 6 -6 l 0 -8.67 z" fill="url(#WhiteBlackGradient)" transform="translate(93,220)"/>
        <path d="M 0 0 l 0 8.67 s 0 6 6 6 l 8 0 s 6 0 6 -6 l 0 -8.67 z" fill-opacity="0.3" filter="url(#SaturateMinus)" transform="translate(93,220)"/>
        <path d="M 0 0 l 0 -23.33 s 0 -6 6 -6 l 8 0 s 6 0 6 6 l 0 23.33 z" transform="translate(313,220)"/>
        <path d="M 0 0 l 0 -23.33 s 0 -6 6 -6 l 8 0 s 6 0 6 6 l 0 23.33 z" fill="url(#WhiteBlackGradient)" transform="translate(313,220)"/>
        <path d="M 0 0 l 0 -23.33 s 0 -6 6 -6 l 8 0 s 6 0 6 6 l 0 23.33 z" fill-opacity="0.3" filter="url(#SaturateMinus)" transform="translate(313,220)"/>
        <path d="M 0 0 l 0 38 s 0 6 6 6 l 8 0 s 6 0 6 -6 l 0 -38 z" transform="translate(533,220)"/>
        <path d="M 0 0 l 0 38 s 0 6 6 6 l 8 0 s 6 0 6 -6 l 0 -38 z" fill="url(#WhiteBlackGradient)" transform="translate(533,220)"/>
        <path d="M 0 0 l 0 38 s 0 6 6 6 l 8 0 s 6 0 6 -6 l 0 -38 z" fill-opacity="0.3" filter="url(#SaturateMinus)" transform="translate(533,220)"/>
        <path d="M 0 0 l 0 -52.67 s 0 -6 6 -6 l 8 0 s 6 0 6 6 l 0 52.67 z" transform="translate(753,220)"/>
        <path d="M 0 0 l 0 -52.67 s 0 -6 6 -6 l 8 0 s 6 0 6 6 l 0 52.67 z" fill="url(#WhiteBlackGradient)" transform="translate(753,220)"/>
        <path d="M 0 0 l 0 -52.67 s 0 -6 6 -6 l 8 0 s 6 0 6 6 l 0 52.67 z" fill-opacity="0.3" filter="url(#SaturateMinus)" transform="translate(753,220)"/>
        <path d="M 0 0 l 0 67.33 s 0 6 6 6 l 8 0 s 6 0 6 -6 l 0 -67.33 z" transform="translate(973,220)"/>
        <path d="M 0 0 l 0 67.33 s 0 6 6 6 l 8 0 s 6 0 6 -6 l 0 -67.33 z" fill="url(#WhiteBlackGradient)" transform="translate(973,220)"/>
        <path d="M 0 0 l 0 67.33 s 0 6 6 6 l 8 0 s 6 0 6 -6 l 0 -67.33 z" fill-opacity="0.3" filter="url(#SaturateMinus)" transform="translate(973,220)"/>
        <path d="M 0 0 l 0 -82 s 0 -6 6 -6 l 8 0 s 6 0 6 6 l 0 82 z" transform="translate(1193,220)"/>
        <path d="M 0 0 l 0 -82 s 0 -6 6 -6 l 8 0 s 6 0 6 6 l 0 82 z" fill="url(#WhiteBlackGradient)" transform="translate(1193,220)"/>
        <path d="M 0 0 l 0 -82 s 0 -6 6 -6 l 8 0 s 6 0 6 6 l 0 82 z" fill-opacity="0.3" filter="url(#SaturateMinus)" transform="translate(1193,220)"/>
        <path d="M 0 0 l 0 96.67 s 0 6 6 6 l 8 0 s 6 0 6 -6 l 0 -96.67 z" transform="translate(1413,220)"/>
        <path d="M 0 0 l 0 96.67 s 0 6 6 6 l 8 0 s 6 0 6 -6 l 0 -96.67 z" fill="url(#WhiteBlackGradient)" transform="translate(1413,220)"/>
        <path d="M 0 0 l 0 96.67 s 0 6 6 6 l 8 0 s 6 0 6 -6 l 0 -96.67 z" fill-opacity="0.3" filter="url(#SaturateMinus)" transform="translate(1413,220)"/>
        <path d="M 0 0 l 0 -111.33 s 0 -6 6 -6 l 8 0 s 6 0 6 6 l 0 111.33 z" transform="translate(1633,220)"/>
        <path d="M 0 0 l 0 -111.33 s 0 -6 6 -6 l 8 0 s 6 0 6 6 l 0 111.33 z" fill="url(#WhiteBlackGradient)" transform="translate(1633,220)"/>
        <path d="M 0 0 l 0 -111.33 s 0 -6 6 -6 l 8 0 s 6 0 6 6 l 0 111.33 z" fill-opacity="0.3" filter="url(#SaturateMinus)" transform="translate(1633,220)"/>
      </g>
      <g fill="blue" filter="none" id="ID_graph_3" opacity="1" stroke="none" stroke-opacity="1" stroke-width="0">
        <path d="M 0 0 l 0 10.13 s 0 6 6 6 l 8 0 s 6 0 6 -6 l 0 -10.13 z" transform="translate(123,220)"/>
        <path d="M 0 0 l 0 10.13 s 0 6 6 6 l 8 0 s 6 0 6 -6 l 0 -10.13 z" fill="url(#WhiteBlackGradient)" transform="translate(123,220)"/>
        <path d="M 0 0 l 0 10.13 s 0 6 6 6 l 8 0 s 6 0 6 -6 l 0 -10.13 z" fill-opacity="0.3" filter="url(#SaturateMinus)" transform="translate(123,220)"/>
        <path d="M 0 0 l 0 -26.27 s 0 -6 6 -6 l 8 0 s 6 0 6 6 l 0 26.27 z" transform="translate(343,220)"/>
        <path d="M 0 0 l 0 -26.27 s 0 -6 6 -6 l 8 0 s 6 0 6 6 l 0 26.27 z" fill="url(#WhiteBlackGradient)" transform="translate(343,220)"/>
        <path d="M 0 0 l 0 -26.27 s 0 -6 6 -6 l 8 0 s 6 0 6 6 l 0 26.27 z" fill-opacity="0.3" filter="url(#SaturateMinus)" transform="translate(343,220)"/>
        <path d="M 0 0 l 0 42.4 s 0 6 6 6 l 8 0 s 6 0 6 -6 l 0 -42.4 z" transform="translate(563,220)"/>
        <path d="M 0 0 l 0 42.4 s 0 6 6 6 l 8 0 s 6 0 6 -6 l 0 -42.4 z" fill="url(#WhiteBlackGradient)" transform="translate(563,220)"/>
        <path d="M 0 0 l 0 42.4 s 0 6 6 6 l 8 0 s 6 0 6 -6 l 0 -42.4 z" fill-opacity="0.3" filter="url(#SaturateMinus)" transform="translate(563,220)"/>
        <path d="M 0 0 l 0 -58.53 s 0 -6 6 -6 l 8 0 s 6 0 6 6 l 0 58.53 z" transform="translate(783,220)"/>
        <path d="M 0 0 l 0 -58.53 s 0 -6 6 -6 l 8 0 s 6 0 6 6 l 0 58.53 z" fill="url(#WhiteBlackGradient)" transform="translate(783,220)"/>
        <path d="M 0 0 l 0 -58.53 s 0 -6 6 -6 l 8 0 s 6 0 6 6 l 0 58.53 z" fill-opacity="0.3" filter="url(#SaturateMinus)" transform="translate(783,220)"/>
        <path d="M 0 0 l 0 74.67 s 0 6 6 6 l 8 0 s 6 0 6 -6 l 0 -74.67 z" transform="translate(1003,220)"/>
        <path d="M 0 0 l 0 74.67 s 0 6 6 6 l 8 0 s 6 0 6 -6 l 0 -74.67 z" fill="url(#WhiteBlackGradient)" transform="translate(1003,220)"/>
        <path d="M 0 0 l 0 74.67 s 0 6 6 6 l 8 0 s 6 0 6 -6 l 0 -74.67 z" fill-opacity="0.3" filter="url(#SaturateMinus)" transform="translate(1003,220)"/>
        <path d="M 0 0 l 0 -90.8 s 0 -6 6 -6 l 8 0 s 6 0 6 6 l 0 90.8 z" transform="translate(1223,220)"/>
        <path d="M 0 0 l 0 -90.8 s 0 -6 6 -6 l 8 0 s 6 0 6 6 l 0 90.8 z" fill="url(#WhiteBlackGradient)" transform="translate(1223,220)"/>
        <path d="M 0 0 l 0 -90.8 s 0 -6 6 -6 l 8 0 s 6 0 6 6 l 0 90.8 z" fill-opacity="0.3" filter="url(#SaturateMinus)" transform="translate(1223,220)"/>
        <path d="M 0 0 l 0 106.93 s 0 6 6 6 l 8 0 s 6 0 6 -6 l 0 -106.93 z" transform="translate(1443,220)"/>
        <path d="M 0 0 l 0 106.93 s 0 6 6 6 l 8 0 s 6 0 6 -6 l 0 -106.93 z" fill="url(#WhiteBlackGradient)" transform="translate(1443,220)"/>
        <path d="M 0 0 l 0 106.93 s 0 6 6 6 l 8 0 s 6 0 6 -6 l 0 -106.93 z" fill-opacity="0.3" filter="url(#SaturateMinus)" transform="translate(1443,220)"/>
        <path d="M 0 0 l 0 -123.07 s 0 -6 6 -6 l 8 0 s 6 0 6 6 l 0 123.07 z" transform="translate(1663,220)"/>
        <path d="M 0 0 l 0 -123.07 s 0 -6 6 -6 l 8 0 s 6 0 6 6 l 0 123.07 z" fill="url(#WhiteBlackGradient)" transform="translate(1663,220)"/>
        <path d="M 0 0 l 0 -123.07 s 0 -6 6 -6 l 8 0 s 6 0 6 6 l 0 123.07 z" fill-opacity="0.3" filter="url(#SaturateMinus)" transform="translate(1663,220)"/>
      </g>
      <g fill="green" filter="none" id="ID_graph_4" opacity="1" stroke="none" stroke-opacity="1" stroke-width="0">
        <path d="M 0 0 l 0 11.75 s 0 6 6 6 l 8 0 s 6 0 6 -6 l 0 -11.75 z" transform="translate(153,220)"/>
        <path d="M 0 0 l 0 11.75 s 0 6 6 6 l 8 0 s 6 0 6 -6 l 0 -11.75 z" fill="url(#WhiteBlackGradient)" transform="translate(153,220)"/>
        <path d="M 0 0 l 0 11.75 s 0 6 6 6 l 8 0 s 6 0 6 -6 l 0 -11.75 z" fill-opacity="0.3" filter="url(#SaturateMinus)" transform="translate(153,220)"/>
        <path d="M 0 0 l 0 -29.49 s 0 -6 6 -6 l 8 0 s 6 0 6 6 l 0 29.49 z" transform="translate(373,220)"/>
        <path d="M 0 0 l 0 -29.49 s 0 -6 6 -6 l 8 0 s 6 0 6 6 l 0 29.49 z" fill="url(#WhiteBlackGradient)" transform="translate(373,220)"/>
        <path d="M 0 0 l 0 -29.49 s 0 -6 6 -6 l 8 0 s 6 0 6 6 l 0 29.49 z" fill-opacity="0.3" filter="url(#SaturateMinus)" transform="translate(373,220)"/>
        <path d="M 0 0 l 0 47.24 s 0 6 6 6 l 8 0 s 6 0 6 -6 l 0 -47.24 z" transform="translate(593,220)"/>
        <path d="M 0 0 l 0 47.24 s 0 6 6 6 l 8 0 s 6 0 6 -6 l 0 -47.24 z" fill="url(#WhiteBlackGradient)" transform="translate(593,220)"/>
        <path d="M 0 0 l 0 47.24 s 0 6 6 6 l 8 0 s 6 0 6 -6 l 0 -47.24 z" fill-opacity="0.3" filter="url(#SaturateMinus)" transform="translate(593,220)"/>
        <path d="M 0 0 l 0 -64.99 s 0 -6 6 -6 l 8 0 s 6 0 6 6 l 0 64.99 z" transform="translate(813,220)"/>
        <path d="M 0 0 l 0 -64.99 s 0 -6 6 -6 l 8 0 s 6 0 6 6 l 0 64.99 z" fill="url(#WhiteBlackGradient)" transform="translate(813,220)"/>
        <path d="M 0 0 l 0 -64.99 s 0 -6 6 -6 l 8 0 s 6 0 6 6 l 0 64.99 z" fill-opacity="0.3" filter="url(#SaturateMinus)" transform="translate(813,220)"/>
        <path d="M 0 0 l 0 82.73 s 0 6 6 6 l 8 0 s 6 0 6 -6 l 0 -82.73 z" transform="translate(1033,220)"/>
        <path d="M 0 0 l 0 82.73 s 0 6 6 6 l 8 0 s 6 0 6 -6 l 0 -82.73 z" fill="url(#WhiteBlackGradient)" transform="translate(1033,220)"/>
        <path d="M 0 0 l 0 82.73 s 0 6 6 6 l 8 0 s 6 0 6 -6 l 0 -82.73 z" fill-opacity="0.3" filter="url(#SaturateMinus)" transform="translate(1033,220)"/>
        <path d="M 0 0 l 0 -100.48 s 0 -6 6 -6 l 8 0 s 6 0 6 6 l 0 100.48 z" transform="translate(1253,220)"/>
        <path d="M 0 0 l 0 -100.48 s 0 -6 6 -6 l 8 0 s 6 0 6 6 l 0 100.48 z" fill="url(#WhiteBlackGradient)" transform="translate(1253,220)"/>
        <path d="M 0 0 l 0 -100.48 s 0 -6 6 -6 l 8 0 s 6 0 6 6 l 0 100.48 z" fill-opacity="0.3" filter="url(#SaturateMinus)" transform="translate(1253,220)"/>
        <path d="M 0 0 l 0 118.23 s 0 6 6 6 l 8 0 s 6 0 6 -6 l 0 -118.23 z" transform="translate(1473,220)"/>
        <path d="M 0 0 l 0 118.23 s 0 6 6 6 l 8 0 s 6 0 6 -6 l 0 -118.23 z" fill="url(#WhiteBlackGradient)" transform="translate(1473,220)"/>
        <path d="M 0 0 l 0 118.23 s 0 6 6 6 l 8 0 s 6 0 6 -6 l 0 -118.23 z" fill-opacity="0.3" filter="url(#SaturateMinus)" transform="translate(1473,220)"/>
        <path d="M 0 0 l 0 -135.97 s 0 -6 6 -6 l 8 0 s 6 0 6 6 l 0 135.97 z" transform="translate(1693,220)"/>
        <path d="M 0 0 l 0 -135.97 s 0 -6 6 -6 l 8 0 s 6 0 6 6 l 0 135.97 z" fill="url(#WhiteBlackGradient)" transform="translate(1693,220)"/>
        <path d="M 0 0 l 0 -135.97 s 0 -6 6 -6 l 8 0 s 6 0 6 6 l 0 135.97 z" fill-opacity="0.3" filter="url(#SaturateMinus)" transform="translate(1693,220)"/>
      </g>
      <g fill="yellow" filter="none" id="ID_graph_5" opacity="1" stroke="none" stroke-opacity="1" stroke-width="0">
        <path d="M 0 0 l 0 13.52 s 0 6 6 6 l 8 0 s 6 0 6 -6 l 0 -13.52 z" transform="translate(183,220)"/>
        <path d="M 0 0 l 0 13.52 s 0 6 6 6 l 8 0 s 6 0 6 -6 l 0 -13.52 z" fill="url(#WhiteBlackGradient)" transform="translate(183,220)"/>
        <path d="M 0 0 l 0 13.52 s 0 6 6 6 l 8 0 s 6 0 6 -6 l 0 -13.52 z" fill-opacity="0.3" filter="url(#SaturateMinus)" transform="translate(183,220)"/>
        <path d="M 0 0 l 0 -33.04 s 0 -6 6 -6 l 8 0 s 6 0 6 6 l 0 33.04 z" transform="translate(403,220)"/>
        <path d="M 0 0 l 0 -33.04 s 0 -6 6 -6 l 8 0 s 6 0 6 6 l 0 33.04 z" fill="url(#WhiteBlackGradient)" transform="translate(403,220)"/>
        <path d="M 0 0 l 0 -33.04 s 0 -6 6 -6 l 8 0 s 6 0 6 6 l 0 33.04 z" fill-opacity="0.3" filter="url(#SaturateMinus)" transform="translate(403,220)"/>
        <path d="M 0 0 l 0 52.56 s 0 6 6 6 l 8 0 s 6 0 6 -6 l 0 -52.56 z" transform="translate(623,220)"/>
        <path d="M 0 0 l 0 52.56 s 0 6 6 6 l 8 0 s 6 0 6 -6 l 0 -52.56 z" fill="url(#WhiteBlackGradient)" transform="translate(623,220)"/>
        <path d="M 0 0 l 0 52.56 s 0 6 6 6 l 8 0 s 6 0 6 -6 l 0 -52.56 z" fill-opacity="0.3" filter="url(#SaturateMinus)" transform="translate(623,220)"/>
        <path d="M 0 0 l 0 -72.09 s 0 -6 6 -6 l 8 0 s 6 0 6 6 l 0 72.09 z" transform="translate(843,220)"/>
        <path d="M 0 0 l 0 -72.09 s 0 -6 6 -6 l 8 0 s 6 0 6 6 l 0 72.09 z" fill="url(#WhiteBlackGradient)" transform="translate(843,220)"/>
        <path d="M 0 0 l 0 -72.09 s 0 -6 6 -6 l 8 0 s 6 0 6 6 l 0 72.09 z" fill-opacity="0.3" filter="url(#SaturateMinus)" transform="translate(843,220)"/>
        <path d="M 0 0 l 0 91.61 s 0 6 6 6 l 8 0 s 6 0 6 -6 l 0 -91.61 z" transform="translate(1063,220)"/>
        <path d="M 0 0 l 0 91.61 s 0 6 6 6 l 8 0 s 6 0 6 -6 l 0 -91.61 z" fill="url(#WhiteBlackGradient)" transform="translate(1063,220)"/>
        <path d="M 0 0 l 0 91.61 s 0 6 6 6 l 8 0 s 6 0 6 -6 l 0 -91.61 z" fill-opacity="0.3" filter="url(#SaturateMinus)" transform="translate(1063,220)"/>
        <path d="M 0 0 l 0 -111.13 s 0 -6 6 -6 l 8 0 s 6 0 6 6 l 0 111.13 z" transform="translate(1283,220)"/>
        <path d="M 0 0 l 0 -111.13 s 0 -6 6 -6 l 8 0 s 6 0 6 6 l 0 111.13 z" fill="url(#WhiteBlackGradient)" transform="translate(1283,220)"/>
        <path d="M 0 0 l 0 -111.13 s 0 -6 6 -6 l 8 0 s 6 0 6 6 l 0 111.13 z" fill-opacity="0.3" filter="url(#SaturateMinus)" transform="translate(1283,220)"/>
        <path d="M 0 0 l 0 130.65 s 0 6 6 6 l 8 0 s 6 0 6 -6 l 0 -130.65 z" transform="translate(1503,220)"/>
        <path d="M 0 0 l 0 130.65 s 0 6 6 6 l 8 0 s 6 0 6 -6 l 0 -130.65 z" fill="url(#WhiteBlackGradient)" transform="translate(1503,220)"/>
        <path d="M 0 0 l 0 130.65 s 0 6 6 6 l 8 0 s 6 0 6 -6 l 0 -130.65 z" fill-opacity="0.3" filter="url(#SaturateMinus)" transform="translate(1503,220)"/>
        <path d="M 0 0 l 0 -150.17 s 0 -6 6 -6 l 8 0 s 6 0 6 6 l 0 150.17 z" transform="translate(1723,220)"/>
        <path d="M 0 0 l 0 -150.17 s 0 -6 6 -6 l 8 0 s 6 0 6 6 l 0 150.17 z" fill="url(#WhiteBlackGradient)" transform="translate(1723,220)"/>
        <path d="M 0 0 l 0 -150.17 s 0 -6 6 -6 l 8 0 s 6 0 6 6 l 0 150.17 z" fill-opacity="0.3" filter="url(#SaturateMinus)" transform="translate(1723,220)"/>
      </g>
      <g fill="orange" filter="none" id="ID_graph_6" opacity="1" stroke="none" stroke-opacity="1" stroke-width="0">
        <path d="M 0 0 l 0 15.47 s 0 6 6 6 l 8 0 s 6 0 6 -6 l 0 -15.47 z" transform="translate(213,220)"/>
        <path d="M 0 0 l 0 15.47 s 0 6 6 6 l 8 0 s 6 0 6 -6 l 0 -15.47 z" fill="url(#WhiteBlackGradient)" transform="translate(213,220)"/>
        <path d="M 0 0 l 0 15.47 s 0 6 6 6 l 8 0 s 6 0 6 -6 l 0 -15.47 z" fill-opacity="0.3" filter="url(#SaturateMinus)" transform="translate(213,220)"/>
        <path d="M 0 0 l 0 -36.95 s 0 -6 6 -6 l 8 0 s 6 0 6 6 l 0 36.95 z" transform="translate(433,220)"/>
        <path d="M 0 0 l 0 -36.95 s 0 -6 6 -6 l 8 0 s 6 0 6 6 l 0 36.95 z" fill="url(#WhiteBlackGradient)" transform="translate(433,220)"/>
        <path d="M 0 0 l 0 -36.95 s 0 -6 6 -6 l 8 0 s 6 0 6 6 l 0 36.95 z" fill-opacity="0.3" filter="url(#SaturateMinus)" transform="translate(433,220)"/>
        <path d="M 0 0 l 0 58.42 s 0 6 6 6 l 8 0 s 6 0 6 -6 l 0 -58.42 z" transform="translate(653,220)"/>
        <path d="M 0 0 l 0 58.42 s 0 6 6 6 l 8 0 s 6 0 6 -6 l 0 -58.42 z" fill="url(#WhiteBlackGradient)" transform="translate(653,220)"/>
        <path d="M 0 0 l 0 58.42 s 0 6 6 6 l 8 0 s 6 0 6 -6 l 0 -58.42 z" fill-opacity="0.3" filter="url(#SaturateMinus)" transform="translate(653,220)"/>
        <path d="M 0 0 l 0 -79.89 s 0 -6 6 -6 l 8 0 s 6 0 6 6 l 0 79.89 z" transform="translate(873,220)"/>
        <path d="M 0 0 l 0 -79.89 s 0 -6 6 -6 l 8 0 s 6 0 6 6 l 0 79.89 z" fill="url(#WhiteBlackGradient)" transform="translate(873,220)"/>
        <path d="M 0 0 l 0 -79.89 s 0 -6 6 -6 l 8 0 s 6 0 6 6 l 0 79.89 z" fill-opacity="0.3" filter="url(#SaturateMinus)" transform="translate(873,220)"/>
        <path d="M 0 0 l 0 101.37 s 0 6 6 6 l 8 0 s 6 0 6 -6 l 0 -101.37 z" transform="translate(1093,220)"/>
        <path d="M 0 0 l 0 101.37 s 0 6 6 6 l 8 0 s 6 0 6 -6 l 0 -101.37 z" fill="url(#WhiteBlackGradient)" transform="translate(1093,220)"/>
        <path d="M 0 0 l 0 101.37 s 0 6 6 6 l 8 0 s 6 0 6 -6 l 0 -101.37 z" fill-opacity="0.3" filter="url(#SaturateMinus)" transform="translate(1093,220)"/>
        <path d="M 0 0 l 0 -122.84 s 0 -6 6 -6 l 8 0 s 6 0 6 6 l 0 122.84 z" transform="translate(1313,220)"/>
        <path d="M 0 0 l 0 -122.84 s 0 -6 6 -6 l 8 0 s 6 0 6 6 l 0 122.84 z" fill="url(#WhiteBlackGradient)" transform="translate(1313,220)"/>
        <path d="M 0 0 l 0 -122.84 s 0 -6 6 -6 l 8 0 s 6 0 6 6 l 0 122.84 z" fill-opacity="0.3" filter="url(#SaturateMinus)" transform="translate(1313,220)"/>
        <path d="M 0 0 l 0 144.31 s 0 6 6 6 l 8 0 s 6 0 6 -6 l 0 -144.31 z" transform="translate(1533,220)"/>
        <path d="M 0 0 l 0 144.31 s 0 6 6 6 l 8 0 s 6 0 6 -6 l 0 -144.31 z" fill="url(#WhiteBlackGradient)" transform="translate(1533,220)"/>
        <path d="M 0 0 l 0 144.31 s 0 6 6 6 l 8 0 s 6 0 6 -6 l 0 -144.31 z" fill-opacity="0.3" filter="url(#SaturateMinus)" transform="translate(1533,220)"/>
        <path d="M 0 0 l 0 -165.79 s 0 -6 6 -6 l 8 0 s 6 0 6 6 l 0 165.79 z" transform="translate(1753,220)"/>
        <path d="M 0 0 l 0 -165.79 s 0 -6 6 -6 l 8 0 s 6 0 6 6 l 0 165.79 z" fill="url(#WhiteBlackGradient)" transform="translate(1753,220)"/>
        <path d="M 0 0 l 0 -165.79 s 0 -6 6 -6 l 8 0 s 6 0 6 6 l 0 165.79 z" fill-opacity="0.3" filter="url(#SaturateMinus)" transform="translate(1753,220)"/>
      </g>
      <g fill="pink" filter="none" id="ID_graph_7" opacity="1" stroke="none" stroke-opacity="1" stroke-width="0">
        <path d="M 0 0 l 0 17.62 s 0 6 6 6 l 8 0 s 6 0 6 -6 l 0 -17.62 z" transform="translate(243,220)"/>
        <path d="M 0 0 l 0 17.62 s 0 6 6 6 l 8 0 s 6 0 6 -6 l 0 -17.62 z" fill="url(#WhiteBlackGradient)" transform="translate(243,220)"/>
        <path d="M 0 0 l 0 17.62 s 0 6 6 6 l 8 0 s 6 0 6 -6 l 0 -17.62 z" fill-opacity="0.3" filter="url(#SaturateMinus)" transform="translate(243,220)"/>
        <path d="M 0 0 l 0 -41.24 s 0 -6 6 -6 l 8 0 s 6 0 6 6 l 0 41.24 z" transform="translate(463,220)"/>
        <path d="M 0 0 l 0 -41.24 s 0 -6 6 -6 l 8 0 s 6 0 6 6 l 0 41.24 z" fill="url(#WhiteBlackGradient)" transform="translate(463,220)"/>
        <path d="M 0 0 l 0 -41.24 s 0 -6 6 -6 l 8 0 s 6 0 6 6 l 0 41.24 z" fill-opacity="0.3" filter="url(#SaturateMinus)" transform="translate(463,220)"/>
        <path d="M 0 0 l 0 64.86 s 0 6 6 6 l 8 0 s 6 0 6 -6 l 0 -64.86 z" transform="translate(683,220)"/>
        <path d="M 0 0 l 0 64.86 s 0 6 6 6 l 8 0 s 6 0 6 -6 l 0 -64.86 z" fill="url(#WhiteBlackGradient)" transform="translate(683,220)"/>
        <path d="M 0 0 l 0 64.86 s 0 6 6 6 l 8 0 s 6 0 6 -6 l 0 -64.86 z" fill-opacity="0.3" filter="url(#SaturateMinus)" transform="translate(683,220)"/>
        <path d="M 0 0 l 0 -88.48 s 0 -6 6 -6 l 8 0 s 6 0 6 6 l 0 88.48 z" transform="translate(903,220)"/>
        <path d="M 0 0 l 0 -88.48 s 0 -6 6 -6 l 8 0 s 6 0 6 6 l 0 88.48 z" fill="url(#WhiteBlackGradient)" transform="translate(903,220)"/>
        <path d="M 0 0 l 0 -88.48 s 0 -6 6 -6 l 8 0 s 6 0 6 6 l 0 88.48 z" fill-opacity="0.3" filter="url(#SaturateMinus)" transform="translate(903,220)"/>
        <path d="M 0 0 l 0 112.1 s 0 6 6 6 l 8 0 s 6 0 6 -6 l 0 -112.1 z" transform="translate(1123,220)"/>
        <path d="M 0 0 l 0 112.1 s 0 6 6 6 l 8 0 s 6 0 6 -6 l 0 -112.1 z" fill="url(#WhiteBlackGradient)" transform="translate(1123,220)"/>
        <path d="M 0 0 l 0 112.1 s 0 6 6 6 l 8 0 s 6 0 6 -6 l 0 -112.1 z" fill-opacity="0.3" filter="url(#SaturateMinus)" transform="translate(1123,220)"/>
        <path d="M 0 0 l 0 -135.72 s 0 -6 6 -6 l 8 0 s 6 0 6 6 l 0 135.72 z" transform="translate(1343,220)"/>
        <path d="M 0 0 l 0 -135.72 s 0 -6 6 -6 l 8 0 s 6 0 6 6 l 0 135.72 z" fill="url(#WhiteBlackGradient)" transform="translate(1343,220)"/>
        <path d="M 0 0 l 0 -135.72 s 0 -6 6 -6 l 8 0 s 6 0 6 6 l 0 135.72 z" fill-opacity="0.3" filter="url(#SaturateMinus)" transform="translate(1343,220)"/>
        <path d="M 0 0 l 0 159.35 s 0 6 6 6 l 8 0 s 6 0 6 -6 l 0 -159.35 z" transform="translate(1563,220)"/>
        <path d="M 0 0 l 0 159.35 s 0 6 6 6 l 8 0 s 6 0 6 -6 l 0 -159.35 z" fill="url(#WhiteBlackGradient)" transform="translate(1563,220)"/>
        <path d="M 0 0 l 0 159.35 s 0 6 6 6 l 8 0 s 6 0 6 -6 l 0 -159.35 z" fill-opacity="0.3" filter="url(#SaturateMinus)" transform="translate(1563,220)"/>
        <path d="M 0 0 l 0 -182.97 s 0 -6 6 -6 l 8 0 s 6 0 6 6 l 0 182.97 z" transform="translate(1783,220)"/>
        <path d="M 0 0 l 0 -182.97 s 0 -6 6 -6 l 8 0 s 6 0 6 6 l 0 182.97 z" fill="url(#WhiteBlackGradient)" transform="translate(1783,220)"/>
        <path d="M 0 0 l 0 -182.97 s 0 -6 6 -6 l 8 0 s 6 0 6 6 l 0 182.97 z" fill-opacity="0.3" filter="url(#SaturateMinus)" transform="translate(1783,220)"/>
      </g>
    </g>
  </g>

</svg>