
<svg xmlns="http://www.w3.org/2000/svg" id="ID_svg" viewBox="0 0 1018.04 448" viewport-fill="none" viewport-fill-opacity="1" xmlns:exsl4D="http://www.4D.com" xmlns:gFunc="http://gFunc" xmlns:math="http://exslt.org/math" xmlns:xlink="http://www.w3.org/1999/xlink">

  <!--gradient styles-->

  <defs>
    <filter id="soft_blur">
      <feGaussianBlur in="SourceGraphic" result="BlurAlpha" stdDeviation="1"/>
    </filter>
    <filter id="pastel">
      <feGaussianBlur in="SourceAlpha" result="blur" stdDeviation="2"/>
      <feOffset dx="6" dy="6" in="blur" result="offsetBlur"/>
      <feComposite in="SourceGraphic" in2="offsetBlur" operator="in" result="specOut"/>
    </filter>
    <filter id="blur_shadow">
      <feGaussianBlur in="SourceAlpha" result="blur" stdDeviation="3"/>
      <feOffset dx="4" dy="2" in="blur" result="offsetBlur"/>
      <feBlend in="SourceGraphic" in2="offsetBlur" mode="normal"/>
    </filter>
    <filter filterUnits="objectBoundingBox" id="Shadow">
      <feGaussianBlur in="SourceAlpha" result="flou" stdDeviation="0"/>
      <feColorMatrix in="SourceAlpha" result="flouBlue" type="matrix" values=" 0 0 0 0 0                      0 0 0 0 0                     0 0 0 0 0                      0 0 0 0.3 0"/>
      <feOffset dx="4" dy="4" in="flouBlue" result="flouDecalage"/>
      <feBlend in="SourceGraphic" in2="flouDecalage" mode="normal"/>
    </filter>
    <filter filterUnits="objectBoundingBox" height="100%" id="SaturateMinus" width="100%" x="0%" y="0%">
      <feColorMatrix in="SourceGraphic" type="saturate" values="0.5"/>
    </filter>
    <filter filterUnits="objectBoundingBox" height="100%" id="SaturatePlus" width="100%" x="0%" y="0%">
      <feColorMatrix in="SourceGraphic" type="saturate" values="1.4"/>
    </filter>
    <linearGradient id="BlackGradient">
      <stop offset="0%" style="stop-color:rgb(0,0,0); stop-opacity:0"/>
      <stop offset="100%" style="stop-color:rgb(0,0,0); stop-opacity:0.1"/>
    </linearGradient>
    <linearGradient id="WhiteGradient" x1="0%" x2="100%" y1="0%" y2="0%">
      <stop offset="0%" style="stop-color:rgb(255,255,255); stop-opacity:0.3"/>
      <stop offset="100%" style="stop-color:rgb(255,255,255);stop-opacity:0"/>
    </linearGradient>
    <linearGradient id="WhiteBlackGradient" x1="0%" x2="100%" y1="0%" y2="0%">
      <stop offset="0%" style="stop-color:rgb(255,255,255); stop-opacity:0.15"/>
      <stop offset="100%" style="stop-color:rgb(0,0,0);stop-opacity:0.15"/>
    </linearGradient>
    <linearGradient id="Black0Black1Gradient" x1="0%" x2="0%" y1="0%" y2="100%">
      <stop offset="0%" style="stop-color:rgb(0,0,0); stop-opacity:0"/>
      <stop offset="100%" style="stop-color:rgb(0,0,0);stop-opacity:0.05"/>
    </linearGradient>
  </defs>

  <!--global stroke and font styles-->

  <g id="ID_globals" style="fill:black;stroke:none;font-family:Arial;font-size:12px;font-weight:normal;font-style:normal;text-decoration:none;shape-rendering:crispEdges">
    <!--draw title-->
    <!--********************************draw graph background********************************-->
    <rect fill="rgb(168,168,168)" height="400" id="ID_background_shadow" opacity="1" rx="10" ry="10" stroke="none" transform="translate(1,1)" visibility="visible" width="800.04" x="42" y="12"/>
    <g fill="rgb(229,229,229)" id="ID_background" opacity="1" stroke="none" visibility="visible">
      <rect height="400" rx="10" ry="10" stroke="none" width="800.04" x="42" y="12"/>
      <rect fill="url(#Black0Black1Gradient)" height="400" rx="10" ry="10" stroke="none" width="800.04" x="42" y="12"/>
    </g>
    <clipPath id="ID_backgroundClipPath">
      <rect height="401" rx="10" ry="10" width="801.04" x="41" y="11"/>
    </clipPath>
    <!--********************************draw Y Labels********************************-->
    <g id="ID_y$value" style="fill:black;stroke:none;font-family:Arial;font-size:12px;font-weight:normal;font-style:normal;text-decoration:none;filter:none" visibility="visible">
      <text text-anchor="end" x="30" y="18">18</text>
      <text text-anchor="end" x="30" y="54.36">15</text>
      <text text-anchor="end" x="30" y="90.72">12</text>
      <text text-anchor="end" x="30" y="127.08">9</text>
      <text text-anchor="end" x="30" y="163.44">6</text>
      <text text-anchor="end" x="30" y="199.8">3</text>
      <text text-anchor="end" x="30" y="236.16">0</text>
      <text text-anchor="end" x="30" y="272.52">-3</text>
      <text text-anchor="end" x="30" y="308.88">-6</text>
      <text text-anchor="end" x="30" y="345.24">-9</text>
      <text text-anchor="end" x="30" y="381.6">-12</text>
      <text text-anchor="end" x="30" y="417.96">-15</text>
    </g>
    <!--********************************draw X Labels********************************-->
    <!--draw axis x labels-->
    <g id="ID_x$value" style="fill:black;stroke:none;font-family:Arial;font-size:12px;font-weight:normal;font-style:normal;text-decoration:none;filter:none" visibility="visible">
      <text text-anchor="middle" x="42" y="436">06:00:00</text>
      <text text-anchor="middle" x="108.67" y="436">07:00:00</text>
      <text text-anchor="middle" x="175.34" y="436">08:00:00</text>
      <text text-anchor="middle" x="242.01" y="436">09:00:00</text>
      <text text-anchor="middle" x="308.68" y="436">10:00:00</text>
      <text text-anchor="middle" x="375.35" y="436">11:00:00</text>
      <text text-anchor="middle" x="442.02" y="436">12:00:00</text>
      <text text-anchor="middle" x="508.69" y="436">13:00:00</text>
      <text text-anchor="middle" x="575.36" y="436">14:00:00</text>
      <text text-anchor="middle" x="642.03" y="436">15:00:00</text>
      <text text-anchor="middle" x="708.7" y="436">16:00:00</text>
      <text text-anchor="middle" x="775.37" y="436">17:00:00</text>
      <text text-anchor="middle" x="842.04" y="436">18:00:00</text>
    </g>
    <g style="clip-path: url(#ID_backgroundClipPath)">
      <!--******************************** draw Y grid lines******************************** (Horizontal lines)-->
      <g id="ID_y_grid" stroke="#a8a8a8" stroke-width="1">
        <line x1="42" x2="842.04" y1="48.36" y2="48.36"/>
        <line x1="42" x2="842.04" y1="84.72" y2="84.72"/>
        <line x1="42" x2="842.04" y1="121.08" y2="121.08"/>
        <line x1="42" x2="842.04" y1="157.44" y2="157.44"/>
        <line x1="42" x2="842.04" y1="193.8" y2="193.8"/>
        <line x1="42" x2="842.04" y1="230.16" y2="230.16"/>
        <line x1="42" x2="842.04" y1="266.52" y2="266.52"/>
        <line x1="42" x2="842.04" y1="302.88" y2="302.88"/>
        <line x1="42" x2="842.04" y1="339.24" y2="339.24"/>
        <line x1="42" x2="842.04" y1="375.6" y2="375.6"/>
      </g>
      <!--draw Y grid lines SHADOWS-->
      <g id="ID_y_grid_shadow" stroke="#ffffff" stroke-width="1">
        <line transform="translate(0,1)" x1="42" x2="842.04" y1="48.36" y2="48.36"/>
        <line transform="translate(0,1)" x1="42" x2="842.04" y1="84.72" y2="84.72"/>
        <line transform="translate(0,1)" x1="42" x2="842.04" y1="121.08" y2="121.08"/>
        <line transform="translate(0,1)" x1="42" x2="842.04" y1="157.44" y2="157.44"/>
        <line transform="translate(0,1)" x1="42" x2="842.04" y1="193.8" y2="193.8"/>
        <line transform="translate(0,1)" x1="42" x2="842.04" y1="230.16" y2="230.16"/>
        <line transform="translate(0,1)" x1="42" x2="842.04" y1="266.52" y2="266.52"/>
        <line transform="translate(0,1)" x1="42" x2="842.04" y1="302.88" y2="302.88"/>
        <line transform="translate(0,1)" x1="42" x2="842.04" y1="339.24" y2="339.24"/>
        <line transform="translate(0,1)" x1="42" x2="842.04" y1="375.6" y2="375.6"/>
      </g>
      <g id="ID_y0_axis" stroke="rgb(100,100,100)" stroke-width="1" visibility="visible">
        <line x1="42" x2="842.04" y1="230.18" y2="230.18"/>
      </g>
      <!--********************************draw X grid lines******************************** (Vertical lines)-->
      <g id="ID_x_grid" stroke="#a8a8a8" stroke-width="1">
        <line x1="108.67" x2="108.67" y1="12" y2="412"/>
        <line x1="175.34" x2="175.34" y1="12" y2="412"/>
        <line x1="242.01" x2="242.01" y1="12" y2="412"/>
        <line x1="308.68" x2="308.68" y1="12" y2="412"/>
        <line x1="375.35" x2="375.35" y1="12" y2="412"/>
        <line x1="442.02" x2="442.02" y1="12" y2="412"/>
        <line x1="508.69" x2="508.69" y1="12" y2="412"/>
        <line x1="575.36" x2="575.36" y1="12" y2="412"/>
        <line x1="642.03" x2="642.03" y1="12" y2="412"/>
        <line x1="708.7" x2="708.7" y1="12" y2="412"/>
        <line x1="775.37" x2="775.37" y1="12" y2="412"/>
      </g>
      <!--draw X grid lines SHADOWS -->
      <g id="ID_x_grid_shadow" stroke="#ffffff" stroke-width="1">
        <line transform="translate(1,0)" x1="108.67" x2="108.67" y1="12" y2="412"/>
        <line transform="translate(1,0)" x1="175.34" x2="175.34" y1="12" y2="412"/>
        <line transform="translate(1,0)" x1="242.01" x2="242.01" y1="12" y2="412"/>
        <line transform="translate(1,0)" x1="308.68" x2="308.68" y1="12" y2="412"/>
        <line transform="translate(1,0)" x1="375.35" x2="375.35" y1="12" y2="412"/>
        <line transform="translate(1,0)" x1="442.02" x2="442.02" y1="12" y2="412"/>
        <line transform="translate(1,0)" x1="508.69" x2="508.69" y1="12" y2="412"/>
        <line transform="translate(1,0)" x1="575.36" x2="575.36" y1="12" y2="412"/>
        <line transform="translate(1,0)" x1="642.03" x2="642.03" y1="12" y2="412"/>
        <line transform="translate(1,0)" x1="708.7" x2="708.7" y1="12" y2="412"/>
        <line transform="translate(1,0)" x1="775.37" x2="775.37" y1="12" y2="412"/>
      </g>
    </g>
    <!--******************************** draw legend ***********************************-->
    <g filter="none" id="ID_legend" transform="translate(854.04,12)" visibility="visible">
      <!--draw legend border-->
      <rect fill="rgb(168,168,168)" fill-opacity="1" height="250" id="ID_legend_border_shadow" rx="10" ry="10" stroke="none" transform="translate(1,1)" width="152" x="0" y="0"/>
      <rect fill="rgb(229,229,229)" fill-opacity="1" height="250" id="ID_legend_border" rx="10" ry="10" stroke="none" stroke-width="0" width="152" x="0" y="0"/>
      <!--draw legend bullets-->
      <g id="ID_legend_bullets" stroke="none">
        <g fill="rgb(0,178,195)" id="ID_legend_1">
          <rect height="20" rx="3" ry="3" width="20" x="10" y="10"/>
          <rect fill="url(#WhiteBlackGradient)" height="20" rx="3" ry="3" width="20" x="10" y="10"/>
          <rect fill-opacity="0.3" filter="url(#SaturateMinus)" height="20" rx="3" ry="3" width="20" x="10" y="10"/>
        </g>
        <g fill="rgb(255,195,56)" id="ID_legend_2">
          <rect height="20" rx="3" ry="3" width="20" x="10" y="40"/>
          <rect fill="url(#WhiteBlackGradient)" height="20" rx="3" ry="3" width="20" x="10" y="40"/>
          <rect fill-opacity="0.3" filter="url(#SaturateMinus)" height="20" rx="3" ry="3" width="20" x="10" y="40"/>
        </g>
        <g fill="rgb(87,62,130)" id="ID_legend_3">
          <rect height="20" rx="3" ry="3" width="20" x="10" y="70"/>
          <rect fill="url(#WhiteBlackGradient)" height="20" rx="3" ry="3" width="20" x="10" y="70"/>
          <rect fill-opacity="0.3" filter="url(#SaturateMinus)" height="20" rx="3" ry="3" width="20" x="10" y="70"/>
        </g>
        <g fill="rgb(79,168,57)" id="ID_legend_4">
          <rect height="20" rx="3" ry="3" width="20" x="10" y="100"/>
          <rect fill="url(#WhiteBlackGradient)" height="20" rx="3" ry="3" width="20" x="10" y="100"/>
          <rect fill-opacity="0.3" filter="url(#SaturateMinus)" height="20" rx="3" ry="3" width="20" x="10" y="100"/>
        </g>
        <g fill="rgb(217,87,0)" id="ID_legend_5">
          <rect height="20" rx="3" ry="3" width="20" x="10" y="130"/>
          <rect fill="url(#WhiteBlackGradient)" height="20" rx="3" ry="3" width="20" x="10" y="130"/>
          <rect fill-opacity="0.3" filter="url(#SaturateMinus)" height="20" rx="3" ry="3" width="20" x="10" y="130"/>
        </g>
        <g fill="rgb(29,157,242)" id="ID_legend_6">
          <rect height="20" rx="3" ry="3" width="20" x="10" y="160"/>
          <rect fill="url(#WhiteBlackGradient)" height="20" rx="3" ry="3" width="20" x="10" y="160"/>
          <rect fill-opacity="0.3" filter="url(#SaturateMinus)" height="20" rx="3" ry="3" width="20" x="10" y="160"/>
        </g>
        <g fill="rgb(181,207,50)" id="ID_legend_7">
          <rect height="20" rx="3" ry="3" width="20" x="10" y="190"/>
          <rect fill="url(#WhiteBlackGradient)" height="20" rx="3" ry="3" width="20" x="10" y="190"/>
          <rect fill-opacity="0.3" filter="url(#SaturateMinus)" height="20" rx="3" ry="3" width="20" x="10" y="190"/>
        </g>
        <g fill="rgb(212,58,38)" id="ID_legend_8">
          <rect height="20" rx="3" ry="3" width="20" x="10" y="220"/>
          <rect fill="url(#WhiteBlackGradient)" height="20" rx="3" ry="3" width="20" x="10" y="220"/>
          <rect fill-opacity="0.3" filter="url(#SaturateMinus)" height="20" rx="3" ry="3" width="20" x="10" y="220"/>
        </g>
      </g>
      <!--draw legend labels-->
      <g id="ID_legend_labels" style="fill:black;stroke:none;font-family:Arial;;font-weight:normal;font-style:normal;text-decoration:none;filter:none;text-anchor:start">
        <text x="40" y="27">Sharp</text>
        <text x="40" y="57">Infinity</text>
        <text x="40" y="87">Audio Référence</text>
        <text x="40" y="117">Triangle</text>
        <text x="40" y="147">Yamaha</text>
        <text x="40" y="177">Onkyo</text>
        <text x="40" y="207">Sony</text>
        <text x="40" y="237">Free</text>
      </g>
    </g>
    <g style="clip-path: url(#ID_backgroundClipPath)">
      <g filter="none" stroke-opacity="1" stroke-width="2">
        <g id="ID_graph_1" stroke="rgb(0,178,195)">
          <line fill-opacity="1" x1="175.34" x2="242.01" y1="242.3" y2="205.94"/>
          <line fill-opacity="1" x1="242.01" x2="308.68" y1="205.94" y2="266.54"/>
          <line fill-opacity="1" x1="308.68" x2="375.35" y1="266.54" y2="181.7"/>
          <line fill-opacity="1" x1="375.35" x2="392.02" y1="181.7" y2="290.79"/>
          <line fill-opacity="1" x1="392.02" x2="625.36" y1="290.79" y2="157.45"/>
          <line fill-opacity="1" x1="625.36" x2="642.03" y1="157.45" y2="315.03"/>
          <line fill-opacity="1" x1="642.03" x2="708.7" y1="315.03" y2="133.21"/>
        </g>
        <g id="ID_graph_2" stroke="rgb(255,195,56)">
          <line fill-opacity="1" x1="175.34" x2="242.01" y1="243.51" y2="203.51"/>
          <line fill-opacity="1" x1="242.01" x2="308.68" y1="203.51" y2="270.18"/>
          <line fill-opacity="1" x1="308.68" x2="375.35" y1="270.18" y2="176.85"/>
          <line fill-opacity="1" x1="375.35" x2="392.02" y1="176.85" y2="296.85"/>
          <line fill-opacity="1" x1="392.02" x2="625.36" y1="296.85" y2="150.18"/>
          <line fill-opacity="1" x1="625.36" x2="642.03" y1="150.18" y2="323.51"/>
          <line fill-opacity="1" x1="642.03" x2="708.7" y1="323.51" y2="123.51"/>
        </g>
        <g id="ID_graph_3" stroke="rgb(87,62,130)">
          <line fill-opacity="1" x1="175.34" x2="242.01" y1="244.85" y2="200.85"/>
          <line fill-opacity="1" x1="242.01" x2="308.68" y1="200.85" y2="274.18"/>
          <line fill-opacity="1" x1="308.68" x2="375.35" y1="274.18" y2="171.51"/>
          <line fill-opacity="1" x1="375.35" x2="392.02" y1="171.51" y2="303.51"/>
          <line fill-opacity="1" x1="392.02" x2="625.36" y1="303.51" y2="142.18"/>
          <line fill-opacity="1" x1="625.36" x2="642.03" y1="142.18" y2="332.85"/>
          <line fill-opacity="1" x1="642.03" x2="708.7" y1="332.85" y2="112.85"/>
        </g>
        <g id="ID_graph_4" stroke="rgb(79,168,57)">
          <line fill-opacity="1" x1="175.34" x2="242.01" y1="246.31" y2="197.91"/>
          <line fill-opacity="1" x1="242.01" x2="308.68" y1="197.91" y2="278.58"/>
          <line fill-opacity="1" x1="308.68" x2="375.35" y1="278.58" y2="165.65"/>
          <line fill-opacity="1" x1="375.35" x2="392.02" y1="165.65" y2="310.85"/>
          <line fill-opacity="1" x1="392.02" x2="625.36" y1="310.85" y2="133.38"/>
          <line fill-opacity="1" x1="625.36" x2="642.03" y1="133.38" y2="343.11"/>
          <line fill-opacity="1" x1="642.03" x2="708.7" y1="343.11" y2="101.11"/>
        </g>
        <g id="ID_graph_5" stroke="rgb(217,87,0)">
          <line fill-opacity="1" x1="175.34" x2="242.01" y1="247.93" y2="194.69"/>
          <line fill-opacity="1" x1="242.01" x2="308.68" y1="194.69" y2="283.42"/>
          <line fill-opacity="1" x1="308.68" x2="375.35" y1="283.42" y2="159.19"/>
          <line fill-opacity="1" x1="375.35" x2="392.02" y1="159.19" y2="318.91"/>
          <line fill-opacity="1" x1="392.02" x2="625.36" y1="318.91" y2="123.7"/>
          <line fill-opacity="1" x1="625.36" x2="642.03" y1="123.7" y2="354.41"/>
          <line fill-opacity="1" x1="642.03" x2="708.7" y1="354.41" y2="88.21"/>
        </g>
        <g id="ID_graph_6" stroke="rgb(29,157,242)">
          <line fill-opacity="1" x1="175.34" x2="242.01" y1="249.7" y2="191.14"/>
          <line fill-opacity="1" x1="242.01" x2="308.68" y1="191.14" y2="288.74"/>
          <line fill-opacity="1" x1="308.68" x2="375.35" y1="288.74" y2="152.09"/>
          <line fill-opacity="1" x1="375.35" x2="392.02" y1="152.09" y2="327.79"/>
          <line fill-opacity="1" x1="392.02" x2="625.36" y1="327.79" y2="113.05"/>
          <line fill-opacity="1" x1="625.36" x2="642.03" y1="113.05" y2="366.83"/>
          <line fill-opacity="1" x1="642.03" x2="708.7" y1="366.83" y2="74.01"/>
        </g>
        <g id="ID_graph_7" stroke="rgb(181,207,50)">
          <line fill-opacity="1" x1="175.34" x2="242.01" y1="251.65" y2="187.23"/>
          <line fill-opacity="1" x1="242.01" x2="308.68" y1="187.23" y2="294.6"/>
          <line fill-opacity="1" x1="308.68" x2="375.35" y1="294.6" y2="144.29"/>
          <line fill-opacity="1" x1="375.35" x2="392.02" y1="144.29" y2="337.55"/>
          <line fill-opacity="1" x1="392.02" x2="625.36" y1="337.55" y2="101.34"/>
          <line fill-opacity="1" x1="625.36" x2="642.03" y1="101.34" y2="380.49"/>
          <line fill-opacity="1" x1="642.03" x2="708.7" y1="380.49" y2="58.39"/>
        </g>
        <g id="ID_graph_8" stroke="rgb(212,58,38)">
          <line fill-opacity="1" x1="175.34" x2="242.01" y1="253.8" y2="182.94"/>
          <line fill-opacity="1" x1="242.01" x2="308.68" y1="182.94" y2="301.04"/>
          <line fill-opacity="1" x1="308.68" x2="375.35" y1="301.04" y2="135.7"/>
          <line fill-opacity="1" x1="375.35" x2="392.02" y1="135.7" y2="348.28"/>
          <line fill-opacity="1" x1="392.02" x2="625.36" y1="348.28" y2="88.46"/>
          <line fill-opacity="1" x1="625.36" x2="642.03" y1="88.46" y2="395.53"/>
          <line fill-opacity="1" x1="642.03" x2="708.7" y1="395.53" y2="41.21"/>
        </g>
      </g>
      <g filter="none" opacity="1" stroke="none" stroke-opacity="1" stroke-width="0">
        <g fill="rgb(0,178,195)" id="ID_graph_1">
          <g transform="translate(169.34,236.3)">
            <rect fill-opacity="1" height="12" rx="2" ry="2" width="12" x="0" y="0"/>
            <rect fill="url(#WhiteGradient)" height="12" rx="2" ry="2" width="12" x="0" y="0"/>
            <rect fill-opacity="0.4" filter="url(#SaturateMinus)" height="12" rx="2" ry="2" width="12" x="0" y="0"/>
            <rect fill="url(#BlackGradient)" height="12" rx="2" ry="2" width="12" x="0" y="0"/>
          </g>
          <g transform="translate(236.01,199.94)">
            <rect fill-opacity="1" height="12" rx="2" ry="2" width="12" x="0" y="0"/>
            <rect fill="url(#WhiteGradient)" height="12" rx="2" ry="2" width="12" x="0" y="0"/>
            <rect fill-opacity="0.4" filter="url(#SaturateMinus)" height="12" rx="2" ry="2" width="12" x="0" y="0"/>
            <rect fill="url(#BlackGradient)" height="12" rx="2" ry="2" width="12" x="0" y="0"/>
          </g>
          <g transform="translate(302.68,260.54)">
            <rect fill-opacity="1" height="12" rx="2" ry="2" width="12" x="0" y="0"/>
            <rect fill="url(#WhiteGradient)" height="12" rx="2" ry="2" width="12" x="0" y="0"/>
            <rect fill-opacity="0.4" filter="url(#SaturateMinus)" height="12" rx="2" ry="2" width="12" x="0" y="0"/>
            <rect fill="url(#BlackGradient)" height="12" rx="2" ry="2" width="12" x="0" y="0"/>
          </g>
          <g transform="translate(369.35,175.7)">
            <rect fill-opacity="1" height="12" rx="2" ry="2" width="12" x="0" y="0"/>
            <rect fill="url(#WhiteGradient)" height="12" rx="2" ry="2" width="12" x="0" y="0"/>
            <rect fill-opacity="0.4" filter="url(#SaturateMinus)" height="12" rx="2" ry="2" width="12" x="0" y="0"/>
            <rect fill="url(#BlackGradient)" height="12" rx="2" ry="2" width="12" x="0" y="0"/>
          </g>
          <g transform="translate(386.02,284.79)">
            <rect fill-opacity="1" height="12" rx="2" ry="2" width="12" x="0" y="0"/>
            <rect fill="url(#WhiteGradient)" height="12" rx="2" ry="2" width="12" x="0" y="0"/>
            <rect fill-opacity="0.4" filter="url(#SaturateMinus)" height="12" rx="2" ry="2" width="12" x="0" y="0"/>
            <rect fill="url(#BlackGradient)" height="12" rx="2" ry="2" width="12" x="0" y="0"/>
          </g>
          <g transform="translate(619.36,151.45)">
            <rect fill-opacity="1" height="12" rx="2" ry="2" width="12" x="0" y="0"/>
            <rect fill="url(#WhiteGradient)" height="12" rx="2" ry="2" width="12" x="0" y="0"/>
            <rect fill-opacity="0.4" filter="url(#SaturateMinus)" height="12" rx="2" ry="2" width="12" x="0" y="0"/>
            <rect fill="url(#BlackGradient)" height="12" rx="2" ry="2" width="12" x="0" y="0"/>
          </g>
          <g transform="translate(636.03,309.03)">
            <rect fill-opacity="1" height="12" rx="2" ry="2" width="12" x="0" y="0"/>
            <rect fill="url(#WhiteGradient)" height="12" rx="2" ry="2" width="12" x="0" y="0"/>
            <rect fill-opacity="0.4" filter="url(#SaturateMinus)" height="12" rx="2" ry="2" width="12" x="0" y="0"/>
            <rect fill="url(#BlackGradient)" height="12" rx="2" ry="2" width="12" x="0" y="0"/>
          </g>
          <g transform="translate(702.7,127.21)">
            <rect fill-opacity="1" height="12" rx="2" ry="2" width="12" x="0" y="0"/>
            <rect fill="url(#WhiteGradient)" height="12" rx="2" ry="2" width="12" x="0" y="0"/>
            <rect fill-opacity="0.4" filter="url(#SaturateMinus)" height="12" rx="2" ry="2" width="12" x="0" y="0"/>
            <rect fill="url(#BlackGradient)" height="12" rx="2" ry="2" width="12" x="0" y="0"/>
          </g>
        </g>
        <g fill="rgb(255,195,56)" id="ID_graph_2">
          <g transform="translate(169.34,237.51)">
            <rect fill-opacity="1" height="12" rx="2" ry="2" width="12" x="0" y="0"/>
            <rect fill="url(#WhiteGradient)" height="12" rx="2" ry="2" width="12" x="0" y="0"/>
            <rect fill-opacity="0.4" filter="url(#SaturateMinus)" height="12" rx="2" ry="2" width="12" x="0" y="0"/>
            <rect fill="url(#BlackGradient)" height="12" rx="2" ry="2" width="12" x="0" y="0"/>
          </g>
          <g transform="translate(236.01,197.51)">
            <rect fill-opacity="1" height="12" rx="2" ry="2" width="12" x="0" y="0"/>
            <rect fill="url(#WhiteGradient)" height="12" rx="2" ry="2" width="12" x="0" y="0"/>
            <rect fill-opacity="0.4" filter="url(#SaturateMinus)" height="12" rx="2" ry="2" width="12" x="0" y="0"/>
            <rect fill="url(#BlackGradient)" height="12" rx="2" ry="2" width="12" x="0" y="0"/>
          </g>
          <g transform="translate(302.68,264.18)">
            <rect fill-opacity="1" height="12" rx="2" ry="2" width="12" x="0" y="0"/>
            <rect fill="url(#WhiteGradient)" height="12" rx="2" ry="2" width="12" x="0" y="0"/>
            <rect fill-opacity="0.4" filter="url(#SaturateMinus)" height="12" rx="2" ry="2" width="12" x="0" y="0"/>
            <rect fill="url(#BlackGradient)" height="12" rx="2" ry="2" width="12" x="0" y="0"/>
          </g>
          <g transform="translate(369.35,170.85)">
            <rect fill-opacity="1" height="12" rx="2" ry="2" width="12" x="0" y="0"/>
            <rect fill="url(#WhiteGradient)" height="12" rx="2" ry="2" width="12" x="0" y="0"/>
            <rect fill-opacity="0.4" filter="url(#SaturateMinus)" height="12" rx="2" ry="2" width="12" x="0" y="0"/>
            <rect fill="url(#BlackGradient)" height="12" rx="2" ry="2" width="12" x="0" y="0"/>
          </g>
          <g transform="translate(386.02,290.85)">
            <rect fill-opacity="1" height="12" rx="2" ry="2" width="12" x="0" y="0"/>
            <rect fill="url(#WhiteGradient)" height="12" rx="2" ry="2" width="12" x="0" y="0"/>
            <rect fill-opacity="0.4" filter="url(#SaturateMinus)" height="12" rx="2" ry="2" width="12" x="0" y="0"/>
            <rect fill="url(#BlackGradient)" height="12" rx="2" ry="2" width="12" x="0" y="0"/>
          </g>
          <g transform="translate(619.36,144.18)">
            <rect fill-opacity="1" height="12" rx="2" ry="2" width="12" x="0" y="0"/>
            <rect fill="url(#WhiteGradient)" height="12" rx="2" ry="2" width="12" x="0" y="0"/>
            <rect fill-opacity="0.4" filter="url(#SaturateMinus)" height="12" rx="2" ry="2" width="12" x="0" y="0"/>
            <rect fill="url(#BlackGradient)" height="12" rx="2" ry="2" width="12" x="0" y="0"/>
          </g>
          <g transform="translate(636.03,317.51)">
            <rect fill-opacity="1" height="12" rx="2" ry="2" width="12" x="0" y="0"/>
            <rect fill="url(#WhiteGradient)" height="12" rx="2" ry="2" width="12" x="0" y="0"/>
            <rect fill-opacity="0.4" filter="url(#SaturateMinus)" height="12" rx="2" ry="2" width="12" x="0" y="0"/>
            <rect fill="url(#BlackGradient)" height="12" rx="2" ry="2" width="12" x="0" y="0"/>
          </g>
          <g transform="translate(702.7,117.51)">
            <rect fill-opacity="1" height="12" rx="2" ry="2" width="12" x="0" y="0"/>
            <rect fill="url(#WhiteGradient)" height="12" rx="2" ry="2" width="12" x="0" y="0"/>
            <rect fill-opacity="0.4" filter="url(#SaturateMinus)" height="12" rx="2" ry="2" width="12" x="0" y="0"/>
            <rect fill="url(#BlackGradient)" height="12" rx="2" ry="2" width="12" x="0" y="0"/>
          </g>
        </g>
        <g fill="rgb(87,62,130)" id="ID_graph_3">
          <g transform="translate(169.34,238.85)">
            <rect fill-opacity="1" height="12" rx="2" ry="2" width="12" x="0" y="0"/>
            <rect fill="url(#WhiteGradient)" height="12" rx="2" ry="2" width="12" x="0" y="0"/>
            <rect fill-opacity="0.4" filter="url(#SaturateMinus)" height="12" rx="2" ry="2" width="12" x="0" y="0"/>
            <rect fill="url(#BlackGradient)" height="12" rx="2" ry="2" width="12" x="0" y="0"/>
          </g>
          <g transform="translate(236.01,194.85)">
            <rect fill-opacity="1" height="12" rx="2" ry="2" width="12" x="0" y="0"/>
            <rect fill="url(#WhiteGradient)" height="12" rx="2" ry="2" width="12" x="0" y="0"/>
            <rect fill-opacity="0.4" filter="url(#SaturateMinus)" height="12" rx="2" ry="2" width="12" x="0" y="0"/>
            <rect fill="url(#BlackGradient)" height="12" rx="2" ry="2" width="12" x="0" y="0"/>
          </g>
          <g transform="translate(302.68,268.18)">
            <rect fill-opacity="1" height="12" rx="2" ry="2" width="12" x="0" y="0"/>
            <rect fill="url(#WhiteGradient)" height="12" rx="2" ry="2" width="12" x="0" y="0"/>
            <rect fill-opacity="0.4" filter="url(#SaturateMinus)" height="12" rx="2" ry="2" width="12" x="0" y="0"/>
            <rect fill="url(#BlackGradient)" height="12" rx="2" ry="2" width="12" x="0" y="0"/>
          </g>
          <g transform="translate(369.35,165.51)">
            <rect fill-opacity="1" height="12" rx="2" ry="2" width="12" x="0" y="0"/>
            <rect fill="url(#WhiteGradient)" height="12" rx="2" ry="2" width="12" x="0" y="0"/>
            <rect fill-opacity="0.4" filter="url(#SaturateMinus)" height="12" rx="2" ry="2" width="12" x="0" y="0"/>
            <rect fill="url(#BlackGradient)" height="12" rx="2" ry="2" width="12" x="0" y="0"/>
          </g>
          <g transform="translate(386.02,297.51)">
            <rect fill-opacity="1" height="12" rx="2" ry="2" width="12" x="0" y="0"/>
            <rect fill="url(#WhiteGradient)" height="12" rx="2" ry="2" width="12" x="0" y="0"/>
            <rect fill-opacity="0.4" filter="url(#SaturateMinus)" height="12" rx="2" ry="2" width="12" x="0" y="0"/>
            <rect fill="url(#BlackGradient)" height="12" rx="2" ry="2" width="12" x="0" y="0"/>
          </g>
          <g transform="translate(619.36,136.18)">
            <rect fill-opacity="1" height="12" rx="2" ry="2" width="12" x="0" y="0"/>
            <rect fill="url(#WhiteGradient)" height="12" rx="2" ry="2" width="12" x="0" y="0"/>
            <rect fill-opacity="0.4" filter="url(#SaturateMinus)" height="12" rx="2" ry="2" width="12" x="0" y="0"/>
            <rect fill="url(#BlackGradient)" height="12" rx="2" ry="2" width="12" x="0" y="0"/>
          </g>
          <g transform="translate(636.03,326.85)">
            <rect fill-opacity="1" height="12" rx="2" ry="2" width="12" x="0" y="0"/>
            <rect fill="url(#WhiteGradient)" height="12" rx="2" ry="2" width="12" x="0" y="0"/>
            <rect fill-opacity="0.4" filter="url(#SaturateMinus)" height="12" rx="2" ry="2" width="12" x="0" y="0"/>
            <rect fill="url(#BlackGradient)" height="12" rx="2" ry="2" width="12" x="0" y="0"/>
          </g>
          <g transform="translate(702.7,106.85)">
            <rect fill-opacity="1" height="12" rx="2" ry="2" width="12" x="0" y="0"/>
            <rect fill="url(#WhiteGradient)" height="12" rx="2" ry="2" width="12" x="0" y="0"/>
            <rect fill-opacity="0.4" filter="url(#SaturateMinus)" height="12" rx="2" ry="2" width="12" x="0" y="0"/>
            <rect fill="url(#BlackGradient)" height="12" rx="2" ry="2" width="12" x="0" y="0"/>
          </g>
        </g>
        <g fill="rgb(79,168,57)" id="ID_graph_4">
          <g transform="translate(169.34,240.31)">
            <rect fill-opacity="1" height="12" rx="2" ry="2" width="12" x="0" y="0"/>
            <rect fill="url(#WhiteGradient)" height="12" rx="2" ry="2" width="12" x="0" y="0"/>
            <rect fill-opacity="0.4" filter="url(#SaturateMinus)" height="12" rx="2" ry="2" width="12" x="0" y="0"/>
            <rect fill="url(#BlackGradient)" height="12" rx="2" ry="2" width="12" x="0" y="0"/>
          </g>
          <g transform="translate(236.01,191.91)">
            <rect fill-opacity="1" height="12" rx="2" ry="2" width="12" x="0" y="0"/>
            <rect fill="url(#WhiteGradient)" height="12" rx="2" ry="2" width="12" x="0" y="0"/>
            <rect fill-opacity="0.4" filter="url(#SaturateMinus)" height="12" rx="2" ry="2" width="12" x="0" y="0"/>
            <rect fill="url(#BlackGradient)" height="12" rx="2" ry="2" width="12" x="0" y="0"/>
          </g>
          <g transform="translate(302.68,272.58)">
            <rect fill-opacity="1" height="12" rx="2" ry="2" width="12" x="0" y="0"/>
            <rect fill="url(#WhiteGradient)" height="12" rx="2" ry="2" width="12" x="0" y="0"/>
            <rect fill-opacity="0.4" filter="url(#SaturateMinus)" height="12" rx="2" ry="2" width="12" x="0" y="0"/>
            <rect fill="url(#BlackGradient)" height="12" rx="2" ry="2" width="12" x="0" y="0"/>
          </g>
          <g transform="translate(369.35,159.65)">
            <rect fill-opacity="1" height="12" rx="2" ry="2" width="12" x="0" y="0"/>
            <rect fill="url(#WhiteGradient)" height="12" rx="2" ry="2" width="12" x="0" y="0"/>
            <rect fill-opacity="0.4" filter="url(#SaturateMinus)" height="12" rx="2" ry="2" width="12" x="0" y="0"/>
            <rect fill="url(#BlackGradient)" height="12" rx="2" ry="2" width="12" x="0" y="0"/>
          </g>
          <g transform="translate(386.02,304.85)">
            <rect fill-opacity="1" height="12" rx="2" ry="2" width="12" x="0" y="0"/>
            <rect fill="url(#WhiteGradient)" height="12" rx="2" ry="2" width="12" x="0" y="0"/>
            <rect fill-opacity="0.4" filter="url(#SaturateMinus)" height="12" rx="2" ry="2" width="12" x="0" y="0"/>
            <rect fill="url(#BlackGradient)" height="12" rx="2" ry="2" width="12" x="0" y="0"/>
          </g>
          <g transform="translate(619.36,127.38)">
            <rect fill-opacity="1" height="12" rx="2" ry="2" width="12" x="0" y="0"/>
            <rect fill="url(#WhiteGradient)" height="12" rx="2" ry="2" width="12" x="0" y="0"/>
            <rect fill-opacity="0.4" filter="url(#SaturateMinus)" height="12" rx="2" ry="2" width="12" x="0" y="0"/>
            <rect fill="url(#BlackGradient)" height="12" rx="2" ry="2" width="12" x="0" y="0"/>
          </g>
          <g transform="translate(636.03,337.11)">
            <rect fill-opacity="1" height="12" rx="2" ry="2" width="12" x="0" y="0"/>
            <rect fill="url(#WhiteGradient)" height="12" rx="2" ry="2" width="12" x="0" y="0"/>
            <rect fill-opacity="0.4" filter="url(#SaturateMinus)" height="12" rx="2" ry="2" width="12" x="0" y="0"/>
            <rect fill="url(#BlackGradient)" height="12" rx="2" ry="2" width="12" x="0" y="0"/>
          </g>
          <g transform="translate(702.7,95.11)">
            <rect fill-opacity="1" height="12" rx="2" ry="2" width="12" x="0" y="0"/>
            <rect fill="url(#WhiteGradient)" height="12" rx="2" ry="2" width="12" x="0" y="0"/>
            <rect fill-opacity="0.4" filter="url(#SaturateMinus)" height="12" rx="2" ry="2" width="12" x="0" y="0"/>
            <rect fill="url(#BlackGradient)" height="12" rx="2" ry="2" width="12" x="0" y="0"/>
          </g>
        </g>
        <g fill="rgb(217,87,0)" id="ID_graph_5">
          <g transform="translate(169.34,241.93)">
            <rect fill-opacity="1" height="12" rx="2" ry="2" width="12" x="0" y="0"/>
            <rect fill="url(#WhiteGradient)" height="12" rx="2" ry="2" width="12" x="0" y="0"/>
            <rect fill-opacity="0.4" filter="url(#SaturateMinus)" height="12" rx="2" ry="2" width="12" x="0" y="0"/>
            <rect fill="url(#BlackGradient)" height="12" rx="2" ry="2" width="12" x="0" y="0"/>
          </g>
          <g transform="translate(236.01,188.69)">
            <rect fill-opacity="1" height="12" rx="2" ry="2" width="12" x="0" y="0"/>
            <rect fill="url(#WhiteGradient)" height="12" rx="2" ry="2" width="12" x="0" y="0"/>
            <rect fill-opacity="0.4" filter="url(#SaturateMinus)" height="12" rx="2" ry="2" width="12" x="0" y="0"/>
            <rect fill="url(#BlackGradient)" height="12" rx="2" ry="2" width="12" x="0" y="0"/>
          </g>
          <g transform="translate(302.68,277.42)">
            <rect fill-opacity="1" height="12" rx="2" ry="2" width="12" x="0" y="0"/>
            <rect fill="url(#WhiteGradient)" height="12" rx="2" ry="2" width="12" x="0" y="0"/>
            <rect fill-opacity="0.4" filter="url(#SaturateMinus)" height="12" rx="2" ry="2" width="12" x="0" y="0"/>
            <rect fill="url(#BlackGradient)" height="12" rx="2" ry="2" width="12" x="0" y="0"/>
          </g>
          <g transform="translate(369.35,153.19)">
            <rect fill-opacity="1" height="12" rx="2" ry="2" width="12" x="0" y="0"/>
            <rect fill="url(#WhiteGradient)" height="12" rx="2" ry="2" width="12" x="0" y="0"/>
            <rect fill-opacity="0.4" filter="url(#SaturateMinus)" height="12" rx="2" ry="2" width="12" x="0" y="0"/>
            <rect fill="url(#BlackGradient)" height="12" rx="2" ry="2" width="12" x="0" y="0"/>
          </g>
          <g transform="translate(386.02,312.91)">
            <rect fill-opacity="1" height="12" rx="2" ry="2" width="12" x="0" y="0"/>
            <rect fill="url(#WhiteGradient)" height="12" rx="2" ry="2" width="12" x="0" y="0"/>
            <rect fill-opacity="0.4" filter="url(#SaturateMinus)" height="12" rx="2" ry="2" width="12" x="0" y="0"/>
            <rect fill="url(#BlackGradient)" height="12" rx="2" ry="2" width="12" x="0" y="0"/>
          </g>
          <g transform="translate(619.36,117.7)">
            <rect fill-opacity="1" height="12" rx="2" ry="2" width="12" x="0" y="0"/>
            <rect fill="url(#WhiteGradient)" height="12" rx="2" ry="2" width="12" x="0" y="0"/>
            <rect fill-opacity="0.4" filter="url(#SaturateMinus)" height="12" rx="2" ry="2" width="12" x="0" y="0"/>
            <rect fill="url(#BlackGradient)" height="12" rx="2" ry="2" width="12" x="0" y="0"/>
          </g>
          <g transform="translate(636.03,348.41)">
            <rect fill-opacity="1" height="12" rx="2" ry="2" width="12" x="0" y="0"/>
            <rect fill="url(#WhiteGradient)" height="12" rx="2" ry="2" width="12" x="0" y="0"/>
            <rect fill-opacity="0.4" filter="url(#SaturateMinus)" height="12" rx="2" ry="2" width="12" x="0" y="0"/>
            <rect fill="url(#BlackGradient)" height="12" rx="2" ry="2" width="12" x="0" y="0"/>
          </g>
          <g transform="translate(702.7,82.21)">
            <rect fill-opacity="1" height="12" rx="2" ry="2" width="12" x="0" y="0"/>
            <rect fill="url(#WhiteGradient)" height="12" rx="2" ry="2" width="12" x="0" y="0"/>
            <rect fill-opacity="0.4" filter="url(#SaturateMinus)" height="12" rx="2" ry="2" width="12" x="0" y="0"/>
            <rect fill="url(#BlackGradient)" height="12" rx="2" ry="2" width="12" x="0" y="0"/>
          </g>
        </g>
        <g fill="rgb(29,157,242)" id="ID_graph_6">
          <g transform="translate(169.34,243.7)">
            <rect fill-opacity="1" height="12" rx="2" ry="2" width="12" x="0" y="0"/>
            <rect fill="url(#WhiteGradient)" height="12" rx="2" ry="2" width="12" x="0" y="0"/>
            <rect fill-opacity="0.4" filter="url(#SaturateMinus)" height="12" rx="2" ry="2" width="12" x="0" y="0"/>
            <rect fill="url(#BlackGradient)" height="12" rx="2" ry="2" width="12" x="0" y="0"/>
          </g>
          <g transform="translate(236.01,185.14)">
            <rect fill-opacity="1" height="12" rx="2" ry="2" width="12" x="0" y="0"/>
            <rect fill="url(#WhiteGradient)" height="12" rx="2" ry="2" width="12" x="0" y="0"/>
            <rect fill-opacity="0.4" filter="url(#SaturateMinus)" height="12" rx="2" ry="2" width="12" x="0" y="0"/>
            <rect fill="url(#BlackGradient)" height="12" rx="2" ry="2" width="12" x="0" y="0"/>
          </g>
          <g transform="translate(302.68,282.74)">
            <rect fill-opacity="1" height="12" rx="2" ry="2" width="12" x="0" y="0"/>
            <rect fill="url(#WhiteGradient)" height="12" rx="2" ry="2" width="12" x="0" y="0"/>
            <rect fill-opacity="0.4" filter="url(#SaturateMinus)" height="12" rx="2" ry="2" width="12" x="0" y="0"/>
            <rect fill="url(#BlackGradient)" height="12" rx="2" ry="2" width="12" x="0" y="0"/>
          </g>
          <g transform="translate(369.35,146.09)">
            <rect fill-opacity="1" height="12" rx="2" ry="2" width="12" x="0" y="0"/>
            <rect fill="url(#WhiteGradient)" height="12" rx="2" ry="2" width="12" x="0" y="0"/>
            <rect fill-opacity="0.4" filter="url(#SaturateMinus)" height="12" rx="2" ry="2" width="12" x="0" y="0"/>
            <rect fill="url(#BlackGradient)" height="12" rx="2" ry="2" width="12" x="0" y="0"/>
          </g>
          <g transform="translate(386.02,321.79)">
            <rect fill-opacity="1" height="12" rx="2" ry="2" width="12" x="0" y="0"/>
            <rect fill="url(#WhiteGradient)" height="12" rx="2" ry="2" width="12" x="0" y="0"/>
            <rect fill-opacity="0.4" filter="url(#SaturateMinus)" height="12" rx="2" ry="2" width="12" x="0" y="0"/>
            <rect fill="url(#BlackGradient)" height="12" rx="2" ry="2" width="12" x="0" y="0"/>
          </g>
          <g transform="translate(619.36,107.05)">
            <rect fill-opacity="1" height="12" rx="2" ry="2" width="12" x="0" y="0"/>
            <rect fill="url(#WhiteGradient)" height="12" rx="2" ry="2" width="12" x="0" y="0"/>
            <rect fill-opacity="0.4" filter="url(#SaturateMinus)" height="12" rx="2" ry="2" width="12" x="0" y="0"/>
            <rect fill="url(#BlackGradient)" height="12" rx="2" ry="2" width="12" x="0" y="0"/>
          </g>
          <g transform="translate(636.03,360.83)">
            <rect fill-opacity="1" height="12" rx="2" ry="2" width="12" x="0" y="0"/>
            <rect fill="url(#WhiteGradient)" height="12" rx="2" ry="2" width="12" x="0" y="0"/>
            <rect fill-opacity="0.4" filter="url(#SaturateMinus)" height="12" rx="2" ry="2" width="12" x="0" y="0"/>
            <rect fill="url(#BlackGradient)" height="12" rx="2" ry="2" width="12" x="0" y="0"/>
          </g>
          <g transform="translate(702.7,68.01)">
            <rect fill-opacity="1" height="12" rx="2" ry="2" width="12" x="0" y="0"/>
            <rect fill="url(#WhiteGradient)" height="12" rx="2" ry="2" width="12" x="0" y="0"/>
            <rect fill-opacity="0.4" filter="url(#SaturateMinus)" height="12" rx="2" ry="2" width="12" x="0" y="0"/>
            <rect fill="url(#BlackGradient)" height="12" rx="2" ry="2" width="12" x="0" y="0"/>
          </g>
        </g>
        <g fill="rgb(181,207,50)" id="ID_graph_7">
          <g transform="translate(169.34,245.65)">
            <rect fill-opacity="1" height="12" rx="2" ry="2" width="12" x="0" y="0"/>
            <rect fill="url(#WhiteGradient)" height="12" rx="2" ry="2" width="12" x="0" y="0"/>
            <rect fill-opacity="0.4" filter="url(#SaturateMinus)" height="12" rx="2" ry="2" width="12" x="0" y="0"/>
            <rect fill="url(#BlackGradient)" height="12" rx="2" ry="2" width="12" x="0" y="0"/>
          </g>
          <g transform="translate(236.01,181.23)">
            <rect fill-opacity="1" height="12" rx="2" ry="2" width="12" x="0" y="0"/>
            <rect fill="url(#WhiteGradient)" height="12" rx="2" ry="2" width="12" x="0" y="0"/>
            <rect fill-opacity="0.4" filter="url(#SaturateMinus)" height="12" rx="2" ry="2" width="12" x="0" y="0"/>
            <rect fill="url(#BlackGradient)" height="12" rx="2" ry="2" width="12" x="0" y="0"/>
          </g>
          <g transform="translate(302.68,288.6)">
            <rect fill-opacity="1" height="12" rx="2" ry="2" width="12" x="0" y="0"/>
            <rect fill="url(#WhiteGradient)" height="12" rx="2" ry="2" width="12" x="0" y="0"/>
            <rect fill-opacity="0.4" filter="url(#SaturateMinus)" height="12" rx="2" ry="2" width="12" x="0" y="0"/>
            <rect fill="url(#BlackGradient)" height="12" rx="2" ry="2" width="12" x="0" y="0"/>
          </g>
          <g transform="translate(369.35,138.29)">
            <rect fill-opacity="1" height="12" rx="2" ry="2" width="12" x="0" y="0"/>
            <rect fill="url(#WhiteGradient)" height="12" rx="2" ry="2" width="12" x="0" y="0"/>
            <rect fill-opacity="0.4" filter="url(#SaturateMinus)" height="12" rx="2" ry="2" width="12" x="0" y="0"/>
            <rect fill="url(#BlackGradient)" height="12" rx="2" ry="2" width="12" x="0" y="0"/>
          </g>
          <g transform="translate(386.02,331.55)">
            <rect fill-opacity="1" height="12" rx="2" ry="2" width="12" x="0" y="0"/>
            <rect fill="url(#WhiteGradient)" height="12" rx="2" ry="2" width="12" x="0" y="0"/>
            <rect fill-opacity="0.4" filter="url(#SaturateMinus)" height="12" rx="2" ry="2" width="12" x="0" y="0"/>
            <rect fill="url(#BlackGradient)" height="12" rx="2" ry="2" width="12" x="0" y="0"/>
          </g>
          <g transform="translate(619.36,95.34)">
            <rect fill-opacity="1" height="12" rx="2" ry="2" width="12" x="0" y="0"/>
            <rect fill="url(#WhiteGradient)" height="12" rx="2" ry="2" width="12" x="0" y="0"/>
            <rect fill-opacity="0.4" filter="url(#SaturateMinus)" height="12" rx="2" ry="2" width="12" x="0" y="0"/>
            <rect fill="url(#BlackGradient)" height="12" rx="2" ry="2" width="12" x="0" y="0"/>
          </g>
          <g transform="translate(636.03,374.49)">
            <rect fill-opacity="1" height="12" rx="2" ry="2" width="12" x="0" y="0"/>
            <rect fill="url(#WhiteGradient)" height="12" rx="2" ry="2" width="12" x="0" y="0"/>
            <rect fill-opacity="0.4" filter="url(#SaturateMinus)" height="12" rx="2" ry="2" width="12" x="0" y="0"/>
            <rect fill="url(#BlackGradient)" height="12" rx="2" ry="2" width="12" x="0" y="0"/>
          </g>
          <g transform="translate(702.7,52.39)">
            <rect fill-opacity="1" height="12" rx="2" ry="2" width="12" x="0" y="0"/>
            <rect fill="url(#WhiteGradient)" height="12" rx="2" ry="2" width="12" x="0" y="0"/>
            <rect fill-opacity="0.4" filter="url(#SaturateMinus)" height="12" rx="2" ry="2" width="12" x="0" y="0"/>
            <rect fill="url(#BlackGradient)" height="12" rx="2" ry="2" width="12" x="0" y="0"/>
          </g>
        </g>
        <g fill="rgb(212,58,38)" id="ID_graph_8">
          <g transform="translate(169.34,247.8)">
            <rect fill-opacity="1" height="12" rx="2" ry="2" width="12" x="0" y="0"/>
            <rect fill="url(#WhiteGradient)" height="12" rx="2" ry="2" width="12" x="0" y="0"/>
            <rect fill-opacity="0.4" filter="url(#SaturateMinus)" height="12" rx="2" ry="2" width="12" x="0" y="0"/>
            <rect fill="url(#BlackGradient)" height="12" rx="2" ry="2" width="12" x="0" y="0"/>
          </g>
          <g transform="translate(236.01,176.94)">
            <rect fill-opacity="1" height="12" rx="2" ry="2" width="12" x="0" y="0"/>
            <rect fill="url(#WhiteGradient)" height="12" rx="2" ry="2" width="12" x="0" y="0"/>
            <rect fill-opacity="0.4" filter="url(#SaturateMinus)" height="12" rx="2" ry="2" width="12" x="0" y="0"/>
            <rect fill="url(#BlackGradient)" height="12" rx="2" ry="2" width="12" x="0" y="0"/>
          </g>
          <g transform="translate(302.68,295.04)">
            <rect fill-opacity="1" height="12" rx="2" ry="2" width="12" x="0" y="0"/>
            <rect fill="url(#WhiteGradient)" height="12" rx="2" ry="2" width="12" x="0" y="0"/>
            <rect fill-opacity="0.4" filter="url(#SaturateMinus)" height="12" rx="2" ry="2" width="12" x="0" y="0"/>
            <rect fill="url(#BlackGradient)" height="12" rx="2" ry="2" width="12" x="0" y="0"/>
          </g>
          <g transform="translate(369.35,129.7)">
            <rect fill-opacity="1" height="12" rx="2" ry="2" width="12" x="0" y="0"/>
            <rect fill="url(#WhiteGradient)" height="12" rx="2" ry="2" width="12" x="0" y="0"/>
            <rect fill-opacity="0.4" filter="url(#SaturateMinus)" height="12" rx="2" ry="2" width="12" x="0" y="0"/>
            <rect fill="url(#BlackGradient)" height="12" rx="2" ry="2" width="12" x="0" y="0"/>
          </g>
          <g transform="translate(386.02,342.28)">
            <rect fill-opacity="1" height="12" rx="2" ry="2" width="12" x="0" y="0"/>
            <rect fill="url(#WhiteGradient)" height="12" rx="2" ry="2" width="12" x="0" y="0"/>
            <rect fill-opacity="0.4" filter="url(#SaturateMinus)" height="12" rx="2" ry="2" width="12" x="0" y="0"/>
            <rect fill="url(#BlackGradient)" height="12" rx="2" ry="2" width="12" x="0" y="0"/>
          </g>
          <g transform="translate(619.36,82.46)">
            <rect fill-opacity="1" height="12" rx="2" ry="2" width="12" x="0" y="0"/>
            <rect fill="url(#WhiteGradient)" height="12" rx="2" ry="2" width="12" x="0" y="0"/>
            <rect fill-opacity="0.4" filter="url(#SaturateMinus)" height="12" rx="2" ry="2" width="12" x="0" y="0"/>
            <rect fill="url(#BlackGradient)" height="12" rx="2" ry="2" width="12" x="0" y="0"/>
          </g>
          <g transform="translate(636.03,389.53)">
            <rect fill-opacity="1" height="12" rx="2" ry="2" width="12" x="0" y="0"/>
            <rect fill="url(#WhiteGradient)" height="12" rx="2" ry="2" width="12" x="0" y="0"/>
            <rect fill-opacity="0.4" filter="url(#SaturateMinus)" height="12" rx="2" ry="2" width="12" x="0" y="0"/>
            <rect fill="url(#BlackGradient)" height="12" rx="2" ry="2" width="12" x="0" y="0"/>
          </g>
          <g transform="translate(702.7,35.21)">
            <rect fill-opacity="1" height="12" rx="2" ry="2" width="12" x="0" y="0"/>
            <rect fill="url(#WhiteGradient)" height="12" rx="2" ry="2" width="12" x="0" y="0"/>
            <rect fill-opacity="0.4" filter="url(#SaturateMinus)" height="12" rx="2" ry="2" width="12" x="0" y="0"/>
            <rect fill="url(#BlackGradient)" height="12" rx="2" ry="2" width="12" x="0" y="0"/>
          </g>
        </g>
      </g>
    </g>
  </g>

</svg>