
<svg xmlns="http://www.w3.org/2000/svg" id="ID_svg" viewBox="0 0 1257.96 466" viewport-fill="darkblue" viewport-fill-opacity="0.25" xmlns:exsl4D="http://www.4D.com" xmlns:gFunc="http://gFunc" xmlns:math="http://exslt.org/math" xmlns:xlink="http://www.w3.org/1999/xlink">

  <!--gradient styles-->

  <defs>
    <filter id="soft_blur">
      <feGaussianBlur in="SourceGraphic" result="BlurAlpha" stdDeviation="1"/>
    </filter>
    <filter id="pastel">
      <feGaussianBlur in="SourceAlpha" result="blur" stdDeviation="2"/>
      <feOffset dx="6" dy="6" in="blur" result="offsetBlur"/>
      <feComposite in="SourceGraphic" in2="offsetBlur" operator="in" result="specOut"/>
    </filter>
    <filter id="blur_shadow">
      <feGaussianBlur in="SourceAlpha" result="blur" stdDeviation="3"/>
      <feOffset dx="4" dy="2" in="blur" result="offsetBlur"/>
      <feBlend in="SourceGraphic" in2="offsetBlur" mode="normal"/>
    </filter>
    <filter filterUnits="objectBoundingBox" id="Shadow">
      <feGaussianBlur in="SourceAlpha" result="flou" stdDeviation="0"/>
      <feColorMatrix in="SourceAlpha" result="flouBlue" type="matrix" values=" 0 0 0 0 0                      0 0 0 0 0                     0 0 0 0 0                      0 0 0 0.3 0"/>
      <feOffset dx="4" dy="4" in="flouBlue" result="flouDecalage"/>
      <feBlend in="SourceGraphic" in2="flouDecalage" mode="normal"/>
    </filter>
    <filter filterUnits="objectBoundingBox" height="100%" id="SaturateMinus" width="100%" x="0%" y="0%">
      <feColorMatrix in="SourceGraphic" type="saturate" values="0.5"/>
    </filter>
    <filter filterUnits="objectBoundingBox" height="100%" id="SaturatePlus" width="100%" x="0%" y="0%">
      <feColorMatrix in="SourceGraphic" type="saturate" values="1.4"/>
    </filter>
    <linearGradient id="BlackGradient">
      <stop offset="0%" style="stop-color:rgb(0,0,0); stop-opacity:0"/>
      <stop offset="100%" style="stop-color:rgb(0,0,0); stop-opacity:0.1"/>
    </linearGradient>
    <linearGradient id="WhiteGradient" x1="0%" x2="100%" y1="0%" y2="0%">
      <stop offset="0%" style="stop-color:rgb(255,255,255); stop-opacity:0.3"/>
      <stop offset="100%" style="stop-color:rgb(255,255,255);stop-opacity:0"/>
    </linearGradient>
    <linearGradient id="WhiteBlackGradient" x1="0%" x2="100%" y1="0%" y2="0%">
      <stop offset="0%" style="stop-color:rgb(255,255,255); stop-opacity:0.15"/>
      <stop offset="100%" style="stop-color:rgb(0,0,0);stop-opacity:0.15"/>
    </linearGradient>
    <linearGradient id="Black0Black1Gradient" x1="0%" x2="0%" y1="0%" y2="100%">
      <stop offset="0%" style="stop-color:rgb(0,0,0); stop-opacity:0"/>
      <stop offset="100%" style="stop-color:rgb(0,0,0);stop-opacity:0.05"/>
    </linearGradient>
  </defs>

  <!--global stroke and font styles-->

  <g id="ID_globals" style="fill:red;stroke:none;font-family:Arial;font-size:14px;font-weight:normal;font-style:normal;text-decoration:none;shape-rendering:crispEdges">
    <!--draw title-->
    <!--********************************draw graph background********************************-->
    <rect fill="darkgreen" height="400" id="ID_background_shadow" opacity="0.5" rx="10" ry="10" stroke="none" transform="translate(1,1)" visibility="visible" width="999.96" x="53" y="20"/>
    <g fill="lightgreen" id="ID_background" opacity="0.5" stroke="none" visibility="visible">
      <rect height="400" rx="10" ry="10" stroke="none" width="999.96" x="53" y="20"/>
      <rect fill="url(#Black0Black1Gradient)" height="400" rx="10" ry="10" stroke="none" width="999.96" x="53" y="20"/>
    </g>
    <clipPath id="ID_backgroundClipPath">
      <rect height="401" rx="10" ry="10" width="1000.96" x="52" y="19"/>
    </clipPath>
    <!--********************************draw Y Labels********************************-->
    <g id="ID_y$value" style="fill:red;stroke:none;font-family:Arial;font-size:14px;font-weight:normal;font-style:normal;text-decoration:none;filter:none" visibility="visible">
      <text text-anchor="end" x="41" y="27">15</text>
      <text text-anchor="end" x="41" y="67">12</text>
      <text text-anchor="end" x="41" y="107">9</text>
      <text text-anchor="end" x="41" y="147">6</text>
      <text text-anchor="end" x="41" y="187">3</text>
      <text text-anchor="end" x="41" y="227">0</text>
      <text text-anchor="end" x="41" y="267">-3</text>
      <text text-anchor="end" x="41" y="307">-6</text>
      <text text-anchor="end" x="41" y="347">-9</text>
      <text text-anchor="end" x="41" y="387">-12</text>
      <text text-anchor="end" x="41" y="427">-15</text>
    </g>
    <!--********************************draw X Labels********************************-->
    <!--draw axis x labels-->
    <g id="ID_x$value" style="fill:red;stroke:none;font-family:Arial;font-size:14px;font-weight:normal;font-style:normal;text-decoration:none;filter:none" visibility="visible">
      <text text-anchor="middle" x="53" y="446">06:00:00</text>
      <text text-anchor="middle" x="136.33" y="446">07:00:00</text>
      <text text-anchor="middle" x="219.66" y="446">08:00:00</text>
      <text text-anchor="middle" x="302.99" y="446">09:00:00</text>
      <text text-anchor="middle" x="386.32" y="446">10:00:00</text>
      <text text-anchor="middle" x="469.65" y="446">11:00:00</text>
      <text text-anchor="middle" x="552.98" y="446">12:00:00</text>
      <text text-anchor="middle" x="636.31" y="446">13:00:00</text>
      <text text-anchor="middle" x="719.64" y="446">14:00:00</text>
      <text text-anchor="middle" x="802.97" y="446">15:00:00</text>
      <text text-anchor="middle" x="886.3" y="446">16:00:00</text>
      <text text-anchor="middle" x="969.63" y="446">17:00:00</text>
      <text text-anchor="middle" x="1052.96" y="446">18:00:00</text>
    </g>
    <g style="clip-path: url(#ID_backgroundClipPath)">
      <!--******************************** draw Y grid lines******************************** (Horizontal lines)-->
      <g id="ID_y_grid" stroke="#a8a8a8" stroke-width="1">
        <line x1="53" x2="1052.96" y1="60" y2="60"/>
        <line x1="53" x2="1052.96" y1="100" y2="100"/>
        <line x1="53" x2="1052.96" y1="140" y2="140"/>
        <line x1="53" x2="1052.96" y1="180" y2="180"/>
        <line x1="53" x2="1052.96" y1="220" y2="220"/>
        <line x1="53" x2="1052.96" y1="260" y2="260"/>
        <line x1="53" x2="1052.96" y1="300" y2="300"/>
        <line x1="53" x2="1052.96" y1="340" y2="340"/>
        <line x1="53" x2="1052.96" y1="380" y2="380"/>
      </g>
      <!--draw Y grid lines SHADOWS-->
      <g id="ID_y_grid_shadow" stroke="#ffffff" stroke-width="1">
        <line transform="translate(0,1)" x1="53" x2="1052.96" y1="60" y2="60"/>
        <line transform="translate(0,1)" x1="53" x2="1052.96" y1="100" y2="100"/>
        <line transform="translate(0,1)" x1="53" x2="1052.96" y1="140" y2="140"/>
        <line transform="translate(0,1)" x1="53" x2="1052.96" y1="180" y2="180"/>
        <line transform="translate(0,1)" x1="53" x2="1052.96" y1="220" y2="220"/>
        <line transform="translate(0,1)" x1="53" x2="1052.96" y1="260" y2="260"/>
        <line transform="translate(0,1)" x1="53" x2="1052.96" y1="300" y2="300"/>
        <line transform="translate(0,1)" x1="53" x2="1052.96" y1="340" y2="340"/>
        <line transform="translate(0,1)" x1="53" x2="1052.96" y1="380" y2="380"/>
      </g>
      <g id="ID_y0_axis" stroke="rgb(100,100,100)" stroke-width="1" visibility="visible">
        <line x1="53" x2="1052.96" y1="220" y2="220"/>
      </g>
      <!--********************************draw X grid lines******************************** (Vertical lines)-->
      <g id="ID_x_grid" stroke="#a8a8a8" stroke-width="1">
        <line x1="136.33" x2="136.33" y1="20" y2="420"/>
        <line x1="219.66" x2="219.66" y1="20" y2="420"/>
        <line x1="302.99" x2="302.99" y1="20" y2="420"/>
        <line x1="386.32" x2="386.32" y1="20" y2="420"/>
        <line x1="469.65" x2="469.65" y1="20" y2="420"/>
        <line x1="552.98" x2="552.98" y1="20" y2="420"/>
        <line x1="636.31" x2="636.31" y1="20" y2="420"/>
        <line x1="719.64" x2="719.64" y1="20" y2="420"/>
        <line x1="802.97" x2="802.97" y1="20" y2="420"/>
        <line x1="886.3" x2="886.3" y1="20" y2="420"/>
        <line x1="969.63" x2="969.63" y1="20" y2="420"/>
      </g>
      <!--draw X grid lines SHADOWS -->
      <g id="ID_x_grid_shadow" stroke="#ffffff" stroke-width="1">
        <line transform="translate(1,0)" x1="136.33" x2="136.33" y1="20" y2="420"/>
        <line transform="translate(1,0)" x1="219.66" x2="219.66" y1="20" y2="420"/>
        <line transform="translate(1,0)" x1="302.99" x2="302.99" y1="20" y2="420"/>
        <line transform="translate(1,0)" x1="386.32" x2="386.32" y1="20" y2="420"/>
        <line transform="translate(1,0)" x1="469.65" x2="469.65" y1="20" y2="420"/>
        <line transform="translate(1,0)" x1="552.98" x2="552.98" y1="20" y2="420"/>
        <line transform="translate(1,0)" x1="636.31" x2="636.31" y1="20" y2="420"/>
        <line transform="translate(1,0)" x1="719.64" x2="719.64" y1="20" y2="420"/>
        <line transform="translate(1,0)" x1="802.97" x2="802.97" y1="20" y2="420"/>
        <line transform="translate(1,0)" x1="886.3" x2="886.3" y1="20" y2="420"/>
        <line transform="translate(1,0)" x1="969.63" x2="969.63" y1="20" y2="420"/>
      </g>
    </g>
    <!--******************************** draw legend ***********************************-->
    <g filter="none" id="ID_legend" transform="translate(1064.96,20)" visibility="visible">
      <!--draw legend border-->
      <rect fill="darkgreen" fill-opacity="0.5" height="148" id="ID_legend_border_shadow" rx="10" ry="10" stroke="none" transform="translate(1,1)" width="173" x="0" y="0"/>
      <rect fill="lightgreen" fill-opacity="0.5" height="148" id="ID_legend_border" rx="10" ry="10" stroke="none" stroke-width="0" width="173" x="0" y="0"/>
      <!--draw legend bullets-->
      <g id="ID_legend_bullets" stroke="none">
        <g fill="purple" id="ID_legend_1">
          <rect height="12" rx="3" ry="3" width="24" x="10" y="8"/>
          <rect fill="url(#WhiteBlackGradient)" height="12" rx="3" ry="3" width="24" x="10" y="8"/>
          <rect fill-opacity="0.3" filter="url(#SaturateMinus)" height="12" rx="3" ry="3" width="24" x="10" y="8"/>
        </g>
        <g fill="darkblue" id="ID_legend_2">
          <rect height="12" rx="3" ry="3" width="24" x="10" y="28"/>
          <rect fill="url(#WhiteBlackGradient)" height="12" rx="3" ry="3" width="24" x="10" y="28"/>
          <rect fill-opacity="0.3" filter="url(#SaturateMinus)" height="12" rx="3" ry="3" width="24" x="10" y="28"/>
        </g>
        <g fill="blue" id="ID_legend_3">
          <rect height="12" rx="3" ry="3" width="24" x="10" y="48"/>
          <rect fill="url(#WhiteBlackGradient)" height="12" rx="3" ry="3" width="24" x="10" y="48"/>
          <rect fill-opacity="0.3" filter="url(#SaturateMinus)" height="12" rx="3" ry="3" width="24" x="10" y="48"/>
        </g>
        <g fill="green" id="ID_legend_4">
          <rect height="12" rx="3" ry="3" width="24" x="10" y="68"/>
          <rect fill="url(#WhiteBlackGradient)" height="12" rx="3" ry="3" width="24" x="10" y="68"/>
          <rect fill-opacity="0.3" filter="url(#SaturateMinus)" height="12" rx="3" ry="3" width="24" x="10" y="68"/>
        </g>
        <g fill="yellow" id="ID_legend_5">
          <rect height="12" rx="3" ry="3" width="24" x="10" y="88"/>
          <rect fill="url(#WhiteBlackGradient)" height="12" rx="3" ry="3" width="24" x="10" y="88"/>
          <rect fill-opacity="0.3" filter="url(#SaturateMinus)" height="12" rx="3" ry="3" width="24" x="10" y="88"/>
        </g>
        <g fill="orange" id="ID_legend_6">
          <rect height="12" rx="3" ry="3" width="24" x="10" y="108"/>
          <rect fill="url(#WhiteBlackGradient)" height="12" rx="3" ry="3" width="24" x="10" y="108"/>
          <rect fill-opacity="0.3" filter="url(#SaturateMinus)" height="12" rx="3" ry="3" width="24" x="10" y="108"/>
        </g>
        <g fill="pink" id="ID_legend_7">
          <rect height="12" rx="3" ry="3" width="24" x="10" y="128"/>
          <rect fill="url(#WhiteBlackGradient)" height="12" rx="3" ry="3" width="24" x="10" y="128"/>
          <rect fill-opacity="0.3" filter="url(#SaturateMinus)" height="12" rx="3" ry="3" width="24" x="10" y="128"/>
        </g>
      </g>
      <!--draw legend labels-->
      <g id="ID_legend_labels" style="fill:black;stroke:none;font-family:Arial;;font-weight:normal;font-style:normal;text-decoration:none;filter:none;text-anchor:start">
        <text x="44" y="17">Sharp</text>
        <text x="44" y="37">Infinity</text>
        <text x="44" y="57">Audio Référence</text>
        <text x="44" y="77">Triangle</text>
        <text x="44" y="97">Yamaha</text>
        <text x="44" y="117">Onkyo</text>
        <text x="44" y="137">Sony</text>
      </g>
    </g>
    <g style="clip-path: url(#ID_backgroundClipPath)">
      <g filter="none" stroke-opacity="1" stroke-width="2">
        <g id="ID_graph_1" stroke="purple">
          <line fill-opacity="1" x1="219.66" x2="302.99" y1="233.33" y2="193.33"/>
          <line fill-opacity="1" x1="302.99" x2="386.32" y1="193.33" y2="260"/>
          <line fill-opacity="1" x1="386.32" x2="469.65" y1="260" y2="166.67"/>
          <line fill-opacity="1" x1="469.65" x2="490.48" y1="166.67" y2="286.67"/>
          <line fill-opacity="1" x1="490.48" x2="782.14" y1="286.67" y2="140"/>
          <line fill-opacity="1" x1="782.14" x2="802.97" y1="140" y2="313.33"/>
          <line fill-opacity="1" x1="802.97" x2="886.3" y1="313.33" y2="113.33"/>
        </g>
        <g id="ID_graph_2" stroke="darkblue">
          <line fill-opacity="1" x1="219.66" x2="302.99" y1="234.67" y2="190.67"/>
          <line fill-opacity="1" x1="302.99" x2="386.32" y1="190.67" y2="264"/>
          <line fill-opacity="1" x1="386.32" x2="469.65" y1="264" y2="161.33"/>
          <line fill-opacity="1" x1="469.65" x2="490.48" y1="161.33" y2="293.33"/>
          <line fill-opacity="1" x1="490.48" x2="782.14" y1="293.33" y2="132"/>
          <line fill-opacity="1" x1="782.14" x2="802.97" y1="132" y2="322.67"/>
          <line fill-opacity="1" x1="802.97" x2="886.3" y1="322.67" y2="102.67"/>
        </g>
        <g id="ID_graph_3" stroke="blue">
          <line fill-opacity="1" x1="219.66" x2="302.99" y1="236.13" y2="187.73"/>
          <line fill-opacity="1" x1="302.99" x2="386.32" y1="187.73" y2="268.4"/>
          <line fill-opacity="1" x1="386.32" x2="469.65" y1="268.4" y2="155.47"/>
          <line fill-opacity="1" x1="469.65" x2="490.48" y1="155.47" y2="300.67"/>
          <line fill-opacity="1" x1="490.48" x2="782.14" y1="300.67" y2="123.2"/>
          <line fill-opacity="1" x1="782.14" x2="802.97" y1="123.2" y2="332.93"/>
          <line fill-opacity="1" x1="802.97" x2="886.3" y1="332.93" y2="90.93"/>
        </g>
        <g id="ID_graph_4" stroke="green">
          <line fill-opacity="1" x1="219.66" x2="302.99" y1="237.75" y2="184.51"/>
          <line fill-opacity="1" x1="302.99" x2="386.32" y1="184.51" y2="273.24"/>
          <line fill-opacity="1" x1="386.32" x2="469.65" y1="273.24" y2="149.01"/>
          <line fill-opacity="1" x1="469.65" x2="490.48" y1="149.01" y2="308.73"/>
          <line fill-opacity="1" x1="490.48" x2="782.14" y1="308.73" y2="113.52"/>
          <line fill-opacity="1" x1="782.14" x2="802.97" y1="113.52" y2="344.23"/>
          <line fill-opacity="1" x1="802.97" x2="886.3" y1="344.23" y2="78.03"/>
        </g>
        <g id="ID_graph_5" stroke="yellow">
          <line fill-opacity="1" x1="219.66" x2="302.99" y1="239.52" y2="180.96"/>
          <line fill-opacity="1" x1="302.99" x2="386.32" y1="180.96" y2="278.56"/>
          <line fill-opacity="1" x1="386.32" x2="469.65" y1="278.56" y2="141.91"/>
          <line fill-opacity="1" x1="469.65" x2="490.48" y1="141.91" y2="317.61"/>
          <line fill-opacity="1" x1="490.48" x2="782.14" y1="317.61" y2="102.87"/>
          <line fill-opacity="1" x1="782.14" x2="802.97" y1="102.87" y2="356.65"/>
          <line fill-opacity="1" x1="802.97" x2="886.3" y1="356.65" y2="63.83"/>
        </g>
        <g id="ID_graph_6" stroke="orange">
          <line fill-opacity="1" x1="219.66" x2="302.99" y1="241.47" y2="177.05"/>
          <line fill-opacity="1" x1="302.99" x2="386.32" y1="177.05" y2="284.42"/>
          <line fill-opacity="1" x1="386.32" x2="469.65" y1="284.42" y2="134.11"/>
          <line fill-opacity="1" x1="469.65" x2="490.48" y1="134.11" y2="327.37"/>
          <line fill-opacity="1" x1="490.48" x2="782.14" y1="327.37" y2="91.16"/>
          <line fill-opacity="1" x1="782.14" x2="802.97" y1="91.16" y2="370.31"/>
          <line fill-opacity="1" x1="802.97" x2="886.3" y1="370.31" y2="48.21"/>
        </g>
        <g id="ID_graph_7" stroke="pink">
          <line fill-opacity="1" x1="219.66" x2="302.99" y1="243.62" y2="172.76"/>
          <line fill-opacity="1" x1="302.99" x2="386.32" y1="172.76" y2="290.86"/>
          <line fill-opacity="1" x1="386.32" x2="469.65" y1="290.86" y2="125.52"/>
          <line fill-opacity="1" x1="469.65" x2="490.48" y1="125.52" y2="338.1"/>
          <line fill-opacity="1" x1="490.48" x2="782.14" y1="338.1" y2="78.28"/>
          <line fill-opacity="1" x1="782.14" x2="802.97" y1="78.28" y2="385.35"/>
          <line fill-opacity="1" x1="802.97" x2="886.3" y1="385.35" y2="31.03"/>
        </g>
      </g>
      <g filter="none" opacity="1" stroke="none" stroke-opacity="1" stroke-width="0">
        <g fill="purple" id="ID_graph_1">
          <g transform="translate(209.66,230.33)">
            <rect fill-opacity="1" height="6" rx="2" ry="2" width="20" x="0" y="0"/>
            <rect fill="url(#WhiteGradient)" height="6" rx="2" ry="2" width="20" x="0" y="0"/>
            <rect fill-opacity="0.4" filter="url(#SaturateMinus)" height="6" rx="2" ry="2" width="20" x="0" y="0"/>
            <rect fill="url(#BlackGradient)" height="6" rx="2" ry="2" width="20" x="0" y="0"/>
          </g>
          <g transform="translate(292.99,190.33)">
            <rect fill-opacity="1" height="6" rx="2" ry="2" width="20" x="0" y="0"/>
            <rect fill="url(#WhiteGradient)" height="6" rx="2" ry="2" width="20" x="0" y="0"/>
            <rect fill-opacity="0.4" filter="url(#SaturateMinus)" height="6" rx="2" ry="2" width="20" x="0" y="0"/>
            <rect fill="url(#BlackGradient)" height="6" rx="2" ry="2" width="20" x="0" y="0"/>
          </g>
          <g transform="translate(376.32,257)">
            <rect fill-opacity="1" height="6" rx="2" ry="2" width="20" x="0" y="0"/>
            <rect fill="url(#WhiteGradient)" height="6" rx="2" ry="2" width="20" x="0" y="0"/>
            <rect fill-opacity="0.4" filter="url(#SaturateMinus)" height="6" rx="2" ry="2" width="20" x="0" y="0"/>
            <rect fill="url(#BlackGradient)" height="6" rx="2" ry="2" width="20" x="0" y="0"/>
          </g>
          <g transform="translate(459.65,163.67)">
            <rect fill-opacity="1" height="6" rx="2" ry="2" width="20" x="0" y="0"/>
            <rect fill="url(#WhiteGradient)" height="6" rx="2" ry="2" width="20" x="0" y="0"/>
            <rect fill-opacity="0.4" filter="url(#SaturateMinus)" height="6" rx="2" ry="2" width="20" x="0" y="0"/>
            <rect fill="url(#BlackGradient)" height="6" rx="2" ry="2" width="20" x="0" y="0"/>
          </g>
          <g transform="translate(480.48,283.67)">
            <rect fill-opacity="1" height="6" rx="2" ry="2" width="20" x="0" y="0"/>
            <rect fill="url(#WhiteGradient)" height="6" rx="2" ry="2" width="20" x="0" y="0"/>
            <rect fill-opacity="0.4" filter="url(#SaturateMinus)" height="6" rx="2" ry="2" width="20" x="0" y="0"/>
            <rect fill="url(#BlackGradient)" height="6" rx="2" ry="2" width="20" x="0" y="0"/>
          </g>
          <g transform="translate(772.14,137)">
            <rect fill-opacity="1" height="6" rx="2" ry="2" width="20" x="0" y="0"/>
            <rect fill="url(#WhiteGradient)" height="6" rx="2" ry="2" width="20" x="0" y="0"/>
            <rect fill-opacity="0.4" filter="url(#SaturateMinus)" height="6" rx="2" ry="2" width="20" x="0" y="0"/>
            <rect fill="url(#BlackGradient)" height="6" rx="2" ry="2" width="20" x="0" y="0"/>
          </g>
          <g transform="translate(792.97,310.33)">
            <rect fill-opacity="1" height="6" rx="2" ry="2" width="20" x="0" y="0"/>
            <rect fill="url(#WhiteGradient)" height="6" rx="2" ry="2" width="20" x="0" y="0"/>
            <rect fill-opacity="0.4" filter="url(#SaturateMinus)" height="6" rx="2" ry="2" width="20" x="0" y="0"/>
            <rect fill="url(#BlackGradient)" height="6" rx="2" ry="2" width="20" x="0" y="0"/>
          </g>
          <g transform="translate(876.3,110.33)">
            <rect fill-opacity="1" height="6" rx="2" ry="2" width="20" x="0" y="0"/>
            <rect fill="url(#WhiteGradient)" height="6" rx="2" ry="2" width="20" x="0" y="0"/>
            <rect fill-opacity="0.4" filter="url(#SaturateMinus)" height="6" rx="2" ry="2" width="20" x="0" y="0"/>
            <rect fill="url(#BlackGradient)" height="6" rx="2" ry="2" width="20" x="0" y="0"/>
          </g>
        </g>
        <g fill="darkblue" id="ID_graph_2">
          <g transform="translate(209.66,231.67)">
            <rect fill-opacity="1" height="6" rx="2" ry="2" width="20" x="0" y="0"/>
            <rect fill="url(#WhiteGradient)" height="6" rx="2" ry="2" width="20" x="0" y="0"/>
            <rect fill-opacity="0.4" filter="url(#SaturateMinus)" height="6" rx="2" ry="2" width="20" x="0" y="0"/>
            <rect fill="url(#BlackGradient)" height="6" rx="2" ry="2" width="20" x="0" y="0"/>
          </g>
          <g transform="translate(292.99,187.67)">
            <rect fill-opacity="1" height="6" rx="2" ry="2" width="20" x="0" y="0"/>
            <rect fill="url(#WhiteGradient)" height="6" rx="2" ry="2" width="20" x="0" y="0"/>
            <rect fill-opacity="0.4" filter="url(#SaturateMinus)" height="6" rx="2" ry="2" width="20" x="0" y="0"/>
            <rect fill="url(#BlackGradient)" height="6" rx="2" ry="2" width="20" x="0" y="0"/>
          </g>
          <g transform="translate(376.32,261)">
            <rect fill-opacity="1" height="6" rx="2" ry="2" width="20" x="0" y="0"/>
            <rect fill="url(#WhiteGradient)" height="6" rx="2" ry="2" width="20" x="0" y="0"/>
            <rect fill-opacity="0.4" filter="url(#SaturateMinus)" height="6" rx="2" ry="2" width="20" x="0" y="0"/>
            <rect fill="url(#BlackGradient)" height="6" rx="2" ry="2" width="20" x="0" y="0"/>
          </g>
          <g transform="translate(459.65,158.33)">
            <rect fill-opacity="1" height="6" rx="2" ry="2" width="20" x="0" y="0"/>
            <rect fill="url(#WhiteGradient)" height="6" rx="2" ry="2" width="20" x="0" y="0"/>
            <rect fill-opacity="0.4" filter="url(#SaturateMinus)" height="6" rx="2" ry="2" width="20" x="0" y="0"/>
            <rect fill="url(#BlackGradient)" height="6" rx="2" ry="2" width="20" x="0" y="0"/>
          </g>
          <g transform="translate(480.48,290.33)">
            <rect fill-opacity="1" height="6" rx="2" ry="2" width="20" x="0" y="0"/>
            <rect fill="url(#WhiteGradient)" height="6" rx="2" ry="2" width="20" x="0" y="0"/>
            <rect fill-opacity="0.4" filter="url(#SaturateMinus)" height="6" rx="2" ry="2" width="20" x="0" y="0"/>
            <rect fill="url(#BlackGradient)" height="6" rx="2" ry="2" width="20" x="0" y="0"/>
          </g>
          <g transform="translate(772.14,129)">
            <rect fill-opacity="1" height="6" rx="2" ry="2" width="20" x="0" y="0"/>
            <rect fill="url(#WhiteGradient)" height="6" rx="2" ry="2" width="20" x="0" y="0"/>
            <rect fill-opacity="0.4" filter="url(#SaturateMinus)" height="6" rx="2" ry="2" width="20" x="0" y="0"/>
            <rect fill="url(#BlackGradient)" height="6" rx="2" ry="2" width="20" x="0" y="0"/>
          </g>
          <g transform="translate(792.97,319.67)">
            <rect fill-opacity="1" height="6" rx="2" ry="2" width="20" x="0" y="0"/>
            <rect fill="url(#WhiteGradient)" height="6" rx="2" ry="2" width="20" x="0" y="0"/>
            <rect fill-opacity="0.4" filter="url(#SaturateMinus)" height="6" rx="2" ry="2" width="20" x="0" y="0"/>
            <rect fill="url(#BlackGradient)" height="6" rx="2" ry="2" width="20" x="0" y="0"/>
          </g>
          <g transform="translate(876.3,99.67)">
            <rect fill-opacity="1" height="6" rx="2" ry="2" width="20" x="0" y="0"/>
            <rect fill="url(#WhiteGradient)" height="6" rx="2" ry="2" width="20" x="0" y="0"/>
            <rect fill-opacity="0.4" filter="url(#SaturateMinus)" height="6" rx="2" ry="2" width="20" x="0" y="0"/>
            <rect fill="url(#BlackGradient)" height="6" rx="2" ry="2" width="20" x="0" y="0"/>
          </g>
        </g>
        <g fill="blue" id="ID_graph_3">
          <g transform="translate(209.66,233.13)">
            <rect fill-opacity="1" height="6" rx="2" ry="2" width="20" x="0" y="0"/>
            <rect fill="url(#WhiteGradient)" height="6" rx="2" ry="2" width="20" x="0" y="0"/>
            <rect fill-opacity="0.4" filter="url(#SaturateMinus)" height="6" rx="2" ry="2" width="20" x="0" y="0"/>
            <rect fill="url(#BlackGradient)" height="6" rx="2" ry="2" width="20" x="0" y="0"/>
          </g>
          <g transform="translate(292.99,184.73)">
            <rect fill-opacity="1" height="6" rx="2" ry="2" width="20" x="0" y="0"/>
            <rect fill="url(#WhiteGradient)" height="6" rx="2" ry="2" width="20" x="0" y="0"/>
            <rect fill-opacity="0.4" filter="url(#SaturateMinus)" height="6" rx="2" ry="2" width="20" x="0" y="0"/>
            <rect fill="url(#BlackGradient)" height="6" rx="2" ry="2" width="20" x="0" y="0"/>
          </g>
          <g transform="translate(376.32,265.4)">
            <rect fill-opacity="1" height="6" rx="2" ry="2" width="20" x="0" y="0"/>
            <rect fill="url(#WhiteGradient)" height="6" rx="2" ry="2" width="20" x="0" y="0"/>
            <rect fill-opacity="0.4" filter="url(#SaturateMinus)" height="6" rx="2" ry="2" width="20" x="0" y="0"/>
            <rect fill="url(#BlackGradient)" height="6" rx="2" ry="2" width="20" x="0" y="0"/>
          </g>
          <g transform="translate(459.65,152.47)">
            <rect fill-opacity="1" height="6" rx="2" ry="2" width="20" x="0" y="0"/>
            <rect fill="url(#WhiteGradient)" height="6" rx="2" ry="2" width="20" x="0" y="0"/>
            <rect fill-opacity="0.4" filter="url(#SaturateMinus)" height="6" rx="2" ry="2" width="20" x="0" y="0"/>
            <rect fill="url(#BlackGradient)" height="6" rx="2" ry="2" width="20" x="0" y="0"/>
          </g>
          <g transform="translate(480.48,297.67)">
            <rect fill-opacity="1" height="6" rx="2" ry="2" width="20" x="0" y="0"/>
            <rect fill="url(#WhiteGradient)" height="6" rx="2" ry="2" width="20" x="0" y="0"/>
            <rect fill-opacity="0.4" filter="url(#SaturateMinus)" height="6" rx="2" ry="2" width="20" x="0" y="0"/>
            <rect fill="url(#BlackGradient)" height="6" rx="2" ry="2" width="20" x="0" y="0"/>
          </g>
          <g transform="translate(772.14,120.2)">
            <rect fill-opacity="1" height="6" rx="2" ry="2" width="20" x="0" y="0"/>
            <rect fill="url(#WhiteGradient)" height="6" rx="2" ry="2" width="20" x="0" y="0"/>
            <rect fill-opacity="0.4" filter="url(#SaturateMinus)" height="6" rx="2" ry="2" width="20" x="0" y="0"/>
            <rect fill="url(#BlackGradient)" height="6" rx="2" ry="2" width="20" x="0" y="0"/>
          </g>
          <g transform="translate(792.97,329.93)">
            <rect fill-opacity="1" height="6" rx="2" ry="2" width="20" x="0" y="0"/>
            <rect fill="url(#WhiteGradient)" height="6" rx="2" ry="2" width="20" x="0" y="0"/>
            <rect fill-opacity="0.4" filter="url(#SaturateMinus)" height="6" rx="2" ry="2" width="20" x="0" y="0"/>
            <rect fill="url(#BlackGradient)" height="6" rx="2" ry="2" width="20" x="0" y="0"/>
          </g>
          <g transform="translate(876.3,87.93)">
            <rect fill-opacity="1" height="6" rx="2" ry="2" width="20" x="0" y="0"/>
            <rect fill="url(#WhiteGradient)" height="6" rx="2" ry="2" width="20" x="0" y="0"/>
            <rect fill-opacity="0.4" filter="url(#SaturateMinus)" height="6" rx="2" ry="2" width="20" x="0" y="0"/>
            <rect fill="url(#BlackGradient)" height="6" rx="2" ry="2" width="20" x="0" y="0"/>
          </g>
        </g>
        <g fill="green" id="ID_graph_4">
          <g transform="translate(209.66,234.75)">
            <rect fill-opacity="1" height="6" rx="2" ry="2" width="20" x="0" y="0"/>
            <rect fill="url(#WhiteGradient)" height="6" rx="2" ry="2" width="20" x="0" y="0"/>
            <rect fill-opacity="0.4" filter="url(#SaturateMinus)" height="6" rx="2" ry="2" width="20" x="0" y="0"/>
            <rect fill="url(#BlackGradient)" height="6" rx="2" ry="2" width="20" x="0" y="0"/>
          </g>
          <g transform="translate(292.99,181.51)">
            <rect fill-opacity="1" height="6" rx="2" ry="2" width="20" x="0" y="0"/>
            <rect fill="url(#WhiteGradient)" height="6" rx="2" ry="2" width="20" x="0" y="0"/>
            <rect fill-opacity="0.4" filter="url(#SaturateMinus)" height="6" rx="2" ry="2" width="20" x="0" y="0"/>
            <rect fill="url(#BlackGradient)" height="6" rx="2" ry="2" width="20" x="0" y="0"/>
          </g>
          <g transform="translate(376.32,270.24)">
            <rect fill-opacity="1" height="6" rx="2" ry="2" width="20" x="0" y="0"/>
            <rect fill="url(#WhiteGradient)" height="6" rx="2" ry="2" width="20" x="0" y="0"/>
            <rect fill-opacity="0.4" filter="url(#SaturateMinus)" height="6" rx="2" ry="2" width="20" x="0" y="0"/>
            <rect fill="url(#BlackGradient)" height="6" rx="2" ry="2" width="20" x="0" y="0"/>
          </g>
          <g transform="translate(459.65,146.01)">
            <rect fill-opacity="1" height="6" rx="2" ry="2" width="20" x="0" y="0"/>
            <rect fill="url(#WhiteGradient)" height="6" rx="2" ry="2" width="20" x="0" y="0"/>
            <rect fill-opacity="0.4" filter="url(#SaturateMinus)" height="6" rx="2" ry="2" width="20" x="0" y="0"/>
            <rect fill="url(#BlackGradient)" height="6" rx="2" ry="2" width="20" x="0" y="0"/>
          </g>
          <g transform="translate(480.48,305.73)">
            <rect fill-opacity="1" height="6" rx="2" ry="2" width="20" x="0" y="0"/>
            <rect fill="url(#WhiteGradient)" height="6" rx="2" ry="2" width="20" x="0" y="0"/>
            <rect fill-opacity="0.4" filter="url(#SaturateMinus)" height="6" rx="2" ry="2" width="20" x="0" y="0"/>
            <rect fill="url(#BlackGradient)" height="6" rx="2" ry="2" width="20" x="0" y="0"/>
          </g>
          <g transform="translate(772.14,110.52)">
            <rect fill-opacity="1" height="6" rx="2" ry="2" width="20" x="0" y="0"/>
            <rect fill="url(#WhiteGradient)" height="6" rx="2" ry="2" width="20" x="0" y="0"/>
            <rect fill-opacity="0.4" filter="url(#SaturateMinus)" height="6" rx="2" ry="2" width="20" x="0" y="0"/>
            <rect fill="url(#BlackGradient)" height="6" rx="2" ry="2" width="20" x="0" y="0"/>
          </g>
          <g transform="translate(792.97,341.23)">
            <rect fill-opacity="1" height="6" rx="2" ry="2" width="20" x="0" y="0"/>
            <rect fill="url(#WhiteGradient)" height="6" rx="2" ry="2" width="20" x="0" y="0"/>
            <rect fill-opacity="0.4" filter="url(#SaturateMinus)" height="6" rx="2" ry="2" width="20" x="0" y="0"/>
            <rect fill="url(#BlackGradient)" height="6" rx="2" ry="2" width="20" x="0" y="0"/>
          </g>
          <g transform="translate(876.3,75.03)">
            <rect fill-opacity="1" height="6" rx="2" ry="2" width="20" x="0" y="0"/>
            <rect fill="url(#WhiteGradient)" height="6" rx="2" ry="2" width="20" x="0" y="0"/>
            <rect fill-opacity="0.4" filter="url(#SaturateMinus)" height="6" rx="2" ry="2" width="20" x="0" y="0"/>
            <rect fill="url(#BlackGradient)" height="6" rx="2" ry="2" width="20" x="0" y="0"/>
          </g>
        </g>
        <g fill="yellow" id="ID_graph_5">
          <g transform="translate(209.66,236.52)">
            <rect fill-opacity="1" height="6" rx="2" ry="2" width="20" x="0" y="0"/>
            <rect fill="url(#WhiteGradient)" height="6" rx="2" ry="2" width="20" x="0" y="0"/>
            <rect fill-opacity="0.4" filter="url(#SaturateMinus)" height="6" rx="2" ry="2" width="20" x="0" y="0"/>
            <rect fill="url(#BlackGradient)" height="6" rx="2" ry="2" width="20" x="0" y="0"/>
          </g>
          <g transform="translate(292.99,177.96)">
            <rect fill-opacity="1" height="6" rx="2" ry="2" width="20" x="0" y="0"/>
            <rect fill="url(#WhiteGradient)" height="6" rx="2" ry="2" width="20" x="0" y="0"/>
            <rect fill-opacity="0.4" filter="url(#SaturateMinus)" height="6" rx="2" ry="2" width="20" x="0" y="0"/>
            <rect fill="url(#BlackGradient)" height="6" rx="2" ry="2" width="20" x="0" y="0"/>
          </g>
          <g transform="translate(376.32,275.56)">
            <rect fill-opacity="1" height="6" rx="2" ry="2" width="20" x="0" y="0"/>
            <rect fill="url(#WhiteGradient)" height="6" rx="2" ry="2" width="20" x="0" y="0"/>
            <rect fill-opacity="0.4" filter="url(#SaturateMinus)" height="6" rx="2" ry="2" width="20" x="0" y="0"/>
            <rect fill="url(#BlackGradient)" height="6" rx="2" ry="2" width="20" x="0" y="0"/>
          </g>
          <g transform="translate(459.65,138.91)">
            <rect fill-opacity="1" height="6" rx="2" ry="2" width="20" x="0" y="0"/>
            <rect fill="url(#WhiteGradient)" height="6" rx="2" ry="2" width="20" x="0" y="0"/>
            <rect fill-opacity="0.4" filter="url(#SaturateMinus)" height="6" rx="2" ry="2" width="20" x="0" y="0"/>
            <rect fill="url(#BlackGradient)" height="6" rx="2" ry="2" width="20" x="0" y="0"/>
          </g>
          <g transform="translate(480.48,314.61)">
            <rect fill-opacity="1" height="6" rx="2" ry="2" width="20" x="0" y="0"/>
            <rect fill="url(#WhiteGradient)" height="6" rx="2" ry="2" width="20" x="0" y="0"/>
            <rect fill-opacity="0.4" filter="url(#SaturateMinus)" height="6" rx="2" ry="2" width="20" x="0" y="0"/>
            <rect fill="url(#BlackGradient)" height="6" rx="2" ry="2" width="20" x="0" y="0"/>
          </g>
          <g transform="translate(772.14,99.87)">
            <rect fill-opacity="1" height="6" rx="2" ry="2" width="20" x="0" y="0"/>
            <rect fill="url(#WhiteGradient)" height="6" rx="2" ry="2" width="20" x="0" y="0"/>
            <rect fill-opacity="0.4" filter="url(#SaturateMinus)" height="6" rx="2" ry="2" width="20" x="0" y="0"/>
            <rect fill="url(#BlackGradient)" height="6" rx="2" ry="2" width="20" x="0" y="0"/>
          </g>
          <g transform="translate(792.97,353.65)">
            <rect fill-opacity="1" height="6" rx="2" ry="2" width="20" x="0" y="0"/>
            <rect fill="url(#WhiteGradient)" height="6" rx="2" ry="2" width="20" x="0" y="0"/>
            <rect fill-opacity="0.4" filter="url(#SaturateMinus)" height="6" rx="2" ry="2" width="20" x="0" y="0"/>
            <rect fill="url(#BlackGradient)" height="6" rx="2" ry="2" width="20" x="0" y="0"/>
          </g>
          <g transform="translate(876.3,60.83)">
            <rect fill-opacity="1" height="6" rx="2" ry="2" width="20" x="0" y="0"/>
            <rect fill="url(#WhiteGradient)" height="6" rx="2" ry="2" width="20" x="0" y="0"/>
            <rect fill-opacity="0.4" filter="url(#SaturateMinus)" height="6" rx="2" ry="2" width="20" x="0" y="0"/>
            <rect fill="url(#BlackGradient)" height="6" rx="2" ry="2" width="20" x="0" y="0"/>
          </g>
        </g>
        <g fill="orange" id="ID_graph_6">
          <g transform="translate(209.66,238.47)">
            <rect fill-opacity="1" height="6" rx="2" ry="2" width="20" x="0" y="0"/>
            <rect fill="url(#WhiteGradient)" height="6" rx="2" ry="2" width="20" x="0" y="0"/>
            <rect fill-opacity="0.4" filter="url(#SaturateMinus)" height="6" rx="2" ry="2" width="20" x="0" y="0"/>
            <rect fill="url(#BlackGradient)" height="6" rx="2" ry="2" width="20" x="0" y="0"/>
          </g>
          <g transform="translate(292.99,174.05)">
            <rect fill-opacity="1" height="6" rx="2" ry="2" width="20" x="0" y="0"/>
            <rect fill="url(#WhiteGradient)" height="6" rx="2" ry="2" width="20" x="0" y="0"/>
            <rect fill-opacity="0.4" filter="url(#SaturateMinus)" height="6" rx="2" ry="2" width="20" x="0" y="0"/>
            <rect fill="url(#BlackGradient)" height="6" rx="2" ry="2" width="20" x="0" y="0"/>
          </g>
          <g transform="translate(376.32,281.42)">
            <rect fill-opacity="1" height="6" rx="2" ry="2" width="20" x="0" y="0"/>
            <rect fill="url(#WhiteGradient)" height="6" rx="2" ry="2" width="20" x="0" y="0"/>
            <rect fill-opacity="0.4" filter="url(#SaturateMinus)" height="6" rx="2" ry="2" width="20" x="0" y="0"/>
            <rect fill="url(#BlackGradient)" height="6" rx="2" ry="2" width="20" x="0" y="0"/>
          </g>
          <g transform="translate(459.65,131.11)">
            <rect fill-opacity="1" height="6" rx="2" ry="2" width="20" x="0" y="0"/>
            <rect fill="url(#WhiteGradient)" height="6" rx="2" ry="2" width="20" x="0" y="0"/>
            <rect fill-opacity="0.4" filter="url(#SaturateMinus)" height="6" rx="2" ry="2" width="20" x="0" y="0"/>
            <rect fill="url(#BlackGradient)" height="6" rx="2" ry="2" width="20" x="0" y="0"/>
          </g>
          <g transform="translate(480.48,324.37)">
            <rect fill-opacity="1" height="6" rx="2" ry="2" width="20" x="0" y="0"/>
            <rect fill="url(#WhiteGradient)" height="6" rx="2" ry="2" width="20" x="0" y="0"/>
            <rect fill-opacity="0.4" filter="url(#SaturateMinus)" height="6" rx="2" ry="2" width="20" x="0" y="0"/>
            <rect fill="url(#BlackGradient)" height="6" rx="2" ry="2" width="20" x="0" y="0"/>
          </g>
          <g transform="translate(772.14,88.16)">
            <rect fill-opacity="1" height="6" rx="2" ry="2" width="20" x="0" y="0"/>
            <rect fill="url(#WhiteGradient)" height="6" rx="2" ry="2" width="20" x="0" y="0"/>
            <rect fill-opacity="0.4" filter="url(#SaturateMinus)" height="6" rx="2" ry="2" width="20" x="0" y="0"/>
            <rect fill="url(#BlackGradient)" height="6" rx="2" ry="2" width="20" x="0" y="0"/>
          </g>
          <g transform="translate(792.97,367.31)">
            <rect fill-opacity="1" height="6" rx="2" ry="2" width="20" x="0" y="0"/>
            <rect fill="url(#WhiteGradient)" height="6" rx="2" ry="2" width="20" x="0" y="0"/>
            <rect fill-opacity="0.4" filter="url(#SaturateMinus)" height="6" rx="2" ry="2" width="20" x="0" y="0"/>
            <rect fill="url(#BlackGradient)" height="6" rx="2" ry="2" width="20" x="0" y="0"/>
          </g>
          <g transform="translate(876.3,45.21)">
            <rect fill-opacity="1" height="6" rx="2" ry="2" width="20" x="0" y="0"/>
            <rect fill="url(#WhiteGradient)" height="6" rx="2" ry="2" width="20" x="0" y="0"/>
            <rect fill-opacity="0.4" filter="url(#SaturateMinus)" height="6" rx="2" ry="2" width="20" x="0" y="0"/>
            <rect fill="url(#BlackGradient)" height="6" rx="2" ry="2" width="20" x="0" y="0"/>
          </g>
        </g>
        <g fill="pink" id="ID_graph_7">
          <g transform="translate(209.66,240.62)">
            <rect fill-opacity="1" height="6" rx="2" ry="2" width="20" x="0" y="0"/>
            <rect fill="url(#WhiteGradient)" height="6" rx="2" ry="2" width="20" x="0" y="0"/>
            <rect fill-opacity="0.4" filter="url(#SaturateMinus)" height="6" rx="2" ry="2" width="20" x="0" y="0"/>
            <rect fill="url(#BlackGradient)" height="6" rx="2" ry="2" width="20" x="0" y="0"/>
          </g>
          <g transform="translate(292.99,169.76)">
            <rect fill-opacity="1" height="6" rx="2" ry="2" width="20" x="0" y="0"/>
            <rect fill="url(#WhiteGradient)" height="6" rx="2" ry="2" width="20" x="0" y="0"/>
            <rect fill-opacity="0.4" filter="url(#SaturateMinus)" height="6" rx="2" ry="2" width="20" x="0" y="0"/>
            <rect fill="url(#BlackGradient)" height="6" rx="2" ry="2" width="20" x="0" y="0"/>
          </g>
          <g transform="translate(376.32,287.86)">
            <rect fill-opacity="1" height="6" rx="2" ry="2" width="20" x="0" y="0"/>
            <rect fill="url(#WhiteGradient)" height="6" rx="2" ry="2" width="20" x="0" y="0"/>
            <rect fill-opacity="0.4" filter="url(#SaturateMinus)" height="6" rx="2" ry="2" width="20" x="0" y="0"/>
            <rect fill="url(#BlackGradient)" height="6" rx="2" ry="2" width="20" x="0" y="0"/>
          </g>
          <g transform="translate(459.65,122.52)">
            <rect fill-opacity="1" height="6" rx="2" ry="2" width="20" x="0" y="0"/>
            <rect fill="url(#WhiteGradient)" height="6" rx="2" ry="2" width="20" x="0" y="0"/>
            <rect fill-opacity="0.4" filter="url(#SaturateMinus)" height="6" rx="2" ry="2" width="20" x="0" y="0"/>
            <rect fill="url(#BlackGradient)" height="6" rx="2" ry="2" width="20" x="0" y="0"/>
          </g>
          <g transform="translate(480.48,335.1)">
            <rect fill-opacity="1" height="6" rx="2" ry="2" width="20" x="0" y="0"/>
            <rect fill="url(#WhiteGradient)" height="6" rx="2" ry="2" width="20" x="0" y="0"/>
            <rect fill-opacity="0.4" filter="url(#SaturateMinus)" height="6" rx="2" ry="2" width="20" x="0" y="0"/>
            <rect fill="url(#BlackGradient)" height="6" rx="2" ry="2" width="20" x="0" y="0"/>
          </g>
          <g transform="translate(772.14,75.28)">
            <rect fill-opacity="1" height="6" rx="2" ry="2" width="20" x="0" y="0"/>
            <rect fill="url(#WhiteGradient)" height="6" rx="2" ry="2" width="20" x="0" y="0"/>
            <rect fill-opacity="0.4" filter="url(#SaturateMinus)" height="6" rx="2" ry="2" width="20" x="0" y="0"/>
            <rect fill="url(#BlackGradient)" height="6" rx="2" ry="2" width="20" x="0" y="0"/>
          </g>
          <g transform="translate(792.97,382.35)">
            <rect fill-opacity="1" height="6" rx="2" ry="2" width="20" x="0" y="0"/>
            <rect fill="url(#WhiteGradient)" height="6" rx="2" ry="2" width="20" x="0" y="0"/>
            <rect fill-opacity="0.4" filter="url(#SaturateMinus)" height="6" rx="2" ry="2" width="20" x="0" y="0"/>
            <rect fill="url(#BlackGradient)" height="6" rx="2" ry="2" width="20" x="0" y="0"/>
          </g>
          <g transform="translate(876.3,28.03)">
            <rect fill-opacity="1" height="6" rx="2" ry="2" width="20" x="0" y="0"/>
            <rect fill="url(#WhiteGradient)" height="6" rx="2" ry="2" width="20" x="0" y="0"/>
            <rect fill-opacity="0.4" filter="url(#SaturateMinus)" height="6" rx="2" ry="2" width="20" x="0" y="0"/>
            <rect fill="url(#BlackGradient)" height="6" rx="2" ry="2" width="20" x="0" y="0"/>
          </g>
        </g>
      </g>
    </g>
  </g>

</svg>