
<svg xmlns="http://www.w3.org/2000/svg" id="ID_svg" viewBox="0 0 1257.96 466" viewport-fill="darkblue" viewport-fill-opacity="0.25" xmlns:exsl4D="http://www.4D.com" xmlns:gFunc="http://gFunc" xmlns:math="http://exslt.org/math" xmlns:xlink="http://www.w3.org/1999/xlink">

  <!--gradient styles-->

  <defs>
    <filter id="soft_blur">
      <feGaussianBlur in="SourceGraphic" result="BlurAlpha" stdDeviation="1"/>
    </filter>
    <filter id="pastel">
      <feGaussianBlur in="SourceAlpha" result="blur" stdDeviation="2"/>
      <feOffset dx="6" dy="6" in="blur" result="offsetBlur"/>
      <feComposite in="SourceGraphic" in2="offsetBlur" operator="in" result="specOut"/>
    </filter>
    <filter id="blur_shadow">
      <feGaussianBlur in="SourceAlpha" result="blur" stdDeviation="3"/>
      <feOffset dx="4" dy="2" in="blur" result="offsetBlur"/>
      <feBlend in="SourceGraphic" in2="offsetBlur" mode="normal"/>
    </filter>
    <filter filterUnits="objectBoundingBox" id="Shadow">
      <feGaussianBlur in="SourceAlpha" result="flou" stdDeviation="0"/>
      <feColorMatrix in="SourceAlpha" result="flouBlue" type="matrix" values=" 0 0 0 0 0                      0 0 0 0 0                     0 0 0 0 0                      0 0 0 0.3 0"/>
      <feOffset dx="4" dy="4" in="flouBlue" result="flouDecalage"/>
      <feBlend in="SourceGraphic" in2="flouDecalage" mode="normal"/>
    </filter>
    <filter filterUnits="objectBoundingBox" height="100%" id="SaturateMinus" width="100%" x="0%" y="0%">
      <feColorMatrix in="SourceGraphic" type="saturate" values="0.5"/>
    </filter>
    <filter filterUnits="objectBoundingBox" height="100%" id="SaturatePlus" width="100%" x="0%" y="0%">
      <feColorMatrix in="SourceGraphic" type="saturate" values="1.4"/>
    </filter>
    <linearGradient id="BlackGradient">
      <stop offset="0%" style="stop-color:rgb(0,0,0); stop-opacity:0"/>
      <stop offset="100%" style="stop-color:rgb(0,0,0); stop-opacity:0.1"/>
    </linearGradient>
    <linearGradient id="WhiteGradient" x1="0%" x2="100%" y1="0%" y2="0%">
      <stop offset="0%" style="stop-color:rgb(255,255,255); stop-opacity:0.3"/>
      <stop offset="100%" style="stop-color:rgb(255,255,255);stop-opacity:0"/>
    </linearGradient>
    <linearGradient id="WhiteBlackGradient" x1="0%" x2="100%" y1="0%" y2="0%">
      <stop offset="0%" style="stop-color:rgb(255,255,255); stop-opacity:0.15"/>
      <stop offset="100%" style="stop-color:rgb(0,0,0);stop-opacity:0.15"/>
    </linearGradient>
    <linearGradient id="Black0Black1Gradient" x1="0%" x2="0%" y1="0%" y2="100%">
      <stop offset="0%" style="stop-color:rgb(0,0,0); stop-opacity:0"/>
      <stop offset="100%" style="stop-color:rgb(0,0,0);stop-opacity:0.05"/>
    </linearGradient>
  </defs>

  <!--global stroke and font styles-->

  <g id="ID_globals" style="fill:red;stroke:none;font-family:Arial;font-size:14px;font-weight:normal;font-style:normal;text-decoration:none;shape-rendering:crispEdges">
    <!--draw title-->
    <!--********************************draw graph background********************************-->
    <rect fill="darkgreen" height="400" id="ID_background_shadow" opacity="0.5" rx="10" ry="10" stroke="none" transform="translate(1,1)" visibility="visible" width="999.96" x="53" y="20"/>
    <g fill="lightgreen" id="ID_background" opacity="0.5" stroke="none" visibility="visible">
      <rect height="400" rx="10" ry="10" stroke="none" width="999.96" x="53" y="20"/>
      <rect fill="url(#Black0Black1Gradient)" height="400" rx="10" ry="10" stroke="none" width="999.96" x="53" y="20"/>
    </g>
    <clipPath id="ID_backgroundClipPath">
      <rect height="401" rx="10" ry="10" width="1000.96" x="52" y="19"/>
    </clipPath>
    <!--********************************draw Y Labels********************************-->
    <g id="ID_y$value" style="fill:red;stroke:none;font-family:Arial;font-size:14px;font-weight:normal;font-style:normal;text-decoration:none;filter:none" visibility="visible">
      <text text-anchor="end" x="41" y="27">14</text>
      <text text-anchor="end" x="41" y="57.77">12</text>
      <text text-anchor="end" x="41" y="88.54">10</text>
      <text text-anchor="end" x="41" y="119.31">8</text>
      <text text-anchor="end" x="41" y="150.08">6</text>
      <text text-anchor="end" x="41" y="180.85">4</text>
      <text text-anchor="end" x="41" y="211.62">2</text>
      <text text-anchor="end" x="41" y="242.39">0</text>
      <text text-anchor="end" x="41" y="273.16">-2</text>
      <text text-anchor="end" x="41" y="303.93">-4</text>
      <text text-anchor="end" x="41" y="334.7">-6</text>
      <text text-anchor="end" x="41" y="365.47">-8</text>
      <text text-anchor="end" x="41" y="396.24">-10</text>
      <text text-anchor="end" x="41" y="427.01">-12</text>
    </g>
    <!--********************************draw X Labels********************************-->
    <!--draw axis x labels-->
    <g id="ID_x$value" style="fill:red;stroke:none;font-family:Arial;font-size:14px;font-weight:normal;font-style:normal;text-decoration:none;filter:none" visibility="visible">
      <text text-anchor="middle" x="53" y="446">06:00:00</text>
      <text text-anchor="middle" x="136.33" y="446">07:00:00</text>
      <text text-anchor="middle" x="219.66" y="446">08:00:00</text>
      <text text-anchor="middle" x="302.99" y="446">09:00:00</text>
      <text text-anchor="middle" x="386.32" y="446">10:00:00</text>
      <text text-anchor="middle" x="469.65" y="446">11:00:00</text>
      <text text-anchor="middle" x="552.98" y="446">12:00:00</text>
      <text text-anchor="middle" x="636.31" y="446">13:00:00</text>
      <text text-anchor="middle" x="719.64" y="446">14:00:00</text>
      <text text-anchor="middle" x="802.97" y="446">15:00:00</text>
      <text text-anchor="middle" x="886.3" y="446">16:00:00</text>
      <text text-anchor="middle" x="969.63" y="446">17:00:00</text>
      <text text-anchor="middle" x="1052.96" y="446">18:00:00</text>
    </g>
    <g style="clip-path: url(#ID_backgroundClipPath)">
      <!--******************************** draw Y grid lines******************************** (Horizontal lines)-->
      <g id="ID_y_grid" stroke="#a8a8a8" stroke-width="1">
        <line x1="53" x2="1052.96" y1="50.77" y2="50.77"/>
        <line x1="53" x2="1052.96" y1="81.54" y2="81.54"/>
        <line x1="53" x2="1052.96" y1="112.31" y2="112.31"/>
        <line x1="53" x2="1052.96" y1="143.08" y2="143.08"/>
        <line x1="53" x2="1052.96" y1="173.85" y2="173.85"/>
        <line x1="53" x2="1052.96" y1="204.62" y2="204.62"/>
        <line x1="53" x2="1052.96" y1="235.39" y2="235.39"/>
        <line x1="53" x2="1052.96" y1="266.16" y2="266.16"/>
        <line x1="53" x2="1052.96" y1="296.93" y2="296.93"/>
        <line x1="53" x2="1052.96" y1="327.7" y2="327.7"/>
        <line x1="53" x2="1052.96" y1="358.47" y2="358.47"/>
        <line x1="53" x2="1052.96" y1="389.24" y2="389.24"/>
      </g>
      <!--draw Y grid lines SHADOWS-->
      <g id="ID_y_grid_shadow" stroke="#ffffff" stroke-width="1">
        <line transform="translate(0,1)" x1="53" x2="1052.96" y1="50.77" y2="50.77"/>
        <line transform="translate(0,1)" x1="53" x2="1052.96" y1="81.54" y2="81.54"/>
        <line transform="translate(0,1)" x1="53" x2="1052.96" y1="112.31" y2="112.31"/>
        <line transform="translate(0,1)" x1="53" x2="1052.96" y1="143.08" y2="143.08"/>
        <line transform="translate(0,1)" x1="53" x2="1052.96" y1="173.85" y2="173.85"/>
        <line transform="translate(0,1)" x1="53" x2="1052.96" y1="204.62" y2="204.62"/>
        <line transform="translate(0,1)" x1="53" x2="1052.96" y1="235.39" y2="235.39"/>
        <line transform="translate(0,1)" x1="53" x2="1052.96" y1="266.16" y2="266.16"/>
        <line transform="translate(0,1)" x1="53" x2="1052.96" y1="296.93" y2="296.93"/>
        <line transform="translate(0,1)" x1="53" x2="1052.96" y1="327.7" y2="327.7"/>
        <line transform="translate(0,1)" x1="53" x2="1052.96" y1="358.47" y2="358.47"/>
        <line transform="translate(0,1)" x1="53" x2="1052.96" y1="389.24" y2="389.24"/>
      </g>
      <g id="ID_y0_axis" stroke="rgb(100,100,100)" stroke-width="1" visibility="visible">
        <line x1="53" x2="1052.96" y1="235.38" y2="235.38"/>
      </g>
      <!--********************************draw X grid lines******************************** (Vertical lines)-->
      <g id="ID_x_grid" stroke="#a8a8a8" stroke-width="1">
        <line x1="136.33" x2="136.33" y1="20" y2="420"/>
        <line x1="219.66" x2="219.66" y1="20" y2="420"/>
        <line x1="302.99" x2="302.99" y1="20" y2="420"/>
        <line x1="386.32" x2="386.32" y1="20" y2="420"/>
        <line x1="469.65" x2="469.65" y1="20" y2="420"/>
        <line x1="552.98" x2="552.98" y1="20" y2="420"/>
        <line x1="636.31" x2="636.31" y1="20" y2="420"/>
        <line x1="719.64" x2="719.64" y1="20" y2="420"/>
        <line x1="802.97" x2="802.97" y1="20" y2="420"/>
        <line x1="886.3" x2="886.3" y1="20" y2="420"/>
        <line x1="969.63" x2="969.63" y1="20" y2="420"/>
      </g>
      <!--draw X grid lines SHADOWS -->
      <g id="ID_x_grid_shadow" stroke="#ffffff" stroke-width="1">
        <line transform="translate(1,0)" x1="136.33" x2="136.33" y1="20" y2="420"/>
        <line transform="translate(1,0)" x1="219.66" x2="219.66" y1="20" y2="420"/>
        <line transform="translate(1,0)" x1="302.99" x2="302.99" y1="20" y2="420"/>
        <line transform="translate(1,0)" x1="386.32" x2="386.32" y1="20" y2="420"/>
        <line transform="translate(1,0)" x1="469.65" x2="469.65" y1="20" y2="420"/>
        <line transform="translate(1,0)" x1="552.98" x2="552.98" y1="20" y2="420"/>
        <line transform="translate(1,0)" x1="636.31" x2="636.31" y1="20" y2="420"/>
        <line transform="translate(1,0)" x1="719.64" x2="719.64" y1="20" y2="420"/>
        <line transform="translate(1,0)" x1="802.97" x2="802.97" y1="20" y2="420"/>
        <line transform="translate(1,0)" x1="886.3" x2="886.3" y1="20" y2="420"/>
        <line transform="translate(1,0)" x1="969.63" x2="969.63" y1="20" y2="420"/>
      </g>
    </g>
    <!--******************************** draw legend ***********************************-->
    <g filter="none" id="ID_legend" transform="translate(1064.96,20)" visibility="visible">
      <!--draw legend border-->
      <rect fill="darkgreen" fill-opacity="0.5" height="108" id="ID_legend_border_shadow" rx="10" ry="10" stroke="none" transform="translate(1,1)" width="173" x="0" y="0"/>
      <rect fill="lightgreen" fill-opacity="0.5" height="108" id="ID_legend_border" rx="10" ry="10" stroke="none" stroke-width="0" width="173" x="0" y="0"/>
      <!--draw legend bullets-->
      <g id="ID_legend_bullets" stroke="none">
        <g fill="purple" id="ID_legend_1">
          <rect height="12" rx="3" ry="3" width="24" x="10" y="8"/>
          <rect fill="url(#WhiteBlackGradient)" height="12" rx="3" ry="3" width="24" x="10" y="8"/>
          <rect fill-opacity="0.3" filter="url(#SaturateMinus)" height="12" rx="3" ry="3" width="24" x="10" y="8"/>
        </g>
        <g fill="darkblue" id="ID_legend_2">
          <rect height="12" rx="3" ry="3" width="24" x="10" y="28"/>
          <rect fill="url(#WhiteBlackGradient)" height="12" rx="3" ry="3" width="24" x="10" y="28"/>
          <rect fill-opacity="0.3" filter="url(#SaturateMinus)" height="12" rx="3" ry="3" width="24" x="10" y="28"/>
        </g>
        <g fill="blue" id="ID_legend_3">
          <rect height="12" rx="3" ry="3" width="24" x="10" y="48"/>
          <rect fill="url(#WhiteBlackGradient)" height="12" rx="3" ry="3" width="24" x="10" y="48"/>
          <rect fill-opacity="0.3" filter="url(#SaturateMinus)" height="12" rx="3" ry="3" width="24" x="10" y="48"/>
        </g>
        <g fill="green" id="ID_legend_4">
          <rect height="12" rx="3" ry="3" width="24" x="10" y="68"/>
          <rect fill="url(#WhiteBlackGradient)" height="12" rx="3" ry="3" width="24" x="10" y="68"/>
          <rect fill-opacity="0.3" filter="url(#SaturateMinus)" height="12" rx="3" ry="3" width="24" x="10" y="68"/>
        </g>
        <g fill="yellow" id="ID_legend_5">
          <rect height="12" rx="3" ry="3" width="24" x="10" y="88"/>
          <rect fill="url(#WhiteBlackGradient)" height="12" rx="3" ry="3" width="24" x="10" y="88"/>
          <rect fill-opacity="0.3" filter="url(#SaturateMinus)" height="12" rx="3" ry="3" width="24" x="10" y="88"/>
        </g>
      </g>
      <!--draw legend labels-->
      <g id="ID_legend_labels" style="fill:black;stroke:none;font-family:Arial;;font-weight:normal;font-style:normal;text-decoration:none;filter:none;text-anchor:start">
        <text x="44" y="17">Sharp</text>
        <text x="44" y="37">Infinity</text>
        <text x="44" y="57">Audio Référence</text>
        <text x="44" y="77">Triangle</text>
        <text x="44" y="97">Yamaha</text>
      </g>
    </g>
    <g style="clip-path: url(#ID_backgroundClipPath)">
      <g fill="purple" filter="None" id="ID_graph_1" opacity="1" stroke="none" stroke-opacity="1" stroke-width="0">
        <polyline fill-opacity="0.7" points="53 235.38 219.66 250.76 302.99 204.61 386.32 281.53 469.65 173.84 490.48 312.3 782.14 143.07 802.97 343.07 886.3 112.3 1052.96 235.38"/>
      </g>
      <g fill="darkblue" filter="None" id="ID_graph_2" opacity="1" stroke="none" stroke-opacity="1" stroke-width="0">
        <polyline fill-opacity="0.7" points="53 235.38 219.66 252.3 302.99 201.53 386.32 286.15 469.65 167.69 490.48 320 782.14 133.84 802.97 353.84 886.3 100 1052.96 235.38"/>
      </g>
      <g fill="blue" filter="None" id="ID_graph_3" opacity="1" stroke="none" stroke-opacity="1" stroke-width="0">
        <polyline fill-opacity="0.7" points="53 235.38 219.66 254 302.99 198.15 386.32 291.23 469.65 160.92 490.48 328.46 782.14 123.69 802.97 365.69 886.3 86.46 1052.96 235.38"/>
      </g>
      <g fill="green" filter="None" id="ID_graph_4" opacity="1" stroke="none" stroke-opacity="1" stroke-width="0">
        <polyline fill-opacity="0.7" points="53 235.38 219.66 255.86 302.99 194.43 386.32 296.81 469.65 153.47 490.48 337.76 782.14 112.52 802.97 378.72 886.3 71.56 1052.96 235.38"/>
      </g>
      <g fill="yellow" filter="None" id="ID_graph_5" opacity="1" stroke="none" stroke-opacity="1" stroke-width="0">
        <polyline fill-opacity="0.7" points="53 235.38 219.66 257.9 302.99 190.33 386.32 302.95 469.65 145.28 490.48 348 782.14 100.23 802.97 393.05 886.3 55.18 1052.96 235.38"/>
      </g>
    </g>
  </g>

</svg>