<?xml version="1.0" encoding="UTF-8" standalone="no" ?><svg xmlns="http://www.w3.org/2000/svg" id="ID_svg" viewBox="0 0 1162 500" viewport-fill="white" viewport-fill-opacity="0" xmlns:exsl4D="http://www.4D.com" xmlns:math="http://exslt.org/math" xmlns:xlink="http://www.w3.org/1999/xlink"><!--gradient styles--><defs><filter id="soft_blur"><feGaussianBlur in="SourceGraphic" result="BlurAlpha" stdDeviation="1"/></filter><filter id="pastel"><feGaussianBlur in="SourceAlpha" result="blur" stdDeviation="2"/><feOffset dx="6" dy="6" in="blur" result="offsetBlur"/><feComposite in="SourceGraphic" in2="offsetBlur" operator="in" result="specOut"/></filter><filter id="blur_shadow"><feGaussianBlur in="SourceAlpha" result="blur" stdDeviation="3"/><feOffset dx="4" dy="2" in="blur" result="offsetBlur"/><feBlend in="SourceGraphic" in2="offsetBlur" mode="normal"/></filter><filter filterUnits="objectBoundingBox" id="Shadow"><feGaussianBlur in="SourceAlpha" result="flou" stdDeviation="0"/><feColorMatrix in="SourceAlpha" result="flouBlue" type="matrix" values=" 0 0 0 0 0                      0 0 0 0 0                     0 0 0 0 0                      0 0 0 0.3 0"/><feOffset dx="4" dy="4" in="flouBlue" result="flouDecalage"/><feBlend in="SourceGraphic" in2="flouDecalage" mode="normal"/></filter><filter filterUnits="objectBoundingBox" height="100%" id="SaturateMinus" width="100%" x="0%" y="0%"><feColorMatrix in="SourceGraphic" type="saturate" values="0.5"/></filter><filter filterUnits="objectBoundingBox" height="100%" id="SaturatePlus" width="100%" x="0%" y="0%"><feColorMatrix in="SourceGraphic" type="saturate" values="1.4"/></filter><linearGradient id="BlackGradient"><stop offset="0%" style="stop-color:rgb(0,0,0); stop-opacity:0"/><stop offset="100%" style="stop-color:rgb(0,0,0); stop-opacity:0.1"/></linearGradient><linearGradient id="WhiteGradient" x1="0%" x2="100%" y1="0%" y2="0%"><stop offset="0%" style="stop-color:rgb(255,255,255); stop-opacity:0.3"/><stop offset="100%" style="stop-color:rgb(255,255,255);stop-opacity:0"/></linearGradient><linearGradient id="WhiteBlackGradient" x1="0%" x2="100%" y1="0%" y2="0%"><stop offset="0%" style="stop-color:rgb(255,255,255); stop-opacity:0.15"/><stop offset="100%" style="stop-color:rgb(0,0,0);stop-opacity:0.15"/></linearGradient><linearGradient id="Black0Black1Gradient" x1="0%" x2="0%" y1="0%" y2="100%"><stop offset="0%" style="stop-color:rgb(0,0,0); stop-opacity:0"/><stop offset="100%" style="stop-color:rgb(0,0,0);stop-opacity:0.05"/></linearGradient><clipPath id="ID_graph_clip"><rect height="446" width="1120" x="32" y="22"/></clipPath></defs><!--global stroke and font styles--><g id="ID_globals" style="fill:black;stroke:none;font-family:Arial;font-size:12px;font-weight:normal;font-style:normal;text-decoration:none;shape-rendering:crispEdges"><!--draw title--><!--draw legend--><!--draw graph background--><rect fill="rgb(168,168,168)" fill-opacity="1" height="446" id="ID_background_shadow" rx="10" ry="10" stroke="none" visibility="visible" width="1120" x="33" y="23"/><g fill="rgb(229,229,229)" id="ID_background" visibility="visible"><rect height="446" rx="10" ry="10" stroke="none" width="1120" x="32" y="22"/><rect fill="url(#Black0Black1Gradient)" height="446" rx="10" ry="10" stroke="none" width="1120" x="32" y="22"/></g><clipPath id="ID_backgroundClipPath"><rect height="447" rx="10" ry="10" width="1121" x="32" y="22"/></clipPath><!--draw Y grid lines--><!--draw Y grid lines SHADOWS--><!--draw X grid lines--><!--draw X grid lines SHADOWS --><!--draw y=0 axe--><g id="ID_y0_axis" stroke="rgb(100,100,100)" stroke-width="1" visibility="visible"><line x1="32" x2="1152" y1="259.8666666666667" y2="259.8666666666667"/></g><!--draw axis x labels--><g id="ID_x_values" style="fill:black;stroke:none;font-family:Arial;font-size:12px;font-weight:normal;font-style:normal;text-decoration:none;filter:none"><text text-anchor="middle" x="105" y="486.8">PT8H0M0S</text><text text-anchor="middle" x="245" y="486.8">PT9H0M0S</text><text text-anchor="middle" x="385" y="486.8">PT10H0M0S</text><text text-anchor="middle" x="525" y="486.8">PT11H0M0S</text><text text-anchor="middle" x="665" y="486.8">PT11H15M0S</text><text text-anchor="middle" x="805" y="486.8">PT14H45M0S</text><text text-anchor="middle" x="945" y="486.8">PT15H0M0S</text><text text-anchor="middle" x="1085" y="486.8">PT16H0M0S</text></g><!--draw axis y labels--><g id="ID_y_values" style="fill:black;stroke:none;font-family:Arial;font-size:12px;font-weight:normal;font-style:normal;text-decoration:none;filter:none"><text text-anchor="end" x="22" y="472.8">-7</text><text text-anchor="end" x="22" y="443.06666666666666">-6</text><text text-anchor="end" x="22" y="413.3333333333333">-5</text><text text-anchor="end" x="22" y="383.6">-4</text><text text-anchor="end" x="22" y="353.8666666666667">-3</text><text text-anchor="end" x="22" y="324.1333333333333">-2</text><text text-anchor="end" x="22" y="294.40000000000003">-1</text><text text-anchor="end" x="22" y="264.6666666666667">0</text><text text-anchor="end" x="22" y="234.93333333333334">1</text><text text-anchor="end" x="22" y="205.2">2</text><text text-anchor="end" x="22" y="175.46666666666664">3</text><text text-anchor="end" x="22" y="145.73333333333335">4</text><text text-anchor="end" x="22" y="115.99999999999999">5</text><text text-anchor="end" x="22" y="86.26666666666664">6</text><text text-anchor="end" x="22" y="56.533333333333346">7</text><text text-anchor="end" x="22" y="26.8">8</text></g><!--draw lines and bullets--><g filter="none" stroke-width="2"><!--draw line for data type 1--><g filter="none" id="ID_graph_1" stroke="rgb(0,178,195)" stroke-opacity="1" stroke-width="2"><line fill-opacity="1" x1="102" x2="242" y1="289.6" y2="200.4"/><line fill-opacity="1" x1="242" x2="382" y1="200.4" y2="349.06666666666666"/><line fill-opacity="1" x1="382" x2="522" y1="349.06666666666666" y2="140.93333333333334"/><line fill-opacity="1" x1="522" x2="662" y1="140.93333333333334" y2="408.53333333333336"/><line fill-opacity="1" x1="662" x2="802" y1="408.53333333333336" y2="81.46666666666667"/><line fill-opacity="1" x1="802" x2="942" y1="81.46666666666667" y2="468"/><line fill-opacity="1" x1="942" x2="1082" y1="468" y2="22"/></g><g id="allBullets"><!--draw bullet for data type 1--><g fill="rgb(0,178,195)" fill-opacity="1" filter="none" id="ID_bullet_1" stroke="none" stroke-opacity="1" stroke-width="1"><rect height="12" rx="1.5" ry="1.5" width="12" x="96" y="283.6"/><rect fill="url(#WhiteBlackGradient)" height="12" rx="1.5" ry="1.5" width="12" x="96" y="283.6"/><rect fill-opacity="0.3" filter="url(#SaturateMinus)" height="12" rx="1.5" ry="1.5" width="12" x="96" y="283.6"/><rect height="12" rx="1.5" ry="1.5" width="12" x="236" y="194.4"/><rect fill="url(#WhiteBlackGradient)" height="12" rx="1.5" ry="1.5" width="12" x="236" y="194.4"/><rect fill-opacity="0.3" filter="url(#SaturateMinus)" height="12" rx="1.5" ry="1.5" width="12" x="236" y="194.4"/><rect height="12" rx="1.5" ry="1.5" width="12" x="376" y="343.06666666666666"/><rect fill="url(#WhiteBlackGradient)" height="12" rx="1.5" ry="1.5" width="12" x="376" y="343.06666666666666"/><rect fill-opacity="0.3" filter="url(#SaturateMinus)" height="12" rx="1.5" ry="1.5" width="12" x="376" y="343.06666666666666"/><rect height="12" rx="1.5" ry="1.5" width="12" x="516" y="134.93333333333334"/><rect fill="url(#WhiteBlackGradient)" height="12" rx="1.5" ry="1.5" width="12" x="516" y="134.93333333333334"/><rect fill-opacity="0.3" filter="url(#SaturateMinus)" height="12" rx="1.5" ry="1.5" width="12" x="516" y="134.93333333333334"/><rect height="12" rx="1.5" ry="1.5" width="12" x="656" y="402.53333333333336"/><rect fill="url(#WhiteBlackGradient)" height="12" rx="1.5" ry="1.5" width="12" x="656" y="402.53333333333336"/><rect fill-opacity="0.3" filter="url(#SaturateMinus)" height="12" rx="1.5" ry="1.5" width="12" x="656" y="402.53333333333336"/><rect height="12" rx="1.5" ry="1.5" width="12" x="796" y="75.46666666666667"/><rect fill="url(#WhiteBlackGradient)" height="12" rx="1.5" ry="1.5" width="12" x="796" y="75.46666666666667"/><rect fill-opacity="0.3" filter="url(#SaturateMinus)" height="12" rx="1.5" ry="1.5" width="12" x="796" y="75.46666666666667"/><rect height="12" rx="1.5" ry="1.5" width="12" x="936" y="462"/><rect fill="url(#WhiteBlackGradient)" height="12" rx="1.5" ry="1.5" width="12" x="936" y="462"/><rect fill-opacity="0.3" filter="url(#SaturateMinus)" height="12" rx="1.5" ry="1.5" width="12" x="936" y="462"/><rect height="12" rx="1.5" ry="1.5" width="12" x="1076" y="16"/><rect fill="url(#WhiteBlackGradient)" height="12" rx="1.5" ry="1.5" width="12" x="1076" y="16"/><rect fill-opacity="0.3" filter="url(#SaturateMinus)" height="12" rx="1.5" ry="1.5" width="12" x="1076" y="16"/></g></g></g></g></svg>