<?xml version="1.0" encoding="UTF-8" standalone="no" ?><svg xmlns="http://www.w3.org/2000/svg" id="ID_svg" viewBox="0 0 1168 500" viewport-fill="white" viewport-fill-opacity="0" xmlns:exsl4D="http://www.4D.com" xmlns:math="http://exslt.org/math" xmlns:xlink="http://www.w3.org/1999/xlink"><!--gradient styles--><defs><filter id="soft_blur"><feGaussianBlur in="SourceGraphic" result="BlurAlpha" stdDeviation="1"/></filter><filter id="pastel"><feGaussianBlur in="SourceAlpha" result="blur" stdDeviation="2"/><feOffset dx="6" dy="6" in="blur" result="offsetBlur"/><feComposite in="SourceGraphic" in2="offsetBlur" operator="in" result="specOut"/></filter><filter id="blur_shadow"><feGaussianBlur in="SourceAlpha" result="blur" stdDeviation="3"/><feOffset dx="4" dy="2" in="blur" result="offsetBlur"/><feBlend in="SourceGraphic" in2="offsetBlur" mode="normal"/></filter><filter filterUnits="objectBoundingBox" id="Shadow"><feGaussianBlur in="SourceAlpha" result="flou" stdDeviation="0"/><feColorMatrix in="SourceAlpha" result="flouBlue" type="matrix" values=" 0 0 0 0 0                      0 0 0 0 0                     0 0 0 0 0                      0 0 0 0.3 0"/><feOffset dx="4" dy="4" in="flouBlue" result="flouDecalage"/><feBlend in="SourceGraphic" in2="flouDecalage" mode="normal"/></filter><filter filterUnits="objectBoundingBox" height="100%" id="SaturateMinus" width="100%" x="0%" y="0%"><feColorMatrix in="SourceGraphic" type="saturate" values="0.5"/></filter><filter filterUnits="objectBoundingBox" height="100%" id="SaturatePlus" width="100%" x="0%" y="0%"><feColorMatrix in="SourceGraphic" type="saturate" values="1.4"/></filter><linearGradient id="BlackGradient"><stop offset="0%" style="stop-color:rgb(0,0,0); stop-opacity:0"/><stop offset="100%" style="stop-color:rgb(0,0,0); stop-opacity:0.1"/></linearGradient><linearGradient id="WhiteGradient" x1="0%" x2="100%" y1="0%" y2="0%"><stop offset="0%" style="stop-color:rgb(255,255,255); stop-opacity:0.3"/><stop offset="100%" style="stop-color:rgb(255,255,255);stop-opacity:0"/></linearGradient><linearGradient id="WhiteBlackGradient" x1="0%" x2="100%" y1="0%" y2="0%"><stop offset="0%" style="stop-color:rgb(255,255,255); stop-opacity:0.15"/><stop offset="100%" style="stop-color:rgb(0,0,0);stop-opacity:0.15"/></linearGradient><linearGradient id="Black0Black1Gradient" x1="0%" x2="0%" y1="0%" y2="100%"><stop offset="0%" style="stop-color:rgb(0,0,0); stop-opacity:0"/><stop offset="100%" style="stop-color:rgb(0,0,0);stop-opacity:0.05"/></linearGradient></defs><!--global stroke and font styles--><g id="ID_globals" style="fill:black;stroke:none;font-family:Arial;font-size:12px;font-weight:normal;font-style:normal;text-decoration:none;shape-rendering:crispEdges"><!--draw title--><!--draw legend--><!--draw graph background--><rect fill="rgb(168,168,168)" fill-opacity="1" height="446" id="ID_background_shadow" rx="10" ry="10" stroke="none" visibility="visible" width="1120" x="39" y="23"/><g fill="rgb(229,229,229)" id="ID_background" visibility="visible"><rect height="446" rx="10" ry="10" stroke="none" width="1120" x="38" y="22"/><rect fill="url(#Black0Black1Gradient)" height="446" rx="10" ry="10" stroke="none" width="1120" x="38" y="22"/></g><clipPath id="ID_backgroundClipPath"><rect height="447" rx="10" ry="10" width="1121" x="38" y="22"/></clipPath><!--draw Y grid lines--><!--draw Y grid lines SHADOWS--><!--draw X grid lines--><!--draw X grid lines SHADOWS --><!--draw y=0 axe--><g id="ID_y0_axis" stroke="rgb(100,100,100)" stroke-width="1" visibility="visible"><line x1="38" x2="1158" y1="265.27272727272725" y2="265.27272727272725"/></g><!--draw axis x labels--><g id="ID_x_values" style="fill:black;stroke:none;font-family:Arial;font-size:12px;font-weight:normal;font-style:normal;text-decoration:none;filter:none"><text text-anchor="middle" x="111" y="486.8">PT8H0M0S</text><text text-anchor="middle" x="251" y="486.8">PT9H0M0S</text><text text-anchor="middle" x="391" y="486.8">PT10H0M0S</text><text text-anchor="middle" x="531" y="486.8">PT11H0M0S</text><text text-anchor="middle" x="671" y="486.8">PT11H15M0S</text><text text-anchor="middle" x="811" y="486.8">PT14H45M0S</text><text text-anchor="middle" x="951" y="486.8">PT15H0M0S</text><text text-anchor="middle" x="1091" y="486.8">PT16H0M0S</text></g><!--draw axis y labels--><g id="ID_y_values" style="fill:black;stroke:none;font-family:Arial;font-size:12px;font-weight:normal;font-style:normal;text-decoration:none;filter:none"><text text-anchor="end" x="28" y="472.8">-25</text><text text-anchor="end" x="28" y="432.25454545454545">-20</text><text text-anchor="end" x="28" y="391.7090909090909">-15</text><text text-anchor="end" x="28" y="351.1636363636364">-10</text><text text-anchor="end" x="28" y="310.6181818181818">-5</text><text text-anchor="end" x="28" y="270.07272727272726">0</text><text text-anchor="end" x="28" y="229.52727272727273">5</text><text text-anchor="end" x="28" y="188.9818181818182">10</text><text text-anchor="end" x="28" y="148.43636363636364">15</text><text text-anchor="end" x="28" y="107.89090909090906">20</text><text text-anchor="end" x="28" y="67.3454545454545">25</text><text text-anchor="end" x="28" y="26.8">30</text></g><!--draw bars SHADOWS--><g clip-path="url(#ID_BackgroundClipPath)" filter="none" id="allGroups" shape-rendering="auto"><!--              draw bars shadows for data type 1--><g fill="black" fill-opacity="0.2" id="ID_graph_shadow_1"><rect height="8.109090909090924" rx="0" ry="0" width="100" x="61" y="265.27272727272725"/><rect height="16.21818181818182" rx="0" ry="0" width="100" x="201" y="249.05454545454543"/><rect height="24.327272727272714" rx="0" ry="0" width="100" x="341" y="265.27272727272725"/><rect height="32.43636363636364" rx="0" ry="0" width="100" x="481" y="232.83636363636361"/><rect height="40.54545454545456" rx="0" ry="0" width="100" x="621" y="265.27272727272725"/><rect height="48.654545454545456" rx="0" ry="0" width="100" x="761" y="216.6181818181818"/><rect height="56.76363636363635" rx="0" ry="0" width="100" x="901" y="265.27272727272725"/><rect height="64.87272727272727" rx="0" ry="0" width="100" x="1041" y="200.39999999999998"/></g><!--              draw bars shadows for data type 2--><g fill="black" fill-opacity="0.2" id="ID_graph_shadow_2"><rect height="8.920000000000016" rx="0" ry="0" width="100" x="61" y="273.3818181818181"/><rect height="17.840000000000003" rx="0" ry="0" width="100" x="201" y="231.21454545454543"/><rect height="26.75999999999999" rx="0" ry="0" width="100" x="341" y="289.59999999999997"/><rect height="35.68000000000001" rx="0" ry="0" width="100" x="481" y="197.1563636363636"/><rect height="44.60000000000002" rx="0" ry="0" width="100" x="621" y="305.81818181818176"/><rect height="53.51999999999998" rx="0" ry="0" width="100" x="761" y="163.09818181818179"/><rect height="62.44" rx="0" ry="0" width="100" x="901" y="322.0363636363636"/><rect height="71.36000000000001" rx="0" ry="0" width="100" x="1041" y="129.03999999999996"/></g><!--              draw bars shadows for data type 3--><g fill="black" fill-opacity="0.2" id="ID_graph_shadow_3"><path d="   M 61 282.30181818181813   l 100 0   l 0 0   s 0 9.812000000000012 -9.812000000000012 9.812000000000012    l -80.37599999999998 0   s -9.812000000000012 0 -9.812000000000012 -9.812000000000012   l 0 0   z"/><path d="   M 201 221.59054545454543   s 0 -10 10 -10   l 80 0   s 10 0 10 10   l 0 9.623999999999995    l -100 0    l 0 -9.623999999999995   z"/><path d="   M 341 316.36   l 100 0   l 0 19.43599999999998   s 0 10 -10 10    l -80 0   s -10 0 -10 -10   l 0 -19.43599999999998   z"/><path d="   M 481 167.90836363636362   s 0 -10 10 -10   l 80 0   s 10 0 10 10   l 0 29.24799999999999    l -100 0    l 0 -29.24799999999999   z"/><path d="   M 621 350.41818181818184   l 100 0   l 0 39.06   s 0 10 -10 10    l -80 0   s -10 0 -10 -10   l 0 -39.06   z"/><path d="   M 761 114.2261818181818   s 0 -10 10 -10   l 80 0   s 10 0 10 10   l 0 48.871999999999986    l -100 0    l 0 -48.871999999999986   z"/><path d="   M 901 384.4763636363636   l 100 0   l 0 58.684000000000026   s 0 10 -10 10    l -80 0   s -10 0 -10 -10   l 0 -58.684000000000026   z"/><path d="   M 1041 60.54399999999998   s 0 -10 10 -10   l 80 0   s 10 0 10 10   l 0 68.49599999999998    l -100 0    l 0 -68.49599999999998   z"/></g></g><!--draw bars--><g filter="none" id="allGroups" shape-rendering="auto"><!--              draw bars for data type 1--><g fill="rgb(0,178,195)" fill-opacity="1" id="ID_graph_1" stroke="black" stroke-opacity="0" stroke-width="0"><rect height="8.109090909090924" rx="0" ry="0" width="100" x="58" y="265.27272727272725"/><rect fill="url(#WhiteBlackGradient)" height="8.109090909090924" rx="0" ry="0" width="100" x="58" y="265.27272727272725"/><rect fill-opacity="0.3" filter="url(#SaturateMinus)" height="8.109090909090924" rx="0" ry="0" width="100" x="58" y="265.27272727272725"/><rect height="16.21818181818182" rx="0" ry="0" width="100" x="198" y="249.05454545454543"/><rect fill="url(#WhiteBlackGradient)" height="16.21818181818182" rx="0" ry="0" width="100" x="198" y="249.05454545454543"/><rect fill-opacity="0.3" filter="url(#SaturateMinus)" height="16.21818181818182" rx="0" ry="0" width="100" x="198" y="249.05454545454543"/><rect height="24.327272727272714" rx="0" ry="0" width="100" x="338" y="265.27272727272725"/><rect fill="url(#WhiteBlackGradient)" height="24.327272727272714" rx="0" ry="0" width="100" x="338" y="265.27272727272725"/><rect fill-opacity="0.3" filter="url(#SaturateMinus)" height="24.327272727272714" rx="0" ry="0" width="100" x="338" y="265.27272727272725"/><rect height="32.43636363636364" rx="0" ry="0" width="100" x="478" y="232.83636363636361"/><rect fill="url(#WhiteBlackGradient)" height="32.43636363636364" rx="0" ry="0" width="100" x="478" y="232.83636363636361"/><rect fill-opacity="0.3" filter="url(#SaturateMinus)" height="32.43636363636364" rx="0" ry="0" width="100" x="478" y="232.83636363636361"/><rect height="40.54545454545456" rx="0" ry="0" width="100" x="618" y="265.27272727272725"/><rect fill="url(#WhiteBlackGradient)" height="40.54545454545456" rx="0" ry="0" width="100" x="618" y="265.27272727272725"/><rect fill-opacity="0.3" filter="url(#SaturateMinus)" height="40.54545454545456" rx="0" ry="0" width="100" x="618" y="265.27272727272725"/><rect height="48.654545454545456" rx="0" ry="0" width="100" x="758" y="216.6181818181818"/><rect fill="url(#WhiteBlackGradient)" height="48.654545454545456" rx="0" ry="0" width="100" x="758" y="216.6181818181818"/><rect fill-opacity="0.3" filter="url(#SaturateMinus)" height="48.654545454545456" rx="0" ry="0" width="100" x="758" y="216.6181818181818"/><rect height="56.76363636363635" rx="0" ry="0" width="100" x="898" y="265.27272727272725"/><rect fill="url(#WhiteBlackGradient)" height="56.76363636363635" rx="0" ry="0" width="100" x="898" y="265.27272727272725"/><rect fill-opacity="0.3" filter="url(#SaturateMinus)" height="56.76363636363635" rx="0" ry="0" width="100" x="898" y="265.27272727272725"/><rect height="64.87272727272727" rx="0" ry="0" width="100" x="1038" y="200.39999999999998"/><rect fill="url(#WhiteBlackGradient)" height="64.87272727272727" rx="0" ry="0" width="100" x="1038" y="200.39999999999998"/><rect fill-opacity="0.3" filter="url(#SaturateMinus)" height="64.87272727272727" rx="0" ry="0" width="100" x="1038" y="200.39999999999998"/></g><!--              draw bars for data type 2--><g fill="rgb(255,195,56)" fill-opacity="1" id="ID_graph_2" stroke="black" stroke-opacity="0" stroke-width="0"><rect height="8.920000000000016" rx="0" ry="0" width="100" x="58" y="273.3818181818181"/><rect fill="url(#WhiteBlackGradient)" height="8.920000000000016" rx="0" ry="0" width="100" x="58" y="273.3818181818181"/><rect fill-opacity="0.3" filter="url(#SaturateMinus)" height="8.920000000000016" rx="0" ry="0" width="100" x="58" y="273.3818181818181"/><rect height="17.840000000000003" rx="0" ry="0" width="100" x="198" y="231.21454545454543"/><rect fill="url(#WhiteBlackGradient)" height="17.840000000000003" rx="0" ry="0" width="100" x="198" y="231.21454545454543"/><rect fill-opacity="0.3" filter="url(#SaturateMinus)" height="17.840000000000003" rx="0" ry="0" width="100" x="198" y="231.21454545454543"/><rect height="26.75999999999999" rx="0" ry="0" width="100" x="338" y="289.59999999999997"/><rect fill="url(#WhiteBlackGradient)" height="26.75999999999999" rx="0" ry="0" width="100" x="338" y="289.59999999999997"/><rect fill-opacity="0.3" filter="url(#SaturateMinus)" height="26.75999999999999" rx="0" ry="0" width="100" x="338" y="289.59999999999997"/><rect height="35.68000000000001" rx="0" ry="0" width="100" x="478" y="197.1563636363636"/><rect fill="url(#WhiteBlackGradient)" height="35.68000000000001" rx="0" ry="0" width="100" x="478" y="197.1563636363636"/><rect fill-opacity="0.3" filter="url(#SaturateMinus)" height="35.68000000000001" rx="0" ry="0" width="100" x="478" y="197.1563636363636"/><rect height="44.60000000000002" rx="0" ry="0" width="100" x="618" y="305.81818181818176"/><rect fill="url(#WhiteBlackGradient)" height="44.60000000000002" rx="0" ry="0" width="100" x="618" y="305.81818181818176"/><rect fill-opacity="0.3" filter="url(#SaturateMinus)" height="44.60000000000002" rx="0" ry="0" width="100" x="618" y="305.81818181818176"/><rect height="53.51999999999998" rx="0" ry="0" width="100" x="758" y="163.09818181818179"/><rect fill="url(#WhiteBlackGradient)" height="53.51999999999998" rx="0" ry="0" width="100" x="758" y="163.09818181818179"/><rect fill-opacity="0.3" filter="url(#SaturateMinus)" height="53.51999999999998" rx="0" ry="0" width="100" x="758" y="163.09818181818179"/><rect height="62.44" rx="0" ry="0" width="100" x="898" y="322.0363636363636"/><rect fill="url(#WhiteBlackGradient)" height="62.44" rx="0" ry="0" width="100" x="898" y="322.0363636363636"/><rect fill-opacity="0.3" filter="url(#SaturateMinus)" height="62.44" rx="0" ry="0" width="100" x="898" y="322.0363636363636"/><rect height="71.36000000000001" rx="0" ry="0" width="100" x="1038" y="129.03999999999996"/><rect fill="url(#WhiteBlackGradient)" height="71.36000000000001" rx="0" ry="0" width="100" x="1038" y="129.03999999999996"/><rect fill-opacity="0.3" filter="url(#SaturateMinus)" height="71.36000000000001" rx="0" ry="0" width="100" x="1038" y="129.03999999999996"/></g><!--              draw bars for data type 3--><g fill="rgb(87,62,130)" fill-opacity="1" id="ID_graph_3" stroke="black" stroke-opacity="0" stroke-width="0"><path d="   M 58 282.30181818181813   l 100 0   l 0 0   s 0 9.812000000000012 -9.812000000000012 9.812000000000012    l -80.37599999999998 0   s -9.812000000000012 0 -9.812000000000012 -9.812000000000012   l 0 0   z"/><path d="   M 58 282.30181818181813   l 100 0   l 0 0   s 0 9.812000000000012 -9.812000000000012 9.812000000000012    l -80.37599999999998 0   s -9.812000000000012 0 -9.812000000000012 -9.812000000000012   l 0 0   z" fill="url(#WhiteBlackGradient)"/><path d="   M 58 282.30181818181813   l 100 0   l 0 0   s 0 9.812000000000012 -9.812000000000012 9.812000000000012    l -80.37599999999998 0   s -9.812000000000012 0 -9.812000000000012 -9.812000000000012   l 0 0   z" fill-opacity="0.3" filter="url(#SaturateMinus)"/><path d="   M 198 221.59054545454543   s 0 -10 10 -10   l 80 0   s 10 0 10 10   l 0 9.623999999999995    l -100 0    l 0 -9.623999999999995   z"/><path d="   M 198 221.59054545454543   s 0 -10 10 -10   l 80 0   s 10 0 10 10   l 0 9.623999999999995    l -100 0    l 0 -9.623999999999995   z" fill="url(#WhiteBlackGradient)"/><path d="   M 198 221.59054545454543   s 0 -10 10 -10   l 80 0   s 10 0 10 10   l 0 9.623999999999995    l -100 0    l 0 -9.623999999999995   z" fill-opacity="0.3" filter="url(#SaturateMinus)"/><path d="   M 338 316.36   l 100 0   l 0 19.43599999999998   s 0 10 -10 10    l -80 0   s -10 0 -10 -10   l 0 -19.43599999999998   z"/><path d="   M 338 316.36   l 100 0   l 0 19.43599999999998   s 0 10 -10 10    l -80 0   s -10 0 -10 -10   l 0 -19.43599999999998   z" fill="url(#WhiteBlackGradient)"/><path d="   M 338 316.36   l 100 0   l 0 19.43599999999998   s 0 10 -10 10    l -80 0   s -10 0 -10 -10   l 0 -19.43599999999998   z" fill-opacity="0.3" filter="url(#SaturateMinus)"/><path d="   M 478 167.90836363636362   s 0 -10 10 -10   l 80 0   s 10 0 10 10   l 0 29.24799999999999    l -100 0    l 0 -29.24799999999999   z"/><path d="   M 478 167.90836363636362   s 0 -10 10 -10   l 80 0   s 10 0 10 10   l 0 29.24799999999999    l -100 0    l 0 -29.24799999999999   z" fill="url(#WhiteBlackGradient)"/><path d="   M 478 167.90836363636362   s 0 -10 10 -10   l 80 0   s 10 0 10 10   l 0 29.24799999999999    l -100 0    l 0 -29.24799999999999   z" fill-opacity="0.3" filter="url(#SaturateMinus)"/><path d="   M 618 350.41818181818184   l 100 0   l 0 39.06   s 0 10 -10 10    l -80 0   s -10 0 -10 -10   l 0 -39.06   z"/><path d="   M 618 350.41818181818184   l 100 0   l 0 39.06   s 0 10 -10 10    l -80 0   s -10 0 -10 -10   l 0 -39.06   z" fill="url(#WhiteBlackGradient)"/><path d="   M 618 350.41818181818184   l 100 0   l 0 39.06   s 0 10 -10 10    l -80 0   s -10 0 -10 -10   l 0 -39.06   z" fill-opacity="0.3" filter="url(#SaturateMinus)"/><path d="   M 758 114.2261818181818   s 0 -10 10 -10   l 80 0   s 10 0 10 10   l 0 48.871999999999986    l -100 0    l 0 -48.871999999999986   z"/><path d="   M 758 114.2261818181818   s 0 -10 10 -10   l 80 0   s 10 0 10 10   l 0 48.871999999999986    l -100 0    l 0 -48.871999999999986   z" fill="url(#WhiteBlackGradient)"/><path d="   M 758 114.2261818181818   s 0 -10 10 -10   l 80 0   s 10 0 10 10   l 0 48.871999999999986    l -100 0    l 0 -48.871999999999986   z" fill-opacity="0.3" filter="url(#SaturateMinus)"/><path d="   M 898 384.4763636363636   l 100 0   l 0 58.684000000000026   s 0 10 -10 10    l -80 0   s -10 0 -10 -10   l 0 -58.684000000000026   z"/><path d="   M 898 384.4763636363636   l 100 0   l 0 58.684000000000026   s 0 10 -10 10    l -80 0   s -10 0 -10 -10   l 0 -58.684000000000026   z" fill="url(#WhiteBlackGradient)"/><path d="   M 898 384.4763636363636   l 100 0   l 0 58.684000000000026   s 0 10 -10 10    l -80 0   s -10 0 -10 -10   l 0 -58.684000000000026   z" fill-opacity="0.3" filter="url(#SaturateMinus)"/><path d="   M 1038 60.54399999999998   s 0 -10 10 -10   l 80 0   s 10 0 10 10   l 0 68.49599999999998    l -100 0    l 0 -68.49599999999998   z"/><path d="   M 1038 60.54399999999998   s 0 -10 10 -10   l 80 0   s 10 0 10 10   l 0 68.49599999999998    l -100 0    l 0 -68.49599999999998   z" fill="url(#WhiteBlackGradient)"/><path d="   M 1038 60.54399999999998   s 0 -10 10 -10   l 80 0   s 10 0 10 10   l 0 68.49599999999998    l -100 0    l 0 -68.49599999999998   z" fill-opacity="0.3" filter="url(#SaturateMinus)"/></g></g></g></svg>